<svg t="1698907640834" class="icon" viewBox="0 0 1024 1024" version="1.1" xmlns="http://www.w3.org/2000/svg" p-id="2593" width="200" height="200"><path d="M759.466667 638.549333l-153.6 85.333334c-29.866667 17.066667-46.933333 46.933333-46.933334 81.066666v132.266667l362.666667-204.8c8.533333-4.266667 12.8-12.8 12.8-25.6v-405.333333l-115.2 64c-29.866667 17.066667-46.933333 46.933333-46.933333 81.066666v166.4c0 12.8-4.266667 21.333333-12.8 25.6" fill="#EE3306" p-id="2594"></path><path d="M294.4 617.216v-166.4c0-34.133333-17.066667-64-46.933333-81.066667L128 301.482667v405.333333c0 8.533333 8.533333 21.333333 12.8 25.6l362.666667 204.8v-132.266667c0-34.133333-17.066667-64-46.933334-81.066666l-153.6-85.333334c-4.266667-4.266667-8.533333-12.8-8.533333-21.333333" fill="#008DD5" p-id="2595"></path><path d="M704 135.082667l-153.6-85.333334c-8.533333-4.266667-21.333333-4.266667-29.866667 0l-358.4 204.8 119.466667 68.266667c29.866667 17.066667 64 17.066667 93.866667 0l153.6-85.333333h29.866666l145.066667 85.333333c29.866667 17.066667 64 17.066667 93.866667 0l119.466666-68.266667-213.333333-119.466666z" fill="#72AE2C" p-id="2596"></path></svg>
