<svg t="1647829220208" class="icon" viewBox="0 0 3087 1024" version="1.1" xmlns="http://www.w3.org/2000/svg" p-id="9576" width="200" height="200"><path d="M1948.219535 706.48062c0-102.59845 1.135132-144.566574 2.516341-93.271318 1.381209 51.303194 1.381209 135.24738 0 186.542636-1.381209 51.303194-2.516341 9.327132-2.516341-93.271318z m463.91169 168.682171c-9.866915-12.589643-9.589085-12.867473 3.000558-3.000558 7.644279 5.993178 13.891473 12.24831 13.891473 13.891472 0 6.532961-6.517085 2.333767-16.892031-10.890914z m-619.63907-23.282109c5.731225-2.294078 12.581705-2.00831 15.217116 0.627101 2.635411 2.635411-2.048 4.508775-10.414635 4.167442-9.247752-0.381023-11.129054-2.262326-4.794543-4.794543zM2392.921302 734.263566l0.388962-87.31783 41.722046-0.690604 41.714109-0.690605-39.475597 3.079938-39.475597 3.079938-2.635411 84.936434-2.627473 84.920558 0.388961-87.317829z m298.690481 78.720992c0.381023-9.247752 2.262326-11.129054 4.794543-4.80248 2.294078 5.731225 2.00831 12.581705-0.627101 15.217116-2.635411 2.635411-4.508775-2.048-4.167442-10.414636z m80.300651-39.03107c0.15876-13.097674 1.936868-17.495318 3.953116-9.771659 2.016248 7.723659 1.881302 18.439938-0.293705 23.813954-2.175008 5.374016-3.818171-0.94462-3.659411-14.042295z m-421.633984-0.658852c0.381023-9.247752 2.262326-11.129054 4.794542-4.794543 2.294078 5.723287 2.00831 12.573767-0.627101 15.209178-2.635411 2.635411-4.508775-2.048-4.167441-10.414635z m-277.829458-23.813954c0.381023-9.247752 2.262326-11.129054 4.794543-4.794542 2.294078 5.723287 2.00831 12.573767-0.627101 15.209178-2.635411 2.635411-4.508775-2.048-4.167442-10.414636z m517.326388-104.24955c12.002233-1.825736 31.648744-1.825736 43.658915 0 12.002233 1.817798 2.182946 3.302202-21.829458 3.302201s-33.839628-1.484403-21.829457-3.302201z m-384.992248-7.509334c5.461333-2.20676 14.391566-2.20676 19.844961 0 5.461333 2.198822 0.992248 4.000744-9.922481 4.000745s-15.383814-1.801922-9.92248-4.000745z m627.100775-0.349271c9.827225-1.88924 25.901643-1.88924 35.72093 0 9.827225 1.897178 1.786047 3.445085-17.860465 3.445085s-27.679752-1.547907-17.860465-3.445085zM1797.19938 609.24031L1782.077519 591.379845l17.860465 15.12186c16.780899 14.208992 21.472248 20.59907 15.121861 20.59907-1.508217 0-9.541457-8.03324-17.860465-17.860465zM561.612403 605.612651l41.674419-3.159318v-69.774883l-39.737551-3.095814-39.729612-3.087876 41.714108 0.690604 41.722047 0.690605v79.379845l-43.658915 0.754108-43.658915 0.762047 41.674419-3.159318zM645.135876 563.596899c0-19.646512 1.547907-27.679752 3.445085-17.860465 1.88924 9.827225 1.88924 25.901643 0 35.72093-1.897178 9.819287-3.445085 1.786047-3.445085-17.860465z m1215.56738 13.891473L1845.581395 559.627907l17.860465 15.12186c16.780899 14.208992 21.472248 20.59907 15.121861 20.59907-1.508217 0-9.541457-8.03324-17.860465-17.860465z m121.903628-59.19355c9.874853-1.905116 24.163225-1.825736 31.751938 0.158759s-0.492155 3.540341-17.955721 3.453024c-17.463566-0.087318-23.67107-1.714605-13.796217-3.611783z m916.741953-0.07938c12.002233-1.80986 31.648744-1.80986 43.658915 0 12.002233 1.825736 2.182946 3.31014-21.829457 3.310139s-33.839628-1.484403-21.829458-3.302201zM1614.268527 365.147287c0-41.475969 1.341519-58.439442 2.976744-37.705427s1.635225 54.676837 0 75.410853-2.976744 3.770543-2.976744-37.705426z m62.630698-61.249489c12.002233-1.825736 31.648744-1.825736 43.658915 0 12.002233 1.817798 2.182946 3.302202-21.829458 3.302202s-33.839628-1.484403-21.829457-3.302202z m214.436713-0.015876c12.065736-1.825736 29.926202-1.770171 39.689922 0.111132 9.763721 1.881302-0.111132 3.381581-21.940589 3.318078-21.829457-0.055566-29.81507-1.603473-17.749333-3.42921z m-611.185116-55.367441c7.723659-2.016248 18.439938-1.881302 23.813953 0.293705 5.374016 2.175008-0.94462 3.818171-14.042294 3.659411-13.097674-0.15876-17.495318-1.936868-9.771659-3.953116z m1377.089488-40.118574c49.120248-1.389147 129.492341-1.389147 178.604651 0 49.120248 1.397085 8.930233 2.540155-89.302325 2.540155s-138.422574-1.14307-89.302326-2.540155z m-1329.461581-23.385302c7.723659-2.016248 18.439938-1.881302 23.813953 0.293705 5.374016 2.175008-0.94462 3.818171-14.042294 3.659411-13.097674-0.15876-17.495318-1.936868-9.771659-3.953116z" fill="#E5A5A1" p-id="9577"></path><path d="M1061.800682 1002.511876c9.874853-1.905116 24.163225-1.825736 31.751938 0.15876s-0.492155 3.540341-17.955721 3.453023c-17.463566-0.087318-23.67107-1.714605-13.796217-3.611783zM1206.573643 778.208248V643.548279l-77.395348-2.587783-77.395349-2.595721 81.364341-1.666977L1214.511628 635.03876v138.914728c0 76.403101-1.786047 138.914729-3.968992 138.914729s-3.968992-60.598574-3.968993-134.659969zM130.587783 894.880744c-2.119442-5.532775-2.83386-102.876279-1.587597-216.310077l2.254388-206.260589 1.84955 212.126759 1.841612 212.134698 117.085272 2.421085 117.085271 2.429023-117.331349 1.746357c-88.667287 1.333581-118.275969-0.690605-121.197147-8.287256zM828.550946 809.674419c0-50.207752 1.293891-70.743318 2.865612-45.643411 1.571721 25.107845 1.571721 66.186915 0 91.286821-1.571721 25.107845-2.857674 4.564341-2.857674-45.64341z m-572.550946 34.006325c12.002233-1.825736 31.648744-1.825736 43.658915 0 12.002233 1.817798 2.182946 3.302202-21.829458 3.302202s-33.839628-1.484403-21.829457-3.302202z m75.910946 0.261954c5.723287-2.294078 12.573767-2.00831 15.209178 0.6271 2.635411 2.635411-2.048 4.508775-10.414636 4.167442-9.247752-0.381023-11.129054-2.262326-4.80248-4.794542z m33.236341-5.5169c0-1.643163 6.247194-7.898295 13.891473-13.891472 12.589643-9.866915 12.867473-9.589085 3.000558 3.000558-10.374946 13.224682-16.892031 17.423876-16.892031 10.890914zM390.215442 785.860465c0-10.914729 1.801922-15.383814 4.000744-9.922481 2.20676 5.461333 2.20676 14.391566 0 19.844962-2.198822 5.461333-4.000744 0.992248-4.000744-9.922481z m555.031814 3.31014c0.381023-9.247752 2.262326-11.129054 4.794542-4.794543 2.294078 5.723287 2.00831 12.573767-0.6271 15.209178-2.635411 2.635411-4.508775-2.048-4.167442-10.414635z m0.627101-43.000062c0-10.914729 1.801922-15.383814 4.000744-9.922481 2.20676 5.461333 2.20676 14.391566 0 19.844961-2.198822 5.461333-4.000744 0.992248-4.000744-9.92248zM252.031008 716.545984c18.55107-1.666977 48.91386-1.666977 67.472868 0 18.55107 1.666977 3.373643 3.040248-33.736434 3.040249s-52.295442-1.373271-33.736434-3.040249z m199.418046-8.080868c-9.866915-12.589643-9.589085-12.867473 3.000558-3.000558 7.644279 5.993178 13.891473 12.24831 13.891473 13.891473 0 6.532961-6.517085 2.333767-16.892031-10.890915z m292.832248-23.47262c9.874853-1.905116 24.163225-1.825736 31.751938 0.15876s-0.492155 3.540341-17.955721 3.453023c-17.463566-0.087318-23.67107-1.714605-13.796217-3.611783z m357.114047 0.357209c5.461333-2.20676 14.391566-2.20676 19.844961 0 5.461333 2.198822 0.992248 4.000744-9.922481 4.000745s-15.383814-1.801922-9.92248-4.000745z m286.267535-0.166697c5.723287-2.294078 12.573767-2.00831 15.209178 0.627101 2.635411 2.635411-2.048 4.508775-10.414636 4.167441-9.247752-0.381023-11.129054-2.262326-4.794542-4.794542zM259.968992 645.310512c9.827225-1.88924 25.901643-1.88924 35.72093 0 9.827225 1.897178 1.786047 3.445085-17.860465 3.445085s-27.679752-1.547907-17.860465-3.445085zM349.271318 639.976186c0-1.643163 6.247194-7.898295 13.891473-13.891473 12.589643-9.866915 12.867473-9.589085 3.000558 3.000558C355.780465 642.309953 349.271318 646.509147 349.271318 639.976186z m347.604341-2.881488c27.44955-1.555845 70.314667-1.547907 95.255814 0.023814 24.925271 1.571721 2.460775 2.841798-49.929923 2.825922-52.390698-0.015876-72.791318-1.301829-45.325891-2.857674z m722.531225 0.460403c5.731225-2.294078 12.581705-2.00831 15.217116 0.627101 2.635411 2.635411-2.048 4.508775-10.414636 4.167441-9.247752-0.381023-11.129054-2.262326-4.794542-4.794542z m-583.394233-48.151814c99.621705-1.26214 260.365891-1.26214 357.209302 0 96.843411 1.270078 15.336186 2.302016-181.12893 2.294077-196.465116 0-275.702078-1.031938-176.080372-2.302015zM526.066109 468.341085c0-19.646512 1.547907-27.679752 3.445085-17.860465 1.88924 9.827225 1.88924 25.901643 0 35.72093-1.897178 9.819287-3.445085 1.786047-3.445085-17.860465z m1885.588837 2.516341c5.731225-2.294078 12.581705-2.00831 15.217116 0.627101 2.635411 2.635411-2.048 4.508775-10.414636 4.167442-9.247752-0.381023-11.129054-2.262326-4.794542-4.794543z m498.41017-7.858604c4.802481-3.611783 10.994109-11.922853 13.748589-18.47169 3.532403-8.366636 4.477023-7.382326 3.175194 3.310139-1.008124 8.374574-7.199752 16.677705-13.748589 18.463752-7.660155 2.08769-8.787349 0.90493-3.175194-3.310139z m-232.979845-24.306109c20.734016-1.635225 54.676837-1.635225 75.410853 0s3.770543 2.976744-37.705426 2.976744-58.439442-1.341519-37.705427-2.976744zM1979.415814 365.147287c0-41.475969 1.341519-58.439442 2.976744-37.705427s1.635225 54.676837 0 75.410853-2.976744 3.770543-2.976744-37.705426z m892.642233 66.020217c5.731225-2.294078 12.581705-2.00831 15.217116 0.627101 2.635411 2.635411-2.048 4.508775-10.414636 4.167442-9.247752-0.381023-11.129054-2.262326-4.794543-4.794543z m-1223.600621-7.810977c-7.302946-7.295008-6.707597-111.957333 0.658853-116.545488 3.27045-2.040062 4.786605 22.56769 3.357768 54.684775l-2.595721 58.391814 46.254635 2.881488 46.254636 2.881489-44.317768 1.500279c-24.37755 0.82555-46.707101-0.881116-49.612403-3.794357z m252.308838-0.396899l43.357271-3.016434 2.929116-57.169365 2.921178-57.161426-0.595348 59.534884-0.603287 59.534884-45.683101 0.650914-45.683101 0.650915 43.357272-3.016434z m671.140713-5.23907c0-1.651101 6.247194-7.906233 13.891473-13.891473 12.589643-9.874853 12.867473-9.604961 3.000558 2.99262-10.374946 13.224682-16.892031 17.423876-16.892031 10.890915z m85.603225-2.865612c23.059845-1.611411 58.780775-1.587597 79.379845 0.031752 20.591132 1.635225 1.714605 2.944992-41.944311 2.929116-43.658915-0.023814-60.503318-1.349457-37.435534-2.960868zM1461.843349 396.899225c0-10.914729 1.801922-15.383814 4.000744-9.922481 2.20676 5.461333 2.20676 14.391566 0 19.844961-2.198822 5.461333-4.000744 0.992248-4.000744-9.92248z m729.667473-12.56583c0.381023-9.247752 2.262326-11.129054 4.794542-4.80248 2.294078 5.731225 2.00831 12.581705-0.6271 15.217116-2.635411 2.635411-4.508775-2.048-4.167442-10.414636zM591.379845 269.891473c7.898295-8.731783 16.153798-15.875969 18.336744-15.875969 2.182946 0-2.500465 7.144186-10.39876 15.875969-7.898295 8.731783-16.153798 15.875969-18.336744 15.875969-2.182946 0 2.500465-7.144186 10.39876-15.875969z m140.899225 10.39876c7.644279-1.984496 20.146605-1.984496 27.782946 0 7.644279 2.000372 1.389147 3.635597-13.891473 3.635596s-21.527814-1.635225-13.891473-3.627658z m1461.017798-0.452466c47.175442-1.405023 122.189395-1.397085 166.697675 0.015876 44.516217 1.412961 5.921736 2.563969-85.761985 2.556031-91.683721-0.007938-128.103194-1.166884-80.93569-2.571907z m-528.098232-7.826852c18.67014-1.682853 47.246884-1.659039 63.503876 0.047628s0.98431 3.079938-33.942822 3.048186c-34.927132-0.023814-48.231194-1.428837-29.561054-3.095814z m206.387597 0c18.67014-1.682853 47.246884-1.659039 63.503876 0.047628s0.98431 3.079938-33.942822 3.048186c-34.927132-0.023814-48.231194-1.428837-29.561054-3.095814z m-403.662388-31.886884L1448.682171 218.294574l21.829457 19.241674c12.002233 10.589271 21.829457 20.408558 21.829457 21.829457 0 6.231318-6.429767 1.158946-24.41724-19.241674z m677.332341-21.829457c0.087318-17.463566 1.714605-23.67107 3.611783-13.796217 1.905116 9.874853 1.825736 24.163225-0.15876 31.751938s-3.540341-0.492155-3.453023-17.955721z m254.174264-3.968993c0-19.646512 1.547907-27.679752 3.445085-17.860465 1.88924 9.827225 1.88924 25.901643 0 35.720931-1.897178 9.827225-3.445085 1.786047-3.445085-17.860466z m198.274976 25.973086c16.376062-1.714605 43.16676-1.714605 59.534884 0 16.376062 1.706667 2.976744 3.11169-29.767442 3.11169s-46.143504-1.405023-29.767442-3.11169z m178.604652-0.095256c27.290791-1.555845 71.941953-1.555845 99.224806 0 27.290791 1.547907 4.96124 2.817984-49.612403 2.817984s-76.903194-1.270078-49.612403-2.817984z m-502.609365-7.866543c82.920186-2.405209 91.088372-3.992806 94.342946-18.376434 2.857674-12.676961 3.349829-12.240372 2.500465 2.222636-1.031938 17.582636-3.143442 17.995411-94.342946 18.384372l-93.279256 0.396899 90.778791-2.627473zM712.434109 216.659349c9.827225-1.88924 25.901643-1.88924 35.72093 0 9.827225 1.897178 1.786047 3.445085-17.860465 3.445085s-27.679752-1.547907-17.860465-3.445085z m1520.457426-47.913675c29.648372-1.532031 76.085581-1.524093 103.193798 0.023814 27.100279 1.539969 2.841798 2.794171-53.91479 2.778295-56.756589-0.007938-78.935318-1.270078-49.279008-2.802109z m-55.899287-23.853643c51.303194-1.381209 135.24738-1.381209 186.542636 0 51.303194 1.381209 9.327132 2.516341-93.271318 2.516341s-144.566574-1.135132-93.271318-2.516341zM1253.185488 113.116279c-9.866915-12.589643-9.589085-12.867473 3.000559-3.000558 13.224682 10.374946 17.423876 16.892031 10.890914 16.892031-1.643163 0-7.898295-6.247194-13.891473-13.891473z m-31.751938-31.751938c-9.866915-12.589643-9.589085-12.867473 3.000559-3.000558 13.224682 10.374946 17.423876 16.892031 10.890914 16.892031-1.643163 0-7.898295-6.247194-13.891473-13.891473z m-187.399938-63.24986c12.065736-1.825736 29.926202-1.770171 39.689923 0.111131 9.763721 1.881302-0.111132 3.373643-21.940589 3.318078-21.829457-0.063504-29.81507-1.603473-17.749334-3.429209z" fill="#9B9B9B" p-id="9578"></path><path d="M1728.996217 899.508589c5.723287-2.294078 12.573767-2.00831 15.209178 0.627101 2.635411 2.635411-2.048 4.508775-10.414635 4.167442-9.247752-0.381023-11.129054-2.262326-4.794543-4.794543z m47.627907 0c5.723287-2.294078 12.573767-2.00831 15.209178 0.627101 2.635411 2.635411-2.048 4.508775-10.414635 4.167442-9.247752-0.381023-11.129054-2.262326-4.794543-4.794543z m412.775194 0c5.723287-2.294078 12.573767-2.00831 15.209178 0.627101 2.635411 2.635411-2.048 4.508775-10.414636 4.167442-9.247752-0.381023-11.129054-2.262326-4.794542-4.794543z m39.689922 0c5.723287-2.294078 12.573767-2.00831 15.209179 0.627101 2.635411 2.635411-2.048 4.508775-10.414636 4.167442-9.247752-0.381023-11.129054-2.262326-4.794543-4.794543z m328.727814-0.396899l85.134884-2.635411 2.492527-122.792682 2.500465-122.784744-0.317519 125.023256-0.309582 125.039131-87.317829 0.3969-87.317829 0.381023 85.134883-2.627473zM2956.359442 714.418605c0-106.964341 1.127194-150.72645 2.500465-97.24031 1.373271 53.478202 1.373271 140.994481 0 194.48062-1.373271 53.478202-2.500465 9.724031-2.500465-97.24031z m-928.744186-3.968993c0-104.781395 1.127194-146.55107 2.500465-92.818852 1.381209 53.740155 1.373271 139.470388 0 190.511628-1.389147 51.049178-2.508403 7.08862-2.508403-97.692776z m79.165519 152.806202l-15.12186-17.860465 17.860465 15.12186c16.780899 14.208992 21.472248 20.59907 15.12186 20.59907-1.508217 0-9.541457-8.03324-17.860465-17.860465z m614.931845 3.968992c-9.866915-12.589643-9.589085-12.867473 3.000558-3.000558 7.644279 5.993178 13.891473 12.24831 13.891473 13.891473 0 6.532961-6.517085 2.333767-16.892031-10.890915z m-547.72093-23.813953c-9.866915-12.589643-9.589085-12.867473 3.000558-3.000558 13.224682 10.374946 17.423876 16.892031 10.890915 16.892031-1.643163 0-7.898295-6.247194-13.891473-13.891473zM2471.713736 738.232558c0-50.207752 1.293891-70.743318 2.865613-45.643411 1.571721 25.107845 1.571721 66.186915 0 91.286822-1.571721 25.107845-2.857674 4.564341-2.857675-45.643411z m-319.892837 50.938047c0.381023-9.247752 2.262326-11.129054 4.794543-4.794543 2.294078 5.723287 2.00831 12.573767-0.627101 15.209178-2.635411 2.635411-4.508775-2.048-4.167442-10.414635z m541.156217-15.217117c0.087318-17.463566 1.714605-23.67107 3.611783-13.796217 1.905116 9.874853 1.825736 24.163225-0.158759 31.751938s-3.540341-0.492155-3.453024-17.955721z m-421.165643 0c0.15876-13.097674 1.936868-17.495318 3.953116-9.771659 2.016248 7.723659 1.881302 18.439938-0.293705 23.813954-2.175008 5.374016-3.818171-0.94462-3.659411-14.042295z m-199.370419-0.658852c0.381023-9.247752 2.262326-11.129054 4.794543-4.794543 2.294078 5.723287 2.00831 12.573767-0.627101 15.209178-2.635411 2.635411-4.508775-2.048-4.167442-10.414635z m-492.155038-31.751938c0.381023-9.247752 2.262326-11.129054 4.794542-4.794543 2.294078 5.723287 2.00831 12.573767-0.627101 15.209178-2.635411 2.635411-4.508775-2.048-4.167441-10.414635z m0-39.689923c0.381023-9.247752 2.262326-11.129054 4.794542-4.794542 2.294078 5.723287 2.00831 12.573767-0.627101 15.209178-2.635411 2.635411-4.508775-2.048-4.167441-10.414636z m728.65141-25.139597c-9.866915-12.589643-9.589085-12.867473 3.000558-3.000558 13.224682 10.374946 17.423876 16.892031 10.890915 16.892031-1.643163 0-7.898295-6.247194-13.891473-13.891473zM2714.790698 687.604093c0-1.643163 6.247194-7.898295 13.891473-13.891473 12.589643-9.866915 12.867473-9.589085 3.000558 3.000558-10.374946 13.224682-16.892031 17.423876-16.892031 10.890915z m-881.116279-33.180775c30.061147-6.540899 71.44186-7.652217 71.44186-1.913054 0 3.492713-18.749519 5.929674-41.674419 5.421643-22.924899-0.508031-36.316279-2.08769-29.767441-3.508589zM526.17724 567.565891c0.063504-21.829457 1.603473-29.81507 3.42921-17.749333 1.825736 12.065736 1.770171 29.926202-0.111132 39.689923-1.881302 9.763721-3.373643-0.111132-3.318078-21.94059z m1202.811039-25.266604c5.731225-2.294078 12.581705-2.00831 15.217116 0.627101 2.635411 2.635411-2.048 4.508775-10.414635 4.167441-9.247752-0.381023-11.129054-2.262326-4.794543-4.794542z m39.689923 0c5.731225-2.294078 12.581705-2.00831 15.217116 0.627101 2.635411 2.635411-2.048 4.508775-10.414636 4.167441-9.247752-0.381023-11.129054-2.262326-4.794542-4.794542z" fill="#D86465" p-id="9579"></path><path d="M954.106047 940.651163c0.15876-13.097674 1.936868-17.495318 3.953116-9.771659 2.016248 7.723659 1.881302 18.439938-0.293706 23.813953-2.175008 5.374016-3.818171-0.94462-3.65941-14.042294z m100.161488 14.423318c5.723287-2.294078 12.573767-2.00831 15.209178 0.6271 2.635411 2.635411-2.048 4.508775-10.414635 4.167442-9.247752-0.381023-11.129054-2.262326-4.794543-4.794542zM654.13755 769.984496c0-72.037209 1.206574-101.503008 2.675101-65.488372 1.468527 36.014636 1.468527 94.962109 0 130.976744-1.468527 36.014636-2.675101 6.548837-2.675101-65.488372z m71.298977 19.844961c0.007938-56.756589 1.270078-78.935318 2.802109-49.279007 1.532031 29.648372 1.524093 76.085581-0.023814 103.193798-1.539969 27.100279-2.794171 2.841798-2.778295-53.914791z m344.34183 93.469768c14.264558-1.762233 35.697116-1.730481 47.627907 0.07938 11.930791 1.817798 0.254016 3.254574-25.941334 3.214883-26.195349-0.047628-35.95907-1.524093-21.686573-3.294263zM527.082171 758.077519c0.007938-65.488372 1.238326-91.223318 2.730666-57.18524 1.492341 34.03014 1.484403 87.611535-0.015876 119.069768-1.508217 31.450295-2.722729 3.603845-2.71479-61.884528z m-309.938605 23.813954c-0.023814-39.293023 1.317705-56.367628 2.984682-37.943566 1.666977 18.416124 1.682853 50.564961 0.03969 71.44186-1.635225 20.868961-3.000558 5.794729-3.024372-33.498294z m880.282791 61.995659c7.644279-1.984496 20.146605-1.984496 27.782945 0 7.644279 2.000372 1.389147 3.635597-13.891473 3.635597s-21.527814-1.635225-13.891472-3.627659zM1525.934636 769.984496c0-15.28062 1.635225-21.527814 3.627659-13.891473 2.000372 7.644279 2.000372 20.146605 0 27.782946-1.992434 7.644279-3.627659 1.389147-3.627659-13.891473z m-270.478884 0c0-10.914729 1.801922-15.383814 4.000744-9.92248 2.20676 5.461333 2.20676 14.391566 0 19.844961-2.198822 5.461333-4.000744 0.992248-4.000744-9.922481zM372.069209 732.27907c-9.866915-12.589643-9.589085-12.867473 3.000558-3.000558 7.644279 5.993178 13.891473 12.24831 13.891473 13.891472 0 6.532961-6.517085 2.333767-16.892031-10.890914zM217.040372 591.379845c0.031752-34.927132 1.428837-48.231194 3.103752-29.561054 1.682853 18.67014 1.659039 47.246884-0.047628 63.503876s-3.079938 0.98431-3.048186-33.942822z m157.592806 0c0.15876-13.097674 1.936868-17.495318 3.953117-9.771659 2.016248 7.723659 1.881302 18.439938-0.293706 23.813954-2.175008 5.374016-3.818171-0.94462-3.659411-14.042295zM462.244713 579.472868c0-15.28062 1.635225-21.527814 3.627659-13.891473 2.000372 7.644279 2.000372 20.146605 0 27.782946-1.992434 7.644279-3.627659 1.389147-3.627659-13.891473z m377.728992-45.643411c93.072868-1.270078 243.100775-1.26214 333.395349 0.007938 90.302512 1.270078 14.153426 2.317891-169.214015 2.309954-183.367442 0-257.246264-1.039876-164.181334-2.309954z m-404.40062-23.813953c-9.866915-12.589643-9.589085-12.867473 3.000558-3.000558C451.798326 517.397829 455.997519 523.906977 449.464558 523.906977c-1.643163 0-7.898295-6.247194-13.891473-13.891473z m121.586109-15.375876c23.639318-2.730667 29.950016-7.144186 32.720372-22.877271 3.000558-17.034915 3.31014-16.725333 2.460775 2.436961-0.873178 19.956093-3.810233 22.012031-32.712434 22.869333l-31.751938 0.952558z m1107.833054-47.985116c18.55107-1.666977 48.91386-1.666977 67.472868 0 18.55107 1.666977 3.373643 3.040248-33.736434 3.040248s-52.295442-1.373271-33.736434-3.040248z m202.656744-0.031752c20.876899-1.643163 53.025736-1.619349 71.441861 0.03969 18.424062 1.666977 1.349457 3.008496-37.943566 2.984682-39.293023-0.023814-54.367256-1.389147-33.498295-3.024372z m734.120682-7.707783c9.874853-1.905116 24.163225-1.825736 31.751938 0.158759s-0.492155 3.540341-17.955721 3.453024c-17.463566-0.087318-23.67107-1.714605-13.796217-3.611783zM1772.988527 369.116279c-0.023814-39.293023 1.317705-56.367628 2.984682-37.943566 1.666977 18.416124 1.682853 50.564961 0.047628 71.441861-1.643163 20.868961-3.008496 5.794729-3.03231-33.498295z m650.819473 7.937985c0.031752-34.927132 1.428837-48.231194 3.095814-29.561055 1.682853 18.67014 1.659039 47.246884-0.055566 63.503876-1.698729 16.256992-3.072 0.98431-3.040248-33.942821z m353.002171 38.237271c5.723287-2.294078 12.573767-2.00831 15.209178 0.627101 2.635411 2.635411-2.048 4.508775-10.414636 4.167442-9.247752-0.381023-11.129054-2.262326-4.794542-4.794543zM2196.043411 406.821705c-2.040062-3.27045 21.861209-4.977116 53.113054-3.77848 96.716403 3.699101 107.893085 7.136248 27.520992 8.461891-42.309457 0.698543-78.593984-1.405023-80.634046-4.683411z m-21.996155-67.734821c3.429209-3.413333 48.810667-5.191442 100.836217-3.937241l94.596961 2.28614-100.844155 3.93724c-55.462698 2.159132-98.034109 1.135132-94.589023-2.286139z m-754.172031-43.396962c-9.866915-12.589643-9.589085-12.867473 3.000558-3.000558 13.224682 10.374946 17.423876 16.892031 10.890915 16.892031-1.643163 0-7.898295-6.247194-13.891473-13.891473z m797.164155-39.642294c34.03014-1.492341 87.611535-1.484403 119.069767 0.015876 31.450295 1.508217 3.603845 2.722729-61.884527 2.714791-65.488372-0.007938-91.223318-1.238326-57.18524-2.730667z m-492.925023-23.813954c37.983256-1.452651 102.28093-1.460589 142.883721-0.015876 40.610729 1.444713 9.533519 2.635411-69.052528 2.643349-78.586047 0-111.806512-1.174822-73.823255-2.619535z m16.645953-23.813953c34.03014-1.492341 87.611535-1.484403 119.069768 0.015876 31.450295 1.508217 3.603845 2.722729-61.884528 2.714791-65.488372-0.007938-91.223318-1.238326-57.18524-2.730667z m488.130481-15.852155c27.465426-1.555845 70.330543-1.547907 95.255814 0.023814 24.933209 1.571721 2.468713 2.841798-49.921985 2.825922-52.390698-0.015876-72.791318-1.301829-45.325891-2.857674zM841.426357 107.162791c10.255876-10.914729 20.432372-19.844961 22.615317-19.844962 2.182946 0-4.421457 8.930233-14.677333 19.844962-10.255876 10.914729-20.432372 19.844961-22.615318 19.844961-2.182946 0 4.421457-8.930233 14.677334-19.844961z m1827.72093 13.923225c42.563473-1.428837 112.219287-1.428837 154.790697 0 42.563473 1.428837 7.739535 2.595721-77.395348 2.59572s-119.96676-1.166884-77.395349-2.59572zM1724.130233 97.287938c37.975318-1.452651 102.272992-1.460589 142.88372-0.015876 40.602791 1.444713 9.525581 2.635411-69.060465 2.643349-78.586047 0-111.806512-1.174822-73.823255-2.619535z" fill="#6A6A6A" p-id="9580"></path><path d="M995.193054 985.373767c-27.814698-12.986543-33.260155-19.527442-36.038449-43.254077l-3.254574-27.957581 22.750264 16.201426c65.567752 46.691225 156.481488 27.60831 156.481488-32.84738 0-15.026605-4.699287-16.399876-55.962791-16.399876-92.509271 0-126.618791-30.370729-126.594976-112.71938 0.031752-96.248062 39.221581-125.388403 168.666294-125.404279L1206.573643 642.976744l-0.119069 140.899225c-0.127008 151.798078-3.365705 166.912-41.960186 195.568124-32.029767 23.782202-124.150078 27.005023-169.301334 5.929674zM1135.131783 764.983566V680.602791l-37.443473 4.223007c-49.263132 5.556589-73.68831 32.252031-73.68831 80.562605 0 55.565891 26.076279 79.760868 89.302326 82.896372L1135.131783 849.364341z m224.446512 132.21507c-63.210171-14.963101-97.367318-59.852403-97.407008-128.023814-0.023814-32.990264 4.604031-51.43814 17.939845-71.441861 50.064868-75.172713 189.852775-74.759938 229.463318 0.682667 20.345054 38.761178 19.598884 113.076589-1.484403 147.17817-25.306295 40.96-93.469767 64.639008-148.511752 51.604838z m66.083721-45.968869c26.830388-17.916031 37.475225-87.190822 20.12279-130.95293-17.765209-44.81786-79.935504-48.294698-102.447628-5.723287-14.836093 28.060775-8.787349 106.011783 9.819287 126.579101 14.637643 16.169674 54.994357 21.789767 72.505551 10.097116zM134.945736 686.635659V476.27907l109.147287 0.190511c132.167442 0.230202 165.586357 6.961612 194.48062 39.205706 40.92031 45.667225 24.703008 139.057612-27.005023 155.465426-15.042481 4.778667-13.661271 6.96955 14.097861 22.36924 83.777488 46.500713 72.473798 169.769674-17.868403 194.861644-16.907907 4.691349-85.214264 8.549209-151.798078 8.573023L134.945736 896.992248z m243.434171 142.280434c17.44769-17.44769 19.797333-25.290419 16.010915-53.502015C387.580031 724.579225 369.330605 714.418605 284.894264 714.418605H214.325581v134.945736h71.79907c66.575876 0 73.299349-1.492341 92.255256-20.448248z m-16.844403-197.489116c24.837953-24.830016 24.837953-55.264248 0-80.094264-17.455628-17.463566-26.115969-19.487752-83.348837-19.487752H214.325581v119.069768h63.861086c57.232868 0 65.893209-2.024186 83.348837-19.487752zM531.844961 769.984496V642.976744h71.441861v254.015504h-71.441861z m127.007752 0V642.976744h91.683721c144.22524 0 154.393798 10.47814 154.393799 159.132775V896.992248h-71.441861v-91.286822c0-81.483411-1.746357-93.033178-16.296682-107.583504-12.724589-12.724589-24.448992-15.764837-53.581395-13.891472L726.325581 686.635659v210.372465l-33.736434-0.007938L658.852713 896.992248z m-7.937984-208.372093V535.813953l347.7631 2.302016 347.778977 2.28614 42.595225-22.250171c78.514605-41.015566 101.487132-126.809302 53.40676-199.465674C1417.279504 280.639504 1352.346791 246.077519 1306.044527 246.077519c-28.679938 0-34.014264-3.079938-46.953178-27.108217-23.147163-42.976248-75.172713-92.144124-119.172961-112.64-48.937674-22.782016-111.528682-24.925271-168.086822-5.7471-49.334574 16.733271-128.960496 94.073054-150.202543 145.900155l-14.812279 36.125767-66.329798-1.349457c-36.482977-0.746171-64.678698 0.301643-62.654512 2.325829 2.024186 2.024186-8.160248 14.081984-22.639132 26.790698-33.514171 29.426109-51.04124 66.59969-61.678139 130.79417C585.085023 492.035969 585.005643 492.155039 558.453085 492.155039 531.892589 492.155039 531.844961 492.083597 531.844961 453.298605c0-54.264062 26.536682-134.016992 56.756589-170.539659 33.736434-40.777426 77.974822-60.106419 138.120931-60.320744 47.445333-0.174636 48.128-0.492155 57.883783-27.481303 12.033984-33.283969 73.362853-102.900093 111.893829-127.023628 133.596279-83.626667 309.359132-43.762109 386.365519 87.635349 19.61476 33.482419 22.043783 34.943008 57.986977 34.943008 25.195163 0 51.644527 7.168 80.554667 21.829457 140.764279 71.386295 145.796961 281.107845 8.469829 352.843411l-42.547597 22.226357H650.914729z m1724.527131-98.526263c-22.313674-9.009612-9.343008-24.321984 19.844962-23.432931l29.767442 0.904931v-127.007752l-148.83721-2.159132-148.837209-2.159132v75.585488c0 70.290853-1.111318 75.585488-15.875969 75.585489-14.796403 0-15.868031-5.254946-15.756899-77.395349 0.063504-42.563473 3.000558-81.935876 6.525023-87.476589 4.92155-7.755411 45.722791-9.589085 176.501085-7.937985l170.095132 2.143256 2.278202 78.205023c1.484403 50.850729-0.936682 82.094636-6.921923 89.302326-8.890543 10.716279-48.389953 14.066109-68.782636 5.842357z m518.588528-16.574512c-4.048372-12.748403-17.503256-13.653333-163.268466-11.081426-87.373395 1.547907-158.854946 0.261953-158.854945-2.857675 0-3.127566 14.21693-22.670884 31.593178-43.420775C2632.235659 354.819969 2698.914729 252.173891 2698.914729 242.251411c0-2.262326-30.362791-4.111876-67.472869-4.111876-55.05786 0-67.472868-2.222636-67.472868-12.057799 0-10.486078 23.361488-11.779969 179.930295-9.92248 135.342636 1.603473 180.747907 4.596093 183.240434 12.057798 2.524279 7.596651-20.710202 9.922481-99.081923 9.922481H2725.665736l-14.153426 29.767442c-7.779225 16.376062-33.926946 58.026667-58.106046 92.556899l-43.936745 62.781519 128.952559-4.80248c70.933829-2.635411 130.698915-6.532961 132.826294-8.652403 2.12738-2.135318-9.477953-23.980651-25.79845-48.56459-20.71814-31.228031-27.147907-47.199256-21.321426-53.025736s15.947411 2.08769 33.585613 26.290605C2885.060465 371.997767 2921.178295 438.986419 2921.178295 452.203163c0 13.812093-22.464496 9.09693-27.147907-5.691535z m-1272.974884-83.348837l2.262325-81.364341 70.767132-2.309954c38.927876-1.270078 72.86276 1.031938 75.410853 5.127938 2.556031 4.096 3.508589 41.753798 2.111504 83.682233L1769.083039 444.527132H1618.793178z m125.301085 1.603473v-63.876962l-49.612403 2.357582-49.612403 2.365519-2.389333 50.763411c-3.341891 70.81476-2.254388 72.275349 53.740155 72.275349H1746.356589z m74.83138 69.211286c-2.222636-5.802667-3.008496-42.420589-1.730481-81.364341l2.309954-70.814759h150.821705l2.262326 81.364341 2.262325 81.364341h-75.934759c-55.843721 0-77.014326-2.794171-79.99107-10.55752z m129.905116-70.814759l2.317892-61.51938h-51.350822c-58.963349 0-57.899659-1.508217-53.803659 76.68093l2.683039 51.04124 48.91386-2.341705 48.921799-2.341705z m219.263008 54.660961c-2.389333-6.22338-3.214884-25.084031-1.825736-41.912558l2.508403-30.608868 100.994976-2.222636 101.002915-2.222636 5.31845 21.194419c2.929116 11.668837 2.048 30.52155-1.952744 41.912558-7.239442 20.630822-7.683969 20.726078-104.48769 22.940775-78.339969 1.801922-98.057922 0.03969-101.558574-9.081054z m184.113612-25.48093c2.817984-11.22431 1.666977-23.869519-2.540155-28.092527-4.223008-4.21507-41.253705-6.636155-82.285147-5.374016-64.615194 1.992434-74.974264 4.223008-77.355659 16.653892-6.350388 33.172837 2.571907 37.245023 81.546915 37.245023 74.490047 0 75.569612-0.277829 80.634046-20.424434zM2152.741705 216.310078l2.421086-37.705427h238.139535l2.421085 37.705427 2.421085 37.705426h-247.823876z m219.25507 0l-2.508403-21.829458h-190.511628l-2.508403 21.829458-2.516341 21.829457h200.561116z m-725.452403 3.310139c-2.309953-6.016992-3.119628-33.776124-1.801922-61.694015l2.389333-50.763411h301.643411v119.069767l-149.019783 2.159132c-120.728806 1.746357-149.813581 0.07938-153.211039-8.771473z m272.876155-50.938046l2.405209-41.674419H1674.914729v38.364279c0 21.107101 2.476651 40.84093 5.493085 43.865302 3.024372 3.016434 57.50276 4.508775 121.054264 3.31014L1917.023256 210.356589z m170.238016-35.720931c2.278202-6.866357 28.140155-10.621023 83.864806-12.184806 73.878822-2.063876 80.427659-3.516527 78.744806-17.360372-2.548093-20.853085 12.335628-21.908837 21.750078-1.547907 7.080682 15.288558 15.16155 16.907907 94.620775 18.940031 60.797023 1.563783 87.86555 5.207318 90.167566 12.153054 2.571907 7.747473-37.816558 9.922481-184.574016 9.922481s-187.145922-2.175008-184.574015-9.922481zM2587.782946 111.981147c0-3.89755 5.651845-9.25569 12.557891-11.906976 16.368124-6.278946 276.035473-6.278946 292.403597 0C2929.092465 114.021209 2890.220155 119.069767 2746.542636 119.069767c-87.873488 0-158.75969-3.167256-158.75969-7.08862z" fill="#555454" p-id="9581"></path><path d="M1710.08 889.967132c-35.903504-9.223938-75.720434-34.847752-71.44186-45.968868 2.151194-5.628031-0.754109-7.985612-6.929861-5.612155-14.844031 5.691535-39.261271-61.312992-39.094574-107.281861 0.182574-49.914047 10.073302-97.486388 19.106729-91.905984 4.096 2.532217 5.286698-1.024 2.651287-7.898295-7.779225-20.249798 46.167318-65.250233 86.127132-71.83876 18.67014-3.079938 38.689736-9.430326 44.476527-14.113736 7.429953-6.001116 12.105426-6.02493 15.875969-0.07938 2.937054 4.651659 20.551442 10.986171 39.134263 14.089923 22.877271 3.826109 42.896868 14.502698 62.027411 33.085519 34.69693 33.696744 33.649116 54.502202-2.746542 54.502201-27.227287 0-38.102326-14.566202-28.854574-38.657984 3.746729-9.771659 1.746357-11.859349-7.858605-8.176124-7.096558 2.722729-17.796961 0.889054-23.782201-4.080124-12.121302-10.057426-93.525333-17.336558-87.651225-7.842729 2.040062 3.31014-3.476837 8.303132-12.272124 11.089365-9.533519 3.024372-16.042667 12.073674-16.114109 22.400992-0.103194 14.09786-1.555845 15.105984-7.818914 5.421643-4.230946-6.548837-8.041178-10.12093-8.461892-7.937984-22.416868 116.100961-16.368124 168.729798 24.687132 214.72248 23.258295 26.036589 26.878016 27.306667 77.514419 27.100279 65.226419-0.277829 69.949519-1.786047 98.296062-31.46617l22.742325-23.813954-2.206759 23.71076c-1.730481 18.479628-9.319194 27.624186-34.419101 41.428341-35.522481 19.527442-105.138605 28.846636-142.978977 19.122605zM1877.333333 841.426357c2.698915-4.365891 1.119256-7.937984-3.500651-7.937985s-8.406326 3.572093-8.406325 7.937985 1.571721 7.937984 3.500651 7.937984 5.715349-3.572093 8.406325-7.937984z m91.342388 48.95355c-5.048558-1.666977-7.99355-68.203163-7.99355-180.589147V531.844961h55.565891v363.464434l-19.789395-1.143069c-10.882977-0.635039-23.385302-2.333767-27.782946-3.786419z m177.413953-12.986543c-26.909767-13.621581-44.055814-28.449736-50.279193-43.468403-10.803597-26.084217-12.597581-90.096124-2.952931-105.305302 3.572093-5.628031 6.858419-12.018109 7.302946-14.201054 3.262512-16.050605 14.224868-30.910512 20.114853-27.266977 3.905488 2.413147 7.104496 0.682667 7.104496-3.857861 0-8.715907 59.217364-41.952248 64.805705-36.371845 1.793984 1.801922 17.415938 4.127752 34.720745 5.175566 38.070574 2.302016 72.481736 20.059287 93.525333 48.24707 20.670512 27.68769 27.203473 110.203039 10.08124 127.325271-6.525023 6.525023-9.970109 13.764465-7.652217 16.082357 5.620093 5.620093-41.03938 39.761364-58.598201 42.865116-67.274419 11.906977-78.125643 11.057612-118.180714-9.223938z m106.313427-24.639504c15.232992-9.970109 22.869333-28.203659 15.875969-37.888-1.095442-1.508217 2.635411-8.319008 8.279318-15.12186 10.35907-12.478512 8.001488-37.229147-7.461706-78.308217-16.090295-42.746047-76.260217-51.334946-103.431938-14.764651-17.876341 24.052093-22.591504 103.495442-7.239442 121.998884 5.508961 6.636155 7.731597 15.748961 4.945365 20.257736-3.127566 5.064434 0.166698 6.191628 8.636527 2.937054 10.112992-3.881674 12.478512-2.08769 9.049302 6.858419-3.770543 9.811349 0.86524 11.510078 24.41724 8.914356 15.987101-1.754295 37.10214-8.453953 46.929365-14.883721z m-129.92893-15.709271c2.706853-7.064806 1.373271-10.247938-3.119628-7.461705-4.318264 2.659225-7.850667 8.199938-7.850667 12.311814 0 11.414822 5.691535 8.898481 10.970295-4.842171z m661.599255 52.311318c-37.68955-7.302946-67.282357-34.688992-76.950821-71.227535-8.890543-33.537984-8.477767-79.895814 0.690604-79.895814 3.564155 0 4.199194-5.94555 1.412962-13.208806-3.389519-8.819101-2.016248-11.319566 4.127751-7.525209 5.580403 3.453023 7.755411 1.619349 5.540714-4.651659-9.716093-27.465426 37.657798-53.160682 111.41755-60.45569 40.539287-4.000744 55.430946-8.596837 56.216806-17.352434 0.587411-6.548837 1.476465-31.751938 1.984496-55.994543L2889.426357 534.940775l31.751938-1.873364 31.751938-1.873364V896.992248l-69.457365-0.912868c-38.205519-0.500093-82.928124-3.524465-99.399442-6.715535z m103.924093-98.748527c3.500651-97.375256 0.07938-107.940713-34.966821-107.940713-44.476527 0-81.848558 26.100093-82.420093 57.550387-0.142884 7.644279-4.262698 13.891473-9.160434 13.891473-6.556775 0-6.572651 2.817984-0.07938 10.652775 4.865984 5.858233 7.596651 12.113364 6.06462 13.891473-1.532031 1.778109-5.183504 13.954977-8.11262 27.052651-3.492713 15.59814-2.802109 20.027535 1.984496 12.843659 5.794729-8.700031 8.422202-7.461705 12.692837 5.985241 7.588713 23.925085 42.436465 40.80124 79.697364 38.602418l31.751938-1.865426 2.540155-70.671876zM2746.542636 690.604651c0-4.365891-1.571721-7.937984-3.500652-7.937984s-5.715349 3.572093-8.406325 7.937984c-2.698915 4.365891-1.119256 7.937984 3.500651 7.937985S2746.542636 694.970543 2746.542636 690.604651z m-321.845582 178.961861c-18.535194-18.527256-19.487752-24.163225-19.487752-115.100776V658.852713h54.160869l2.690976 88.032248c2.500465 81.943814 4.01662 89.111814 21.892962 103.574822 23.726636 19.194047 91.239194 18.400248 92.993488-1.095442 0.587411-6.548837 1.476465-52.096992 1.984496-101.209302L2579.844961 658.852713h55.565892v230.201551h-95.613024c-90.93755 0-96.573519-0.952558-115.100775-19.487752zM539.782946 567.565891c0-26.457302 1.325643-27.782946 27.782945-27.782945s27.782946 1.325643 27.782946 27.782945-1.325643 27.782946-27.782946 27.782946-27.782946-1.325643-27.782945-27.782946z" fill="#E7000F" p-id="9582"></path><path d="M1752.810171 899.508589c5.723287-2.294078 12.573767-2.00831 15.209178 0.627101 2.635411 2.635411-2.048 4.508775-10.414636 4.167442-9.247752-0.381023-11.129054-2.262326-4.794542-4.794543z m1037.391379-2.135318c-13.097674-3.119628 15.47907-4.191256 63.503876-2.381395 48.024806 1.825736 90.889922 4.516713 95.255814 5.993178 15.812465 5.35814-135.580775 1.920992-158.75969-3.611783z m-1085.519379-5.635969c5.461333-2.20676 14.391566-2.20676 19.844961 0 5.461333 2.198822 0.992248 4.000744-9.922481 4.000745s-15.383814-1.801922-9.92248-4.000745z m87.317829 0c5.461333-2.20676 14.391566-2.20676 19.844961 0 5.461333 2.198822 0.992248 4.000744-9.92248 4.000745s-15.383814-1.801922-9.922481-4.000745zM1952.744186 710.449612V523.906977h71.441861l-1.825737 188.527132-1.833674 188.527131-2.28614-184.558139-2.286139-184.55814h-55.843721l2.270263 182.573644c1.246264 100.423442-0.412775 182.581581-3.683225 182.573643-3.27045 0-5.953488-83.944186-5.953488-186.542636z m184.55814 170.753985c-14.193116-8.652403-25.79845-18.003349-25.79845-20.789581 0-2.778295 4.707225-1.14307 10.470202 3.635596 5.755039 4.778667 22.72645 14.002605 37.705426 20.503814 14.978977 6.501209 21.877085 11.946667 15.328248 12.097489-6.548837 0.15876-23.51231-6.794915-37.705426-15.447318z m93.271317 12.748403c0-1.674915 8.930233-4.754853 19.844962-6.842543s19.844961-0.714419 19.844961 3.048186c0 3.754667-8.930233 6.834605-19.844961 6.834605s-19.844961-1.373271-19.844962-3.040248z m195.552248-13.415194c-11.510078-9.049302-20.916589-19.598884-20.916589-23.448806 0-3.849922 8.771473 1.762233 19.487752 12.478512 18.527256 18.535194 24.163225 19.487752 115.100775 19.487752H2635.410853V658.852713h-55.041985l-2.540155 89.302326-2.524279 89.302325-1.698729-93.271317L2571.906977 650.914729h71.44186v246.077519h-98.153178c-87.27814 0-100.47107-1.825736-119.069768-16.455442z m-777.152496-11.613271c-33.331597-22.64707-34.173023-24.052093-18.122418-30.211969 7.033054-2.698915 10.04155-0.595349 7.731597 5.413705-2.071814 5.397829 9.716093 17.638202 26.203286 27.195535 16.487194 9.549395 26.338233 17.44769 21.892962 17.550884-4.445271 0.103194-21.408744-8.874667-37.705427-19.948155z m204.545985 1.936868c23.893333-13.486636 32.410791-23.655194 34.411163-41.087008 2.373457-20.63876 1.246264-21.988217-10.295566-12.407069-9.216 7.644279-10.31938 12.383256-3.802295 16.415752 6.628217 4.096 6.731411 7.160062 0.381023 11.089364-4.834233 2.984682-8.898481 0.754109-9.041364-4.96124-0.190512-7.779225-2.683039-7.398202-9.922481 1.516155-5.31845 6.548837-16.812651 12.994481-25.544434 14.312186-11.367194 1.730481-8.914357-1.960682 8.644465-12.994481 13.478698-8.469829 32.482233-25.528558 42.214202-37.903876l17.701705-22.496248-2.532217 35.236713c-2.143256 29.902388-6.604403 37.975318-29.49755 53.351194-14.836093 9.970109-30.910512 18.066853-35.72093 17.995411-4.810419-0.07938 5.540713-8.199938 23.004279-18.066853z m446.591008-1.476465c14.224868-11.708527 23.837767-24.576 21.353178-28.59262-2.476651-4.01662-0.730295-7.302946 3.89755-7.302946 4.619907 0 8.406326 2.95293 8.406326 6.556775 0 7.604589-30.243721 35.967008-47.627907 44.667039-6.548837 3.278388-0.261953-3.619721 13.970853-15.328248z m426.666666-4.064248c-12.502326-13.050047-20.32124-26.147721-17.360372-29.100651 2.95293-2.960868 5.429581-0.317519 5.493085 5.874108 0.103194 9.29538 1.603473 9.184248 8.692093-0.66679 7.279132-10.12093 7.906233-9.866915 4.207132 1.69079-2.778295 8.684155 3.079938 19.448062 16.193489 29.767442 11.311628 8.890543 17.16986 16.169674 13.03417 16.169675-4.13569 0-17.757271-10.676589-30.259597-23.734574z m-547.109705-1.198636c2.317891-3.746729 16.511008-6.818729 31.529674-6.818728 16.733271 0 33.466543-6.151938 43.190574-15.875969 8.731783-8.731783 15.875969-12.383256 15.875969-8.120559 0 13.018295-34.053953 30.95814-65.266109 34.387349-16.249054 1.786047-27.648 0.182574-25.32217-3.572093z m-452.377799-4.588155c-8.303132-2.119442-22.591504-11.287814-31.751938-20.368868l-16.653891-16.511008 23.401178 14.566202c12.875411 8.017364 43.238202 17.130171 67.472868 20.257736 42.912744 5.532775 43.135008 5.683597 8.35076 5.794729-19.646512 0.071442-42.515845-1.611411-50.818977-3.730853z m804.800497 0.055566c19.57507-1.857488 38.594481-7.604589 42.277705-12.756341 4.619907-6.485333 5.691535-5.699473 3.476837 2.532217-2.254388 8.374574-14.796403 12.160992-42.277705 12.756341l-39.07076 0.857302z m313.574201 0.023814c17.408-1.920992 34.649302-7.699845 38.308713-12.827783 4.580217-6.413891 5.659783-5.604217 3.453023 2.571907-2.182946 8.11262-14.391566 12.20862-38.308713 12.835721-34.839814 0.920806-34.863628 0.896992-3.453023-2.579845z m-369.171845-14.41538c-5.524837-6.652031-8.501581-13.637457-6.628217-15.510821 1.881302-1.881302 7.779225 3.564155 13.105612 12.097488 11.525953 18.455814 7.683969 20.48-6.477395 3.413333zM2111.503876 841.902636c0-4.111876 3.532403-9.652589 7.850667-12.319752 4.492899-2.778295 5.826481 0.404837 3.119628 7.469643-5.27876 13.748589-10.970295 16.272868-10.970295 4.850109z m665.242791-12.597582c-6.731411-14.780527-10.938543-17.400062-15.947411-9.92248-4.01662 5.993178-4.619907 0.396899-1.476465-13.66921 6.366264-28.457674 11.033798-35.562171 11.033798-16.804713 0 7.493457 5.453395 24.163225 12.113364 37.046574 6.659969 12.875411 10.16062 23.417054 7.763349 23.417054-2.381395 0-8.453953-9.033426-13.486635-20.067225z m-377.768683-81.142077L2397.271318 650.914729h71.44186l-1.666976 85.333333-1.682853 85.333333-2.571907-81.364341L2460.219535 658.852713h-54.51014l-2.508403 93.271318-2.516341 93.271318z m-795.743255 69.020775c-4.802481-8.969922-7.556961-19.844961-6.112248-24.163225 1.428837-4.310326 6.715535 3.03231 11.732341 16.320496 10.422574 27.624186 7.302946 31.990078-5.620093 7.842729z m550.697674 4.064248c-2.587783-6.739349-2.929116-14.026419-0.762046-16.193488 2.175008-2.16707 5.850295 3.349829 8.176124 12.24831 4.953302 18.916217-0.547721 21.837395-7.414078 3.945178z m730.373954-55.224558c-0.023814-39.293023 1.317705-56.367628 2.984682-37.943566 1.666977 18.416124 1.682853 50.564961 0.047628 71.44186-1.643163 20.868961-3.008496 5.794729-3.03231-33.498294z m-184.764528 46.969054c0.381023-9.247752 2.262326-11.129054 4.794543-4.80248 2.294078 5.731225 2.00831 12.581705-0.627101 15.217116-2.635411 2.635411-4.508775-2.048-4.167442-10.414636z m-1032.803224-11.684713c-4.802481-8.969922-7.556961-19.844961-6.112248-24.163225 1.428837-4.310326 6.715535 3.03231 11.732341 16.320496 10.422574 27.624186 7.302946 31.990078-5.620093 7.842729z m414.56124-3.532403c0.15876-13.097674 1.936868-17.495318 3.953116-9.771659 2.016248 7.723659 1.881302 18.439938-0.293705 23.813953-2.175008 5.374016-3.818171-0.94462-3.659411-14.042294z m194.766388-12.542016c2.810047-10.732155 6.405953-14.336 8.390449-8.390449 1.905116 5.731225-0.301643 14.185178-4.92155 18.805085-5.889984 5.889984-6.921922 2.786233-3.468899-10.414636z m63.821395 2.492527c-2.016248-7.707783-0.896992-21.107101 2.492527-29.767441 4.683411-11.994295 6.278946-8.652403 6.707597 14.01848 0.595349 31.894822-3.254574 38.483349-9.200124 15.748961zM1588.851101 762.046512c0-10.914729 1.801922-15.383814 4.000744-9.922481 2.20676 5.461333 2.20676 14.391566 0 19.844961-2.198822 5.461333-4.000744 0.992248-4.000744-9.92248z m491.980403-5.302574c-1.405023-22.36924 6.429767-42.325333 16.614201-42.325333 5.413705 0 5.381953 3.262512-0.079379 9.92248-4.484961 5.461333-9.795473 18.852713-11.803783 29.767442-3.175194 17.280992-3.786419 17.622326-4.731039 2.635411zM2758.449612 762.046512c-2.698915-4.365891-1.119256-7.937984 3.500652-7.937985s8.406326 3.572093 8.406325 7.937985-1.571721 7.937984-3.500651 7.937984-5.715349-3.572093-8.406326-7.937984z m-1106.602666-39.689923c-0.277829-24.012403 2.429023-48.278822 6.009054-53.922729 3.635597-5.731225 5.072372 10.049488 3.246636 35.720931-4.453209 62.710078-8.644465 70.941767-9.25569 18.201798z m619.043721 19.186109c0.381023-9.247752 2.262326-11.129054 4.794542-4.794543 2.294078 5.723287 2.00831 12.573767-0.6271 15.209178-2.635411 2.635411-4.508775-2.048-4.167442-10.414635z m-119.069768-7.937985c0.381023-9.247752 2.262326-11.129054 4.794543-4.794542 2.294078 5.723287 2.00831 12.573767-0.627101 15.209178-2.635411 2.635411-4.508775-2.048-4.167442-10.414636z m182.573644-4.223008c-0.928744-18.979721-31.593178-54.748279-54.367256-63.40862-10.954419-4.159504-17.56676-9.906605-14.701147-12.764279 13.296124-13.296124 81.642171 58.987163 73.974077 78.244713-3.135504 7.882419-4.445271 7.334698-4.905674-2.071814zM2698.914729 729.818295c0-4.619907 3.572093-6.191628 7.937984-3.500652 4.365891 2.698915 7.937984 6.477395 7.937985 8.406326s-3.572093 3.500651-7.937985 3.500651-7.937984-3.786419-7.937984-8.406325z m71.44186 0.936682c0-4.111876 3.532403-9.652589 7.850667-12.319752 4.492899-2.778295 5.826481 0.404837 3.119628 7.469643-5.27876 13.748589-10.970295 16.272868-10.970295 4.850109zM1582.929364 714.418605c2.063876-10.914729 5.882047-33.117271 8.493644-49.334574 5.088248-31.759876 15.39969-43.881178 24.631566-28.949829 3.365705 5.445457 2.325829 7.175938-2.516341 4.191255-8.969922-5.548651-17.654078 18.67014-18.019225 50.279194-0.127008 10.914729-3.849922 25.203101-8.287256 31.751938-6.207504 9.184248-7.191814 7.36645-4.302388-7.937984z m675.101768-0.531845c-2.881488-4.651659-3.532403-10.16062-1.452651-12.24831 2.079752-2.079752 5.897922 1.730481 8.493643 8.469829 5.35814 13.986729 0.78586 16.447504-7.040992 3.778481z m452.361922-0.15876c-2.937054-4.746915-1.389147-12.573767 3.421272-17.384186 11.375132-11.375132 32.72831-14.439194 32.72831-4.683411 0 4.167442-6.247194 6.525023-13.891473 5.23907-9.128682-1.524093-13.51045 2.444899-12.788093 11.565643 1.270078 15.931535-1.817798 17.64614-9.470016 5.262884z m-540.108403-13.200868c14.994853-17.709643 62.598946-25.457116 71.171969-11.58152 2.135318 3.453023-8.533333 4.826295-23.702822 3.056124-18.971783-2.214698-33.045829 1.405023-45.087751 11.589458L2155.162791 718.387597z m-69.917767-3.810233c4.731039-13.605705 50.207752-46.095876 63.670573-45.484651 3.849922 0.174636-2.825922 5.643907-14.828155 12.160992-12.002233 6.509147-21.829457 15.899783-21.829457 20.853086 0 4.953302-2.325829 6.675845-5.167628 3.834046-2.841798-2.841798-10.00186 1.031938-15.899783 8.604775-10.128868 13.002419-10.462264 13.002419-5.953488 0.031752z m685.865674 6.644093c0-1.714605 5.540713-5.247008 12.319752-7.850666 7.064806-2.706853 10.247938-1.373271 7.461706 3.119627-4.651659 7.541085-19.781457 11.160806-19.781458 4.731039z m45.643411-18.360558c9.827225-1.88924 25.901643-1.88924 35.72093 0 9.827225 1.897178 1.786047 3.445085-17.860465 3.445085s-27.679752-1.547907-17.860465-3.445085z m-89.484899-17.916031c7.168-11.589457 59.169736-24.012403 100.733023-24.060031 20.368868-0.031752 38.856434-3.707039 41.07907-8.184062 2.222636-4.477023 3.119628-3.580031 2.000372 1.984496-1.293891 6.429767-23.377364 12.272124-60.463628 16.010915-32.140899 3.238698-62.035349 9.493829-66.432992 13.891473-10.20031 10.20031-23.163039 10.470202-16.907907 0.357209zM2214.697674 650.914729l-27.782945-5.850295 29.767442-1.039876c16.376062-0.579473 29.767442 2.524279 29.767441 6.890171s-0.896992 7.461705-1.984496 6.89017c-1.087504-0.571535-14.486822-3.675287-29.767442-6.89017z m-550.499224-11.652962c-2.460775-6.405953-1.047814-13.764465 3.127566-16.34431 4.17538-2.579845 7.588713 2.667163 7.588713 11.652962 0 19.170233-4.413519 21.099163-10.716279 4.691348z m183.867534 6.231318c5.723287-2.294078 12.573767-2.00831 15.209179 0.627101 2.635411 2.635411-2.048 4.508775-10.414636 4.167442-9.247752-0.381023-11.129054-2.262326-4.794543-4.794543z m38.300776-6.485333c2.516341-6.548837 5.977302-11.906977 7.691907-11.906977 1.714605 0 3.119628 5.35814 3.119628 11.906977s-3.460961 11.906977-7.691907 11.906977c-4.223008 0-5.635969-5.35814-3.119628-11.906977z m-86.897117-32.466357c-12.240372-10.517829-18.686016-19.130543-14.336-19.130542s10.31938 3.889612 13.248497 8.628589c2.937054 4.746915 12.065736 6.866357 20.313302 4.715163 15.844217-4.143628 18.51138 0.571535 8.874667 15.717209-4.096 6.429767-12.565829 3.437147-28.100466-9.922481zM1682.852713 611.383566c0-3.85786 7.199752-9.311256 15.995039-12.105426 8.795287-2.786233 13.939101-8.39045 11.430698-12.438822-2.500465-4.048372-0.976372-7.36645 3.389519-7.36645 17.995411 0 14.074047 13.19293-7.620465 25.63969-12.756341 7.32676-23.194791 10.144744-23.194791 6.271008z m1199.96924-37.864186L2881.488372 523.906977h37.046574c42.341209 0 43.809736 5.104124 2.643349 9.168372-27.386047 2.698915-27.84645 3.357767-32.402853 46.397519l-4.619907 43.658915zM531.844961 567.565891V531.844961h71.441861v71.441861h-71.441861z m63.503876 0c0-26.457302-1.325643-27.782946-27.782946-27.782945s-27.782946 1.325643-27.782945 27.782945 1.325643 27.782946 27.782945 27.782946 27.782946-1.325643 27.782946-27.782946z m1024 31.03752c0-0.722357 6.040806-6.215442 13.43107-12.20862 7.382326-5.98524 10.938543-6.731411 7.890357-1.643163-3.048186 5.08031-1.055752 10.970295 4.429395 13.081798 5.477209 2.111504 1.936868 3.437147-7.890357 2.952931-9.827225-0.476279-17.860465-1.468527-17.860465-2.182946z m241.656062-6.572651c-8.469829-6.191628-13.296124-13.359628-10.732155-15.923597 2.563969-2.571907 11.152868 2.492527 19.074977 11.256062 16.868217 18.63045 13.407256 20.567318-8.342822 4.667535z m-63.051411-33.244279l-39.689922-10.859163 34.69693 3.238698c19.082915 1.786047 38.554791 7.096558 43.262016 11.803782 4.707225 4.707225 6.953674 8.144372 4.992992 7.620466-1.960682-0.515969-21.432558-5.826481-43.262016-11.803783z m-111.131783-2.754481c15.24093-6.906047 57.756775-11.406884 50.938047-5.397829-1.825736 1.603473-17.598512 5.096186-35.062078 7.75541-22.131101 3.365705-26.941519 2.651287-15.875969-2.357581z" fill="#D70009" p-id="9583"></path></svg>
