<?xml version="1.0" encoding="utf-8"?>
<svg version="1.1" xmlns:xlink="http://www.w3.org/1999/xlink" width="44px" height="25px" xmlns="http://www.w3.org/2000/svg">
  <g transform="matrix(1 0 0 1 -30 -12 )">
    <path d="M 34.6027770700637 24.9372222222222  C 34.6137070063694 24.9372222222222  34.6235159235669 24.9372222222222  34.6344458598726 24.935  C 35.2255031847134 24.8855555555556  35.7932993630573 24.7738888888889  36.3476433121019 24.5947222222222  C 40.7210191082802 23.3372222222222  43.7393630573248 19.3341666666667  43.7393630573248 14.6991666666667  C 43.7388025477707 9.04888888888889  39.1011464968153 4.45277777777778  33.3996433121019 4.45277777777778  C 31.8789808917197 4.45277777777778  30.4059617834395 4.78222222222222  29.0649426751592 5.39527777777778  C 28.0100636942675 2.22722222222222  24.9690191082803 0  21.547949044586 0  C 18.8703949044586 0  16.4302165605095 1.32527777777777  14.956076433121 3.5225  C 14.8050191082803 3.73666666666667  14.6629299363057 3.95638888888889  14.5421401273885 4.19583333333333  C 14.4471337579618 4.38361111111111  14.5225222929936 4.60861111111111  14.7111337579618 4.70444444444445  C 14.7666242038216 4.73111111111111  14.8254777070064 4.74527777777778  14.8826496815287 4.74527777777778  C 15.0230573248408 4.74527777777778  15.1570191082802 4.66916666666667  15.2242802547771 4.53638888888889  C 15.2957452229299 4.39638888888889  15.3753375796178 4.26361111111111  15.4594140127389 4.13222222222222  C 16.6104203821656 2.57111111111111  18.4259108280255 1.64972222222222  20.3924585987261 1.64972222222222  C 23.5542929936306 1.64972222222222  26.1623439490446 4.04166666666667  26.4723057324841 7.09638888888889  L 26.4849171974522 7.44361111111111  C 26.1542165605096 7.78027777777778  25.856025477707 8.14722222222223  25.5883821656051 8.54916666666666  C 25.5833375796178 8.55638888888889  25.5780127388535 8.56666666666667  25.5729681528662 8.57555555555556  C 25.4821656050955 8.74027777777778  25.5328917197452 8.94944444444445  25.6940382165605 9.05583333333333  C 25.8647133757962 9.16583333333334  26.0942420382165 9.11944444444444  26.2063439490446 8.95138888888889  C 26.2643566878981 8.86444444444445  26.3607643312102 8.74027777777778  26.4215796178344 8.65694444444444  C 26.7489171974522 8.29027777777778  27.0670063694267 7.99611111111111  27.4414267515923 7.69138888888889  C 28.9948789808917 6.59277777777778  30.8454012738854 6.00111111111111  32.8035414012739 6.00111111111111  C 37.9226751592357 6.00111111111111  42.088101910828 10.1294444444444  42.088101910828 15.2025  C 42.088101910828 19.4758333333333  39.0661146496815 23.2236111111111  34.8824713375796 24.1716666666667  C 34.780178343949 24.1841666666667  34.6773248407643 24.1983333333333  34.5736305732484 24.2069444444444  C 34.3693248407643 24.2227777777778  34.2182675159236 24.4  34.2353630573248 24.6019444444444  C 34.251898089172 24.7933333333333  34.4133248407643 24.9372222222222  34.6027770700637 24.9372222222222  Z M 24.868127388535 21.7813888888889  C 25.1069044585987 21.5672222222222  25.2254522292994 21.3316666666667  25.2254522292994 21.0744444444444  C 25.2254522292994 20.8263888888889  25.0996178343949 20.4316666666667  24.8471082802548 19.8888888888889  L 21.6210955414013 12.7361111111111  C 21.4700382165605 12.3780555555556  21.3458853503185 12.0930555555556  21.2475159235669 11.8786111111111  C 21.1483057324841 11.6644444444444  21.0286369426752 11.4638888888889  20.8843057324841 11.2763888888889  C 20.7422165605095 11.0902777777778  20.5527643312102 10.9380555555556  20.3204331210191 10.8208333333333  C 20.0869808917197 10.7022222222222  19.7974777070064 10.6419444444444  19.4491210191083 10.6419444444444  C 19.1066496815287 10.6419444444444  18.8188280254777 10.7022222222222  18.5856560509554 10.8208333333333  C 18.3530445859873 10.9377777777778  18.1655541401274 11.0936111111111  18.0215031847134 11.285  C 17.8794140127389 11.4763888888889  17.7446114649682 11.7175  17.6184968152866 12.0061111111111  C 17.5176050955414 12.2383333333333  17.431847133758 12.435  17.3539363057325 12.6122222222222  C 17.2118471337579 12.94  15.1657070063694 17.6177777777778  14.7898853503185 18.4769444444444  C 14.6208917197452 18.8616666666667  14.3849171974522 19.2441666666667  14.172203821656 19.5544444444444  C 13.968178343949 19.8469444444444  13.7414522292993 20.1175  13.4965095541401 20.3694444444444  C 13.3418089171974 20.5008333333333  13.2131719745223 20.6244444444444  13.1094777070064 20.7416666666667  C 11.9197961783439 21.7816666666667  10.376152866242 22.3752777777778  8.75571974522292 22.3752777777778  C 5.12670063694268 22.3752777777778  2.17533757961782 19.4483333333333  2.17533757961782 15.8533333333333  C 2.17533757961782 12.2563888888889  5.12670063694268 9.33111111111111  8.75571974522292 9.33111111111111  C 11.0187770700637 9.33111111111111  13.0968662420382 10.4633333333333  14.3126114649681 12.3611111111111  C 14.6242547770701 12.8483333333333  15.276127388535 12.9919444444444  15.7674140127388 12.6836111111111  C 16.2592611464968 12.3736111111111  16.4047133757962 11.7286111111111  16.0930700636943 11.2413888888889  C 14.4874904458599 8.73583333333334  11.7443566878981 7.24055555555556  8.75543949044586 7.24055555555556  C 3.96448407643311 7.24055555555556  0.0655796178344054 11.1030555555556  0.0655796178344054 15.8536111111111  C 0.0655796178344054 20.6019444444444  3.96448407643311 24.4663888888889  8.75543949044586 24.4663888888889  C 11.2045859872612 24.6080555555556  13.5545222929936 23.6177777777778  14.9092738853503 22.2441666666667  C 14.9140382165605 22.2391666666667  14.9193630573248 22.2372222222222  14.9246878980892 22.23  C 16.2494522292994 20.9008333333333  16.9484076433121 19.2669444444444  16.9484076433121 19.1666666666667  L 21.9672101910828 19.1666666666667  L 22.5563057324841 20.6580555555555  C 22.6350573248408 20.8294444444444  22.7286624203822 21.0280555555555  22.8388025477707 21.2516666666667  C 22.9478216560509 21.4747222222222  23.0501146496815 21.6433333333333  23.1454012738853 21.7513888888889  C 23.2412484076433 21.8594444444444  23.3595159235669 21.9444444444444  23.5007643312102 22.0080555555556  C 23.6397707006369 22.07  23.807923566879 22.1019444444444  24.0043821656051 22.1019444444444  C 24.3415286624204 22.1019444444444  24.6293503184713 21.9955555555556  24.868127388535 21.7813888888889  Z M 29.8785222929937 22.1022222222222  C 30.8950063694268 22.1022222222222  31.7736050955414 21.9497222222222  32.5134777070064 21.6508333333333  C 33.2555923566879 21.3475  33.8177834394904 20.9291666666667  34.2020127388535 20.3944444444444  C 34.5873630573248 19.8611111111111  34.7796178343949 19.2588888888889  34.7796178343949 18.5888888888889  C 34.7796178343949 18.0286111111111  34.6683566878981 17.5552777777778  34.4455541401274 17.1691666666667  C 34.2244331210191 16.7847222222222  33.9155923566879 16.4658333333333  33.519872611465 16.2125  C 33.1247133757962 15.9608333333333  32.644076433121 15.7483333333333  32.0807643312102 15.5711111111111  C 31.5157707006369 15.3938888888889  30.8857579617834 15.2327777777778  30.1896050955414 15.0872222222222  C 29.6341401273885 14.9613888888889  29.2356178343949 14.8658333333333  28.9940382165605 14.8002777777778  C 28.7524585987261 14.7347222222222  28.5139617834395 14.6441666666667  28.2779872611465 14.5275  C 28.0420127388535 14.4122222222222  27.8581656050956 14.2738888888889  27.7230828025478 14.1130555555556  C 27.5874394904459 13.9516666666667  27.519898089172 13.7586111111111  27.519898089172 13.5372222222222  C 27.519898089172 13.1791666666667  27.7185987261146 12.8744444444444  28.1137579617835 12.6191666666667  C 28.5094777070064 12.3658333333333  29.0304713375796 12.2383333333333  29.675898089172 12.2383333333333  C 30.372050955414 12.2383333333333  30.8773503184714 12.355  31.192076433121 12.5888888888889  C 31.5056815286624 12.8227777777778  31.7755668789809 13.1488888888889  32.000050955414 13.5688888888889  C 32.1740891719745 13.8611111111111  32.3349554140127 14.0702777777778  32.4846114649682 14.1980555555556  C 32.6328662420382 14.3272222222222  32.8514649681529 14.3911111111111  33.1370445859873 14.3911111111111  C 33.451770700637 14.3911111111111  33.7135286624204 14.2847222222222  33.9248407643312 14.0702777777778  C 34.1344713375796 13.8561111111111  34.2401273885351 13.6166666666667  34.2401273885351 13.3475  C 34.2401273885351 13.0569444444444  34.155770700637 12.7575  33.987898089172 12.4491666666667  C 33.8183439490446 12.1425  33.552101910828 11.8483333333333  33.1872101910828 11.5686111111111  C 32.8225987261147 11.2886111111111  32.3635414012739 11.0652777777778  31.8111592356688 10.8952777777778  C 31.2582165605096 10.7272222222222  30.6027006369427 10.6419444444444  29.8443312101911 10.6419444444444  C 28.8962292993631 10.6419444444444  28.0708789808917 10.7694444444444  27.3696815286624 11.0244444444444  C 26.667923566879 11.2780555555556  26.1315159235669 11.6430555555556  25.7615796178344 12.1161111111111  C 25.3916433121019 12.5908333333333  25.2055541401274 13.1313888888889  25.2055541401274 13.7425  C 25.2055541401274 14.3802777777778  25.3807133757962 14.9172222222222  25.732152866242 15.3477777777778  C 26.0824713375796 15.7783333333333  26.5569426751592 16.1202777777778  27.1552866242038 16.3683333333333  C 27.7530700636943 16.6180555555556  28.4951847133758 16.8363888888889  29.3824713375796 17.0222222222222  C 30.044152866242 17.1586111111111  30.5741146496815 17.2880555555556  30.9687133757962 17.4086111111111  C 31.363872611465 17.5291666666667  31.6872866242038 17.7044444444444  31.9369936305733 17.9330555555556  C 32.1872611464968 18.1616666666667  32.3114140127389 18.4627777777778  32.3114140127389 18.8294444444444  C 32.3114140127389 19.2938888888889  32.0810445859873 19.68  31.6177834394905 19.99  C 31.1536815286624 20.3002777777778  30.5525350318472 20.4544444444444  29.8115414012739 20.4544444444444  C 29.2723312101911 20.4544444444444  28.8370955414013 20.3786111111111  28.5066751592357 20.2238888888889  C 28.1748535031848 20.0697222222222  27.9181401273886 19.875  27.735974522293 19.6375  C 27.5538089171975 19.4019444444444  27.383974522293 19.1063888888889  27.2264713375797 18.7536111111111  C 27.0972738853503 18.4558333333333  26.9411719745223 18.2327777777778  26.7590063694268 18.0822222222222  C 26.5768407643312 17.9316666666667  26.3534777070064 17.8555555555555  26.0894777070064 17.8555555555555  C 25.7643821656051 17.8555555555555  25.4961783439491 17.9530555555556  25.2859872611465 18.1458333333333  C 25.0752356687898 18.3394444444444  24.9695796178344 18.5733333333333  24.9695796178344 18.8461111111111  C 24.9695796178344 19.3138888888889  25.1447388535032 19.7972222222222  25.4961783439491 20.2936111111111  C 25.8464968152866 20.7894444444444  26.3030318471338 21.1866666666667  26.8646624203822 21.4822222222222  C 27.6555414012739 21.895  28.6605350318472 22.1022222222222  29.8785222929937 22.1022222222222  Z M 17.6053248407643 17.5  L 19.4325859872611 13.0088888888889  L 21.2934777070064 17.5  L 17.6053248407643 17.5  Z " fill-rule="nonzero" fill="#e60012" stroke="none" transform="matrix(1 0 0 1 30 12 )" />
  </g>
</svg>