<svg t="1747103107886" class="icon" viewBox="0 0 2755 1024" version="1.1" xmlns="http://www.w3.org/2000/svg" p-id="2646" width="200" height="200"><path d="M2492.997531 359.032099L2351.407407 326.162963l-25.28395-10.11358-649.797531 5.05679v313.520987l816.671605 2.528396z" fill="#FFFFFF" p-id="2647"></path><path d="M2227.516049 606.814815c7.585185-25.283951 5.05679-50.567901-7.585185-65.738272-12.641975-15.17037-30.340741-25.283951-53.096296-27.812345l-439.940741-5.056791c-2.528395 0-5.05679-2.528395-7.585185-2.528395-2.528395-2.528395-2.528395-5.05679 0-7.585185 2.528395-5.05679 5.05679-7.585185 10.11358-7.585185l442.469136-5.05679c53.096296-2.528395 108.720988-45.511111 128.948148-96.079012l25.283951-65.738272c0-2.528395 2.528395-5.05679 0-7.585185-27.812346-128.948148-144.118519-225.02716-280.651852-225.027161-126.419753 0-235.140741 80.908642-273.066667 194.68642-25.283951-17.698765-55.624691-27.812346-91.022222-25.283951-60.681481 5.05679-108.720988 55.624691-116.306173 116.306173-2.528395 15.17037 0 30.340741 2.528395 45.511111-98.607407 2.528395-179.516049 83.437037-179.516049 184.57284 0 10.11358 0 17.698765 2.528395 27.812345 0 5.05679 5.05679 7.585185 7.585185 7.585186h811.614815c5.05679 0 10.11358-2.528395 10.11358-7.585186l7.585185-27.812345z" fill="#F48120" p-id="2648"></path><path d="M2366.577778 323.634568h-12.641976c-2.528395 0-5.05679 2.528395-7.585185 5.05679l-17.698765 60.681482c-7.585185 25.283951-5.05679 50.567901 7.585185 65.738271 12.641975 15.17037 30.340741 25.283951 53.096296 27.812346l93.550618 5.05679c2.528395 0 5.05679 2.528395 7.585185 2.528395 2.528395 2.528395 2.528395 5.05679 0 7.585185-2.528395 5.05679-5.05679 7.585185-10.11358 7.585185l-96.079013 5.05679c-53.096296 2.528395-108.720988 45.511111-128.948148 96.079013l-5.05679 22.755555c-2.528395 2.528395 0 7.585185 5.05679 7.585186h333.748148c5.05679 0 7.585185-2.528395 7.585185-7.585186 5.05679-20.22716 10.11358-42.982716 10.113581-65.738271 0-131.476543-108.720988-240.197531-240.197531-240.197531" fill="#FAAD3F" p-id="2649"></path><path d="M2639.644444 778.745679c-12.641975 0-22.755556-10.11358-22.755555-22.755556s10.11358-22.755556 22.755555-22.755555 22.755556 10.11358 22.755556 22.755555-10.11358 22.755556-22.755556 22.755556m0-40.454321c-10.11358 0-17.698765 7.585185-17.698765 17.698765 0 10.11358 7.585185 17.698765 17.698765 17.698766 10.11358 0 17.698765-7.585185 17.698766-17.698766 0-10.11358-7.585185-17.698765-17.698766-17.698765m10.113581 30.340741h-5.05679l-5.056791-7.585185h-5.05679v7.585185h-5.05679v-22.755556h12.641976c5.05679 0 7.585185 2.528395 7.585185 7.585185 0 2.528395-2.528395 5.05679-5.05679 7.585186l5.05679 7.585185z m-7.585185-12.641976c2.528395 0 2.528395 0 2.528395-2.528395s-2.528395-2.528395-2.528395-2.528395h-7.585186v7.585186h7.585186zM374.202469 733.234568H429.82716v151.703704h96.079013v48.039506h-151.703704z m209.85679 98.607407c0-58.153086 45.511111-103.664198 108.720988-103.664197s106.192593 45.511111 106.192593 103.664197-45.511111 103.664198-108.720988 103.664198c-60.681481 0-106.192593-45.511111-106.192593-103.664198m159.288889 0c0-30.340741-20.22716-55.624691-50.567901-55.624691s-50.567901 25.283951-50.567901 53.096296 20.22716 53.096296 50.567901 53.096297c30.340741 5.05679 50.567901-20.22716 50.567901-50.567902m123.891358 12.641976V733.234568h55.624692v111.249383c0 27.812346 15.17037 42.982716 37.925925 42.982716s37.925926-12.641975 37.925926-40.454321V733.234568h55.624692v111.249383c0 65.738272-37.925926 93.550617-93.550618 93.550617-58.153086-2.528395-93.550617-30.340741-93.550617-93.550617M1137.777778 733.234568h78.380247c70.795062 0 113.777778 40.454321 113.777777 98.607407s-42.982716 101.135802-113.777777 101.135803h-75.851852V733.234568z m78.380247 149.175309c32.869136 0 55.624691-17.698765 55.624691-50.567902s-22.755556-50.567901-55.624691-50.567901h-22.755556v101.135803h22.755556z m192.158024-149.175309H1567.604938v48.039506h-103.664197v32.869136h93.550617V859.654321h-93.550617v73.323457h-55.624692z m237.669136 0h55.624692v151.703704h96.079012v48.039506h-151.703704z m295.822222-2.528395H1997.432099l85.965432 202.271605H2022.716049l-15.17037-35.397531h-78.380247l-15.17037 35.397531h-58.153087l85.965432-202.271605z m50.567902 123.891358l-22.755556-55.624691-22.755555 55.624691h45.511111z m161.817284-121.362963h93.550617c30.340741 0 50.567901 7.585185 65.738271 22.755555 12.641975 12.641975 17.698765 27.812346 17.698766 45.511112 0 30.340741-15.17037 50.567901-40.454321 60.681481l48.039506 70.795062H2275.555556l-40.454321-60.681482h-25.283951v60.681482h-55.624691V733.234568z m91.022222 96.079012c17.698765 0 30.340741-10.11358 30.340741-22.755555 0-15.17037-12.641975-22.755556-30.340741-22.755556h-35.397531v48.039506h35.397531z m164.345679-96.079012h161.817284v45.511111h-106.192593V809.08642h96.079013v45.511111h-96.079013V884.938272h108.720988v48.039506h-164.345679zM252.839506 857.125926c-7.585185 17.698765-25.283951 30.340741-45.511111 30.340741-30.340741 0-50.567901-25.283951-50.567901-53.096297s20.22716-53.096296 50.567901-53.096296c22.755556 0 40.454321 15.17037 48.039506 32.869136h58.153087c-10.11358-48.039506-50.567901-83.437037-106.192593-83.437037-60.681481 0-108.720988 45.511111-108.720988 103.664197s45.511111 103.664198 106.192593 103.664198c53.096296 0 93.550617-35.397531 106.192593-80.908642H252.839506z" fill="#404041" p-id="2650"></path></svg>
