<?xml version="1.0" standalone="no"?><!DOCTYPE svg PUBLIC "-//W3C//DTD SVG 1.1//EN" "http://www.w3.org/Graphics/SVG/1.1/DTD/svg11.dtd"><svg t="1617853635282" class="icon" viewBox="0 0 1351 1024" version="1.1" xmlns="http://www.w3.org/2000/svg" p-id="2130" xmlns:xlink="http://www.w3.org/1999/xlink" width="290.25390625" height="220"><defs><style type="text/css"></style></defs><path d="M991.232 233.472h-66.56C864.256 54.272 669.696-41.984 490.496 18.432 382.976 55.296 300.032 142.336 269.312 251.904 84.992 292.864-32.768 475.136 8.192 660.48a343.9616 343.9616 0 0 0 220.16 249.856l21.504-81.92c-133.12-51.2-199.68-200.704-148.48-333.824 37.888-99.328 133.12-165.888 240.64-165.888C350.208 186.368 472.064 77.824 614.4 86.016c126.976 7.168 230.4 105.472 242.688 231.424h135.168c151.552 0 275.456 122.88 275.456 275.456s-122.88 275.456-275.456 275.456H865.28c-9.216 0-19.456-1.024-28.672-2.048l2.048 83.968c9.216 1.024 17.408 1.024 26.624 1.024h126.976c197.632 0 358.4-160.768 358.4-358.4s-160.768-358.4-359.424-359.424" fill="#1296db" p-id="2131"></path><path d="M614.4 419.84H360.448L337.92 503.808l-56.32 211.968h84.992l55.296-211.968h169.984z" fill="#1296db" p-id="2132"></path><path d="M1034.24 715.776H863.232l-22.528 84.992h104.448c-5.12 12.288-12.288 23.552-22.528 32.768-40.96 40.96-110.592 44.032-149.504 0-45.056-50.176-125.952-159.744-171.008-209.92-70.656-77.824-194.56-74.752-269.312 0-25.6 25.6-43.008 57.344-51.2 92.16h89.088c5.12-12.288 12.288-23.552 22.528-32.768 40.96-40.96 110.592-43.008 149.504 0 45.056 50.176 125.952 158.72 171.008 209.92 69.632 78.848 194.56 74.752 269.312 0 46.08-46.08 65.536-113.664 51.2-177.152" fill="#1296db" p-id="2133"></path><path d="M939.008 632.832c-5.12 0-9.216 4.096-9.216 9.216s4.096 9.216 9.216 9.216 9.216-4.096 9.216-9.216-4.096-9.216-9.216-9.216m5.12-14.336c0 6.144 4.096 10.24 10.24 10.24s10.24-4.096 10.24-10.24-4.096-10.24-10.24-10.24-10.24 4.096-10.24 10.24m32.768 9.216c-5.12 0-9.216 4.096-9.216 9.216s4.096 9.216 9.216 9.216 9.216-4.096 9.216-9.216-3.072-9.216-9.216-9.216m0 51.2c-4.096 0-8.192 3.072-8.192 7.168 0 4.096 3.072 8.192 8.192 8.192 4.096 0 8.192-3.072 8.192-8.192 0-3.072-3.072-7.168-8.192-7.168m19.456-27.648c-5.12 0-9.216 4.096-9.216 9.216s4.096 9.216 9.216 9.216 9.216-4.096 9.216-9.216-4.096-9.216-9.216-9.216m16.384 26.624c-5.12 0-8.192 4.096-8.192 8.192 0 5.12 4.096 8.192 8.192 8.192 5.12 0 8.192-4.096 8.192-8.192s-4.096-8.192-8.192-8.192m-51.2-24.576c-5.12 0-9.216 4.096-9.216 9.216s4.096 9.216 9.216 9.216 9.216-4.096 9.216-9.216-4.096-9.216-9.216-9.216m-18.432 25.6c-4.096 0-8.192 3.072-8.192 7.168 0 4.096 3.072 8.192 7.168 8.192 4.096 0 8.192-3.072 8.192-8.192 1.024-3.072-3.072-7.168-7.168-7.168m-18.432-22.528c-5.12 0-9.216 4.096-9.216 9.216s4.096 9.216 9.216 9.216 9.216-4.096 9.216-9.216-4.096-9.216-9.216-9.216m-3.072-10.24c1.024-2.048 1.024-4.096 0-6.144-2.048-2.048-3.072-6.144-2.048-9.216 1.024-3.072 3.072-5.12 6.144-6.144 2.048-1.024 4.096-1.024 5.12 0 2.048 1.024 4.096 0 5.12-2.048 1.024-2.048 1.024-4.096 0-5.12-3.072-4.096-3.072-10.24 1.024-13.312 1.024-1.024 2.048-1.024 3.072-2.048h5.12c1.024 0 3.072 0 4.096-2.048 1.024-2.048 0-4.096-1.024-5.12-73.728-46.08-174.08-38.912-234.496 27.648-14.336 15.36-30.72 35.84-49.152 59.392 11.264 14.336 22.528 28.672 34.816 43.008l19.456 23.552c20.48-26.624 40.96-50.176 56.32-67.584 34.816-35.84 90.112-41.984 131.072-14.336 1.024 1.024 3.072 1.024 4.096-1.024 1.024-1.024 1.024-3.072 0-4.096-3.072-4.096-3.072-10.24 1.024-13.312 1.024-1.024 2.048-1.024 3.072-2.048 1.024-1.024 3.072-1.024 5.12-1.024 0 4.096 2.048 3.072 2.048 1.024m-1.024-59.392c6.144 0 10.24 4.096 10.24 10.24s-4.096 10.24-10.24 10.24-10.24-4.096-10.24-10.24 4.096-10.24 10.24-10.24m-30.72-9.216c5.12 0 9.216 4.096 9.216 9.216s-4.096 9.216-9.216 9.216-9.216-4.096-9.216-9.216 4.096-9.216 9.216-9.216m-28.672-4.096c5.12 0 9.216 4.096 9.216 9.216s-4.096 9.216-9.216 9.216-9.216-4.096-9.216-9.216 4.096-9.216 9.216-9.216m-38.912 9.216c0-5.12 4.096-8.192 8.192-8.192 5.12 0 8.192 4.096 8.192 8.192 0 5.12-4.096 8.192-8.192 8.192s-7.168-4.096-8.192-8.192m21.504 36.864c-5.12 0-9.216-4.096-9.216-9.216s4.096-9.216 9.216-9.216 9.216 4.096 9.216 9.216-4.096 9.216-9.216 9.216m16.384 27.648c-5.12 0-9.216-4.096-9.216-9.216s4.096-9.216 9.216-9.216 9.216 4.096 9.216 9.216-4.096 9.216-9.216 9.216m15.36-24.576c-5.12 0-9.216-4.096-9.216-9.216s4.096-9.216 9.216-9.216 9.216 4.096 9.216 9.216-4.096 9.216-9.216 9.216m17.408 32.768c-6.144 0-10.24-4.096-10.24-10.24s4.096-10.24 10.24-10.24 10.24 4.096 10.24 10.24-5.12 10.24-10.24 10.24m13.312-24.576c-6.144 0-10.24-4.096-10.24-10.24s4.096-10.24 10.24-10.24 10.24 4.096 10.24 10.24-5.12 10.24-10.24 10.24M304.128 800.768c0-5.12-4.096-8.192-8.192-8.192-5.12 0-8.192 4.096-8.192 8.192 0 5.12 4.096 8.192 8.192 8.192 5.12 1.024 8.192-3.072 8.192-8.192m10.24 28.672c1.024-5.12-2.048-10.24-6.144-11.264-5.12-1.024-10.24 2.048-11.264 6.144v5.12c-1.024 5.12 3.072 9.216 8.192 10.24s9.216-3.072 10.24-8.192c0-1.024 0-1.024-1.024-2.048m5.12 14.336c-5.12 0-9.216 4.096-10.24 9.216s4.096 9.216 9.216 10.24c5.12 0 10.24-4.096 10.24-9.216 1.024-5.12-3.072-9.216-9.216-10.24 0 1.024 0 1.024 0 0m79.872 23.552c6.144 0 10.24-4.096 10.24-10.24s-4.096-10.24-10.24-10.24-10.24 4.096-10.24 10.24 4.096 10.24 10.24 10.24M326.656 808.96c5.12 0 8.192-5.12 7.168-9.216 0-5.12-5.12-8.192-9.216-7.168s-8.192 5.12-7.168 9.216c0 4.096 3.072 7.168 7.168 7.168h2.048m10.24 56.32c-6.144 0-10.24 4.096-10.24 10.24s4.096 10.24 10.24 10.24 10.24-4.096 10.24-10.24-4.096-10.24-10.24-10.24m35.84-24.576c5.12 0 9.216-4.096 9.216-9.216s-4.096-9.216-9.216-9.216-9.216 4.096-9.216 9.216 4.096 9.216 9.216 9.216M358.4 807.936c4.096 0 8.192-4.096 8.192-8.192s-4.096-8.192-8.192-8.192-8.192 4.096-8.192 8.192c0 5.12 3.072 8.192 8.192 8.192-1.024 0-1.024 0 0 0m11.264 68.608c0 6.144 4.096 10.24 10.24 10.24s10.24-4.096 10.24-10.24-4.096-10.24-10.24-10.24-10.24 4.096-10.24 10.24M330.752 829.44c-1.024 5.12 2.048 9.216 7.168 10.24 5.12 1.024 9.216-2.048 10.24-7.168 0-1.024 1.024-2.048 1.024-3.072 1.024-5.12-3.072-9.216-8.192-10.24s-9.216 3.072-10.24 8.192c-1.024 1.024-1.024 1.024 0 2.048m25.6 34.816c5.12 0 9.216-4.096 9.216-9.216s-4.096-9.216-9.216-9.216-9.216 4.096-9.216 9.216c-1.024 4.096 3.072 8.192 9.216 9.216-1.024 0-1.024 0 0 0m241.664-98.304c-20.48 26.624-40.96 50.176-56.32 67.584-30.72 32.768-78.848 40.96-118.784 21.504-1.024-1.024-3.072 0-4.096 1.024l-1.024 1.024c-1.024 1.024-1.024 3.072 0 4.096 3.072 5.12 1.024 11.264-4.096 14.336-1.024 0-1.024 1.024-2.048 1.024-3.072 1.024-5.12 0-8.192-1.024-1.024-1.024-3.072-1.024-4.096 0-1.024 1.024-1.024 3.072-1.024 4.096 3.072 5.12 1.024 11.264-4.096 14.336l-2.048 1.024c-3.072 1.024-6.144 1.024-8.192-1.024-1.024-1.024-3.072-1.024-4.096 0l-1.024 1.024c-1.024 1.024-1.024 3.072 0 4.096 1.024 2.048 2.048 4.096 1.024 7.168 0 3.072-2.048 6.144-5.12 7.168-3.072 2.048-7.168 2.048-10.24-1.024-1.024-1.024-3.072-1.024-4.096 0-1.024 1.024-1.024 3.072 0 4.096 74.752 50.176 179.2 44.032 240.64-24.576 14.336-15.36 31.744-36.864 50.176-59.392-9.216-11.264-18.432-23.552-27.648-34.816s-17.408-21.504-25.6-32.768M457.728 872.448c5.12 0 9.216 4.096 9.216 9.216s-4.096 9.216-9.216 9.216-9.216-4.096-9.216-9.216c0-6.144 4.096-9.216 9.216-9.216 0-1.024 0-1.024 0 0m-25.6-5.12c5.12 0 9.216 4.096 9.216 9.216s-4.096 9.216-9.216 9.216-9.216-4.096-9.216-9.216 4.096-9.216 9.216-9.216m-34.816 61.44c-6.144 0-10.24-4.096-10.24-10.24s4.096-10.24 10.24-10.24 10.24 4.096 10.24 10.24-5.12 10.24-10.24 10.24m6.144-30.72c0-6.144 4.096-10.24 10.24-10.24s10.24 4.096 10.24 10.24-4.096 10.24-10.24 10.24-10.24-4.096-10.24-10.24m21.504 40.96c-5.12 0-9.216-4.096-9.216-9.216s4.096-9.216 9.216-9.216 9.216 4.096 9.216 9.216-4.096 9.216-9.216 9.216m6.144-32.768c0-5.12 4.096-9.216 9.216-9.216s10.24 4.096 10.24 9.216-4.096 9.216-9.216 9.216-10.24-4.096-10.24-9.216m22.528 36.864c-5.12 0-9.216-4.096-9.216-9.216s4.096-9.216 9.216-9.216 9.216 4.096 9.216 9.216-4.096 9.216-9.216 9.216m15.36-25.6c-5.12 0-9.216-4.096-9.216-9.216s4.096-9.216 9.216-9.216 9.216 4.096 9.216 9.216c-1.024 5.12-4.096 9.216-9.216 9.216m15.36 25.6c-5.12 0-8.192-4.096-8.192-8.192s4.096-8.192 8.192-8.192c5.12 0 8.192 4.096 8.192 8.192s-3.072 8.192-8.192 8.192m-113.664-47.104c0-6.144-5.12-10.24-10.24-10.24s-10.24 5.12-10.24 10.24 5.12 10.24 10.24 10.24 10.24-4.096 10.24-10.24" fill="#1296db" p-id="2134"></path></svg>