<svg t="1575270155611" class="icon" viewBox="0 0 1251 1024" version="1.1" xmlns="http://www.w3.org/2000/svg" p-id="11465" width="200" height="200"><path d="M790.755556 281.031111h37.925925l108.088889-108.088889 5.30963-45.89037A485.831111 485.831111 0 0 0 151.703704 364.088889a58.785185 58.785185 0 0 1 37.925926-2.275556l216.177777-35.65037s10.998519-18.204444 16.687408-17.066667a269.653333 269.653333 0 0 1 369.019259-28.065185h-0.758518z" fill="#EA4335" p-id="11466"></path><path d="M1090.74963 364.088889a486.968889 486.968889 0 0 0-146.773334-236.657778l-151.703703 151.703704A269.653333 269.653333 0 0 1 891.259259 493.037037v26.927407a135.016296 135.016296 0 0 1 0 270.032593h-270.032592l-26.927408 27.306667v161.943703l26.927408 26.927408h270.032592A351.194074 351.194074 0 0 0 1090.74963 364.088889z" fill="#4285F4" p-id="11467"></path><path d="M350.814815 1004.657778h270.032592v-216.177778H350.814815a134.257778 134.257778 0 0 1-55.751111-12.136296l-37.925926 11.757037-108.847408 108.088889-9.481481 37.925926a349.297778 349.297778 0 0 0 212.005926 70.542222z" fill="#34A853" p-id="11468"></path><path d="M350.814815 303.407407a351.194074 351.194074 0 0 0-212.005926 629.570371l156.634074-156.634074a135.016296 135.016296 0 1 1 178.631111-178.631111l156.634074-156.634074A350.814815 350.814815 0 0 0 350.814815 303.407407z" fill="#FBBC05" p-id="11469"></path></svg>
