<?xml version="1.0" standalone="no"?><!DOCTYPE svg PUBLIC "-//W3C//DTD SVG 1.1//EN" "http://www.w3.org/Graphics/SVG/1.1/DTD/svg11.dtd"><svg t="1679826319302" class="icon" viewBox="0 0 1024 1024" version="1.1" xmlns="http://www.w3.org/2000/svg" p-id="1958" xmlns:xlink="http://www.w3.org/1999/xlink" width="200" height="200"><path d="M734.43 415.7c-33.74 23.28-46.35 59.22-46.35 95.2 0 38.09 14.75 71.93 48.44 95.21C770.26 631.63 848.37 640 918 640a835.89 835.89 0 0 0 103.32-6.38v-38.13c-35.74 4.24-50.59 6.38-88.57 8.47-40.07 2.15-78.11-4.23-105.52-21.13-23.17-16.9-35.73-33.83-35.73-71.93 0-27.51 6.28-50.74 27.41-67.63 27.41-21.19 65.39-27.57 109.7-27.57a403 403 0 0 1 92.71 10.57v-40.13C983.39 384 962.25 384 913.81 384c-71.77 0-145.64 8.42-179.38 31.7z m-373.31-27.51v33.89a744.16 744.16 0 0 1 116-8.47c23.22 0 57 2.09 69.63 8.47a27.69 27.69 0 0 1 14.75 25.53 36.77 36.77 0 0 1-10.5 25.52 71.2 71.2 0 0 1-35.73 12.71 504.28 504.28 0 0 1-69.62 4.16h-52.94v29.65h56.87c33.74 0 61.26 0 76 4.24 19 4.24 29.51 8.48 37.93 16.9 8.63 6 8.63 16.59 8.63 27.31 0 12.71-6.33 23.28-23.13 31.7-14.8 6.38-48.54 8.47-73.86 8.47-38-2.09-78.06-4.23-118.13-8.47v33.84c42.17 2.1 107.61 6.39 122.52 6.39 57 0 122.51-4.29 154-19.1a66.71 66.71 0 0 0 33.43-52.83c0-10.62 0-23.28-8.42-31.75-6.33-10.57-14.8-14.81-29.56-21.19s-23.17-8.37-50.59-12.66c29.46-8.52 40.08-12.81 55-21.18a46 46 0 0 0 23.18-40.23c0-16.89-8.42-31.7-31.65-42.27-25.52-10.61-92.75-14.8-137.11-14.8-27.57-0.02-82.39-0.02-126.7 4.17zM238.6 384v105.72H88.93V384H0.36v256h88.57V519.38h149.82V640h88.62V384z" fill="#E60012" p-id="1959"></path></svg>