<?xml version="1.0" standalone="no"?><!DOCTYPE svg PUBLIC "-//W3C//DTD SVG 1.1//EN" "http://www.w3.org/Graphics/SVG/1.1/DTD/svg11.dtd"><svg t="1622427756387" class="icon" viewBox="0 0 1024 1024" version="1.1" xmlns="http://www.w3.org/2000/svg" p-id="735" xmlns:xlink="http://www.w3.org/1999/xlink" width="16" height="16"><defs><style type="text/css"></style></defs><path d="M622.4 214.4c-83.2 28.8-144 76.8-240 187.2C300.8 496 163.2 592 108.8 592c-46.4 0-35.2-75.2 19.2-131.2 41.6-40 57.6-46.4 120-43.2 51.2 3.2 80-3.2 99.2-22.4 24-24 24-27.2-17.6-43.2C123.2 273.6-59.2 462.4 30.4 662.4c27.2 62.4 46.4 80 107.2 108.8 84.8 36.8 177.6 32 267.2-12.8 68.8-35.2 68.8-33.6 36.8-68.8-25.6-28.8-28.8-28.8-86.4 0-67.2 35.2-139.2 38.4-192 8-36.8-19.2-33.6-22.4 67.2-72 76.8-36.8 128-78.4 196.8-156.8C532.8 348.8 641.6 272 707.2 272c56 0 140.8 33.6 169.6 67.2 16 20.8 14.4 24-17.6 17.6-76.8-14.4-176 27.2-254.4 108.8-43.2 43.2-76.8 84.8-76.8 91.2 0 8 11.2 27.2 24 44.8 22.4 28.8 24 28.8 41.6 1.6 75.2-124.8 190.4-188.8 289.6-161.6 43.2 12.8 54.4 24 57.6 62.4 12.8 142.4-182.4 262.4-315.2 193.6-43.2-24-145.6-128-145.6-150.4 0-6.4-6.4-20.8-14.4-33.6-12.8-19.2-19.2-19.2-40-3.2-35.2 30.4-32 56 17.6 131.2 48 72 144 134.4 230.4 150.4 176 32 350.4-124.8 350.4-312-1.6-108.8-107.2-240-220.8-272-75.2-20.8-110.4-19.2-180.8 6.4z" p-id="736" fill="#d81e06"></path></svg>