<?xml version="1.0" encoding="UTF-8"?>
<svg width="191px" height="29px" viewBox="0 0 191 29" version="1.1" xmlns="http://www.w3.org/2000/svg" xmlns:xlink="http://www.w3.org/1999/xlink">
    <!-- Generator: Sketch 52.6 (67491) - http://www.bohemiancoding.com/sketch -->
    <title>分组 24 copy</title>
    <desc>Created with Sketch.</desc>
    <defs>
        <polygon id="path-1" points="0.00776351831 0.372964006 11.7355509 0.372964006 11.7355509 16.8650648 0.00776351831 16.8650648"></polygon>
    </defs>
    <g id="Page-1" stroke="none" stroke-width="1" fill="none" fill-rule="evenodd">
        <g id="首页" transform="translate(-1221.000000, -2133.000000)">
            <rect fill="#FFFFFF" x="0" y="0" width="1440" height="4054"></rect>
            <g id="分组-13" transform="translate(486.000000, 2133.000000)">
                <g id="分组-24-copy" transform="translate(735.000000, 0.000000)">
                    <g id="kubernetes" fill="#316CE6" fill-rule="nonzero">
                        <g id="分组">
                            <path d="M12.2924325,16.8565376 C12.2360431,16.61396 12.0292856,16.4392234 11.7860817,16.4286103 L11.672153,16.4286103 L8.57077036,16.9602766 L8.57077026,16.9602763 C9.03558454,18.276396 9.91239943,19.3980093 11.064542,20.15028 L12.2671218,17.1807227 C12.3092686,17.0782347 12.3181443,16.9645838 12.2924393,16.8565343 L12.2924325,16.8565376 Z M11.2670741,14.5742596 C11.3738143,14.540425 11.4670457,14.4722068 11.5329077,14.3797471 C11.7123502,14.1522943 11.6844089,13.8202717 11.4696141,13.6276314 L9.11508757,11.4750263 L9.11508766,11.4750261 C8.39640225,12.6737424 8.0889965,14.0839544 8.24163426,15.481982 L11.2544254,14.5872249 L11.2670741,14.5742596 Z M15.3558388,11.7214097 L15.3558388,11.7214095 C15.3628226,11.8344328 15.4024819,11.9427707 15.4697675,12.0326294 C15.6467691,12.2650508 15.9721605,12.3110271 16.2039757,12.1363693 L16.2166345,12.1363693 L18.7737019,10.2820185 C17.7990478,9.30256033 16.5345578,8.68226326 15.1786283,8.51843821 L15.3558506,11.7214196 L15.3558388,11.7214097 Z M13.5582961,15.5208755 L14.4317495,15.9488029 L15.3052029,15.5208755 L15.5204014,14.5612819 L14.9127817,13.7962008 L13.9507161,13.7962008 L13.3557561,14.5612819 L13.5709546,15.5208755 L13.5582961,15.5208755 Z M12.6468664,12.149337 C12.7345135,12.2166757 12.8411172,12.2530768 12.9506763,12.2530768 C13.2346984,12.2534069 13.4688175,12.0249967 13.4823435,11.734376 L13.4950022,11.734376 L13.6722246,8.51844746 C13.4552394,8.54614692 13.2397667,8.58509903 13.0266311,8.63515407 C11.9083733,8.88964988 10.8821605,9.46019676 10.0644847,10.2820269 L12.6468686,12.1493462 L12.6468664,12.149337 Z M19.7104461,11.4879948 L17.3685793,13.6405999 C17.2879658,13.7174068 17.2308062,13.8164978 17.2040155,13.9258849 C17.140345,14.2083231 17.3092651,14.4909558 17.5837778,14.5612933 L20.6092079,15.4560504 L20.6092078,15.4560514 C20.6770924,14.7663013 20.6343315,14.0698222 20.4826206,13.3942198 L20.4826208,13.3942206 C20.3410231,12.7098347 20.0839979,12.0559873 19.7230961,11.4620649 L19.7104461,11.4879948 Z" id="形状"></path>
                            <path d="M28.7741183,17.4141196 L26.3056631,6.40471658 L26.305663,6.40471641 C26.1773102,5.82342211 25.7942685,5.33533574 25.2676449,5.08203194 L15.2545876,0.193296546 C14.7293764,-0.0595473738 14.1215044,-0.0595473738 13.5962931,0.193296505 L3.57056717,5.09500953 L3.57056732,5.09500945 C3.04750105,5.35292685 2.66606538,5.83897084 2.53254925,6.41769392 L0.064093992,17.4141193 L0.0640939395,17.4141196 C-0.0530090437,17.9257906 0.0384068441,18.4642526 0.317269035,18.9053825 L0.431197739,19.0609924 L7.35554108,27.8918564 C7.72137096,28.3518935 8.27004448,28.6186308 8.84927403,28.6180351 L19.9636422,28.6180351 C20.5420647,28.6149738 21.0892904,28.348939 21.4573751,27.8918564 L28.3817184,19.0609925 C28.7474146,18.5953055 28.887096,17.9847979 28.7614807,17.4011543 L28.7741183,17.4141196 Z M24.9638262,17.2844446 C24.8713357,17.6269354 24.52696,17.8293499 24.1916418,17.7383059 L24.1663243,17.7383059 L24.0144193,17.6994035 L24.0144195,17.6994035 C23.8335589,17.6404541 23.6560603,17.5711861 23.4827522,17.4919235 L23.482752,17.4919234 C23.1459503,17.358332 22.7987022,17.2542195 22.444734,17.1807036 C22.3186114,17.1763292 22.1958615,17.2229009 22.1029479,17.3103786 L21.8497731,17.2714761 L21.8497733,17.2714756 C21.2702826,19.1386125 20.0401196,20.7218828 18.3939359,21.7193364 L18.3939358,21.719336 C18.421066,21.8041589 18.454936,21.886562 18.4952053,21.9657179 C18.4363232,22.0768894 18.4226749,22.2073811 18.4572291,22.3288088 L18.457229,22.3288086 C18.6026717,22.6701809 18.7807627,22.9959588 18.9888962,23.3013707 C19.1080069,23.4588244 19.2179083,23.6233677 19.3180226,23.7941344 L19.393975,23.9627119 C19.5744965,24.2524989 19.4915128,24.6373296 19.2086252,24.8222532 C18.9257378,25.0071777 18.5500698,24.9221699 18.3695492,24.6323826 C18.342686,24.5892598 18.3211147,24.542909 18.3053231,24.4943788 L18.2167118,24.2998664 L18.2167117,24.2998662 C18.1441343,24.1143584 18.0849021,23.9236609 18.0394896,23.7292974 C17.9310847,23.3712942 17.7912684,23.0240774 17.6217511,22.6918988 C17.5496466,22.5883793 17.4403733,22.5184177 17.3179412,22.4973864 L17.1913536,22.2639715 L17.1913533,22.2639716 C16.8567857,22.3912077 16.5142222,22.4951837 16.165995,22.5751915 L16.1659955,22.5751914 C14.6686935,22.9237637 13.1038946,22.8063624 11.6721312,22.2380375 L11.5455437,22.48442 C11.4501162,22.4998626 11.3616853,22.5451565 11.2923688,22.6140951 C11.0771703,22.8734449 10.988559,23.3013713 10.8239943,23.7163331 L10.8239944,23.7163327 C10.7774981,23.9103847 10.7182899,24.1010053 10.6467721,24.2869015 L10.5708196,24.4425114 C10.482934,24.7742767 10.1491439,24.9702418 9.82527786,24.880213 C9.50141179,24.7901838 9.31011244,24.4482526 9.39799775,24.1164873 C9.41762102,24.04241 9.45045005,23.9726895 9.49482855,23.9108439 L9.57078102,23.7422664 L9.57078111,23.7422662 C9.66825394,23.5697772 9.77827465,23.4050546 9.89990749,23.2495024 C10.1120829,22.9352554 10.294359,22.6008915 10.4442346,22.2510062 C10.4607866,22.1317382 10.443197,22.0101129 10.3935995,21.9008839 L10.5075282,21.6285665 C8.86696074,20.6365258 7.63766409,19.0635798 7.05169079,17.2066609 L6.78585715,17.2455634 C6.68437927,17.1735971 6.56682859,17.1289978 6.444071,17.1158883 C6.08820992,17.1813676 5.74022004,17.2857025 5.40605291,17.4271082 C5.23403487,17.5095252 5.05633339,17.5788719 4.87438569,17.6345882 L4.72248075,17.6734906 L4.69716327,17.6734906 C4.38928576,17.8102548 4.03146952,17.6654521 3.89796229,17.3500651 C3.76445446,17.0346784 3.90580939,16.668135 4.21368721,16.5313715 C4.28254376,16.5007844 4.35633603,16.4835296 4.43132871,16.4804806 L4.44398747,16.4804806 L4.60855125,16.4415781 C4.79758453,16.4178353 4.98775883,16.4048478 5.17819481,16.4026756 C5.54167486,16.3773121 5.90196845,16.3165224 6.25418913,16.2211308 C6.35545899,16.1822283 6.4440703,16.039586 6.50736393,15.961781 L6.76053873,15.8839761 L6.76053854,15.8839747 C6.48550159,13.9479166 6.91827728,11.9760074 7.97577805,10.3468443 L7.78589688,10.1782668 C7.77743183,10.0535686 7.73823374,9.93310615 7.67196818,9.82814452 C7.39782101,9.58686554 7.10099846,9.37402184 6.78585505,9.19273626 L6.78585521,9.19273635 C6.61605427,9.10270992 6.45124008,9.00314084 6.29216416,8.89448407 L6.16557662,8.79074422 L6.15291789,8.79074422 C5.86664502,8.58524974 5.79719331,8.18093258 5.99779654,7.88767775 C5.99886202,7.88612016 5.99993417,7.88456737 6.00101298,7.88301945 C6.11332263,7.75421335 6.27556155,7.68298655 6.44406804,7.68850706 C6.59519333,7.69731303 6.74045895,7.75142545 6.86180667,7.844117 L6.98839422,7.94785686 L6.98839445,7.94785708 C7.12666859,8.08311312 7.25766761,8.22596456 7.38081059,8.37578137 C7.62739242,8.65657257 7.90331914,8.90878802 8.20362808,9.12789714 C8.31215261,9.18821515 8.43953736,9.20219665 8.55807395,9.16679964 L8.77327251,9.32240958 L8.77327177,9.32241039 C9.82524611,8.17581741 11.1871392,7.37667832 12.6848239,7.02716381 C13.039255,6.94557101 13.3987801,6.88924356 13.7608183,6.85858628 L13.7608183,6.59923648 C13.8515064,6.51592468 13.9173352,6.40802986 13.9506994,6.28801661 L13.9506994,6.28801767 C13.9672415,5.91504011 13.9460305,5.54131184 13.8874058,5.17281414 C13.8506682,4.98004127 13.8253048,4.78517508 13.8114533,4.58927676 L13.8114533,4.42069923 C13.8114533,4.04464289 14.0772869,3.73342302 14.4064133,3.73342302 C14.7355397,3.73342302 15.0013733,4.04464289 15.0013733,4.42069923 L15.0013733,4.58927858 L15.0013735,4.58927582 C14.9885903,4.78528477 14.9632181,4.98021844 14.9254216,5.17281005 L14.9254215,5.172811 C14.8667968,5.54130871 14.8455859,5.91503697 14.8621278,6.28801454 L14.8621278,6.28801441 C14.8843466,6.41613792 14.9577615,6.52894631 15.0646675,6.59923428 C15.0646675,6.63813677 15.0773263,6.79374671 15.0773263,6.87155167 L15.077326,6.87155165 C16.972355,7.0478878 18.7403119,7.92347179 20.0522128,9.33537667 L20.2800702,9.16679914 C20.3994167,9.18888567 20.5224451,9.17538256 20.634516,9.12789664 L20.6345163,9.12789638 C20.9252822,8.90164926 21.1963509,8.65000064 21.444677,8.37578067 L21.4446772,8.37578042 C21.5658555,8.22418291 21.6969654,8.0812102 21.8370992,7.9478531 L21.9636868,7.84411324 C22.227584,7.60930753 22.6259746,7.63229951 22.8624567,7.89598328 C23.0776553,8.15533308 23.0017028,8.57029402 22.7105518,8.80370893 L22.5839642,8.90744879 C22.4194005,9.03712383 22.2548379,9.10196121 22.0902732,9.20570106 L22.0902731,9.20570114 C21.7751296,9.38698611 21.4783098,9.59982889 21.2041629,9.84110636 C21.122136,9.93758544 21.081122,10.0636289 21.0902342,10.1912287 L20.8750356,10.3857411 L20.8750355,10.3857409 C21.4049137,11.1944901 21.7866787,12.0952802 22.0016628,13.0440753 C22.2154444,13.9832573 22.2583575,14.9547679 22.1282503,15.9098907 L22.3687666,15.9876957 C22.4067428,16.0525331 22.4953541,16.208143 22.6219414,16.2470455 L22.6219411,16.2470454 C22.9741618,16.342437 23.3344554,16.4032267 23.6979354,16.4285905 L23.6979352,16.4285905 C23.8883723,16.4307628 24.078546,16.4437502 24.2675787,16.467493 L24.444801,16.5063955 C24.7992469,16.6101354 25.0271043,16.9343228 24.9638086,17.2585112 L24.9638262,17.2844446 Z" id="形状"></path>
                            <path d="M14.8874851,18.0236122 C14.832937,17.9220962 14.7488697,17.840511 14.6469688,17.7901973 C14.568563,17.7502077 14.481183,17.7323052 14.393794,17.7383272 C14.2082454,17.7496905 14.0411847,17.8572609 13.9507389,18.0236122 L12.4316895,20.8375596 C13.5198512,21.2192173 14.6904182,21.2820934 15.8115745,21.0191044 L15.8115748,21.0191044 C16.0169613,20.9743012 16.2198016,20.9180254 16.4191887,20.850529 L14.9001393,18.0236161 L14.8874851,18.0236122 Z M17.1533994,16.4286103 L17.0268118,16.4286103 C16.7334549,16.4416215 16.5059381,16.6957822 16.5186394,16.9962948 C16.5213183,17.059677 16.5347869,17.1220924 16.5584376,17.1807257 L16.5457788,17.1807257 L17.7610183,20.176217 C18.9195043,19.4195636 19.7974021,18.2874375 20.2547902,16.9602883 L17.140739,16.4286221 L17.1533994,16.4286103 Z" id="形状"></path>
                        </g>
                    </g>
                    <g id="分组" transform="translate(36.000000, 3.000000)">
                        <g transform="translate(143.000000, 6.000000)">
                            <mask id="mask-2" fill="white">
                                <use xlink:href="#path-1"></use>
                            </mask>
                            <g id="Clip-2"></g>
                            <path d="M11.7356412,13.0171241 C9.75188173,16.8698578 5.06804281,17.974989 0.00776351831,15.6686894 C0.186504986,14.6816138 0.372919699,13.6500331 0.564299453,12.5940917 C2.34855456,12.7725805 4.03215475,13.0077546 5.72117135,13.0677194 C6.21361313,13.0855214 6.72230412,12.6034612 7.22377324,12.350485 C6.88253953,11.820172 6.65143945,11.1038746 6.17614964,10.8007716 C5.29372648,10.2381338 4.25422749,9.94767967 3.3045506,9.48904321 C0.889735308,8.32160494 0.0190477019,6.65805225 0.426181046,4.07394731 C0.743040921,2.06512897 2.40452411,0.499487434 4.76743216,0.391269841 C6.75074027,0.300385802 8.7502976,0.571164021 10.9556784,0.693435847 C10.6668033,2.12790454 10.458723,3.15901675 10.2352962,4.2664903 C8.94573966,4.08050595 7.76586542,3.74648369 6.60359451,3.80457451 C5.91616205,3.83924162 5.25806846,4.4937004 4.58688522,4.86894841 C5.07029964,5.39036045 5.47472478,6.05231481 6.05382909,6.40460758 C7.46390067,7.26285273 9.043235,7.84516645 10.3756714,8.80553902 C11.0328623,9.27963514 11.2946553,10.3454145 11.7356412,11.1432264 L11.7356412,13.0171241 Z" id="Fill-1" fill="#000000" mask="url(#mask-2)"></path>
                        </g>
                        <path d="M38.2484691,19.0515413 C40.2055185,19.480904 42.1719553,19.5613809 42.7597853,17.7565943 C43.3426982,15.9687262 43.2743043,13.7812169 42.8482951,11.9233887 C42.6989908,11.2731717 40.6435972,10.7880239 39.4455861,10.7555587 C37.917228,10.714863 38.2645618,12.1698493 38.2542803,13.183127 C38.2346115,15.0802792 38.2484691,16.9778886 38.2484691,19.0515413 Z M34,0.646558968 C35.5654607,0.4069572 36.7902929,0.219482535 38.2270122,0 L38.2270122,7.18393772 C38.5448427,7.26532916 38.6883358,7.35220767 38.8067959,7.32477235 C44.0950313,6.09841369 47.1231383,8.12222556 47.8786005,13.3952935 C48.640321,18.7127151 45.7619653,22.6025858 40.804971,22.9551296 C40.6565607,22.9656465 40.5072563,22.9638175 40.358399,22.9674755 C34.2530128,23.1330019 34,22.8874559 34,16.7908712 L34,0.646558968 Z" id="Fill-3" fill="#000000"></path>
                        <path d="M0,0.654730965 C1.41084255,0.431456609 2.61532696,0.240585887 4.13415777,0 L4.13415777,12.2925184 C7.09880707,9.73041186 8.60321029,5.29688448 13.3979764,7.54205684 C11.6067703,9.52311738 9.81075511,11.5099484 8.07682218,13.4284211 C10.0542752,16.101499 11.9950034,18.7244178 14,21.435226 C10.4691774,22.5049898 9.48416714,22.1578714 7.66454313,19.5029928 C7.0013116,18.5353227 6.26375617,17.6186993 5.53363313,16.7003004 C5.27743426,16.3780396 4.9425395,16.12103 4.25482481,15.4618601 L4.25482481,21.8023192 L0,21.8023192 L0,11.2600409 L0,0.654730965 Z" id="Fill-5" fill="#000000"></path>
                        <path d="M101.517343,12.3700132 L106.862229,12.3700132 C106.933146,10.5877189 105.993946,9.66470463 104.42093,9.58469801 C102.727799,9.49881519 101.748265,10.4742631 101.517343,12.3700132 M110.801196,15.3383945 L106.115833,15.3383945 L101.709261,15.3383945 C102.090437,18.1241617 102.631618,18.2990915 109.482593,17.9718328 C110.57249,21.0948031 110.531713,21.1720976 107.484964,21.7547447 C100.567506,23.077792 95.9947234,18.9188038 97.1896659,12.392162 C98.0291396,7.8078278 101.680008,5.26117638 106.083034,6.18961479 C109.670965,6.94583556 111.660172,10.6039914 110.801196,15.3383945" id="Fill-7" fill="#000000"></path>
                        <path d="M59.9233602,12.3725907 C59.868722,10.5816779 58.9703271,9.56478439 57.3508875,9.53981602 C55.6794969,9.51484766 54.5777764,10.4037215 54.5088069,12.3725907 L59.9233602,12.3725907 Z M63.9271738,15.3247596 L59.1678307,15.3247596 L54.7103411,15.3247596 C55.0036854,18.2433347 56.33202,18.652816 62.4815015,17.872441 C63.5724735,21.2073069 63.5791913,21.2477102 60.3801711,21.7765856 C59.2153032,21.969523 57.9993799,22.061225 56.8282421,21.9554499 C51.8615426,21.5082892 49.3737144,17.8438409 50.135066,12.2259583 C50.7033925,8.02854887 54.3910213,5.42094343 58.7849156,6.11007036 C62.5249433,6.69705396 64.4036903,9.90889388 63.9271738,15.3247596 Z" id="Fill-9" fill="#000000"></path>
                        <path d="M131.550884,12.316838 L136.942328,12.316838 C136.894668,10.473179 135.953036,9.52909847 134.360635,9.49594893 C132.789615,9.4627994 131.737517,10.3151511 131.550884,12.316838 M140.902172,15.2943927 L131.752662,15.2943927 C132.19987,18.2674063 133.675124,18.7128816 139.408211,17.8110326 C140.727565,20.9130116 140.604627,21.161406 137.453233,21.7580976 C132.373141,22.7203423 128.472985,20.7658821 127.387035,16.7143734 C125.788844,10.7510902 129.303261,5.76049601 134.926327,6.00889046 C139.255875,6.20006791 141.510179,9.53727232 140.902172,15.2943927" id="Fill-11" fill="#000000"></path>
                        <path d="M93.9077159,22 L89.7612169,22 C89.7612169,19.1538848 89.7997068,16.3688652 89.7517076,13.5852556 C89.6901237,9.98155491 89.0077196,9.44720337 85.2655914,10.0783679 L85.2655914,21.8787487 L81,21.8787487 L81,16.7246296 L81,10.6301082 C81,6.46385807 80.9981887,6.44270959 84.9640114,6.0813056 C86.0856537,5.97932294 87.2226919,5.9854325 88.3493152,6.03336905 C91.5743197,6.17012921 93.5314201,7.68999983 93.8357171,11.0413286 C94.1572213,14.5839337 93.9077159,18.1819948 93.9077159,22" id="Fill-13" fill="#000000"></path>
                        <path d="M25.7977375,18.3794063 L25.7977375,7 L29.9950335,7 C29.9950335,11.5608581 30.0229028,16.0330116 29.9466049,20.5029137 C29.9397518,20.8942046 29.2768285,21.5754741 28.8724955,21.6101454 C26.3989829,21.8253779 23.8953166,22.1221106 21.4341396,21.9469528 C18.8623992,21.7641402 17.2404986,20.0436309 17.0988678,17.5135231 C16.9083516,14.0972698 17.0518098,10.6634556 17.0518098,7.05493382 L21.1851436,7.05493382 C21.1851436,9.68410259 21.1371719,12.356498 21.197936,15.0261917 C21.2705789,18.2375689 22.1555427,18.9120842 25.7977375,18.3794063" id="Fill-15" fill="#000000"></path>
                        <path d="M115.214701,3.64600515 C116.461803,3.43591851 117.636183,3.23842808 119.05086,3 C119.139842,4.50479611 119.221145,5.87193374 119.316451,7.48559702 L124.357704,7.48559702 L124.357704,10.7781539 C122.732994,10.8514818 121.123641,10.9234601 119.297932,11.0048855 C119.297932,13.1583859 119.111837,15.2331601 119.349875,17.2588991 C119.590623,19.3084809 120.775844,19.6256352 124.389322,18.9139499 C124.596194,19.9045511 124.802162,20.896052 125,21.8466153 C119.244633,24.6542185 115.021832,22.179065 115.002861,16.1274904 C114.991117,12.1677847 115.018219,8.20807909 115.035383,4.24837345 C115.035834,4.10936538 115.115331,3.97035731 115.214701,3.64600515" id="Fill-17" fill="#000000"></path>
                        <path d="M72.3644273,22 L68.0033732,22 C68.0033732,17.2817355 67.9828616,12.6292898 68.042998,7.97778435 C68.0481259,7.60919932 68.5515934,7.04503856 68.9366528,6.91622185 C71.8432452,5.94445495 74.7899286,5.58292193 78,6.64589482 C77.7990792,7.81323746 77.6084142,8.92228348 77.4252079,9.98713692 L72.3644273,9.98713692 L72.3644273,22 Z" id="Fill-19" fill="#000000"></path>
                    </g>
                </g>
            </g>
        </g>
    </g>
</svg>
