<svg t="1592397358274" class="icon" viewBox="0 0 1024 1024" version="1.1" xmlns="http://www.w3.org/2000/svg" p-id="772" width="200" height="200"><path d="M51.2 256l56.917333-139.434667A25.6 25.6 0 0 1 130.986667 102.4h792.661333a25.6 25.6 0 0 1 22.869333 14.165333L1008.896 256" fill="#B3D9FF" p-id="773"></path><path d="M51.2 281.6l947.2 0 0 640-947.2 0 0-640Z" fill="#96CAFF" p-id="774"></path><path d="M153.6 153.6h153.6v25.6H153.6zM332.8 409.6h512v25.6H332.8zM332.8 742.4h512v25.6H332.8zM153.6 588.8h512v25.6H153.6zM153.6 409.6h76.8v25.6h-76.8zM281.6 409.6h25.6v25.6h-25.6zM691.2 588.8h25.6v25.6h-25.6zM281.6 742.4h25.6v25.6h-25.6zM153.6 742.4h76.8v25.6h-76.8zM768 588.8h76.8v25.6h-76.8z" fill="#175AA7" p-id="775"></path><path d="M51.2 256a25.6 25.6 0 0 0-25.6 25.6v588.8a25.6 25.6 0 0 0 25.6 25.6h921.6a25.6 25.6 0 0 0 25.6-25.6V281.6a25.6 25.6 0 0 0-25.6-25.6z m0-25.6h921.6a51.2 51.2 0 0 1 51.2 51.2v588.8a51.2 51.2 0 0 1-51.2 51.2H51.2a51.2 51.2 0 0 1-51.2-51.2V281.6a51.2 51.2 0 0 1 51.2-51.2z" fill="#175AA7" p-id="776"></path><path d="M89.429333 104.192l1.536-4.096-1.024 2.218667z m0.682667-1.792h838.656c8.533333 22.357333 8.533333 22.357333 14.250667 35.754667l45.824 114.346666 30.037333 6.144-67.157333-167.68A25.6 25.6 0 0 0 928.768 76.8H90.026667a25.6 25.6 0 0 0-22.869334 14.165333L0 265.130667h27.477333L76.8 136.533333l12.544-32.682666z m0.853333-2.218667l-1.024 2.218667h838.741334c8.533333 22.357333 8.533333 22.357333 14.250666 35.754667l45.824 114.346666 30.037334 6.144-67.157334-167.68A25.6 25.6 0 0 0 928.768 76.8H90.026667a25.6 25.6 0 0 0-22.869334 14.165333L0 265.130667h27.477333zM256 384v76.8h76.8v-76.8z m0-25.6h76.8a25.6 25.6 0 0 1 25.6 25.6v76.8a25.6 25.6 0 0 1-25.6 25.6h-76.8a25.6 25.6 0 0 1-25.6-25.6v-76.8a25.6 25.6 0 0 1 25.6-25.6zM256 716.8v76.8h76.8v-76.8z m0-25.6h76.8a25.6 25.6 0 0 1 25.6 25.6v76.8a25.6 25.6 0 0 1-25.6 25.6h-76.8a25.6 25.6 0 0 1-25.6-25.6v-76.8a25.6 25.6 0 0 1 25.6-25.6zM665.6 563.2v76.8h76.8v-76.8z m0-25.6h76.8a25.6 25.6 0 0 1 25.6 25.6v76.8a25.6 25.6 0 0 1-25.6 25.6h-76.8a25.6 25.6 0 0 1-25.6-25.6v-76.8a25.6 25.6 0 0 1 25.6-25.6z" fill="#175AA7" p-id="777"></path><path d="M793.6 153.6h25.6v25.6h-25.6zM563.2 153.6h25.6v25.6h-25.6zM640 153.6h25.6v25.6h-25.6zM716.8 153.6h25.6v25.6h-25.6z" fill="#175AA7" p-id="778"></path><path d="M878.165333 101.973333h51.2l51.2 128h-51.2l-51.2-128z" fill="#96CAFF" p-id="779"></path></svg>
