<?xml version="1.0" standalone="no"?><!DOCTYPE svg PUBLIC "-//W3C//DTD SVG 1.1//EN" "http://www.w3.org/Graphics/SVG/1.1/DTD/svg11.dtd"><svg t="1566479215733" class="icon" viewBox="0 0 1024 1024" version="1.1" xmlns="http://www.w3.org/2000/svg" p-id="14693" xmlns:xlink="http://www.w3.org/1999/xlink" width="24" height="24"><defs><style type="text/css"></style></defs><path d="M839 716.47c-14.39 14.39-43.18 35.98-93.56 35.98H435.99C529.54 662.5 608.7 586.93 615.9 579.74c7.2-7.2 25.19-25.19 43.18-39.58 35.98-32.39 64.77-35.99 89.96-35.99 35.98 0 64.77 14.39 89.96 35.99 50.37 46.77 50.37 129.53 0 176.31m61.16-233.89c-35.98-39.58-89.96-64.77-147.53-64.77-50.38 0-93.56 17.99-133.14 46.78-14.39 14.39-35.98 28.79-53.98 50.37-14.39 14.39-323.85 316.65-323.85 316.65 17.99 3.6 39.58 3.6 57.57 3.6h392.22c28.79 0 50.37 0 71.97-3.6 46.78-3.6 93.56-21.59 133.14-57.57 82.77-79.16 82.77-212.3 3.6-291.46z m0 0" fill="#00A3FF" p-id="14694"></path><path d="M396.4 460.99c-39.58-28.79-79.16-43.18-125.94-43.18-57.58 0-111.55 25.19-147.53 64.77-79.16 82.76-79.16 212.3 3.6 295.07 35.98 32.38 71.97 50.37 115.15 53.97l82.76-79.16h-46.78c-46.78-3.6-75.57-17.99-93.56-35.98-50.37-50.37-50.37-129.54-3.6-179.92 25.19-25.19 53.98-35.98 89.96-35.98 21.59 0 53.97 3.6 86.36 35.98 14.39 14.39 53.98 43.18 68.36 57.57h3.6l53.98-53.97v-3.6c-25.19-25.19-64.77-57.58-86.36-75.57" fill="#00C8DC" p-id="14695"></path><path d="M774.22 371.03c-39.58-107.95-143.93-183.51-262.68-183.51-140.34 0-251.88 104.35-273.47 233.89 10.79 0 21.59-3.6 35.98-3.6 14.39 0 32.38 3.6 46.78 3.6 17.99-89.96 97.15-154.72 190.71-154.72 79.16 0 147.53 46.78 179.92 115.14 0 0 3.59 3.6 3.59 0 25.2-3.6 53.99-10.8 79.17-10.8 0 3.6 0 3.6 0 0" fill="#006EFF" p-id="14696"></path></svg>