<svg t="1586348040376" class="icon" viewBox="0 0 1024 1024" version="1.1" xmlns="http://www.w3.org/2000/svg" p-id="10053" width="200" height="200"><path d="M93.096 0h837.808C982.32 0 1024 41.68 1024 93.096v837.808c0 51.416-41.68 93.096-93.096 93.096H93.096C41.68 1024 0 982.32 0 930.904V93.096C0 41.68 41.68 0 93.096 0z" fill="#4C4F6E" p-id="10054"></path><path d="M93.096 0H512c51.416 0 93.096 41.68 93.096 93.096v837.808C605.096 982.32 563.416 1024 512 1024H93.096C41.68 1024 0 982.32 0 930.904V93.096C0 41.68 41.68 0 93.096 0z" fill="#4C4F6E" p-id="10055"></path><path d="M93.096 0H512c51.416 0 93.096 41.68 93.096 93.096v837.808C605.096 982.32 563.416 1024 512 1024H93.096C41.68 1024 0 982.32 0 930.904V93.096C0 41.68 41.68 0 93.096 0z" fill="#7C7F95" p-id="10056"></path><path d="M643.808 0.352a46.584 46.584 0 0 0-43.936 61.936l0.08 0.216 0.008 0.024 0.032 0.088 0.008 0.032 0.04 0.12 0.032 0.096 0.16 0.456 0.032 0.112h0.008l0.224 0.68c1.704 5.24 2.952 10.608 3.704 16.056l0.016 0.12v0.008l0.016 0.12 0.08 0.488v0.112l0.008 0.016 0.008 0.112 0.008 0.016 0.072 0.592v0.016l0.016 0.104v0.016c0.032 0.2 0.056 0.4 0.072 0.608l0.008 0.112v0.024l0.016 0.112 0.056 0.48v0.008l0.008 0.112 0.008 0.024 0.008 0.112 0.048 0.48v0.016l0.016 0.096v0.048l0.008 0.08 0.008 0.04v0.128l0.04 0.32v0.112l0.016 0.048v0.144l0.016 0.08v0.064l0.016 0.064v0.032l0.016 0.184v0.128l0.016 0.056v0.136l0.016 0.08v0.128l0.016 0.056v0.144l0.008 0.056 0.008 0.08v0.064l0.008 0.072 0.008 0.064v0.08l0.008 0.056 0.008 0.072v0.064l0.008 0.12 0.008 0.08v0.064l0.008 0.08v0.064l0.008 0.064v0.08l0.008 0.064v0.064l0.008 0.088 0.008 0.048v0.128l0.008 0.072v0.064l0.008 0.08v0.064l0.008 0.064v0.08l0.008 0.056v0.08l0.008 0.064 0.008 0.128v0.136l0.008 0.064v0.072l0.008 0.072v0.128l0.008 0.096v0.048l0.008 0.12V89.472l0.016 0.064V89.976l0.016 0.112v0.336l0.016 0.08v0.528l0.016 0.08V91.936l0.016 0.088v839.96l-0.008 0.136v0.32l-0.008 0.136v0.32l-0.008 0.28v0.024l-0.008 0.104v0.184l-0.008 0.136v0.176l-0.008 0.112v0.024l-0.008 0.28v0.024l-0.008 0.128v0.016l-0.008 0.136-0.008 0.304v0.016l-0.008 0.128v0.008l-0.016 0.288v0.008l-0.008 0.144v0.016c0 0.136 0 0.288-0.016 0.424v0.008a93.28 93.28 0 0 1-4.368 23.728 46.544 46.544 0 0 0 88.56 28.696l0.008-0.064a186 186 0 0 0 9.016-57.296V93.096a185.712 185.712 0 0 0-10.448-61.584A46.56 46.56 0 0 0 643.808 0.352z" fill="#2C2F53" p-id="10057"></path><path d="M558.544 93.096v837.808A46.544 46.544 0 0 1 512 977.456H93.088a46.544 46.544 0 0 1-46.544-46.552V93.096a46.544 46.544 0 0 1 46.544-46.552H512a46.544 46.544 0 0 1 46.544 46.552z" fill="#4C4F6E" p-id="10058"></path><path d="M512 232.72H93.096a46.544 46.544 0 0 1-46.552-46.544V93.096a46.544 46.544 0 0 1 46.552-46.552H512a46.544 46.544 0 0 1 46.544 46.552v93.08A46.544 46.544 0 0 1 512 232.728z" fill="#2C2F53" p-id="10059"></path><path d="M93.096 232.72H512a46.544 46.544 0 0 1 46.544 46.56v93.088A46.544 46.544 0 0 1 512 418.904H93.096a46.544 46.544 0 0 1-46.552-46.536V279.272a46.544 46.544 0 0 1 46.552-46.544z" fill="#2C2F53" p-id="10060"></path><path d="M93.096 418.904H512a46.552 46.552 0 0 1 46.544 46.552v93.088A46.552 46.552 0 0 1 512 605.096H93.096a46.544 46.544 0 0 1-46.552-46.552V465.456a46.544 46.544 0 0 1 46.552-46.552z" fill="#2C2F53" p-id="10061"></path><path d="M162.904 465.456h279.28a23.28 23.28 0 0 1 0 46.544h-279.28a23.28 23.28 0 0 1 0-46.544zM162.904 279.28h279.28a23.28 23.28 0 0 1 0 46.544h-279.28a23.28 23.28 0 0 1 0-46.552zM162.904 93.096h279.28a23.272 23.272 0 1 1 0 46.536h-279.28a23.272 23.272 0 1 1 0-46.536z" fill="#4C4F6E" p-id="10062"></path><path d="M162.904 93.096h46.552a23.272 23.272 0 1 1 0 46.536h-46.552a23.272 23.272 0 1 1 0-46.536zM162.904 279.28h46.552a23.28 23.28 0 0 1 0 46.544h-46.552a23.28 23.28 0 0 1 0-46.552zM162.904 465.456h46.552a23.28 23.28 0 0 1 0 46.544h-46.552a23.28 23.28 0 0 1 0-46.544z" fill="#999AAC" p-id="10063"></path><path d="M93.096 605.096H512a46.544 46.544 0 0 1 46.544 46.536v93.096A46.552 46.552 0 0 1 512 791.272H93.096a46.544 46.544 0 0 1-46.552-46.544V651.632a46.544 46.544 0 0 1 46.552-46.536z" fill="#2C2F53" p-id="10064"></path><path d="M162.904 651.632h279.28a23.28 23.28 0 0 1 0 46.544h-279.28a23.272 23.272 0 1 1 0-46.544z" fill="#4C4F6E" p-id="10065"></path><path d="M93.096 791.28H512a46.544 46.544 0 0 1 46.544 46.544v93.08A46.544 46.544 0 0 1 512 977.456H93.096a46.544 46.544 0 0 1-46.552-46.552v-93.08a46.544 46.544 0 0 1 46.552-46.552z" fill="#2C2F53" p-id="10066"></path><path d="M162.904 837.824h279.28a23.272 23.272 0 1 1 0 46.536h-279.28a23.272 23.272 0 1 1 0-46.536z" fill="#4C4F6E" p-id="10067"></path><path d="M139.632 162.904a23.264 23.264 0 1 1-46.536 0 23.272 23.272 0 1 1 46.536 0z" fill="#E80035" p-id="10068"></path><path d="M232.72 162.904a23.272 23.272 0 1 1-46.536 0 23.272 23.272 0 0 1 46.544 0z" fill="#11CBE5" p-id="10069"></path><path d="M139.632 349.096a23.272 23.272 0 1 1-46.536 0 23.272 23.272 0 0 1 46.536 0z" fill="#E80035" p-id="10070"></path><path d="M232.72 349.096a23.28 23.28 0 1 1-46.544 0 23.28 23.28 0 0 1 46.552 0z" fill="#11CBE5" p-id="10071"></path><path d="M139.632 535.28a23.272 23.272 0 1 1-46.536 0 23.272 23.272 0 0 1 46.536 0z" fill="#E80035" p-id="10072"></path><path d="M232.72 535.28a23.28 23.28 0 1 1-46.544-0.008 23.28 23.28 0 0 1 46.552 0z" fill="#11CBE5" p-id="10073"></path><path d="M139.632 721.456a23.272 23.272 0 1 1-46.536 0 23.272 23.272 0 0 1 46.536 0z" fill="#E80035" p-id="10074"></path><path d="M232.72 721.456a23.28 23.28 0 1 1-46.544-0.008 23.28 23.28 0 0 1 46.552 0z" fill="#11CBE5" p-id="10075"></path><path d="M139.632 907.632a23.264 23.264 0 1 1-46.528 0.016 23.264 23.264 0 0 1 46.528-0.016z" fill="#E80035" p-id="10076"></path><path d="M232.72 907.632a23.272 23.272 0 1 1-46.536 0 23.272 23.272 0 0 1 46.544 0z" fill="#11CBE5" p-id="10077"></path><path d="M302.544 93.096a23.272 23.272 0 0 1 23.28 23.264v46.544a23.272 23.272 0 1 1-46.552 0v-46.544a23.272 23.272 0 0 1 23.28-23.264zM395.632 93.096a23.264 23.264 0 0 1 23.28 23.264v46.544a23.264 23.264 0 1 1-46.544 0v-46.544a23.264 23.264 0 0 1 23.264-23.264zM488.72 93.096A23.272 23.272 0 0 1 512 116.36v46.544a23.272 23.272 0 1 1-46.544 0v-46.544a23.272 23.272 0 0 1 23.272-23.264zM302.544 279.28a23.28 23.28 0 0 1 23.28 23.264v46.552a23.28 23.28 0 0 1-46.552 0v-46.552a23.28 23.28 0 0 1 23.28-23.272zM395.632 279.28a23.272 23.272 0 0 1 23.28 23.264v46.552a23.272 23.272 0 1 1-46.544 0v-46.552a23.272 23.272 0 0 1 23.264-23.272zM395.632 465.456a23.272 23.272 0 0 1 23.28 23.272v46.544a23.272 23.272 0 1 1-46.544 0v-46.544a23.272 23.272 0 0 1 23.264-23.28zM395.632 651.632a23.272 23.272 0 0 1 23.28 23.28v46.544a23.272 23.272 0 1 1-46.544 0v-46.552a23.272 23.272 0 0 1 23.264-23.272zM395.632 837.824a23.264 23.264 0 0 1 23.28 23.272v46.536a23.264 23.264 0 1 1-46.544 0v-46.536a23.264 23.264 0 0 1 23.264-23.28zM488.72 279.28A23.28 23.28 0 0 1 512 302.536v46.552a23.28 23.28 0 0 1-46.544 0v-46.552a23.28 23.28 0 0 1 23.272-23.272zM302.544 465.456a23.28 23.28 0 0 1 23.28 23.272v46.544a23.28 23.28 0 0 1-46.552 0v-46.544a23.28 23.28 0 0 1 23.28-23.28zM488.72 465.456A23.28 23.28 0 0 1 512 488.72v46.544a23.28 23.28 0 0 1-46.544 0v-46.544a23.28 23.28 0 0 1 23.272-23.28zM302.544 651.632a23.28 23.28 0 0 1 23.28 23.28v46.544a23.28 23.28 0 0 1-46.552 0v-46.552a23.28 23.28 0 0 1 23.28-23.272zM488.72 651.632a23.28 23.28 0 0 1 23.28 23.28v46.544a23.28 23.28 0 0 1-46.544 0v-46.552a23.28 23.28 0 0 1 23.272-23.272zM302.544 837.824a23.272 23.272 0 0 1 23.28 23.272v46.536a23.272 23.272 0 1 1-46.552 0v-46.536a23.272 23.272 0 0 1 23.28-23.28zM488.72 837.824a23.272 23.272 0 0 1 23.28 23.272v46.536a23.272 23.272 0 1 1-46.544 0v-46.536a23.272 23.272 0 0 1 23.272-23.28z" fill="#1E2147" p-id="10078"></path><path d="M93.096 46.544h2.56a23.28 23.28 0 0 1 0 46.552h-2.56v93.088a24.264 24.264 0 0 1 22.688 24.592 22.304 22.304 0 0 1-21.304 21.952h-1.392l-1.112-0.016h-0.064c-0.016 0-4.32-0.296-5.04-0.4-23.872-3.68-40.32-22.88-40.32-46.136V93.096a46.544 46.544 0 0 1 46.536-46.552z" fill="#080B36" p-id="10079"></path><path d="M93.096 232.72h2.56a23.28 23.28 0 0 1 0 46.56h-2.56v93.088a24.264 24.264 0 0 1 22.688 24.592 22.304 22.304 0 0 1-21.304 21.944h-2.568c-0.016 0-4.32-0.312-5.04-0.4-23.872-3.696-40.32-22.88-40.32-46.136V279.272a46.544 46.544 0 0 1 46.536-46.544zM93.096 418.904h2.56a23.28 23.28 0 0 1 0 46.552h-2.56v93.088a24.264 24.264 0 0 1 22.688 24.6 22.304 22.304 0 0 1-21.304 21.944h-1.392l-1.112-0.008h-0.064c-0.016 0-4.32-0.304-5.04-0.4-23.872-3.688-40.32-22.88-40.32-46.136V465.456a46.544 46.544 0 0 1 46.536-46.552z" fill="#080B36" p-id="10080"></path><path d="M93.096 605.096h2.56a23.272 23.272 0 1 1 0 46.536h-2.56v93.104a24.248 24.248 0 0 1 22.688 24.584 22.312 22.312 0 0 1-21.304 21.952h-1.392c-0.368 0-0.736 0-1.112-0.016h-0.064c-0.016 0-4.32-0.304-5.04-0.4-23.872-3.68-40.32-22.872-40.32-46.128V651.632a46.536 46.536 0 0 1 46.536-46.536z" fill="#080B36" p-id="10081"></path><path d="M93.096 791.28h2.56a23.272 23.272 0 1 1 0 46.544h-2.56v93.088a24.248 24.248 0 0 1 22.688 24.584 22.304 22.304 0 0 1-21.304 21.96h-1.392l-1.112-0.016h-0.064c-0.016 0-4.32-0.296-5.04-0.4-23.872-3.688-40.32-22.88-40.32-46.136v-93.08a46.544 46.544 0 0 1 46.536-46.552zM116.368 186.176H488.72a23.28 23.28 0 0 1 0 46.552H116.368a23.272 23.272 0 1 1 0-46.552zM116.368 372.368H488.72a23.272 23.272 0 1 1 0 46.536H116.368a23.264 23.264 0 1 1 0-46.536z" fill="#080B36" p-id="10082"></path><path d="M116.368 558.544H488.72a23.272 23.272 0 1 1 0 46.544H116.368a23.264 23.264 0 1 1 0-46.544z" fill="#1E2147" p-id="10083"></path><path d="M116.368 744.72H488.72a23.28 23.28 0 0 1 0 46.56H116.368a23.272 23.272 0 1 1 0-46.56zM116.368 930.904H488.72a23.28 23.28 0 0 1 0 46.552H116.368a23.272 23.272 0 1 1 0-46.552z" fill="#080B36" p-id="10084"></path><path d="M744.72 46.544h186.184a46.544 46.544 0 1 1 0 93.096H744.728a46.552 46.552 0 0 1 0-93.096z" fill="#999AAC" p-id="10085"></path><path d="M744.72 488.72A23.28 23.28 0 0 1 768 465.464h139.632a23.272 23.272 0 1 1 0 46.544H768a23.28 23.28 0 0 1-23.28-23.28z" fill="#1E2147" p-id="10086"></path><path d="M744.72 442.176A23.28 23.28 0 0 1 768 418.904h139.632a23.272 23.272 0 1 1 0 46.552H768a23.28 23.28 0 0 1-23.28-23.28zM744.72 302.544A23.28 23.28 0 0 1 768 279.28h139.632a23.272 23.272 0 1 1 0 46.552H768a23.28 23.28 0 0 1-23.28-23.28z" fill="#7C7F95" p-id="10087"></path><path d="M744.72 349.096a23.272 23.272 0 0 1 23.28-23.28h139.632a23.264 23.264 0 1 1 0 46.552H768a23.28 23.28 0 0 1-23.28-23.28z" fill="#1E2147" p-id="10088"></path><path d="M744.72 395.632A23.272 23.272 0 0 1 768 372.368h139.632a23.264 23.264 0 1 1 0 46.536H768a23.272 23.272 0 0 1-23.28-23.272z" fill="#4C4F6E" p-id="10089"></path><path d="M744.72 768A23.28 23.28 0 0 1 768 744.72h139.632a23.272 23.272 0 1 1 0 46.56H768A23.28 23.28 0 0 1 744.72 768z" fill="#1E2147" p-id="10090"></path><path d="M744.72 721.456a23.28 23.28 0 0 1 23.28-23.28h139.632a23.272 23.272 0 1 1 0 46.552H768a23.28 23.28 0 0 1-23.28-23.28zM744.72 581.824a23.28 23.28 0 0 1 23.28-23.28h139.632a23.272 23.272 0 1 1 0 46.552H768a23.28 23.28 0 0 1-23.28-23.28z" fill="#7C7F95" p-id="10091"></path><path d="M744.72 628.36A23.272 23.272 0 0 1 768 605.096h139.632a23.264 23.264 0 1 1 0 46.536H768a23.272 23.272 0 0 1-23.28-23.28z" fill="#1E2147" p-id="10092"></path><path d="M162.904 651.632h46.552a23.28 23.28 0 0 1 0 46.544h-46.552a23.272 23.272 0 1 1 0-46.544zM162.904 837.824h46.552a23.272 23.272 0 1 1 0 46.536h-46.552a23.272 23.272 0 1 1 0-46.536z" fill="#999AAC" p-id="10093"></path></svg>
