<?xml version="1.0" encoding="UTF-8"?>
<!-- Generated by Pixelmator Pro 3.5.3 -->
<svg width="656" height="213" viewBox="0 0 656 213" xmlns="http://www.w3.org/2000/svg">
    <g id="1498858857184">
        <path id="path1" fill="#1f83c6" stroke="none" d="M 206.161194 73.282776 L 206.161194 13.903015 L 177.24025 13.903015 C 167.885544 13.903015 166.996216 1.513306 176.390244 1.513306 C 186.339096 1.513306 196.287201 1.513306 206.23642 1.513306 L 219.52182 1.513306 L 248.689941 1.513306 C 258.02652 1.513306 258.947601 13.903015 249.539612 13.903015 L 219.59668 13.903015 C 219.59668 33.87323 219.59668 53.843506 219.59668 73.813782 C 219.59668 83.514709 206.161194 83.721802 206.161194 73.282776 Z"/>
        <path id="path2" fill="#1f83c6" stroke="none" d="M 342.092285 14.050049 L 312.149353 14.050049 C 312.149353 34.020264 312.149353 53.99054 312.149353 73.961182 C 312.149353 83.662109 298.714294 83.868835 298.714294 73.42981 L 298.714294 14.050049 L 269.792542 14.050049 C 260.438232 14.050049 259.54892 1.660706 268.942932 1.660706 C 278.891388 1.660706 288.840271 1.660706 298.788361 1.660706 L 312.074493 1.660706 L 341.242279 1.660706 C 350.578857 1.660706 351.500305 14.050049 342.092285 14.050049 Z"/>
        <path id="path3" fill="#1f83c6" stroke="none" d="M 184.709351 128.758301 C 189.897125 131.16394 185.809204 139.987305 180.616867 137.577454 C 180.313019 137.436829 167.637985 131.557068 167.623627 131.550232 C 162.461166 129.155151 166.419464 120.275513 171.713074 122.730713 L 184.709351 128.758301 Z"/>
        <path id="path4" fill="#1f83c6" stroke="none" d="M 483.629944 159.679382 L 419.435791 159.679382 C 414.094543 159.679382 408.754456 159.679382 403.413605 159.679382 C 397.250336 159.679382 397.251068 149.575562 403.413605 149.575562 C 430.151855 149.575562 456.89093 149.575562 483.629944 149.575562 C 489.795105 149.575562 489.795837 159.679382 483.629944 159.679382 Z"/>
        <path id="path5" fill="#1f83c6" stroke="none" d="M 184.709351 152.344849 C 189.897125 154.750488 185.809204 163.574158 180.616867 161.164307 C 180.313019 161.023376 167.638367 155.143921 167.623627 155.13678 C 162.463058 152.742432 166.476532 143.888489 171.71344 146.3172 L 184.709351 152.344849 Z"/>
        <path id="path6" fill="#1f83c6" stroke="none" d="M 232.484467 141.760254 C 235.070404 143.263 252.280121 153.11322 253.271484 153.855469 C 258.483459 157.759705 252.410889 164.401123 247.01297 161.051331 L 224.485107 147.071594 L 202.974304 161.35144 C 200.109406 163.253662 195.917542 161.861633 195.368378 158.228394 C 195.108368 156.512146 195.862366 154.715332 197.334503 153.75946 C 198.630096 152.918518 215.596802 141.90271 215.869659 141.725098 C 211.362213 138.92749 206.754211 136.295837 202.179077 133.61084 L 218.459015 133.61084 L 223.688385 136.64917 L 233.15799 130.498352 L 201.298859 130.498352 C 196.218018 130.498352 196.219147 121.891296 201.298859 121.891296 C 216.616516 121.891296 231.934937 121.891296 247.252594 121.891296 C 253.714844 121.891296 254.188019 127.35083 249.117035 130.71759 L 232.484467 141.760254 Z"/>
        <path id="path7" fill="#1f83c6" stroke="none" d="M 411.272736 123.448425 C 432.522766 123.448425 453.7724 123.448425 475.022766 123.448425 C 481.187561 123.448425 481.189087 133.549988 475.022766 133.549988 C 453.7724 133.549988 432.522766 133.549988 411.272736 133.549988 C 405.122345 133.549988 405.123077 123.448425 411.272736 123.448425 Z"/>
        <path id="path8" fill="#1f83c6" stroke="none" d="M 461.640625 177.334717 L 478.430054 191.932373 L 463.762451 191.932373 L 455.825073 185.138672 C 450.200378 181.121033 457.256775 173.522278 461.640625 177.334717 Z"/>
        <path id="path9" fill="#1f83c6" stroke="none" d="M 449.069153 163.222656 C 439.176636 173.752808 429.21228 184.237244 419.384369 194.820679 C 438.697388 194.820679 458.410278 194.8974 477.722534 194.918152 C 485.703369 194.926453 484.953491 204.111145 478.129578 204.107727 C 465.916016 204.101685 439.672119 204.08844 409.900787 204.073364 C 403.210297 203.859436 401.09375 198.47699 405.71344 193.805847 L 435.9599 163.222656 L 449.069153 163.222656 Z"/>
        <path id="path10" fill="#1f83c6" stroke="none" d="M 164.988922 196.479858 C 171.102676 188.521667 177.205856 180.556763 183.325684 172.60498 C 186.652786 168.277039 193.986938 173.911194 190.662476 178.238342 C 184.552124 186.194641 178.407364 194.155823 172.326111 202.117798 C 169.031494 206.417725 161.593765 200.888306 164.988922 196.479858 Z"/>
        <path id="path11" fill="#1f83c6" stroke="none" d="M 229.605988 176.338379 C 229.605988 179.406616 229.605988 182.474854 229.605988 185.543091 C 236.538391 185.543091 243.470428 185.543091 250.402832 185.543091 C 255.477997 185.543091 255.477997 194.149414 250.402832 194.149414 C 243.470428 194.149414 236.538391 194.149414 229.605988 194.149414 C 229.605988 198.471313 229.605988 202.793579 229.605988 207.115479 C 229.605988 212.520935 220.441772 212.522095 220.441772 207.115479 C 220.441772 202.793579 220.441772 198.471313 220.441772 194.149414 C 213.509735 194.149414 206.577332 194.149414 199.644897 194.149414 C 194.566742 194.149414 194.566742 185.543091 199.644897 185.543091 C 206.577332 185.543091 213.509735 185.543091 220.441772 185.543091 C 220.441772 182.474854 220.441772 179.406616 220.441772 176.338379 C 213.509735 176.338379 206.577332 176.338379 199.644897 176.338379 C 194.566345 176.338379 194.567871 167.731262 199.644897 167.731262 C 206.577332 167.731262 213.509735 167.731262 220.441772 167.731262 C 220.441772 164.406799 220.441772 161.082336 220.441772 157.757874 C 220.441772 152.351257 229.605988 152.352417 229.605988 157.757874 C 229.605988 161.082336 229.605988 164.406799 229.605988 167.731262 C 236.538391 167.731262 243.470428 167.731262 250.402832 167.731262 C 255.477997 167.731262 255.478363 176.338379 250.402832 176.338379 C 243.470428 176.338379 236.538391 176.338379 229.605988 176.338379 Z"/>
        <path id="path12" fill="#1f83c6" stroke="none" d="M 305.802002 179.581604 C 310.706726 178.282593 312.913574 186.600159 308.010406 187.902222 C 307.647552 187.99823 286.899445 193.502014 286.879059 193.507263 C 281.987946 194.811218 279.776917 186.487549 284.669159 185.19043 L 305.802002 179.581604 Z"/>
        <path id="path13" fill="#1f83c6" stroke="none" d="M 300.643738 151.480042 L 300.643738 177.978699 L 292.035065 180.363586 L 292.035065 151.480042 C 289.827087 151.480042 287.61908 151.480042 285.411469 151.480042 C 280.333313 151.480042 280.332886 142.872192 285.411469 142.872192 C 287.61908 142.872192 289.827087 142.872192 292.035065 142.872192 C 292.035065 136.481018 292.035065 130.089844 292.035065 123.699036 C 292.035065 118.033936 300.643738 118.03009 300.643738 123.699036 C 300.643738 130.089844 300.643738 136.481018 300.643738 142.872192 C 302.853607 142.872192 305.062744 142.872192 307.272247 142.872192 C 312.347015 142.872192 312.347015 151.480042 307.272247 151.480042 C 305.062744 151.480042 302.853607 151.480042 300.643738 151.480042 Z"/>
        <path id="path14" fill="#1f83c6" stroke="none" d="M 358.967468 136.422058 C 358.967468 137.868835 358.967468 139.315613 358.967468 140.762451 C 358.967468 146.483887 349.244659 146.483887 349.244659 140.762451 C 349.244659 139.315613 349.244659 137.868835 349.244659 136.422058 C 343.399994 136.422058 337.555359 136.422058 331.710663 136.422058 C 331.710663 137.868835 331.710663 139.315613 331.710663 140.762451 C 331.710663 146.483887 321.987823 146.483887 321.987823 140.762451 C 321.987823 139.315613 321.987823 137.868835 321.987823 136.422058 C 319.299103 136.422058 316.609558 136.422058 313.92041 136.422058 C 308.84494 136.422058 308.84494 127.814514 313.92041 127.814514 C 316.609558 127.814514 319.299103 127.814514 321.987823 127.814514 C 321.987823 126.133789 321.987823 124.453064 321.987823 122.772278 C 321.987823 117.050842 331.710663 117.050842 331.710663 122.772278 C 331.710663 124.453064 331.710663 126.133789 331.710663 127.814514 C 337.555359 127.814514 343.399994 127.814514 349.244659 127.814514 C 349.244659 126.133789 349.244659 124.453064 349.244659 122.772278 C 349.244659 117.050842 358.967468 117.050842 358.967468 122.772278 C 358.967468 124.453064 358.967468 126.133789 358.967468 127.814514 C 361.473328 127.814514 363.979889 127.814514 366.485718 127.814514 C 371.562744 127.814514 371.562744 136.422058 366.485718 136.422058 C 363.979889 136.422058 361.473328 136.422058 358.967468 136.422058 Z"/>
        <path id="path15" fill="#1f83c6" stroke="none" d="M 340.532837 155.052856 C 337.3573 157.265015 314.028168 173.333679 313.045868 174.175781 C 312.258209 174.751709 311.308411 175.062012 310.332886 175.062012 C 305.902191 175.062012 304.033966 169.370056 307.626404 166.758789 C 317.247559 159.781799 326.902374 152.811584 336.499329 145.820984 C 338.415192 144.430908 340.920654 144.042358 342.947968 145.456238 C 343.104828 145.565491 367.860748 162.788452 372.809631 166.231567 C 376.571777 169.005737 374.239075 175.062012 369.696808 175.062012 C 368.483215 175.062012 367.31308 174.618347 366.40332 173.814026 L 340.532837 155.052856 Z"/>
        <path id="path16" fill="#1f83c6" stroke="none" d="M 341.268738 163.910522 L 355.952942 174.405945 L 324.522003 174.329224 L 340.184753 163.136108 Z"/>
        <path id="path17" fill="#1f83c6" stroke="none" d="M 327.498779 186.497742 C 326.3974 186.737732 325.57196 187.719666 325.57196 188.892456 C 325.57196 190.966675 325.51944 192.336792 325.595398 193.856873 C 325.747711 196.878235 326.348633 197.256592 329.866272 197.191589 L 350.968506 197.191589 C 354.518219 197.191589 354.746521 196.446655 354.937378 194.432861 C 355.085175 192.873474 354.836456 191.019958 354.836456 188.892456 C 354.836456 187.763184 354.071899 186.812256 353.032532 186.528015 C 352.826141 186.47168 352.608826 186.441467 352.384308 186.441467 C 344.264008 186.441467 336.143311 186.441467 328.022217 186.441467 C 327.842712 186.441467 327.667358 186.460754 327.498779 186.497742 Z M 316.861664 196.510864 C 316.861664 193.572693 316.861664 190.634094 316.861664 187.695496 C 316.861664 182.886414 320.760254 178.98407 325.569702 178.98407 C 335.325439 178.98407 345.08075 178.98407 354.836456 178.98407 C 359.646698 178.98407 363.546753 182.886047 363.546753 187.695496 C 363.546753 190.634094 363.546753 193.572693 363.546753 196.510864 C 363.546753 201.320679 359.645905 205.220398 354.836456 205.220398 C 345.081512 205.220398 335.327301 205.220398 325.57196 205.220398 C 320.761383 205.220398 316.861664 201.321838 316.861664 196.510864 Z"/>
        <path id="path18" fill="#1f83c6" stroke="none" d="M 80.371719 1.458923 C 82.815186 1.458923 85.182297 2.702393 86.369827 4.873718 C 86.842636 5.738098 87.091339 6.695435 87.091339 7.680786 C 87.091339 9.336548 86.353195 10.940613 85.171722 12.03363 C 80.938263 15.950378 26.873634 65.967102 23.761948 68.845581 C 42.631996 68.845581 61.501663 68.845581 80.371719 68.845581 C 89.19162 68.845581 89.193878 81.289307 80.371719 81.289307 C 56.091278 81.289307 31.811211 81.289307 7.530769 81.289307 C 5.091087 81.289307 2.727371 80.051147 1.537193 77.884705 C 1.061737 77.018494 0.81115 76.057739 0.81115 75.068604 C 0.81115 73.374268 1.547028 71.810303 2.78331 70.667725 C 2.803719 70.636353 69.611023 8.580627 75.520691 3.338806 C 76.842773 2.165283 78.553772 1.458923 80.371719 1.458923 Z"/>
        <path id="path19" fill="#a2c32a" stroke="none" d="M 11.82621 1.476685 L 67.129761 1.476685 L 67.203842 1.476685 L 53.912376 13.91925 C 40.081573 13.91925 26.250771 13.91925 12.419968 13.91925 C 1.418144 13.91925 2.323341 1.476685 11.82621 1.476685 Z"/>
        <path id="path20" fill="none" stroke="#e62129" stroke-width="0.755906" stroke-linejoin="bevel" d="M 179.898392 81.282532 L 179.898392 81.289673 L 179.823563 81.289673"/>
        <path id="path21" fill="#1f83c6" stroke="none" d="M 179.823563 68.845947 L 179.898392 68.853943 C 188.461288 69.085205 188.460907 81.047424 179.898392 81.282532 L 179.823563 81.289673 C 160.821991 81.289673 141.820404 81.289673 122.818085 81.289673 C 122.296875 81.32373 121.775314 81.3479 121.253357 81.3479 C 117.360809 81.3479 113.528015 80.363342 110.150604 78.41803 C 106.984131 76.59436 104.310486 73.9729 102.523895 70.777344 C 100.634521 67.398071 100.140915 63.799133 100.140915 60.106567 C 100.140915 47.078552 100.140915 34.050537 100.140915 21.022522 C 100.140915 17.940308 100.989426 14.835022 102.533737 12.076721 C 104.233017 9.040222 106.735062 6.519714 109.701996 4.712341 C 113.37796 2.472168 117.447372 1.514099 121.638489 1.514099 C 128.839615 1.514099 136.040375 1.514099 143.240753 1.514099 C 145.66835 1.514099 148.073654 2.740173 149.272507 4.920959 C 149.749481 5.787231 149.999695 6.747986 149.999695 7.737061 C 149.999695 10.561157 147.36763 13.839111 144.375748 13.839111 C 138.492538 13.839111 132.609329 13.839111 126.726105 13.839111 C 124.303421 13.839111 121.91893 14.44989 119.816376 15.657837 C 117.846481 16.789795 116.181976 18.416504 115.064758 20.399658 C 114.15654 22.012329 113.644409 23.800049 113.578262 25.649414 C 113.578262 28.865356 113.578262 32.080627 113.578262 35.296631 C 135.637482 35.296631 157.696701 35.296631 179.755905 35.296631 C 188.57695 35.296631 188.577713 47.73999 179.755905 47.73999 C 157.696701 47.73999 135.637482 47.73999 113.578262 47.73999 C 113.578262 50.585938 113.578262 53.431946 113.578262 56.277527 C 113.578262 56.552307 113.578262 56.826294 113.578262 57.099976 C 113.644409 58.950073 114.156158 60.737 115.064377 62.348999 C 118.152252 67.830017 123.452667 68.845947 129.109116 68.845947 C 133.006927 68.845947 136.904755 68.845947 140.803329 68.845947 C 141.345337 68.845947 141.88768 68.845947 142.430801 68.845947 C 154.894943 68.845947 167.359055 68.845947 179.823563 68.845947 Z"/>
        <path id="path22" fill="none" stroke="#e62129" stroke-width="0.755906" stroke-linejoin="bevel" d="M 179.823563 68.845947 L 179.898392 68.845947 L 179.898392 68.853943"/>
        <path id="path23" fill="none" stroke="#e62129" stroke-width="0.755906" stroke-linejoin="bevel" d="M 412.308716 78.804321 L 412.320068 78.822388 L 412.320068 78.843628"/>
        <path id="path24" fill="none" stroke="#e62129" stroke-width="0.755906" stroke-linejoin="bevel" d="M 412.320068 78.843628 C 412.320068 78.901062 412.320068 78.958496 412.320068 79.01593"/>
        <path id="path25" fill="none" stroke="#e62129" stroke-width="0.755906" stroke-linejoin="bevel" d="M 412.320068 79.01593 L 412.320068 79.090393 L 412.245605 79.090393"/>
        <path id="path26" fill="#a2c32a" stroke="none" d="M 364.833313 79.090393 L 364.770569 78.717712 C 364.777771 78.706421 388.393402 40.86499 388.400543 40.853638 L 388.624695 40.853638 C 388.631866 40.865356 412.301147 78.792969 412.308716 78.804321 L 412.245605 79.090393 C 396.441498 79.090393 380.637787 79.090393 364.833313 79.090393 Z"/>
        <path id="path27" fill="none" stroke="#e62129" stroke-width="0.755906" stroke-linejoin="bevel" d="M 364.833313 79.090393 L 364.759247 79.090393 L 364.759247 79.01593"/>
        <path id="path28" fill="none" stroke="#e62129" stroke-width="0.755906" stroke-linejoin="bevel" d="M 364.759247 79.01593 C 364.759247 78.929749 364.759247 78.843628 364.759247 78.757446"/>
        <path id="path29" fill="none" stroke="#e62129" stroke-width="0.755906" stroke-linejoin="bevel" d="M 364.759247 78.757446 L 364.759247 78.73584 L 364.770569 78.717712"/>
        <path id="path30" fill="none" stroke="#e62129" stroke-width="0.755906" stroke-linejoin="bevel" d="M 388.400543 40.853638 L 388.422119 40.818909 L 388.463287 40.818909"/>
        <path id="path31" fill="none" stroke="#e62129" stroke-width="0.755906" stroke-linejoin="bevel" d="M 388.463287 40.818909 C 388.496552 40.818909 388.529083 40.818909 388.561188 40.818909"/>
        <path id="path32" fill="none" stroke="#e62129" stroke-width="0.755906" stroke-linejoin="bevel" d="M 388.561188 40.818909 L 388.602417 40.818909 L 388.624695 40.853638"/>
        <path id="path33" fill="#1f83c6" stroke="none" d="M 426.408234 78.121704 L 426.346649 78.026489 C 426.335297 78.008728 390.023499 19.821716 388.301147 17.061951 C 386.686554 19.648987 354.670563 70.948914 350.665771 77.365784 C 349.225372 79.67395 347.283478 81.289673 344.343384 81.289673 C 341.902191 81.289673 339.538452 80.050415 338.348633 77.882874 C 336.977051 75.382324 337.795349 73.117615 339.143127 70.957947 C 343.874695 63.377014 379.111633 6.917664 379.341064 6.549561 C 381.116669 3.307434 384.641083 1.449463 388.293579 1.449463 C 391.829742 1.449463 395.426331 3.292725 397.16452 6.396484 C 397.175873 6.415405 434.268921 65.852234 437.75705 71.441345 C 439.00351 73.438477 439.461243 75.678223 438.255188 77.878662 C 437.066498 80.047729 434.701294 81.289673 432.259338 81.289673 C 429.914124 81.289673 427.639984 80.14563 426.408234 78.121704 Z"/>
        <path id="path34" fill="none" stroke="#e62129" stroke-width="0.755906" stroke-linejoin="bevel" d="M 426.408234 78.121704 L 426.405212 78.121704 L 426.383301 78.08429"/>
        <path id="path35" fill="none" stroke="#e62129" stroke-width="0.755906" stroke-linejoin="bevel" d="M 426.383301 78.08429 C 426.381775 78.081299 426.38028 78.078247 426.378021 78.075195 C 426.369354 78.061951 426.361786 78.045349 426.353058 78.035156"/>
        <path id="path36" fill="none" stroke="#e62129" stroke-width="0.755906" stroke-linejoin="bevel" d="M 426.353058 78.035156 L 426.349304 78.031006 L 426.346649 78.026489"/>
        <path id="path37" fill="#1f83c6" stroke="none" d="M 524.137756 75.068604 C 524.137756 76.057312 523.887573 77.0177 523.412109 77.883972 C 522.22345 80.050049 519.861572 81.289673 517.421936 81.289673 C 515.87384 81.289673 514.577026 80.754883 513.292419 80.012573 C 508.326111 77.143555 466.97467 53.25354 464.542175 51.848328 C 464.542175 59.588379 464.542175 67.328491 464.542175 75.068604 C 464.542175 76.052795 464.293457 77.009033 463.822144 77.872253 C 462.63501 80.044739 460.266785 81.289673 457.82251 81.289673 C 455.378296 81.289673 453.010498 80.045471 451.822937 77.873413 C 451.351257 77.009766 451.102539 76.053162 451.102539 75.068604 C 451.102539 52.791321 451.102539 30.513611 451.102539 8.236328 C 451.102539 4.468933 453.773926 1.460022 457.82251 1.460022 C 461.836426 1.460022 464.542175 4.44812 464.542175 8.201233 C 464.542175 13.977417 464.542175 19.753723 464.542175 25.529968 C 466.586121 24.218811 495.303772 5.803467 499.786682 2.928406 C 501.123474 2.071167 502.481445 1.479309 504.15387 1.479309 C 506.593201 1.479309 508.956543 2.718628 510.146362 4.883545 C 510.622559 5.750549 510.872742 6.711304 510.872742 7.700806 C 510.872742 10.267822 509.315186 11.953491 507.346436 13.216248 C 502.865845 16.08905 469.492981 37.48877 467.39801 38.832031 C 469.87738 40.264038 515.057068 66.367371 520.380554 69.443115 C 522.471741 70.651489 524.137756 72.426697 524.137756 75.068604 Z"/>
        <path id="path38" fill="#1f83c6" stroke="none" d="M 550.627319 8.075684 C 550.627319 30.302002 550.627319 52.528625 550.627319 74.754883 C 550.627319 78.410034 547.68573 81.258728 543.909241 81.258728 C 540.160339 81.258728 537.188049 78.428955 537.188049 74.783203 C 537.188049 52.54718 537.188049 30.311462 537.188049 8.075684 C 537.188049 4.39032 540.035217 1.479309 543.909241 1.479309 C 547.782104 1.479309 550.627319 4.393677 550.627319 8.075684 Z"/>
        <path id="path39" fill="#9fc22b" stroke="none" d="M 646.878296 13.883362 L 616.935364 13.883362 C 616.935364 33.854004 616.935364 53.82428 616.935364 73.794556 C 616.935364 83.495422 603.500305 83.702576 603.500305 73.263123 L 603.500305 13.883362 L 574.578552 13.883362 C 565.223877 13.883362 564.334595 1.494019 573.728943 1.494019 C 583.677795 1.494019 593.626282 1.494019 603.574341 1.494019 L 616.860535 1.494019 L 646.028687 1.494019 C 655.365234 1.494019 656.286682 13.883362 646.878296 13.883362 Z"/>
    </g>
</svg>
