<svg xmlns="http://www.w3.org/2000/svg" viewBox="0 0 1024 1024" version="1.1"><path d="M234.062769 658.904615a40.172308 40.172308 0 0 1-31.350154-39.187692v-215.512615c1.339077-19.574154 13.587692-34.894769 31.31077-39.187693l194.756923-43.323077 20.440615-85.267692h-226.067692C142.769231 236.425846 78.769231 302.198154 78.769231 383.330462v254.582153c0 81.053538 65.378462 148.243692 144.344615 148.243693h226.067692l-20.40123-85.307077-194.756923-41.944616h0.039384zM800.571077 236.425846h-227.446154l20.440615 85.307077 194.756924 43.401846c17.723077 4.174769 31.310769 19.613538 31.310769 39.227077v215.355077c-1.378462 19.613538-13.627077 34.894769-31.310769 39.187692l-194.756924 43.362462-20.440615 85.307077h227.446154c79.005538 0 144.423385-65.772308 144.423385-148.243692v-256c-1.378462-81.211077-65.378462-146.904615-144.344616-146.904616h-0.078769z m-371.830154 264.349539h166.203077v21.031384h-166.163692v-21.031384h-0.039385z" p-id="2580"></path></svg>