<svg xmlns="http://www.w3.org/2000/svg" viewBox="0 0 1024 1024" version="1.1"><path d="M176.206769 866.461538H512c7.443692 0 11.224615-3.702154 14.966154-7.443692l111.852308-149.228308c3.741538-7.443692 3.741538-14.926769 0-18.668307-3.702154-3.702154-7.404308-11.185231-14.887385-11.185231H344.064V362.732308a20.48 20.48 0 0 0-11.185231-18.668308c-7.483077 0-14.966154 0-22.370461 3.741538l-149.267693 149.228308c0 3.702154-3.702154 11.224615-3.702153 14.966154v335.753846c0 11.224615 7.443692 18.668308 18.668307 18.668308zM347.844923 340.361846c3.702154 0 11.185231 3.702154 14.926769 3.702154h317.164308v317.164308c0 7.483077 3.702154 11.224615 7.443692 14.966154l149.228308 111.891692c3.702154 3.702154 7.443692 3.702154 11.185231 3.702154 3.741538 0 5.080615-0.866462 7.719384-2.875077 7.640615-6.852923 10.948923-12.051692 10.948923-15.753846V176.206769c0-11.224615-7.443692-18.668308-18.668307-18.668307H213.504a20.48 20.48 0 0 0-18.668308 11.224615c-3.702154 7.443692 0 14.926769 3.741539 18.628923l149.267692 152.969846z" p-id="1620"></path></svg>