<?xml version="1.0" standalone="no"?><!DOCTYPE svg PUBLIC "-//W3C//DTD SVG 1.1//EN" "http://www.w3.org/Graphics/SVG/1.1/DTD/svg11.dtd"><svg t="1605691191712" class="icon" viewBox="0 0 1597 1024" version="1.1" xmlns="http://www.w3.org/2000/svg" p-id="817" xmlns:xlink="http://www.w3.org/1999/xlink" width="311.9140625" height="200"><defs><style type="text/css"></style></defs><path d="M1597.034985 713.842627c0-145.92-88.392597-268.288-207.428776-301.285254C1384.562627 183.754507 1220.470448 0 1018.620179 0c-118.233791 0-223.44597 63.090627-291.427343 161.28-38.132537-56.151881-97.769075-92.389254-164.848717-92.389254-115.146507 0-208.429851 106.442507-208.42985 237.73612 0 11.439761 0.748896 22.696119 2.139701 33.685015a268.318567 268.318567 0 0 0-53.897552-5.578508C135.259701 334.733373 0 489.021134 0 679.370507 0 869.712239 135.259701 1024 302.156418 1024h1023.564418c149.93194-0.343881 271.413493-139.034746 271.413492-310.103881l-0.099343-0.053492z" fill="#FF6600" p-id="818"></path><path d="M615.72203 714.431045c-14.282507-3.186627-23.804179-14.336-23.804179-30.269135V523.241075c1.589493-14.336 11.111164-25.493015 23.804179-28.679642l149.152477-31.866269 15.864359-63.732537H607.789851C545.906627 397.373134 496.716418 446.76203 496.716418 507.30794v191.197612C496.716418 759.036179 547.488478 810.029851 607.789851 810.029851h172.949015l-15.864359-63.732538-149.152477-31.866268zM1050.478806 397.373134h-174.538507l15.872 63.732538 149.152477 31.866268c14.274866 3.186627 23.796537 14.336 23.796537 28.679642V682.564776c-1.589493 14.343642-11.103522 25.493015-23.796537 28.679642l-149.152477 31.866269-15.872 63.732537h174.538507c60.293731 0 111.073433-49.388896 111.073433-111.53194V504.128955C1159.962746 446.76203 1110.780179 397.373134 1050.478806 397.373134z" fill="#FFFFFF" p-id="819"></path><path d="M771.820896 583.832836h114.626865v16.81194h-114.626865z" fill="#FFFFFF" p-id="820"></path></svg>