<svg xmlns="http://www.w3.org/2000/svg" viewBox="0 0 1024 1024" version="1.1"><path d="M503.453538 382.464l-0.039384 0.236308a70726.774154 70726.774154 0 0 1-21.819077 90.742154c-3.662769 14.966154-10.948923 20.676923-26.387692 20.91323h-26.308923c-13.863385-0.236308-20.795077-5.198769-24.733539-18.274461-8.940308-28.750769-19.574154-63.330462-32.295385-104.96l-1.575384-5.198769-20.48-67.387077-18.195692-60.140308c-4.608-15.241846-5.238154-22.606769 0.039384-28.16 4.529231-4.726154 7.483077-5.001846 23.906462-4.529231 2.914462 0.078769 5.828923 0.078769 9.767384 0.078769l3.308308-0.039384 6.892308-0.039385c12.563692 0.236308 19.928615 5.907692 23.315692 18.116923l0.787692 2.835693 0.393846 1.536c2.993231 10.909538 5.986462 22.409846 12.681847 48.797538l30.916923 122.013538 18.313846-77.784615 21.188923-89.796923c4.883692-20.755692 13.863385-25.915077 37.888-25.915077h13.902769c15.990154 0.236308 22.449231 5.159385 26.308923 20.48 3.938462 15.36 7.089231 28.829538 22.606769 95.232l0.315077 1.299692c8.507077 36.509538 14.572308 62.109538 18.747077 78.887385l1.732923-6.616615 43.08677-166.281847c4.608-17.880615 11.106462-23.000615 29.262769-23.000615h23.236923c14.454154 0.275692 20.637538 7.719385 17.171692 21.819077l-0.630154 2.441846-0.275692 1.063385c-1.969231 7.483077-4.017231 14.336-14.296615 46.985846l-8.979693 28.632615a89542.144 89542.144 0 0 0-51.003077 162.89477c-6.616615 21.070769-11.421538 24.654769-33.398153 24.654769h-19.259077c-16.659692 0-22.882462-4.686769-26.899693-20.598154-3.150769-11.933538-9.176615-36.233846-23.630769-95.704615l-0.078769-0.196924c-8.113231-33.28-13.508923-55.532308-17.250462-70.57723-7.443692 30.72-12.445538 51.357538-18.235077 75.539692z m-251.470769 86.803692c-3.623385 3.150769-6.498462 5.513846-9.452307 7.719385-34.067692 24.812308-71.955692 31.113846-111.300924 18.313846-28.829538-9.294769-47.261538-30.680615-52.854153-60.770461-5.671385-30.326154-1.732923-55.689846 14.76923-77.469539 17.289846-22.843077 41.353846-34.579692 74.200616-39.108923 22.764308-3.072 41.787077-1.181538 78.454154 5.671385 5.513846 1.024 1.536 4.253538 1.536-1.142154v-6.380308l0.078769-4.726154c0.078769-13.784615-0.866462-22.094769-3.977846-30.326154-4.096-10.830769-10.948923-17.565538-21.464616-20.834461-22.921846-7.207385-46.788923-5.710769-76.012307 3.150769-3.741538 1.102769-7.364923 2.363077-13.193847 4.608-1.142154 0.393846-1.142154 0.393846-2.244923 0.866462-5.632 2.126769-8.388923 3.150769-11.736615 4.253538-14.572308 4.923077-22.764308-0.039385-24.339692-15.36a81.604923 81.604923 0 0 1 1.417846-24.260923 22.488615 22.488615 0 0 1 11.224615-13.745231c26.387692-13.390769 53.366154-20.755692 80.856616-21.464615 28.790154-0.787692 44.347077 0.236308 61.755077 5.750154 36.509538 11.224615 57.107692 37.179077 62.621538 76.248615 1.181538 8.625231 1.732923 29.577846 1.851077 59.904 0.078769 14.966154 0.039385 30.680615-0.039385 47.261539l-0.118154 15.320615c-0.157538 16.226462 3.347692 31.271385 10.633847 45.528615 8.428308 16.344615 6.459077 23.630769-8.900923 33.792l-11.539693 7.68c-14.178462 9.216-25.521231 7.404308-35.328-6.144a214.961231 214.961231 0 0 1-8.388923-12.681846 1625.6 1625.6 0 0 1-3.662769-5.986461l-4.844308 4.332307zM247.729231 360.290462c-8.073846-1.024-27.569231-3.702154-29.065846-3.899077a147.574154 147.574154 0 0 0-19.101539-1.536 128.787692 128.787692 0 0 0-23.236923 2.363077c-26.939077 4.568615-42.299077 20.007385-44.977231 46.00123-3.190154 30.089846 12.130462 53.090462 42.141539 55.650462 18.195692 1.575385 35.328-1.654154 51.318154-9.846154 21.425231-10.909538 34.028308-27.923692 36.391384-50.884923 0.393846-3.702154 0.472615-6.537846 0.472616-12.839385 0-4.214154 0-6.025846 0.118153-8.270769 0.590769-9.452308-4.726154-15.517538-14.060307-16.738461z m635.904 132.096c-37.730462 15.123692-89.166769 12.721231-133.828923-3.544616-23.236923-8.270769-32.019692-25.6-25.560616-49.979077 2.914462-10.24 10.633846-14.848 20.55877-11.539692-1.457231-0.512 15.753846 6.183385 24.536615 8.979692 21.819077 6.892308 43.047385 10.24 62.779077 8.270769 12.051692-1.181538 23.04-4.411077 32.807384-9.806769 14.651077-8.192 14.375385-34.855385-1.45723-41.668923-8.507077-3.544615-15.950769-6.380308-30.916923-11.815384-6.301538-2.284308-9.216-3.347692-12.603077-4.647385a400.659692 400.659692 0 0 0-13.154462-4.529231l-2.126769-0.708923a227.958154 227.958154 0 0 1-29.380923-11.185231c-34.264615-16.541538-50.963692-45.134769-47.812923-82.86523 2.638769-31.744 20.952615-54.744615 51.515077-68.135385 40.290462-17.723077 82.983385-15.793231 129.536 2.835692 17.762462 7.128615 25.915077 32.374154 16.935384 49.545846-4.214154 8.270769-11.027692 9.846154-19.37723 7.483077l-2.481231-0.787692-0.708923-0.196923a345.954462 345.954462 0 0 1-9.846154-3.111385l-3.229539-1.063384a188.652308 188.652308 0 0 0-25.127384-7.089231 116.854154 116.854154 0 0 0-48.128 0.630154c-16.935385 3.938462-23.079385 11.894154-22.449231 28.750769a17.604923 17.604923 0 0 0 10.121846 15.635692c11.303385 6.262154 24.221538 11.421538 44.228923 18.077539l16.226462 5.316923c11.460923 3.780923 19.022769 6.459077 26.151384 9.334154 28.081231 11.106462 46.08 31.271385 50.25477 59.155692 7.089231 45.489231-14.572308 81.329231-57.501539 98.658462z m-298.023385 296.290461c-14.926769 1.654154-26.899692 2.363077-53.720615 3.426462a1586.018462 1586.018462 0 0 0-25.206154 1.181538c-108.780308 1.181538-213.228308-24.891077-314.604308-77.193846a665.796923 665.796923 0 0 1-145.447384-102.4c-13.784615-12.996923-6.813538-33.831385 10.791384-29.853539 4.096 0.866462 6.971077 2.244923 12.603077 5.513847l1.299692 0.748307c98.304 56.989538 204.996923 93.538462 320.315077 110.355693 56.398769 8.192 110.867692 11.106462 164.233847 8.467692 106.732308-5.041231 209.132308-28.435692 306.963692-70.104615 14.966154-6.419692 27.963077-3.899077 34.107077 6.144a21.464615 21.464615 0 0 1-6.577231 28.435692l-6.892308 4.883692-0.630154 0.472616c-16.935385 12.209231-24.812308 17.526154-34.973538 23.512615-78.926769 46.985846-166.439385 75.460923-262.301538 86.409846z m275.928616-167.148308c-5.316923 0.393846-10.830769 0.866462-18.116924 1.575385l-19.692307 1.969231-3.347693 0.354461-2.244923 0.236308a33.004308 33.004308 0 0 1-10.200615 0.236308c-7.758769-1.102769-12.721231-5.750154-12.878769-12.327385a14.966154 14.966154 0 0 1 5.001846-11.421538c5.986462-4.844308 11.421538-8.625231 17.053538-11.500308 34.382769-17.801846 72.467692-23.709538 116.539077-20.086154 9.452308 0.708923 19.180308 2.717538 31.428923 6.104615 13.705846 3.899077 18.904615 11.106462 19.377231 25.67877 1.024 25.245538-4.568615 49.939692-16.305231 79.123692-10.161231 25.403077-24.142769 46.749538-42.732307 64.078769l-2.284308 2.205539c-7.955692 7.640615-14.572308 10.318769-23.158154 4.292923-6.892308-5.080615-6.971077-11.500308-3.465846-18.944l0.866462-1.732923a23.079385 23.079385 0 0 0 1.45723-3.268923c2.363077-7.483077 4.489846-13.863385 8.78277-26.584616l0.354461-1.024c8.664615-25.678769 12.327385-37.179077 16.029539-51.633231 5.435077-21.031385 1.024-26.545231-21.976616-27.805538a312.32 312.32 0 0 0-40.487384 0.472615z" p-id="2610"></path></svg>