<?xml version="1.0" standalone="no"?><!DOCTYPE svg PUBLIC "-//W3C//DTD SVG 1.1//EN" "http://www.w3.org/Graphics/SVG/1.1/DTD/svg11.dtd"><svg t="1597663830689" class="icon" viewBox="0 0 1024 1024" version="1.1" xmlns="http://www.w3.org/2000/svg" p-id="5287" xmlns:xlink="http://www.w3.org/1999/xlink" width="200" height="200"><defs><style type="text/css"></style></defs><path d="M813.1 864H210.2c-25.2 0-45.7 20.4-45.7 45.7s20.5 45.7 45.7 45.7h602.9c25.2 0 45.7-20.4 45.7-45.7 0-25.2-20.5-45.7-45.7-45.7z m137-796.7h-877C32.7 67.3 0 100 0 140.4v584.7c0 40.4 32.7 73.1 73.1 73.1h877c40.4 0 73.1-32.7 73.1-73.1V140.4c0-40.3-32.7-73.1-73.1-73.1zM834.6 359.5L633.3 560.8c-6.4 6.4-15.2 9.2-24.4 8.5-9.1 0.7-18-2.1-24.4-8.5L414 390.2 243.3 560.8c-12.9 12.9-35.6 11.1-50.7-4-15.1-15.1-16.9-37.8-4-50.7l201.3-201.3c6.3-6.3 15-9.1 24-8.5 9-0.6 17.7 2.2 24 8.5l171 171 170.9-171c12.9-12.9 35.6-11.1 50.7 4 15.2 15.1 17 37.8 4.1 50.7z m0 0" p-id="5288"></path></svg>