<?xml version="1.0" standalone="no"?><!DOCTYPE svg PUBLIC "-//W3C//DTD SVG 1.1//EN" "http://www.w3.org/Graphics/SVG/1.1/DTD/svg11.dtd"><svg t="1592466249698" class="icon" viewBox="0 0 1024 1024" version="1.1" xmlns="http://www.w3.org/2000/svg" p-id="5369" xmlns:xlink="http://www.w3.org/1999/xlink" width="200" height="200"><defs><style type="text/css"></style></defs><path d="M940.167582 220.957784c-0.126-1.526999-0.234-3.002997-0.34-4.448995l-0.029-0.393c-0.139-1.854998-0.272-3.658996-0.433999-5.414995a115.074888 115.074888 0 0 0-1.384999-9.452991c-0.586999-2.924997-1.373999-6.092994-2.402998-9.68799-0.783999-2.708997-1.789998-5.560995-3.074997-8.718992a115.459887 115.459887 0 0 0-3.994996-8.893991c-1.272999-2.550998-2.906997-5.347995-4.369995-7.478993a3.989996 3.989996 0 0 1-0.143-0.223999c-1.582998-2.674997-3.480997-5.347995-5.972995-8.410992-2.114998-2.620997-4.000996-4.801995-5.765994-6.668994-2.368998-2.468998-4.635995-4.640995-6.934993-6.642993-2.457998-2.092998-4.852995-4.095996-7.137993-5.584995l-0.096-0.065a119.869883 119.869883 0 0 0-8.077992-5.187995c-2.551998-1.468999-5.505995-2.896997-8.376992-4.283995-2.709997-1.209999-5.524995-2.255998-9.200991-3.554997a91.481911 91.481911 0 0 0-8.843991-2.352998c-3.780996-0.805999-6.977993-1.323999-9.772991-1.584998-3.566997-0.338-6.789993-0.501-9.85399-0.501h-62.143939c-15.193985 0-27.554973 12.360988-27.554974 27.555974 0 15.191985 12.360988 27.551973 27.554974 27.551973h62.350939c1.383999 0 2.546998 0.097 3.672996 0.189999l0.448 0.037c0.976999 0.1 1.957998 0.265 2.997997 0.441l0.653999 0.11c0.081 0.014 0.162 0.03 0.239 0.047 1.013999 0.234 1.982998 0.508 2.625997 0.690999 0 0 0.431 0.121 0.52 0.144 0.103 0.025 0.207 0.055 0.305999 0.088 1.041999 0.347 2.418998 0.827999 3.847997 1.475998 0.964999 0.403 2.302998 1.009999 3.228997 1.626999a50.92995 50.92995 0 0 1 3.018997 1.912998l0.450999 0.301c1.310999 0.875999 2.565997 1.931998 3.195997 2.481997 0.748999 0.655999 1.879998 1.646998 3.137997 3.033997 0.459 0.517999 0.920999 1.067999 1.379999 1.615999l0.108999 0.13c0.311 0.372 0.611999 0.729999 0.898 1.054999 0.07 0.079 0.154 0.186 0.216999 0.268999a45.540956 45.540956 0 0 1 2.238998 3.227997c0.089 0.108 0.173 0.221 0.25 0.34 0.825999 1.252999 1.438999 2.318998 1.827998 3.184997l0.16 0.319999c0.037 0.077 0.453 0.978999 0.454 0.980999 0.359 0.769999 0.765999 1.641998 1.194998 2.737998l0.055 0.114c0.397 0.864999 0.674999 1.705998 0.920999 2.450997l0.052 0.157c0.112 0.34 0.221 0.670999 0.346 0.979999 0.05 0.123 0.091 0.248 0.128 0.377a41.20196 41.20196 0 0 1 1.019999 4.386996 34.609966 34.609966 0 0 1 0.667999 4.858995c0.108 1.181999 0.22 2.644997 0.22 4.535995V925.209096c0 1.792998-0.11 3.239997-0.222 4.568996l-0.016 0.154a64.299937 64.299937 0 0 1-0.753999 4.758995 36.561964 36.561964 0 0 1-1.011999 4.083996c-0.358 1.392999-0.817999 2.669997-1.637998 4.551996a84.933917 84.933917 0 0 1-1.620999 3.458996c-0.042 0.082-0.421 0.771999-0.423999 0.778a49.289952 49.289952 0 0 1-1.870999 3.185997 4.157996 4.157996 0 0 1-0.156999 0.277999c-0.733999 1.180999-1.405999 2.143998-1.944998 2.789998a68.377933 68.377933 0 0 1-3.044998 3.481996l-0.113999 0.119c-0.925999 0.923999-1.755998 1.743998-2.545998 2.429998-1.210999 1.098999-2.235998 1.906998-3.258997 2.564997-1.047999 0.795999-2.219998 1.509999-3.684996 2.244998a52.049949 52.049949 0 0 0-0.707999 0.358l0.226999 0.444999-0.335999-0.388999c-0.737999 0.378-1.574998 0.805999-2.702998 1.294998-0.905999 0.443-1.818998 0.794999-3.205997 1.234999a4.338996 4.338996 0 0 1-0.247999 0.103c-0.863999 0.326-1.777998 0.540999-2.512998 0.714999l-0.589999 0.143a4.159996 4.159996 0 0 1-0.729 0.115 48.409953 48.409953 0 0 0-0.916999 0.168c-0.884999 0.166-1.886998 0.355-3.132997 0.442999-1.194999 0.115-2.272998 0.115-3.521996 0.115H179.313325c-1.069999 0-2.400998 0-4.187996-0.234999-0.881999-0.099-1.998998-0.282-3.325997-0.549-1.381999-0.252-2.720997-0.625999-4.628995-1.295999-0.058-0.02-0.533999-0.195-0.56-0.204999-0.740999-0.274-1.662998-0.614999-2.678997-1.123999l-0.939999-0.459a58.752943 58.752943 0 0 1-2.405998-1.210999l-0.304-0.159a29.137972 29.137972 0 0 1-3.252996-2.083998c-1.114999-0.747999-2.044998-1.563998-3.147997-2.553997-1.007999-0.898999-1.882998-1.773998-2.843997-2.734997-0.609999-0.610999-1.130999-1.249999-1.645999-1.880999l-0.065-0.080999a30.95797 30.95797 0 0 0-0.861999-1.024999 4.628995 4.628995 0 0 1-0.424-0.497c-0.609999-0.815999-1.300999-1.739998-2.278997-3.260997a5.136995 5.136995 0 0 1-0.178-0.299999c-0.718999-1.036999-1.265999-2.216998-1.730998-3.259997-0.26-0.524999-0.519999-1.078999-0.779-1.632999-0.271-0.577999-0.574999-1.224999-0.727999-1.493998a4.047996 4.047996 0 0 1-0.256-0.541c-0.585999-1.532999-1.032999-2.893997-1.522998-4.465995a4.676995 4.676995 0 0 1-0.164-0.775 56.705945 56.705945 0 0 1-0.388-1.519998 75.719926 75.719926 0 0 0-0.424999-1.681998 3.825996 3.825996 0 0 1-0.08-0.368 89.385913 89.385913 0 0 1-0.646-4.518996l-0.016-0.168c-0.097-1.288999-0.218-2.892997-0.217999-4.528995V220.709784c0-1.531999 0.104-3.091997 0.329999-4.934995 0.11-1.499999 0.322-2.950997 0.672-4.586995 0.214-1.257999 0.515999-2.530998 1.006999-4.254996l0.083-0.262c0.419-1.250999 0.836999-2.495998 1.165998-3.379997a38.169963 38.169963 0 0 1 1.957999-4.265995l0.446999-0.781 0.29-0.525999a28.189972 28.189972 0 0 1 1.421998-2.381998c0.075-0.142 0.159-0.28 0.251-0.412999l0.326-0.47c0.628999-0.906999 1.222999-1.763998 1.922998-2.581997 0.967999-1.335999 2.063998-2.486998 2.631997-3.054997 0.216-0.217 0.427-0.433 0.649-0.662 0.677999-0.696999 1.446999-1.486999 2.483997-2.363997 0.061-0.06 0.263-0.237 0.263-0.237 0.731999-0.630999 1.643998-1.416999 3.004997-2.332998 0.959999-0.717999 1.985998-1.389999 3.233997-2.118998 1.165999-0.698999 2.370998-1.301999 3.412997-1.709998 0.803999-0.359 1.620998-0.663999 2.340997-0.933999l-0.174999-0.468 0.277999 0.43c0.35-0.131 0.688999-0.258 1.006999-0.384 0.111-0.044 0.224-0.084 0.341-0.119l0.614999-0.186c0.937999-0.287 1.999998-0.612999 3.117997-0.823999 1.248999-0.289 2.585997-0.573999 4.057996-0.599999 1.238999-0.101 2.519998-0.205 3.859997-0.205h62.149939c15.191985 0 27.551973-12.359988 27.551973-27.552973 0-15.190985-12.359988-27.549973-27.551973-27.549973h-62.461939c-2.859997 0-5.989994 0.158-9.85399 0.496999-3.313997 0.308-6.732993 0.980999-9.630991 1.597999-2.695997 0.522999-5.682994 1.343999-9.389991 2.579997-2.713997 0.838999-5.463995 1.966998-8.789991 3.359997-2.614997 1.181999-5.678994 2.623997-8.578992 4.343996-2.143998 1.236999-4.927995 2.899997-7.448993 4.794995l-0.099 0.072c-2.690997 1.891998-5.380995 3.989996-7.193993 5.611995-2.515998 2.221998-4.765995 4.467996-6.941993 6.640993l-0.186 0.186c-1.976998 2.085998-3.819996 4.243996-5.800994 6.790993a123.465879 123.465879 0 0 0-5.362995 7.443993c-1.845998 2.878997-3.385997 5.661994-5.077995 8.764991-1.170999 2.435998-2.380998 4.954995-3.891996 8.587992a5.194995 5.194995 0 0 1-0.298 0.590999c-1.282999 3.231997-2.131998 6.108994-2.655997 7.985993-1.198999 4.080996-1.953998 7.151993-2.373998 9.66099l-0.022 0.123c-0.746999 3.737996-1.138999 7.136993-1.396998 9.674991-0.339 3.049997-0.489 6.132994-0.489 9.99499v704.289312c0 2.851997 0.162 6.033994 0.496 9.732991 0.259 2.647997 0.650999 6.137994 1.392998 9.64599a117.628885 117.628885 0 0 0 2.298998 9.599991c0.861999 3.066997 1.904998 5.925994 3.289997 9.493991 0.01 0.036 0.023 0.072 0.04 0.104999 0.046 0.089 0.089 0.181 0.127 0.272 1.268999 3.037997 2.543998 5.750994 3.895996 8.286992 1.729998 3.365997 3.139997 5.730994 4.682995 8.271992a120.227883 120.227883 0 0 0 5.324995 7.495993c2.210998 2.688997 4.119996 5.010995 6.162994 7.056993a95.005907 95.005907 0 0 0 6.579994 6.274994c2.813997 2.491998 5.265995 4.424996 7.288993 5.747994l0.167999 0.116c2.600997 1.900998 5.498995 3.645996 7.729993 4.951995a77.429924 77.429924 0 0 0 8.490992 4.339996c2.884997 1.298999 6.068994 2.514998 8.819991 3.363997a85.121917 85.121917 0 0 0 9.518991 2.609997c0.125 0.014 0.249 0.033 0.373999 0.06 3.104997 0.656999 6.095994 1.056999 8.861992 1.390999 3.219997 0.403 6.507994 0.589999 10.348989 0.589999h664.959351c3.455997 0 6.767993-0.169 9.840991-0.5 2.996997-0.29 6.052994-0.778999 9.90499-1.584998 3.444997-0.712999 6.518994-1.648998 8.809991-2.381998 3.273997-1.024999 6.405994-2.217998 9.051991-3.444996 3.266997-1.476999 6.028994-2.871997 8.440992-4.264996 2.930997-1.676998 5.612995-3.387997 7.963992-5.080995 2.294998-1.598998 4.707995-3.597996 7.633993-6.052994 2.620997-2.311998 4.721995-4.344996 6.246994-6.046994l0.07-0.078c1.831998-1.931998 3.863996-4.154996 6.298994-7.300993 2.066998-2.557998 3.891996-5.150995 5.005995-7.111993l0.108-0.18c1.461999-2.283998 3.197997-5.098995 4.976995-8.655992a89.721912 89.721912 0 0 0 3.755996-8.293991c1.344999-3.480997 2.394998-6.501994 3.300997-9.510991 1.054999-3.537997 1.759998-6.506994 2.156998-9.080991l0.017-0.1c0.687999-3.780996 1.132999-6.854993 1.399998-9.671991 0.335-3.594996 0.498-6.886993 0.498-10.06399l0.001-703.634313z" p-id="5370"></path><path d="M511.844 874.818146c15.021985 0 27.241973-12.544988 27.241974-27.964973v-92.60591a3.939996 3.939996 0 0 1 3.935996-3.934996h134.108869c7.670993 0 14.821986-2.928997 20.13498-8.245992 5.048995-5.043995 7.828992-11.752989 7.828992-18.893981 0-7.136993-2.779997-13.847986-7.829992-18.897982-5.380995-5.380995-12.531988-8.344992-20.13398-8.344992h-134.209869a3.939996 3.939996 0 0 1-3.934996-3.934996V629.739385a3.939996 3.939996 0 0 1 3.934996-3.934996h134.102869c7.784992 0 14.739986-2.838997 20.11198-8.212992 5.065995-5.156995 7.856992-11.876988 7.856993-18.923982 0-7.137993-2.789997-13.858986-7.854993-18.923981-5.274995-5.364995-12.418988-8.319992-20.11398-8.319992H545.501967a3.922996 3.922996 0 0 1-3.634996-2.428998 3.924996 3.924996 0 0 1 0.853999-4.287995l153.92585-153.93085c5.381995-5.378995 8.346992-12.492988 8.346992-20.031981 0-7.179993-2.753997-13.936986-7.753993-19.024981-4.940995-5.033995-11.679989-7.804992-18.974981-7.804992-7.511993 0-14.660986 2.962997-20.134981 8.345991l-143.605859 143.49986c-0.742999 0.741999-1.731998 1.151999-2.780998 1.151999s-2.037998-0.409-2.779997-1.151999L365.330143 372.234636c-5.337995-5.429995-12.478988-8.420992-20.10898-8.420991-7.210993 0-13.922986 2.743997-18.899982 7.724992-5.048995 5.047995-7.829992 11.832988-7.829992 19.104982 0 7.558993 2.996997 14.668986 8.437992 20.02098l155.271848 153.92385a3.926996 3.926996 0 0 1 0.867999 4.292995 3.919996 3.919996 0 0 1-3.637996 2.436998H346.456162c-7.602993 0-14.743986 2.952997-20.109981 8.318992-5.065995 5.158995-7.855992 11.878988-7.855992 18.924981 0 15.020985 12.592988 27.242973 28.070973 27.242974h134.102869a3.939996 3.939996 0 0 1 3.934996 3.934996v62.149939a3.939996 3.939996 0 0 1-3.934996 3.934996H346.456162c-7.601993 0-14.741986 2.952997-20.109981 8.318992-5.065995 5.158995-7.855992 11.878988-7.855992 18.923982 0 15.021985 12.592988 27.244973 28.070973 27.244973h134.102869a3.939996 3.939996 0 0 1 3.934996 3.934996v92.60591c0.001 15.417985 12.222988 27.963973 27.244973 27.963973zM356.159152 257.763748h0.052l1.326999-0.091 0.188-0.009c4.718995-0.103 31.506969-0.207 80.716921-0.206999 74.518927 0 175.766828 0.102 204.4088 0.205999h25.501975c16.652984 0 33.589967-8.449992 44.199957-22.050978 10.63199-13.409987 14.182986-30.39597 9.99799-47.830953l-12.286988-50.487951c-4.750995-19.580981-27.420973-48.712952-70.402931-48.712953h-26.948974a3.932996 3.932996 0 0 1-3.811996-2.959997c-2.244998-8.788991-5.647994-21.493979-10.21099-38.480962C592.946921 24.542976 565.752948 0.096 532.18298 0h-41.294959c-32.904968 0-59.983941 24.217976-66.202936 46.656954-2.095998 7.654993-6.191994 24.049977-8.909991 34.929966l-0.976999 3.907997a3.929996 3.929996 0 0 1-3.816996 2.979997h-6.381994l-27.891973 0.105999c-13.645987 0-28.059973 5.628995-40.58796 15.850985-11.502989 9.383991-19.98398 21.700979-22.687978 32.947968-1.524999 6.430994-3.918996 15.992984-7.540993 30.46597l-4.960995 19.852981c-4.248996 17.097983-0.728999 34.010967 9.91099 47.623953 10.843989 13.840986 28.209972 22.440978 45.318956 22.440978z m-1.221999-59.943941l2.775998-10.48499c3.551997-14.096986 6.877993-27.371973 8.542991-34.888966a3.953996 3.953996 0 0 1 0.72-1.542998c1.722998-2.245998 6.266994-6.016994 8.917991-7.052993 0.454-0.177 0.929999-0.267 1.416999-0.269l27.191973-0.101 15.978984 0.101c22.208978 0 39.877961-13.455987 45.012956-34.279967l3.399997-13.722986c2.559998-10.42699 6.238994-25.166975 8.178992-32.393969 0.139-0.517999 0.377-0.992999 0.707999-1.413998 1.437999-1.824998 6.574994-6.561994 13.000988-6.561994h41.08896c7.213993 0 12.522988 5.109995 13.104987 5.692995a3.929996 3.929996 0 0 1 1.020999 1.774998l2.887997 10.864989c3.278997 12.317988 7.770992 29.185971 9.506991 36.126965 5.218995 20.02898 23.011978 34.017967 43.268957 34.017967h38.608963c11.226989 0 15.204985 5.070995 16.156984 6.625993 0.215 0.349 0.372 0.727999 0.468999 1.123999l11.357989 46.557955a3.909996 3.909996 0 0 1-0.728999 3.361996 3.911996 3.911996 0 0 1-3.093997 1.503999H642.749872c-14.779986 0-39.627961-0.035-68.679933-0.076l-1.818998-0.002c-40.119961-0.057-90.051912-0.128-130.921872-0.128-45.629955 0-73.171929 0-82.590919 0.106a3.907996 3.907996 0 0 1-3.102997-1.516999 3.959996 3.959996 0 0 1-0.698-3.422996z" p-id="5371"></path></svg>