<?xml version="1.0" standalone="no"?><!DOCTYPE svg PUBLIC "-//W3C//DTD SVG 1.1//EN" "http://www.w3.org/Graphics/SVG/1.1/DTD/svg11.dtd"><svg t="1592466191069" class="icon" viewBox="0 0 1024 1024" version="1.1" xmlns="http://www.w3.org/2000/svg" p-id="5099" xmlns:xlink="http://www.w3.org/1999/xlink" width="200" height="200"><defs><style type="text/css"></style></defs><path d="M604.647619 114.590476H346.209524M346.209524 177.980952h258.438095M531.504762 565.638095h-341.333333c-17.066667 0-31.695238-14.628571-31.695239-31.695238 0-17.066667 14.628571-31.695238 31.695239-31.695238h341.333333c17.066667 0 31.695238 14.628571 31.695238 31.695238 2.438095 17.066667-12.190476 31.695238-31.695238 31.695238zM668.038095 80.457143v134.095238c0 17.066667-14.628571 31.695238-31.695238 31.695238-17.066667 0-31.695238-14.628571-31.695238-31.695238V80.457143c0-17.066667 14.628571-31.695238 31.695238-31.695238 17.066667 0 31.695238 14.628571 31.695238 31.695238zM346.209524 80.457143v134.095238c0 17.066667-14.628571 31.695238-31.695238 31.695238-17.066667 0-31.695238-14.628571-31.695238-31.695238V80.457143c0-17.066667 14.628571-31.695238 31.695238-31.695238 17.066667 0 31.695238 14.628571 31.695238 31.695238zM409.6 760.685714H182.857143c-12.190476 0-21.942857-9.752381-21.942857-21.942857v-21.942857c0-12.190476 9.752381-21.942857 21.942857-21.942857h226.742857c12.190476 0 21.942857 9.752381 21.942857 21.942857v21.942857c0 12.190476-12.190476 21.942857-21.942857 21.942857zM994.742857 716.8c0-9.752381-7.314286-14.628571-17.066667-17.066667h-9.75238c-9.752381 0-19.504762-7.314286-24.380953-14.628571 0-2.438095-2.438095-4.87619-2.438095-7.314286-2.438095-4.87619-4.87619-12.190476-7.314286-17.066666-2.438095-2.438095-2.438095-4.87619-2.438095-7.314286 0-2.438095-2.438095-4.87619-2.438095-9.752381 0-7.314286 2.438095-14.628571 7.314285-19.504762l4.876191-4.876191c7.314286-7.314286 7.314286-17.066667 0-24.380952l-14.628572-14.628571-14.628571-14.628572c-7.314286-4.87619-14.628571-4.87619-21.942857 0l-4.876191 4.876191-4.87619 4.87619c-7.314286 7.314286-19.504762 9.752381-29.257143 7.314286-2.438095 0-2.438095 0-4.87619-2.438095-7.314286-2.438095-12.190476-4.87619-19.504762-7.314286h-2.438096c-2.438095-2.438095-7.314286-2.438095-9.75238-4.876191-4.87619-4.87619-7.314286-9.752381-7.314286-17.066666v-12.190476c0-9.752381-7.314286-17.066667-14.628572-17.066667H750.933333h-2.438095c-9.752381 2.438095-14.628571 9.752381-14.628571 17.066667v7.314285c0 12.190476-7.314286 21.942857-17.066667 26.819048h-2.438095c-7.314286 2.438095-14.628571 4.87619-21.942857 9.752381h-2.438096c-2.438095 2.438095-7.314286 2.438095-12.190476 2.438095-7.314286 0-14.628571-2.438095-19.504762-7.314286v-9.752381c-7.314286-7.314286-17.066667-7.314286-24.380952-2.438095l-2.438095 2.438095c-4.87619 4.87619-9.752381 7.314286-14.628572 12.190477-4.87619 4.87619-7.314286 9.752381-12.190476 14.628571l-2.438095 2.438095c-4.87619 7.314286-4.87619 17.066667 2.438095 24.380953l4.876191 4.87619c7.314286 7.314286 9.752381 21.942857 4.87619 31.695238v2.438096c-2.438095 7.314286-7.314286 14.628571-9.752381 21.942857v2.438095c-2.438095 2.438095-2.438095 7.314286-7.314286 9.752381-4.87619 4.87619-12.190476 7.314286-19.504762 7.314286h-7.314285c-9.752381 0-17.066667 7.314286-17.066667 14.628571V758.247619c2.438095 9.752381 9.752381 14.628571 17.066667 14.628571h7.314285c12.190476 0 21.942857 7.314286 26.819048 17.066667v2.438095c2.438095 7.314286 4.87619 14.628571 9.752381 21.942858v2.438095c2.438095 2.438095 2.438095 7.314286 2.438095 12.190476 0 7.314286-2.438095 14.628571-7.314285 19.504762l-4.876191 4.87619c-7.314286 7.314286-7.314286 17.066667-2.438095 21.942857l2.438095 2.438096c4.87619 4.87619 7.314286 9.752381 12.190476 14.628571 4.87619 4.87619 9.752381 7.314286 14.628572 12.190476l2.438095 2.438096c7.314286 4.87619 14.628571 4.87619 21.942857 0l7.314286-7.314286c7.314286-7.314286 21.942857-9.752381 31.695238-4.876191h2.438095c7.314286 2.438095 14.628571 7.314286 21.942857 9.752381h2.438095c2.438095 2.438095 7.314286 2.438095 9.752381 7.314286 4.87619 4.87619 7.314286 12.190476 7.314286 19.504762v7.314286c0 9.752381 7.314286 17.066667 17.066667 19.504762h39.009524c9.752381 0 17.066667-9.752381 17.066666-19.504762v-7.314286c0-12.190476 7.314286-19.504762 17.066667-24.380952 2.438095 0 4.87619-2.438095 4.87619-2.438096 4.87619-2.438095 12.190476-4.87619 17.066667-7.314285 2.438095 0 2.438095-2.438095 4.876191-2.438096s7.314286-2.438095 9.752381-2.438095c7.314286 0 12.190476 2.438095 19.504761 7.314286l2.438096 2.438095 4.87619 4.876191c7.314286 7.314286 17.066667 7.314286 24.380953 2.438095l2.438095-2.438095c4.87619-4.87619 9.752381-7.314286 14.628571-12.190477 4.87619-4.87619 9.752381-9.752381 12.190476-14.628571 0 0 0-2.438095 2.438096-2.438095 4.87619-7.314286 4.87619-17.066667-2.438096-21.942857l-7.314285-7.314286c-7.314286-7.314286-9.752381-19.504762-4.876191-29.257143 0 0 0-2.438095 2.438095-2.438095 2.438095-7.314286 7.314286-14.628571 9.752381-19.504762v-2.438095c2.438095-2.438095 2.438095-7.314286 7.314286-9.752381 4.87619-4.87619 12.190476-7.314286 19.504762-7.314286h2.438095c9.752381 0 17.066667-7.314286 19.504762-17.066667v-19.504762-24.380952z m-107.27619 19.504762c0 12.190476-2.438095 24.380952-7.314286 36.571428-2.438095 4.87619-2.438095 9.752381-4.876191 12.190477-4.87619 12.190476-12.190476 21.942857-21.942857 29.257143-9.752381 9.752381-19.504762 17.066667-29.257143 21.942857-4.87619 2.438095-7.314286 4.87619-12.190476 4.87619-12.190476 4.87619-24.380952 7.314286-36.571428 7.314286s-24.380952-2.438095-36.571429-4.876191c-4.87619-2.438095-9.752381-2.438095-12.190476-4.87619-12.190476-4.87619-21.942857-12.190476-29.257143-21.942857-9.752381-9.752381-17.066667-19.504762-21.942857-29.257143-2.438095-4.87619-4.87619-9.752381-4.876191-12.190476-4.87619-12.190476-7.314286-24.380952-7.314285-36.571429s2.438095-26.819048 7.314285-36.571428c2.438095-4.87619 2.438095-9.752381 4.876191-12.190477 4.87619-12.190476 12.190476-21.942857 21.942857-29.257142 9.752381-9.752381 19.504762-17.066667 29.257143-21.942858 4.87619-2.438095 9.752381-4.87619 12.190476-4.87619 12.190476-4.87619 24.380952-4.87619 36.571429-4.876191s24.380952 2.438095 36.571428 7.314286c4.87619 2.438095 9.752381 2.438095 12.190476 4.876191 12.190476 4.87619 21.942857 12.190476 29.257143 21.942857 9.752381 9.752381 17.066667 19.504762 21.942857 29.257143 2.438095 4.87619 4.87619 9.752381 4.876191 12.190476 4.87619 7.314286 7.314286 19.504762 7.314286 31.695238z" p-id="5100"></path><path d="M816.761905 114.590476H136.533333C73.142857 114.590476 24.380952 163.352381 24.380952 226.742857v616.838095c0 60.952381 51.2 112.152381 112.152381 112.152381h355.961905c17.066667 0 31.695238-14.628571 31.695238-31.695238 0-17.066667-14.628571-31.695238-31.695238-31.695238H141.409524c-14.628571 0-29.257143-4.87619-39.009524-17.066667-9.752381-9.752381-17.066667-24.380952-17.066667-39.009523v-463.238096h775.314286v87.771429c0 17.066667 14.628571 31.695238 31.695238 31.695238 17.066667 0 31.695238-14.628571 31.695238-29.257143V226.742857c4.87619-63.390476-46.32381-112.152381-107.27619-112.152381zM87.771429 307.2v-73.142857c0-29.257143 24.380952-53.638095 53.638095-53.638095h665.6c29.257143 0 53.638095 24.380952 53.638095 53.638095v75.580952H87.771429z" p-id="5101"></path></svg>