<?xml version="1.0" standalone="no"?><!DOCTYPE svg PUBLIC "-//W3C//DTD SVG 1.1//EN" "http://www.w3.org/Graphics/SVG/1.1/DTD/svg11.dtd"><svg t="1592466284996" class="icon" viewBox="0 0 1024 1024" version="1.1" xmlns="http://www.w3.org/2000/svg" p-id="5504" xmlns:xlink="http://www.w3.org/1999/xlink" width="200" height="200"><defs><style type="text/css"></style></defs><path d="M837.590155 544.463652c0 19.181454-12.787636 31.96909-31.96909 31.96909H217.389811c-19.181454 0-31.96909-12.787636-31.96909-31.96909s12.787636-31.96909 31.96909-31.96909h588.231254c19.181454 0 31.96909 12.787636 31.96909 31.96909zM498.717802 704.309101H217.389811c-19.181454 0-31.96909 12.787636-31.96909 31.96909s12.787636 31.96909 31.96909 31.96909h281.327991c19.181454 0 31.96909-12.787636 31.96909-31.96909-6.393818-19.181454-19.181454-31.96909-31.96909-31.96909zM1023.010876 320.680023v639.381797c0 38.362908-25.575272 63.93818-63.938179 63.93818H63.93818c-31.96909 0-63.93818-25.575272-63.93818-63.93818V320.680023c0-38.362908 25.575272-63.93818 63.93818-63.93818h230.177447c0-12.787636 0-19.181454 6.393818-31.96909L485.930166 7.382942c12.787636-6.393818 31.96909-12.787636 44.756726 0 0 0 6.393818 0 6.393818 6.393818l185.420721 217.389811c6.393818 6.393818 12.787636 19.181454 6.393818 31.96909H959.072697c38.362908-6.393818 63.93818 25.575272 63.938179 57.544362zM370.841443 256.741843h281.327991L511.505438 90.502575 370.841443 256.741843zM959.072697 352.649112c0-19.181454-12.787636-31.96909-31.96909-31.969089h-831.196337c-19.181454 0-31.96909 12.787636-31.96909 31.969089v575.443618c0 19.181454 12.787636 31.96909 31.96909 31.96909h837.590155c19.181454 0 31.96909-12.787636 31.96909-31.96909l-6.393818-575.443618z" p-id="5505"></path></svg>