<?xml version="1.0" standalone="no"?><!DOCTYPE svg PUBLIC "-//W3C//DTD SVG 1.1//EN" "http://www.w3.org/Graphics/SVG/1.1/DTD/svg11.dtd"><svg t="1584503511109" class="icon" viewBox="0 0 1024 1024" version="1.1" xmlns="http://www.w3.org/2000/svg" p-id="6776" xmlns:xlink="http://www.w3.org/1999/xlink" width="200" height="200"><defs><style type="text/css"></style></defs><path d="M688.042027 335.99533a49.025781 49.025781 0 0 1 43.920226-83.33262 8.007005 8.007005 0 0 0 7.085514-2.029769L1009.96595 0 224.420274 515.910108l263.832669 19.861854z" fill="#bfbfbf" p-id="6777"></path><path d="M0 291.701527L224.420274 515.910108 1009.96595 0 0 291.701527z" fill="#bfbfbf" p-id="6778"></path><path d="M773.379512 285.014496a7.994552 7.994552 0 0 0-1.97996 7.035703 49.025781 49.025781 0 0 1-83.332619 43.970036L488.290301 535.747057l19.69997 263.994552L1024.062263 14.096313z" fill="#bfbfbf" p-id="6779"></path><path d="M1024.062263 14.096313L507.990271 799.691799l224.320654 224.308201 291.751338-1009.903687z" fill="#bfbfbf" p-id="6780"></path></svg>