<svg xmlns="http://www.w3.org/2000/svg" viewBox="0 0 1024 1024" version="1.1"><path d="M443.155692 160.886154s-75.382154-3.426462-123.470769 58.722461c-48.128 62.148923-12.012308 157.105231 10.791385 206.060308 22.843077 48.994462 143.202462 241.152 147.613538 245.366154 4.371692 4.253538 9.649231 2.441846 9.964308-1.339077 0.275692-3.780923 13.745231-279.236923 2.914461-347.136-10.830769-67.938462-42.929231-154.190769-47.812923-161.673846zM182.547692 288.964923c-8.664615 0.905846-70.498462 62.621538-76.051692 122.88-5.632 60.337231 20.204308 100.470154 92.278154 148.48 72.546462 51.475692 244.972308 146.116923 248.162461 137.964308 3.150769-8.113231-66.796308-132.489846-124.061538-222.916923-57.304615-90.466462-131.741538-187.352615-140.327385-186.407385z m23.197539 556.347077c52.184615 23.315692 133.474462-29.065846 155.963077-44.307692 20.873846-15.990154 59.549538-45.371077 59.549538-45.371077l-295.699692 7.916307s27.963077 58.407385 80.187077 81.762462z m7.404307-238.985846c-52.932923-26.466462-161.792-87.355077-166.045538-86.173539-4.292923 1.181538-20.676923 76.878769 13.390769 133.907693 34.028308 57.107692 100.352 74.515692 130.756923 79.163077 34.264615 4.923077 235.401846 2.756923 234.06277-1.299693-1.181538-3.544615-159.192615-99.131077-212.164924-125.597538zM703.803077 219.608615c-48.049231-62.148923-123.470769-58.683077-123.470769-58.683077-4.923077 7.443692-37.021538 93.735385-47.812923 161.634462-10.830769 67.899077 2.638769 343.355077 2.953846 347.136 0.275692 3.780923 5.513846 5.592615 9.964307 1.339077 4.371692-4.214154 124.770462-196.371692 147.574154-245.366154 22.764308-48.955077 58.919385-143.911385 10.791385-206.060308z m272.580923 300.544c-4.253538-1.181538-113.152 59.707077-166.045538 86.173539-52.932923 26.466462-210.983385 122.052923-212.164924 125.597538-1.378462 4.017231 199.798154 6.222769 234.023385 1.339077 30.444308-4.686769 96.768-22.134154 130.796308-79.163077 34.107077-57.107692 17.644308-132.804923 13.390769-133.947077z m-314.604308 280.812308c22.449231 15.281231 103.817846 67.662769 156.002462 44.347077 52.184615-23.355077 80.187077-81.762462 80.187077-81.762462l-295.699693-7.876923s38.596923 29.341538 59.47077 45.292308z m255.251693-389.12c-5.592615-60.258462-67.465846-121.974154-76.051693-122.88-8.625231-0.945231-83.101538 95.940923-140.327384 186.368-57.304615 90.466462-127.291077 214.843077-124.100923 222.956308 3.150769 8.152615 175.655385-86.488615 248.123077-137.924923 72.073846-48.049231 97.949538-88.182154 92.356923-148.48z" p-id="2670"></path></svg>