<svg xmlns="http://www.w3.org/2000/svg" viewBox="0 0 1024 1024" version="1.1"><path d="M732.382609 454.121739h-445.217392c-17.808696 0-35.617391-13.356522-35.617391-35.617391s13.356522-35.617391 35.617391-35.617391h445.217392c17.808696 0 35.617391 13.356522 35.617391 35.617391s-13.356522 35.617391-35.617391 35.617391zM732.382609 632.208696h-445.217392c-17.808696 0-35.617391-13.356522-35.617391-35.617392s13.356522-35.617391 35.617391-35.617391h445.217392c17.808696 0 35.617391 13.356522 35.617391 35.617391s-13.356522 35.617391-35.617391 35.617392zM732.382609 810.295652h-445.217392c-17.808696 0-35.617391-13.356522-35.617391-35.617391s13.356522-35.617391 35.617391-35.617391h445.217392c17.808696 0 35.617391 13.356522 35.617391 35.617391s-13.356522 35.617391-35.617391 35.617391zM897.113043 1024H122.434783c-44.521739 0-80.13913-35.617391-80.139131-80.13913V213.704348C42.295652 169.182609 77.913043 133.565217 122.434783 133.565217h779.130434c44.521739 0 80.13913 35.617391 80.139131 80.139131v734.608695c-4.452174 40.069565-40.069565 75.686957-84.591305 75.686957zM122.434783 200.347826c-4.452174 0-8.904348 4.452174-8.904348 8.904348v734.608696c0 4.452174 4.452174 8.904348 8.904348 8.904347h779.130434c4.452174 0 8.904348-4.452174 8.904348-8.904347V213.704348c0-4.452174-4.452174-8.904348-8.904348-8.904348H122.434783zM331.686957 284.93913c-17.808696 0-35.617391-13.356522-35.617392-35.617391V57.878261c0-17.808696 13.356522-35.617391 35.617392-35.617391s35.617391 13.356522 35.617391 35.617391v195.895652c-4.452174 17.808696-17.808696 31.165217-35.617391 31.165217zM643.33913 284.93913c-17.808696 0-35.617391-13.356522-35.617391-35.617391V57.878261c0-17.808696 13.356522-35.617391 35.617391-35.617391s35.617391 13.356522 35.617392 35.617391v195.895652c-4.452174 17.808696-17.808696 31.165217-35.617392 31.165217z" p-id="2100"></path></svg>