<svg xmlns="http://www.w3.org/2000/svg" viewBox="0 0 1024 1024" version="1.1"><path d="M808.96 629.76c-5.12-4.189091-7.447273-6.516364-10.24-8.843636-28.858182-21.410909-39.098182-46.08-33.512727-85.178182 20.48-144.756364-96.814545-263.912727-215.505455-276.48-149.410909-16.290909-272.756364 77.730909-291.374545 221.090909-22.807273 171.287273 128.930909 314.181818 299.287272 282.065454 19.083636-3.723636 32.116364 0.465455 44.683637 14.429091 8.843636 9.774545 20.014545 17.687273 33.978182 29.323637-39.098182 20.48-39.563636 52.130909-37.701819 85.178182 1.861818 32.116364-3.723636 63.301818-36.305454 76.334545-34.909091 13.963636-74.938182 17.221818-107.52-4.189091-14.894545-9.774545-22.807273-33.978182-28.858182-53.061818-4.654545-14.429091-0.930909-31.650909-0.930909-47.476364-0.465455-25.6-12.101818-44.218182-35.84-54.458182-23.738182-9.774545-45.149091-5.585455-63.767273 12.567273-11.636364 11.170909-22.807273 22.807273-34.443636 33.512727-22.807273 20.945455-54.923636 26.996364-78.196364 10.24-20.48-14.894545-39.098182-33.512727-54.458182-53.992727-16.290909-22.341818-9.774545-56.785455 10.24-78.196363 10.705455-11.636364 22.807273-22.341818 33.978182-33.512728 16.290909-16.756364 22.341818-36.770909 14.894546-58.647272-7.447273-22.807273-24.203636-37.236364-48.407273-40.494546-18.618182-2.327273-37.236364-1.861818-55.854545-2.792727-40.494545-1.861818-63.767273-25.134545-65.629091-65.629091-0.465455-12.567273-0.465455-24.669091 0-37.236364 1.396364-41.425455 27.927273-67.025455 69.352727-67.956363 14.894545-0.465455 30.254545 0.465455 45.614545-0.465455 25.134545-1.396364 44.683636-13.032727 53.992728-36.770909 9.309091-23.272727 4.189091-45.149091-13.963637-63.301818-10.24-10.24-20.014545-20.014545-29.789091-30.254546-4.189091-4.654545-8.843636-8.843636-12.101818-13.963636-21.876364-36.305455-8.843636-72.610909 40.494546-113.105455 28.858182-23.272727 63.767273-22.341818 91.694545 3.258182 11.636364 10.705455 22.807273 22.341818 34.443636 33.512728 19.083636 17.221818 41.425455 20.945455 64.232728 11.170909 21.876364-9.309091 34.443636-26.996364 34.443636-52.130909 0-16.756364 0-33.978182 0.930909-50.734546 2.327273-32.581818 23.738182-58.181818 55.389091-62.370909 20.945455-2.792727 42.821818-2.792727 63.767273 0 29.789091 4.189091 51.665455 30.72 53.061818 61.44 0.930909 17.687273-0.930909 35.374545 0.465455 53.061818 1.861818 24.669091 13.498182 43.287273 37.701818 53.061818 24.669091 9.774545 45.149091 3.258182 63.301818-13.963636 7.447273-7.447273 14.894545-15.36 22.341818-22.807273 5.12-5.12 9.774545-10.24 15.36-14.429091 35.84-27.461818 75.403636-15.825455 118.225455 33.978182 26.065455 30.254545 24.203636 66.56-4.189091 94.952727-11.170909 11.170909-23.272727 22.341818-33.047273 34.443637-15.36 19.549091-20.48 41.890909-8.843636 64.698182 10.705455 21.410909 29.789091 32.116364 54.458181 32.116363 15.36 0 30.254545-0.465455 45.614546 0 35.84 1.861818 61.905455 23.272727 66.094545 57.250909 2.327273 19.083636 2.327273 39.098182 0 58.181819-4.654545 33.978182-31.650909 56.32-66.56 57.250909-10.705455 0.465455-21.410909 0.930909-32.116363 0-27.461818-3.258182-50.734545 5.585455-68.887273 29.323636zM331.403636 465.454545c21.876364 22.807273 43.752727 46.545455 66.094546 68.887273 42.821818 42.821818 98.210909 44.218182 139.636363 3.723637 42.356364-41.890909 41.890909-96.349091-2.792727-140.567273-22.807273-22.341818-47.010909-43.287273-68.421818-68.887273 57.716364-17.221818 109.847273-7.912727 156.392727 24.669091 74.007273 51.665455 101.469091 138.705455 71.68 223.418182-5.585455 16.290909-0.930909 24.203636 9.309091 34.443636 55.389091 53.992727 110.778182 107.985455 165.236364 162.909091 31.185455 31.185455 29.789091 68.887273-2.792727 97.28-26.530909 22.807273-59.112727 21.876364-86.109091-4.189091-55.389091-53.992727-110.312727-108.450909-164.770909-163.374545-12.567273-12.567273-22.341818-16.290909-40.96-9.774546-73.076364 24.669091-139.170909 9.309091-195.025455-43.287272-52.130909-49.803636-67.956364-111.709091-55.389091-180.596364 2.792727-1.396364 5.12-3.258182 7.912727-4.654546zM823.854545 789.410909c-18.618182 2.327273-30.72 11.636364-32.581818 31.185455-1.396364 17.687273 14.894545 33.978182 33.047273 33.978181 18.618182 0 33.512727-15.36 32.581818-33.978181-0.930909-20.014545-13.032727-29.323636-33.047273-31.185455z" p-id="2070"></path></svg>