<svg xmlns="http://www.w3.org/2000/svg" viewBox="0 0 1024 1024" version="1.1"><path d="M913.447385 509.873231c0-222.798769-180.775385-403.534769-403.574154-403.534769S106.338462 287.074462 106.338462 509.873231c0 222.838154 180.736 403.574154 403.534769 403.574154 222.838154 0 403.574154-180.775385 403.574154-403.574154z m55.138461 0c0 253.282462-205.430154 458.712615-458.712615 458.712615-253.243077 0-458.673231-205.430154-458.673231-458.712615C51.2 256.630154 256.630154 51.2 509.873231 51.2c253.282462 0 458.712615 205.430154 458.712615 458.673231zM473.875692 480.295385a27.569231 27.569231 0 1 1 55.138462 0v253.636923a27.569231 27.569231 0 1 1-55.138462 0v-253.636923zM623.064615 295.699692a27.569231 27.569231 0 1 1 44.425847 32.689231l-130.914462 177.860923h-49.033846L356.588308 330.830769a27.569231 27.569231 0 0 1 44.189538-32.964923l111.143385 148.834462 111.182769-151.04zM395.776 529.014154a27.569231 27.569231 0 0 1 0-55.138462h219.766154a27.569231 27.569231 0 0 1 0 55.138462h-219.766154zM395.776 655.793231a27.569231 27.569231 0 0 1 0-55.138462h219.766154a27.569231 27.569231 0 0 1 0 55.138462h-219.766154z" p-id="2010"></path></svg>