<?xml version="1.0" standalone="no"?><!DOCTYPE svg PUBLIC "-//W3C//DTD SVG 1.1//EN" "http://www.w3.org/Graphics/SVG/1.1/DTD/svg11.dtd"><svg t="1609381301765" class="icon" viewBox="0 0 1024 1024" version="1.1" xmlns="http://www.w3.org/2000/svg" p-id="12578" xmlns:xlink="http://www.w3.org/1999/xlink" width="16" height="16"><defs><style type="text/css"></style></defs><path d="M512 188.8c-179.2 0-323.2 145.6-323.2 323.2S334.4 836.8 512 836.8 836.8 691.2 836.8 512 691.2 188.8 512 188.8z m0 608c-156.8 0-284.8-128-284.8-284.8s128-284.8 284.8-284.8 284.8 128 284.8 284.8-128 284.8-284.8 284.8z" fill="#707070" p-id="12579"></path><path d="M652.8 393.6l-70.4 225.6-49.6-302.4-40-1.6-43.2 177.6H416l-17.6 12.8-11.2 33.6-32-112-36.8-1.6-27.2 67.2H272v40h32l19.2-12.8 9.6-25.6 32 118.4 38.4 1.6 27.2-81.6H464l19.2-16 25.6-97.6 48 288 38.4 3.2 76.8-240 12.8 48 19.2 14.4h48v-40h-32l-28.8-97.6z" fill="#707070" p-id="12580"></path></svg>