<svg xmlns="http://www.w3.org/2000/svg" viewBox="0 0 1024 1024" version="1.1"><path d="M893.427751 423.808612h-5.144497c-23.762679 0-45.075598-14.453589-53.649761-36.501435-1.959809-5.144498-4.042105-10.044019-6.24689-15.066029-9.554067-21.802871-4.777033-47.157895 12.003828-63.938756l3.674641-3.674641c22.415311-22.415311 22.415311-58.916746 0-81.454545l-43.360766-43.360766c-11.2689-11.2689-25.967464-16.903349-40.666028-16.903349s-29.519617 5.63445-40.666029 16.903349l-3.674641 3.674641c-11.023923 11.023923-25.722488 16.903349-40.788517 16.90335-7.839234 0-15.678469-1.592344-23.150239-4.899522-5.02201-2.204785-10.044019-4.287081-15.066029-6.24689-22.047847-8.574163-36.501435-29.887081-36.501435-53.649761v-5.144497c0-31.724402-25.722488-57.569378-57.569378-57.569378h-61.24402c-31.724402 0-57.569378 25.722488-57.569378 57.569378v5.144497c0 23.762679-14.453589 45.075598-36.501435 53.649761-5.144498 1.959809-10.044019 4.042105-15.066029 6.24689-7.47177 3.307177-15.311005 4.899522-23.150239 4.899522-14.943541 0-29.642105-5.879426-40.788517-16.90335l-3.674641-3.674641c-11.2689-11.2689-25.967464-16.903349-40.666029-16.903349s-29.519617 5.63445-40.666028 16.903349L180.057416 223.173206c-22.415311 22.415311-22.415311 58.916746 0 81.454545l3.674641 3.674641c16.780861 16.780861 21.557895 42.135885 12.003828 63.938756-2.204785 5.02201-4.287081 10.044019-6.24689 15.066029-8.574163 22.047847-29.887081 36.501435-53.649761 36.501435h-5.144497c-31.724402 0-57.569378 25.722488-57.569378 57.569378v61.24402c0 31.724402 25.722488 57.569378 57.569378 57.569378h5.144497c23.762679 0 45.075598 14.453589 53.649761 36.501435 1.959809 5.144498 4.042105 10.044019 6.24689 15.066029 9.554067 21.802871 4.777033 47.157895-12.003828 63.938756l-3.674641 3.674641c-22.415311 22.415311-22.415311 58.916746 0 81.454545l30.62201 30.62201 9.064115 9.064115 3.674641 3.674641c11.2689 11.2689 25.967464 16.903349 40.666029 16.903349s29.519617-5.63445 40.666028-16.903349l3.674641-3.674641c11.023923-11.023923 25.722488-16.903349 40.788517-16.90335 7.839234 0 15.678469 1.592344 23.150239 4.899522 5.02201 2.204785 10.044019 4.287081 15.066029 6.24689 22.047847 8.574163 36.501435 29.887081 36.501435 53.649761v5.144497c0 31.724402 25.722488 57.569378 57.569378 57.569378H542.62201c31.724402 0 57.569378-25.722488 57.569378-57.569378v-5.144497c0-23.762679 14.453589-45.075598 36.501435-53.649761 5.144498-1.959809 10.044019-4.042105 15.066029-6.24689 7.47177-3.307177 15.311005-4.899522 23.150239-4.899522 14.943541 0 29.642105 5.879426 40.788517 16.90335l3.674641 3.674641c11.2689 11.2689 25.967464 16.903349 40.666029 16.903349s29.519617-5.63445 40.666028-16.903349l43.360766-43.360766c22.415311-22.415311 22.415311-58.916746 0-81.454545l-3.674641-3.674641c-16.780861-16.780861-21.557895-42.135885-12.003828-63.938756 2.204785-5.02201 4.287081-10.044019 6.24689-15.066029 8.574163-22.047847 29.887081-36.501435 53.649761-36.501435h5.144497c31.724402 0 57.569378-25.722488 57.569378-57.569378v-61.24402c0-31.84689-25.722488-57.569378-57.569378-57.569378zM512 696.589474c-101.910048 0-184.589474-82.556938-184.589474-184.589474 0-101.910048 82.556938-184.589474 184.589474-184.589474 101.910048 0 184.589474 82.679426 184.589474 184.589474 0 101.910048-82.679426 184.589474-184.589474 184.589474z" p-id="1830"></path></svg>