<?xml version="1.0" standalone="no"?><!DOCTYPE svg PUBLIC "-//W3C//DTD SVG 1.1//EN" "http://www.w3.org/Graphics/SVG/1.1/DTD/svg11.dtd"><svg t="1597043183017" class="icon" viewBox="0 0 1024 1024" version="1.1" xmlns="http://www.w3.org/2000/svg" p-id="10531" xmlns:xlink="http://www.w3.org/1999/xlink" width="200" height="200"><defs><style type="text/css"></style></defs><path d="M882.83585 438.09677l-97.5757-70.020791-18.519615-90.801968-4.517647-61.434524-128.295701-68.66276s-60.530995 57.37138-90.796492 60.530995c-30.265497 3.165091-140.939636-48.790588-140.939636-48.790588l-60.536471 4.523123L260.342417 223.965775s37.948235 182.951016-107.060021 203.732193c-48.790588 44.272941-11.745882 162.624342-11.745883 162.624342s142.746695 35.69215 133.262375 133.262374c-9.484321 97.581176-4.966674 79.056086-4.966674 79.056086l126.034139 79.959615s68.208257-93.058053 127.841198-75.896471c59.627465 17.167059 109.316107 65.054118 109.316107 65.054118l137.330994-79.959615s-32.527059-124.676107 20.781177-158.106695c52.853733-33.430588 92.154524-45.625497 92.154524-45.625497l13.098438-79.056086-13.552941-70.918845z m-371.323208 178.887872c-62.343529 0-112.935701-50.597647-112.935701-112.935701 0-62.338053 50.597647-112.935701 112.930225-112.9357 62.343529 0 112.935701 50.597647 112.9357 112.9357 0 62.338053-50.597647 112.935701-112.9357 112.935701z" p-id="10532"></path><path d="M914.45938 603.431701a407.896984 407.896984 0 0 0 10.842353-93.967059c0-32.06708-3.614118-63.236107-10.842353-93.956107-3.165091-13.552941-16.718032-21.684706-30.265498-18.519615-13.552941 3.159615-21.684706 16.712556-18.525091 30.265497 6.324706 26.65138 9.489797 54.660791 9.489797 82.664727 0 28.009412-3.165091 55.564321-9.489797 82.670204-3.159615 13.552941 5.421176 27.105882 18.525091 30.265497 13.547465 2.710588 27.105882-5.870203 30.265498-19.423144z" p-id="10533"></path><path d="M884.642909 622.854845h4.06862c14.001968 0.454503 25.74785-9.938824 26.196877-23.940792 0.454503-14.007444-9.938824-25.74785-23.940791-26.202352h-6.324706a25.255016 25.255016 0 0 0-25.298823 25.298823c0.454503 13.552941 11.745882 24.844321 25.298823 24.844321z" p-id="10534"></path><path d="M802.881711 773.733305c-10.393326-15.809027-15.814503-33.879615-15.814502-53.30276 0-53.757262 43.818439-97.575701 97.581176-97.5757a25.255016 25.255016 0 0 0 25.293348-25.298824 25.255016 25.255016 0 0 0-25.298824-25.298823c-81.761198 0-147.718845 66.406674-147.718845 147.718845 0 28.912941 8.586267 56.922353 23.946268 80.863144 7.677262 11.745882 23.037262 14.905497 34.783144 7.228235 11.740406-7.228235 14.905497-22.588235 7.228235-34.334117z" p-id="10535"></path><path d="M633.023658 902.927059a417.759144 417.759144 0 0 0 166.243936-97.121198c9.933348-9.484321 10.38785-25.298824 0.903529-35.686674-9.489797-9.938824-25.298824-10.38785-35.69215-0.903529a356.373904 356.373904 0 0 1-145.90631 85.380791c-13.103914 4.063144-20.781176 18.070588-16.718032 31.169027 4.06862 13.552941 18.070588 20.781176 31.169027 17.167059z" p-id="10536"></path><path d="M426.13185 889.379594c15.809027-33.879615 50.143144-56.018824 88.540407-56.018824 38.397262 0 72.276877 22.139209 88.540406 56.018824a25.10169 25.10169 0 0 0 33.425112 12.194909 25.10169 25.10169 0 0 0 12.200385-33.425113c-24.395294-51.501176-75.896471-84.931765-133.716877-84.931764-57.820406 0-109.77061 33.430588-133.711401 84.931764a25.10169 25.10169 0 0 0 12.194909 33.425113c11.745882 5.875679 26.65138 0.454503 32.527059-12.194909z" p-id="10537"></path><path d="M231.434952 806.714866a405.695658 405.695658 0 0 0 164.880428 96.212193c13.103914 4.06862 27.105882-3.614118 31.169026-16.70708 4.06862-13.103914-3.614118-27.105882-16.712556-31.174503a359.204963 359.204963 0 0 1-145.00278-84.471786c-9.944299-9.489797-25.753326-9.035294-35.69215 0.903529-9.484321 9.484321-9.035294 25.74785 1.358032 35.232171z" p-id="10538"></path><path d="M146.05416 622.854845c53.757262 0 97.575701 43.818439 97.575701 97.5757 0 19.423144-5.875679 37.948235-16.263529 54.211765-7.677262 11.740406-4.517647 27.100406 6.779208 34.777669 11.740406 7.682738 27.105882 4.517647 34.783144-6.773733 15.809027-23.940791 24.844321-52.404706 24.844321-81.766674 0-81.761198-66.406674-147.713369-147.718845-147.713369a25.255016 25.255016 0 0 0-25.298823 25.298824c0.454503 13.098439 11.745882 24.389818 25.298823 24.389818z" p-id="10539"></path><path d="M140.632984 622.854845h5.421176a25.255016 25.255016 0 0 0 25.298824-25.298824 25.255016 25.255016 0 0 0-25.298824-25.298823h-8.131764c-14.001968 0.909005-24.395294 12.649412-23.491765 26.656855 0.454503 14.001968 12.649412 24.844321 26.202353 23.940792z" p-id="10540"></path><path d="M114.885134 415.508535A407.896984 407.896984 0 0 0 104.042781 509.470118c0 32.072556 3.614118 63.247059 10.842353 93.961583 3.159615 13.552941 16.712556 21.684706 30.265497 18.519615 13.552941-3.159615 21.684706-16.712556 18.519615-30.265498a362.605519 362.605519 0 0 1-9.484321-82.670203c0-28.003936 3.159615-55.564321 9.484321-82.664727 3.165091-13.552941-5.421176-27.105882-18.519615-30.265498-13.552941-2.710588-27.105882 5.870203-30.265497 19.423145z" p-id="10541"></path><path d="M146.05416 396.08539h-5.421176c-14.001968-0.903529-25.74785 9.938824-26.65138 23.491765-0.903529 14.001968 9.938824 25.74785 23.491765 26.65138h8.131765a25.255016 25.255016 0 0 0 25.298823-25.298824c0.449027-13.552941-10.842353-24.844321-24.849797-24.844321z" p-id="10542"></path><path d="M227.820834 244.297925a98.084963 98.084963 0 0 1 16.26353 54.211765c0 53.757262-43.823914 97.575701-97.581177 97.5757a25.255016 25.255016 0 0 0-25.298823 25.298824 25.255016 25.255016 0 0 0 25.298823 25.298823c81.766674 0 147.718845-66.41215 147.718845-147.72432 0-29.361968-8.580791-57.825882-24.844321-81.761198-7.677262-11.745882-23.037262-14.456471-34.783144-6.779209-11.29138 6.779209-14.456471 22.588235-6.773733 33.879615z" p-id="10543"></path><path d="M396.31538 116.007701c-61.889027 18.974118-118.351401 51.950203-164.880428 96.217668-9.938824 9.489797-10.393326 25.298824-0.90353 35.686674 9.484321 9.938824 25.298824 10.393326 35.686674 0.903529 41.10785-39.300791 90.347465-68.208257 145.002781-84.471786 13.103914-4.06862 20.781176-18.070588 16.718032-31.169027-4.517647-13.552941-18.519615-20.781176-31.623529-17.167058z" p-id="10544"></path><path d="M603.212663 129.560642c-15.814503 33.879615-50.143144 56.013348-88.545882 56.013347-38.391786 0-72.271401-22.133733-88.534931-56.018823a25.10169 25.10169 0 0 0-33.430588-12.194909 25.10169 25.10169 0 0 0-12.194909 33.430588c24.395294 51.495701 75.890995 84.926289 133.711401 84.926289 57.825882 0 109.776086-33.430588 133.716877-84.931765a25.10169 25.10169 0 0 0-12.200385-33.425112c-11.740406-5.870203-26.65138-0.449027-32.527059 12.200385z" p-id="10545"></path><path d="M799.267594 213.583401c-46.983529-45.176471-103.900406-78.601583-166.243936-97.126674-13.098439-4.063144-27.105882 3.614118-31.169027 16.718032-4.063144 13.098439 3.614118 27.105882 16.718032 31.169027a356.373904 356.373904 0 0 1 145.90631 85.375316 25.10169 25.10169 0 0 0 35.69215-0.90353c9.484321-9.938824 9.035294-25.74785-0.903529-35.232171z" p-id="10546"></path><path d="M884.642909 396.08539c-53.757262 0-97.575701-43.818439-97.5757-97.581176 0-19.423144 5.421176-37.488257 15.814502-53.302759 7.677262-11.745882 4.063144-27.105882-7.228235-34.783145-11.745882-7.677262-27.105882-4.063144-34.783144 7.228235-15.36 23.940791-23.946267 51.501176-23.946268 80.863145 0 81.761198 66.406674 147.718845 147.718845 147.718845a25.255016 25.255016 0 0 0 25.298824-25.298824c0-13.552941-11.296856-24.844321-25.298824-24.844321z" p-id="10547"></path><path d="M889.160556 396.08539h-4.063144a25.255016 25.255016 0 0 0-25.298824 25.298824 25.255016 25.255016 0 0 0 25.298824 25.298823h6.324706c14.001968-0.454503 24.389818-12.200385 23.940791-26.207828-0.903529-14.001968-12.649412-24.844321-26.202353-24.389819z" p-id="10548"></path></svg>