<?xml version="1.0" standalone="no"?><!DOCTYPE svg PUBLIC "-//W3C//DTD SVG 1.1//EN" "http://www.w3.org/Graphics/SVG/1.1/DTD/svg11.dtd"><svg t="1597043177638" class="icon" viewBox="0 0 1024 1024" version="1.1" xmlns="http://www.w3.org/2000/svg" p-id="10403" xmlns:xlink="http://www.w3.org/1999/xlink" width="200" height="200"><defs><style type="text/css"></style></defs><path d="M731.355037 458.861519C734.487273 210.314267 530.437476 97.055487 514.737968 87.614973c-12.556321 6.29185-219.749305 119.556107-216.61707 371.246546-40.806674 28.316064-84.762011 75.513155-78.481112 157.312684 6.275422 81.799529 87.899722 138.431658 119.293262 135.282995 31.39354-3.143187 21.97493-25.167401 21.974931-25.167401l9.418609-44.048428s47.093048 69.215829 59.649369 69.215829h169.524022c15.694032 0 59.649369-69.215829 59.649369-69.215829l9.418609 44.048428s-9.41861 22.024214 21.974931 25.167401c31.39354 3.148663 113.012364-53.483465 119.293262-135.282995 6.275422-81.805005-37.674439-128.99662-78.481113-157.312684zM514.737968 455.718332c-6.280898 0-81.624299-3.148663-91.042909-91.240043 3.143187-84.948193 84.767487-91.240043 91.042909-94.38323 6.280898 0 87.899722 9.435037 91.042909 94.38323-9.41861 88.09138-84.767487 91.240043-91.042909 91.240043z m-47.093048 431.027336c0 9.435037-9.41861 18.875551-18.837219 18.875551s-18.837219-9.440513-18.83722-18.875551v-91.240042c0-9.440513 9.41861-18.881027 18.83722-18.881027s18.837219 9.440513 18.837219 18.881027v91.240042z m69.067978 47.191615c0 9.435037-9.41861 18.875551-18.837219 18.875551s-18.837219-9.440513-18.837219-18.875551v-135.28847c0-9.435037 9.41861-18.875551 18.837219-18.875551s18.837219 9.440513 18.837219 18.875551v135.28847z m62.787081-69.215828c0 9.435037-9.41861 18.875551-18.83722 18.87555s-18.837219-9.440513-18.837219-18.87555v-66.072642c0-9.435037 9.41861-18.875551 18.837219-18.875551s18.837219 9.440513 18.83722 18.875551v66.072642z" p-id="10404"></path></svg>