<svg xmlns="http://www.w3.org/2000/svg" viewBox="0 0 1024 1024" version="1.1"><path d="M851.729067 679.970133l-117.9648-117.9648 2.730666-23.04c1.024-8.874667 1.604267-17.885867 1.604267-26.965333v-136.533333a225.28 225.28 0 1 0-450.56 0v136.533333c0 13.5168 1.160533 26.862933 3.515733 39.936l4.369067 24.576-103.458133 103.458133a54.613333 54.613333 0 0 0 38.6048 93.218134h582.519466a54.613333 54.613333 0 0 0 38.638934-93.218134z m33.792-33.792a102.4 102.4 0 0 1-72.430934 174.7968H230.570667a102.4 102.4 0 0 1-72.3968-174.7968l85.845333-85.845333A274.705067 274.705067 0 0 1 239.752533 512v-136.533333a273.066667 273.066667 0 1 1 546.133334 0v136.533333c0 11.025067-0.682667 21.9136-1.9456 32.631467l101.5808 101.546666zM349.4912 781.448533l47.7184 2.184534a114.961067 114.961067 0 0 0 2.218667 28.228266 112.7424 112.7424 0 0 0 110.318933 89.634134 112.64 112.64 0 0 0 112.366933-120.285867l47.684267-3.208533a162.474667 162.474667 0 0 1-0.375467 26.4192 160.426667 160.426667 0 0 1-319.931733-22.971734z" p-id="1950"></path></svg>