<?xml version="1.0" standalone="no"?><!DOCTYPE svg PUBLIC "-//W3C//DTD SVG 1.1//EN" "http://www.w3.org/Graphics/SVG/1.1/DTD/svg11.dtd"><svg t="1597043157455" class="icon" viewBox="0 0 1024 1024" version="1.1" xmlns="http://www.w3.org/2000/svg" p-id="10019" xmlns:xlink="http://www.w3.org/1999/xlink" width="200" height="200"><defs><style type="text/css"></style></defs><path d="M600.157091 215.291893c0-49.283422-39.936-89.230374-89.230374-89.230374-49.283422 0-89.213947 39.952428-89.213947 89.230374 0 49.283422 39.936 89.230374 89.213947 89.230374 49.294374 0 89.230374-39.952428 89.230374-89.230374z m0 284.589861c0-49.283422-39.936-89.230374-89.230374-89.230374-49.283422 0-89.213947 39.952428-89.213947 89.230374 0 49.283422 39.936 89.230374 89.213947 89.230374 49.294374 0 89.230374-39.952428 89.230374-89.230374z m0 302.381176c0-49.283422-39.936-89.23585-89.230374-89.23585-49.283422 0-89.213947 39.952428-89.213947 89.230375 0 49.283422 39.936 89.230374 89.213947 89.230374 49.294374 0 89.230374-39.946952 89.230374-89.230374z" p-id="10020"></path></svg>