<?xml version="1.0" standalone="no"?><!DOCTYPE svg PUBLIC "-//W3C//DTD SVG 1.1//EN" "http://www.w3.org/Graphics/SVG/1.1/DTD/svg11.dtd"><svg t="1597043168008" class="icon" viewBox="0 0 1024 1024" version="1.1" xmlns="http://www.w3.org/2000/svg" p-id="10147" xmlns:xlink="http://www.w3.org/1999/xlink" width="200" height="200"><defs><style type="text/css"></style></defs><path d="M300.754824 141.218909v41.989476a62.98969 62.98969 0 0 0 59.298909 62.885647l3.69078 0.109519h293.953712a62.98969 62.98969 0 0 0 62.885647-59.298909l0.109518-3.696257V141.224385h104.979166a31.497583 31.497583 0 0 1 31.497583 31.492107v713.886802a31.497583 31.497583 0 0 1-31.497583 31.497583H195.775658A31.497583 31.497583 0 0 1 164.278075 886.597818V172.711016a31.497583 31.497583 0 0 1 31.497583-31.492107h104.979166z m251.964235 514.414888H342.749775a31.497583 31.497583 0 1 0 0 62.98969h209.969284a31.497583 31.497583 0 0 0 0-62.98969z m0-146.974118H342.749775a31.497583 31.497583 0 0 0 0 62.98969h209.969284a31.497583 31.497583 0 0 0 0-62.98969z m115.482011-146.974118H342.749775a31.497583 31.497583 0 0 0 0 62.984214h325.451295a31.497583 31.497583 0 0 0 0-62.989689z m-21.000214-262.461604c5.799016 0 10.497369 4.698353 10.497369 10.497369V172.711016a10.497369 10.497369 0 0 1-10.497369 10.497369H374.247358a10.497369 10.497369 0 0 1-10.502845-10.497369V109.721326c0-5.799016 4.703829-10.497369 10.502845-10.497369h272.953498z" p-id="10148"></path></svg>