<svg xmlns="http://www.w3.org/2000/svg" viewBox="0 0 1024 1024" version="1.1"><path d="M472.379077 239.458462c-34.146462 4.411077-83.889231 22.528-107.52 39.148307a56.713846 56.713846 0 0 1-8.270769 4.923077 198.498462 198.498462 0 0 0-17.880616 12.996923c-31.389538 24.969846-57.737846 58.210462-72.664615 91.254154-7.995077 17.762462-10.594462 25.009231-18.038154 51.475692-2.441846 9.058462-5.907692 13.154462-11.106461 13.154462-9.019077 0-55.650462 18.904615-70.025847 28.278154-10.752 7.246769-36.785231 29.262769-41.472 35.367384-24.418462 31.586462-28.947692 39.463385-36.745846 62.621539a173.568 173.568 0 0 0-9.531077 58.564923c0 52.460308 19.062154 96.374154 58.092308 133.395692 24.103385 22.843077 52.381538 39.305846 81.486769 47.025231 34.343385 9.058462 24.260923 8.861538 292.194462 8.861538 225.240615 0 248.477538-0.315077 263.561846-2.756923 18.353231-3.150769 45.764923-10.043077 49.073231-12.366769 1.181538-0.787692 4.844308-2.638769 8.152615-3.780923 7.955692-2.953846 26.348308-14.296615 40.054154-24.654769a187.904 187.904 0 0 0 72.625231-145.880616c0-16.108308-6.734769-53.090462-11.264-61.321846a22.685538 22.685538 0 0 1-2.599385-6.931692c0-2.953846-13.351385-27.608615-16.974769-31.744a117.051077 117.051077 0 0 1-7.995077-10.358154c-6.774154-10.161231-15.438769-18.904615-32.256-32.216615-16.817231-13.666462-27.726769-20.716308-36.391385-24.024616a39.345231 39.345231 0 0 1-7.995077-3.584c-2.402462-1.654154-33.634462-12.524308-42.299077-14.651077-3.308308-0.827077-17.723077-1.969231-32.098461-2.638769-29.144615-0.984615-50.254769 0.984615-64.984615 6.262154-5.238154 1.811692-13.193846 4.450462-17.723077 5.907692-10.555077 3.308308-32.059077 14.493538-42.299077 21.858462-21.858462 15.950769-66.953846 54.272-91.72677 78.139077-9.728 9.373538-124.849231 114.609231-162.816 148.834461-9.531077 8.546462-23.748923 21.858462-31.744 29.420308l-14.375384 13.666462-28.987077-1.181539c-16.108308-0.472615-35.84-2.126769-44.189539-3.268923-45.095385-7.089231-82.195692-39.305846-94.523076-82.235077-3.623385-12.484923-3.977846-44.228923-0.669539-56.713846 5.710769-21.385846 22.173538-46.08 40.369231-60.534154 19.298462-15.281231 52.893538-26.624 78.926769-26.624 31.192615 0 65.890462 15.281231 96.571077 42.417231 5.907692 5.12 14.572308 12.327385 19.062154 15.950769 4.726154 3.623385 13.390769 10.830769 19.101538 15.950769 5.907692 5.238154 11.618462 9.531077 12.996923 9.531077 3.150769 0 9.846154-5.435077 34.500923-28.278154 11.618462-10.870154 21.149538-20.716308 21.149539-21.897846 0-1.142154-7.640615-8.192-16.817231-15.596307a461.784615 461.784615 0 0 1-19.771077-16.46277c-3.268923-3.623385-34.343385-27.451077-50.294154-38.793846a218.269538 218.269538 0 0 0-54.075077-26.978461c-8.507077-3.150769-15.793231-6.262154-16.147692-7.404308-0.866462-2.126769 10.082462-31.901538 15.281231-41.117538 10.752-19.574154 24.418462-36.155077 44.189538-53.956924 18.038154-16.108308 47.340308-31.547077 70.774154-37.139692 3.820308-0.787692 11.933538-2.953846 18.195693-4.450461 8.310154-2.126769 17.880615-2.953846 36.430769-2.953847 21.661538 0 27.569231 0.669538 43.323077 4.450462 34.500923 8.546462 57.737846 19.574154 81.32923 38.990769 15.084308 12.484923 30.72 29.932308 40.566154 45.843693 4.529231 7.246769 8.861538 13.508923 9.570462 13.981538 0.669538 0.354462 6.222769-0.472615 12.445538-1.811692 6.262154-1.299692 23.433846-2.953846 38.203077-3.426462 30.129231-1.339077 30.995692-1.654154 24.576-13.154461a104.644923 104.644923 0 0 1-5.513846-12.681847 63.527385 63.527385 0 0 0-6.104615-12.327384 69.356308 69.356308 0 0 1-4.844308-8.231385c-3.820308-7.561846-19.574154-27.608615-34.343385-43.716923-17.841231-19.416615-49.742769-42.141538-76.130461-54.272-8.979692-4.292923-17.841231-8.388923-19.574154-9.216-3.150769-1.496615-8.664615-3.308308-31.547077-10.043077-28.987077-8.704-74.24-11.500308-110.473846-6.892307z m295.817846 286.326153c31.901538 7.719385 49.624615 17.565538 68.332308 38.281847 19.416615 21.228308 26.702769 40.290462 27.569231 71.364923 0.669538 19.298462 0.354462 22.212923-3.820308 34.382769-5.907692 17.289846-11.618462 28.120615-20.48 38.321231-16.817231 19.574154-41.235692 34.697846-64.315077 39.778461-5.710769 1.181538-21.858462 2.993231-35.721846 3.820308-32.059077 1.969231-292.509538 2.126769-293.730462 0.157538-0.512-0.827077 17.841231-18.747077 40.920616-39.778461 23.04-21.267692 46.985846-43.283692 53.248-49.230769 18.707692-17.408 90.505846-82.510769 100.745846-91.254154 5.198769-4.608 10.24-9.176615 10.909538-10.200616 2.244923-3.268923 25.993846-19.534769 36.233846-24.654769 5.041231-2.638769 15.084308-6.419692 22.212923-8.546461 7.089231-1.969231 13.863385-3.938462 14.729847-4.292924 5.041231-1.614769 33.792-0.472615 43.165538 1.811693z" p-id="2550"></path></svg>