<svg xmlns="http://www.w3.org/2000/svg" viewBox="0 0 1024 1024" version="1.1"><path d="M858.6 37.8l-77-10.1H241.3l-77 10.1c-17 2.1-29.8 16.6-29.7 33.8v214.1c-0.1 17.2 12.7 31.7 29.7 33.8l81 10.1h540.3l77-10.1c17-2.1 29.8-16.6 29.7-33.8V71.5c0.1-18.6-15-33.7-33.7-33.7z m-37.8 218.1l-46.6 6.1H248.1l-47.3-6.1V101.2l42.5-6.1h530.8l45.2 6.1 1.5 154.7z m0 0M595.9 124.9c-9.3 0-16.9 7.6-16.9 16.9v78.3c0 9.3 7.6 16.9 16.9 16.9s16.9-7.6 16.9-16.9v-78.3c0-9.4-7.6-16.9-16.9-16.9z m110.8 0c-9.3 0-16.9 7.6-16.9 16.9v78.3c0 9.3 7.6 16.9 16.9 16.9 9.3 0 16.9-7.6 16.9-16.9v-78.3c-0.1-9.4-7.6-16.9-16.9-16.9zM858.6 370l-77-10.1H241.3l-77 10.1c-17 2.1-29.8 16.6-29.7 33.8v214.1c-0.1 17.2 12.7 31.7 29.7 33.8l81 10.1h540.3l77-10.1c17-2.1 29.8-16.6 29.7-33.8V403.8c0.1-18.6-15-33.8-33.7-33.8z m-37.8 218.2l-46.6 6.1H248.1l-47.9-6.1V432.8l43.2-6.1h530.8l45.2 6.1 1.4 155.4z m0 0M595.9 457.2c-9.3 0-16.9 7.6-16.9 16.9v78.3c0 9.3 7.6 16.9 16.9 16.9s16.9-7.6 16.9-16.9V474c0-9.3-7.6-16.8-16.9-16.8z m110.8 0c-9.3 0-16.9 7.6-16.9 16.9v78.3c0 9.3 7.6 16.9 16.9 16.9 9.3 0 16.9-7.6 16.9-16.9V474c-0.1-9.3-7.6-16.8-16.9-16.8zM858.6 703l-77-10.1H241.3l-79 10.1c-17 2.1-29.8 16.6-29.7 33.8v214.8c-0.1 17.2 12.7 31.7 29.7 33.8l81 10.1h540.3l77-10.1c17.1-2.1 29.8-16.6 29.7-33.8V736.1c-0.3-17.7-14.1-32.1-31.7-33.1z m-37.8 218.1l-43.2 6.1H248.1l-47.3-6.1V765.8l43.2-6.1h530.1l45.2 6.1 1.5 155.3z m0 0M595.9 789.4c-9.3 0-16.9 7.6-16.9 16.9v78.3c0 9.3 7.6 16.9 16.9 16.9s16.9-7.6 16.9-16.9v-78.3c0-9.3-7.6-16.9-16.9-16.9z m110.8 0c-9.3 0-16.9 7.6-16.9 16.9v78.3c0 9.3 7.6 16.9 16.9 16.9 9.3 0 16.9-7.6 16.9-16.9v-78.3c-0.1-9.3-7.6-16.9-16.9-16.9zM98.8 178.2c9.1-1.7 15.1-10.5 13.5-19.6-1.7-9.1-10.5-15.1-19.6-13.5L42 155.2c-8 1.6-13.7 8.7-13.5 16.9v287c-0.2 8.2 5.5 15.3 13.5 16.9l50.7 10.1c9.3 0 16.9-7.6 16.9-16.9 0-9.3-7.6-16.9-16.9-16.9L58.3 445V185l40.5-6.8z m889.5-23.6l-50.6-10.1c-5.9-1.2-12 0.8-16 5.4-4 4.5-5.3 10.8-3.4 16.5 1.9 5.7 6.7 10 12.6 11.2L968 185v260l-37.1 7.4c-9.3 0-16.9 7.6-16.9 16.9 0 9.3 7.6 16.9 16.9 16.9l50.6-10.1c8-1.6 13.7-8.7 13.5-16.9V171.5c1.3-6.5-1.4-13.1-6.7-16.9zM98.8 567.9c9.1-1.7 15.1-10.5 13.5-19.6-1.7-9.1-10.5-15.2-19.6-13.5L42 544.9c-8 1.6-13.7 8.7-13.5 16.9v287.7c-0.2 8.2 5.5 15.3 13.5 16.9l50.7 10.1c9.3 0 16.9-7.6 16.9-16.9 0-9.3-7.6-16.9-16.9-16.9L58.3 838V576.7l40.5-8.8z m889.5-21.6l-50.6-10.1c-9.1-1.9-18.1 4-19.9 13.2-1.9 9.1 4 18.1 13.2 19.9l37.1 7.4V838l-37.1 7.4c-9.3 0-16.9 7.6-16.9 16.9 0 9.3 7.6 16.9 16.9 16.9l50.6-10.1c8-1.6 13.7-8.7 13.5-16.9V562.5c0.9-6.2-1.7-12.5-6.8-16.2z m0 0" p-id="1320"></path></svg>