<svg xmlns="http://www.w3.org/2000/svg" viewBox="0 0 1024 1024" version="1.1"><path d="M322.953846 157.538462C315.076923 157.538462 315.076923 165.415385 307.2 165.415385c-7.876923 0-15.753846 7.876923-7.876923 15.753846 0 7.876923 7.876923 7.876923 15.753846 7.876923 0 0 0 0 7.876923 0 7.876923 0 7.876923 0 15.753846 0 7.876923 0 15.753846-7.876923 7.876923-15.753846C338.707692 165.415385 330.830769 157.538462 322.953846 157.538462L322.953846 157.538462zM259.938462 189.046154C189.046154 228.430769 149.661538 299.323077 149.661538 378.092308c0 7.876923 7.876923 15.753846 15.753846 15.753846 7.876923 0 15.753846-7.876923 15.753846-15.753846 0-63.015385 31.507692-126.030769 94.523077-165.415385 7.876923-7.876923 7.876923-15.753846 7.876923-23.630769C275.692308 181.169231 259.938462 181.169231 259.938462 189.046154L259.938462 189.046154zM834.953846 1024c-31.507692 0-55.138462-15.753846-63.015385-47.261538L764.061538 945.230769C716.8 945.230769 708.923077 937.353846 708.923077 929.476923l-55.138462-55.138462 7.876923-70.892308-70.892308 7.876923L496.246154 724.676923C456.861538 740.430769 417.476923 748.307692 370.215385 748.307692 165.415385 748.307692 0 575.015385 0 370.215385S165.415385 0 370.215385 0c204.8 0 370.215385 165.415385 370.215385 370.215385 0 39.384615-7.876923 78.769231-23.630769 118.153846l267.815385 267.815385c7.876923 7.876923 15.753846 23.630769 23.630769 39.384615l15.753846 126.030769c0 31.507692-15.753846 63.015385-55.138462 70.892308L834.953846 1024zM842.830769 953.107692 842.830769 953.107692C842.830769 953.107692 842.830769 953.107692 842.830769 953.107692zM756.184615 866.461538c7.876923 0 23.630769 7.876923 39.384615 7.876923l23.630769 0 23.630769 70.892308 102.4-23.630769-7.876923-118.153846L630.153846 512l7.876923-23.630769c15.753846-39.384615 23.630769-70.892308 23.630769-110.276923C669.538462 212.676923 535.630769 78.769231 370.215385 78.769231 212.676923 78.769231 78.769231 212.676923 78.769231 370.215385s133.907692 291.446154 291.446154 291.446154c39.384615 0 78.769231-7.876923 118.153846-23.630769L519.876923 630.153846l102.4 102.4 126.030769-7.876923-15.753846 126.030769L756.184615 866.461538zM953.107692 921.6 953.107692 921.6 953.107692 921.6z" p-id="1560"></path></svg>