<?xml version="1.0" standalone="no"?><!DOCTYPE svg PUBLIC "-//W3C//DTD SVG 1.1//EN" "http://www.w3.org/Graphics/SVG/1.1/DTD/svg11.dtd"><svg t="1586608515358" class="icon" viewBox="0 0 1031 1024" version="1.1" xmlns="http://www.w3.org/2000/svg" p-id="4212" xmlns:xlink="http://www.w3.org/1999/xlink" width="201.3671875" height="200"><defs><style type="text/css"></style></defs><path d="M514.119455 606.953773a55.914537 55.914537 0 0 1-29.428704-7.357176l-213.063815-123.894843a56.208824 56.208824 0 0 1-29.428704-48.557361v-247.201112a56.208824 56.208824 0 0 1 29.428704-48.557361L486.162187 7.491077a55.914537 55.914537 0 0 1 55.914537 0l214.240963 123.894843a56.208824 56.208824 0 0 1 29.428704 48.557361v247.495399a56.208824 56.208824 0 0 1-29.428704 48.557361l-214.240963 123.894843a55.914537 55.914537 0 0 1-27.957269 7.062889z m0-553.553919L298.112769 176.706123a2.94287 2.94287 0 0 0 0 2.648584v247.495399a2.94287 2.94287 0 0 0 0 2.648583l214.535251 123.894843 16.185787 22.954389-13.242917-22.954389 214.240964-123.600556a2.94287 2.94287 0 0 0 0-2.648583v-247.201112a2.94287 2.94287 0 0 0 0-2.648584l-214.240964-123.894843z" p-id="4213"></path><path d="M246.847967 185.18159l24.484682-46.968211 258.119161 134.489176-24.484682 46.968211z" p-id="4214"></path><path d="M487.22162 289.918347l52.971667-0.147144 0.765146 295.464186-52.971667 0.147144z" p-id="4215"></path><path d="M499.02253 272.761413l258.089732-134.489177 24.514111 46.99764-258.119161 134.489176zM270.449788 1023.958506a55.914537 55.914537 0 0 1-29.428704-7.357176L29.428704 892.706487a56.208824 56.208824 0 0 1-29.428704-48.557362v-247.201111a56.208824 56.208824 0 0 1 29.428704-48.557362l214.53525-123.894843a55.914537 55.914537 0 0 1 55.914538 0l214.240963 123.894843a56.208824 56.208824 0 0 1 29.428704 48.557362v247.495398a56.208824 56.208824 0 0 1-29.428704 48.557362l-214.240963 123.894843a55.914537 55.914537 0 0 1-29.428704 7.062889zM269.27264 470.993161l-214.829538 123.306269a2.94287 2.94287 0 0 0 0 2.648584v247.495398a2.94287 2.94287 0 0 0 0 2.648584L268.978353 971.281126l16.185787 22.954389-13.242917-22.954389 214.240964-123.894843a2.94287 2.94287 0 0 0 0-2.648584v-247.789685a2.94287 2.94287 0 0 0 0-2.648584L271.921223 470.993161z" p-id="4216"></path><path d="M2.795727 602.48061l24.455253-46.99764 258.119161 134.489176-24.455253 46.968211z" p-id="4217"></path><path d="M243.169379 706.658221l52.971667-0.117715 0.765147 295.464186-52.971667 0.117715z" p-id="4218"></path><path d="M254.911432 689.972146l258.119161-134.489176 24.484682 46.99764-258.119161 134.489176z" p-id="4219"></path><path d="M761.02628 1023.958506a55.914537 55.914537 0 0 1-29.428704-7.357176l-214.240963-123.894843a56.208824 56.208824 0 0 1-29.428704-48.557362v-247.201111a56.208824 56.208824 0 0 1 29.428704-48.557362l214.240963-123.894843a55.914537 55.914537 0 0 1 55.914537 0l214.535251 123.894843a56.208824 56.208824 0 0 1 29.428704 48.557362v247.495398a56.208824 56.208824 0 0 1-29.428704 48.557362l-214.535251 123.894843a55.914537 55.914537 0 0 1-26.485833 7.062889z m0-553.848206l-214.240964 123.894843a2.94287 2.94287 0 0 0 0 2.648583v247.495399a2.94287 2.94287 0 0 0 0 2.648584L759.554845 971.281126a2.94287 2.94287 0 0 0 2.94287 0l214.535251-123.894843 13.242917 22.954389-13.242917-22.954389a2.94287 2.94287 0 0 0 0-2.648584v-247.789685a2.94287 2.94287 0 0 0 0-2.648584L762.497715 470.993161z" p-id="4220"></path><path d="M493.431076 602.362895l24.484682-46.99764 258.089732 134.489176-24.425824 46.99764z" p-id="4221"></path><path d="M734.040159 706.864222l52.971667-0.147143 0.765146 295.464186-52.971667 0.147143z" p-id="4222"></path><path d="M745.605639 689.913289l258.119161-134.489177 24.484682 46.99764-258.119161 134.489177z" p-id="4223"></path></svg>