<?xml version="1.0" standalone="no"?><!DOCTYPE svg PUBLIC "-//W3C//DTD SVG 1.1//EN" "http://www.w3.org/Graphics/SVG/1.1/DTD/svg11.dtd"><svg t="1592462005264" class="icon" viewBox="0 0 1024 1024" version="1.1" xmlns="http://www.w3.org/2000/svg" p-id="4913" xmlns:xlink="http://www.w3.org/1999/xlink" width="200" height="200"><defs><style type="text/css"></style></defs><path d="M706.368 982.4l16-16.96c7.264 4.096 17.376 7.232 22.24 9.536v24.096c0 7.52 8.064 13.632 15.552 13.632h27.424c7.552 0 15.616-6.08 15.616-13.632v-24.096c4.864-2.304 15.008-5.44 22.24-9.6l16.512 17.024a13.376 13.376 0 0 0 19.136 0l19.328-19.36a13.856 13.856 0 0 0-0.064-19.456l-17.056-16.032c4.128-7.232 7.328-17.376 9.568-22.208h24.064c7.616 0 13.696-8.032 13.696-15.616v-27.36c0-7.648-6.048-15.648-13.696-15.648h-24.064c-2.24-4.832-5.504-15.008-9.568-22.304l16.992-16.544a13.44 13.44 0 0 0 0-19.104l-19.36-19.296a13.728 13.728 0 0 0-19.424 0.128l-16 16.96c-7.264-4.128-17.376-7.328-22.24-9.568v-24.064c0-7.584-8.064-13.728-15.616-13.728h-27.424c-7.488 0-15.552 6.112-15.552 13.728v24.064c-4.864 2.24-15.008 5.504-22.24 9.6l-16.512-16.992a13.44 13.44 0 0 0-19.136 0l-19.264 19.392a13.76 13.76 0 0 0 0 19.392l17.056 15.968c-4.128 7.328-7.328 17.472-9.632 22.304h-24c-7.552 0-13.696 8-13.696 15.648v27.36c0 7.52 6.112 15.616 13.696 15.616h24.064c2.24 4.832 5.504 15.008 9.568 22.208l-16.928 16.544a13.312 13.312 0 0 0 0 19.168l19.328 19.296a13.728 13.728 0 0 0 19.36-0.096h0.032z m67.584-168.096c34.048 0 61.632 27.552 61.632 61.664a61.632 61.632 0 1 1-123.328 0c0-34.08 27.616-61.664 61.696-61.664z" p-id="4914"></path><path d="M714.24 289.312a41.824 41.824 0 0 0 59.008-3.744l81.568-92.704a41.824 41.824 0 1 0-62.816-55.232l-81.568 92.672a41.632 41.632 0 0 0 3.808 59.008z m256.768 116.192l-122.048 18.56a41.824 41.824 0 0 0 12.544 82.688l122.048-18.56a41.792 41.792 0 1 0-12.544-82.688zM517.216 303.904h-3.648v-0.032a256.736 256.736 0 0 0-256.704 256.736v315.36h328.768a229.28 229.28 0 0 1 188.32-199.968v-115.392a256.704 256.704 0 0 0-256.736-256.704z m185.216 286.08a22.08 22.08 0 0 1-22.048-22.016 161.568 161.568 0 0 0-161.312-161.376h-3.648a21.984 21.984 0 1 1 0-44h3.648a205.536 205.536 0 0 1 205.312 205.344 22.016 22.016 0 0 1-21.952 22.048zM187.808 177.184l77.12 96.416a41.792 41.792 0 1 0 65.28-52.224L253.152 124.928a41.856 41.856 0 0 0-65.344 52.256z m38.016 724.448L193.344 1000.64h413.472a228.544 228.544 0 0 1-22.688-99.008H225.824z m101.088 80.704H221.088l20.48-62.4h147.68c-20.8 20.8-41.6 41.568-62.336 62.4z m153.344-804.16a41.856 41.856 0 0 0 83.168-5.344l-0.32-123.424a41.792 41.792 0 0 0-83.616-1.984l0.288 123.424c-0.032 2.496 0.16 4.928 0.48 7.328z m-264.704 279.488a41.856 41.856 0 0 0-32.768-49.248l-121.024-24.288a41.856 41.856 0 0 0-16.48 82.016l121.056 24.288a41.824 41.824 0 0 0 49.216-32.768z" p-id="4915"></path></svg>