<?xml version="1.0" standalone="no"?><!DOCTYPE svg PUBLIC "-//W3C//DTD SVG 1.1//EN" "http://www.w3.org/Graphics/SVG/1.1/DTD/svg11.dtd"><svg t="1600160653957" class="icon" viewBox="0 0 1024 1024" version="1.1" xmlns="http://www.w3.org/2000/svg" p-id="6088" xmlns:xlink="http://www.w3.org/1999/xlink" width="200" height="200"><defs><style type="text/css"></style></defs><path d="M944.355556 0a22.755556 22.755556 0 0 1 22.755555 22.755556v864.711111a22.755556 22.755556 0 0 1-22.755555 22.755555h-91.022223v-56.888889h56.888889v-796.444444h-682.666666V113.777778H170.666667V22.755556a22.755556 22.755556 0 0 1 22.755555-22.755556h750.933334z" p-id="6089"></path><path d="M830.577778 113.777778a22.755556 22.755556 0 0 1 22.755555 22.755555v864.711111a22.755556 22.755556 0 0 1-22.755555 22.755556H79.644444a22.755556 22.755556 0 0 1-22.755555-22.755556V136.533333a22.755556 22.755556 0 0 1 22.755555-22.755555h750.933334z m-34.133334 56.888889h-682.666666v796.444444h682.666666v-796.444444z" p-id="6090"></path><path d="M398.222222 625.777778v227.555555H170.666667v-227.555555h227.555555z m341.333334 0v227.555555H512v-227.555555h227.555556zM341.333333 682.666667h-113.777777v113.777777h113.777777v-113.777777z m341.333334 0h-113.777778v113.777777h113.777778v-113.777777z m-113.777778-398.222223v227.555556h-227.555556v-227.555556h227.555556zM512 341.333333h-113.777778v113.777778h113.777778v-113.777778zM682.666667 398.222222v227.555556H625.777778V455.111111h-56.888889v-56.888889h113.777778z m-341.333334 0V455.111111H284.444444v170.666667H227.555556v-227.555556h113.777777z" p-id="6091"></path></svg>