<?xml version="1.0" standalone="no"?><!DOCTYPE svg PUBLIC "-//W3C//DTD SVG 1.1//EN" "http://www.w3.org/Graphics/SVG/1.1/DTD/svg11.dtd"><svg t="1581061921354" class="icon" viewBox="0 0 1024 1024" version="1.1" xmlns="http://www.w3.org/2000/svg" p-id="11377" xmlns:xlink="http://www.w3.org/1999/xlink" width="200" height="200"><defs><style type="text/css"></style></defs><path d="M715.834514 160.8704a30.573714 30.573714 0 0 0-30.573714-30.573714H206.336a30.573714 30.573714 0 0 0-30.573714 30.573714v489.120914a30.573714 30.573714 0 0 0 61.147428 0V191.444114h448.351086a30.573714 30.573714 0 0 0 30.573714-30.573714zM505.022171 827.231086h-156.672v-514.779429h513.960229v152.853943a30.573714 30.573714 0 0 0 61.147429 0V281.877943a30.573714 30.573714 0 0 0-30.573715-30.573714H317.791086a30.573714 30.573714 0 0 0-30.573715 30.573714v575.926857a30.573714 30.573714 0 0 0 30.573715 30.573714h187.245714a30.573714 30.573714 0 1 0-0.014629-61.147428z m402.241829-204.068572h-39.160686c-3.701029-7.957943-8.923429-24.517486-15.637943-36.308114l27.662629-26.887314a21.869714 21.869714 0 0 0 0.029257-31.202743L848.574171 497.371429a22.337829 22.337829 0 0 0-31.597714 0.1024l-26.126628 27.706514c-11.776-6.685257-28.335543-11.893029-36.278858-15.579429v-39.175314c0-12.346514-13.077943-22.337829-25.409828-22.337829h-44.675657c-12.331886 0-25.424457 9.991314-25.424457 22.337829v39.175314c-7.957943 3.6864-24.488229 8.938057-36.293486 15.623315l-26.887314-27.662629a21.869714 21.869714 0 0 0-31.202743-0.014629l-31.392915 31.597715a22.337829 22.337829 0 0 0 0.1024 31.597714l27.706515 26.126629c-6.699886 11.790629-11.893029 28.335543-15.579429 36.293485h-39.160686c-12.361143 0-22.352457 13.077943-22.352457 25.409829v44.661028c0 12.317257 9.991314 25.409829 22.352457 25.409829h39.175315c3.6864 7.957943 8.938057 24.502857 15.623314 36.293486l-27.662629 26.901943a21.855086 21.855086 0 0 0-0.014628 31.188114l31.583086 31.392914c8.718629 8.718629 22.864457 8.630857 31.597714-0.1024l26.126628-27.721143c11.790629 6.685257 28.335543 11.893029 36.293486 15.579429v39.175314c0 12.346514 13.077943 22.337829 25.3952 22.337829h44.661029c12.317257 0 25.409829-9.991314 25.409828-22.352457v-39.175315c7.957943-3.701029 24.502857-8.938057 36.308115-15.623314l26.901942 27.677257a21.855086 21.855086 0 0 0 31.188115 0.014629l31.392914-31.583086a22.337829 22.337829 0 0 0-0.1024-31.597714l-27.721143-26.126629c6.699886-11.790629 11.893029-28.320914 15.579429-36.278857h39.175314c12.346514 0 22.337829-13.077943 22.337829-25.409829v-44.661028c0.014629-12.331886-9.991314-25.409829-22.337829-25.409829zM706.808686 771.393829a100.498286 100.498286 0 1 1 0-200.981943 100.498286 100.498286 0 1 1 0 200.981943z" p-id="11378"></path></svg>