<svg xmlns="http://www.w3.org/2000/svg" viewBox="0 0 1024 1024" version="1.1"><path d="M757.333333 192h-490.666666c-12.8 0-21.333333 8.533333-21.333334 21.333333v597.333334c0 12.8 8.533333 21.333333 21.333334 21.333333h490.666666c12.8 0 21.333333-8.533333 21.333334-21.333333V213.333333c0-12.8-8.533333-21.333333-21.333334-21.333333z m-448 320c0 12.8-8.533333 21.333333-21.333333 21.333333s-21.333333-8.533333-21.333333-21.333333v-64c0-12.8 8.533333-21.333333 21.333333-21.333333s21.333333 8.533333 21.333333 21.333333v64z m448-192c0 23.466667-19.2 42.666667-42.666666 42.666667h-405.333334c-23.466667 0-42.666667-19.2-42.666666-42.666667v-64c0-23.466667 19.2-42.666667 42.666666-42.666667h405.333334c23.466667 0 42.666667 19.2 42.666666 42.666667v64zM309.333333 256h405.333334v64h-405.333334zM917.333333 0H106.666667C46.933333 0 0 46.933333 0 106.666667v810.666666c0 59.733333 46.933333 106.666667 106.666667 106.666667h810.666666c59.733333 0 106.666667-46.933333 106.666667-106.666667V106.666667c0-59.733333-46.933333-106.666667-106.666667-106.666667z m-96 810.666667c0 36.266667-27.733333 64-64 64h-490.666666c-36.266667 0-64-27.733333-64-64V213.333333c0-36.266667 27.733333-64 64-64h490.666666c36.266667 0 64 27.733333 64 64v597.333334z" p-id="960"></path></svg>