<svg xmlns="http://www.w3.org/2000/svg" viewBox="0 0 1024 1024" version="1.1"><path d="M116.778667 269.226667l343.338666-180.309334V0L42.666667 219.861333v498.944L460.117333 938.666667v-88.917334l-343.338666-180.352V269.269333zM563.882667 0v88.917333l343.338666 180.352v400.128l-343.338666 180.352V938.666667L981.333333 718.805333V219.861333L563.882667 0zM512 128L185.856 287.36 512 424.32l326.144-136.96L512 128z m341.333333 201.728l-313.514666 141.909333v127.018667L853.333333 451.754667v-122.026667z m0 176.810667l-313.514666 141.909333V768L853.333333 618.581333v-112.042666z m-369.152-34.901334L170.666667 329.728v122.026667l313.514666 144.426666v-124.544zM395.690667 526.506667c-17.706667-2.517333-32.853333-19.925333-32.853334-37.376s15.146667-29.866667 32.853334-24.917334c17.706667 4.992 32.853333 19.925333 32.853333 37.376a25.173333 25.173333 0 0 1-32.853333 24.917334zM170.666667 506.538667v112.042666L484.181333 768v-119.552L170.666667 506.538667z m225.024 194.218666c-17.706667-2.474667-32.853333-19.925333-32.853334-37.333333 0-17.450667 15.146667-29.866667 32.853334-24.917333 17.706667 4.992 32.853333 19.925333 32.853333 37.333333a25.173333 25.173333 0 0 1-32.853333 24.917333z" p-id="1380"></path></svg>