<svg xmlns="http://www.w3.org/2000/svg" viewBox="0 0 1024 1024" version="1.1"><path d="M764.849231 845.981538a27.569231 27.569231 0 0 1-55.138462 0 180.381538 180.381538 0 1 0-360.763077 0 27.569231 27.569231 0 0 1-55.138461 0 235.52 235.52 0 0 1 471.04 0zM529.329231 665.6a200.861538 200.861538 0 1 1 0-401.723077 200.861538 200.861538 0 0 1 0 401.723077z m0-55.138462a145.723077 145.723077 0 1 0 0-291.446153 145.723077 145.723077 0 0 0 0 291.446153zM834.166154 395.421538a27.569231 27.569231 0 0 1-55.138462 0c0-24.142769-3.426462-47.852308-10.082461-70.498461a250.052923 250.052923 0 0 0-275.298462-176.679385 249.974154 249.974154 0 0 0-213.779692 236.386462 27.569231 27.569231 0 1 1-55.099077-2.363077 306.569846 306.569846 0 0 1 6.616615-51.593846 305.112615 305.112615 0 0 1 344.969847-236.465231 305.191385 305.191385 0 0 1 245.484307 215.118769c8.152615 27.766154 12.327385 56.674462 12.327385 86.094769zM267.421538 333.981538a27.569231 27.569231 0 0 1 4.450462 54.941539 180.499692 180.499692 0 0 0-162.540308 212.676923 180.696615 180.696615 0 0 0 124.376616 139.579077 27.569231 27.569231 0 0 1-16.187077 52.696615 235.835077 235.835077 0 0 1-164.155077-257.063384 235.638154 235.638154 0 0 1 214.016-202.83077zM830.109538 761.028923a27.569231 27.569231 0 0 1-15.950769-52.775385A146.077538 146.077538 0 0 0 917.661538 568.713846a145.998769 145.998769 0 0 0-128.787692-144.738461l-1.929846-0.236308-2.796308-0.236308-2.087384-0.157538a27.569231 27.569231 0 1 1 3.780923-55.020308l2.835692 0.236308 3.859692 0.354461a201.334154 201.334154 0 0 1 23.867077 3.899077A201.137231 201.137231 0 0 1 972.8 568.713846a201.216 201.216 0 0 1-142.690462 192.315077z" p-id="2310"></path></svg>