<svg t="1585051006108" class="icon" viewBox="0 0 1074 1024" version="1.1" xmlns="http://www.w3.org/2000/svg" p-id="6884" width="200" height="200"><path d="M589.552524 288.217443a27.1175 27.1175 0 0 0 30.498148-12.275188l52.28254-87.824543a27.1175 27.1175 0 1 0-46.605943-27.750242l-1.807833 3.14563V27.166311a27.1175 27.1175 0 0 0-54.235 0v234.909862a27.1175 27.1175 0 0 0 19.868088 26.14127z" fill="#666666" p-id="6885"></path><path d="M415.223157 138.311904a27.1175 27.1175 0 0 0 37.169053-9.43689l1.807833-3.14563v136.346789a27.1175 27.1175 0 0 0 54.235 0V27.166311a27.1175 27.1175 0 0 0-50.420471-13.88416l-52.300618 87.842621a27.1175 27.1175 0 0 0 9.509203 37.187132z" fill="#666666" p-id="6886"></path><path d="M488.566955 735.782738a27.1175 27.1175 0 0 0-30.48007 12.275188l-52.300618 87.824543a27.1175 27.1175 0 0 0 46.605943 27.76832l1.807833-3.163709v136.346789a27.1175 27.1175 0 0 0 54.235 0V761.942086a27.1175 27.1175 0 0 0-19.868088-26.159348z" fill="#666666" p-id="6887"></path><path d="M662.9144 885.706355a27.1175 27.1175 0 0 0-37.187131 9.418812l-1.807833 3.163708v-136.346789a27.1175 27.1175 0 0 0-54.235 0v234.891783a27.1175 27.1175 0 0 0 50.420471 13.88416l52.28254-87.842621a27.1175 27.1175 0 0 0-9.473047-37.169053z" fill="#666666" p-id="6888"></path><path d="M1046.934354 551.600679h-235.018331a27.1175 27.1175 0 0 0-13.88416 50.402393l87.842621 52.300618a27.1175 27.1175 0 0 0 27.750241-46.587864l-3.163708-1.807834h136.473337a27.1175 27.1175 0 0 0 0-54.234999z" fill="#666666" p-id="6889"></path><path d="M811.916023 490.477835h235.018331a27.1175 27.1175 0 0 0 13.88416-50.420472l-87.842621-52.300618a27.1175 27.1175 0 0 0-27.750241 46.605943l3.163708 1.807834h-136.473337a27.1175 27.1175 0 0 0 0 54.234999z" fill="#666666" p-id="6890"></path><path d="M27.1175 490.477835h234.891783a27.1175 27.1175 0 0 0 13.88416-50.420472l-87.824543-52.282539a27.1175 27.1175 0 1 0-27.750241 46.587864l3.163708 1.807834H27.1175a27.1175 27.1175 0 0 0 0 54.234999z" fill="#666666" p-id="6891"></path><path d="M262.009283 551.600679H27.1175a27.1175 27.1175 0 0 0-13.88416 50.402393l87.842621 52.300618a26.810168 26.810168 0 0 0 13.848003 3.832607 27.1175 27.1175 0 0 0 13.902238-50.420471l-3.163708-1.807834h136.346789a27.1175 27.1175 0 0 0 0-54.234999z" fill="#666666" p-id="6892"></path><path d="M675.876565 453.399173a133.038454 133.038454 0 0 0-134.683582-108.289216c-75.603589 0-112.917269 60.381633-126.765273 90.391666-42.176751 8.858383-101.039804 40.206213-101.039804 115.050513 0 74.301949 59.043836 109.988579 117.509166 112.392997a27.135578 27.135578 0 1 0 2.223635-54.234999c-15.384662-0.632742-65.570115-6.707062-65.570115-58.212233 0-55.916285 61.303628-62.894521 68.173395-63.491106a27.1175 27.1175 0 0 0 23.773008-18.855702c0.21694-0.686977 22.471368-68.824215 81.623675-68.824214 63.979221 0 80.466661 50.43855 84.859696 82.238337a27.316361 27.316361 0 0 0 25.309666 22.832935c9.744222 0.596585 58.374938 6.18279 58.374938 57.037142a45.033128 45.033128 0 0 1-14.245727 36.554389c-22.652152 19.886167-68.354178 18.801467-83.991936 16.740537a27.1175 27.1175 0 1 0-7.37596 53.728806 205.189082 205.189082 0 0 0 26.665542 1.608972 154.840924 154.840924 0 0 0 100.244358-31.13089 99.213893 99.213893 0 0 0 32.938723-77.501814 106.806793 106.806793 0 0 0-88.023405-108.03612z" fill="#1771B9" p-id="6893"></path><path d="M488.205388 622.503902a26.701698 26.701698 0 0 0-7.954466 19.163033 25.797781 25.797781 0 0 0 0.54235 5.242717 41.345148 41.345148 0 0 0 1.446266 5.061933 27.33444 27.33444 0 0 0 5.96585 8.858384 27.1175 27.1175 0 0 0 38.326067 0 38.109126 38.109126 0 0 0 3.434883-4.158017 22.7787 22.7787 0 0 0 2.350183-4.700367 24.676925 24.676925 0 0 0 1.62705-5.061933 26.774011 26.774011 0 0 0-7.412116-24.40575 27.98526 27.98526 0 0 0-38.326067 0z" fill="#1771B9" p-id="6894"></path></svg>
