<?xml version="1.0" standalone="no"?><!DOCTYPE svg PUBLIC "-//W3C//DTD SVG 1.1//EN" "http://www.w3.org/Graphics/SVG/1.1/DTD/svg11.dtd"><svg t="1603983186423" class="icon" viewBox="0 0 1366 1024" version="1.1" xmlns="http://www.w3.org/2000/svg" p-id="23559" xmlns:xlink="http://www.w3.org/1999/xlink" width="266.796875" height="200"><defs><style type="text/css"></style></defs><path d="M460.0576 526.839467l59.362133 0 0-29.681067-59.362133 0L460.0576 526.839467zM460.0576 645.5616l59.362133 0 0-29.681067-59.362133 0L460.0576 645.5616zM460.0576 408.1152l59.362133 0 0-29.681067-59.362133 0L460.0576 408.1152zM578.781867 645.5616l326.493867 0 0-29.681067L578.781867 615.880533 578.781867 645.5616zM578.781867 408.1152l326.493867 0 0-29.681067L578.781867 378.434133 578.781867 408.1152zM578.781867 526.839467l326.493867 0 0-29.681067L578.781867 497.1584 578.781867 526.839467zM994.318933 230.0288l-118.724267 0L875.594667 200.347733c0-16.392533-13.288533-29.681067-29.681067-29.681067L519.419733 170.666667c-16.3968 0-29.681067 13.288533-29.681067 29.681067l0 29.681067-118.724267 0c-16.3968 0-29.681067 13.288533-29.681067 29.678933l0 563.9424c0 16.392533 13.284267 29.6832 29.681067 29.6832l623.304533 0c16.392533 0 29.681067-13.290667 29.681067-29.6832L1024 259.707733C1024 243.317333 1010.711467 230.0288 994.318933 230.0288zM519.419733 200.347733l326.491733 0 0 89.041067L519.419733 289.3888 519.419733 200.347733zM994.318933 823.650133 371.0144 823.650133 371.0144 259.707733l118.724267 0 0 29.681067c0 16.392533 13.284267 29.6832 29.681067 29.6832l326.491733 0c16.392533 0 29.681067-13.290667 29.681067-29.6832l0-29.681067 118.724267 0L994.3168 823.650133zM578.781867 764.290133l326.493867 0 0-29.681067L578.781867 734.609067 578.781867 764.290133zM460.0576 764.290133l59.362133 0 0-29.681067-59.362133 0L460.0576 764.290133z" p-id="23560"></path></svg>