<svg xmlns="http://www.w3.org/2000/svg" viewBox="0 0 1024 1024" version="1.1"><path d="M838.811 982.245h-641.972l-131.447-855.2h894.754l-121.335 855.2zM231.96 941.312h571.317l109.72-773.335h-799.901l118.864 773.335zM613.621 530.533l-84.039-12.775 6.151-40.468 44.955 6.835 10.189-54.258 40.228 7.553zM574.556 508.206l-65.217-112.048-42.207 72.704-35.399-20.551 77.56-133.602 100.639 172.906zM416.954 621.020l-17.162-45.57-47.745 17.227-13.892-38.503 85.718-30.928 31.388 83.347zM446.795 728.718l-145.709-4.738 88.621-176.377 36.575 18.378-59.877 119.17 81.718 2.657zM571.193 768.725l-65.81-62.242 51.306-68.964 32.842 24.431-29.598 39.784 39.387 37.251zM535.676 722.242l-1.212-40.915 125.019-3.701-38.963-78.21 36.636-18.252 67.496 135.484z" p-id="1530"></path></svg>