<svg xmlns="http://www.w3.org/2000/svg" viewBox="0 0 1024 1024" version="1.1"><path d="M512 86.6L153 240.7v231.4h39.9V267L512 130l319.1 137v205.1H871V240.7zM806.3 616.6c-16.7 46.3-39.7 88.6-68.4 125.9-29.5 38.6-64.9 72-105.1 99.2-37 25.1-77.6 43.4-120.7 54.7-21.9-5.7-43.3-13.3-63.8-22.7-19.8-9-38.9-19.8-56.9-32-40.2-27.2-75.6-60.6-105.2-99.3-28.7-37.1-51.7-79.4-68.3-125.8-7.6-21.1-13.3-42.8-17.5-64.7h-40.6c4.5 26.6 11.4 52.8 20.6 78.3 18.2 50.5 42.9 96 74.3 136.6 32.1 41.9 70.7 78.4 114.4 108 19.9 13.5 40.9 25.3 62.7 35.2 25.8 11.8 52.7 21 80.4 27.5 51.1-12.1 99.6-33.3 143-62.8 43.7-29.6 82.4-66 114.4-108 31.4-40.6 56.1-86.1 74.3-136.6 9.2-25.5 16-51.7 20.6-78.3h-40.6c-4.3 22-10 43.7-17.6 64.8zM320.1 348.6H360v39.9h-39.9zM399.8 348.6h304.1v39.9H399.8zM320.1 468.2H360v39.9h-39.9zM399.8 468.2h304.1v39.9H399.8zM320.1 587.9H360v39.9h-39.9zM399.8 587.9h304.1v39.9H399.8z" p-id="1290"></path></svg>