<svg xmlns="http://www.w3.org/2000/svg" viewBox="0 0 1024 1024" version="1.1"><path d="M825.6 76.8H134.4c-38.4 0-70.4 32-70.4 70.4v755.2c0 38.4 32 70.4 70.4 70.4h691.2c38.4 0 70.4-32 70.4-70.4V147.2c0-38.4-32-70.4-70.4-70.4z m-25.6 806.4h-640v-704h640v704zM268.8 390.4h160c25.6 0 44.8-19.2 44.8-44.8 0-25.6-19.2-44.8-44.8-44.8H268.8c-25.6-6.4-51.2 19.2-51.2 44.8 0 25.6 25.6 44.8 51.2 44.8zM268.8 576h326.4c25.6 0 44.8-19.2 44.8-51.2 0-25.6-19.2-51.2-51.2-51.2h-320c-25.6 0-51.2 19.2-51.2 51.2s25.6 51.2 51.2 51.2zM268.8 761.6h326.4c25.6 0 51.2-19.2 51.2-51.2 0-25.6-19.2-51.2-51.2-51.2H268.8c-25.6 0-51.2 19.2-51.2 51.2 0 25.6 25.6 51.2 51.2 51.2z" p-id="930"></path></svg>