<svg xmlns="http://www.w3.org/2000/svg" viewBox="0 0 1024 1024" version="1.1"><path d="M361.472 195.741538h-28.081231v-24.930461h28.081231v24.930461z m452.529231 18.904616l0.039384 435.790769c0 71.916308-41.472 109.607385-68.135384 132.765539-50.924308 44.268308-123.746462 70.104615-210.510769 70.104615-86.370462 0-166.203077-35.643077-200.192-63.488-30.365538-24.891077-76.681846-66.835692-76.721231-145.211077v-261.12h61.597538l-0.157538-56.32 62.148923 0.275692V272.541538l62.188308-0.472615 0.078769 372.027077c0 38.439385 58.604308 57.659077 91.884307 57.659077 32.177231 0 92.16-21.110154 92.553847-55.729231l-0.433231-431.340308h185.619692zM260.844308 329.412923H301.292308v35.84H260.883692v-35.84z m61.479384-55.217231H362.732308v35.84H322.363077v-35.84z m62.148923-57.26523h40.369231v35.84H384.512v-35.84z m-58.28923 6.734769h35.052307v31.153231h-35.052307v-31.113847zM264.152615 279.394462h35.052308v31.113846h-35.052308v-31.113846z m-54.19323 3.465846h28.08123v24.930461h-28.08123v-24.930461z m61.87323-56.950154h28.081231v24.930461h-28.081231v-24.930461z m-59.076923 3.780923h21.897846v19.416615h-21.897846v-19.416615zM275.377231 173.686154h21.897846v19.416615h-21.897846V173.686154z m-59.076923 2.520615h14.25723v12.681846h-14.25723v-12.681846z" p-id="2520"></path></svg>