<svg xmlns="http://www.w3.org/2000/svg" viewBox="0 0 1024 1024" version="1.1"><path d="M232.251077 561.191385c1.260308-2.087385 2.402462-3.426462 3.032615-5.041231 4.450462-11.657846 8.861538-23.394462 13.233231-35.131077 4.883692-13.154462 9.649231-26.387692 14.532923-39.542154 4.844308-13.036308 9.846154-25.993846 14.729846-39.030154 4.214154-11.264 8.270769-22.646154 12.484923-33.870769 3.347692-8.979692 6.813538-17.841231 10.24-26.702769 3.308308-8.664615 6.380308-17.408 9.964308-25.915077 7.168-16.974769 16.659692-32.059077 28.593231-45.213539a105.550769 105.550769 0 0 1 34.382769-25.048615 117.090462 117.090462 0 0 1 39.384615-9.531077c13.312-1.142154 26.427077 0 39.108924 4.174769 25.6 8.388923 47.812923 23.236923 65.181538 46.631385 2.717538 3.623385 3.387077 3.662769 6.498462 0.669538 16.777846-16.029538 34.894769-29.735385 55.138461-39.424a118.941538 118.941538 0 0 1 64.512-11.894153c12.130462 1.220923 24.182154 2.835692 35.84 6.734769 14.651077 4.923077 28.356923 12.406154 39.975385 23.827692 6.183385 6.065231 11.697231 12.996923 17.486769 19.613539 1.102769 1.260308 2.008615 2.717538 3.150769 4.292923 4.883692-4.765538 9.097846-9.294769 13.666462-13.39077 12.603077-11.185231 26.151385-20.558769 40.999384-27.56923A140.484923 140.484923 0 0 1 856.064 275.692308c14.257231 0.078769 28.317538 2.363077 41.865846 7.443692a126.030769 126.030769 0 0 1 56.713846 41.787077c11.972923 15.556923 20.322462 33.161846 25.363693 53.051077 3.544615 13.942154 4.568615 28.120615 4.568615 42.456615 0.078769 72.979692 0 145.959385 0 218.978462 0 12.209231-0.827077 24.221538-5.041231 35.721846-6.380308 17.329231-17.132308 29.774769-33.122461 34.264615-20.637538 5.750154-39.975385 2.402462-55.059693-16.659692-8.861538-11.185231-12.839385-24.969846-14.020923-39.778462-0.393846-5.001846-0.275692-10.003692-0.275692-15.005538-0.039385-65.417846 0.275692-130.875077-0.236308-196.292923-0.196923-22.843077-8.900923-41.668923-27.293538-52.854154-11.933538-7.246769-24.930462-8.507077-38.321231-6.104615-15.438769 2.756923-27.963077 10.712615-36.864 25.481846-5.907692 9.767385-8.861538 20.676923-9.019077 32.413538-0.236308 23.709538-0.236308 47.379692-0.236308 71.049846l-0.039384 126.818462c0 10.082462-0.354462 20.164923-3.111385 29.932308-5.395692 19.062154-15.202462 33.240615-32.492307 39.85723a50.569846 50.569846 0 0 1-40.566154-1.220923c-11.185231-5.12-19.337846-14.572308-24.694154-27.05723-5.435077-12.721231-6.971077-26.190769-6.931692-40.172308 0.118154-65.575385 0.118154-131.150769-0.039385-196.726154-0.078769-18.432-5.671385-34.579692-17.998769-47.064615a47.812923 47.812923 0 0 0-23.709539-12.957539 57.659077 57.659077 0 0 0-27.175384 0.118154c-15.36 3.820308-27.569231 12.839385-35.643077 28.750769-5.986462 11.815385-7.168 24.418462-7.128616 37.651693 0.078769 63.645538 0.157538 127.291077 0 190.89723 0 14.690462-1.969231 29.144615-8.507077 42.141539a50.412308 50.412308 0 0 1-24.418461 24.654769 51.2 51.2 0 0 1-36.509539 2.402462c-14.729846-4.371692-25.403077-14.769231-31.901538-30.523077-5.277538-12.603077-6.813538-26.033231-6.813539-39.896616 0.078769-77.981538 0.039385-155.963077 0-233.944615 0-4.686769 0.472615-9.373538-1.890461-13.784615-3.426462-6.301538-8.192-9.058462-14.572308-9.058462s-10.712615 3.426462-13.272615 9.767385c-7.601231 18.628923-15.084308 37.336615-22.646154 55.965538-6.459077 15.990154-13.075692 31.901538-19.534769 47.931077-5.671385 14.020923-11.145846 28.16-16.817231 42.141538-6.459077 15.911385-13.075692 31.665231-19.534769 47.537231-5.632 13.863385-10.988308 27.884308-16.620308 41.747693-7.876923 19.377231-15.556923 38.912-27.214769 55.886769-8.900923 12.918154-20.007385 22.724923-34.343385 26.151384-18.195692 4.332308-36.194462 3.229538-52.657231-7.758769a76.406154 76.406154 0 0 1-21.267692-23.197538c-8.585846-13.390769-14.651077-28.356923-20.755692-43.244308-6.537846-15.990154-13.075692-31.940923-19.534769-47.970462-4.923077-12.169846-9.688615-24.418462-14.611693-36.548923l-16.974769-41.708307c-5.001846-12.288-9.846154-24.615385-14.848-36.903385l-14.729846-36.076308c-4.962462-12.288-9.846154-24.615385-14.848-36.903384-3.308308-8.270769-6.931692-16.305231-10.082462-24.615385-4.214154-11.224615-9.531077-21.858462-10.909538-34.422154-2.402462-22.055385 7.364923-44.504615 24.418461-55.689846 13.036308-8.546462 26.781538-11.106462 41.196308-6.813538 11.500308 3.426462 21.385846 10.633846 27.687385 22.291692 4.568615 8.428308 8.034462 17.644308 11.657846 26.702769 3.780923 9.373538 7.168 18.983385 10.712615 28.475077l12.051693 32.492308 12.72123 33.792 9.924923 26.781538 10.043077 27.175385 10.161231 27.096615 12.445539 33.476923 9.491692 25.16677" p-id="2640"></path></svg>