<svg xmlns="http://www.w3.org/2000/svg" viewBox="0 0 1024 1024" version="1.1"><path d="M118.153846 828.534154c14.493538-24.260923 29.144615-48.443077 43.52-72.861539 89.048615-151.118769 178.057846-302.316308 267.067077-453.513846 1.654154-2.835692 3.150769-5.750154 5.474462-9.964307H383.251692c2.284308-4.332308 3.741538-7.207385 5.395693-10.043077l68.135384-115.79077c1.654154-2.835692 3.032615-5.868308 4.568616-8.822153h52.224c25.560615 43.283692 51.2 86.488615 76.406153 129.96923 1.575385 2.717538 0.551385 8.152615-1.260307 11.224616-33.28 57.107692-66.875077 114.057846-100.430769 171.047384l-126.976 215.827693c-1.536 2.599385-2.953846 5.277538-5.19877 9.412923h50.806154c-1.969231 3.938462-3.072 6.380308-4.411077 8.664615-23.276308 39.660308-46.749538 79.241846-69.828923 119.020308-3.190154 5.513846-6.813538 7.325538-13.193846 7.286154-63.684923-0.196923-127.409231-0.118154-191.133538-0.118154-3.426462 0-6.813538 0.315077-10.200616 0.472615v-1.811692z m262.577231 1.811692l6.065231-10.476308c22.646154-38.557538 45.371077-77.036308 67.741538-115.751384 3.150769-5.435077 6.656-7.364923 13.036308-7.364923 63.488 0.236308 126.976 0.157538 190.503384 0.157538h12.169847c-9.097846-15.36-17.132308-29.538462-25.954462-43.165538-1.181538-1.811692-6.144-1.693538-9.373538-1.693539-63.172923-0.118154-126.345846-0.078769-189.558154-0.118154h-11.657846l183.926153-313.26523 104.802462 179.318154c-15.084308 0-28.514462 0.512-41.865846-0.196924-7.916308-0.433231-12.327385 2.166154-15.872 8.979693-6.183385 11.815385-13.312 23.079385-20.676923 35.643077 3.702154 0.196923 6.301538 0.472615 8.900923 0.472615 29.735385 0 59.470769-0.157538 89.206154 0.236308 3.465846 0.039385 8.428308 2.363077 10.043077 5.159384 50.806154 85.858462 101.297231 171.874462 151.788307 257.890462 0.630154 1.063385 1.024 2.205538 1.890462 4.174769H380.731077z" p-id="2490"></path></svg>