
<svg width="176px" height="190px" viewBox="0 0 176 190" version="1.1" xmlns="http://www.w3.org/2000/svg" xmlns:xlink="http://www.w3.org/1999/xlink">
    <g id="页面1" stroke="none" stroke-width="1" fill="none" fill-rule="evenodd">
        <g id="编组">
            <rect id="矩形" stroke="#FFFFFF" fill-opacity="0" fill="#000000" x="0.5" y="0.5" width="175" height="189"></rect>
            <path d="M122.809559,142.769186 C122.809559,143.753138 122.785991,145.10239 122.74082,146.820869 L134.086709,146.820869 L134.086709,156.854822 L132.107021,156.854822 L132.107021,148.570771 L122.603341,148.570771 C122.294997,151.883999 121.014485,154.684629 118.75984,156.970697 C118.319706,156.388754 117.834412,155.842388 117.308462,155.336669 C118.720561,153.847975 119.663269,152.351425 120.140515,150.848984 C120.615797,149.497768 120.853438,147.335431 120.853439,144.358043 L120.853439,134.807228 L122.809559,134.807228 L122.809559,141.044815 L131.140745,141.044815 L131.140745,134.392829 L133.096865,134.392829 L133.096865,141.044815 L139.265714,141.044815 L139.265714,142.769186 L122.809559,142.769186 Z M130.916852,121.886229 L58.2497391,121.886229 C56.2307717,121.886229 54.3217871,119.945821 54.3217871,117.958277 L54.3217871,114.030325 L37.3373225,59.9915252 C37.0082194,59.0907496 37.0540336,58.0956279 37.4645105,57.2289016 C37.8749873,56.3621753 38.6158483,55.6962239 39.5212639,55.3801096 L105.66994,32.2228684 C107.556617,31.5397981 109.642289,32.4973706 110.354023,34.3734221 L119.132996,59.0389969 L130.916852,59.0389969 C132.933855,59.0389969 134.844804,60.9794051 134.844804,62.9669489 L134.844804,117.958277 C134.844804,119.945821 132.935819,121.886229 130.916852,121.886229 Z M104.737051,40.2182147 L44.501907,61.0029729 L54.3217871,94.3905651 L54.3217871,62.9669489 C54.3217871,60.9794051 56.2307717,59.0389969 58.2497391,59.0389969 L111.277091,59.0389969 L104.737051,40.2182147 Z M128.952876,64.930925 L60.2137151,64.930925 L60.2137151,115.994301 L128.952876,115.994301 L128.952876,64.930925 L128.952876,64.930925 Z M69.0516072,71.8303726 C70.8863356,70.8227232 73.1088069,70.8227232 74.9435352,71.8303726 C76.766105,72.8378924 77.8894993,74.6997416 77.8894993,76.714781 C77.8894993,78.7298204 76.766105,80.5916696 74.9435352,81.5991894 C73.1088069,82.6068388 70.8863356,82.6068388 69.0516073,81.5991894 C67.2270735,80.5916696 66.1056432,78.7298204 66.1056432,76.714781 C66.1056432,74.6997416 67.2270735,72.8378924 69.0516072,71.8303726 Z M91.6373314,98.3185172 L109.313116,76.714781 L123.060948,102.246469 L123.060948,108.138397 L66.1056432,108.138397 L66.1056432,101.712268 L79.8534752,90.4626131 L91.6373314,98.3185172 Z M51.5997164,141.688999 L46.882246,141.688999 L46.882246,140.284757 C47.4184115,139.508986 47.948685,138.650729 48.4691386,137.706056 L46.0534481,137.706056 L46.0534481,136.325381 L49.172242,136.325381 C49.5316496,135.58889 49.8890933,134.807228 50.2426089,133.97843 L51.8295015,134.506739 C51.538833,135.121464 51.2403087,135.728332 50.9319645,136.325381 L57.1459846,136.325381 L57.1459846,137.706056 L50.2190412,137.706056 C49.743759,138.597701 49.252765,139.463815 48.7460593,140.308324 L51.5997164,140.308324 L51.5997164,138.603593 L53.2121406,138.603593 L53.2121406,140.308324 L56.9161994,140.308324 L56.9161994,141.688999 L53.2121406,141.688999 L53.2121406,143.403551 C54.492653,143.326955 55.7044262,143.246432 56.8474602,143.161981 C56.786577,143.698147 56.7394416,144.196997 56.709982,144.656567 C55.566948,144.711559 54.4003462,144.772442 53.2121406,144.841181 L53.2121406,146.68339 L51.5997164,146.68339 L51.5997164,144.933488 C49.8124982,145.049362 47.9722526,145.178985 46.0770158,145.324319 L45.892402,143.75903 C47.9172612,143.682435 49.820354,143.594056 51.5997164,143.495857 L51.5997164,141.688999 Z M65.1334751,156.925525 L63.4758794,156.925525 L63.4758794,155.912114 L51.0714067,155.912114 L51.0714067,156.925525 L49.413811,156.925525 L49.413811,147.166529 L65.1334751,147.166529 L65.1334751,156.925525 Z M63.4758794,148.592375 L51.0714067,148.592375 L51.0714067,150.848984 L63.4758794,150.848984 L63.4758794,148.592375 Z M63.4758794,152.206091 L51.0714067,152.206091 L51.0714067,154.484303 L63.4758794,154.484303 L63.4758794,152.206091 Z M63.5446185,146.498777 L63.5446185,141.665432 L59.8405597,141.665432 C59.5557832,143.75903 58.8035804,145.501077 57.5839512,146.889608 C57.1664831,146.492766 56.7368209,146.108951 56.295583,145.738718 C57.6762581,144.312871 58.3675778,142.286048 58.3675778,139.662176 L58.3675778,135.979721 C61.4443902,135.950486 64.5142332,135.68126 67.5491656,135.174491 L68.0794391,136.694608 C65.3785653,137.000056 62.6689731,137.222745 59.9544704,137.36236 L59.9544704,140.284757 L68.4467026,140.284757 L68.4467026,141.665432 L65.1570427,141.665432 L65.1570427,146.498777 L63.5446185,146.498777 L63.5446185,146.498777 Z M78.4138809,145.070966 L69.805774,145.070966 L69.805774,143.275892 L78.8282799,143.275892 C79.150372,141.681144 79.3408776,139.901781 79.4017609,137.937805 L71.5537126,137.937805 L71.5537126,136.140767 L90.2429084,136.140767 L90.2429084,137.937805 L81.3362772,137.937805 C81.2282586,139.901781 81.029897,141.681144 80.7372645,143.275892 L91.992811,143.275892 L91.992811,145.070966 L80.3464332,145.070966 C79.1798315,150.257827 75.9726586,154.278086 70.7268787,157.131743 C70.3506916,156.559026 69.9352992,156.013044 69.483682,155.497715 C74.0558181,153.211647 77.0312419,149.735409 78.4138809,145.070966 L78.4138809,145.070966 Z M83.4534434,152.781536 C83.4534434,153.993309 84.0131765,154.600178 85.1326429,154.600178 L88.2867884,154.600178 C89.3296596,154.600178 89.9208164,154.146499 90.0582946,153.24307 C90.1820251,152.367137 90.274332,151.231959 90.3352153,149.835572 C90.9185161,150.051609 91.5627003,150.273539 92.2677677,150.503324 C92.1607654,151.649905 92.0225812,152.793363 91.8533688,153.932426 C91.6550071,155.466291 90.5650005,156.234206 88.5853126,156.234206 L84.6043333,156.234206 C82.5932218,156.234206 81.5896301,155.175623 81.5896301,153.058457 L81.5896301,146.728562 L83.4534434,146.728562 L83.4534434,152.781536 L83.4534434,152.781536 Z M114.523544,156.854822 L112.797209,156.854822 L112.797209,155.751068 L95.9502227,155.751068 L95.9502227,156.854822 L94.2238877,156.854822 L94.2238877,135.198059 L114.523544,135.198059 L114.523544,156.854822 L114.523544,156.854822 Z M112.797209,136.855654 L95.9502227,136.855654 L95.9502227,154.093472 L112.797209,154.093472 L112.797209,136.855654 Z M100.243474,141.573125 C99.4852331,142.296564 98.6900692,142.980286 97.8611714,143.621552 C97.4928481,143.2384 97.1170009,142.862553 96.7338491,142.49423 C98.7736437,141.038727 100.528488,139.220639 101.91089,137.130611 L103.431007,137.845498 C103.142448,138.272639 102.835112,138.686789 102.509903,139.086731 L110.658439,139.086731 L110.658439,140.445803 C109.529153,141.810766 108.091522,143.042179 106.34162,144.140042 C107.959936,144.684063 109.943552,145.110246 112.292467,145.416626 C111.997713,145.97294 111.743694,146.549898 111.532408,147.142961 C108.808374,146.522344 106.506594,145.819241 104.627069,145.037579 C102.747544,145.882088 100.255258,146.704994 97.1482481,147.512188 C96.9292307,146.999886 96.6670789,146.507119 96.3646216,146.039206 C99.0572328,145.485365 101.282418,144.852965 103.040176,144.140042 C101.988841,143.42399 101.046818,142.559367 100.243474,141.573125 L100.243474,141.573125 Z M108.378263,140.514542 L101.27849,140.514542 C101.257549,140.543006 101.234576,140.569917 101.20975,140.595065 C102.124822,141.760032 103.27347,142.720696 104.581897,143.415334 C106.16879,142.562969 107.435554,141.596693 108.378263,140.514542 L108.378263,140.514542 Z M101.266706,146.797301 C103.523314,147.135105 105.893833,147.51808 108.378263,147.948191 L107.895125,149.560615 C105.545188,149.082743 103.181465,148.675363 100.807135,148.339022 L101.266706,146.797301 L101.266706,146.797301 Z M109.943552,151.585475 L109.322935,153.333413 C105.705987,152.542131 102.058523,151.89742 98.3894809,151.400861 L98.874583,149.812004 C102.710228,150.31871 106.400539,150.909867 109.943552,151.585475 L109.943552,151.585475 Z" id="形状" fill="#C9C9C9" fill-rule="nonzero"></path>
        </g>
    </g>
</svg>