<?xml version="1.0" encoding="UTF-8"?>
<svg width="18px" height="18px" viewBox="0 0 18 18" version="1.1" xmlns="http://www.w3.org/2000/svg" xmlns:xlink="http://www.w3.org/1999/xlink">
    <title>密码</title>
    <g id="云管备份" stroke="none" stroke-width="1" fill="none" fill-rule="evenodd">
        <g id="登录" transform="translate(-629.000000, -397.000000)" stroke="#CCCCCC" stroke-width="1.5">
            <g id="编组-7" transform="translate(159.000000, 23.000000)">
                <g id="编组-8" transform="translate(427.000000, 193.000000)">
                    <g id="输入框" transform="translate(30.000000, 110.000000)">
                        <g id="2" transform="translate(0.000000, 60.000000)">
                            <g id="密码-2" transform="translate(13.000000, 11.000000)">
                                <g id="密码" transform="translate(0.000000, 1.000000)">
                                    <path d="M14,5.75 C14.345178,5.75 14.657678,5.88991102 14.8838835,6.11611652 C15.110089,6.34232203 15.25,6.65482203 15.25,7 L15.25,7 L15.25,15 C15.25,15.345178 15.110089,15.657678 14.8838835,15.8838835 C14.657678,16.110089 14.345178,16.25 14,16.25 L14,16.25 L2,16.25 C1.65482203,16.25 1.34232203,16.110089 1.11611652,15.8838835 C0.889911016,15.657678 0.75,15.345178 0.75,15 L0.75,15 L0.75,7 C0.75,6.65482203 0.889911016,6.34232203 1.11611652,6.11611652 C1.34232203,5.88991102 1.65482203,5.75 2,5.75 L2,5.75 Z" id="矩形"></path>
                                    <circle id="椭圆形" cx="8" cy="11" r="2.25"></circle>
                                    <path d="M4,6 L4,2 C4,0.8954305 4.8954305,0 6,0 L10,0 C11.1045695,0 12,0.8954305 12,2 L12,6" id="路径"></path>
                                </g>
                            </g>
                        </g>
                    </g>
                </g>
            </g>
        </g>
    </g>
</svg>