<?xml version="1.0" encoding="UTF-8"?>
<svg width="18px" height="18px" viewBox="0 0 18 18" version="1.1" xmlns="http://www.w3.org/2000/svg" xmlns:xlink="http://www.w3.org/1999/xlink">
    <title>移除账号 2</title>
    <g id="云管备份" stroke="none" stroke-width="1" fill="none" fill-rule="evenodd">
        <g id="选择账号" transform="translate(-1453.000000, -608.000000)" fill-rule="nonzero">
            <g id="编组-7" transform="translate(368.000000, 23.000000)">
                <g id="编组-8" transform="translate(854.000000, 193.000000)">
                    <g id="编组-6备份" transform="translate(231.000000, 390.500000)">
                        <g id="移除账号" transform="translate(0.000000, 1.500000)">
                            <rect id="矩形" fill="#000000" opacity="0" x="0" y="0" width="18" height="18"></rect>
                            <line x1="5.5" y1="9.5" x2="12.5" y2="9.5" id="直线-2" stroke="#CCCCCC" stroke-width="1.5"></line>
                            <path d="M9,0.75 C11.2744548,0.75 13.3367625,1.67559421 14.830582,3.16941372 C16.3244071,4.66323874 17.25,6.72555328 17.25,9 C17.25,11.2744467 16.3244071,13.3367613 14.830582,14.8305863 C13.3367625,16.3244058 11.2744548,17.25 9,17.25 C6.72554522,17.25 4.66323746,16.3244058 3.16941795,14.8305863 C1.67559294,13.3367613 0.75,11.2744467 0.75,9 C0.75,6.72555328 1.67559294,4.66323874 3.16941795,3.16941372 C4.66323746,1.67559421 6.72554522,0.75 9,0.75 Z" id="形状" stroke="#CCCCCC" stroke-width="1.5"></path>
                        </g>
                    </g>
                </g>
            </g>
        </g>
    </g>
</svg>