<?xml version="1.0" encoding="UTF-8"?>
<svg width="18px" height="18px" viewBox="0 0 18 18" version="1.1" xmlns="http://www.w3.org/2000/svg" xmlns:xlink="http://www.w3.org/1999/xlink">
    <title>账号</title>
    <g id="云管备份" stroke="none" stroke-width="1" fill="none" fill-rule="evenodd">
        <g id="登录" transform="translate(-628.000000, -337.000000)" fill-rule="nonzero">
            <g id="编组-7" transform="translate(159.000000, 23.000000)">
                <g id="编组-8" transform="translate(427.000000, 193.000000)">
                    <g id="输入框" transform="translate(30.000000, 110.000000)">
                        <g id="账号" transform="translate(12.000000, 11.000000)">
                            <path d="M9,0.75 C11.2744548,0.75 13.3367625,1.67559421 14.830582,3.16941372 C16.3244071,4.66323874 17.25,6.72555328 17.25,9 C17.25,11.2744467 16.3244071,13.3367613 14.830582,14.8305863 C13.3367625,16.3244058 11.2744548,17.25 9,17.25 C6.72554522,17.25 4.66323746,16.3244058 3.16941795,14.8305863 C1.67559294,13.3367613 0.75,11.2744467 0.75,9 C0.75,6.72555328 1.67559294,4.66323874 3.16941795,3.16941372 C4.66323746,1.67559421 6.72554522,0.75 9,0.75 Z" id="形状" stroke="#CCCCCC" stroke-width="1.5"></path>
                            <g id="编组-10">
                                <rect id="矩形" fill="#000000" opacity="0" x="0" y="0" width="18" height="18"></rect>
                                <path d="M9,8.83928571 C9.88757652,8.83928571 10.6071429,8.11963348 10.6071429,7.23210514 C10.6071429,6.34427509 9.88757652,5.625 9,5.625 C8.11242348,5.625 7.39285714,6.34467737 7.39285714,7.23210514 C7.39285714,8.12001062 8.11242348,8.83928571 9,8.83928571 L9,8.83928571 Z" id="路径" stroke="#CCCCCC" stroke-width="1.5"></path>
                                <path d="M5.78571429,11.2261525 C6.18316718,9.84832717 7.47004531,8.83928571 8.99659806,8.83928571 C10.5319445,8.83928571 11.8248651,9.85998583 12.2142857,11.25" id="路径" stroke="#CCCCCC" stroke-width="1.5" stroke-linecap="round" stroke-linejoin="round"></path>
                            </g>
                        </g>
                    </g>
                </g>
            </g>
        </g>
    </g>
</svg>