<svg t="1716260935869" class="icon" viewBox="0 0 1024 1024" version="1.1" xmlns="http://www.w3.org/2000/svg" p-id="9256" width="200" height="200"><path d="M892.32 569.44c38.624-2.976 69.824 22.272 72.8 60.896 2.976 40.128-25.28 72.8-63.872 75.776a68.032 68.032 0 0 1-72.8-62.4c-2.976-40.096 23.776-69.824 63.872-74.272z" fill="#86DA2F" p-id="9257"></path><path d="M422.848 885.888c0-38.624 29.728-68.352 65.376-68.352s69.824 32.704 69.824 69.824c0 35.68-29.696 66.88-63.872 68.352-43.072 0-71.328-26.752-71.328-69.824z" fill="#24C2FF" p-id="9258"></path><path d="M528.32 452.064c-5.92 2.976-8.896-1.472-10.4-5.92-54.944-102.528-38.624-231.776 57.952-309.024 25.28-20.8 72.8-25.28 93.6-4.48 8.928 7.456 10.4 16.352 11.872 26.752 2.976 22.304 7.424 44.576 22.304 62.4 16.32 19.328 37.12 26.752 60.896 25.28 20.8 0 41.6-2.976 54.976 20.8 7.424 13.344 4.48 65.344-7.424 75.744-5.952 4.48-10.4 1.504-14.848 0-34.176-13.376-69.824-13.376-105.504-7.424-11.872 1.472-17.824-1.472-17.824-14.848-1.472-22.304-5.92-43.104-17.824-62.4-22.272-40.128-63.872-41.6-90.624-4.48-22.272 29.76-28.224 65.376-34.176 101.056-5.92 31.2-4.448 63.872-2.976 96.544 0 0-1.472 0 0 0z" fill="#FFCB12" p-id="9259"></path><path d="M565.472 474.368c-2.976-4.48-1.472-8.928 2.976-11.904 84.672-77.248 210.976-92.096 309.024-16.32 25.248 20.8 41.6 63.872 28.224 89.12-5.952 10.4-13.376 14.88-22.304 17.824-20.8 8.928-40.096 17.856-53.472 37.152-13.376 19.328-16.32 41.6-10.4 65.376 4.48 19.296 11.904 40.096-7.424 57.92-10.4 10.4-60.928 19.328-74.272 10.4-5.952-4.448-4.48-8.896-2.976-14.848 4.448-37.12-4.48-71.296-17.824-104-4.48-11.872-2.976-17.824 8.896-20.8 20.8-5.92 40.128-16.32 54.976-31.2 32.672-31.2 25.28-71.296-17.824-89.12-34.176-14.88-69.824-11.904-104-8.928-32.672 1.504-63.872 10.4-93.6 19.328z" fill="#86DA2F" p-id="9260"></path><path d="M546.144 512.96c4.48-4.448 7.456-2.944 11.904 0 98.048 59.456 148.544 176.8 104 291.2-11.904 29.728-50.528 59.456-78.72 52-11.904-2.944-17.856-8.896-23.808-16.32-13.376-17.856-28.224-34.176-50.496-41.6-23.776-7.424-44.576-2.976-65.376 8.896-17.824 10.4-35.648 23.776-57.92 10.4-13.376-7.424-35.68-53.472-31.232-68.32 2.976-5.952 8.928-5.952 14.88-5.952 37.12-5.952 66.848-23.776 95.072-47.552 8.928-7.424 16.32-7.424 23.776 2.976 11.872 17.824 26.752 32.672 46.048 43.072 38.624 22.304 75.776 2.976 80.224-41.6 4.48-37.12-8.928-69.792-20.8-102.496a589.632 589.632 0 0 0-47.552-84.672z" fill="#24C2FF" p-id="9261"></path><path d="M498.624 521.92c-5.952 29.696-19.328 57.92-37.12 83.2-53.504 80.192-130.752 112.896-225.856 104-34.144-3.008-62.4-31.232-65.344-59.456-1.504-11.872 1.472-20.8 8.896-29.696 10.4-13.376 19.328-25.28 23.776-41.6 8.928-32.704-2.976-59.424-26.752-83.2-32.672-32.704-28.224-62.4 10.4-86.176 4.48-2.976 10.4-5.952 16.352-8.928 8.928-4.448 16.32-4.448 19.328 5.952 13.344 34.176 40.096 59.424 69.824 80.224 10.4 8.928 10.4 14.848 1.472 25.28a110.304 110.304 0 0 0-29.696 69.792c-2.976 32.704 16.32 53.504 49.024 53.504 20.8 0 40.096-7.424 57.92-16.32 46.08-23.808 81.728-57.952 115.904-93.632 4.448-1.472 5.92-4.448 11.872-2.976z" fill="#0069DA" p-id="9262"></path><path d="M254.976 209.92c2.976 0 10.4 1.472 17.824 2.976 54.976 10.4 89.152-8.928 106.976-60.928 11.872-34.176 37.12-44.576 69.824-26.752 1.472 0 1.472 1.504 2.976 1.504 34.176 19.296 34.176 22.272 13.376 52-17.824 23.776-26.752 50.496-31.2 78.72-2.976 16.352-8.928 19.328-23.776 13.376-23.776-8.896-49.024-8.896-74.304 0-28.224 8.928-40.096 34.176-31.168 62.4 11.872 37.12 44.544 53.504 72.768 72.8 28.256 19.328 60.928 29.728 92.128 43.072 4.48 1.504 11.872 1.504 10.4 8.928-1.472 4.48-7.424 4.48-13.376 4.48-66.88 2.944-130.72-7.456-182.72-52.032-49.024-40.096-84.704-89.12-78.752-157.44 4.48-22.304 20.8-38.656 49.024-43.104z" fill="#FF4649" p-id="9263"></path><path d="M133.152 627.392c-35.648 4.48-71.296-25.28-74.272-62.4-2.976-35.648 26.72-71.328 60.896-74.272 38.624-4.48 74.272 22.272 77.248 57.92 1.504 34.176-20.8 75.776-63.872 78.72z" fill="#0069DA" p-id="9264"></path><path d="M757.12 98.496c37.12-2.976 72.8 26.752 75.776 63.904 2.976 35.648-26.752 69.824-62.4 72.768-38.624 2.976-72.8-25.248-75.776-62.4-2.976-37.12 23.776-71.296 62.4-74.24z" fill="#FFCB12" p-id="9265"></path><path d="M369.376 126.72c4.48 38.624-22.304 71.296-62.4 77.248-34.176 4.48-69.824-23.776-74.272-56.448-4.48-43.072 19.296-74.272 59.424-78.72 37.12-4.48 72.768 23.744 77.248 57.92z" fill="#FF4649" p-id="9266"></path></svg>
