<svg t="1716260724104" class="icon" viewBox="0 0 1024 1024" version="1.1" xmlns="http://www.w3.org/2000/svg" p-id="6187" width="200" height="200"><path d="M491.580235 49.874824c-128 0-250.759529 51.2-341.232941 142.516705A489.231059 489.231059 0 0 0 8.975059 536.756706c0 4.517647 0.542118 9.035294 0.602353 13.492706l-1.084236 334.366117c-0.843294 21.744941 4.156235 43.369412 14.396236 62.644706 10.24 19.215059 22.528 33.731765 43.911529 46.923294 21.202824 13.071059 39.514353 17.709176 61.199059 18.130824a121.072941 121.072941 0 0 0 61.982118-15.480471 123.602824 123.602824 0 0 0 62.765176-107.038117v-37.104941l1.505882-175.887059V539.286588A103.002353 103.002353 0 0 0 228.592941 469.835294a77.281882 77.281882 0 0 1 5.541647-106.857412 75.535059 75.535059 0 0 1 106.074353 2.650353 77.281882 77.281882 0 0 1 0.301177 106.977883c-16.865882 18.492235-26.021647 42.646588-25.660236 67.644235v29.033412s12.769882 107.821176 88.96753 10.842353l48.188235-79.390118c13.251765-21.744941 18.070588-47.826824 13.372235-72.944941a76.559059 76.559059 0 0 1 58.970353-89.268706 76.077176 76.077176 0 0 1 89.750589 57.464471A76.739765 76.739765 0 0 1 559.405176 487.905882c-23.792941 6.987294-43.971765 22.768941-56.500705 44.092236l-51.019295 83.727058s-26.081882 49.694118 33.972706 49.694118l69.029647-2.228706a96.978824 96.978824 0 0 0 66.379295-27.467294 75.354353 75.354353 0 0 1 106.014117-2.228706c30.117647 28.370824 32.225882 75.836235 4.818824 106.857412a75.294118 75.294118 0 0 1-105.833412 7.469176 101.376 101.376 0 0 0-69.391059-24.937411s-69.752471-1.084235-116.133647 52.284235a145.769412 145.769412 0 0 0-23.190588 156.069647c1.204706 2.710588 2.650353 5.300706 3.975529 8.312471l1.626353 2.409411c0.963765 1.807059 2.048 3.553882 3.132235 5.240471l1.987765 2.951529c1.084235 1.626353 2.168471 3.011765 3.373177 4.517647l2.409411 3.011765c1.144471 1.505882 2.349176 2.891294 3.553883 4.216471l2.831059 3.072 3.855058 3.915294 3.192471 2.891294 4.276706 3.734588 3.614118 2.710588 4.758588 3.493648c1.204706 0.903529 2.529882 1.746824 3.794823 2.529882 1.325176 0.903529 3.493647 2.288941 5.300706 3.19247l4.096 2.469648c1.927529 1.084235 3.915294 2.108235 5.842824 3.011764l4.397176 2.108236 6.866824 2.831058 4.336941 1.807059 8.252235 2.831059 3.614118 1.204706c4.216471 1.325176 8.252235 2.409412 13.010823 3.493647l2.590118 0.481882a289.129412 289.129412 0 0 0 11.444706 2.288941l5.300706 0.783059c3.192471 0.481882 6.384941 0.963765 9.758117 1.325177l6.445177 0.602353 8.673882 0.662588c9.276235 0.602353 18.672941 0.301176 27.888941-0.602353 240.700235-52.585412 403.516235-279.612235 377.795765-526.757647C943.887059 238.832941 737.882353 50.959059 491.640471 49.874824z" fill="#59AB2D" p-id="6188"></path></svg>
