<svg t="1716261062972" class="icon" viewBox="0 0 1024 1024" version="1.1" xmlns="http://www.w3.org/2000/svg" p-id="11387" width="200" height="200"><path d="M511.786667 0c-45.568 111.744-73.045333 184.832-123.776 293.248 31.104 32.981333 69.290667 71.381333 131.285333 114.773333-66.645333-27.434667-112.128-54.997333-146.133333-83.584C308.224 459.946667 206.506667 652.970667 0 1024c162.304-93.696 288.085333-151.466667 405.333333-173.482667a297.130667 297.130667 0 0 1-7.68-69.546666l0.170667-5.162667c2.56-103.978667 56.661333-183.936 120.746667-178.517333 64.042667 5.418667 113.834667 94.165333 111.274666 198.144-0.469333 19.584-2.688 38.4-6.528 55.850666 115.925333 22.698667 240.384 80.298667 400.512 172.714667-31.573333-58.112-59.733333-110.506667-86.656-160.426667-42.410667-32.853333-86.613333-75.562667-176.768-121.856 61.952 16.085333 106.368 34.688 140.928 55.466667C627.754667 287.829333 605.653333 220.16 511.786667 0z" fill="#1793D1" p-id="11388"></path></svg>
