<?xml version="1.0" standalone="no"?><!DOCTYPE svg PUBLIC "-//W3C//DTD SVG 1.1//EN" "http://www.w3.org/Graphics/SVG/1.1/DTD/svg11.dtd"><svg class="icon" width="200px" height="200.00px" viewBox="0 0 1024 1024" version="1.1" xmlns="http://www.w3.org/2000/svg"><path d="M512.032 0C229.672 0 0 229.68 0 512c0 282.336 229.668 512 512.032 512C794.312 1024 1024 794.336 1024 512 1024 229.68 794.312 0 512.032 0z" fill="#53A3DA" /><path d="M514.288 45.012c-81.536 0-150.684 130.416-175.66 311.68-0.8 5.832-1.572 11.732-2.256 17.672a1098.54 1098.54 0 0 0-6.88 88.728 1073.94 1073.94 0 0 0-0.82 42.4c0 14.292 0.272 28.444 0.824 42.388 1.156 30.532 3.468 60.216 6.88 88.744 38.228 4.948 79.108 8.304 121.744 9.9 18.432 0.688 37.136 1.1 56.172 1.1 18.976 0 37.74-0.416 56.116-1.1 42.688-1.596 83.536-4.952 121.8-9.9 4.208-0.54 8.352-1.128 12.544-1.736 159.236-22.36 270.008-71.86 270.008-129.396-0.004-254.328-206.184-460.48-460.472-460.48z" fill="#F1606D" /><path d="M704.748 376.088a233.708 233.708 0 0 0-14.852-19.388c-42.248-49.804-105.188-81.452-175.604-81.452-22.828 0-43.16 34.944-56.172 89.204-5.172 21.64-9.184 46.32-11.772 73.116a721.88 721.88 0 0 0-3.136 67.924c0 23.628 1.1 46.464 3.136 67.916 21.484 2.04 44.284 3.132 67.944 3.132 23.628 0 46.428-1.096 67.912-3.132 47.228-4.48 88-13.56 116.88-25.528 28.52-11.8 45.4-26.488 45.4-42.388-0.004-47.968-14.652-92.52-39.736-129.404z" fill="#FFFFFF" /></svg>