<svg t="1716261005271" class="icon" viewBox="0 0 1024 1024" version="1.1" xmlns="http://www.w3.org/2000/svg" p-id="10252" width="200" height="200"><path d="M512.042667 0C229.376 0 0.341333 229.077333 0.170667 511.658667H0.085333v396.245333h0.085334A116.309333 116.309333 0 0 0 116.48 1024h395.733333c282.709333-0.170667 511.701333-229.205333 511.701334-511.872C1023.914667 229.333333 794.794667 0 512 0z m103.722666 210.773333c85.973333 0 167.125333 65.834667 167.125334 156.629334 0 8.405333 0.042667 16.853333-1.28 26.410666a42.752 42.752 0 0 1-48.512 38.101334 42.752 42.752 0 0 1-35.925334-50.133334 111.36 111.36 0 0 0 0.554667-14.378666c0-51.498667-42.112-71.338667-81.92-71.338667-39.850667 0-75.733333 33.450667-75.818667 71.338667 0.682667 43.818667 0 87.296 0 130.986666l73.898667-0.512c57.685333-1.194667 58.368 85.717333 0.682667 85.248l-74.581334 0.554667c-0.170667 35.242667 0.256 28.885333 0.085334 46.634667 0 0 0.64 43.093333-0.682667 75.776-8.917333 96-90.624 172.629333-188.757333 172.629333-104.021333 0-189.781333-85.034667-189.781334-189.312 3.114667-107.306667 88.661333-191.658667 196.394667-190.677333l60.117333-0.426667v85.162667l-60.117333 0.554666h-0.298667c-59.221333 1.706667-109.952 41.984-110.933333 105.386667a104.021333 104.021333 0 0 0 104.618667 104.064c57.856 0 104.149333-42.112 104.149333-103.978667l-0.042667-322.432c0-5.973333 0.213333-10.752 0.853334-17.365333 9.813333-78.848 80.341333-138.922667 160.170666-138.922667z" fill="#51A2DA" p-id="10253"></path></svg>
