<?xml version="1.0" standalone="no"?><!DOCTYPE svg PUBLIC "-//W3C//DTD SVG 1.1//EN" "http://www.w3.org/Graphics/SVG/1.1/DTD/svg11.dtd"><svg class="icon" width="200px" height="200.00px" viewBox="0 0 1024 1024" version="1.1" xmlns="http://www.w3.org/2000/svg"><path d="M464 129.6c-14.4 0-28.8 1.6-40 4.8-139.2 25.6-235.2 145.6-244.8 224-4.8 38.4 16 68.8 28.8 80 30.4 35.2 94.4 60.8 134.4 81.6-56 49.6-84.8 73.6-110.4 100.8-40 40-65.6 86.4-65.6 116.8 0 9.6-1.6 41.6 11.2 70.4 4.8 9.6 19.2 41.6 64 68.8 28.8 16 68.8 20.8 105.6 16 120-19.2 280-120 395.2-214.4 73.6-60.8 126.4-120 140.8-148.8 11.2-24 14.4-65.6 6.4-91.2-20.8-75.2-188.8-225.6-324.8-286.4-30.4-16-65.6-22.4-100.8-22.4z m0 1.6c38.4 0 75.2 6.4 105.6 24 110.4 54.4 296 206.4 310.4 281.6 16 96-316.8 352-520 392-78.4 16-145.6 19.2-176-64-25.6-73.6 25.6-124.8 100.8-193.6 30.4-28.8 56-49.6 94.4-81.6 1.6-1.6-180.8-65.6-188.8-139.2-6.4-73.6 113.6-209.6 264-217.6 4.8-1.6 6.4-1.6 9.6-1.6z" fill="#4E4371" /><path d="M443.2 150.4c-75.2 6.4-89.6 16-155.2 68.8-24 16-64 59.2-75.2 108.8-4.8 19.2 0 35.2 14.4 46.4 41.6 35.2 115.2 65.6 176 94.4 16 9.6 6.4 24-20.8 46.4-72 60.8-168 136-174.4 192-1.6 25.6 6.4 64 38.4 81.6 38.4 20.8 116.8 6.4 169.6-11.2 78.4-28.8 179.2-91.2 259.2-155.2 84.8-65.6 161.6-145.6 164.8-160 4.8-16 4.8-30.4-4.8-49.6-14.4-28.8-33.6-46.4-54.4-70.4-54.4-59.2-113.6-108.8-184-148.8-51.2-27.2-96-51.2-153.6-43.2z m110.4 129.6c54.4 25.6 108.8 94.4 0 134.4-30.4 11.2-124.8-25.6-121.6-78.4 3.2-73.6 56-86.4 121.6-56z"  /><path d="M443.2 150.4c-75.2 6.4-89.6 16-155.2 68.8-24 16-64 59.2-75.2 108.8-4.8 19.2 0 35.2 14.4 46.4 41.6 35.2 115.2 65.6 176 94.4 16 9.6 6.4 24-20.8 46.4-72 60.8-168 136-174.4 192-1.6 25.6 6.4 64 38.4 81.6 38.4 20.8 116.8 6.4 169.6-11.2 78.4-28.8 179.2-91.2 259.2-155.2 84.8-65.6 161.6-145.6 164.8-160 4.8-16 4.8-30.4-4.8-49.6-14.4-28.8-33.6-46.4-54.4-70.4-54.4-59.2-113.6-108.8-184-148.8-51.2-27.2-96-51.2-153.6-43.2z m110.4 129.6c54.4 25.6 108.8 94.4 0 134.4-30.4 11.2-124.8-25.6-121.6-78.4 3.2-73.6 56-86.4 121.6-56z"  /><path d="M443.2 150.4c-75.2 6.4-89.6 16-155.2 68.8-24 16-64 59.2-75.2 108.8-4.8 19.2 0 35.2 14.4 46.4 41.6 35.2 115.2 65.6 176 94.4 16 9.6 6.4 24-20.8 46.4-72 60.8-168 136-174.4 192-1.6 25.6 6.4 64 38.4 81.6 38.4 20.8 116.8 6.4 169.6-11.2 78.4-28.8 179.2-91.2 259.2-155.2 84.8-65.6 161.6-145.6 164.8-160 4.8-16 4.8-30.4-4.8-49.6-14.4-28.8-33.6-46.4-54.4-70.4-54.4-59.2-113.6-108.8-184-148.8-51.2-27.2-96-51.2-153.6-43.2z m110.4 129.6c54.4 25.6 108.8 94.4 0 134.4-30.4 11.2-124.8-25.6-121.6-78.4 3.2-73.6 56-86.4 121.6-56z" fill="#62548F" /><path d="M505.6 292.8c-20.8 0-44.8 9.6-46.4 38.4-1.6 20.8 11.2 38.4 25.6 46.4-6.4-6.4-11.2-14.4-11.2-25.6 1.6-20.8 25.6-24 35.2-20.8 11.2 4.8 35.2 19.2 33.6 33.6-1.6 16-16 25.6-35.2 24h1.6c30.4 4.8 56-6.4 60.8-38.4 1.6-24-33.6-49.6-54.4-54.4 0-3.2-4.8-3.2-9.6-3.2z" fill="#4E4371" /></svg>