<?xml version="1.0" standalone="no"?><!DOCTYPE svg PUBLIC "-//W3C//DTD SVG 1.1//EN" "http://www.w3.org/Graphics/SVG/1.1/DTD/svg11.dtd"><svg t="1642841289695" class="icon" viewBox="0 0 1024 1024" version="1.1" xmlns="http://www.w3.org/2000/svg" p-id="3313" width="32" height="32" xmlns:xlink="http://www.w3.org/1999/xlink"><defs><style type="text/css"></style></defs><path d="M364.089 43.421L247.06 169.041 130.032 238.47 78.019 355.498 0 481.118l73.607 169.04 21.827 134.444 30.186 69.428-99.614 117.029H164.63l8.824-121.44 56.192-86.611 91.255 17.415 99.613-39.242 73.608-43.19 73.84 52.014-86.844 108.437-86.61 82.198h134.444v-56.192l108.205-86.843 39.01 47.834-112.618 164.629h138.623v-82.43l99.846-95.203-52.012-99.845-4.412-134.444 99.846-60.604 60.604 8.591 78.019-34.597 21.594-151.627-121.208 39.01-78.019 112.617-125.852 65.015-177.633-73.607-130.032-95.434 86.61-117.028-34.597-130.032L476.938 0l-121.44 130.032-39.01-8.592z" fill="#00A0E8" p-id="3314"></path><path d="M476.938 0l-56.425 99.614 4.412 60.836z m-52.013 160.45l-134.443 73.607 169.04 52.013zM260.063 411.922l-125.62 104.025 169.042 52.013z m242.881 182.044l-199.46-26.006v99.614z m177.633-17.415l-177.633-73.607v91.022z m325.08-216.642l-121.209 39.01 60.604 39.01z" fill="#ADDEF5" p-id="3315"></path><path d="M316.488 121.44l-26.006 112.617 134.443-73.607zM134.444 238.47l117.028 21.594-4.412-91.022z m-4.412 0v147.447l130.031 26.006z m0 147.447L0 481.117l134.444 34.83z m4.412 130.031L73.607 650.16l86.843 39.01z m82.198 26.007L160.45 689.168 303.485 567.96z m156.27-134.444l-69.427 160.45 199.46-65.016zM567.96 750.005l108.205 95.434 73.84-112.85zM680.577 576.55l-47.601 99.614 112.617-78.019z m125.852-65.015l-60.836 86.61 99.846-60.604z" fill="#0092DB" p-id="3316"></path><path d="M884.448 398.919l-39.01 138.623 99.614-99.614z m60.604 39.01l-39.01 108.204 78.02-34.597z m-654.57-203.872l73.607 95.434 95.434-43.421z" fill="#0092DB" p-id="3317"></path><path d="M364.089 329.491l8.823 78.02 86.61-121.441z" fill="#B1E1F3" p-id="3318"></path><path d="M316.488 121.44l-69.428 47.601 43.422 65.016z" fill="#009FE7" p-id="3319"></path><path d="M247.06 169.041l13.003 242.881 30.419-177.865zM78.02 355.498L0 481.118l130.032-95.202zM0 481.118l73.607 169.04 60.837-134.21z m95.434 299.305l78.02 69.195-13.004-160.45z m65.016-91.255l69.195 73.84 73.84-95.434z m143.035-21.594l190.636 30.418 8.823-104.026z m329.491 8.591l117.029 56.425-4.412-134.444z m212.463-138.623l60.604 8.591 39.01-108.205zM494.12 697.992l73.84 52.013 65.015-73.84z" fill="#0161B0" p-id="3320"></path><path d="M567.728 749.772L528.95 884.448l100.542-80.341z m108.205 95.434l26.238 82.431 99.846-95.202z" fill="#0161B0" p-id="3321"></path><path d="M480.885 858.21l-86.378 82.43h134.444z" fill="#00477E" p-id="3322"></path><path d="M78.019 910.454l86.61 60.605 8.824-121.44z" fill="#0161B0" p-id="3323"></path><path d="M160.45 689.168l13.003 160.45 56.192-86.61z m149.072-20.666l110.991 72.679 73.608-43.19z m171.595 189.94l47.834 26.006 39.01-134.443z m195.048-13.003l125.852-13.004-52.012-99.845z" fill="#00477E" p-id="3324"></path><path d="M702.171 1010.068l13.004-95.434-39.01-69.195z m-138.623 0h138.623l-26.006-164.63zM78.02 910.454L26.006 971.06H164.63z" fill="#00477E" p-id="3325"></path><path d="M364.089 329.491l-104.026 82.431 112.85-4.412z" fill="#0161B0" p-id="3326"></path></svg>