<svg t="1716260838269" class="icon" viewBox="0 0 1024 1024" version="1.1" xmlns="http://www.w3.org/2000/svg" p-id="7194" width="200" height="200"><path d="M168.96 675.84l168.96-168.96 168.96 168.96a238.912 238.912 0 0 1-337.92 0zM506.848 337.92a238.944 238.944 0 0 1 337.92 0l-168.96 168.96-168.96-168.96z" fill="#060198" p-id="7195"></path><path d="M168.96 675.84a238.944 238.944 0 0 1 0-337.92L506.88 0a238.944 238.944 0 0 1 0 337.92L168.96 675.84z" fill="#00C0FF" p-id="7196"></path><path d="M675.808 844.736l-168.96 168.96a238.944 238.944 0 0 1 0-337.92l168.96-168.928 168.96-168.96a238.944 238.944 0 0 1 0 337.92l-168.96 168.96z" fill="#0368EC" p-id="7197"></path></svg>
