<?xml version="1.0" standalone="no"?><!DOCTYPE svg PUBLIC "-//W3C//DTD SVG 1.1//EN" "http://www.w3.org/Graphics/SVG/1.1/DTD/svg11.dtd"><svg t="1577259568044" class="icon" viewBox="0 0 1024 1024" version="1.1" xmlns="http://www.w3.org/2000/svg" p-id="32465" xmlns:xlink="http://www.w3.org/1999/xlink" width="200" height="200"><defs><style type="text/css"></style></defs><path d="M915.456 438.272c23.893333 2.048 45.056-15.701333 47.104-39.594667 2.048-23.893333-15.701333-45.056-39.594667-47.104h-6.144c-23.210667-0.682667-42.325333 17.749333-43.008 40.96-2.048 22.528 14.336 43.008 36.864 45.056 2.048 0.682667 3.413333 1.365333 4.778667 0.682667z m10.24-62.805333c9.557333 0 19.797333 6.144 19.797333 11.605333s-7.509333 11.605333-19.797333 11.605333-19.797333-6.144-19.797333-11.605333 7.509333-11.605333 19.797333-11.605333z" fill="#4CB85D" p-id="32466"></path><path d="M1017.856 454.656c2.048-2.048 7.509333-4.096 6.144-9.557333-6.144-19.797333-23.893333-82.602667-39.594667-100.352-4.096-5.461333-9.557333-10.24-15.701333-13.653334-60.757333-33.450667-202.752-55.296-210.261333-55.296h-2.048v33.450667c-70.997333-23.210667-145.408-37.546667-219.818667-40.96-84.650667-4.096-198.656-7.509333-361.813333 92.16l-4.096 1.365333C100.352 401.408 45.056 462.848 13.653333 536.576-0.682667 573.44-3.413333 613.717333 6.144 652.629333c4.778667 21.162667 14.336 41.642667 27.306667 58.709334 29.354667 40.96 75.093333 67.584 125.610666 72.362666 72.362667 6.144 125.610667-25.258667 145.408-86.698666 15.701333-51.2-5.461333-105.813333-51.2-133.802667-33.450667-22.528-77.141333-24.576-111.957333-4.096-21.845333 13.653333-34.816 37.546667-35.498667 62.805333 0 37.546667 29.354667 68.266667 66.901334 68.949334 8.874667 0 17.066667-1.365333 25.258666-2.730667 4.096-1.365333 8.192-2.730667 11.605334-4.778667 10.24-7.509333 12.970667-21.845333 5.461333-32.768-5.461333-6.826667-13.653333-10.922667-22.528-9.557333l-4.096 0.682667c-5.461333 1.365333-10.24 2.048-15.701333 2.048-10.922667-1.365333-19.114667-10.922667-19.797334-21.845334 0-4.096 1.365333-8.874667 3.413334-12.288 8.874667-13.653333 23.893333-16.384 37.546666-15.018666 23.210667 1.365333 44.373333 15.701333 53.248 37.546666 10.24 22.528 7.509333 49.152-8.192 68.949334-15.701333 19.797333-40.96 27.306667-78.506666 23.893333-35.498667-4.096-66.901333-25.258667-84.650667-56.661333-17.066667-30.037333-18.432-67.584-2.048-98.304 37.546667-68.949333 106.496-68.949333 143.36-60.757334C270.336 518.826667 352.938667 566.613333 382.293333 678.570667h75.093334c-9.557333-29.354667-13.653333-109.909333 68.949333-109.909334 92.16 0 104.448 64.853333 129.706667 109.909334h78.506666c-19.797333-29.354667-35.498667-62.805333-31.402666-90.112 6.144-40.96 39.594667-37.546667 84.650666-31.402667 16.384 2.048 32.768 3.413333 49.152 4.096 42.325333 1.365333 84.650667-6.826667 123.562667-23.893333 15.018667-6.144 29.354667-12.970667 43.008-21.845334 3.413333-4.096 6.144-8.192 7.509333-13.653333 2.048-4.778667 3.413333-10.24 4.096-15.701333 2.048-8.192-6.144-4.096-6.144-4.096-25.258667 14.336-53.248 23.210667-82.602666 25.258666-40.96 0-123.562667-40.96-131.754667-45.056l-17.066667-43.008c59.392 39.594667 108.544 60.757333 147.456 64.853334 33.450667 0.682667 66.218667-9.557333 92.842667-29.354667z m-163.157333-61.44c1.365333-33.450667 29.354667-60.074667 62.805333-58.709333 33.450667 1.365333 60.074667 29.354667 58.709333 62.805333s-29.354667 60.074667-62.805333 58.709333c-33.450667 0-58.709333-27.306667-58.709333-62.805333z" fill="#4CB85D" p-id="32467"></path></svg>