<svg t="1653039845156" class="icon" viewBox="0 0 1024 1024" version="1.1" xmlns="http://www.w3.org/2000/svg" p-id="10858" data-spm-anchor-id="a313x.7781069.0.i11" width="64" height="64"><path d="M537 950.3l-470-230v-482l470 212z" fill="#dbdbdb" p-id="10859" data-spm-anchor-id="a313x.7781069.0.i7" class=""></path><path d="M537 950.3l420-230v-480l-420 210z" fill="#bfbfbf" p-id="10860" data-spm-anchor-id="a313x.7781069.0.i9" class=""></path><path d="M67 238.3l470 212 420-210L462.6 73.7z" fill="#bfbfbf" p-id="10861" data-spm-anchor-id="a313x.7781069.0.i10" class=""></path><path d="M259.6 703l38.7 18v36.4l-38.7-17.9V703z m24.7-283.7c-64.5-30.5-117.2-7.8-120.8 50.4l38.8 18.2c3.6-38 39.1-52.5 82.1-32.2 45.4 21.4 82.3 73.5 82.3 116s-36.9 59.9-82.2 38.8L259.6 599v77l38.7 18v-41.2c60.2 21.5 107-4.6 107-62.8 0.1-62.7-54.1-139.1-121-170.7z" fill="#ffffff" p-id="10862" data-spm-anchor-id="a313x.7781069.0.i8" class=""></path></svg>
