<?xml version="1.0" standalone="no"?><!DOCTYPE svg PUBLIC "-//W3C//DTD SVG 1.1//EN" "http://www.w3.org/Graphics/SVG/1.1/DTD/svg11.dtd"><svg t="1602495132469" class="icon" viewBox="0 0 1024 1024" version="1.1" xmlns="http://www.w3.org/2000/svg" p-id="6581" xmlns:xlink="http://www.w3.org/1999/xlink" width="200" height="200"><defs><style type="text/css"></style></defs><path d="M557.931155 0.057048a36.569391 36.569391 0 0 1 24.245507 9.142348l319.762756 283.229934a36.569391 36.569391 0 0 1 12.323884 27.353905V914.291827a109.708173 109.708173 0 0 1-109.708173 109.708173H219.444871a109.708173 109.708173 0 0 1-109.708173-109.708173V109.765222a109.708173 109.708173 0 0 1 109.708173-109.708174h338.486284z m-13.896368 73.138783H219.444871a36.569391 36.569391 0 0 0-36.569391 36.569391v804.526605a36.569391 36.569391 0 0 0 36.569391 36.569391h585.110258a36.569391 36.569391 0 0 0 36.569391-36.569391V336.27603l-297.053164-263.116769z" p-id="6582"></path><path d="M292.583653 219.473395m36.569391 0l0 0q36.569391 0 36.569391 36.569391l0 292.555129q0 36.569391-36.569391 36.569391l0 0q-36.569391 0-36.569391-36.569391l0-292.555129q0-36.569391 36.569391-36.569391Z" p-id="6583"></path><path d="M512 36.626439c0-31.559385 37.300779-48.271596 60.851467-27.317335l329.12452 292.555129C927.135728 324.171562 911.337751 365.75096 877.693911 365.75096h-329.12452a36.569391 36.569391 0 0 1-36.569391-36.569392V36.626439z m73.138782 255.985738h196.377631L585.138782 118.066473V292.612177z" p-id="6584"></path><path d="M537.85456 742.30598a36.569391 36.569391 0 0 0-51.70912 51.709119l73.248491 73.28506a36.569391 36.569391 0 0 0 51.745688 0l146.277565-146.496981a36.569391 36.569391 0 0 0-51.745689-51.67255l-120.423005 120.569283-47.39393-47.393931z" p-id="6585"></path></svg>
