<svg t="1763693715750" class="icon" viewBox="0 0 1024 1024" version="1.1" xmlns="http://www.w3.org/2000/svg" p-id="5830" width="200" height="200"><path d="M990.72 555.008h-126.976v-22.016c0-12.288-0.512-24.576-2.048-36.352h128.512c16.384 0 29.184 12.8 29.184 29.184 0.512 15.872-12.288 29.184-28.672 29.184z m-209.408-244.736c-12.8-14.848-26.624-28.672-41.984-41.472l93.696-93.184c11.776-11.264 30.208-11.264 41.984 0 11.776 11.264 11.776 30.208 0 41.472l-93.696 93.184z m24.064 573.952h68.096c16.384 0 29.184 12.8 29.184 29.184 0 15.872-13.312 29.184-29.184 29.184h-721.92c-16.384 0-29.184-12.8-29.184-29.184 0-15.872 13.312-29.184 29.184-29.184H220.16v-348.672c0-160.256 131.072-290.304 292.864-290.304s292.864 130.048 292.864 290.304l-0.512 348.672z m-58.368-329.216c0-128.512-104.96-232.448-233.984-232.448-129.536 0-233.984 103.936-233.984 232.448v329.216h467.968v-329.216z m-228.864-123.904c11.264-11.264 30.208-11.264 41.472 0 11.264 11.264 11.264 29.696 0 40.96l-63.488 62.976h104.96c16.384 0 36.864 14.848 39.424 29.184 1.024 7.168 0.512 10.24 0 12.288-3.584 13.824-11.264 20.992-19.456 29.184l-114.688 113.664c-11.776 11.776-31.232 11.776-43.008 0-11.776-11.776-11.776-30.72 0-42.496l89.6-83.968H445.44c-5.632 0-9.216-0.512-15.36-1.536-11.776-1.536-20.48-4.096-27.136-10.24-9.728-14.336-6.144-29.696 5.12-40.96l110.08-109.056z m-34.304-242.688V51.2c0-15.872 13.312-29.184 29.184-29.184 16.384 0 29.184 12.8 29.184 29.184v137.216c-9.728-1.024-19.456-1.536-29.696-1.536-9.728 0-18.944 0.512-28.672 1.536zM248.832 305.152L154.112 210.944c-11.264-11.264-11.264-29.696 0-40.96s29.696-11.264 41.472 0l95.744 94.72c-15.36 12.288-29.184 25.6-42.496 40.448z m-87.04 227.84v22.016H34.816c-16.384 0-29.184-12.8-29.184-29.184 0-15.872 13.312-29.184 29.184-29.184H163.84c-1.536 11.776-2.048 24.064-2.048 36.352z" p-id="5831"></path></svg>
