<svg viewBox="0 0 1024 1024" version="1.1" xmlns="http://www.w3.org/2000/svg" width="200" height="200"><path d="M0 0h1024v1024H0z" fill="#000000" fill-opacity="0"></path><path d="M341.248 548.48h340.928V471.488H341.248z" fill="#FE6A00"></path><path d="M852.992 192.64H627.392l54.4 77.056 164.48 50.368c29.76 9.408 49.92 37.12 49.728 68.288v246.656c0.192 31.232-19.968 58.88-49.664 68.288l-164.48 50.432-54.4 77.056h225.536a170.432 170.432 0 0 0 170.432-170.432V363.008a170.432 170.432 0 0 0-170.432-170.368M170.432 192.64h225.6l-54.464 77.056L177.088 320c-29.76 9.408-49.92 37.12-49.664 68.288v246.656c-0.192 31.232 19.904 58.88 49.664 68.288l164.48 50.432 54.4 77.056H170.496A170.432 170.432 0 0 1 0 660.352V363.008A170.368 170.368 0 0 1 170.432 192.64" fill="#FE6A00"></path></svg>