<svg viewBox="0 0 1024 1024" version="1.1" xmlns="http://www.w3.org/2000/svg" width="200" height="200"><path d="M33.98328556 554.62103284L844.32696088 554.62103284 637.3996785 753.82389166c-5.2969054 5.29828624-5.2969054 13.88573532 0 19.18540239l41.56330878 41.56468962a13.56952277 13.56952277 0 0 0 19.18678323 0l260.49009791-250.77312103c0.29964246-0.25269386 0.59652324-0.51367279 0.8795956-0.79536432l1.39188755-1.39188755 40.17418291-38.67320893a13.53085923 13.53085923 0 0 0 3.93815803-10.32868936 13.52395502 13.52395502 0 0 0-3.93539635-10.35354449l-41.56607046-40.06509648c-0.26926396-0.2637406-0.54957465-0.5109111-0.83126617-0.7511774l-260.53980818-250.81592711a13.56676109 13.56676109 0 0 0-19.18678324 1e-8l-41.56607045 41.56607045c-5.2969054 5.2969054-5.2969054 13.88573532-1e-8 19.18678324L842.38549869 468.71202104l-808.39945145 0c-7.49244232 0-13.56538025 6.07293793-13.56538024 13.56399939l0 58.78377468c0 7.48968063 6.07293793 13.56538025 13.56538024 13.56538026l-0.00276168-0.00414253z"></path></svg>