<svg viewBox="0 0 1024 1024" version="1.1" xmlns="http://www.w3.org/2000/svg" width="200" height="200"><path d="M902.436571 517.12a32.182857 32.182857 0 0 1-31.451428-31.378286c0-6.290286 2.194286-12.507429 6.363428-16.749714l60.708572-87.917714c10.459429-14.628571 29.257143-16.749714 43.885714-8.338286 14.701714 8.338286 16.822857 29.257143 8.411429 43.885714L929.645714 504.685714a40.521143 40.521143 0 0 1-27.209143 12.580572z m0 0a23.771429 23.771429 0 0 1-16.749714-6.217143l-89.965714-58.660571c-14.701714-8.338286-18.944-29.257143-10.532572-43.885715 8.338286-14.701714 29.257143-18.870857 43.958858-10.532571l2.121142 2.121143 87.917715 60.708571c14.628571 10.459429 18.870857 29.257143 8.411428 43.958857a32.694857 32.694857 0 0 1-25.161143 12.580572zM473.234286 965.339429c-255.488 0-462.774857-207.286857-462.774857-460.653715S217.746286 41.910857 473.234286 39.789714a460.580571 460.580571 0 0 1 454.363428 378.953143 34.377143 34.377143 0 0 1-25.161143 37.741714 34.377143 34.377143 0 0 1-37.668571-25.161142 399.579429 399.579429 0 0 0-464.822857-320.365715 398.043429 398.043429 0 0 0-320.365714 464.822857c39.789714 217.746286 249.124571 360.155429 464.822857 320.365715a408.502857 408.502857 0 0 0 265.874285-180.077715c8.411429-14.628571 29.330286-18.797714 44.032-10.459428 14.628571 8.411429 18.797714 29.257143 10.459429 43.958857a464.749714 464.749714 0 0 1-391.533714 215.698286z m0-523.483429c-111.030857 0-232.448-33.499429-232.448-106.788571S360.155429 230.4 473.234286 230.4c113.005714 0 232.374857 33.499429 232.374857 104.667429 0 71.241143-121.417143 106.788571-232.374857 106.788571z m0-150.674286c-106.788571 0-165.449143 31.305143-169.691429 43.885715 4.242286 10.459429 60.781714 43.958857 169.691429 43.958857 108.836571 0 163.254857-31.378286 169.545143-43.885715-6.290286-12.653714-62.756571-44.032-169.545143-44.032z m0 261.632c-111.030857 0-232.448-33.499429-232.448-106.788571 0-16.749714 14.628571-31.378286 31.451428-31.378286 16.676571 0 31.378286 14.628571 31.378286 31.451429 4.169143 12.507429 60.708571 43.885714 169.618286 43.885714 108.836571 0 165.376-31.378286 169.545143-43.885714 0-16.822857 14.628571-31.451429 31.451428-31.451429 16.749714 0 31.451429 14.628571 31.451429 31.451429 0 73.216-121.490286 106.788571-232.448 106.788571z m0 113.078857c-111.030857 0-232.448-33.499429-232.448-106.788571 0-16.749714 14.628571-31.451429 31.451428-31.451429 16.676571 0 31.378286 14.701714 31.378286 31.451429 4.169143 10.459429 60.708571 43.958857 169.618286 43.958857 108.836571 0 165.376-31.378286 169.545143-43.885714 0-16.822857 14.628571-31.451429 31.451428-31.451429 16.749714 0 31.451429 14.628571 31.451429 31.451429 0 73.216-121.490286 106.788571-232.448 106.788571z m0 110.957715c-111.030857 0-232.448-33.499429-232.448-106.788572V332.946286c0-16.822857 14.628571-31.451429 31.451428-31.451429 16.676571 0 31.378286 14.628571 31.378286 31.451429v334.994285c4.169143 12.580571 60.708571 43.958857 169.618286 43.958858 108.836571 0 165.376-31.451429 169.545143-43.958858v-334.994285c0-16.822857 14.628571-31.451429 31.451428-31.451429 16.749714 0 31.451429 14.628571 31.451429 31.451429v334.994285c0 75.337143-121.490286 108.836571-232.448 108.836572z"></path></svg>