<svg viewBox="0 0 1706 1024" version="1.1" xmlns="http://www.w3.org/2000/svg" xmlns:xlink="http://www.w3.org/1999/xlink" width="39.984375" height="24"><path d="M480.589977 370.847108a160.297147 160.297147 0 0 0 6.480097 50.476548 263.637647 263.637647 0 0 0 18.417119 40.585873 26.261447 26.261447 0 0 1 4.092693 12.960195 21.827697 21.827697 0 0 1-10.913848 16.71183l-34.105776 23.874043a28.307794 28.307794 0 0 1-15.006541 5.115867 23.532985 23.532985 0 0 1-16.711831-7.844329 129.601948 129.601948 0 0 1-20.463465-26.261447q-8.526444-14.324426-17.393946-34.105776a209.409464 209.409464 0 0 1-166.777244 78.443284 154.840222 154.840222 0 0 1-113.231176-40.585873 145.631663 145.631663 0 0 1-41.609046-109.138483 145.972721 145.972721 0 0 1 49.794433-115.959638 206.681002 206.681002 0 0 1 139.151565-43.996451 425.299025 425.299025 0 0 1 60.026166 4.433751q31.377314 4.433751 65.142032 12.27808V196.225535a124.486082 124.486082 0 0 0-26.943563-90.721364 129.943006 129.943006 0 0 0-92.426653-26.261447 262.955532 262.955532 0 0 0-61.049339 7.503271 435.871816 435.871816 0 0 0-61.049339 19.440292 155.18128 155.18128 0 0 1-19.78135 7.503271h-8.867501q-11.937022 0-11.937022-17.735004V69.010991a37.175296 37.175296 0 0 1 4.092693-19.78135 40.926931 40.926931 0 0 1 16.029715-11.937021A371.070841 371.070841 0 0 1 196.829921 11.713288 347.537856 347.537856 0 0 1 285.163881 0.799439a204.634655 204.634655 0 0 1 148.360125 46.042798 187.24071 187.24071 0 0 1 47.065971 139.492623z m-230.213987 86.287612a182.806959 182.806959 0 0 0 58.661934-10.57279A123.803966 123.803966 0 0 0 362.583992 410.06875a89.357133 89.357133 0 0 0 19.099235-34.105776 192.015518 192.015518 0 0 0 5.456924-49.112317v-23.874043a489.417884 489.417884 0 0 0-52.181837-9.549618 421.888447 421.888447 0 0 0-53.205011-3.410577 130.966179 130.966179 0 0 0-84.241266 22.85087A79.807516 79.807516 0 0 0 170.568474 375.962974a80.148573 80.148573 0 0 0 20.804523 60.026165 81.853862 81.853862 0 0 0 59.002993 21.145581z m455.312107 61.390397a34.105776 34.105776 0 0 1-21.827696-5.456924 44.337509 44.337509 0 0 1-11.937022-22.168754L539.251911 52.299161a102.317328 102.317328 0 0 1-5.115866-22.85087 12.278079 12.278079 0 0 1 13.983368-13.983368h55.592415a34.105776 34.105776 0 0 1 22.168754 5.456924 47.748086 47.748086 0 0 1 11.254906 22.168754l95.155115 375.163535 88.333959-375.163535a39.903758 39.903758 0 0 1 11.254906-21.827696 37.516353 37.516353 0 0 1 22.85087-5.456924h45.70174a37.516353 37.516353 0 0 1 22.850869 5.456924 39.903758 39.903758 0 0 1 10.913849 22.168754L1023.212871 423.370002l98.224634-379.938343a47.407028 47.407028 0 0 1 11.595964-22.168754 34.105776 34.105776 0 0 1 22.168754-5.456924h52.522895a12.278079 12.278079 0 0 1 13.983368 13.983368 46.383855 46.383855 0 0 1 0 8.867502 124.145024 124.145024 0 0 1-4.092693 13.983368l-136.423103 438.600277a44.337509 44.337509 0 0 1-11.937022 22.168755 34.105776 34.105776 0 0 1-21.827696 5.456924h-49.794433a34.105776 34.105776 0 0 1-22.85087-5.797982 42.973278 42.973278 0 0 1-10.913848-22.85087L875.534861 124.944464l-87.310786 364.931801a42.973278 42.973278 0 0 1-10.913848 22.85087 34.105776 34.105776 0 0 1-22.85087 5.797982z m728.499373 15.006541a384.713152 384.713152 0 0 1-87.310786-9.890675 253.746972 253.746972 0 0 1-65.48309-22.850869 34.105776 34.105776 0 0 1-20.804523-31.718372v-28.648852q0-17.735003 12.960195-17.735003a30.695198 30.695198 0 0 1 10.57279 2.046346l14.324426 5.797982a299.107654 299.107654 0 0 0 62.41357 19.78135 333.554488 333.554488 0 0 0 68.211551 6.821155 152.793876 152.793876 0 0 0 82.877036-18.758176 60.026166 60.026166 0 0 0 29.330967-53.546068 54.910299 54.910299 0 0 0-15.347599-39.5627A146.313778 146.313778 0 0 0 1466.587957 315.254693l-82.19492-25.92039A175.644746 175.644746 0 0 1 1296.059078 232.0366a134.376757 134.376757 0 0 1-28.307794-82.19492 126.191371 126.191371 0 0 1 15.347599-63.095685 152.452818 152.452818 0 0 1 40.585873-46.724913 179.737439 179.737439 0 0 1 57.979819-29.330968A252.382741 252.382741 0 0 1 1452.945647 0.799439a302.518232 302.518232 0 0 1 38.198469 2.387405q19.440292 2.387404 36.834237 6.480097t32.400488 8.867502a145.631663 145.631663 0 0 1 23.874043 9.890675 54.228184 54.228184 0 0 1 16.71183 13.983368 32.059429 32.059429 0 0 1 5.115866 18.758177v26.943563q0 17.735003-12.960195 17.735003a60.026166 60.026166 0 0 1-21.827696-6.821155 263.978705 263.978705 0 0 0-109.138483-21.827697 149.042241 149.042241 0 0 0-75.373765 16.029715 54.569241 54.569241 0 0 0-26.943563 50.476548 53.887126 53.887126 0 0 0 16.711831 40.244816 168.482533 168.482533 0 0 0 62.413569 31.377314l80.489632 24.2151a173.257341 173.257341 0 0 1 87.651843 54.569242 128.237717 128.237717 0 0 1 26.602506 81.853862 143.585316 143.585316 0 0 1-15.006542 65.824147 150.065414 150.065414 0 0 1-41.267989 50.135491 185.194363 185.194363 0 0 1-63.095685 31.718371 281.372651 281.372651 0 0 1-80.148573 9.890675z" fill="#252F3E"></path><path d="M1541.279606 812.857963C1354.721012 950.645297 1083.921152 1023.972715 852.683991 1023.972715A1249.635628 1249.635628 0 0 1 7.542865 702.355249c-17.393946-15.688657-2.046347-37.175296 19.099235-25.238274a1697.785523 1697.785523 0 0 0 844.117953 224.074947 1679.027346 1679.027346 0 0 0 643.57599-131.989352c31.377314-13.301253 57.979819 20.804523 26.943563 43.655393z" fill="#FF9900"></path><path d="M1619.040775 724.182946c-23.874043-30.695198-157.909742-14.324426-217.935908-7.162213-18.076061 2.046347-21.145581-13.64231-4.774808-25.238275 106.751078-75.032707 282.054766-53.546068 302.177174-28.307794s-5.456924 200.88302-105.386848 284.783229c-15.347599 12.960195-30.013083 6.13904-23.191927-10.913848 22.509812-56.615588 72.98636-182.465901 49.112317-213.161099z" fill="#FF9900"></path><path d="M480.589977 370.847108a160.297147 160.297147 0 0 0 6.480097 50.476548 263.637647 263.637647 0 0 0 18.417119 40.585873 26.261447 26.261447 0 0 1 4.092693 12.960195 21.827697 21.827697 0 0 1-10.913848 16.71183l-34.105776 23.874043a28.307794 28.307794 0 0 1-15.006541 5.115867 23.532985 23.532985 0 0 1-16.711831-7.844329 129.601948 129.601948 0 0 1-20.463465-26.261447q-8.526444-14.324426-17.393946-34.105776a209.409464 209.409464 0 0 1-166.777244 78.443284 154.840222 154.840222 0 0 1-113.231176-40.585873 145.631663 145.631663 0 0 1-41.609046-109.138483 145.972721 145.972721 0 0 1 49.794433-115.959638 206.681002 206.681002 0 0 1 139.151565-43.996451 425.299025 425.299025 0 0 1 60.026166 4.433751q31.377314 4.433751 65.142032 12.27808V196.225535a124.486082 124.486082 0 0 0-26.943563-90.721364 129.943006 129.943006 0 0 0-92.426653-26.261447 262.955532 262.955532 0 0 0-61.049339 7.503271 435.871816 435.871816 0 0 0-61.049339 19.440292 155.18128 155.18128 0 0 1-19.78135 7.503271h-8.867501q-11.937022 0-11.937022-17.735004V69.010991a37.175296 37.175296 0 0 1 4.092693-19.78135 40.926931 40.926931 0 0 1 16.029715-11.937021A371.070841 371.070841 0 0 1 196.829921 11.713288 347.537856 347.537856 0 0 1 285.163881 0.799439a204.634655 204.634655 0 0 1 148.360125 46.042798 187.24071 187.24071 0 0 1 47.065971 139.492623z m-230.213987 86.287612a182.806959 182.806959 0 0 0 58.661934-10.57279A123.803966 123.803966 0 0 0 362.583992 410.06875a89.357133 89.357133 0 0 0 19.099235-34.105776 192.015518 192.015518 0 0 0 5.456924-49.112317v-23.874043a489.417884 489.417884 0 0 0-52.181837-9.549618 421.888447 421.888447 0 0 0-53.205011-3.410577 130.966179 130.966179 0 0 0-84.241266 22.85087A79.807516 79.807516 0 0 0 170.568474 375.962974a80.148573 80.148573 0 0 0 20.804523 60.026165 81.853862 81.853862 0 0 0 59.002993 21.145581z m455.312107 61.390397a34.105776 34.105776 0 0 1-21.827696-5.456924 44.337509 44.337509 0 0 1-11.937022-22.168754L539.251911 52.299161a102.317328 102.317328 0 0 1-5.115866-22.85087 12.278079 12.278079 0 0 1 13.983368-13.983368h55.592415a34.105776 34.105776 0 0 1 22.168754 5.456924 47.748086 47.748086 0 0 1 11.254906 22.168754l95.155115 375.163535 88.333959-375.163535a39.903758 39.903758 0 0 1 11.254906-21.827696 37.516353 37.516353 0 0 1 22.85087-5.456924h45.70174a37.516353 37.516353 0 0 1 22.850869 5.456924 39.903758 39.903758 0 0 1 10.913849 22.168754L1023.212871 423.370002l98.224634-379.938343a47.407028 47.407028 0 0 1 11.595964-22.168754 34.105776 34.105776 0 0 1 22.168754-5.456924h52.522895a12.278079 12.278079 0 0 1 13.983368 13.983368 46.383855 46.383855 0 0 1 0 8.867502 124.145024 124.145024 0 0 1-4.092693 13.983368l-136.423103 438.600277a44.337509 44.337509 0 0 1-11.937022 22.168755 34.105776 34.105776 0 0 1-21.827696 5.456924h-49.794433a34.105776 34.105776 0 0 1-22.85087-5.797982 42.973278 42.973278 0 0 1-10.913848-22.85087L875.534861 124.944464l-87.310786 364.931801a42.973278 42.973278 0 0 1-10.913848 22.85087 34.105776 34.105776 0 0 1-22.85087 5.797982z m728.499373 15.006541a384.713152 384.713152 0 0 1-87.310786-9.890675 253.746972 253.746972 0 0 1-65.48309-22.850869 34.105776 34.105776 0 0 1-20.804523-31.718372v-28.648852q0-17.735003 12.960195-17.735003a30.695198 30.695198 0 0 1 10.57279 2.046346l14.324426 5.797982a299.107654 299.107654 0 0 0 62.41357 19.78135 333.554488 333.554488 0 0 0 68.211551 6.821155 152.793876 152.793876 0 0 0 82.877036-18.758176 60.026166 60.026166 0 0 0 29.330967-53.546068 54.910299 54.910299 0 0 0-15.347599-39.5627A146.313778 146.313778 0 0 0 1466.587957 315.254693l-82.19492-25.92039A175.644746 175.644746 0 0 1 1296.059078 232.0366a134.376757 134.376757 0 0 1-28.307794-82.19492 126.191371 126.191371 0 0 1 15.347599-63.095685 152.452818 152.452818 0 0 1 40.585873-46.724913 179.737439 179.737439 0 0 1 57.979819-29.330968A252.382741 252.382741 0 0 1 1452.945647 0.799439a302.518232 302.518232 0 0 1 38.198469 2.387405q19.440292 2.387404 36.834237 6.480097t32.400488 8.867502a145.631663 145.631663 0 0 1 23.874043 9.890675 54.228184 54.228184 0 0 1 16.71183 13.983368 32.059429 32.059429 0 0 1 5.115866 18.758177v26.943563q0 17.735003-12.960195 17.735003a60.026166 60.026166 0 0 1-21.827696-6.821155 263.978705 263.978705 0 0 0-109.138483-21.827697 149.042241 149.042241 0 0 0-75.373765 16.029715 54.569241 54.569241 0 0 0-26.943563 50.476548 53.887126 53.887126 0 0 0 16.711831 40.244816 168.482533 168.482533 0 0 0 62.413569 31.377314l80.489632 24.2151a173.257341 173.257341 0 0 1 87.651843 54.569242 128.237717 128.237717 0 0 1 26.602506 81.853862 143.585316 143.585316 0 0 1-15.006542 65.824147 150.065414 150.065414 0 0 1-41.267989 50.135491 185.194363 185.194363 0 0 1-63.095685 31.718371 281.372651 281.372651 0 0 1-80.148573 9.890675z" fill="#252F3E"></path><path d="M1541.279606 812.857963C1354.721012 950.645297 1083.921152 1023.972715 852.683991 1023.972715A1249.635628 1249.635628 0 0 1 7.542865 702.355249c-17.393946-15.688657-2.046347-37.175296 19.099235-25.238274a1697.785523 1697.785523 0 0 0 844.117953 224.074947 1679.027346 1679.027346 0 0 0 643.57599-131.989352c31.377314-13.301253 57.979819 20.804523 26.943563 43.655393z" fill="#FF9900"></path><path d="M1619.040775 724.182946c-23.874043-30.695198-157.909742-14.324426-217.935908-7.162213-18.076061 2.046347-21.145581-13.64231-4.774808-25.238275 106.751078-75.032707 282.054766-53.546068 302.177174-28.307794s-5.456924 200.88302-105.386848 284.783229c-15.347599 12.960195-30.013083 6.13904-23.191927-10.913848 22.509812-56.615588 72.98636-182.465901 49.112317-213.161099z" fill="#FF9900"></path></svg>