<svg t="1698740473453" class="icon" viewBox="0 0 3324 1024" version="1.1" xmlns="http://www.w3.org/2000/svg" p-id="1512" width="200" height="200"><path d="M1246.507307 359.196103c0 19.177035 0 31.961726 6.392346 51.138761l19.177035 38.354071c0 6.392345 6.392345 6.392345 6.392345 12.78469s-6.392345 12.78469-12.78469 19.177036l-31.961726 25.569381c-6.392345 0-6.392345 6.392345-12.78469 6.392345s-12.78469 0-19.177036-6.392345c-6.392345-6.392345-12.78469-12.78469-19.177035-25.569381-6.392345-6.392345-12.78469-19.177035-19.177036-31.961726-44.746416 31.961726-102.277523 63.923452-166.200974 63.923452-38.354071 0-83.100487-12.78469-108.669868-38.354071-25.569381-25.569381-44.746416-63.923452-38.354071-102.277523 0-44.746416 19.177035-83.100487 51.138761-108.669868 38.354071-31.961726 89.492832-44.746416 134.239249-44.746416 19.177035 0 38.354071 0 57.531106 6.392345 19.177035 0 44.746416 6.392345 63.923452 12.784691v-51.138762c6.392345-31.961726-6.392345-63.923452-25.569381-89.492832-25.569381-19.177035-57.531106-25.569381-89.492832-25.569381-19.177035 0-38.354071 0-57.531106 6.392345l-57.531107 19.177036c-6.392345 0-12.78469 6.392345-19.177035 6.392345h-6.392346c-6.392345 0-12.78469-6.392345-12.78469-19.177035V65.148225c0-6.392345 0-12.78469 6.392345-19.177035 6.392345-6.392345 12.78469-6.392345 12.784691-12.784691 25.569381-12.78469 44.746416-19.177035 70.315796-25.56938 12.78469 0 44.746416-6.392345 70.315797-6.392346 51.138761-6.392345 102.277523 12.78469 147.023939 44.746417 31.961726 38.354071 51.138761 83.100487 44.746416 134.239248v178.985665z m-230.124426 83.100487c19.177035 0 38.354071-6.392345 57.531107-12.78469 19.177035-6.392345 38.354071-19.177035 51.138761-31.961726 6.392345-6.392345 12.78469-19.177035 19.177036-31.961726 6.392345-19.177035 6.392345-38.354071 6.392345-51.138761v-25.569381c-19.177035-6.392345-31.961726-6.392345-51.138761-6.392345-19.177035 0-31.961726-6.392345-51.138762-6.392345-31.961726 0-57.531106 6.392345-83.100487 19.177035-19.177035 12.78469-25.569381 38.354071-25.569381 57.531107 0 19.177035 6.392345 44.746416 19.177036 57.531106 12.78469 25.569381 38.354071 31.961726 57.531106 31.961726z m447.464162 57.531106c-6.392345 0-12.78469 0-19.177035-6.392345-6.392345-6.392345-12.78469-12.78469-12.784691-19.177035l-127.846903-421.894781c0-6.392345-6.392345-12.78469-6.392345-19.177036 0-6.392345 0-6.392345 6.392345-12.78469 0 0 6.392345-6.392345 12.78469-6.392345h57.531107c6.392345 0 12.78469 0 19.177035 6.392345 6.392345 6.392345 6.392345 12.78469 12.784691 19.177035l95.885177 357.97133L1591.693946 39.578844c0-6.392345 6.392345-12.78469 12.784691-19.177035 6.392345-6.392345 12.78469-6.392345 25.56938-6.392345h44.746417c6.392345 0 12.78469 0 25.56938 6.392345 6.392345 6.392345 6.392345 12.78469 12.784691 19.177035l89.492832 364.363675L1898.526514 39.578844c0-6.392345 6.392345-12.78469 12.784691-19.177035 6.392345-6.392345 12.78469-6.392345 19.177035-6.392345h51.138762c6.392345 0 6.392345 0 12.78469 6.392345 0 0 6.392345 6.392345 6.392345 12.78469v6.392345c0 6.392345 0 6.392345-6.392345 12.784691l-134.239249 421.894781c0 6.392345-6.392345 12.78469-12.78469 19.177035-6.392345 6.392345-12.78469 6.392345-19.177035 6.392345h-51.138762c-6.392345 0-12.78469 0-25.56938-6.392345-6.392345-6.392345-6.392345-12.78469-12.784691-19.177035l-89.492832-351.578984-83.100487 351.578984c0 6.392345-6.392345 12.78469-12.784691 19.177035-6.392345 6.392345-12.78469 6.392345-25.56938 6.392345h-63.923452z m722.335004 12.784691c-31.961726 0-57.531106 0-83.100487-6.392345s-44.746416-12.78469-63.923452-19.177036c-12.78469-6.392345-19.177035-19.177035-19.177035-31.961726v-31.961726c0-12.78469 6.392345-19.177035 12.78469-19.177035h12.78469l12.784691 6.392345c19.177035 6.392345 38.354071 12.78469 63.923451 19.177036 19.177035 6.392345 44.746416 6.392345 70.315797 6.392345 25.569381 0 57.531106-6.392345 83.100487-19.177036 19.177035-12.78469 31.961726-31.961726 31.961726-51.138761 0-12.78469-6.392345-25.569381-12.78469-38.354071-38.354071-6.392345-57.531106-19.177035-76.708142-25.569381l-83.100487-25.56938c-31.961726-6.392345-63.923452-25.569381-89.492833-57.531107-19.177035-25.569381-25.569381-51.138761-25.56938-76.708142 0-19.177035 6.392345-44.746416 12.78469-57.531106 12.78469-19.177035 25.569381-31.961726 44.746416-44.746417 19.177035-12.78469 38.354071-19.177035 57.531107-25.56938 19.177035-6.392345 44.746416-12.78469 63.923451-12.784691h38.354071c12.78469 0 25.569381 6.392345 38.354071 6.392346 12.78469 0 19.177035 6.392345 31.961726 6.392345 6.392345 0 12.78469 6.392345 25.569381 6.392345 6.392345 6.392345 12.78469 6.392345 19.177035 12.78469 6.392345 6.392345 6.392345 12.78469 6.392345 19.177036v25.56938c0 12.78469-6.392345 19.177035-12.78469 19.177036s-12.78469 0-19.177035-6.392345c-31.961726-12.78469-70.315797-19.177035-108.669868-19.177036-25.569381 0-51.138761 6.392345-76.708142 12.784691-19.177035 19.177035-31.961726 31.961726-31.961726 57.531106 0 12.78469 6.392345 25.569381 19.177035 38.354071 19.177035 12.78469 38.354071 25.569381 63.923452 31.961726l76.708142 25.569381c31.961726 6.392345 63.923452 25.569381 89.492832 51.138761 19.177035 25.569381 25.569381 51.138761 25.569381 76.708142 0 19.177035-6.392345 44.746416-12.78469 63.923452-12.78469 19.177035-25.569381 38.354071-38.354071 51.138761-19.177035 12.78469-38.354071 25.569381-63.923452 31.961726h-83.100487z" fill="#252F3E" p-id="1513"></path><path d="M2365.167712 774.698539c-185.37801 159.808629-453.856507 249.301461-683.980933 249.301461-306.832568 0-607.272791-134.239248-837.397217-377.148365-19.177035-19.177035 0-44.746416 19.177035-31.961726 255.693807 172.593319 543.349339 262.086152 837.397217 262.086152 217.339736 0 434.679471-51.138761 639.234517-153.416284 31.961726-12.78469 57.531106 25.569381 25.569381 51.138762z" fill="#FF9900" p-id="1514"></path><path d="M2397.129437 697.990397c-25.569381-31.961726-153.416284-12.78469-210.94739-6.392346-19.177035 0-19.177035-12.78469-6.392345-25.56938 102.277523-70.315797 274.870842-51.138761 294.047877-25.569381 19.177035 25.569381-6.392345 198.1627-102.277522 274.870842-12.78469 12.78469-31.961726 6.392345-19.177036-12.78469 19.177035-51.138761 70.315797-172.593319 44.746416-204.555045z" fill="#FF9900" p-id="1515"></path><path d="M1246.507307 359.196103c0 19.177035 0 31.961726 6.392346 51.138761l19.177035 38.354071c0 6.392345 6.392345 6.392345 6.392345 12.78469s-6.392345 12.78469-12.78469 19.177036l-31.961726 25.569381c-6.392345 0-6.392345 6.392345-12.78469 6.392345s-12.78469 0-19.177036-6.392345c-6.392345-6.392345-12.78469-12.78469-19.177035-25.569381-6.392345-6.392345-12.78469-19.177035-19.177036-31.961726-44.746416 31.961726-102.277523 63.923452-166.200974 63.923452-38.354071 0-83.100487-12.78469-108.669868-38.354071-25.569381-25.569381-44.746416-63.923452-38.354071-102.277523 0-44.746416 19.177035-83.100487 51.138761-108.669868 38.354071-31.961726 89.492832-44.746416 134.239249-44.746416 19.177035 0 38.354071 0 57.531106 6.392345 19.177035 0 44.746416 6.392345 63.923452 12.784691v-51.138762c6.392345-31.961726-6.392345-63.923452-25.569381-89.492832-25.569381-19.177035-57.531106-25.569381-89.492832-25.569381-19.177035 0-38.354071 0-57.531106 6.392345l-57.531107 19.177036c-6.392345 0-12.78469 6.392345-19.177035 6.392345h-6.392346c-6.392345 0-12.78469-6.392345-12.78469-19.177035V65.148225c0-6.392345 0-12.78469 6.392345-19.177035 6.392345-6.392345 12.78469-6.392345 12.784691-12.784691 25.569381-12.78469 44.746416-19.177035 70.315796-25.56938 12.78469 0 44.746416-6.392345 70.315797-6.392346 51.138761-6.392345 102.277523 12.78469 147.023939 44.746417 31.961726 38.354071 51.138761 83.100487 44.746416 134.239248v178.985665z m-230.124426 83.100487c19.177035 0 38.354071-6.392345 57.531107-12.78469 19.177035-6.392345 38.354071-19.177035 51.138761-31.961726 6.392345-6.392345 12.78469-19.177035 19.177036-31.961726 6.392345-19.177035 6.392345-38.354071 6.392345-51.138761v-25.569381c-19.177035-6.392345-31.961726-6.392345-51.138761-6.392345-19.177035 0-31.961726-6.392345-51.138762-6.392345-31.961726 0-57.531106 6.392345-83.100487 19.177035-19.177035 12.78469-25.569381 38.354071-25.569381 57.531107 0 19.177035 6.392345 44.746416 19.177036 57.531106 12.78469 25.569381 38.354071 31.961726 57.531106 31.961726z m447.464162 57.531106c-6.392345 0-12.78469 0-19.177035-6.392345-6.392345-6.392345-12.78469-12.78469-12.784691-19.177035l-127.846903-421.894781c0-6.392345-6.392345-12.78469-6.392345-19.177036 0-6.392345 0-6.392345 6.392345-12.78469 0 0 6.392345-6.392345 12.78469-6.392345h57.531107c6.392345 0 12.78469 0 19.177035 6.392345 6.392345 6.392345 6.392345 12.78469 12.784691 19.177035l95.885177 357.97133L1591.693946 39.578844c0-6.392345 6.392345-12.78469 12.784691-19.177035 6.392345-6.392345 12.78469-6.392345 25.56938-6.392345h44.746417c6.392345 0 12.78469 0 25.56938 6.392345 6.392345 6.392345 6.392345 12.78469 12.784691 19.177035l89.492832 364.363675L1898.526514 39.578844c0-6.392345 6.392345-12.78469 12.784691-19.177035 6.392345-6.392345 12.78469-6.392345 19.177035-6.392345h51.138762c6.392345 0 6.392345 0 12.78469 6.392345 0 0 6.392345 6.392345 6.392345 12.78469v6.392345c0 6.392345 0 6.392345-6.392345 12.784691l-134.239249 421.894781c0 6.392345-6.392345 12.78469-12.78469 19.177035-6.392345 6.392345-12.78469 6.392345-19.177035 6.392345h-51.138762c-6.392345 0-12.78469 0-25.56938-6.392345-6.392345-6.392345-6.392345-12.78469-12.784691-19.177035l-89.492832-351.578984-83.100487 351.578984c0 6.392345-6.392345 12.78469-12.784691 19.177035-6.392345 6.392345-12.78469 6.392345-25.56938 6.392345h-63.923452z m722.335004 12.784691c-31.961726 0-57.531106 0-83.100487-6.392345s-44.746416-12.78469-63.923452-19.177036c-12.78469-6.392345-19.177035-19.177035-19.177035-31.961726v-31.961726c0-12.78469 6.392345-19.177035 12.78469-19.177035h12.78469l12.784691 6.392345c19.177035 6.392345 38.354071 12.78469 63.923451 19.177036 19.177035 6.392345 44.746416 6.392345 70.315797 6.392345 25.569381 0 57.531106-6.392345 83.100487-19.177036 19.177035-12.78469 31.961726-31.961726 31.961726-51.138761 0-12.78469-6.392345-25.569381-12.78469-38.354071-38.354071-6.392345-57.531106-19.177035-76.708142-25.569381l-83.100487-25.56938c-31.961726-6.392345-63.923452-25.569381-89.492833-57.531107-19.177035-25.569381-25.569381-51.138761-25.56938-76.708142 0-19.177035 6.392345-44.746416 12.78469-57.531106 12.78469-19.177035 25.569381-31.961726 44.746416-44.746417 19.177035-12.78469 38.354071-19.177035 57.531107-25.56938 19.177035-6.392345 44.746416-12.78469 63.923451-12.784691h38.354071c12.78469 0 25.569381 6.392345 38.354071 6.392346 12.78469 0 19.177035 6.392345 31.961726 6.392345 6.392345 0 12.78469 6.392345 25.569381 6.392345 6.392345 6.392345 12.78469 6.392345 19.177035 12.78469 6.392345 6.392345 6.392345 12.78469 6.392345 19.177036v25.56938c0 12.78469-6.392345 19.177035-12.78469 19.177036s-12.78469 0-19.177035-6.392345c-31.961726-12.78469-70.315797-19.177035-108.669868-19.177036-25.569381 0-51.138761 6.392345-76.708142 12.784691-19.177035 19.177035-31.961726 31.961726-31.961726 57.531106 0 12.78469 6.392345 25.569381 19.177035 38.354071 19.177035 12.78469 38.354071 25.569381 63.923452 31.961726l76.708142 25.569381c31.961726 6.392345 63.923452 25.569381 89.492832 51.138761 19.177035 25.569381 25.569381 51.138761 25.569381 76.708142 0 19.177035-6.392345 44.746416-12.78469 63.923452-12.78469 19.177035-25.569381 38.354071-38.354071 51.138761-19.177035 12.78469-38.354071 25.569381-63.923452 31.961726h-83.100487z" fill="#252F3E" p-id="1516"></path><path d="M2365.167712 774.698539c-185.37801 159.808629-453.856507 249.301461-683.980933 249.301461-306.832568 0-607.272791-134.239248-837.397217-377.148365-19.177035-19.177035 0-44.746416 19.177035-31.961726 255.693807 172.593319 543.349339 262.086152 837.397217 262.086152 217.339736 0 434.679471-51.138761 639.234517-153.416284 31.961726-12.78469 57.531106 25.569381 25.569381 51.138762z" fill="#FF9900" p-id="1517"></path><path d="M2397.129437 697.990397c-25.569381-31.961726-153.416284-12.78469-210.94739-6.392346-19.177035 0-19.177035-12.78469-6.392345-25.56938 102.277523-70.315797 274.870842-51.138761 294.047877-25.569381 19.177035 25.569381-6.392345 198.1627-102.277522 274.870842-12.78469 12.78469-31.961726 6.392345-19.177036-12.78469 19.177035-51.138761 70.315797-172.593319 44.746416-204.555045z" fill="#FF9900" p-id="1518"></path></svg>
