<svg t="1762851043263" class="icon" viewBox="0 0 1026 1024" version="1.1" xmlns="http://www.w3.org/2000/svg" p-id="1784" width="200" height="200"><path d="M163.2 94.08a48 48 0 0 0-67.84 0 48 48 0 0 0 0 67.84l67.84-67.84z m145.28 279.04a48 48 0 0 0 67.84 0 48 48 0 0 0 0-67.84L308.48 373.12z m-213.12-211.2l213.12 211.2 67.84-67.84-213.12-211.2-67.84 67.84zM95.36 859.52a48 48 0 0 0 67.84 68.48l-67.84-68.48z m280.96-142.72a48 48 0 0 0-67.84-68.48l67.84 68.48z m-213.12 211.2l213.12-211.2-67.84-68.48-213.12 211.2 67.84 68.48zM863.36 928a48 48 0 0 0 67.84-67.84l-67.84 67.84z m-143.36-279.04a47.36 47.36 0 0 0-67.84 0 48 48 0 0 0 0 67.84l67.84-67.84z m211.2 211.2l-211.2-211.2-67.84 67.84 211.2 211.2 67.84-67.84zM929.28 161.92a48 48 0 0 0 0-67.84 49.28 49.28 0 0 0-68.48 0l68.48 67.84z m-279.68 143.36a48 48 0 0 0 0 67.84 49.28 49.28 0 0 0 68.48 0l-68.48-67.84z m211.2-211.2l-211.2 211.2 68.48 67.84 211.2-211.2-68.48-67.84z" p-id="1785"></path><path d="M704 80a48 48 0 0 0 0 96v-96zM896 128h48a48.64 48.64 0 0 0-48-48V128z m-48 192a48 48 0 0 0 96 0zM704 176h192v-96h-192v96zM849.28 128v192h96V128zM945.28 704a48 48 0 0 0-96 0zM896 896v48a48.64 48.64 0 0 0 48-48z m-192-48a48 48 0 0 0 0 96v-96zM849.28 704v192h96v-192z m46.72 144h-192v96h192v-96zM320 944a48 48 0 0 0 0-96v96zM128 896h-46.72a48 48 0 0 0 48 48V896z m48-192a48 48 0 0 0-96 0zM320 848H128v96h192v-96zM177.28 896v-192h-96v192zM81.28 320a48 48 0 0 0 96 0zM128 128v-48a48 48 0 0 0-46.72 48z m192 48a48 48 0 0 0 0-96v96zM177.28 320V128h-96v192zM128 176h192v-96H128v96z" p-id="1786"></path></svg>
