<svg viewBox="0 0 1024 1024" version="1.1" xmlns="http://www.w3.org/2000/svg" width="200" height="200"><path d="M508.5 826.2c-11 0-20-8.9-20-20 0-11 8.9-20 20-20l259.7-0.2c11 0 20 8.9 20 20 0 11-8.9 20-20 20l-259.7 0.2zM508.5 670.2c-11 0-20-8.9-20-20 0-11 8.9-20 20-20l259.7-0.2c11 0 20 8.9 20 20 0 11-8.9 20-20 20l-259.7 0.2zM642.7 228.5H379.5c-22.1 0-40-17.9-40-40v-87.6c0-22.1 17.9-40 40-40h263.3c22.1 0 40 17.9 40 40v87.6c-0.1 22-18 40-40.1 40zM379.5 100.9v87.6h263.3v-87.6H379.5z"></path><path d="M935.4 990h-850V117.7h164.3c11 0 20 9 20 20s-9 20-20 20H125.4V950h770V157.7H771.8c-11 0-20-9-20-20s9-20 20-20h163.5V990z"></path><path d="M650.6 227.1H372.2c-17.6 0-32-14.4-32-32V92c0-17.6 14.4-32 32-32h278.3c17.6 0 32 14.4 32 32v103.1c0.1 17.7-14.3 32-31.9 32z m-270.4-40h262.3V100H380.2v87.1zM256 509.2c-11 0-20-8.9-20-20 0-11 8.9-20 20-20l512.1-0.2c11 0 20 8.9 20 20 0 11-8.9 20-20 20l-512.1 0.2c0.1 0 0.1 0 0 0zM256 380.2c-11 0-20-8.9-20-20 0-11 8.9-20 20-20l512.1-0.2c11 0 20 8.9 20 20 0 11-8.9 20-20 20l-512.1 0.2c0.1 0 0.1 0 0 0zM297.4 711.8l-131-105.5c-8.6-6.9-10-19.5-3-28.1 6.9-8.6 19.5-10 28.1-3l105.9 85.3 105.9-85.3c8.6-6.9 21.2-5.6 28.1 3 6.9 8.6 5.6 21.2-3 28.1l-131 105.5z"></path><path d="M297.4 860.2c-11 0-20-9-20-20v-149c0-11 9-20 20-20s20 9 20 20v149c0 11.1-9 20-20 20z"></path><path d="M191.5 801.9c-11 0-20-8.9-20-20 0-11 8.9-20 20-20l210.7-0.3c11 0 20 8.9 20 20 0 11-8.9 20-20 20l-210.7 0.3c0.1 0 0.1 0 0 0zM191.5 740.9c-11 0-20-8.9-20-20 0-11 8.9-20 20-20l210.7-0.3c11 0 20 8.9 20 20 0 11-8.9 20-20 20l-210.7 0.3c0.1 0 0.1 0 0 0z"></path></svg>