<svg xmlns:inkpad="http://taptrix.com/inkpad/svg_extensions" height="200pt" xmlns:xlink="http://www.w3.org/1999/xlink" xmlns="http://www.w3.org/2000/svg" width="200pt" version="1.1" viewBox="0,0,200,200"><g><path d="M108.599+186.996L95.7189+186.996C89.9881+186.996+85.0501+182.058+85.0501+176.329L85.0501+168.622C85.0501+166.742+83.5215+164.537+81.7903+163.997L81.4843+163.877L70.6005+159.364L70.4286+159.268C68.8361+158.407+66.1283+158.804+64.852+160.086L59.3491+165.579C57.4096+167.527+54.8102+168.605+52.0381+168.605C49.2656+168.605+46.6655+167.527+44.7162+165.569L35.5986+156.462C31.5743+152.438+31.5689+145.87+35.585+141.819L41.0831+136.329C42.3794+135.045+42.7777+132.306+41.9139+130.683L41.7514+130.337L37.2271+119.375L37.1745+119.241C36.6269+117.477+34.3856+115.844+32.5629+115.844L24.8223+115.844C19.0818+115.844+14.4977+111.144+14.4977+105.455L14.4977+92.5752C14.4977+86.956+18.9897+82.4668+24.8335+82.4668L32.5631+82.4668C34.3369+82.4668+36.6263+80.7422+37.1853+78.94L37.2963+78.6516L41.8204+67.5016L41.9191+67.3231C42.7793+65.7176+42.3722+62.9824+41.0813+61.6921L35.6044+56.2062C33.6581+54.2683+32.5797+51.6717+32.5767+48.9022C32.5737+46.1284+33.6493+43.5238+35.6054+41.5677L44.7178+32.4633C46.6595+30.513+49.2586+29.4354+52.0289+29.4354C52.0291+29.4354+52.0289+29.4354+52.0291+29.4354C54.7994+29.4354+57.3982+30.5132+59.3473+32.4707L64.8238+37.9494C66.1045+39.2239+68.8279+39.6285+70.4206+38.7758L70.5951+38.6823L81.8013+34.0632C83.5271+33.5298+85.0503+31.3215+85.0503+29.4306L85.0503+21.6898C85.0503+16.0321+89.8896+11.5149+95.7191+11.5149L108.599+11.5149C114.294+11.5149+118.827+15.9361+118.827+21.6898L118.827+29.4306C118.827+31.2134+120.528+33.5038+122.297+34.0544L122.594+34.1672L133.656+38.6815L133.836+38.781C135.439+39.6452+138.169+39.2407+139.459+37.95L144.96+32.4983C146.893+30.5566+149.487+29.5023+152.255+29.5023C152.259+29.5023+152.263+29.5023+152.267+29.5023C155.038+29.5023+157.64+30.5522+159.595+32.5071L168.718+41.5997C170.672+43.5452+171.75+46.1416+171.75+48.9192C171.75+51.6903+170.676+54.2915+168.726+56.2498L163.225+61.7483C161.939+63.0394+161.537+65.8051+162.403+67.4334L162.497+67.6085L167.117+78.9282C167.684+80.736+169.976+82.4662+171.743+82.4662L179.386+82.4662L179.386+82.3543C184.783+82.3543+189.579+86.8434+189.579+92.5746L189.579+105.465C189.579+111.244+185.09+115.843+179.473+115.843L171.732+115.843C169.909+115.843+167.66+117.479+167.106+119.246L166.993+119.543L162.484+130.527L162.392+130.695C161.529+132.317+161.925+135.055+163.206+136.331L168.702+141.804C170.661+143.763+171.737+146.364+171.737+149.136C171.736+151.907+170.659+154.508+168.706+156.461L159.575+165.579C157.637+167.525+155.04+168.607+152.269+168.607C152.265+168.607+152.261+168.607+152.257+168.607C149.485+168.607+146.883+167.53+144.929+165.577L139.453+160.089C138.185+158.821+135.389+158.414+133.811+159.268L133.625+159.368L122.309+163.993C120.534+164.552+118.828+166.844+118.828+168.62L118.828+176.328C118.827+182.157+114.199+186.996+108.599+186.996ZM84.3959+156.596C89.3164+158.231+93.0449+163.364+93.0449+168.622L93.0449+176.329C93.0449+177.718+94.328+179.001+95.7191+179.001L108.599+179.001C109.867+179.001+111.032+177.821+111.032+176.329L111.032+168.622C111.032+163.49+114.844+158.244+119.802+156.594L130.322+152.285C134.937+149.918+141.326+150.899+144.993+154.565L150.464+160.064C150.939+160.539+151.573+160.813+152.257+160.813C152.258+160.813+152.259+160.813+152.26+160.813C152.94+160.813+153.574+160.54+154.044+160.067L163.181+150.939C163.657+150.463+163.92+149.821+163.92+149.137C163.92+148.454+163.658+147.814+163.181+147.337L157.691+141.869C154.04+138.234+153.05+131.839+155.392+127.213L159.705+116.743C161.341+111.828+166.585+108.049+171.732+108.049L179.472+108.049C180.985+108.049+181.584+106.665+181.584+105.465L181.584+92.5752C181.584+91.2349+180.585+90.217+179.386+90.1724L179.386+90.4614L171.743+90.4614C166.619+90.4614+161.372+86.5259+159.714+81.5286L155.401+70.9306C153.065+66.3106+154.051+59.8949+157.692+56.2376L163.194+50.7313C163.668+50.2545+163.933+49.6055+163.933+48.9158C163.933+48.2324+163.673+47.5951+163.199+47.124L154.07+38.0267C153.589+37.5459+152.949+37.2974+152.266+37.2974L152.264+37.2974C151.587+37.2974+150.955+37.5427+150.485+38.0146L144.978+43.4906C141.325+47.145+134.935+48.1263+130.329+45.7739L119.809+41.4628C114.847+39.8245+111.032+34.5769+111.032+29.4306L111.032+21.6898C111.032+20.2732+109.955+19.3096+108.599+19.3096L95.7189+19.3096C94.2507+19.3096+93.0447+20.3875+93.0447+21.6898L93.0447+29.4306C93.0447+34.7094+89.3128+39.8479+84.3873+41.4704L73.9378+45.7667C69.2826+48.1433+63.0282+47.1797+59.3131+43.4822L53.8189+37.991C53.342+37.5121+52.7074+37.2513+52.0313+37.2513C51.3549+37.2511+50.7218+37.5119+50.2505+37.9854L41.1313+47.096C40.655+47.5723+40.3922+48.2112+40.3928+48.8944C40.3936+49.5729+40.6544+50.2063+41.1277+50.6774L46.6098+56.1698C50.2619+59.8204+51.2548+66.2068+48.9162+70.8131L44.5949+81.5189C42.9516+86.5221+37.704+90.461+32.5631+90.461L24.8335+90.461C23.5386+90.461+22.2924+91.1273+22.2924+92.5748L22.2924+105.454C22.2924+106.81+23.4161+108.049+24.8223+108.049L32.5629+108.049C37.7154+108.049+42.9526+111.829+44.5793+116.748L48.9118+127.222C51.261+131.857+50.2631+138.248+46.5948+141.882L41.1217+147.341C40.1409+148.33+40.1355+149.948+41.1237+150.936L50.2475+160.048C50.7266+160.529+51.3599+160.789+52.0383+160.789C52.7164+160.789+53.3492+160.528+53.8205+160.055L59.3247+154.562C62.9657+150.904+69.3717+149.923+73.9754+152.288L84.3959+156.596Z" opacity="1"/></g><text font-family="'ArialMT'" font-size="96" opacity="1" text-anchor="middle" dominant-baseline="central" x="100" y="100"><![CDATA[$]]></text></svg>
