<svg t="1694398025410" class="icon" viewBox="0 0 1024 1024" version="1.1" xmlns="http://www.w3.org/2000/svg" p-id="6120" width="200" height="200"><path d="M522.52 495.08v-68.73q4.21 0.31 8.42 0.93 23.76 5.29 30.38 27.68l21.06-7.46q-13.84-38.25-59.85-42v-26.43h-18.66v26.44a82.55 82.55 0 0 0-19.87 4.66q-37.9 13.38-37.9 52.25 0 15.55 7.52 26.75 12 18.66 50.23 27.68v74.33a48.12 48.12 0 0 1-14.44-2.8q-22.26-8.4-31-33.59l-21.05 8.4q1.8 4.66 3.61 9 16.54 36.39 62.86 41.05V644h18.65v-30.74q27.67-3.11 41.81-14 2.41-1.87 5.11-4a55 55 0 0 0 16.84-40.43q0-17.73-8.12-30.17-13.5-20.56-55.6-29.58zM503.87 492q-35.19-6.84-35.19-33.28a28.71 28.71 0 0 1 4.51-16.17q9.62-14.61 30.68-16.17z m51.43 85.21q-11.73 14-32.78 14v-69.7q4.21 0.63 8.72 1.55 31.28 7.46 31.28 33.59a31.15 31.15 0 0 1-7.22 20.53z" p-id="6121"></path><path d="M905.44 410.76h-63.81a365.18 365.18 0 0 0-25.54-60.94l45.08-45.08a20.36 20.36 0 0 0 0-29.24L747.9 162.22a20.46 20.46 0 0 0-29.23 0l-45 45a331.51 331.51 0 0 0-61-25.47V118a20.82 20.82 0 0 0-20.8-20.8h-160A20.82 20.82 0 0 0 411 118v63.81a365.35 365.35 0 0 0-60.94 25.54L305 162.22a20.46 20.46 0 0 0-29.23 0L162.5 275.5a20.37 20.37 0 0 0 0 29.24l45 45a331.52 331.52 0 0 0-25.47 61h-63.8a20.82 20.82 0 0 0-20.8 20.8v160a20.82 20.82 0 0 0 20.8 20.8H182a365.44 365.44 0 0 0 25.54 60.94l-45.04 45.11a20.37 20.37 0 0 0 0 29.23l113.28 113.27a20.37 20.37 0 0 0 29.24 0l45-45a331.22 331.22 0 0 0 61 25.47v63.8a20.82 20.82 0 0 0 20.8 20.8h160a20.82 20.82 0 0 0 20.8-20.8v-63.81a365.11 365.11 0 0 0 60.94-25.54l45.08 45.08a20.37 20.37 0 0 0 29.24 0l113.29-113.27a20.37 20.37 0 0 0 0-29.24l-45-45a331.22 331.22 0 0 0 25.47-61h63.8a20.82 20.82 0 0 0 20.8-20.8v-160a20.82 20.82 0 0 0-20.8-20.82z m-99.95 175.77a287.73 287.73 0 0 1-32.85 79.41c-5.1 7.49-3.83 18.55 3 25.36l41.7 41.7-84 84-41.7-41.7a20.59 20.59 0 0 0-25.19-3.09 287.79 287.79 0 0 1-79.58 33A20.26 20.26 0 0 0 571 825.16v59.2H452.64v-59.2a20.26 20.26 0 0 0-15.77-19.95 287.78 287.78 0 0 1-79.58-33 20.6 20.6 0 0 0-25.19 3.09L290.4 817l-84-84 41.7-41.7a20.6 20.6 0 0 0 3.09-25.19 287.79 287.79 0 0 1-33-79.58 20.26 20.26 0 0 0-19.95-15.77H139v-118.4h59.2a20.26 20.26 0 0 0 19.95-15.77A287.78 287.78 0 0 1 251 357.18c5.1-7.49 3.82-18.55-3-25.36l-41.7-41.7 84-84 41.7 41.7a20.6 20.6 0 0 0 25.18 3.09 287.78 287.78 0 0 1 79.58-33A20.26 20.26 0 0 0 452.64 198v-59.2H571V198a20.26 20.26 0 0 0 15.77 19.95 287.82 287.82 0 0 1 79.58 33 20.6 20.6 0 0 0 25.18-3.09l41.7-41.7 84 84-41.7 41.7a20.6 20.6 0 0 0-2.99 25.14 287.78 287.78 0 0 1 33 79.58 20.26 20.26 0 0 0 19.95 15.77h59.2v118.4h-59.2a20.26 20.26 0 0 0-20 15.78z" p-id="6122"></path><path d="M511.84 296.52c-118.4 0-215 96.64-215 215s96.64 215 215 215 215-96.64 215-215-96.6-215-215-215z m0 417.28c-111.36 0-202.24-90.88-202.24-202.24s90.88-202.24 202.24-202.24 202.24 90.88 202.24 202.24S623.2 713.8 511.84 713.8z" p-id="6123"></path></svg>
