<svg viewBox="0 0 1024 1024" version="1.1" xmlns="http://www.w3.org/2000/svg" xmlns:xlink="http://www.w3.org/1999/xlink" width="240" height="240"><path d="M812 400c-6.4 0-12.8 0-19.2 0.8-42.4-110.4-148.8-188-273.6-188C384 212.8 270.4 304 236 428c-11.2-2.4-23.2-3.2-35.2-3.2-110.4 0-200 105.6-200 212h58.4c0-37.6 16-76.8 43.2-107.2 27.2-30.4 62.4-47.2 98.4-47.2 8 0 16.8 0.8 25.6 2.4l52 8.8 14.4-51.2c27.2-100.8 120-172 225.6-172 96.8 0 184.8 60.8 219.2 150.4l16 40.8 44-4c4.8-0.8 9.6-0.8 14.4-0.8 84.8 0 153.6 66.4 153.6 148s-68.8 148-153.6 148H175.2v58.4h636.8c117.6 0 212-92 212-206.4S928.8 400 812 400z" fill="#585757"></path><path d="M0 687.2h124.8v124.8H0z" fill="#FF1933"></path></svg>