<svg viewBox="0 0 1024 1024" version="1.1" xmlns="http://www.w3.org/2000/svg" width="24" height="24" xmlns:xlink="http://www.w3.org/1999/xlink"><path d="M510.4 64c-60.8 0-118.4 11.2-174.4 35.2-52.8 22.4-100.8 54.4-142.4 96-40 40-73.6 89.6-96 142.4C75.2 392 64 451.2 64 510.4c0 35.2 3.2 68.8 11.2 102.4 8 32 19.2 64 33.6 94.4 27.2 54.4 70.4 110.4 120 150.4 32-17.6 49.6-36.8 54.4-57.6 3.2-19.2-4.8-41.6-27.2-67.2-52.8-60.8-83.2-140.8-83.2-222.4 0-185.6 152-337.6 337.6-337.6h3.2c185.6 0 337.6 152 337.6 337.6 0 81.6-28.8 160-83.2 222.4-22.4 25.6-32 48-27.2 68.8s22.4 40 54.4 57.6c49.6-41.6 92.8-96 120-150.4 14.4-30.4 25.6-60.8 33.6-94.4 8-33.6 11.2-67.2 11.2-102.4 0-60.8-11.2-118.4-35.2-174.4-22.4-52.8-54.4-100.8-96-142.4-40-40-89.6-73.6-142.4-96C632 75.2 572.8 64 513.6 64h-3.2z" fill="#e25a52"></path><path d="M510.4 244.8c-12.8 0-25.6 1.6-36.8 3.2-36.8 4.8-72 17.6-102.4 36.8-30.4 19.2-56 43.2-76.8 72-20.8 30.4-35.2 64-43.2 99.2-8 38.4-8 78.4 1.6 116.8 8 35.2 24 68.8 44.8 97.6 6.4 8 12.8 14.4 19.2 22.4l6.4 8 1.6 1.6c24 27.2 35.2 57.6 35.2 88 0 46.4-25.6 89.6-67.2 112 24 12.8 48 24 73.6 32 8 3.2 17.6 4.8 25.6 8 4.8-3.2 22.4-16 40-40 16-22.4 36.8-60.8 35.2-112-1.6-30.4-6.4-60.8-17.6-88s-27.2-52.8-48-75.2l-4.8-4.8c-8-9.6-16-19.2-22.4-28.8-8-12.8-14.4-27.2-17.6-41.6-4.8-22.4-6.4-46.4-1.6-68.8 4.8-20.8 12.8-41.6 25.6-59.2 11.2-17.6 27.2-32 44.8-43.2 17.6-11.2 40-19.2 60.8-22.4 6.4-1.6 14.4-1.6 22.4-1.6h3.2c8 0 14.4 1.6 22.4 1.6 20.8 3.2 43.2 11.2 60.8 22.4 17.6 11.2 33.6 25.6 44.8 43.2 12.8 17.6 20.8 36.8 25.6 59.2 4.8 22.4 4.8 46.4-1.6 68.8-3.2 14.4-9.6 28.8-17.6 41.6-6.4 11.2-14.4 20.8-22.4 28.8l-1.6 1.6c-20.8 22.4-36.8 48-48 75.2-11.2 28.8-17.6 57.6-17.6 88-1.6 51.2 19.2 88 35.2 112 17.6 24 35.2 36.8 40 40 8-1.6 17.6-4.8 25.6-8 25.6-8 51.2-19.2 73.6-32-41.6-22.4-67.2-65.6-67.2-112 0-30.4 11.2-59.2 35.2-88 0-1.6 1.6-1.6 1.6-1.6l6.4-8c6.4-8 12.8-14.4 19.2-22.4 20.8-28.8 36.8-62.4 44.8-97.6 9.6-38.4 9.6-78.4 1.6-116.8-8-35.2-22.4-68.8-43.2-99.2-20.8-28.8-46.4-52.8-76.8-72-32-19.2-67.2-32-102.4-36.8-12.8-1.6-25.6-3.2-36.8-3.2h-3.2v3.2z" fill="#e25a52"></path><path d="M512 427.2c-48 0-88 40-88 88s40 88 88 88 88-40 88-88c0-49.6-40-88-88-88z" fill="#e25a52"></path></svg>