<svg viewBox="0 0 1024 1024" version="1.1" xmlns="http://www.w3.org/2000/svg" width="200" height="200"><path d="M130.517333 130.517333h762.986667v762.986667H130.517333z" fill="#FFFFFF"></path><path d="M798.122667 106.666667H225.877333A119.210667 119.210667 0 0 0 106.666667 225.877333v572.245334A119.210667 119.210667 0 0 0 225.877333 917.333333h572.245334A119.210667 119.210667 0 0 0 917.333333 798.122667V225.877333A119.210667 119.210667 0 0 0 798.122667 106.666667zM225.877333 154.346667h572.245334a71.530667 71.530667 0 0 1 71.530666 71.530666v572.245334a71.530667 71.530667 0 0 1-71.530666 71.530666H225.877333a71.530667 71.530667 0 0 1-71.530666-71.530666V225.877333a71.530667 71.530667 0 0 1 71.530666-71.530666z" fill="#D9D9D9"></path><path d="M321.258667 321.258667h381.482666v381.482666H321.258667z" fill=""></path></svg>