<svg viewBox="0 0 1024 1024" version="1.1" xmlns="http://www.w3.org/2000/svg" width="200" height="200"><path d="M786.602667 128c38.058667 0 51.84 3.968 65.706666 11.392 13.952 7.424 24.874667 18.346667 32.298667 32.256 7.424 13.909333 11.392 27.733333 11.392 65.706667v549.248c0 38.058667-3.968 51.84-11.392 65.706666-7.424 13.952-18.346667 24.874667-32.256 32.298667-13.909333 7.424-27.733333 11.392-65.706667 11.392H237.354667c-38.058667 0-51.84-3.968-65.706667-11.392a77.525333 77.525333 0 0 1-32.298667-32.256c-7.424-13.909333-11.392-27.733333-11.392-65.706667V237.354667c0-38.058667 3.968-51.84 11.392-65.706667 7.424-13.952 18.346667-24.874667 32.256-32.298667 13.909333-7.424 27.733333-11.392 65.706667-11.392h549.248z m6.357333 64H231.04c-19.626667 0.213333-24.405333 1.28-29.184 3.84a13.610667 13.610667 0 0 0-6.016 5.973333c-2.56 4.821333-3.626667 9.6-3.84 29.226667v561.92c0.213333 19.626667 1.28 24.405333 3.84 29.184a13.610667 13.610667 0 0 0 5.973333 6.016c5.290667 2.816 10.581333 3.84 35.584 3.84h549.205334c25.002667 0 30.293333-1.024 35.541333-3.84a13.610667 13.610667 0 0 0 6.016-5.973333c2.816-5.290667 3.84-10.581333 3.84-35.584V237.397333c0-25.002667-1.024-30.293333-3.84-35.541333a13.610667 13.610667 0 0 0-5.973333-6.016c-4.352-2.304-8.661333-3.413333-23.765334-3.754667l-5.461333-0.042666z" fill="#8a8a8a"></path></svg>