<svg viewBox="0 0 2264 1024" version="1.1" xmlns="http://www.w3.org/2000/svg" width="200" height="200"><path d="M1557.441017 969.023232c13.929924-47.832707 8.561376-91.559403-14.64632-124.108994-21.155796-29.849838-57.03088-47.0544-100.12078-49.1063l-816.965746-10.613276h-0.22111a14.772353 14.772353 0 0 1-12.3114-6.650986l-0.070755-0.070755a18.148702 18.148702 0 0 1-1.989989-14.646321 22.593011 22.593011 0 0 1 19.174652-14.717076l824.182773-10.613275c97.644348-4.599086 203.781528-83.634824 240.927993-180.503077l47.07209-122.771278a25.624428 25.624428 0 0 0 1.415103-15.849159A535.99917 535.99917 0 0 0 1220.281568 0.000199C984.023416 0.000199 783.638137 152.623527 712.031692 364.329634a241.332624 241.332624 0 0 0-384.91919 168.543241 252.374853 252.374853 0 0 0 6.01419 84.342376A342.808807 342.808807 0 0 0-0.001924 960.320345a420.460397 420.460397 0 0 0 3.316649 49.749731 16.490377 16.490377 0 0 0 15.919914 13.929924h1507.781654a20.587544 20.587544 0 0 0 19.174652-14.646321z m260.025256-524.877342a159.738645 159.738645 0 0 0-22.500144 1.061327 13.330717 13.330717 0 0 0-11.957624 9.198173l-31.839828 110.807021c-13.929924 47.832707-8.623287 91.559403 14.575566 124.179748 21.297307 29.849838 57.101635 46.983645 100.262289 49.035546l173.920635 10.684031a14.469433 14.469433 0 0 1 12.523665 6.650986 19.139274 19.139274 0 0 1 2.0519 14.717075 22.593011 22.593011 0 0 1-19.236562 14.646321l-181.210629 10.613276c-98.210389 4.599086-203.642229 83.634824-240.857237 180.573831l-13.231218 33.829817a9.61607 9.61607 0 0 0 9.268928 13.372727h622.453146a16.286956 16.286956 0 0 0 15.919913-11.886869 453.737439 453.737439 0 0 0 16.554499-120.792344c0-245.527079-200.456035-445.978692-446.690665-445.978692z" fill="#F38020"></path></svg>