<svg viewBox="0 0 1024 1024" version="1.1" xmlns="http://www.w3.org/2000/svg" width="200" height="200"><path d="M170.666667 853.333333c-23.466667 0-43.52-8.362667-60.288-25.045333A82.176 82.176 0 0 1 85.333333 768V256c0-23.466667 8.362667-43.52 25.045334-60.245333A82.176 82.176 0 0 1 170.666667 170.666667h682.666666c23.466667 0 43.52 8.362667 60.288 25.088 16.682667 16.682667 25.045333 36.778667 25.045334 60.245333v512c0 23.466667-8.362667 43.52-25.045334 60.288A82.176 82.176 0 0 1 853.333333 853.333333H170.666667z m0-85.333333h682.666666V341.333333H170.666667v426.666667z m149.333333-42.666667l-59.733333-59.733333L370.133333 554.666667l-110.933333-110.933334L320 384l170.666667 170.666667-170.666667 170.666666z m192 0v-85.333333h256v85.333333h-256z"></path></svg>