<svg viewBox="0 0 1024 1024" version="1.1" xmlns="http://www.w3.org/2000/svg" xmlns:xlink="http://www.w3.org/1999/xlink" width="200" height="200"><path d="M829.248 420.576C815.264 274.56 693.696 160 544 160c-115.808 0-214.944 68.736-260.672 167.36A142.72 142.72 0 0 0 240.032 320a144.032 144.032 0 0 0-144 144c0 15.808 3.168 30.752 7.872 44.928C42.048 544.992 0.032 611.168 0.032 687.936a208 208 0 0 0 208 208V896H784v-0.064c132.576 0 240-107.424 240-240 0-116.992-83.872-214.176-194.752-235.36zM784 831.936V832H208.032a144.256 144.256 0 0 1-144-144.064c0-51.2 26.976-97.44 72.128-123.744 43.872-25.184 46.88-30.176 28.48-75.424a78.56 78.56 0 0 1-4.608-24.736c0-44.128 35.872-80 80-80 0 0 20.992-1.504 43.296 7.36 36.704 14.624 40.704 0.64 58.048-37.088C378.08 275.168 457.6 224 544 224c115.2 0 210.432 87.136 221.568 202.688 3.936 45.824 3.936 45.824 51.68 56.736A175.872 175.872 0 0 1 960 655.936c0 97.056-78.944 176-176 176z" fill="#3572EF"></path></svg>