<svg t="1679558134608" class="icon" viewBox="0 0 1123 1024" version="1.1" xmlns="http://www.w3.org/2000/svg" p-id="3754" width="16" height="16"><path d="M257.390679 332.742149c11.330788-16.996182 21.943427-36.386192 34.550923-53.382373 27.608821-36.386192 63.436453-63.436453 104.849684-81.629549 22.581781-10.054079 45.881711-16.996182 70.298761-20.746513 24.496844-3.750331 48.993688-3.750331 74.128887-0.638354 43.966648 5.02704 84.182966 20.108159 119.292449 45.881711 18.193096 13.166056 34.550923 28.885529 50.828957 43.966648 3.111977 3.111977 5.665394 4.388685 10.692433 2.473623 20.746513-5.665394 41.413232-8.139017 62.798099-6.303748 34.550923 3.111977 63.436453 18.193096 86.656588 43.966648 20.746513 22.581781 35.189278 48.993688 48.355334 77.240864 1.276708 2.473623 2.473623 5.665394 3.750331 8.139016 45.881711 6.942102 87.294943 23.85849 121.845867 54.659082 40.216317 35.189278 64.074807 79.79428 73.490532 131.899946 11.330788 63.436453 0.638354 123.122575-33.912569 177.063508-34.550923 53.382374-84.741526 86.656588-146.342711 103.014416-23.220136 6.303748-46.440271 7.500662-69.740201 5.665394-38.939609-3.111977-74.767241-15.081119-107.403101-35.827632-49.632042-31.438946-85.37988-74.128886-107.403101-128.149614-8.139017-20.746513-12.527702-43.328294-18.831451-64.713162-1.276708-4.388685-2.473623-6.303748-7.500662-6.303748h-45.881711c-5.02704 0-10.692434-0.638354-15.719473-1.915063-13.804411-3.750331-16.357827-18.83145-5.665394-31.438946 8.139017-9.415725 16.996182-18.193096 25.135198-26.970467 21.384867-22.581781 42.68994-45.243357 64.074807-67.186784 7.500662-7.500662 14.442765-16.357827 22.581782-22.581781 13.166056-10.054079 23.85849-8.777371 35.189277 3.111977 37.024546 37.6629 74.767241 75.325801 111.153433 113.068495 5.02704 5.02704 7.500662 12.527702 9.415725 19.469804 1.915063 8.139017-5.02704 15.081119-15.719473 15.719474-9.415725 0.638354-18.83145 0.638354-28.247176 0.638354-3.750331 0-6.303748 0.638354-6.942102 5.02704-2.473623 33.274215 5.02704 62.798099 30.162238 85.37988 19.469804 17.554742 43.328294 26.970467 70.298761 29.523883 27.608821 3.111977 53.382374-2.473623 78.517572-11.969142 11.969142-4.388685 20.108159-13.166056 28.247175-22.581781 16.916387-18.83145 30.162238-40.216317 35.827632-65.351516 9.415725-43.328294-0.638354-81.629549-29.523884-115.542118-21.384867-25.135198-48.993688-38.939609-80.35284-44.605002-23.85849-4.388685-47.078625-1.276708-70.298761 5.027039-1.276708 0.638354-2.473623 0.638354-5.02704 0.638354 9.415725-28.885529 10.054079-56.494351-4.388685-82.906257-9.415725-17.554742-23.85849-30.800592-42.051586-38.939609-30.800592-13.804411-77.240863-14.442765-113.068495 35.189278-6.942102-13.166056-13.804411-26.970467-21.943427-39.577963-31.438946-47.71698-74.767241-79.155926-130.623237-88.571651-45.243357-8.139017-87.933297 1.915063-124.319489 30.800592-32.635861 26.411907-52.105665 61.52139-63.436453 101.099353-3.750331 13.804411-6.942102 27.608821-10.054079 42.68994-5.665394-3.111977-11.969142-6.303748-18.193096-8.777371-25.773553-10.054079-52.105665-11.330788-78.517572-6.303748-26.970467 5.665394-52.105665 16.357827-73.490532 33.912569-28.247175 23.220136-45.881711 52.105665-50.270397 88.571652-5.02704 40.854672 3.111977 78.517572 28.247175 111.153432 19.469804 26.411907 46.440271 42.051586 77.879218 48.993688 17.554742 3.750331 35.827632 5.665394 54.020728 6.303748 30.162238 1.276708 59.686122 0.638354 89.768565 0.638355 85.37988 0.638354 171.477909 0.638354 256.857789 0.638354 6.942102 0 11.330788 1.915063 15.081119 8.139016 23.85849 37.6629 55.297436 67.186784 92.960336 90.40692 1.276708 0.638354 2.473623 1.915063 5.665394 4.388686H275.50398c-47.078625 0-93.598691-6.942102-136.926985-26.970467-25.135198-11.969142-47.71698-26.411907-67.825138-45.881711-31.438946-31.438946-50.828957-69.740201-61.52139-112.430141C2.926719 624.549832-1.461967 600.052988 0.453096 574.279436 5.00137 514.274137 22.556112 458.976701 62.134075 412.53643c32.635861-38.301255 74.128886-62.798099 123.122574-72.852178 25.055404-4.388685 48.913894-4.388685 72.13403-6.942103z" fill="#D01329" p-id="3755"></path></svg>
