<svg viewBox="0 0 1024 1024" version="1.1" xmlns="http://www.w3.org/2000/svg" xmlns:xlink="http://www.w3.org/1999/xlink" width="200" height="200"><path d="M106.794667 671.104c10.709333 24.96 85.632 217.6 406.698666 310.144 328.192-92.672 399.530667-285.184 406.656-310.144V82.901333a348.373333 348.373333 0 0 1-192.597333 60.586667 294.784 294.784 0 0 1-214.058667-92.672 281.344 281.344 0 0 1-210.474666 92.757333 368.170667 368.170667 0 0 1-196.266667-60.586666z m406.698666 352.938667h-3.584c-374.570667-103.381333-442.325333-331.52-442.325333-342.229334 0-3.584-3.584-3.584-3.584-7.125333V43.648a24.021333 24.021333 0 0 1 14.293333-21.333333 16.810667 16.810667 0 0 1 21.333334 3.541333 342.314667 342.314667 0 0 0 203.392 75.050667 263.850667 263.850667 0 0 0 196.266666-92.672 20.096 20.096 0 0 1 32.085334 0 263.850667 263.850667 0 0 0 196.266666 92.672A342.229333 342.229333 0 0 0 930.944 26.026667a16.810667 16.810667 0 0 1 21.333333-3.541334 21.333333 21.333333 0 0 1 10.709334 21.333334v637.952c-3.584 10.709333-67.797333 238.933333-442.368 342.229333z m0-267.52a26.965333 26.965333 0 0 1-14.293333-7.125334l-196.266667-195.456a21.333333 21.333333 0 0 1 0-28.416 20.138667 20.138667 0 0 1 32.170667 0l178.602667 177.706667 242.944-351.829333a19.84 19.84 0 0 1 28.586666-7.082667 23.04 23.04 0 0 1 7.168 31.957333l-261.248 369.536c-3.584 7.125333-7.168 10.666667-14.293333 10.666667z"></path></svg>