<svg viewBox="0 0 1024 1024" version="1.1" xmlns="http://www.w3.org/2000/svg" xmlns:xlink="http://www.w3.org/1999/xlink" width="200" height="200"><path d="M708.48 208.938667h-614.4a51.2 51.2 0 0 0-51.2 51.2v707.456a51.2 51.2 0 0 0 51.2 51.2h614.741333a51.2 51.2 0 0 0 51.2-51.2V260.138667a51.2 51.2 0 0 0-51.2-51.2z m-17.066667 741.632h-580.266666V277.248h580.608v673.28z"></path><path d="M877.952 0H366.506667a34.133333 34.133333 0 1 0 0 68.266667h511.445333a22.528 22.528 0 0 1 22.528 22.528v664.021333a34.133333 34.133333 0 1 0 68.266667 0V90.837333A91.008 91.008 0 0 0 877.909333 0z"></path></svg>