<svg viewBox="0 0 1024 1024" version="1.1" xmlns="http://www.w3.org/2000/svg" xmlns:xlink="http://www.w3.org/1999/xlink" width="200" height="200"><path d="M1024 330.473v-128c0-55.855-44.218-100.073-100.073-100.073H100.072C44.217 102.4-0.001 146.618-0.001 202.473v128c86.109 11.636 151.273 86.109 151.273 174.545S86.108 667.927-0.001 679.563v139.636c0 55.855 44.218 100.073 100.073 100.073h821.527c55.855 0 100.073-44.218 100.073-100.073V679.563c-86.109-11.636-151.273-86.109-151.273-174.545 2.327-88.436 67.491-160.582 153.6-174.545z m-351.418-6.982c-2.327 2.327-2.327 2.327-2.327 4.655l-102.4 158.255h60.509c18.618 0 27.927 6.982 27.927 23.273-2.327 11.636-11.636 18.618-27.927 20.945h-88.436v44.218h88.436c18.618 0 27.927 6.982 27.927 23.273-2.327 11.636-11.636 18.618-27.927 20.945h-88.436v100.073c0 16.291-9.309 25.6-27.927 25.6s-27.927-9.309-27.927-25.6V619.055h-88.436c-16.291-2.327-25.6-9.309-27.927-20.945 0-13.964 9.309-23.273 27.927-23.273h88.436v-44.218h-88.436c-16.291-2.327-25.6-9.309-27.927-20.945 0-13.964 9.309-23.273 27.927-23.273h60.509l-102.4-158.255c0-2.327 0-2.327-2.327-4.655-2.327-6.982-6.982-13.964-6.982-20.945 2.327-13.964 9.309-20.945 23.273-23.273 13.964 0 23.273 6.982 30.255 18.618L514.33 470.109l116.364-172.218c6.982-11.636 16.291-18.618 30.255-18.618 13.964 2.327 20.945 9.309 23.273 23.273-4.655 4.655-6.982 11.636-11.636 20.945z" fill="#f4ea2a"></path></svg>