<svg xmlns="http://www.w3.org/2000/svg" viewBox="0 0 1024 1024" version="1.1"><path d="M664 856h-128v80c0 12.8-11.2 24-24 24s-24-11.2-24-24v-80h-128v80c0 12.8-11.2 24-24 24s-24-11.2-24-24v-80H256c-48 0-88-40-88-88v-56h-80c-12.8 0-24-11.2-24-24s11.2-24 24-24h80v-128h-80c-12.8 0-24-11.2-24-24s11.2-24 24-24h80v-128h-80c-12.8 0-24-11.2-24-24s11.2-24 24-24h80V256c0-48 40-88 88-88h56v-80c0-12.8 11.2-24 24-24s24 11.2 24 24v80h128v-80c0-12.8 11.2-24 24-24s24 11.2 24 24v80h128v-80c0-12.8 11.2-24 24-24s24 11.2 24 24v80H768c48 0 88 40 88 88v56h80c12.8 0 24 11.2 24 24s-11.2 24-24 24h-80v128h80c12.8 0 24 11.2 24 24s-11.2 24-24 24h-80v128h80c12.8 0 24 11.2 24 24s-11.2 24-24 24h-80V768c0 48-40 88-88 88h-56v80c0 12.8-11.2 24-24 24s-24-11.2-24-24v-80zM256 216c-22.4 0-40 17.6-40 40v512c0 22.4 17.6 40 40 40h512c22.4 0 40-17.6 40-40V256c0-22.4-17.6-40-40-40H256z m128 112h256c30.4 0 56 25.6 56 56v256c0 30.4-25.6 56-56 56H384c-30.4 0-56-25.6-56-56V384c0-30.4 25.6-56 56-56z m0 48c-4.8 0-8 3.2-8 8v256c0 4.8 3.2 8 8 8h256c4.8 0 8-3.2 8-8V384c0-4.8-3.2-8-8-8H384z"></path></svg>