<svg xmlns="http://www.w3.org/2000/svg" viewBox="0 0 1024 1024" version="1.1"><path d="M1004.8 627.2c0 115.2-96 211.2-211.2 211.2-76.8 0-147.2-44.8-185.6-108.8 0 0 0-6.4-6.4-6.4-6.4-25.6-6.4-51.2-6.4-70.4h-89.6v-25.6l115.2-121.6 134.4 115.2v25.6h-64v44.8c6.4 12.8 19.2 25.6 32 32l6.4 6.4c19.2 12.8 38.4 19.2 64 19.2 64 0 115.2-51.2 115.2-115.2 0-32-12.8-64-38.4-83.2l-12.8-12.8c-6.4-6.4-6.4-6.4-12.8-6.4 0-12.8-12.8-19.2-25.6-19.2H774.4c6.4-6.4 6.4-19.2 6.4-32 0-32-19.2-57.6-44.8-70.4-6.4 0-6.4-6.4-12.8-6.4-6.4-6.4-19.2-6.4-32-6.4-32 0-57.6 19.2-70.4 44.8-6.4-38.4-32-70.4-64-96-19.2-19.2-57.6-32-89.6-32-51.2 0-96 19.2-121.6 57.6-25.6 32-38.4 64-44.8 102.4-19.2-12.8-44.8-19.2-70.4-19.2-12.8 0-25.6 0-32 6.4-64 12.8-108.8 70.4-108.8 134.4S134.4 716.8 198.4 736c12.8 0 25.6 6.4 44.8 6.4 12.8 0 332.8 6.4 332.8 6.4 19.2 44.8 44.8 57.6 89.6 76.8H224c-115.2-12.8-204.8-108.8-204.8-224 0-128 102.4-230.4 230.4-230.4 44.8-76.8 128-128 224-128 70.4 0 140.8 32 185.6 76.8h32c76.8 0 140.8 44.8 166.4 115.2 89.6 25.6 147.2 102.4 147.2 192z" p-id="810"></path></svg>