<svg viewBox="0 0 1024 1024" version="1.1" xmlns="http://www.w3.org/2000/svg" width="200" height="200"><path d="M640 682.666667h170.666667v-170.666667h-64v106.666667H640V682.666667zM213.333333 426.666667h64V320H384V256H213.333333v170.666667z m128 469.333333v-85.333333H170.666667c-23.466667 0-43.52-8.362667-60.288-25.045334A82.176 82.176 0 0 1 85.333333 725.333333V213.333333c0-23.466667 8.362667-43.52 25.045334-60.288A82.176 82.176 0 0 1 170.666667 128h682.666666c23.466667 0 43.52 8.362667 60.288 25.045333C930.261333 169.813333 938.666667 189.866667 938.666667 213.333333v512c0 23.466667-8.362667 43.52-25.045334 60.288A82.176 82.176 0 0 1 853.333333 810.666667h-170.666666v85.333333H341.333333z m-170.666666-170.666667h682.666666V213.333333H170.666667v512z"></path></svg>