<svg viewBox="0 0 1024 1024" version="1.1" xmlns="http://www.w3.org/2000/svg" xmlns:xlink="http://www.w3.org/1999/xlink" width="200" height="200"><path d="M385.219048 785.066667V531.504762H199.92381v256h185.295238z m-146.285715-219.428572h109.714286v182.857143H238.933333v-182.857143zM614.4 785.066667V287.695238h-182.857143v499.809524h182.857143z m-146.285714-463.238096h109.714285v426.666667h-109.714285V321.828571zM872.838095 785.066667V385.219048H658.285714v402.285714h214.552381z m-177.980952-365.714286h138.971428v329.142857h-138.971428V419.352381z"></path><path d="M980.114286 694.857143h39.009524V92.647619H146.285714v34.133333h833.828572zM950.857143 841.142857c-34.133333 0-60.952381 21.942857-68.266667 53.638095H92.647619V329.142857H53.638095v604.647619h826.514286c7.314286 31.695238 36.571429 53.638095 68.266667 53.638095 39.009524 0 73.142857-31.695238 73.142857-73.142857s-31.695238-73.142857-70.704762-73.142857z m0 109.714286c-19.504762 0-36.571429-17.066667-36.571429-36.571429S931.352381 877.714286 950.857143 877.714286s36.571429 17.066667 36.571428 36.571428S970.361905 950.857143 950.857143 950.857143zM146.285714 109.714286c0-39.009524-31.695238-73.142857-73.142857-73.142857s-73.142857 31.695238-73.142857 73.142857 31.695238 73.142857 73.142857 73.142857 73.142857-34.133333 73.142857-73.142857z m-109.714285 0C36.571429 90.209524 53.638095 73.142857 73.142857 73.142857s36.571429 17.066667 36.571429 36.571429S92.647619 146.285714 73.142857 146.285714s-36.571429-17.066667-36.571428-36.571428z"></path></svg>