<?xml version="1.0" encoding="UTF-8"?>
<svg width="42px" height="42px" viewBox="0 0 42 42" version="1.1" xmlns="http://www.w3.org/2000/svg" xmlns:xlink="http://www.w3.org/1999/xlink">
    <title>未恢复告警</title>
    <g id="云管备份" stroke="none" stroke-width="1" fill="none" fill-rule="evenodd">
        <g id="磁条" transform="translate(-28.000000, -735.000000)" stroke="#0099F0" stroke-width="1.5">
            <g id="未恢复告警-2" transform="translate(28.000000, 735.000000)">
                <g id="未恢复告警" transform="translate(1.000000, 4.000000)">
                    <polyline id="路径" points="8.52077399 19.7063031 19.5 0 30.5759557 19.8799206"></polyline>
                    <path d="M30.5579053,19.8475223 L39,35 L0,35 L8.45484543,19.8246364" id="路径" stroke-dasharray="1.772727272727273,0.8863636363636364"></path>
                    <ellipse id="椭圆形" cx="19.5" cy="28.7179487" rx="1.90909091" ry="1.94230769"></ellipse>
                    <path d="M19.363089,11.5246316 C19.9026055,11.5281481 20.3732128,11.7146482 20.7097411,12.0297673 C21.0379579,12.3371036 21.2338155,12.7642774 21.239785,13.2368896 L21.239785,13.2368896 L20.6407011,22.4260021 C20.620937,22.7264653 20.486318,22.9934984 20.2813619,23.1854157 C20.0764058,23.3773329 19.8011126,23.4941344 19.5,23.4941344 C19.1988874,23.4941344 18.9235942,23.3773329 18.7186381,23.1854157 C18.513682,22.9934984 18.379063,22.7264653 18.3592989,22.4260021 L18.3592989,22.4260021 L17.7638265,13.3733598 C17.7322901,12.8939287 17.8980671,12.4471027 18.1915859,12.1122503 C18.4804468,11.7827118 18.8930275,11.5616212 19.363089,11.5246316 Z" id="矩形"></path>
                </g>
            </g>
        </g>
    </g>
</svg>