<svg viewBox="0 0 1024 1024" version="1.1" xmlns="http://www.w3.org/2000/svg" width="16" height="16"><path d="M136.3 811.8h122.2c34.6 0 62.7-28.1 62.7-62.7V504.7c0-34.6-28.1-62.7-62.7-62.7H136.3c-34.6 0-62.7 28.1-62.7 62.7v244.4c0 34.6 28.1 62.7 62.7 62.7z m0-325.8h122.2c10.3 0 18.7 8.4 18.7 18.7v244.4c0 10.3-8.4 18.7-18.7 18.7H136.3c-10.3 0-18.7-8.4-18.7-18.7V504.7c0-10.3 8.4-18.7 18.7-18.7zM462.1 811.8h122.2c34.6 0 62.7-28.1 62.7-62.7v-448c0-34.6-28.1-62.7-62.7-62.7H462.1c-34.6 0-62.7 28.1-62.7 62.7v448c0 34.6 28.1 62.7 62.7 62.7z m-18.7-510.7c0-10.3 8.4-18.7 18.7-18.7h122.2c10.3 0 18.7 8.4 18.7 18.7v448c0 10.3-8.4 18.7-18.7 18.7H462.1c-10.3 0-18.7-8.4-18.7-18.7v-448zM910.1 34.8H787.9c-34.6 0-62.7 28.1-62.7 62.7v651.6c0 34.6 28.1 62.7 62.7 62.7h122.2c34.6 0 62.7-28.1 62.7-62.7V97.5c0-34.6-28.1-62.7-62.7-62.7z m18.7 714.3c0 10.3-8.4 18.7-18.7 18.7H787.9c-10.3 0-18.7-8.4-18.7-18.7V97.5c0-10.3 8.4-18.7 18.7-18.7h122.2c10.3 0 18.7 8.4 18.7 18.7v651.6zM950.8 869.6H95.6c-12.2 0-22 9.8-22 22s9.8 22 22 22h855.2c12.2 0 22-9.8 22-22s-9.8-22-22-22z"></path></svg>