<svg viewBox="0 0 1024 1024" version="1.1" xmlns="http://www.w3.org/2000/svg" xmlns:xlink="http://www.w3.org/1999/xlink" width="200" height="200"><path d="M672.914286 441.295238c-12.190476-12.190476-29.257143-24.380952-48.761905-31.695238-9.752381-4.87619-31.695238-9.752381-63.390476-19.504762V204.8c21.942857 4.87619 36.571429 12.190476 48.761905 26.819048 12.190476 14.628571 19.504762 31.695238 24.380952 58.514285l65.828571-9.752381c-4.87619-41.447619-21.942857-73.142857-51.2-95.085714-21.942857-19.504762-51.2-29.257143-87.771428-31.695238V119.466667h-39.009524v31.695238c-41.447619 4.87619-75.580952 17.066667-97.52381 34.133333-31.695238 29.257143-48.761905 65.828571-48.761904 112.152381 0 26.819048 4.87619 48.761905 17.066666 68.266667s26.819048 36.571429 46.32381 46.323809c26.819048 14.628571 53.638095 26.819048 80.457143 31.695238v204.8c-24.380952-2.438095-46.32381-14.628571-65.828572-39.009523-12.190476-17.066667-21.942857-41.447619-26.819047-75.580953l-60.952381 12.190476c2.438095 34.133333 9.752381 60.952381 24.380952 85.333334s31.695238 39.009524 51.2 51.2c19.504762 9.752381 46.32381 17.066667 78.019048 21.942857v63.390476h39.009524v-65.828571c43.885714-2.438095 80.457143-17.066667 109.714285-48.761905s41.447619-65.828571 41.447619-112.152381c0-19.504762-2.438095-39.009524-9.752381-56.076191-4.87619-17.066667-14.628571-31.695238-26.819047-43.885714z m-151.161905-60.952381c-29.257143-9.752381-51.2-19.504762-63.390476-36.571428s-19.504762-34.133333-19.504762-56.076191c0-21.942857 7.314286-41.447619 21.942857-58.514286s34.133333-26.819048 58.514286-29.257142v180.419047z m99.961905 234.057143c-17.066667 19.504762-36.571429 29.257143-60.952381 31.695238v-195.047619c34.133333 12.190476 58.514286 24.380952 68.266666 39.009524 12.190476 14.628571 17.066667 34.133333 17.066667 56.07619 0 26.819048-9.752381 51.2-24.380952 68.266667zM221.866667 926.47619h-219.428572v36.571429h256v-365.714286h63.390476V560.761905H221.866667zM797.257143 60.952381v334.019048h36.571428V97.52381h187.733334V60.952381z"></path></svg>