<svg viewBox="0 0 1024 1024" version="1.1" xmlns="http://www.w3.org/2000/svg" xmlns:xlink="http://www.w3.org/1999/xlink" width="200" height="200"><path d="M992.889905 918.332952l26.819047 48.761905h-51.2v-14.628571l-9.752381-17.066667 34.133334-17.066667z m-60.952381 12.190477v36.571428h-43.885714v-36.571428h43.885714z m-80.457143 0v36.571428h-43.885714v-36.571428h43.885714z m-80.457143 0v36.571428h-43.885714v-36.571428h43.885714z m-78.019048 0v36.571428h-43.885714v-36.571428h43.885714z m-80.457142 0v36.571428h-43.885715v-36.571428h43.885715z m-80.457143 0v36.571428h-43.885715v-36.571428h43.885715z m-80.457143 0v36.571428h-43.885714v-36.571428h43.885714z m-78.019048 0v36.571428h-43.885714v-36.571428h43.885714z m-80.457143 0v36.571428h-43.885714v-36.571428h43.885714z m-80.457142 0v36.571428h-41.447619v-36.571428h41.447619z m-78.019048 0v36.571428h-43.885714v-36.571428h43.885714z m-102.4-14.628572l31.695238 19.504762-9.752381 19.504762v12.190476h-48.761905l26.819048-51.2z m921.6-65.828571l21.942857 36.571428-31.695238 17.066667-21.942857-36.571429 31.695238-17.066666z m-882.590476-2.438096l31.695238 17.066667-21.942857 36.571429-31.695238-17.066667 21.942857-36.571429z m438.857143-124.342857c36.571429 0 65.828571 29.257143 65.828571 65.828572 0 36.571429-29.257143 65.828571-65.828571 65.828571-36.571429 0-65.828571-29.257143-65.828572-65.828571 0-36.571429 29.257143-65.828571 65.828572-65.828572z m404.723809 56.076191l21.942857 36.571428-31.695238 17.066667-21.942857-36.571429 31.695238-17.066666z m-804.571428-2.438095l31.695238 17.066666-21.942857 36.571429-31.695239-17.066667 21.942858-36.571428z m399.847619-17.066667c-14.628571 0-29.257143 12.190476-29.257143 29.257143s12.190476 29.257143 29.257143 29.257143c14.628571 0 29.257143-12.190476 29.257142-29.257143-2.438095-17.066667-14.628571-29.257143-29.257142-29.257143z m365.714285-51.2l21.942857 36.571428-34.133333 19.504762-21.942857-36.571428 34.133333-19.504762z m-726.552381 0l31.695238 17.066667-21.942857 36.571428-31.695238-17.066667 21.942857-36.571428z m687.542858-68.266667l21.942857 36.571429-31.695238 17.066666-21.942858-36.571428 31.695239-17.066667z m-648.533334-2.438095l31.695238 17.066667-19.504762 39.009523-31.695238-17.066666 19.504762-39.009524z m321.828572-287.695238c34.133333 0 60.952381 26.819048 60.952381 60.952381v2.438095l-14.628572 221.866667c-2.438095 24.380952-21.942857 43.885714-46.323809 43.885714-24.380952 0-43.885714-19.504762-46.32381-43.885714l-14.628571-221.866667c-2.438095-34.133333 21.942857-63.390476 56.07619-63.390476h4.876191z m0 36.571428c-14.628571 0-24.380952 9.752381-24.380953 21.942858v2.438095l14.628572 221.866667c0 4.87619 4.87619 9.752381 9.752381 9.75238s7.314286-2.438095 9.752381-7.314285v-2.438095l14.628571-221.866667v-2.438095c-2.438095-12.190476-12.190476-21.942857-24.380952-21.942858z m2.438095-329.142857l285.257143 512 21.942857 36.571429-34.133333 19.504762-21.942858-36.571429-251.123809-455.923809-251.12381 451.047619-31.695238-17.066667 282.819048-509.561905z m-297.447619 533.942857l31.695238 17.066667-9.752381 14.628572-31.695238-17.066667 9.752381-14.628572z"></path></svg>