<svg viewBox="0 0 1024 1024" version="1.1" xmlns="http://www.w3.org/2000/svg" width="200" height="200"><path d="M91.884308 538.939077h157.538461c29.026462 0 52.539077 24.142769 52.539077 53.917538v377.265231c0 29.735385-23.512615 53.878154-52.539077 53.878154h-157.538461C62.897231 1024 39.384615 999.857231 39.384615 970.121846v-377.304615c0-29.735385 23.512615-53.878154 52.499693-53.878154z m0 53.917538v377.265231h157.538461v-377.304615h-157.538461z m682.692923-296.448h157.538461c28.987077 0 52.499692 24.142769 52.499693 53.917539v619.795692c0 29.735385-23.512615 53.878154-52.499693 53.878154h-157.538461c-29.026462 0-52.539077-24.142769-52.539077-53.878154V350.326154c0-29.774769 23.512615-53.917538 52.539077-53.917539z m0 53.917539v619.795692h157.538461V350.326154h-157.538461zM433.230769 0h157.538462c28.987077 0 52.499692 24.142769 52.499692 53.878154v916.243692c0 29.735385-23.512615 53.878154-52.499692 53.878154h-157.538462c-28.987077 0-52.499692-24.142769-52.499692-53.878154V53.878154C380.731077 24.142769 404.243692 0 433.230769 0z m0 53.878154v916.243692h157.538462V53.878154h-157.538462z m341.346462 592.856615h157.538461v53.878154h-157.538461v-53.878154z m-341.346462 0h157.538462v53.878154h-157.538462v-53.878154z m0-350.326154h157.538462v53.917539h-157.538462V296.408615z"></path></svg>