<svg viewBox="0 0 1024 1024" version="1.1" xmlns="http://www.w3.org/2000/svg" width="200" height="200"><path d="M250.672 641.728v183.792c0 43.232-32 75.68-64 75.68H176c-32 0-64-32.448-64-75.68V641.728c0-43.248 32-75.68 64-75.68h10.672c32 0 64 32.432 64 75.68z m330.656-172.96v356.752c0 43.232-32 86.48-74.656 86.48C464 912 432 868.752 432 825.52V468.752c0-43.232 32-86.48 74.672-86.48 42.656 0 74.656 43.248 74.656 86.48v0.016z m181.344-270.288c0-54.048 32-86.48 74.656-86.48C880 112 912 155.248 912 198.48v627.04C912 868.752 880 912 837.328 912c-42.656 0-74.656-43.248-74.656-86.48v-627.04z"></path></svg>