<svg viewBox="0 0 1024 1024" version="1.1" xmlns="http://www.w3.org/2000/svg" width="200" height="200"><path d="M852.352 795.648c46.8096-0.512 85.056-15.4112 114.944-44.7872 30.2848-28.544 45.696-67.712 46.208-117.4912 0-22.336-4.6976-43.648-14.1824-63.9488-9.8944-20.4032-26.112-37.8368-48.3456-52.3264 21.824-14.784 36.9152-31.616 45.4912-50.5856a163.328 163.328 0 0 0 10.9056-58.944c-0.512-40.2944-14.272-75.1744-41.408-104.7552-28.352-30.2848-66.7008-45.696-114.944-46.208-38.0416 0.512-70.784 14.08-98.2144 40.704-27.84 26.9312-43.7632 59.968-47.6288 99.2384h75.9808c4.8896-21.824 14.272-37.9392 28.352-48.3456 13.3632-10.4064 28.16-15.6032 44.3648-15.6032 22.5408 0.512 40.9984 7.6544 55.2832 21.4144 14.272 14.2848 21.7216 32.64 22.1312 54.8736 0 22.0288-7.1424 39.9872-21.4144 53.8496-14.2848 14.2848-34.4832 21.4272-60.3904 21.4272H823.296v67.3152h32.0256c23.552 0 42.9312 7.1296 58.1248 21.4144 15.5136 14.784 23.5648 35.584 23.9744 62.5152-0.512 26.4192-8.4608 46.8224-23.9744 61.0944-15.296 15.3088-34.048 22.9504-56.3968 22.9504-20.8 0-37.5296-5.7088-50.176-17.1392-12.3392-10.9056-21.9264-25.1904-28.7616-42.9312h-75.9808c8.256 44.16 26.304 77.824 54.144 101.0688 27.9552 23.5648 59.9808 35.2 96.0896 35.2z m-237.8496-4.3904V715.264H412.0448l170.5344-213.76c21.312-27.136 32.0256-58.1376 32.0256-93.1328-0.512-43.648-15.1936-79.6544-43.9552-108.0064-28.352-28.544-65.3824-43.136-110.8736-43.648-40.6912 0.512-75.0592 14.784-102.912 42.9312-27.6352 28.864-42.4192 65.3824-44.3648 109.44h75.6864c2.6496-24.2688 11.1104-43.0336 25.4976-56.3968 13.76-13.3632 31.104-19.9936 52.0064-19.9936 23.5648 0.512 41.728 8.1536 54.5664 22.9504 12.352 14.784 18.56 32.128 18.56 52.0192 0 7.552-1.024 15.488-2.944 23.9616-2.9696 8.9728-8.3712 18.6624-16.32 29.0688L312.3968 719.6544v71.6032h302.1056z m-463.2448 0V261.0944H75.264L0 315.968v80.7808l75.264-55.2832v449.792h75.9936zM0 0h1024v67.52H0V0z m0 956.48h1024V1024H0v-67.52z"></path></svg>