<?xml version="1.0" standalone="no"?><!DOCTYPE svg PUBLIC "-//W3C//DTD SVG 1.1//EN" "http://www.w3.org/Graphics/SVG/1.1/DTD/svg11.dtd"><svg t="1592466393036" class="icon" viewBox="0 0 1024 1024" version="1.1" xmlns="http://www.w3.org/2000/svg" p-id="6045" xmlns:xlink="http://www.w3.org/1999/xlink" width="200" height="200"><defs><style type="text/css"></style></defs><path d="M912 848H144V144c0-17.6-14.4-32-32-32s-32 14.4-32 32v736c0 17.6 14.4 32 32 32h800c17.6 0 32-14.4 32-32s-14.4-32-32-32z" p-id="6046"></path><path d="M246.4 636.8L440 443.2l158.4 158.4c6.4 6.4 16 9.6 24 9.6s16-3.2 22.4-9.6l276.8-278.4c11.2-12.8 11.2-32 0-43.2s-32-12.8-43.2 0L624 536 464 376c-8-4.8-16-8-24-8s-16 3.2-22.4 9.6L201.6 592c-12.8 12.8-12.8 32 0 44.8 12.8 12.8 32 12.8 44.8 0z" p-id="6047"></path></svg>