<svg viewBox="0 0 1024 1024" version="1.1" xmlns="http://www.w3.org/2000/svg" xmlns:xlink="http://www.w3.org/1999/xlink" width="200" height="200"><path d="M512 0C229.180952 0 0 229.180952 0 512s229.180952 512 512 512 512-229.180952 512-512S794.819048 0 512 0z m0 987.428571C251.12381 987.428571 36.571429 772.87619 36.571429 512S251.12381 36.571429 512 36.571429 987.428571 248.685714 987.428571 512c0 260.87619-214.552381 475.428571-475.428571 475.428571z"></path><path d="M543.695238 485.180952l-7.314286-2.438095V316.952381l29.257143 7.314286c14.628571 7.314286 26.819048 17.066667 36.571429 29.257143 9.752381 12.190476 14.628571 26.819048 17.066666 43.885714v2.438095h60.952381v-4.87619c-2.438095-26.819048-9.752381-51.2-24.380952-70.704762-14.628571-19.504762-34.133333-36.571429-60.952381-46.32381-19.504762-7.314286-39.009524-12.190476-58.514286-14.628571V202.361905h-43.885714v60.952381c-24.380952 2.438095-46.32381 7.314286-65.828571 17.066666-24.380952 12.190476-46.32381 26.819048-60.952381 48.761905s-21.942857 43.885714-21.942857 73.142857c0 24.380952 4.87619 43.885714 14.628571 60.952381 9.752381 17.066667 26.819048 31.695238 46.32381 43.885715 19.504762 12.190476 46.32381 21.942857 75.580952 26.819047l12.190476 2.438095v168.228572c-14.628571-2.438095-26.819048-4.87619-39.009524-9.752381-17.066667-7.314286-29.257143-17.066667-36.571428-31.695238-7.314286-14.628571-14.628571-26.819048-17.066667-41.447619v-4.876191h-60.952381v4.876191c2.438095 29.257143 12.190476 53.638095 29.257143 75.580952 17.066667 21.942857 39.009524 36.571429 65.828571 48.761905 19.504762 9.752381 36.571429 14.628571 58.514286 17.066667v58.514285H536.380952v-58.514285c21.942857-2.438095 43.885714-7.314286 63.390477-17.066667 26.819048-12.190476 48.761905-26.819048 63.390476-46.32381 14.628571-19.504762 24.380952-46.32381 24.380952-78.019047 0-36.571429-12.190476-65.828571-36.571428-87.771429-24.380952-21.942857-60.952381-36.571429-107.276191-48.761905z m-51.2-12.190476h-2.438095c-19.504762-4.87619-36.571429-12.190476-48.761905-19.504762-12.190476-7.314286-21.942857-17.066667-26.819048-26.819047s-7.314286-19.504762-7.314285-31.695238 4.87619-24.380952 12.190476-36.571429 19.504762-21.942857 36.571429-29.257143c12.190476-4.87619 21.942857-7.314286 36.571428-9.752381v153.6z m117.028572 195.047619c-7.314286 12.190476-19.504762 21.942857-36.571429 29.257143-12.190476 4.87619-21.942857 7.314286-36.571429 9.752381v-158.47619c21.942857 4.87619 39.009524 12.190476 51.2 19.504761 12.190476 7.314286 21.942857 17.066667 26.819048 26.819048 4.87619 9.752381 7.314286 21.942857 7.314286 34.133333 0 12.190476-4.87619 26.819048-12.190476 39.009524z"></path></svg>