<svg viewBox="0 0 1024 1024" version="1.1" xmlns="http://www.w3.org/2000/svg" xmlns:xlink="http://www.w3.org/1999/xlink" width="200" height="200"><path d="M512 96.548571c99.961905 0 182.857143 82.895238 182.857143 182.857143s-82.895238 182.857143-182.857143 182.857143-182.857143-82.895238-182.857143-182.857143 82.895238-182.857143 182.857143-182.857143z m0 36.571429c-80.457143 0-146.285714 65.828571-146.285714 146.285714s65.828571 146.285714 146.285714 146.285715 146.285714-65.828571 146.285714-146.285715-65.828571-146.285714-146.285714-146.285714zM804.571429 486.64381c53.638095 0 97.52381 43.885714 97.523809 97.523809v319.390476H121.904762v-319.390476c0-53.638095 43.885714-97.52381 97.523809-97.523809h585.142858z m0 36.571428H219.428571c-31.695238 0-58.514286 24.380952-60.952381 56.076191V866.986667h707.04762v-282.819048c0-31.695238-24.380952-58.514286-56.076191-60.952381H804.571429z"></path></svg>