<svg viewBox="0 0 1024 1024" version="1.1" xmlns="http://www.w3.org/2000/svg" width="200" height="200"><path d="M215.104 178.688v237.76h64V178.688h87.04V124.8H128v53.888h87.104z m222.144-6.08V124.8H379.52v47.808h57.792z m-57.792 32.64v211.2h57.792v-211.2H379.52z m161.024 0v-63.296h-57.792v63.36h-35.072v38.784h35.072V368.64c0 10.624 1.728 19.2 5.248 25.728a37.76 37.76 0 0 0 14.464 15.104 59.904 59.904 0 0 0 21.12 7.168c8.064 1.28 16.576 1.856 25.536 1.856 5.696 0 11.52-0.128 17.472-0.384 5.952-0.32 11.392-0.832 16.32-1.664v-44.928a80.832 80.832 0 0 1-17.92 1.6c-9.792 0-16.32-1.6-19.584-4.864-3.2-3.264-4.864-9.792-4.864-19.584V244.032h42.368v-38.848h-42.368zM596.48 124.8v291.648h57.792V124.8H596.48z m135.424 163.392c0.32-4.096 1.152-8.704 2.688-13.888a42.624 42.624 0 0 1 22.4-26.368 50.176 50.176 0 0 1 22.976-4.672c14.08 0 24.64 3.84 31.552 11.456 6.912 7.616 11.776 18.752 14.464 33.472h-94.08z m0 36.736h151.872c1.088-16.32-0.256-32-4.096-46.976a115.2 115.2 0 0 0-18.56-40 93.568 93.568 0 0 0-32.704-27.968 99.84 99.84 0 0 0-46.848-10.432c-16 0-30.592 2.88-43.776 8.576-13.184 5.76-24.512 13.568-33.984 23.488a103.68 103.68 0 0 0-22.016 35.328 123.52 123.52 0 0 0-7.68 44.16c0 16.32 2.496 31.296 7.488 44.864 5.056 13.632 12.16 25.344 21.376 35.2 9.216 9.728 20.48 17.28 33.792 22.592 13.312 5.312 28.224 8 44.8 8 23.872 0 44.224-5.44 61.056-16.32 16.832-10.88 29.312-28.992 37.504-54.4h-50.944c-1.92 6.592-7.04 12.8-15.424 18.624a51.456 51.456 0 0 1-30.144 8.768c-16.32 0-28.8-4.224-37.44-12.608-8.704-8.448-13.44-22.08-14.272-40.896zM128 545.472c0-13.632 11.072-24.704 24.768-24.704h718.464a24.768 24.768 0 0 1 0 49.472H152.768A24.768 24.768 0 0 1 128 545.472z m0 148.48c0-13.632 11.072-24.704 24.768-24.704h718.464a24.768 24.768 0 0 1 0 49.472H152.768A24.768 24.768 0 0 1 128 693.952z m0 148.48c0-13.632 11.072-24.704 24.768-24.704h526.464a24.768 24.768 0 0 1 0 49.472H152.768A24.768 24.768 0 0 1 128 842.432z"></path></svg>