<?xml version="1.0" encoding="UTF-8"?>
<svg width="42px" height="42px" viewBox="0 0 42 42" version="1.1" xmlns="http://www.w3.org/2000/svg" xmlns:xlink="http://www.w3.org/1999/xlink">
    <title>云账号健康状态 </title>
    <g id="云管备份" stroke="none" stroke-width="1" fill="none" fill-rule="evenodd">
        <g id="磁条" transform="translate(-31.000000, -1139.000000)" stroke="#0099F0" stroke-width="1.5">
            <g id="编组-9" transform="translate(0.000000, 68.000000)">
                <g id="编组-13备份-13" transform="translate(17.000000, 1071.000000)">
                    <g id="形状结合-2" transform="translate(14.000000, 0.000000)">
                        <g id="云账号健康状态-" transform="translate(1.000000, 3.000000)">
                            <path d="M19,0.75 C22.1066017,0.75 24.9191017,2.00919914 26.9549513,4.04504871 C28.9908009,6.08089828 30.25,8.89339828 30.25,12 C30.25,12.168565 30.2462927,12.3362641 30.2392057,12.5028573 C30.3958554,12.5617791 30.5515245,12.62417 30.70607,12.6900037 C32.6508271,13.5184375 34.325717,14.8528889 35.49547,16.5239646 C36.5977055,18.0985867 37.25,19.9729216 37.25,22 C37.25,24.554317 36.2146585,26.866817 34.5407377,28.5407377 C32.866817,30.2146585 30.554317,31.25 28,31.25 L28,31.25 L10,31.25 C7.44568303,31.25 5.13318303,30.2146585 3.45926227,28.5407377 C1.78534152,26.866817 0.75,24.554317 0.75,22 C0.75,19.9539535 1.41414417,18.0629743 2.53896194,16.5311942 C3.6927329,14.9599857 5.3306588,13.7662225 7.23318341,13.170691 C7.41189345,13.1147508 7.59169516,13.0644782 7.77206025,13.0195817 C7.76371861,12.8324054 7.75938131,12.6438412 7.75913636,12.4539698 C7.7548714,9.14806754 8.99222618,6.23527857 11.0078696,4.14162509 C13.044311,2.02636866 15.8731837,0.75 19,0.75 Z" id="形状结合"></path>
                        </g>
                    </g>
                </g>
            </g>
        </g>
    </g>
</svg>