<svg viewBox="0 0 1024 1024" version="1.1" xmlns="http://www.w3.org/2000/svg" xmlns:xlink="http://www.w3.org/1999/xlink" width="200" height="200"><path d="M938.816768 76.8H85.491968A87.2448 87.2448 0 0 0 0.039168 165.5552v630.4a87.2448 87.2448 0 0 0 85.4528 88.7552h384.4352v43.1104H213.312768a21.5552 21.5552 0 1 0 0 43.1104H810.509568a21.5552 21.5552 0 0 0 0-43.1104H510.759168v-43.1104h428.0576A87.2448 87.2448 0 0 0 1024.013568 795.9552V165.5552A87.2448 87.2448 0 0 0 938.816768 76.8zM86.003968 119.3984h852.8128a44.1344 44.1344 0 0 1 42.5984 46.08v507.2384H43.149568v-98.1248l224.6656-220.3648 155.9552 152.1408a16.7424 16.7424 0 0 0 28.3904 0l149.12-148.48a16.4864 16.4864 0 0 0 0-28.16 16.7424 16.7424 0 0 0-28.3904 0l-134.912 134.4-155.9552-155.6992a16.7424 16.7424 0 0 0-28.3904 0L43.149568 518.144V165.5552a44.1344 44.1344 0 0 1 42.3424-46.08z m852.8128 722.7136H85.491968a44.1344 44.1344 0 0 1-42.8544-46.08v-81.408h938.2656v81.408a44.1088 44.1088 0 0 1-42.0864 46.08z m-384.4352-62.8992a42.0864 42.0864 0 1 1-42.0864-43.1104 42.5984 42.5984 0 0 1 41.5744 43.1104z m276.1472-361.3696a40.96 40.96 0 0 0-43.8784-42.5984 85.4528 85.4528 0 0 1-20.2752-168.3712V181.504a21.5552 21.5552 0 1 1 43.1104 0v25.3696a86.4768 86.4768 0 0 1 62.3872 81.92 21.2992 21.2992 0 0 1-42.5984 0 40.832 40.832 0 0 0-40.576-42.5984h-1.5104a42.8544 42.8544 0 1 0 0 85.7088 85.1968 85.1968 0 0 1 22.8096 167.3728v24.6016a21.5552 21.5552 0 0 1-43.1104 0v-22.8352a86.7328 86.7328 0 0 1-64.6656-82.6624 22.8352 22.8352 0 0 1 21.2992-21.2992 22.5792 22.5792 0 0 1 21.0432 21.2992 40.96 40.96 0 0 0 42.0864 42.3424h2.2784a40.576 40.576 0 0 0 40.96-42.8544z"></path></svg>