<svg viewBox="0 0 1024 1024" version="1.1" xmlns="http://www.w3.org/2000/svg" xmlns:xlink="http://www.w3.org/1999/xlink" width="200" height="200"><path d="M0 0v1024h1024V0H0z m987.428571 504.685714H541.257143V36.571429h446.171428v468.114285zM504.685714 36.571429v468.114285H36.571429V36.571429h468.114285z m-468.114285 950.857142V541.257143h468.114285v443.733333h36.571429V541.257143h446.171428v446.171428h-950.857142z"></path><path d="M270.628571 390.095238h34.133334V146.285714h-34.133334L236.495238 170.666667v36.571428l34.133333-24.380952zM331.580952 733.866667c2.438095-2.438095 2.438095-7.314286 2.438096-12.190477v-19.504761c0-14.628571 0-26.819048-2.438096-34.133334 0-4.87619-2.438095-7.314286-4.87619-9.752381-2.438095-2.438095-4.87619-4.87619-4.876191-7.314285-2.438095-4.87619-7.314286-7.314286-14.628571-12.190477s-14.628571-4.87619-24.380952-4.87619c-7.314286 0-14.628571 2.438095-19.504762 4.87619-7.314286 2.438095-12.190476 7.314286-17.066667 9.752381-4.87619 4.87619-9.752381 9.752381-12.190476 17.066667-2.438095 7.314286-4.87619 12.190476-4.876191 19.504762v19.504762h34.133334V682.666667c0-2.438095 2.438095-7.314286 4.87619-12.190477s7.314286-4.87619 12.190476-4.87619 9.752381 2.438095 12.190477 4.87619c2.438095 2.438095 4.87619 7.314286 4.87619 12.190477v31.695238c0 9.752381-2.438095 14.628571-4.87619 17.066666-4.87619 2.438095-12.190476 4.87619-21.942858 4.876191v31.695238h14.628572c2.438095 0 7.314286 2.438095 7.314286 2.438095 2.438095 2.438095 4.87619 9.752381 4.87619 19.504762v34.133333c0 4.87619-2.438095 9.752381-4.87619 14.628572-2.438095 2.438095-7.314286 4.87619-12.190477 4.87619s-9.752381-2.438095-12.190476-4.87619c-2.438095-2.438095-4.87619-7.314286-4.87619-14.628572v-17.066666H229.180952v19.504762c0 9.752381 2.438095 17.066667 4.876191 24.380952 2.438095 7.314286 7.314286 12.190476 12.190476 17.066667 4.87619 4.87619 9.752381 7.314286 17.066667 9.752381 7.314286 2.438095 12.190476 2.438095 17.066666 2.438095 9.752381 0 19.504762-2.438095 26.819048-7.314286s12.190476-9.752381 17.066667-17.066666c2.438095-2.438095 2.438095-4.87619 4.87619-7.314286 0-2.438095 2.438095-4.87619 2.438095-9.752381 0-2.438095 0-7.314286 2.438096-12.190476s0-12.190476 0-19.504762v-21.942857c0-7.314286 0-9.752381-2.438096-14.628572-2.438095-4.87619-2.438095-7.314286-7.314285-9.752381s-7.314286-7.314286-12.190477-9.752381c4.87619-2.438095 9.752381-4.87619 12.190477-7.314285 2.438095-2.438095 4.87619-7.314286 7.314285-9.752381zM755.809524 236.495238l-63.390476 119.466667V390.095238h104.838095v-34.133333h-63.390476l51.2-97.52381c2.438095-4.87619 4.87619-9.752381 7.314285-12.190476 2.438095-2.438095 2.438095-7.314286 2.438096-9.752381 0-2.438095 0-7.314286 2.438095-12.190476 0-12.190476 0-26.819048-2.438095-39.009524-2.438095-7.314286-4.87619-14.628571-9.752381-19.504762-4.87619-4.87619-9.752381-9.752381-17.066667-14.628571-12.190476-7.314286-31.695238-7.314286-43.885714 0-7.314286 2.438095-12.190476 7.314286-17.066667 12.190476-4.87619 4.87619-7.314286 9.752381-12.190476 17.066667-2.438095 7.314286-4.87619 12.190476-4.876191 19.504762V219.428571h34.133334V195.047619c0-4.87619 2.438095-9.752381 4.87619-12.190476 4.87619-4.87619 17.066667-4.87619 21.942857-2.438095 2.438095 2.438095 4.87619 4.87619 4.876191 7.314285 0 2.438095 2.438095 4.87619 2.438095 9.752381v26.819048c2.438095 2.438095 0 7.314286-2.438095 12.190476zM787.504762 738.742857h-34.133333v68.266667h-34.133334l51.2-173.104762h-36.571428l-48.761905 173.104762v34.133333h68.266667V877.714286h34.133333v-36.571429h17.066667v-34.133333h-17.066667z"></path></svg>