<svg viewBox="0 0 1024 1024" version="1.1" xmlns="http://www.w3.org/2000/svg" xmlns:xlink="http://www.w3.org/1999/xlink" width="200" height="200"><path d="M512 0C229.180952 0 0 229.180952 0 512s229.180952 512 512 512 512-229.180952 512-512S794.819048 0 512 0z m0 987.428571C251.12381 987.428571 36.571429 772.87619 36.571429 512S251.12381 36.571429 512 36.571429 987.428571 248.685714 987.428571 512c0 260.87619-214.552381 475.428571-475.428571 475.428571z"></path><path d="M421.790476 448.609524c19.504762 0 34.133333-4.87619 48.761905-17.066667 7.314286-4.87619 12.190476-12.190476 14.628571-21.942857 2.438095-9.752381 4.87619-19.504762 4.876191-31.695238v-48.761905c0-24.380952-7.314286-43.885714-19.504762-56.07619-14.628571-12.190476-29.257143-17.066667-48.761905-17.066667-17.066667 0-34.133333 4.87619-46.323809 17.066667-14.628571 12.190476-21.942857 29.257143-21.942857 56.07619v51.2c0 24.380952 7.314286 43.885714 21.942857 53.638095 12.190476 9.752381 26.819048 14.628571 46.323809 14.628572z m-29.257143-117.028572c0-24.380952 9.752381-36.571429 29.257143-36.571428s29.257143 12.190476 29.257143 36.571428v39.009524c0 24.380952-9.752381 36.571429-29.257143 36.571429s-29.257143-12.190476-29.257143-36.571429v-39.009524zM604.647619 258.438095L358.4 780.190476h48.761905l243.809524-521.752381zM587.580952 590.019048c-17.066667 0-34.133333 4.87619-46.323809 17.066666-14.628571 12.190476-21.942857 29.257143-21.942857 56.076191v51.2c0 24.380952 7.314286 43.885714 21.942857 53.638095 12.190476 12.190476 29.257143 17.066667 46.323809 17.066667 19.504762 0 34.133333-4.87619 48.761905-17.066667 7.314286-4.87619 12.190476-12.190476 14.628572-21.942857 2.438095-9.752381 4.87619-19.504762 4.87619-31.695238v-48.761905c0-24.380952-7.314286-43.885714-19.504762-56.07619-12.190476-14.628571-29.257143-19.504762-48.761905-19.504762z m29.257143 117.028571c0 24.380952-9.752381 36.571429-26.819047 36.571429S560.761905 731.428571 560.761905 707.047619v-39.009524c0-24.380952 9.752381-36.571429 26.819047-36.571428s26.819048 12.190476 26.819048 36.571428V707.047619z"></path></svg>