<svg viewBox="0 0 1024 1024" version="1.1" xmlns="http://www.w3.org/2000/svg" xmlns:xlink="http://www.w3.org/1999/xlink" width="200" height="200"><path d="M858.209524 816.761905V531.504762c0-87.771429-36.571429-175.542857-102.4-243.809524-63.390476-65.828571-151.161905-102.4-243.809524-102.4-87.771429 0-175.542857 36.571429-243.809524 102.4-65.828571 63.390476-102.4 151.161905-102.4 243.809524v287.695238H48.761905v195.047619h926.47619v-195.047619h-117.028571z m-658.285714-285.257143c0-82.895238 34.133333-163.352381 92.647619-219.428572 60.952381-58.514286 138.971429-92.647619 219.428571-92.647619 82.895238 0 163.352381 34.133333 219.428571 92.647619 58.514286 60.952381 92.647619 138.971429 92.647619 219.428572v285.257143H199.92381V531.504762zM938.666667 975.238095h-853.333334v-121.904762h853.333334v121.904762zM492.495238 12.190476h36.571429v90.209524h-36.571429zM807.375238 216.624762l56.149333-61.001143L890.441143 180.419048l-56.149333 61.001142zM131.291429 180.419048l25.843809-25.84381 60.367238 60.318476L191.634286 240.761905z"></path><path d="M568.07619 519.314286h-107.27619v109.714285H365.714286v36.571429h131.657143v-109.714286h107.27619v-75.580952H682.666667v-36.571429h-114.590477z"></path></svg>