<svg viewBox="0 0 1024 1024" version="1.1" xmlns="http://www.w3.org/2000/svg" xmlns:xlink="http://www.w3.org/1999/xlink" width="200" height="200"><path d="M512 73.142857c160.914286 0 292.571429 131.657143 292.571429 292.571429v12.190476c99.961905 31.695238 170.666667 124.342857 170.666666 231.619048 0 134.095238-109.714286 243.809524-243.809524 243.809523H292.571429C158.47619 853.333333 48.761905 743.619048 48.761905 609.52381c0-109.714286 70.704762-202.361905 170.666666-231.619048V365.714286C219.428571 204.8 351.085714 73.142857 512 73.142857z m0 36.571429c-141.409524 0-256 114.590476-256 256v39.009524l-26.819048 7.314285c-85.333333 26.819048-146.285714 107.27619-146.285714 197.485715 0 112.152381 90.209524 204.8 199.92381 207.238095h446.171428c114.590476 0 207.238095-92.647619 207.238095-207.238095 0-90.209524-56.07619-168.228571-138.971428-195.04762l-7.314286-2.438095-26.819047-7.314285v-26.819048-9.752381C768 224.304762 653.409524 109.714286 512 109.714286z"></path></svg>