<svg viewBox="0 0 1024 1024" version="1.1" xmlns="http://www.w3.org/2000/svg" xmlns:xlink="http://www.w3.org/1999/xlink" width="200" height="200"><path d="M885.028571 207.238095c68.266667 85.333333 107.27619 192.609524 107.276191 304.761905 0 265.752381-214.552381 482.742857-482.742857 482.742857-60.952381 0-119.466667-12.190476-173.104762-31.695238l-12.190476-4.87619 14.628571-34.133334c53.638095 21.942857 112.152381 34.133333 170.666667 34.133334 246.247619 0 443.733333-199.92381 443.733333-443.733334 0-99.961905-34.133333-195.047619-92.647619-273.066666l-7.314286-7.314286 31.695238-26.819048zM512 29.257143c90.209524 0 175.542857 24.380952 251.12381 70.704762l9.75238 7.314285-19.504761 31.695239C682.666667 92.647619 599.771429 68.266667 512 68.266667 265.752381 68.266667 68.266667 265.752381 68.266667 512c0 119.466667 48.761905 231.619048 131.657143 314.514286l7.314285 7.314285-24.380952 26.819048c-97.52381-90.209524-153.6-214.552381-153.6-348.647619C29.257143 246.247619 246.247619 29.257143 512 29.257143z m104.838095 216.990476c107.27619 43.885714 180.419048 148.72381 180.419048 265.752381 0 158.47619-129.219048 287.695238-287.695238 287.695238-24.380952 0-48.761905-2.438095-73.142857-9.752381l-9.752381-2.438095 9.752381-34.133333c24.380952 7.314286 48.761905 9.752381 73.142857 9.752381 138.971429 0 248.685714-112.152381 248.685714-248.685715 0-99.961905-60.952381-190.171429-151.161905-229.180952l-7.314285-2.438095 17.066666-36.571429zM512 224.304762h31.695238v304.761905l-192.609524 216.990476c-78.019048-53.638095-124.342857-141.409524-124.342857-236.495238C224.304762 353.52381 353.52381 224.304762 512 224.304762z m0 39.009524c-138.971429 0-248.685714 112.152381-248.685714 248.685714 0 73.142857 31.695238 141.409524 85.333333 187.733333l158.476191-182.857143V260.87619l4.87619 2.438096z"></path></svg>