<svg viewBox="0 0 1024 1024" version="1.1" xmlns="http://www.w3.org/2000/svg" width="200" height="200"><path d="M947 141.3c-6-18.9-21.5-33.5-40.5-38.2-3.4-0.8-6.9-1.3-10.4-1.3-2.2 0-4.3 0.2-6.3 0.5l-0.9 0.1c-3.2 0.5-6.6 1-10 1.6-151.6 25.3-274.5 96.4-365.3 211.3-90.8-114.9-213.7-186-365.5-211.3-2.4-0.4-4.7-0.8-7.1-1.1l-3.7-0.6c-2.1-0.3-4.2-0.4-6.2-0.4-3.6 0-7.1 0.4-10.5 1.3-16.4 4.1-30.1 15.4-37.4 30.9-2.7 5.8-4.1 12-4.1 18.4v324.6c0 1.9 0.4 3.7 1.1 5.4 0.7 1.7 1.7 3.3 3.1 4.6 2.7 2.7 6.3 4.2 10 4.2h362c4.5 0 8.8-1.8 12-4.9l4.3-4.2c1.4-1.3 2.5-2.9 3.4-4.6 5.5-11 27-54 38.7-73.7 2.6 4.4 6.1 10.3 9.1 15.4 4.5 7.6 12.8 12.3 21.6 12.3 1.1 0 2.3-0.1 3.4-0.2 12.3-1.7 21.6-12.4 21.6-24.9 0-4.5-1.2-8.9-3.5-12.8-6.6-11-17-28.5-21.2-35.5C628.5 246.7 743.8 178 887.3 154.1c2.5-0.4 5.4-0.8 8.3-1.3 1.2 0.6 2.2 1.7 2.8 3v714H661.6c-14 0-25.4 11.4-25.4 25.4 0 14 11.4 25.4 25.4 25.4h240.8c25.7 0 46.5-20.8 46.5-46.5V154.2c0-4.4-0.6-8.7-1.9-12.9zM477.4 365.8c-0.1 0.2-0.3 0.4-0.4 0.7-10.2 15.9-23.7 40.8-40 73.9H129.7v-286c0.6-0.7 1.3-1.3 2-1.7 2.7 0.4 5.3 0.8 8 1.2h0.3c143.6 23.9 258.8 92.6 342.6 204.1-1.8 2.7-3.6 5.3-5.2 7.8z m60.4 554.6h24.9c14 0 25.4-11.4 25.4-25.4 0-14-11.4-25.4-25.4-25.4h-24.9c-14 0-25.4 11.4-25.4 25.4 0 14 11.4 25.4 25.4 25.4zM78.9 528v347.9c0 25.4 20.7 46.1 46.1 46.1h340.8V528H78.9z m336.3 343.3H129.7V578.7h285.6v292.6z"></path><path d="M834.3 613c0 88.3-71.6 159.9-159.9 159.9S514.6 701.2 514.6 613s71.6-159.9 159.9-159.9S834.3 524.7 834.3 613zM674.5 495.2c-65 0-117.8 52.7-117.8 117.8s52.7 117.8 117.8 117.8S792.3 678 792.3 613s-52.8-117.8-117.8-117.8z"></path><path d="M848.7 802.1l-4.1 3.7c-9.2 8.4-23.5 7.7-31.9-1.5l-67.8-74.5 37.5-34.1 67.8 74.5c8.4 9.2 7.7 23.5-1.5 31.9z"></path></svg>