<svg viewBox="0 0 1024 1024" version="1.1" xmlns="http://www.w3.org/2000/svg" xmlns:xlink="http://www.w3.org/1999/xlink" width="200" height="200"><path d="M992.530132 0H32.023049c-17.689508 0-31.961585 12.735462-31.961584 28.44581v967.10838C0 1011.264538 14.333541 1024 32.023049 1024H992.530132c17.689508 0 32.072221-12.735462 32.072221-28.44581V28.44581C1024.602353 12.735462 1010.21964 0 992.530132 0z m-31.961585 967.108379H64.033806V56.891621h896.48557z"></path><path d="M219.305642 241.309964h363.980985a97.654934 97.654934 0 0 0 183.594718 0h38.415366a32.57623 32.57623 0 0 0 0-65.152461H766.832173a97.654934 97.654934 0 0 0-183.594718 0h-363.870348a32.57623 32.57623 0 0 0 0 65.152461z m423.183674-32.551645a32.551645 32.551645 0 1 1 32.551644 32.551645 32.551645 32.551645 0 0 1-32.551644-32.551645zM219.305642 534.287059h38.415366a97.654934 97.654934 0 0 0 183.594718 0h363.870348a32.57623 32.57623 0 0 0 0-65.152461H441.315726a97.654934 97.654934 0 0 0-183.594718 0H219.305642a32.57623 32.57623 0 0 0 0 65.152461z m97.654934-32.551645a32.551645 32.551645 0 1 1 32.551645 32.551645 32.551645 32.551645 0 0 1-32.551645-32.551645zM219.305642 827.313325h363.980985a97.654934 97.654934 0 0 0 183.594718 0h38.415366a32.57623 32.57623 0 0 0 0-65.152461H766.832173a97.654934 97.654934 0 0 0-183.545546 0h-363.870348a32.57623 32.57623 0 1 0 0 65.152461z m423.183674-32.551644A32.551645 32.551645 0 1 1 675.04096 827.313325a32.551645 32.551645 0 0 1-32.551644-32.551644z"></path></svg>