<svg viewBox="0 0 1024 1024" version="1.1" xmlns="http://www.w3.org/2000/svg" xmlns:xlink="http://www.w3.org/1999/xlink" width="200" height="200"><path d="M207.238095 304.761905H4.87619v412.038095h199.92381l253.561905 251.12381h216.990476V53.638095h-216.990476L207.238095 304.761905z m431.542857-212.114286v841.142857h-163.352381L221.866667 682.666667H43.885714V341.333333h180.419048L475.428571 92.647619h163.352381zM828.952381 134.095238l-24.380952 29.257143c109.714286 82.895238 175.542857 214.552381 175.542857 348.647619 0 141.409524-68.266667 273.066667-182.857143 353.52381l21.942857 29.257142c124.342857-87.771429 197.485714-229.180952 197.485714-382.780952 2.438095-146.285714-70.704762-287.695238-187.733333-377.904762z"></path><path d="M768 390.095238H804.571429v243.809524h-36.571429z"></path></svg>