<?xml version="1.0" encoding="UTF-8"?>
<svg width="42px" height="42px" viewBox="0 0 42 42" version="1.1" xmlns="http://www.w3.org/2000/svg" xmlns:xlink="http://www.w3.org/1999/xlink">
    <title>本月消费占比 </title>
    <g id="云管备份" stroke="none" stroke-width="1" fill="none" fill-rule="evenodd">
        <g id="磁条" transform="translate(-28.000000, -817.000000)" stroke="#0099F0" stroke-width="1.5">
            <g id="编组-9" transform="translate(0.000000, 68.000000)">
                <g id="编组-13备份-8" transform="translate(17.000000, 749.000000)">
                    <g id="本月消费占比--2" transform="translate(11.000000, 0.000000)">
                        <g id="本月消费占比-" transform="translate(2.000000, 2.000000)">
                            <path d="M11.3865648,37.237166 C13.857011,38.3690551 16.604823,39 19.5,39 C30.2695526,39 39,30.2695526 39,19.5 C39,14.5390563 37.1474507,10.0107986 34.0964054,6.56928034 M29.5105815,2.76220219 C26.5842953,1.00827374 23.1598951,0 19.5,0 C8.73044738,0 0,8.73044738 0,19.5 C0,24.8723365 2.17253904,29.7372493 5.68698279,33.2641042" id="形状"></path>
                            <path d="M19.5,8.35714286 C13.3459699,8.35714286 8.35714286,13.3459699 8.35714286,19.5 C8.35714286,22.8480662 9.83375791,25.8512504 12.1712748,27.8938396 M15.6252298,29.9506872 C16.8320341,30.3983005 18.1374574,30.6428571 19.5,30.6428571 C25.6540301,30.6428571 30.6428571,25.6540301 30.6428571,19.5 C30.6428571,14.5803396 27.4546284,10.4053299 23.0316182,8.92841833" id="形状"></path>
                            <polyline id="路径-2" points="19.8017857 7.67148263 19.8017857 19.5 11.7215594 28.3248291"></polyline>
                        </g>
                    </g>
                </g>
            </g>
        </g>
    </g>
</svg>