<svg viewBox="0 0 1024 1024" version="1.1" xmlns="http://www.w3.org/2000/svg" xmlns:xlink="http://www.w3.org/1999/xlink" width="200" height="200"><path d="M938.816768 76.8H85.491968A87.2448 87.2448 0 0 0 0.039168 165.5552v630.4a87.2448 87.2448 0 0 0 85.4528 88.7552h384.4352v43.1104H213.312768a21.5552 21.5552 0 1 0 0 43.1104H810.509568a21.5552 21.5552 0 0 0 0-43.1104H510.759168v-43.1104h428.0576A87.2448 87.2448 0 0 0 1024.013568 795.9552V165.5552A87.2448 87.2448 0 0 0 938.816768 76.8zM86.003968 119.3984h852.8128a44.1344 44.1344 0 0 1 42.5984 46.08v507.2384H43.149568V165.5552a80.896 80.896 0 0 1 11.5712-31.8976 44.1344 44.1344 0 0 1 30.72-14.2592z m852.8128 722.7136H85.491968a44.1344 44.1344 0 0 1-42.8544-46.08v-81.408h938.2656v81.408a44.1088 44.1088 0 0 1-42.0864 46.08z m-384.4352-62.8992a42.0864 42.0864 0 1 1-42.0864-43.1104 42.5984 42.5984 0 0 1 41.5744 43.1104z"></path><path d="M736.832768 436.4544v-0.768a9.7536 9.7536 0 0 0-0.768-3.328 11.008 11.008 0 0 0-2.688-4.864l-104.064-65.792v-97.28a8.9088 8.9088 0 0 0 0-1.792 10.24 10.24 0 0 0 0-1.92 12.8 12.8 0 0 0-2.816-5.376L519.104768 190.464a14.976 14.976 0 0 0-12.8 0l-107.264 64.768-1.792 1.92-0.768 0.896-1.28 1.792-0.768 1.28a9.0624 9.0624 0 0 0-0.768 3.2v97.92l-102.4 65.024c-0.64 0-1.024 0.896-1.536 1.408l-0.768 0.768a7.68 7.68 0 0 0-2.048 2.944 12.8 12.8 0 0 0-0.64 2.048V540.288a9.856 9.856 0 0 0 5.376 8.96l105.216 66.816a10.752 10.752 0 0 0 3.968 2.56 10.8544 10.8544 0 0 0 3.328 0.64c3.584 0 5.376 0 7.168-1.792l100.864-64 98.688 62.464a9.856 9.856 0 0 0 4.864 2.816 9.472 9.472 0 0 0 3.2 0.64c3.584 0 5.376 0 7.168-1.792l107.776-68.096a13.696 13.696 0 0 0 3.584-8.96V436.48z m-322.944 71.68l85.888-51.2v76.8l-85.888 55.808z m194.944-146.56l-53.76 34.944-32.512 20.608v-80.896l86.272-52.096z m-108.032 54.272l-69.248-43.904-15.744-10.368v-78.464l84.992 51.2z m21.76 39.424l85.888 51.2v82.432l-85.888-55.552z m96.768 33.152l-85.632-51.2 87.04-55.168 86.784 54.784z m-107.008-276.224l87.552 52.224-87.552 52.096-85.888-52.096z m-108.288 168.704l87.552 55.552-87.552 51.968-85.76-51.968z m-96.512 74.24l86.272 51.84v82.432l-86.272-55.936z m322.176 134.016v-81.408l86.144-51.2v76.8z"></path></svg>