<svg viewBox="0 0 1024 1024" version="1.1" xmlns="http://www.w3.org/2000/svg" width="16" height="16"><path d="M512 224c160 0 288 128 288 288 0 137.6-99.2 259.2-236.8 281.6l-25.6 6.4H512c-160 0-288-128-288-288v-25.6l6.4-28.8C252.8 323.2 374.4 224 512 224m0-224C230.4 0 0 230.4 0 512h160c0 195.2 156.8 352 352 352v160c281.6 0 512-230.4 512-512S793.6 0 512 0zM70.4 448C99.2 230.4 288 64 512 64c246.4 0 448 201.6 448 448 0 224-166.4 412.8-384 441.6v-96C739.2 828.8 864 684.8 864 512c0-195.2-156.8-352-352-352-172.8 0-316.8 124.8-345.6 288h-96z"></path></svg>