<svg viewBox="0 0 1763 1024" version="1.1" xmlns="http://www.w3.org/2000/svg" xmlns:xlink="http://www.w3.org/1999/xlink" width="344.3359375" height="200"><path d="M1750.813776 448.831929c-11.775405-20.149027-59.516678-101.472011-252.60425-430.485557A33.581711 33.581711 0 0 0 1467.709773 0.145375H295.112009a33.581711 33.581711 0 0 0-30.499754 18.200997s0 0.17445-252.633324 430.485557a36.750894 36.750894 0 0 0-11.949856 25.527915v512.942469a35.238991 35.238991 0 0 0 36.721819 36.634594h1689.261843a35.209916 35.209916 0 0 0 36.692744-36.634594V474.214469a36.576444 36.576444 0 0 0-11.891705-25.38254zM313.429306 72.949363h1135.934095l212.684171 364.746812H1211.93634a39.454876 39.454876 0 0 0-36.721819 36.634594v73.298264a109.554882 109.554882 0 0 1-110.165458 109.903782H734.407313a109.554882 109.554882 0 0 1-110.165458-109.903782v-73.298264a39.454876 39.454876 0 0 0-36.72182-36.634594H100.745134z m1375.919762 877.718356H73.472714V510.849063h477.441802v36.634594a180.265463 180.265463 0 0 0 183.580022 183.172971H1065.019988a180.265463 180.265463 0 0 0 183.638172-183.172971v-36.634594h440.690908z"></path></svg>