<svg viewBox="0 0 1025 1024" version="1.1" xmlns="http://www.w3.org/2000/svg" xmlns:xlink="http://www.w3.org/1999/xlink" width="200.1953125" height="200"><path d="M800.192 882.986667a63.274667 63.274667 0 0 1-62.378667 64H288.192a63.274667 63.274667 0 0 1-62.421333-64V290.474667h574.421333v592.512zM350.613333 89.344a12.8 12.8 0 0 1 12.8-13.098667h299.989334a12.8 12.8 0 0 1 12.8 13.098667v124.885333H350.613333z m636.8 124.885333h-236.8V89.344A88.490667 88.490667 0 0 0 663.402667 0H363.413333A88.490667 88.490667 0 0 0 276.202667 89.344v124.885333H38.592a38.528 38.528 0 0 0 0 77.056h112v591.701334A139.349333 139.349333 0 0 0 288.192 1024h449.621333a139.349333 139.349333 0 0 0 137.6-141.013333V290.474667h112a38.016 38.016 0 0 0 37.589334-38.4 37.333333 37.333333 0 0 0-37.589334-37.845334zM379.925333 831.317333a38.016 38.016 0 0 0 37.589334-38.4V469.333333A37.632 37.632 0 1 0 342.336 469.333333v323.584a39.082667 39.082667 0 0 0 37.589333 38.4m266.154667 0a38.016 38.016 0 0 0 37.589333-38.4V469.333333a37.632 37.632 0 1 0-75.178666 0v323.584a38.016 38.016 0 0 0 37.589333 38.4"></path></svg>