<svg viewBox="0 0 1024 1024" version="1.1" xmlns="http://www.w3.org/2000/svg" xmlns:xlink="http://www.w3.org/1999/xlink" width="200" height="200"><path d="M810.667 341.333c-19.712 0-38.187-4.821-54.87-12.8l-97.28 97.28c14.976 25.387 24.15 54.571 24.15 86.187 0 34.005-10.198 65.493-27.35 92.075l97.707 92.885c17.408-8.832 36.779-14.293 57.643-14.293 70.698 0 128 57.301 128 128s-57.302 128-128 128-128-57.302-128-128c0-19.712 4.821-38.187 12.8-54.87l-100.48-95.53c-24.662 13.824-52.694 22.4-82.987 22.4-32.555 0-62.677-9.6-88.576-25.43l-97.877 93.056c9.728 18.048 15.786 38.4 15.786 60.374 0 70.698-57.301 128-128 128s-128-57.302-128-128 57.302-128 128-128c20.395 0 39.424 5.205 56.534 13.696l98.218-93.398c-16.725-26.368-26.752-57.429-26.752-90.965 0-32.512 9.6-62.635 25.387-88.49l-96.213-96.214c-17.28 8.704-36.523 14.037-57.174 14.037-70.698 0-128-57.301-128-128s57.302-128 128-128 128 57.302 128 128c0 20.651-5.376 39.894-14.037 57.174l96.213 96.213c25.856-15.787 55.979-25.387 88.491-25.387 31.616 0 60.8 9.174 86.187 24.15l97.28-97.28c-7.979-16.683-12.8-35.158-12.8-54.87 0-70.698 57.301-128 128-128s128 57.302 128 128-57.302 128-128 128z m0.682 521.344c28.331 0 51.328-22.997 51.328-51.328 0-28.33-22.997-51.328-51.328-51.328-28.33 0-51.328 22.998-51.328 51.328 0 28.331 22.955 51.328 51.328 51.328zM214.016 162.688c-28.33 0-51.328 22.997-51.328 51.328 0 28.33 22.997 51.328 51.328 51.328 28.33 0 51.328-22.997 51.328-51.328 0-28.373-22.997-51.328-51.328-51.328z m0 597.333c-28.33 0-51.328 22.998-51.328 51.328 0 28.331 22.997 51.328 51.328 51.328 28.33 0 51.328-22.997 51.328-51.328 0-28.373-22.997-51.328-51.328-51.328zM512 426.667c-47.147 0-85.333 38.186-85.333 85.333s38.186 85.333 85.333 85.333 85.333-38.186 85.333-85.333-38.186-85.333-85.333-85.333z m299.35-263.979c-28.331 0-51.329 22.997-51.329 51.328 0 28.33 22.998 51.328 51.328 51.328 28.331 0 51.328-22.997 51.328-51.328 0-28.373-22.997-51.328-51.328-51.328z"></path></svg>