<svg viewBox="0 0 1024 1024" version="1.1" xmlns="http://www.w3.org/2000/svg" xmlns:xlink="http://www.w3.org/1999/xlink" width="200" height="200"><path d="M198.4 230.4z m422.4 512l96 6.4 70.4-70.4-57.6-12.8 19.2-44.8s70.4-140.8 102.4-211.2c6.4-12.8 6.4-19.2 6.4-19.2 6.4-32-108.8-70.4-204.8-96-19.2-19.2-51.2-25.6-83.2-38.4-147.2-51.2-345.6-128-422.4-166.4 6.4 57.6 38.4 121.6 51.2 140.8 44.8 89.6 364.8 185.6 364.8 185.6-64 12.8-211.2-6.4-345.6-51.2 19.2 51.2 64 89.6 89.6 96 102.4 32 204.8 38.4 262.4 32 0 0-25.6 32-204.8 76.8 0 6.4 0 6.4 6.4 12.8 70.4 57.6 102.4 51.2 115.2 51.2l6.4-6.4c38.4-12.8 76.8-19.2 108.8-25.6l64-12.8-44.8 153.6z m-64 281.6l57.6-198.4-89.6-6.4 32-121.6c-12.8 0-19.2 6.4-32 12.8s-32 12.8-57.6 6.4C416 704 364.8 684.8 320 640c-25.6-19.2-64-57.6-57.6-96 0-6.4 0-6.4 6.4-12.8C198.4 512 140.8 422.4 128 352c-6.4-12.8-12.8-38.4 6.4-57.6l6.4-6.4C108.8 256 57.6 128 64 51.2c0-6.4 6.4-25.6 25.6-38.4 12.8-12.8 32-12.8 44.8-12.8h6.4s268.8 115.2 448 179.2c32 12.8 64 19.2 96 32 70.4 25.6 134.4 44.8 179.2 70.4 64 32 89.6 76.8 76.8 128 0 6.4-6.4 19.2-12.8 38.4-25.6 44.8-57.6 121.6-83.2 166.4l115.2 25.6-403.2 384z"></path></svg>