<svg viewBox="0 0 1024 1024" version="1.1" xmlns="http://www.w3.org/2000/svg" width="200" height="200"><path d="M473.6 810.666667h74.666667v-53.333334c35.541333-6.4 66.133333-20.266667 91.733333-41.6 25.6-21.333333 38.4-52.992 38.4-94.933333 0-29.866667-8.533333-57.258667-25.6-82.133333-17.066667-24.874667-51.2-46.592-102.4-65.066667-42.666667-14.208-72.192-26.666667-88.533333-37.333333-16.341333-10.666667-24.533333-25.258667-24.533334-43.733334 0-18.474667 6.570667-33.066667 19.754667-43.733333 13.141333-10.666667 32.170667-16 57.045333-16 22.741333 0 40.533333 5.546667 53.333334 16.554667 12.8 11.008 22.058667 24.704 27.733333 41.045333l68.266667-27.733333a142.890667 142.890667 0 0 0-43.221334-65.066667C599.296 279.125333 576 268.8 550.4 266.666667V213.333333h-74.666667v53.333334c-35.541333 7.808-63.274667 23.466667-83.2 46.933333-19.925333 23.466667-29.866667 49.792-29.866666 78.933333 0 33.408 9.813333 60.458667 29.354666 81.066667 19.541333 20.608 50.304 38.4 92.245334 53.333333 44.8 16.341333 75.946667 30.933333 93.354666 43.733334 17.408 12.8 26.112 29.525333 26.112 50.133333 0 23.466667-8.362667 40.704-25.088 51.712-16.682667 11.050667-36.778667 16.554667-60.245333 16.554667-23.466667 0-44.245333-7.253333-62.421333-21.845334-18.133333-14.592-31.445333-36.48-39.978667-65.621333l-70.4 27.733333c9.941333 34.133333 25.429333 61.696 46.421333 82.688 20.949333 20.949333 48.170667 35.370667 81.578667 43.178667V810.666667z m38.4 128a415.488 415.488 0 0 1-166.4-33.621334 430.890667 430.890667 0 0 1-135.466667-91.178666c-38.4-38.4-68.778667-83.541333-91.178666-135.466667A415.488 415.488 0 0 1 85.333333 512c0-59.008 11.221333-114.474667 33.621334-166.4a430.890667 430.890667 0 0 1 91.178666-135.466667c38.4-38.4 83.541333-68.778667 135.466667-91.178666A415.488 415.488 0 0 1 512 85.333333c59.008 0 114.474667 11.221333 166.4 33.621334a430.848 430.848 0 0 1 135.466667 91.178666c38.4 38.4 68.821333 83.541333 91.178666 135.466667A415.488 415.488 0 0 1 938.666667 512a415.488 415.488 0 0 1-33.621334 166.4 430.848 430.848 0 0 1-91.178666 135.466667c-38.4 38.4-83.541333 68.821333-135.466667 91.178666A415.488 415.488 0 0 1 512 938.666667z m0-85.333334c95.274667 0 176-33.066667 242.133333-99.2C820.266667 688 853.333333 607.274667 853.333333 512c0-95.274667-33.066667-176-99.2-242.133333C688 203.733333 607.274667 170.666667 512 170.666667c-95.274667 0-176 33.066667-242.133333 99.2C203.733333 336 170.666667 416.725333 170.666667 512c0 95.274667 33.066667 176 99.2 242.133333C336 820.266667 416.725333 853.333333 512 853.333333z"></path></svg>