<svg viewBox="0 0 1024 1024" version="1.1" xmlns="http://www.w3.org/2000/svg" xmlns:xlink="http://www.w3.org/1999/xlink" width="200" height="200"><path d="M870.403777 1023.974827H153.621397A150.865625 150.865625 0 0 1 0.025173 870.378603v-204.794965c0-30.719245 13.780995-51.198741 44.50024-51.198742s42.665618 20.479497 42.665618 51.198742v204.794965A73.683522 73.683522 0 0 0 153.621397 934.633024h716.78238a72.019563 72.019563 0 0 0 64.766407-64.254421v-204.794965c0-30.719245 13.269007-51.198741 43.988252-51.198742S1024.000001 634.864393 1024.000001 665.583638v204.794965a150.865625 150.865625 0 0 1-153.596224 153.596224z"></path><path d="M512.012587 716.782379a46.462858 46.462858 0 0 1-35.839119-15.359622l-255.993707-255.993707a49.918773 49.918773 0 0 1-6.314511-71.678238c20.479497-20.479497 47.529498-12.799685 68.008995 7.551814l230.181008 226.682428 225.829115-226.639762c20.479497-20.479497 45.524214-28.031311 66.00371-7.551814a49.492117 49.492117 0 0 1 0 71.678237l-255.993706 255.993707a46.462858 46.462858 0 0 1-35.839119 15.359623z"></path><path d="M512.012587 716.782379a45.524214 45.524214 0 0 1-44.500239-51.198741V51.198741a44.926896 44.926896 0 1 1 89.000478 0v614.384897A45.524214 45.524214 0 0 1 512.012587 716.782379z"></path></svg>