<svg viewBox="0 0 1024 1024" version="1.1" xmlns="http://www.w3.org/2000/svg" width="200" height="200"><path d="M384 704c-17.28 0-33.28 7.04-45.44 18.56-11.52 12.16-18.56 28.16-18.56 45.44s7.04 33.28 18.56 45.44c12.16 11.52 28.16 18.56 45.44 18.56s33.28-7.04 45.44-18.56c12.16-12.16 18.56-28.16 18.56-45.44s-6.4-33.28-18.56-45.44C417.28 711.04 401.28 704 384 704zM640 704c-17.28 0-33.28 7.04-45.44 18.56-11.52 12.16-18.56 28.16-18.56 45.44s7.04 33.28 18.56 45.44c12.16 11.52 28.16 18.56 45.44 18.56s33.28-7.04 45.44-18.56c12.16-12.16 18.56-28.16 18.56-45.44s-6.4-33.28-18.56-45.44c-12.16-11.52-28.16-18.56-45.44-18.56zM384 448c-17.28 0-33.28 7.04-45.44 18.56-11.52 12.16-18.56 28.16-18.56 45.44s7.04 33.28 18.56 45.44c12.16 11.52 28.16 18.56 45.44 18.56s33.28-7.04 45.44-18.56C441.6 545.28 448 529.28 448 512s-6.4-33.28-18.56-45.44C417.28 455.04 401.28 448 384 448zM640 448c-17.28 0-33.28 7.04-45.44 18.56-11.52 12.16-18.56 28.16-18.56 45.44s7.04 33.28 18.56 45.44c12.16 11.52 28.16 18.56 45.44 18.56s33.28-7.04 45.44-18.56c12.16-12.16 18.56-28.16 18.56-45.44s-6.4-33.28-18.56-45.44C673.28 455.04 657.28 448 640 448zM384 192c-17.28 0-33.28 7.04-45.44 18.56-11.52 12.16-18.56 28.16-18.56 45.44s7.04 33.28 18.56 45.44c12.16 11.52 28.16 18.56 45.44 18.56s33.28-7.04 45.44-18.56C441.6 289.28 448 273.28 448 256s-6.4-33.28-18.56-45.44C417.28 199.04 401.28 192 384 192zM640 320c17.28 0 33.28-7.04 45.44-18.56 12.16-12.16 18.56-28.16 18.56-45.44s-6.4-33.28-18.56-45.44C673.28 199.04 657.28 192 640 192s-33.28 7.04-45.44 18.56C583.04 222.72 576 238.72 576 256s7.04 33.28 18.56 45.44c12.16 11.52 28.16 18.56 45.44 18.56z"></path></svg>