<svg viewBox="0 0 1024 1024" version="1.1" xmlns="http://www.w3.org/2000/svg" width="200" height="200"><path d="M634.311111 0c-34.133333 0-59.733333 25.6-59.733333 59.733333s28.444444 59.733333 59.733333 59.733334c34.133333 0 59.733333-25.6 59.733333-59.733334 2.844444-34.133333-25.6-59.733333-59.733333-59.733333z m0 301.511111c-34.133333 0-59.733333 25.6-59.733333 59.733333s28.444444 59.733333 59.733333 59.733334c34.133333 0 59.733333-25.6 59.733333-59.733334 2.844444-34.133333-25.6-59.733333-59.733333-59.733333z m0 301.511111c-34.133333 0-59.733333 25.6-59.733333 59.733334s28.444444 59.733333 59.733333 59.733333c34.133333 0 59.733333-25.6 59.733333-59.733333 2.844444-34.133333-25.6-59.733333-59.733333-59.733334-31.288889 0 0 0 0 0z m0 301.511111c-34.133333 0-59.733333 25.6-59.733333 59.733334 0 34.133333 28.444444 59.733333 59.733333 59.733333 34.133333 0 59.733333-25.6 59.733333-59.733333 2.844444-34.133333-25.6-59.733333-59.733333-59.733334-31.288889 0 0 0 0 0zM372.622222 0C341.333333 0 312.888889 25.6 312.888889 59.733333s28.444444 59.733333 59.733333 59.733334c34.133333 0 59.733333-25.6 59.733334-59.733334 2.844444-34.133333-25.6-59.733333-59.733334-59.733333z m0 301.511111c-34.133333 0-59.733333 25.6-59.733333 59.733333s28.444444 59.733333 59.733333 59.733334c34.133333 0 59.733333-25.6 59.733334-59.733334 2.844444-34.133333-25.6-59.733333-59.733334-59.733333z m0 301.511111c-34.133333 0-59.733333 25.6-59.733333 59.733334s28.444444 59.733333 59.733333 59.733333c34.133333 0 59.733333-25.6 59.733334-59.733333 2.844444-34.133333-25.6-59.733333-59.733334-59.733334z m0 301.511111c-34.133333 0-59.733333 25.6-59.733333 59.733334 0 34.133333 28.444444 59.733333 59.733333 59.733333 34.133333 0 59.733333-25.6 59.733334-59.733333 2.844444-34.133333-25.6-59.733333-59.733334-59.733334z" fill="#515151"></path></svg>