<svg viewBox="0 0 1024 1024" version="1.1" xmlns="http://www.w3.org/2000/svg" xmlns:xlink="http://www.w3.org/1999/xlink" width="200" height="200"><path d="M898.048 259.072c-34.816-61.952-82.944-108.544-143.872-139.776S624.64 72.704 548.352 72.704c-98.304 0-182.272 22.016-251.392 66.56-69.12 44.032-122.368 108.544-159.744 191.488-30.72 68.096-46.08 139.776-46.08 214.528 0 67.584 12.8 130.048 38.912 188.416 20.48 46.08 51.2 86.528 92.16 121.856 40.448 35.328 89.6 61.44 147.456 79.36 57.856 17.408 119.808 26.112 187.904 21.504 74.752-5.12 91.648-12.288 153.6-23.04l-1.024-59.904c-182.784 51.712-297.984 6.144-359.936-19.456S240.64 786.944 207.872 732.672c-32.768-54.784-48.64-119.296-48.64-194.56 0-72.192 16.384-139.264 49.152-202.24s78.848-111.104 138.752-144.896c59.392-33.792 125.44-50.688 197.632-50.688 62.976 0 120.832 13.312 173.056 39.936 52.224 26.624 91.648 62.464 117.76 107.008 26.112 44.544 39.424 92.672 39.424 143.872 0 44.032-10.24 87.04-30.72 128-20.48 41.472-48.128 74.24-83.456 98.816-26.624 18.944-48.128 28.16-64 28.16-9.216 0-16.384-3.072-23.04-9.216-6.144-6.144-9.728-13.312-9.728-21.504 0-4.608 4.608-31.232 13.824-74.24l66.56-312.32h-82.432l-15.872 74.24c-17.408-28.672-38.4-48.64-62.976-62.464-24.064-13.824-49.664-20.48-76.8-20.48-34.816 0-71.168 12.8-108.544 37.376s-68.608 61.44-93.696 110.592c-25.088 49.152-37.888 98.304-37.888 146.944 0 39.936 8.192 76.288 24.064 109.568 16.384 33.28 37.376 57.856 62.976 73.728 26.112 15.872 52.224 24.064 79.872 24.064 25.088 0 49.664-7.168 74.752-20.992 24.576-13.824 47.104-32.768 67.072-55.808 2.048 18.944 4.608 32.256 8.704 39.424 6.144 11.776 15.872 21.504 28.672 27.648 12.8 6.656 30.208 9.728 51.712 9.728 66.56 0 127.488-31.232 183.808-93.184 62.976-69.12 94.208-148.48 94.208-238.08 0.512-60.928-14.336-118.784-44.032-172.032z m-295.424 296.96c-11.264 31.232-25.6 56.832-43.008 77.312-17.408 20.48-35.328 35.84-54.784 46.08-18.944 10.24-37.376 15.36-54.272 15.36-26.112 0-48.64-11.776-68.608-34.816-19.968-23.552-30.208-56.32-30.208-98.304 0-26.624 5.12-55.296 14.848-87.552 9.728-31.744 23.04-58.88 39.424-80.896s33.28-38.4 50.688-48.128c17.408-10.24 35.84-14.848 55.808-14.848 29.696 0 55.296 11.776 75.776 34.816 20.992 23.04 31.232 55.296 31.232 97.28 0 31.232-5.632 62.464-16.896 93.696z"></path></svg>