<svg t="1736473272091" class="icon" viewBox="0 0 1024 1024" version="1.1" xmlns="http://www.w3.org/2000/svg" p-id="13990" width="200" height="200"><path d="M887.552 546.10944c-28.16 0-54.21056 8.576-75.97056 23.168l-140.22144-153.6a237.55264 237.55264 0 0 0 79.54944-176.768C750.7712 107.02336 643.8912 0.14336 512 0 380.1088 0.14336 273.2288 107.02336 273.09056 238.91456c0 67.84 28.672 128.768 74.24 172.35456L203.52 564.41856a134.60992 134.60992 0 0 0-67.01056-18.304C61.12256 546.18112 0.03584 607.29856 0 682.68544 0 757.95456 61.25056 819.2 136.50944 819.2c75.38688-0.03584 136.50432-61.12256 136.576-136.51456 0-26.112-7.68-50.176-20.48-70.97344l151.10656-161.024a234.73152 234.73152 0 0 0 74.17856 23.68v281.41056a136.448 136.448 0 0 0-102.4 131.712c0 75.264 61.184 136.50944 136.50944 136.50944 75.3664-0.07168 136.44288-61.14816 136.50944-136.50944 0-63.42144-43.648-116.41856-102.4-131.712V474.368c24.00256-3.456 46.78144-10.17344 67.84-20.29056l152.38656 166.85056c-9.53856 18.688-15.36 39.424-15.36 61.75744 0 75.264 61.184 136.51456 136.576 136.51456 75.41248-2.82624 134.25152-66.2528 131.42528-141.66528-2.68288-71.44448-59.9808-128.7424-131.42528-131.42528z m-751.03744 204.8c-37.69856 1.13664-69.17632-28.50304-70.31808-66.19648S94.69952 615.53664 132.39296 614.4c1.39264-0.04096 2.7904-0.04096 4.18304 0 37.71392 0.01536 68.2752 30.60224 68.25984 68.31616-0.01536 37.69344-30.5664 68.24448-68.25984 68.25984l-0.06144-0.06656z m204.8-512c0.1024-94.21312 76.47232-170.55232 170.68544-170.61888 94.21312 0.07168 170.58304 76.41088 170.68544 170.624C682.61888 333.15328 606.23872 409.52832 512 409.6c-94.23872-0.07168-170.61888-76.44672-170.68544-170.69056z m238.976 648.576c-0.01536 37.71392-30.60736 68.2752-68.32128 68.25472-37.71392-0.01536-68.2752-30.60736-68.25472-68.32128 0.01536-37.71392 30.60224-68.2752 68.31616-68.25984 37.69344 0.01536 68.24448 30.5664 68.25984 68.25984v0.06656z m307.2-136.576c-37.67296-0.03584-68.21888-30.55104-68.29056-68.224 0-37.71392 30.57152-68.28544 68.29056-68.28544 37.71392 0 68.29056 30.57152 68.28544 68.29056 0 37.68832-30.53568 68.25472-68.224 68.28544l-0.06144-0.06656z" fill="#999" p-id="13991"></path></svg>
