<svg width="200px" height="200.00px" viewBox="0 0 1024 1024" version="1.1" xmlns="http://www.w3.org/2000/svg"><path d="M103.185067 510.634667c0 225.518933 182.784 408.302933 408.234666 408.302933 225.4848 0 408.2688-182.784 408.2688-408.2688S736.938667 102.4 511.453867 102.4C285.969067 102.4 103.185067 285.184 103.185067 510.634667z" fill="#85C2FF" /><path d="M605.7984 474.760533l-0.682667-1.570133c-0.1024-0.1024-0.1024-0.170667-0.2048-0.341333a35.6352 35.6352 0 1 0-63.3856 32.426666c9.898667 22.357333 5.563733 49.5616-12.6976 67.925334L433.186133 669.013333a60.928 60.928 0 0 1-86.084266 0 60.928 60.928 0 0 1 0-86.084266l35.6352-35.669334-0.238934-0.238933a35.601067 35.601067 0 1 0-49.5616-50.858667l-0.1024-0.1024-36.352 36.352a132.164267 132.164267 0 0 0 0 186.948267 132.164267 132.164267 0 0 0 186.948267 0l95.914667-95.914667a132.232533 132.232533 0 0 0 26.453333-148.6848z" fill="#FFFFFF" /><path d="M731.4432 292.317867a132.164267 132.164267 0 0 0-186.948267 0l-95.914666 95.914666a132.232533 132.232533 0 0 0-26.5216 148.616534l0.682666 1.536c0.1024 0.1024 0.1024 0.2048 0.170667 0.341333a35.6352 35.6352 0 1 0 63.3856-32.426667 61.303467 61.303467 0 0 1 12.6976-67.925333l95.744-95.709867a60.928 60.928 0 0 1 86.084267 0 60.928 60.928 0 0 1 0 86.084267l-35.6352 35.6352 0.238933 0.273067a35.601067 35.601067 0 1 0 49.595733 50.858666l0.068267 0.1024 36.352-36.352a132.3008 132.3008 0 0 0 0-186.948266z" fill="#FFFFFF" /></svg>