<svg viewBox="0 0 1024 1024" version="1.1" xmlns="http://www.w3.org/2000/svg" xmlns:xlink="http://www.w3.org/1999/xlink" width="200" height="200"><path d="M780.31 172.736L150.676 360.533 283.67 493.547h193.515a42.667 42.667 0 0 1 42.667 42.666v193.494L652.864 862.72 840.64 233.088 662.933 410.795l-60.33-60.352 177.706-177.707zM434.516 747.392V578.859H265.984a42.667 42.667 0 0 1-30.144-12.48L39.723 370.26c-22.827-22.826-12.992-61.824 17.984-71.04l859.84-256.448c32.49-9.706 62.762 20.566 53.077 53.078L714.197 955.69c-9.258 30.976-48.213 40.832-71.082 17.984L447.019 777.557a42.667 42.667 0 0 1-12.502-30.165z"></path></svg>