<svg xmlns="http://www.w3.org/2000/svg" viewBox="0 0 1024 1024" version="1.1"><path d="M858.68133186 201.64540279a634.66630773 634.66630773 0 0 1-188.89902459-42.34932557c-37.09150944-14.6262905-92.10739402-48.3241177-124.99264884-69.40318349a52.4825735 52.4825735 0 0 0-55.92405333 0c-32.98085243 21.12686459-87.94893821 54.87248938-125.08824523 69.45098229-59.93911395 23.56457927-123.7976909 37.90408059-188.89902458 42.39712437-25.52431199 1.48174833-45.31282224 20.69667901-45.26502466 43.8788715v265.18517017c0 136.65544268 77.5289011 263.60782423 205.19825742 336.02230318l90.72124207 51.62220233 65.34032529 37.04371064a52.57816989 52.57816989 0 0 0 51.33541314 0l65.29252771-37.04371064 90.76903965-51.62220233c127.9083479-72.31888255 205.67624059-199.41465808 205.6762406-336.16569837V245.47647792c0-23.1343949-19.78851146-42.30152799-45.26502465-43.83107513z m-114.09462855 208.30514927l-241.95517767 219.63335513c-9.08168397 8.22131402-21.41365499 12.85775299-34.22360795 12.85775179h-4.77983418a49.42347924 49.42347924 0 0 1-35.51416351-19.35832588L331.32228942 491.35111858c-15.39106406-19.83630905-10.18104551-47.27255495 11.71059264-61.18187069 21.84383935-14.00491213 52.05238791-9.22507916 67.39565318 10.61123111l1.43395074 1.86413511 64.04976973 86.99297184 200.22723047-181.77707213a51.95679152 51.95679152 0 0 1 68.39941954 1.62514353 41.05877125 41.05877125 0 0 1 0 60.46489471h0.04779759z" fill="#56606F" p-id="780"></path></svg>