<svg viewBox="0 0 1024 1024" version="1.1" xmlns="http://www.w3.org/2000/svg" xmlns:xlink="http://www.w3.org/1999/xlink" width="200" height="200"><path d="M512 0c282.8 0 512 229.2 512 512s-229.2 512-512 512S0 794.8 0 512 229.2 0 512 0z" fill="#FFE193"></path><path d="M512 64c247.4 0 448 200.6 448 448S759.4 960 512 960 64 759.4 64 512 264.6 64 512 64z" fill="#F7BC15"></path><path d="M769.5 255.6c-0.8-0.9-2.1-2.5-3.7-4.5-2.7-3.4-6.5-8.2-10.5-13.4-2-2.6-4-5.5-6-8.4-2-2.9-4-5.7-5.8-8.7-1.8-3-3.3-6-4.6-8.9-1.3-2.9-2.3-5.7-2.8-8.4 0 0-1.4-5.6-2.4-13.8-1.1-8.1-2.2-18.6-0.7-28.4 0 0 2.6 0.9 6.8 2.9 2.1 1 4.6 2.3 7.4 3.8 2.8 1.6 5.7 3.6 8.9 5.9 12.7 8.9 26.7 24.3 32.6 44.8 0 0 0.5 7.8-1.7 16.4-2.1 8.3-6.7 17.1-15.6 21.3 4.3 1.1 6.9 2 6.9 2-0.4 10-8 17.7-15.1 22.8-7.2 5.2-13.9 8-13.9 8-9.6 2.1-18.5 2.7-26.1 2.4-7.8-0.3-14.6-1.3-20.1-2.7-5.7-1.3-10.2-2.8-13.3-4.1-3-1.3-4.8-2.2-4.8-2.2 6-7.6 14-14.3 20.5-18.8s11.6-7 11.6-7c4.7-2.6 10.9-4.1 17.5-4.7 6.6-0.6 13.6 0 20.2 0.8 5.6 0.7 10.6 1.9 14.7 2.9z m55.7 75.7c-3.2 9.1-12.2 14.5-20.1 17.8-8.2 3.4-15.5 4.6-15.5 4.6-9.8-0.2-18.6-1.5-26-3.6-7.4-2-13.9-4.5-18.9-7.2-5.2-2.5-9.2-5-11.9-7-1.3-1-2.3-1.8-3-2.4-0.7-0.6-1.1-0.9-1.1-0.9 7.8-6.1 17.2-10.7 24.6-13.6 7.4-2.9 13-4.2 13-4.2 5.2-1.5 11.6-1.5 18.2-0.5 6.5 1 13.2 3.1 19.4 5.3 6.2 2.2 11.4 5 15.3 7.1 2.2 1.2 4 2.2 5 2.8-0.5-1-1.1-2.2-1.8-3.7-1.8-4-4.2-9.5-6.9-15.5-1.3-3-2.6-6.2-3.7-9.5-1.2-3.2-2.4-6.5-3.4-9.8-1-3.3-1.7-6.5-2.2-9.7-0.5-3.1-0.8-6-0.6-8.8 0 0 0.1-5.8 1.1-14 1-8.1 2.5-18.5 6.4-27.8 0 0 2.3 1.5 5.9 4.3 1.8 1.4 3.9 3.2 6.3 5.4 2.3 2.2 4.7 4.8 7.1 7.7 10.1 11.5 19.9 29.7 20.5 50.9 0 0-1.5 7.7-5.7 15.5-4.2 7.9-11.3 15.7-21.6 17.4 0.1 0.4-0.1 0.1-0.4-0.6z m41.5 82.9c-0.2-1.1-0.7-3.2-1.2-6.1-0.7-4.1-1.7-9.9-2.8-16.6-0.5-3.2-0.9-6.6-1.2-10.1-0.4-3.4-0.7-6.9-0.8-10.3-0.1-3.4-0.1-6.7 0.3-9.9 0.3-3.1 0.7-6.1 1.6-8.7 0 0 1.5-5.6 4.6-13.3 3-7.7 7.1-17.4 13.2-25.5 0 0 1.9 1.9 4.7 5.6 1.4 1.8 3 4.1 4.8 6.7 1.6 2.7 3.3 5.7 5 9.2 6.9 13.5 11.8 33.4 7.1 54.2 0 0-3.4 7.2-9.5 13.8-6.1 6.7-14.9 12.6-25.3 11.9-5.2 8.5-15.6 11.8-24.3 13.2-8.8 1.4-16.2 0.9-16.2 0.9-9.6-2.4-17.7-5.8-24.3-9.5-6.7-3.7-12.3-7.6-16.5-11.3-4.4-3.6-7.7-7-9.7-9.5-1.1-1.2-1.8-2.3-2.3-3-0.6-0.7-0.8-1.1-0.8-1.1 9-4.1 19.4-6.5 27.3-7.6 7.9-1.1 13.7-1.1 13.7-1.1 5.5-0.2 11.6 1.2 17.8 3.6 6.1 2.5 12.1 6 17.5 9.6 5.5 3.6 9.8 7.5 13.1 10.4 1.8 2.1 3.5 3.8 4.2 4.5z m-0.6 178.4c0.1-0.4 0.3-0.8 0.4-1.2 1.3-4.1 3.1-9.8 5.5-15.9s4.8-12.9 8.1-19c3.1-6.1 6.4-11.7 10.7-15.6 0 0 1-1 2.9-2.8 1.9-1.8 4.5-4.2 7.6-6.9 6.3-5.5 14.9-12.2 24.3-16.7 0 0 0.7 2.5 1.3 7 0.6 4.4 1.4 10.8 0.9 18.3-0.2 3.7-0.7 7.8-1.4 12-0.4 2.1-0.8 4.3-1.3 6.4-0.6 2.2-1.3 4.4-2.1 6.6-1.6 4.4-3.6 8.9-6 13.3-2.6 4.4-5.7 8.7-9.3 12.7 0 0-1.6 1.2-4.2 2.8-2.6 1.6-6.3 3.6-10.7 5.2-7.4 2.7-16.2 4.1-24.1 1.3 0.1 0.3 0.1 0.5 0.1 0.5-9 5.4-19.7 3.8-28.3 1.2-8.5-2.7-14.9-6.4-14.9-6.4-7.3-6.4-12.5-12.9-16.9-19.1-4.2-6.2-6.9-12.1-9.1-17.3-2.2-5.2-3.1-9.5-3.9-12.7-0.8-3.1-0.9-5-0.9-5 10.1 0.4 20.2 2.8 27.9 5.4 7.7 2.5 12.8 5.1 12.8 5.1 5 2.2 9.6 6.2 13.8 11.1 4.2 4.9 8.1 10.7 10.9 16.2 2.4 4.9 4.5 9.7 5.9 13.5zM840.5 678c-9.9 2.9-19.7-1.1-27.2-5.5-7.6-4.6-12.8-9.6-12.8-9.6-5.4-7.8-9-15.4-11.6-22.4-1.2-3.5-2.2-6.8-2.8-10-0.7-3.2-1.3-6.2-1.7-8.9-0.7-5.5-0.6-10-0.6-13.2 0.1-3.2 0.4-5.1 0.4-5.1 9.7 2.7 18.9 7.4 25.7 11.6 6.8 4.2 11.1 7.9 11.1 7.9 4.3 3.3 7.9 8.2 10.7 13.9 2.8 5.7 5.2 12.2 6.4 18.3 1.4 6.1 2.2 11.8 2.6 16.1 0.2 3 0.3 5.2 0.3 6.2 0.4-0.7 0.9-1.4 1.5-2.3 2.3-3.7 5.5-8.8 9.5-14.2 3.7-5.5 8-11.4 12.7-16.5 4.4-5.3 9.3-9.9 14.3-12.7 0 0 1.3-0.8 3.5-2.1s5.3-3.1 9-5c7.5-3.9 17.8-8.5 27.7-10.7v1.9c0 1.2-0.1 3-0.4 5.2-0.5 4.5-1.6 10.8-3.7 18-2.4 7.1-5.8 15.3-11.1 23.2-5.4 7.9-12.2 15.6-21.5 21.8 0 0-7.3 3.3-16.5 4.4-9.3 1.1-20.2-0.1-27.4-7.2 0-0.2 0.7-1.2 1.9-3.1zM191 330.8c-7.5-3-12.9-9.5-16.4-15.9-4.3-7.8-5.7-15.5-5.7-15.5 0.6-21.2 10.4-39.4 20.5-50.9 2.5-2.9 4.9-5.5 7.1-7.7 2.3-2.1 4.5-4 6.3-5.4 3.6-2.9 5.9-4.3 5.9-4.3 3.9 9.2 5.4 19.6 6.4 27.8s1.1 14 1.1 14c0.2 2.8-0.1 5.7-0.6 8.8-0.5 3.1-1.2 6.4-2.2 9.7-1 3.3-2.2 6.5-3.4 9.8-1.1 3.3-2.4 6.5-3.7 9.5-2.6 5.8-4.8 11.1-6.6 15 3.5-1.8 7.8-4 12.8-5.8 6.2-2.3 12.8-4.4 19.4-5.3 6.6-0.9 13-0.9 18.2 0.5 0 0 5.6 1.3 13 4.2 7.4 2.8 16.8 7.5 24.6 13.6 0 0-0.4 0.3-1.1 0.9-0.7 0.6-1.7 1.4-3 2.4-2.6 2-6.7 4.5-11.8 7-5 2.7-11.4 5.2-18.9 7.2-7.3 2.1-16.1 3.5-26 3.6 0 0-7.3-1.2-15.5-4.6-8.2-3.6-17.4-9.2-20.4-18.6zM158.1 415c-8.9-0.7-16.4-6-21.7-11.9-6.1-6.6-9.5-13.8-9.5-13.8-4.7-20.7 0.2-40.7 7.1-54.2 1.7-3.4 3.4-6.5 5-9.2 1.7-2.6 3.4-4.9 4.8-6.7 2.8-3.6 4.7-5.6 4.7-5.6 6.1 8.1 10.2 17.8 13.2 25.5 3 7.7 4.6 13.3 4.6 13.3 0.9 2.6 1.3 5.6 1.6 8.7 0.3 3.2 0.4 6.5 0.3 9.9-0.1 3.4-0.5 6.9-0.9 10.3-0.3 3.5-0.7 6.9-1.2 10.1-1.1 6.7-2.1 12.5-2.8 16.6-0.1 0.7-0.2 1.3-0.4 1.9 0.1-0.1 0.2-0.1 0.2-0.2 3.3-2.9 7.6-6.8 13.1-10.4 5.4-3.6 11.3-7.2 17.5-9.6 6.2-2.4 12.4-3.9 17.8-3.6 0 0 5.7 0 13.7 1.1 7.9 1.1 18.2 3.5 27.3 7.6 0 0-0.3 0.4-0.8 1.1-0.5 0.7-1.3 1.7-2.3 3-2.1 2.5-5.4 5.8-9.7 9.5-4.2 3.7-9.8 7.6-16.5 11.3-6.6 3.7-14.7 7.1-24.3 9.5 0 0-7.4 0.5-16.2-0.9-9-1.5-19.4-4.8-24.6-13.3z m79.1 344.1c-5.5 4.7-13 6.9-20 7.7-9.2 1.1-17.1-0.4-17.1-0.4-10.5-3.9-19.1-9.8-26.3-16.2-7.1-6.4-12.5-13.6-16.6-20-3.9-6.6-6.5-12.4-8.2-16.6-1.6-4.2-2.1-6.9-2.1-6.9 10.2-0.1 21.3 2 29.6 4.1 4.1 1 7.6 2 10.1 2.8 2.5 0.8 3.9 1.2 3.9 1.2 5.6 1.6 11.5 5 17.1 9.1 5.9 4 11.5 8.7 16.5 13.2 4.5 3.7 8.4 7.4 11.4 10.3-0.3-2.8-0.5-5.9-0.6-9.1-0.3-6.1 0.4-13.1 1.7-19.2 1.3-6.2 3.5-11.8 6.9-16 0 0 3.2-4.6 8.8-10.2 5.5-5.7 13.3-12.3 22-17.1 0 0 0.8 1.7 1.7 4.8 0.8 3.2 2 7.5 2.7 13 0.4 2.7 0.5 5.8 0.6 9 0.1 3.2 0.1 6.7-0.2 10.4-0.8 7.5-2.3 15.6-5.6 24.4 0 0-3.8 6.1-10.1 12.3-6.3 6.1-15 12.3-25.6 11.5-0.1-0.1-0.3-0.8-0.6-2.1z m79.1 58.6c-3.4 8.6-12 13.9-20.2 16.9-4.4 1.6-8.5 2.4-11.6 2.9-3.1 0.5-5.1 0.6-5.1 0.6-22.3-2.8-39.6-14.8-50.7-25.4-5.4-5.5-9.4-10.6-12.1-14.3-2.6-3.7-3.8-6.2-3.8-6.2 9.9-2.4 21.2-2.9 29.7-2.8 4.3 0 7.9 0.2 10.5 0.4 2.6 0.2 4.1 0.3 4.1 0.3 5.9 0.3 12.4 2.2 18.9 4.9 6.7 2.5 13.3 5.9 19.3 9 5.3 2.7 10.1 5.3 13.7 7.5-1.6-3.9-3.5-9-5.1-14.6-1.8-5.9-2.9-12.8-3.2-19-0.3-6.3 0.4-12.2 2.7-17.1 0 0 2-5.2 5.9-11.9 3.9-6.7 9.8-15 17.1-21.6 0 0 1.2 1.5 2.8 4.3 1.6 2.9 3.9 6.8 5.9 12 1 2.6 2 5.6 2.9 8.6 0.9 3.1 1.8 6.5 2.4 10.1 1.1 7.4 1.7 15.6 0.7 25 0 0-2.2 6.8-6.7 14.2-4 6.6-9.8 13.4-18.1 16.2z m-13.5-584.9s34.3 14.9 70.2-53.5c0.1 0-87.3 8.9-70.2 53.5z m419.4 0s-34.3 14.9-70.2-53.5c0 0 87.4 8.9 70.2 53.5zM485.5 888.4c2 9.7-3.1 18.9-9.4 25.6-6.1 6.5-13.1 10.5-13.1 10.5-10.5 3.8-21.1 4.7-31 4.5-9.8-0.3-18.8-2.3-26.4-4.5-7.5-2.5-13.5-5.2-17.7-7.3-2.1-1-3.7-2.1-4.7-2.7-1-0.7-1.6-1.1-1.6-1.1 7.6-6.5 17.4-12 25-15.6 3.8-1.9 7.1-3.3 9.5-4.3 2.4-1 3.8-1.6 3.8-1.6 5.3-2.4 12.1-3.5 19.1-4 7.1-0.7 14.6-0.8 21.5-0.5 6.9 0 13.1 0.3 17.6 0.6 4.6 0.3 7.4 0.4 7.4 0.4z m5.6-1.7s-0.5-0.4-1.6-1.1c-1-0.7-2.4-1.7-4.1-3.1-3.4-2.8-7.9-6.7-12.4-11.2-4.5-4.4-8.8-10-12.1-15.4-3.3-5.4-5.6-11-6-16.3 0 0-0.7-5.5-0.5-13.2 0.2-7.7 1.4-17.6 4.6-26.7 0 0 1.8 0.8 4.6 2.6 2.8 1.9 6.7 4.4 11.1 8 2.2 1.8 4.4 4 6.7 6.4 2.3 2.3 4.7 4.9 7 7.9 2.3 2.9 4.6 6.3 6.8 10 2.2 3.6 4.2 7.5 6.1 11.8 0 0 1.4 7 1 15.5-0.5 8.6-2.7 18.7-11.2 24.8z m-94.4-23c-0.5 9.9-7.8 17.6-15.5 22.7-3.9 2.6-7.7 4.3-10.6 5.5-2.9 1.2-4.9 1.7-4.9 1.7-22.4 2.4-42.2-5.4-55.6-13.1-6.6-4.1-11.8-8.2-15.3-11.2-1.8-1.5-3-2.8-3.9-3.7-0.8-0.9-1.3-1.4-1.3-1.4 9-4.6 19.9-7.7 28.2-9.5 4.2-0.9 7.7-1.5 10.3-2 2.6-0.4 4.1-0.7 4.1-0.7 5.8-1.1 12.6-0.6 19.6 0.5 7.1 0.9 14.4 2.7 21 4.4 6.7 1.6 12.6 3.3 16.9 4.7 4.3 1.2 7 2.1 7 2.1z m-6.5-3.2s-1.8-2-4.5-5.3c-2.6-3.4-6-8.3-9.2-13.7-3.2-5.3-6-11.7-7.9-17.7-1.8-6.1-2.6-11.9-1.7-17.2 0 0 0.7-5.5 2.8-12.9 2.1-7.4 5.8-16.8 11.2-24.9 0 0 1.5 1.2 3.8 3.5 2.3 2.5 5.5 5.7 8.7 10.3 3.2 4.7 6.8 10.2 9.8 17 2.9 7 5.6 14.8 6.9 24.1 0 0-0.4 7.1-2.9 15.3-2.6 8.2-7.3 17.5-17 21.5zM183.5 680.9c-7.2 7.1-18.1 8.3-27.4 7.2-9.2-1.1-16.5-4.4-16.5-4.4-9.2-6.2-16.1-13.9-21.4-21.8-5.3-7.9-8.7-16.1-11.1-23.2-2.1-7.3-3.2-13.6-3.7-18-0.3-2.2-0.3-4-0.3-5.2v-1.9c9.9 2.3 20.2 6.8 27.7 10.7 3.8 2 6.9 3.7 9 5 2.3 1.3 3.5 2.1 3.5 2.1 5.1 2.8 9.9 7.5 14.3 12.7 4.7 5.2 8.9 11.1 12.7 16.5 3.9 5.4 7.2 10.5 9.5 14.2 2.3 3.9 3.7 6.1 3.7 6.1z m7.3-3s0-2.6 0.3-6.8c0.5-4.3 1.3-10 2.6-16.1 1.2-6 3.7-12.6 6.4-18.3 2.8-5.7 6.4-10.6 10.7-13.9 0 0 4.3-3.7 11.1-7.9s16-8.9 25.6-11.6c0 0 0.4 1.9 0.4 5.1 0 3.2 0.1 7.8-0.6 13.2-0.3 2.7-0.9 5.8-1.7 8.9-0.7 3.1-1.6 6.5-2.8 10-2.6 7-6.1 14.6-11.6 22.4 0 0-5.2 5.1-12.8 9.6-7.5 4.6-17.5 8.6-27.6 5.4z m-35.1-79.8c-8.8 5.2-19.7 3.9-28.4 0.7-4.4-1.6-8.1-3.6-10.7-5.2-2.7-1.6-4.2-2.8-4.2-2.8-3.6-4.1-6.7-8.3-9.3-12.7-2.4-4.4-4.4-8.9-6-13.3-0.8-2.2-1.5-4.4-2.1-6.6-0.5-2.2-1-4.3-1.3-6.4-0.7-4.2-1.2-8.3-1.4-12-0.4-7.5 0.4-13.8 0.9-18.3 0.6-4.4 1.3-7 1.3-7 9.4 4.4 18 11.2 24.3 16.7 3.1 2.7 5.7 5.2 7.6 6.9 1.9 1.8 2.9 2.8 2.9 2.8 4.2 3.9 7.5 9.5 10.7 15.6 3.3 6.1 5.7 12.8 8.1 19 2.4 6.1 4.2 11.8 5.6 15.9 1.2 4.1 2 6.7 2 6.7z m2.2 2.5s0.7-2.6 2.1-6.6c1.4-4 3.8-9.4 6.6-15s6.6-11.4 10.9-16.2c4.2-4.9 8.9-8.9 13.8-11.1 0 0 5.1-2.6 12.8-5.1 7.6-2.6 17.8-5 27.9-5.4 0 0-0.1 1.9-0.9 5-0.8 3.2-1.7 7.5-3.9 12.7-2.3 5.2-4.9 11.1-9.2 17.3-4.4 6.3-9.5 12.7-16.9 19.1 0 0-6.4 3.7-14.9 6.4-8.6 2.7-19.3 4.3-28.3-1.1zM141 502c-9.9 3.1-20.1-0.7-27.7-5.8-3.8-2.5-7-5.3-9.3-7.5-2.2-2.2-3.4-3.7-3.4-3.7-4.8-9.5-7.7-19.4-8.3-28.7-0.4-4.7-0.5-9.2-0.2-13.5 0.4-4.3 1-8.3 1.7-12 1.3-7.4 3.6-13.4 5.4-17.6 1.8-4.2 3.1-6.5 3.1-6.5 8 6.4 14.5 15 19.3 21.7 4.9 6.8 7.8 11.9 7.8 11.9 1.5 2.4 2.7 5.1 3.7 8.1s2 6.2 2.8 9.5c0.7 3.3 1.3 6.7 1.8 10.2 0.4 3.4 1 6.8 1.4 10.1 0.7 6.5 1 12.4 1.5 16.7 0.4 4.4 0.4 7.1 0.4 7.1z m5.9-1s1.4-2.4 3.7-5.9c1.2-1.8 2.6-3.9 4.3-6.1 1.7-2.2 3.7-4.6 5.8-7 8.3-9.6 20.2-18.9 30.9-21 0 0 5.5-1.4 13.5-2.1 8.1-0.8 18.6-0.8 28.5 1.1 0 0-0.2 0.4-0.5 1.3-0.4 0.8-0.9 1.9-1.6 3.4-1.4 2.9-3.6 6.9-7 11.5-3.3 4.6-7.4 9.7-13.2 14.8-5.6 5.1-12.4 10.3-21.1 14.8 0 0-7.2 2.2-16.1 2.8-9.1 0.6-19.9-0.3-27.2-7.6z m100.7-244.4c-9.6-4-14.5-13.2-16.7-21.8-2.2-8.6-1.7-16.4-1.7-16.4 5.9-20.4 19.9-35.9 32.6-44.8 3.1-2.3 6.1-4.3 8.9-5.9 2.8-1.6 5.3-2.8 7.4-3.8 4.2-2 6.8-2.9 6.8-2.9 1.5 9.9 0.4 20.3-0.7 28.4-1.1 8.2-2.4 13.8-2.4 13.8-0.5 2.7-1.5 5.5-2.8 8.4-1.2 2.9-2.8 5.9-4.6 8.9-1.8 3-3.7 5.9-5.8 8.7-1.9 2.9-4 5.8-6 8.4-4.1 5.2-7.8 10-10.5 13.4-2.7 3.5-4.5 5.6-4.5 5.6z m9.1 1.5s2.7-0.9 6.9-2c4.3-1.1 10-2.6 16.6-3.4 6.6-0.8 13.5-1.4 20.2-0.8 6.7 0.6 12.8 2 17.5 4.7 0 0 5.1 2.5 11.6 7s14.5 11.1 20.5 18.8c0 0-1.8 0.9-4.8 2.2-3.1 1.3-7.6 2.8-13.3 4.1-5.5 1.4-12.4 2.5-20.2 2.7-7.6 0.4-16.5-0.3-26.1-2.4 0 0-6.8-2.8-13.9-8-7-5.2-14.6-12.8-15-22.9z m277.8 630.3s2.8-0.2 7.3-0.4c4.5-0.3 10.7-0.6 17.6-0.6 6.8-0.2 14.3-0.2 21.5 0.5 7.1 0.4 13.8 1.6 19.1 4 0 0 1.4 0.6 3.8 1.6s5.7 2.4 9.5 4.3c7.6 3.7 17.4 9.1 25 15.6 0 0-0.6 0.4-1.6 1.1-1.1 0.7-2.6 1.7-4.7 2.7-4.1 2.1-10.2 4.8-17.7 7.3-7.6 2.2-16.5 4.1-26.4 4.5-9.9 0.2-20.4-0.7-31-4.5 0 0-7-4-13.1-10.5-6.2-6.7-11.3-15.9-9.3-25.6z m7.9-1.7c-8.5-6.1-10.7-16.3-11.1-24.8-0.4-8.6 1-15.5 1-15.5 1.8-4.4 3.9-8.3 6.1-11.8 2.2-3.7 4.4-7 6.7-10s4.7-5.6 7-7.9c2.3-2.4 4.6-4.6 6.7-6.4 4.3-3.6 8.3-6.1 11.1-8 2.8-1.8 4.6-2.6 4.6-2.6 3.2 9.1 4.4 19 4.5 26.7 0.2 7.7-0.5 13.2-0.5 13.2-0.4 5.3-2.6 10.9-6 16.3-3.3 5.4-7.6 11-12.1 15.4-4.5 4.5-9 8.4-12.4 11.2-1.7 1.4-3.1 2.4-4.1 3.1-1 0.8-1.5 1.1-1.5 1.1z m87.6-23s2.7-0.9 7.1-2c4.3-1.4 10.2-3.1 16.9-4.7 6.6-1.7 13.8-3.5 21-4.4 7-1.1 13.8-1.6 19.6-0.5 0 0 1.5 0.3 4.1 0.7 2.5 0.4 6.1 1 10.3 2 8.3 1.8 19.2 4.9 28.2 9.5 0 0-0.5 0.5-1.3 1.4-0.9 0.9-2.1 2.2-3.9 3.7-3.5 3-8.7 7-15.3 11.2-13.5 7.7-33.2 15.5-55.6 13.1 0 0-2-0.5-4.9-1.7-2.9-1.2-6.7-2.9-10.6-5.5-7.8-5.2-15.1-12.9-15.6-22.8z m-2-3.2c-9.8-4-14.5-13.3-17-21.5s-3-15.3-3-15.3c1.4-9.3 4-17.1 6.9-24.1 3-6.8 6.5-12.3 9.8-17 3.3-4.6 6.5-7.8 8.7-10.3 2.3-2.4 3.8-3.5 3.8-3.5 5.4 8.1 9 17.4 11.2 24.9 2.2 7.4 2.8 12.9 2.8 12.9 1 5.2 0.1 11.1-1.7 17.2-1.8 6-4.6 12.4-7.9 17.7-3.2 5.4-6.6 10.3-9.2 13.7-2.5 3.3-4.4 5.3-4.4 5.3z m89.8-44.4s2.4-1.4 6.3-3.6c3.8-2.3 9.2-5.3 15.3-8.4 6-3.2 12.6-6.5 19.3-9 6.5-2.7 13-4.7 18.9-4.9 0 0 1.5-0.1 4.1-0.3 2.6-0.2 6.2-0.4 10.5-0.4 8.5-0.1 19.8 0.4 29.7 2.8 0 0-1.1 2.4-3.8 6.2-2.6 3.7-6.7 8.8-12.1 14.3-11.1 10.6-28.4 22.5-50.7 25.4 0 0-2-0.1-5.1-0.6-3.1-0.5-7.2-1.3-11.6-2.9-8.7-3.3-17.8-9.1-20.8-18.6z m-3.7 2.5c-10.5-1.6-17.4-9.6-22-17-4.5-7.4-6.7-14.2-6.7-14.2-1-9.4-0.4-17.6 0.7-25 0.6-3.7 1.4-7 2.3-10.1 0.9-3.1 1.8-6.1 2.9-8.6 2-5.2 4.3-9.1 5.9-12 1.6-2.8 2.9-4.3 2.9-4.3 7.3 6.6 13.1 14.9 17.1 21.6 3.9 6.7 5.9 11.9 5.9 11.9 2.2 4.9 3 10.8 2.7 17.1-0.3 6.3-1.4 13.1-3.2 19-1.7 6-3.8 11.5-5.5 15.4-1.7 3.9-3 6.2-3 6.2z m69.6-65.1s2-1.9 5.2-4.9c3.2-3.1 7.6-7.3 12.7-11.6 5-4.5 10.6-9.2 16.5-13.2 5.6-4.1 11.5-7.5 17.1-9.1 0 0 1.4-0.4 3.9-1.2 2.4-0.8 5.9-1.8 10.1-2.8 8.3-2 19.3-4.1 29.6-4.1 0 0-0.5 2.6-2.1 6.9-1.7 4.2-4.3 10.1-8.2 16.6-4.1 6.4-9.5 13.5-16.6 20-7.2 6.4-15.8 12.3-26.3 16.2 0 0-7.9 1.5-17.1 0.4-9.3-1-19.6-4.6-24.8-13.2z m-2.3 7.6c-10.6 0.8-19.3-5.4-25.6-11.5-6.2-6.2-10.1-12.3-10.1-12.3-3.3-8.8-4.8-17-5.6-24.4-0.3-3.7-0.4-7.2-0.2-10.4 0.1-3.2 0.3-6.3 0.6-9 0.7-5.5 1.9-9.8 2.7-13 0.9-3.1 1.7-4.8 1.7-4.8 8.7 4.8 16.5 11.5 22 17.1 5.5 5.6 8.8 10.2 8.8 10.2 3.4 4.2 5.6 9.8 6.9 16 1.3 6.1 2 13.1 1.7 19.2-0.2 6.2-0.9 12-1.5 16.2-0.8 4.1-1.4 6.7-1.4 6.7zM882.5 502s0.1-2.7 0.4-7c0.5-4.3 0.7-10.2 1.4-16.7 0.3-3.3 0.9-6.7 1.4-10.1 0.4-3.4 1-6.8 1.8-10.2 0.7-3.3 1.7-6.6 2.8-9.5 1-3 2.2-5.7 3.7-8.1 0 0 2.9-5.1 7.8-11.9 4.8-6.7 11.3-15.3 19.3-21.7 0 0 1.3 2.3 3.1 6.5s4.1 10.2 5.4 17.6c0.7 3.7 1.4 7.7 1.7 12 0.3 4.3 0.1 8.8-0.2 13.5-0.6 9.3-3.5 19.2-8.3 28.7 0 0-1.2 1.5-3.4 3.7s-5.4 4.9-9.3 7.5c-7.5 5-17.7 8.8-27.6 5.7z m-1.2-1c-7.3 7.3-18.1 8.2-27.1 7.6-9-0.7-16.1-2.8-16.1-2.8-8.8-4.5-15.6-9.7-21.1-14.8-5.8-5.1-9.9-10.2-13.2-14.8-3.4-4.5-5.7-8.6-7-11.5-0.7-1.5-1.2-2.7-1.6-3.4-0.4-0.8-0.5-1.3-0.5-1.3 9.8-1.9 20.4-1.8 28.5-1.1 8 0.8 13.5 2.1 13.5 2.1 10.6 2 22.5 11.3 30.9 21 2.1 2.4 4.1 4.7 5.8 7 1.7 2.2 3.1 4.3 4.3 6.1 2.3 3.6 3.6 5.9 3.6 5.9z" fill="#FFE193"></path><path d="M654.2 318L549.8 494.7h82.3v39h-95.8v53.8h95.8V627h-95.8v78.3H487V627h-99.4v-39.5H487v-53.8h-99.4v-39h84.8L369 318h55.6c48.3 87.8 77.6 143.4 88 166.9h1c3.5-9.7 13.2-29.2 28.9-58.6L601.7 318h52.5z" fill="#FFE193"></path></svg>