<svg viewBox="0 0 1024 1024" version="1.1" xmlns="http://www.w3.org/2000/svg" width="200" height="200"><path d="M649.788469 326.929862h31.2312l88.95772-89.021718 4.415887-37.759033A400.053749 400.053749 0 0 0 123.529955 395.344109a48.38276 48.38276 0 0 1 31.231199-1.91995l178.043438-29.311249s9.023769-15.039615 13.695649-14.07964a222.074309 222.074309 0 0 1 303.928212-23.103408h-0.639984z" fill="#EA4335"></path><path d="M896.822139 395.280111a401.013724 401.013724 0 0 0-120.892902-194.875006l-124.924799 124.924798a222.074309 222.074309 0 0 1 81.533911 176.123487v22.207431a111.165151 111.165151 0 1 1 0 222.394301H510.080049l-22.143432 22.399426v133.436581l22.143432 22.143433h222.394301a289.208589 289.208589 0 0 0 164.283791-528.754451" fill="#4285F4"></path><path d="M287.493753 922.818593h222.330303v-178.043438H287.493753c-15.871593 0-31.487193-3.391913-45.886824-9.983744l-31.2312 9.663752-89.661702 88.957721-7.8078 31.295198a287.672628 287.672628 0 0 0 174.587526 58.110511" fill="#34A853"></path><path d="M287.493753 345.297392a289.208589 289.208589 0 0 0-174.587526 518.450714l128.956695-128.956695a111.165151 111.165151 0 1 1 147.13223-147.13223l128.956695-128.956695a288.888597 288.888597 0 0 0-230.458094-113.405094" fill="#FBBC05"></path></svg>