<svg xmlns="http://www.w3.org/2000/svg" viewBox="0 0 1024 1024" version="1.1"><path d="M518.609455 777.914182a46.545455 46.545455 0 0 1 46.545454-46.545455h62.789818a46.545455 46.545455 0 0 1 46.545455 46.545455v12.893091h204.660363v-12.893091a46.545455 46.545455 0 0 1 46.545455-46.545455h46.685091V305.058909c0-14.754909-0.186182-21.317818-1.024-28.532364-3.630545-31.185455-19.409455-43.799273-89.367273-43.799272H204.567273v500.456727h16.244363a46.545455 46.545455 0 0 1 46.545455 46.545455v11.077818h251.205818v-12.893091z m46.545454 59.438545H220.858182v-57.623272H158.068364V186.181818h723.874909c136.983273 0 136.983273 68.887273 136.983272 118.877091v472.901818h-93.230545v59.392h-297.751273v-59.438545h-62.789818v59.438545zM0 186.181818h129.349818v651.636364h-64.698182V247.249455H0zM0 328.750545h46.545455v139.636364H0zM344.901818 362.682182h215.505455v46.545454H344.901818zM560.407273 607.045818v46.545455h-65.163637v-46.545455h65.163637z m-215.505455 0h215.505455v46.545455H344.901818v-46.545455zM262.050909 484.864h298.356364v46.545455H262.050909zM768 605.090909a116.363636 116.363636 0 1 0 0-232.727273 116.363636 116.363636 0 0 0 0 232.727273z m0 46.545455a162.909091 162.909091 0 1 1 0-325.818182 162.909091 162.909091 0 0 1 0 325.818182zM768 558.545455a69.818182 69.818182 0 1 1 0-139.636364 69.818182 69.818182 0 0 1 0 139.636364zM0 573.114182h46.545455v139.636363H0z"></path></svg>