<svg viewBox="0 0 1024 1024" version="1.1" xmlns="http://www.w3.org/2000/svg" xmlns:xlink="http://www.w3.org/1999/xlink" width="128" height="128"><path d="M512 51.2c254.5152 0 460.8 206.2848 460.8 460.8s-206.2848 460.8-460.8 460.8-460.8-206.2848-460.8-460.8 206.2848-460.8 460.8-460.8z" fill="#E60012"></path><path d="M690.2272 435.2c-26.88 18.5344-36.9664 47.2064-36.9664 75.8784 0 30.3616 11.776 57.344 38.6048 75.8784 26.88 20.3264 89.1392 26.9824 144.64 26.9824 27.5456 0 55.04-1.6896 82.3296-5.0688v-30.3616c-28.4672 3.3792-40.3456 5.0688-70.6048 6.7584-31.9488 1.6896-62.2592-3.3792-84.1216-16.8448-18.4832-13.4656-28.4672-26.9824-28.4672-57.344 0-21.9648 5.0176-40.448 21.8624-53.9136C779.4176 440.32 809.6768 435.2 845.0048 435.2c24.8832-0.0512 49.664 2.7648 73.8816 8.3968V411.648c-30.208-1.7408-47.104-1.7408-85.7088-1.7408-57.1904 0.0512-116.0704 6.7584-142.9504 25.2928z m-297.5744-21.9136V440.32c30.5664-4.6592 61.4912-6.912 92.416-6.7584 18.5344 0 45.4144 1.6896 55.5008 6.7584 7.5264 3.9424 12.0832 11.8784 11.776 20.3264a29.2864 29.2864 0 0 1-8.3968 20.3264 56.95488 56.95488 0 0 1-28.4672 10.1376c-18.3808 2.4064-36.9152 3.5328-55.4496 3.328h-42.1888v23.6544h45.312c26.88 0 48.8448 0 60.5696 3.3792 15.1552 3.3792 23.5008 6.7584 30.208 13.4656 6.8608 4.8128 6.8608 13.2096 6.8608 21.76 0 10.1376-5.0688 18.5344-18.432 25.2416-11.776 5.12-38.7072 6.7584-58.88 6.7584-30.2592-1.6896-62.208-3.3792-94.1568-6.7584v26.9824c33.5872 1.6896 85.76 5.0688 97.6384 5.0688 45.4144 0 97.6384-3.4304 122.7776-15.2064 15.3088-8.7552 25.2928-24.5248 26.6752-42.0864 0-8.448 0-18.5344-6.7072-25.2928-5.0176-8.3968-11.776-11.776-23.552-16.896-11.776-5.0688-18.4832-6.656-40.3456-10.0864 23.4496-6.8096 31.9488-10.1888 43.8272-16.896a36.5824 36.5824 0 0 0 18.4832-32.0512c0-13.4656-6.7072-25.2416-25.2416-33.6896-20.3264-8.448-73.9328-11.8272-109.312-11.8272-21.9136 0-65.5872 0-100.9152 3.328z m-97.6384-3.328v84.2752h-119.296V409.9584H105.1136v203.9808h70.6048v-96.1024h119.3984v96.1024h70.656V409.9584H295.0144z m0 0" fill="#FFFFFF"></path></svg>