<svg viewBox="0 0 1382 1024" version="1.1" xmlns="http://www.w3.org/2000/svg" width="200" height="200"><path d="M587.001106 0.138043a236.743057 236.743057 0 0 0-179.455379 83.9299c-70.263683 96.629819-19.187921 232.739822 19.187921 310.319763s210.791049 355.32165 217.141009 361.671609 12.837962 6.488002 12.837961 0 19.049879-413.437584 6.34996-510.757616A1387.742249 1387.742249 0 0 0 587.001106 0.138043z m-376.856296 187.185764c-12.837962 0-102.289566 96.629819-115.127527 180.973847s31.88784 148.671879 134.177406 219.625775C337.834215 665.365328 587.001106 800.785117 593.627151 794.849286c6.211917-12.976004-95.801564-193.259639-185.391211-329.645727S222.84473 187.323807 210.14481 187.323807z m31.887841 827.151254c76.613642 32.301968 197.953087-45.277972 229.840927-64.603937l89.589647-64.603936-434.558102 12.837962a331.992451 331.992451 0 0 0 115.127528 116.369911z m12.699919-355.32165C178.118927 620.225398 18.541683 529.807495 12.053681 529.807495s-31.88784 116.369911 19.187921 200.437854 147.015368 110.434079 191.603128 116.369911c51.213804 6.34996 345.106498 6.34996 345.106497 0-6.488002-6.626045-236.605015-148.809922-313.218657-187.461849zM970.345404 83.9299A237.295228 237.295228 0 0 0 791.580238 0.138043a1026.622809 1026.622809 0 0 0-70.263683 239.089781c-12.837962 96.629819 6.34996 510.757617 6.349959 510.757617 0 6.34996 6.211917 6.34996 12.699919 0s185.253168-291.269884 217.141009-362.22378 82.825559-207.063899 12.837962-303.693718z m402.532218 445.877595c-6.34996 0-165.651119 90.417902-242.816931 129.345916S823.468078 840.127258 817.118119 846.61526c0 6.34996 293.892693 6.34996 345.106497 0 44.725802-6.488002 140.527366-32.440011 191.603128-116.369911 44.725802-84.067943 19.187921-200.437854 19.187921-200.437854zM906.43168 949.871124c31.88784 19.464006 153.365328 96.629819 229.97897 64.603937a266.008088 266.008088 0 0 0 114.851443-122.857914l-434.42006-12.837961zM1283.840146 368.297654c-6.211917-84.067943-102.289566-180.973847-114.989485-180.973847s-121.339445 142.183877-204.441089 277.879752S778.604233 781.873281 785.092236 794.849286s255.516851-129.345915 364.018333-207.063899c102.289566-70.953896 140.665408-129.207873 134.177407-219.625775z" fill="#EA020A"></path></svg>