<svg viewBox="0 0 1024 1024" version="1.1" xmlns="http://www.w3.org/2000/svg" width="32" height="32" xmlns:xlink="http://www.w3.org/1999/xlink"><path d="M512 981.333333C251.733333 981.333333 42.666667 772.266667 42.666667 512S251.733333 42.666667 512 42.666667s469.333333 209.066667 469.333333 469.333333-209.066667 469.333333-469.333333 469.333333z m106.666667-605.866666c-21.333333-42.666667-59.733333-68.266667-106.666667-68.266667-34.133333 0-64 12.8-85.333333 34.133333-29.866667 51.2-42.666667 85.333333-42.666667 85.333334H341.333333c-68.266667 8.533333-128 59.733333-128 128s64 119.466667 128 128h341.333334c123.733333 0 128-128 128-128-8.533333-64-59.733333-128-128-128h-55.466667c0-25.6-4.266667-42.666667-8.533333-51.2 0 0-4.266667 0 0 0zM512 921.6c89.6 0 170.666667-25.6 234.666667-72.533333 25.6-46.933333 34.133333-64 51.2-149.333334-34.133333 29.866667-76.8 46.933333-128 46.933334H332.8s-46.933333-4.266667-119.466667-55.466667c-42.666667-25.6-72.533333-55.466667-106.666666-93.866667 42.666667 187.733333 209.066667 324.266667 405.333333 324.266667z m0-819.2c-226.133333 0-413.866667 183.466667-413.866667 409.6 17.066667 21.333333 21.333333 25.6 59.733334 59.733333 0-106.666667 55.466667-183.466667 187.733333-204.8 12.8-8.533333 55.466667-196.266667 328.533333-234.666666-51.2-21.333333-106.666667-29.866667-162.133333-29.866667z m234.666667 72.533333s-123.733333 4.266667-226.133334 72.533334c72.533333 4.266667 132.266667 51.2 153.6 115.2 102.4 4.266667 187.733333 85.333333 187.733334 192 0-12.8 0 136.533333-17.066667 192 46.933333-68.266667 76.8-149.333333 76.8-238.933334 0-136.533333-68.266667-260.266667-174.933333-332.8z" fill="#E5422C"></path></svg>