<svg xmlns="http://www.w3.org/2000/svg" xmlns:xlink="http://www.w3.org/1999/xlink" width="180" height="72"><path d="M4.39 59.70L4.39 9.28L10.16 9.28L10.16 30.73L25.84 30.73L25.84 9.28L31.61 9.28L31.61 59.70L25.84 59.70L25.84 36.21L10.16 36.21L10.16 59.70L4.39 59.70ZM62.47 42.89L68.52 42.89Q66.94 61.10 54.28 61.10L54.28 61.10Q46.86 61.10 42.82 53.40L42.82 53.40Q39.30 46.65 39.30 34.56L39.30 34.56Q39.30 22.22 43.21 14.98L43.21 14.98Q47.07 7.84 54.28 7.84L54.28 7.84Q65.85 7.84 68.10 23.70L68.10 23.70L62.19 23.70Q60.68 13.25 54.28 13.25L54.28 13.25Q45.49 13.25 45.49 34.56L45.49 34.56Q45.49 55.69 54.35 55.69L54.35 55.69Q61.84 55.69 62.47 42.89L62.47 42.89ZM75.30 45.21L81.35 45.21Q81.77 55.86 90.56 55.86L90.56 55.86Q93.73 55.86 95.84 54.28L95.84 54.28Q98.79 52.00 98.79 47.88L98.79 47.88Q98.79 43.45 95.10 40.08L95.10 40.08Q92.57 37.83 86.41 34.28L86.41 34.28Q76.68 28.55 76.68 20.60L76.68 20.60Q76.68 15.57 79.84 12.09L79.84 12.09Q83.67 7.84 90.07 7.84L90.07 7.84Q101.99 7.84 103.61 22.18L103.61 22.18L97.70 22.18Q97.45 18.88 96.33 16.91L96.33 16.91Q94.08 12.94 90.07 12.94L90.07 12.94Q85.92 12.94 83.88 15.75L83.88 15.75Q82.44 17.75 82.44 20.14L82.44 20.14Q82.44 25.84 91.72 31.25L91.72 31.25Q97.45 34.59 100.51 37.65L100.51 37.65Q104.63 41.66 104.63 47.81L104.63 47.81Q104.63 53.61 100.93 57.16L100.93 57.16Q97.00 61.14 90.74 61.14L90.74 61.14Q82.90 61.14 78.54 55.37L78.54 55.37Q75.52 51.36 75.30 45.21L75.30 45.21ZM126 7.84L126 7.84Q132.71 7.84 136.58 14.63L136.58 14.63Q140.70 21.83 140.70 34.49L140.70 34.49Q140.70 46.86 136.79 54L136.79 54Q132.93 61.14 126 61.14L126 61.14Q119.11 61.14 115.35 54.21L115.35 54.21Q111.30 46.83 111.30 34.42L111.30 34.42Q111.30 21.27 115.77 13.96L115.77 13.96Q119.53 7.84 126 7.84ZM126 13.11L126 13.11Q117.35 13.11 117.35 34.42L117.35 34.42Q117.35 55.86 126.07 55.86L126.07 55.86Q134.65 55.86 134.65 34.63L134.65 34.63Q134.65 13.11 126 13.11ZM149.03 59.70L149.03 9.28L161.65 9.28Q167.87 9.28 171.74 12.16L171.74 12.16Q176.84 16.10 176.84 23.48L176.84 23.48Q176.84 32.38 169.63 36.25L169.63 36.25Q166.22 38.11 161.79 38.11L161.79 38.11L154.79 38.11L154.79 59.70L149.03 59.70ZM161.19 14.77L154.79 14.77L154.79 32.63L161.19 32.63Q170.93 32.63 170.93 23.55L170.93 23.55Q170.93 18.25 166.61 16.00L166.61 16.00Q164.29 14.77 161.19 14.77L161.19 14.77Z"/></svg>
