<svg viewBox="0 0 1024 1024" version="1.1" xmlns="http://www.w3.org/2000/svg" xmlns:xlink="http://www.w3.org/1999/xlink" width="200" height="200"><path d="M512 0a512 512 0 1 0 512 512 513.536 513.536 0 0 0-512-512z m0 938.688A426.688 426.688 0 1 1 938.688 512 425.472 425.472 0 0 1 512 938.688z"></path><path d="M512.192 250.432a166.4 166.4 0 0 0-165.184 168.512 33.024 33.024 0 1 0 66.112 0 102.4 102.4 0 0 1 99.136-102.4 117.376 117.376 0 0 1 82.624 33.024 75.072 75.072 0 0 1 16.512 59.456c-3.328 29.76-19.84 39.68-49.536 56.192a129.088 129.088 0 0 0-82.624 125.568 33.024 33.024 0 1 0 66.112 0c0-39.68 16.512-49.536 49.536-69.376a142.144 142.144 0 0 0 82.624-105.728 135.616 135.616 0 0 0-33.024-112.32 179.2 179.2 0 0 0-132.288-52.928z m-42.944 475.776a42.944 42.944 0 1 0 42.944-42.944 42.944 42.944 0 0 0-42.944 43.008z"></path></svg>