<svg xmlns="http://www.w3.org/2000/svg" viewBox="0 0 1024 1024" version="1.1"><path d="M512 85.333333c-8.533333 0-21.333333 4.266667-29.866667 4.266667L401.066667 311.466667H469.333333c98.133333 0 51.2 106.666667 51.2 106.666666L426.666667 691.2H320l110.933333-320H379.733333l-110.933333 320H162.133333L366.933333 115.2C204.8 170.666667 85.333333 328.533333 85.333333 512c0 200.533333 136.533333 362.666667 320 413.866667l217.6-614.4h170.666667s89.6 0 64 76.8c-25.6 76.8-89.6 256-89.6 256s-8.533333 59.733333-68.266667 59.733333h-110.933333l-85.333333 230.4h8.533333c234.666667 0 426.666667-192 426.666667-426.666667C938.666667 277.333333 746.666667 85.333333 512 85.333333zM763.733333 362.666667h-46.933333s-8.533333 0-12.8 8.533333c-4.266667 8.533333-98.133333 281.6-98.133333 281.6h64L768 375.466667c-4.266667 0 4.266667-12.8-4.266667-12.8z"></path></svg>