<svg width="20px" height="20px" viewBox="0 0 20 20" version="1.1" xmlns="http://www.w3.org/2000/svg" xmlns:xlink="http://www.w3.org/1999/xlink"><title>icon_cloudsell</title><g id="页面-1" stroke="none" stroke-width="1" fill="none" fill-rule="evenodd"><g id="交互状态和切图" transform="translate(-126.000000, -100.000000)" fill="#B0B8CD" fill-rule="nonzero"><g id="编组-35" transform="translate(120.000000, 95.000000)"><g id="icon_cloudsell" transform="translate(6.000000, 5.000000)"><path d="M7.44796651,2.375 L9.625,4.70833333 L17.0269139,4.70833333 C17.5078641,4.70833333 17.8977273,5.05654444 17.8977273,5.48611111 L17.8977273,15.5972222 C17.8977273,16.0267889 17.5078641,16.375 17.0269139,16.375 L2.22308612,16.375 C1.74214895,16.375 1.35227273,16.0267889 1.35227273,15.5972222 L1.35227273,3.15277778 C1.35227273,2.72322278 1.74214895,2.375 2.22308612,2.375 L7.44796651,2.375 Z M9.625,7.10322222 C9.61516824,7.10322222 9.60538102,7.10341293 9.59564184,7.10379084 C9.57960457,7.104418 9.56319001,7.10559481 9.54682183,7.10731274 C9.52881021,7.10916434 9.51110654,7.1116698 9.49361446,7.11478654 C9.47891372,7.11745968 9.46423579,7.12053429 9.44964412,7.12405518 C9.42713247,7.12944128 9.40491405,7.13593688 9.38315168,7.14341342 C9.37247303,7.14706537 9.36119317,7.15122561 9.34999986,7.15566807 C9.32852407,7.1642752 9.30833897,7.17341751 9.28865788,7.18340936 C9.2783238,7.18852617 9.26708488,7.19456766 9.25597556,7.20091877 C9.23685213,7.21201596 9.21892666,7.22335067 9.20153985,7.23540748 L9.1695126,7.25879287 L9.1695126,7.25879287 L9.14061198,7.28248863 C9.1238491,7.29687996 9.10773426,7.31200478 9.09231724,7.3278133 L9.0848912,7.3355402 L6.91383857,9.62720687 L6.84408212,9.71256814 C6.63591847,10.0095631 6.67108912,10.4220939 6.94226535,10.6789977 L6.94226535,10.6789977 L7.02762662,10.7487541 C7.32462162,10.9569178 7.73715237,10.9217471 7.99405617,10.6505709 L7.99405617,10.6505709 L8.88027273,9.713 L8.881,13.1944444 L8.88779184,13.2954008 C8.93705697,13.6585478 9.2483418,13.9384444 9.625,13.9384444 C10.0358999,13.9384444 10.369,13.6053443 10.369,13.1944444 L10.369,13.1944444 L10.3682727,9.711 L11.2565111,10.6460892 L11.3380621,10.7202642 C11.6236276,10.9438498 12.0374414,10.9305546 12.3083328,10.6733505 C12.6063133,10.390426 12.6185187,9.91950943 12.3355941,9.62152888 L12.3355941,9.62152888 L10.1645415,7.33494207 L10.1529803,7.32303447 C10.1055524,7.27526554 10.0516862,7.23389742 9.99279188,7.20034021 C9.98408225,7.19525076 9.97483586,7.19023981 9.96550883,7.18543911 C9.94226616,7.17356446 9.91850874,7.16285316 9.89412869,7.15338981 C9.88781039,7.15092063 9.88147273,7.14856729 9.8751103,7.14630319 C9.85088319,7.13765136 9.82582226,7.13015468 9.80024587,7.12397942 C9.78547313,7.12047704 9.77116342,7.11748171 9.75679238,7.11491058 L9.72595639,7.11001407 L9.72595639,7.11001407 L9.70213241,7.10720315 C9.68616977,7.10555057 9.67016372,7.10441251 9.65414134,7.10378897 Z" id="形状结合"></path></g></g></g></g></svg>