<svg width="16px" height="16px" viewBox="0 0 16 16" version="1.1" xmlns="http://www.w3.org/2000/svg" xmlns:xlink="http://www.w3.org/1999/xlink"><title>icon_more</title><g id="2-表格" stroke="none" stroke-width="1" fill="none" fill-rule="evenodd"><g id="03表格" transform="translate(-1369.000000, -294.000000)" fill-rule="nonzero"><g id="编组-12" transform="translate(1361.000000, 290.000000)"><g id="icon_more" transform="translate(8.000000, 4.000000)"><rect id="矩形" fill="#000000" opacity="0" x="0" y="0" width="16" height="16"></rect><path d="M3.49941206,9.49840417 C2.67159416,9.49840417 1.99966403,8.82647405 1.99966403,7.99865614 C1.99966403,7.17083823 2.67159416,6.49890811 3.49941206,6.49890811 C4.32722997,6.49890811 4.99916009,7.17083823 4.99916009,7.99865614 C4.99916009,8.82647405 4.32722997,9.49840417 3.49941206,9.49840417 Z M7.99865614,9.49840417 C7.17083823,9.49840417 6.49890811,8.82647405 6.49890811,7.99865614 C6.49890811,7.17083823 7.17083823,6.49890811 7.99865614,6.49890811 C8.82647405,6.49890811 9.49840417,7.17083823 9.49840417,7.99865614 C9.49840417,8.82647405 8.82647405,9.49840417 7.99865614,9.49840417 Z M12.5005879,9.49840417 C11.67277,9.49840417 11.0008399,8.82647405 11.0008399,7.99865614 C11.0008399,7.17083823 11.67277,6.49890811 12.5005879,6.49890811 C13.3284058,6.49890811 14.000336,7.17083823 14.000336,7.99865614 C14.000336,8.82647405 13.3257181,9.49840417 12.5005879,9.49840417 Z" id="形状" fill="#4A4C4F"></path></g></g></g></g></svg>