<svg width="15px" height="14px" viewBox="0 0 15 14" version="1.1" xmlns="http://www.w3.org/2000/svg" xmlns:xlink="http://www.w3.org/1999/xlink"><title>icon_ open</title><g id="2-表格" stroke="none" stroke-width="1" fill="none" fill-rule="evenodd"><g id="03表格" transform="translate(-342.000000, -187.000000)"><g id="开机" transform="translate(333.000000, 178.000000)"><g id="icon_-open" transform="translate(9.618164, 9.000000)"><rect id="矩形" fill-opacity="0" fill="#FFFFFF" x="0" y="0" width="14" height="14"></rect><g id="开机" fill="#000000" fill-rule="nonzero"><rect id="矩形" opacity="0" x="1.38183594" y="1.37304688" width="10" height="10"></rect><path d="M7,14 C6.05553078,14 5.13916146,13.8139587 4.27586976,13.4481295 C3.44223907,13.0948074 2.69446922,12.5898381 2.05129349,11.9457286 C1.40811775,11.3016192 0.903880464,10.5527638 0.551070473,9.71792295 C0.185771632,8.853378 0,7.93567839 0,6.98983808 C0,6.04399777 0.185771632,5.12629816 0.551070473,4.26175321 C0.903880464,3.42691234 1.40811775,2.67805695 2.05129349,2.03394752 C2.30263158,1.78224456 2.71008029,1.78224456 2.96141838,2.03394752 C3.21275647,2.28565047 3.21275647,2.69369068 2.96141838,2.94539363 C1.88269402,4.02568398 1.28791258,5.46242323 1.28791258,6.98983808 C1.28791258,10.1431602 3.84968778,12.7102178 7,12.7102178 C10.1487511,12.7102178 12.7120874,10.1447236 12.7120874,6.98983808 C12.7120874,5.46242323 12.117306,4.02568398 11.0385816,2.94539363 C10.7872435,2.69369068 10.7872435,2.28565047 11.0385816,2.03394752 C11.2899197,1.78224456 11.6973684,1.78224456 11.9487065,2.03394752 C12.5918822,2.67805695 13.0961195,3.42691234 13.4489295,4.26175321 C13.8142284,5.12629816 14,6.04399777 14,6.98983808 C14,7.93567839 13.8142284,8.853378 13.4489295,9.71792295 C13.0961195,10.5527638 12.5918822,11.3016192 11.9487065,11.9457286 C11.3055308,12.5898381 10.5577609,13.0948074 9.72413024,13.4481295 C8.86083854,13.8155221 7.94446922,14 7,14 L7,14 Z M7,14 C6.05553078,14 5.13916146,13.8139587 4.27586976,13.4481295 C3.44223907,13.0948074 2.69446922,12.5898381 2.05129349,11.9457286 C1.40811775,11.3016192 0.903880464,10.5527638 0.551070473,9.71792295 C0.185771632,8.853378 0,7.93567839 0,6.98983808 C0,6.04399777 0.185771632,5.12629816 0.551070473,4.26175321 C0.903880464,3.42691234 1.40811775,2.67805695 2.05129349,2.03394752 C2.30263158,1.78224456 2.71008029,1.78224456 2.96141838,2.03394752 C3.21275647,2.28565047 3.21275647,2.69369068 2.96141838,2.94539363 C1.88269402,4.02568398 1.28791258,5.46242323 1.28791258,6.98983808 C1.28791258,10.1431602 3.84968778,12.7102178 7,12.7102178 C10.1487511,12.7102178 12.7120874,10.1447236 12.7120874,6.98983808 C12.7120874,5.46242323 12.117306,4.02568398 11.0385816,2.94539363 C10.7872435,2.69369068 10.7872435,2.28565047 11.0385816,2.03394752 C11.2899197,1.78224456 11.6973684,1.78224456 11.9487065,2.03394752 C12.5918822,2.67805695 13.0961195,3.42691234 13.4489295,4.26175321 C13.8142284,5.12629816 14,6.04399777 14,6.98983808 C14,7.93567839 13.8142284,8.853378 13.4489295,9.71792295 C13.0961195,10.5527638 12.5918822,11.3016192 11.9487065,11.9457286 C11.3055308,12.5898381 10.5577609,13.0948074 9.72413024,13.4481295 C8.86083854,13.8155221 7.94446922,14 7,14 L7,14 Z M6.99375558,8.00134003 C6.64250669,8.00134003 6.35526316,7.71367951 6.35526316,7.36192071 L6.35526316,0.639419319 C6.35526316,0.287660525 6.64250669,0 6.99375558,0 C7.34500446,0 7.63224799,0.287660525 7.63224799,0.639419319 L7.63224799,7.36192071 C7.63224799,7.71524288 7.34500446,8.00134003 6.99375558,8.00134003 L6.99375558,8.00134003 Z" id="形状"></path></g></g></g></g></g></svg>