<?xml version="1.0" encoding="UTF-8"?>
<svg width="20px" height="20px" viewBox="0 0 20 20" version="1.1" xmlns="http://www.w3.org/2000/svg" xmlns:xlink="http://www.w3.org/1999/xlink">
    <title>icon_monitor</title>
    <g id="页面-1" stroke="none" stroke-width="1" fill="none" fill-rule="evenodd">
        <g id="交互状态和切图" transform="translate(-75.000000, -100.000000)">
            <g id="icon_monitor" transform="translate(70.000000, 95.000000)">
                <g transform="translate(5.000000, 5.000000)">
                    <rect id="矩形" fill="#B0B8CD" x="1" y="2" width="18" height="13" rx="2"></rect>
                    <path d="M7.375,8.92954087 C7.7821885,8.92954087 8.11821054,9.23424072 8.16749684,9.62807113 L8.17372,9.72826087 L8.17372,11.3224638 C8.17372,11.7635846 7.81612088,12.1211838 7.375,12.1211838 C6.9678115,12.1211838 6.63178946,11.8164839 6.58250316,11.4226535 L6.57628,11.3224638 L6.57628,9.72826087 C6.57628,9.28713999 6.93387912,8.92954087 7.375,8.92954087 Z" id="路径" fill="#FFFFFF" fill-rule="nonzero"></path>
                    <path d="M10,13.3135988 C10.4071885,13.3135988 10.7432105,13.6182987 10.7924968,14.0121291 L10.79872,14.1123188 L10.79872,16.5036232 C10.79872,16.9447441 10.4411209,17.3023432 10,17.3023432 C9.5928115,17.3023432 9.25678946,16.9976433 9.20750316,16.6038129 L9.20128,16.5036232 L9.20128,14.1123188 C9.20128,13.671198 9.55887912,13.3135988 10,13.3135988 Z" id="路径" fill="#B0B8CD" fill-rule="nonzero"></path>
                    <path d="M10.625,7.33533797 C11.0321885,7.33533797 11.3682105,7.64003782 11.4174968,8.03386823 L11.42372,8.13405797 L11.42372,11.3224638 C11.42372,11.7635846 11.0661209,12.1211838 10.625,12.1211838 C10.2178115,12.1211838 9.88178946,11.8164839 9.83250316,11.4226535 L9.82628,11.3224638 L9.82628,8.13405797 C9.82628,7.6929371 10.1838791,7.33533797 10.625,7.33533797 Z" id="路径" fill="#FFFFFF" fill-rule="nonzero"></path>
                    <path d="M13.875,5.74113507 C14.2821885,5.74113507 14.6182105,6.04583492 14.6674968,6.43966533 L14.67372,6.53985507 L14.67372,11.3224638 C14.67372,11.7635846 14.3161209,12.1211838 13.875,12.1211838 C13.4678115,12.1211838 13.1317895,11.8164839 13.0825032,11.4226535 L13.07628,11.3224638 L13.07628,6.53985507 C13.07628,6.0987342 13.4338791,5.74113507 13.875,5.74113507 Z" id="路径" fill="#FFFFFF" fill-rule="nonzero"></path>
                    <path d="M14.875,16.5020046 C15.3161209,16.5020046 15.67372,16.8596038 15.67372,17.3007246 C15.67372,17.7079131 15.3690202,18.0439352 14.9751897,18.0932215 L14.875,18.0994446 L5.125,18.0994446 C4.68387912,18.0994446 4.32628,17.7418455 4.32628,17.3007246 C4.32628,16.8935361 4.63097985,16.5575141 5.02481026,16.5082278 L5.125,16.5020046 L14.875,16.5020046 Z" id="路径" fill="#B0B8CD" fill-rule="nonzero"></path>
                    <rect id="矩形" fill-opacity="0" fill="#D8D8D8" x="0" y="0" width="20" height="20"></rect>
                </g>
            </g>
        </g>
    </g>
</svg>