<svg width="16px" height="16px" viewBox="0 0 16 16" version="1.1" xmlns="http://www.w3.org/2000/svg" xmlns:xlink="http://www.w3.org/1999/xlink"><title>icon_monitor</title><g id="2-表格" stroke="none" stroke-width="1" fill="none" fill-rule="evenodd"><g id="03表格" transform="translate(-927.000000, -299.000000)" fill="#000000" fill-rule="nonzero"><g id="icon_monitor" transform="translate(927.000000, 299.000000)"><rect id="矩形" opacity="0" x="0" y="0" width="16" height="16"></rect><path d="M13.371875,2.3296875 L2.659375,2.3296875 C2.0359375,2.3296875 1.53125,2.834375 1.53125,3.4578125 L1.53125,10.50625 C1.53125,11.1296875 2.0359375,11.634375 2.659375,11.634375 L13.3734375,11.634375 C13.996875,11.634375 14.5015625,11.1296875 14.5015625,10.50625 L14.5015625,3.4578125 C14.5,2.834375 13.9953125,2.3296875 13.371875,2.3296875 L13.371875,2.3296875 Z M12.2203125,7.7171875 L11.075,7.7171875 L9.809375,9.9078125 L9.278125,9.9203125 L9.0328125,9.43125 L7.071875,6.246875 L6.2984375,7.4125 C6.225,7.590625 6.05,7.715625 5.8453125,7.715625 L4.375,7.715625 C4.1046875,7.715625 3.884375,7.496875 3.884375,7.2265625 C3.884375,6.95625 4.103125,6.7375 4.375,6.7375 L5.378125,6.7375 L6.7859375,4.303125 L7.3171875,4.290625 L7.8078125,5.2703125 L9.4390625,8.1015625 L10.21875,6.75 L12.2203125,6.7375 C12.490625,6.7375 12.7109375,6.95625 12.7109375,7.2265625 C12.7109375,7.496875 12.490625,7.7171875 12.2203125,7.7171875 Z" id="形状"></path><path d="M5.50258861,13 L10.4974114,13 C10.8324705,13 11,13.1971875 11,13.5915625 L11,13.5976563 C11,13.9920313 10.8324705,14.1892188 10.4974114,14.1892188 L5.50258861,14.1892188 C5.16752954,14.1892188 5,13.9920313 5,13.5976563 L5,13.5915625 C5,13.1971875 5.16752954,13 5.50258861,13 Z" id="路径"></path></g></g></g></svg>