<svg width="150px" height="150px" viewBox="0 0 150 150" version="1.1" xmlns="http://www.w3.org/2000/svg" xmlns:xlink="http://www.w3.org/1999/xlink"><title>icon_bare metal</title><defs><linearGradient x1="108.679884%" y1="60.330915%" x2="0%" y2="28.9186892%" id="linearGradient-1"><stop stop-color="#D5DFF5" offset="0%"></stop><stop stop-color="#3D7BBC" offset="100%"></stop></linearGradient><linearGradient x1="8.94097305%" y1="50%" x2="181.485769%" y2="55.2830422%" id="linearGradient-2"><stop stop-color="#ACB8ED" offset="0%"></stop><stop stop-color="#FEFEFF" stop-opacity="0.00402947337" offset="99.5970527%"></stop><stop stop-color="#FFFFFF" stop-opacity="0" offset="100%"></stop></linearGradient><radialGradient cx="13.2648784%" cy="50%" fx="13.2648784%" fy="50%" r="87.7555348%" gradientTransform="translate(0.132649,0.500000),scale(0.988372,1.000000),translate(-0.132649,-0.500000)" id="radialGradient-3"><stop stop-color="#ECDEF8" offset="0%"></stop><stop stop-color="#ABC4F1" offset="100%"></stop></radialGradient><radialGradient cx="13.2648784%" cy="50%" fx="13.2648784%" fy="50%" r="87.7555348%" gradientTransform="translate(0.132649,0.500000),scale(0.988372,1.000000),translate(-0.132649,-0.500000)" id="radialGradient-4"><stop stop-color="#ECDEF8" offset="0%"></stop><stop stop-color="#ABC4F1" offset="100%"></stop></radialGradient><radialGradient cx="13.2648784%" cy="50%" fx="13.2648784%" fy="50%" r="87.7555348%" gradientTransform="translate(0.132649,0.500000),scale(0.988372,1.000000),translate(-0.132649,-0.500000)" id="radialGradient-5"><stop stop-color="#ECDEF8" offset="0%"></stop><stop stop-color="#ABC4F1" offset="100%"></stop></radialGradient></defs><g id="2-表格" stroke="none" stroke-width="1" fill="none" fill-rule="evenodd"><g id="02广电运通框架-管理员角色" transform="translate(-389.000000, -132.000000)"><g id="01-1虚拟机数量" transform="translate(375.000000, 80.000000)"><g id="icon_bare-metal" transform="translate(14.000000, 52.000000)"><g id="编组-5备份" transform="translate(34.385333, 56.112805)"><g id="编组-74" transform="translate(0.000000, 0.000000)"><path d="M87.9226891,41.8232721 L46.6813174,65.474869 C46.0576293,65.8363563 45.2433699,66.0084931 44.4291106,66.0084931 C43.6148512,66.0084931 42.8092541,65.8363563 42.1855661,65.4834759 L0.935532061,41.8232721 C0.31184402,41.4617848 0,40.9970154 0,40.532246 C0,40.0588698 0.31184402,39.5941005 0.935532061,39.24122 L7.48425649,35.4886377 L42.1769037,15.5810162 C43.4156175,14.8666485 45.4339413,14.8666485 46.6813174,15.5810162 L87.9226891,39.24122 C89.1614028,39.9469809 89.1614028,41.1089043 87.9226891,41.8232721" id="Fill-41" fill="#DCEEFF"></path><path d="M44.4291972,56.6785062 L44.4291972,66.008321 C43.6149378,66.008321 42.8093407,65.8361842 42.1856527,65.4833037 L0.935618684,41.8230999 C0.311930644,41.4616126 8.66233383e-05,40.9968433 8.66233383e-05,40.5320739 L8.66233383e-05,32.4502509 C8.66233383e-05,32.1145842 0.164670967,31.7703106 0.493839656,31.477678 L7.48434311,35.4884655 L44.4291972,56.6785062 Z" id="Fill-43" fill="#C8E2FF"></path><path d="M44.4291972,56.6785062 L44.4291972,66.008321 C45.2434566,66.008321 46.0490536,65.8361842 46.6727417,65.4833037 L87.9227757,41.8230999 C88.5464637,41.4616126 88.8583077,40.9968433 88.8583077,40.5320739 L88.8583077,32.4502509 C88.8583077,32.1145842 88.6937234,31.7703106 88.3645547,31.477678 L81.3740513,35.4884655 L44.4291972,56.6785062 Z" id="Fill-45" fill="#ACC9F0"></path><path d="M87.9226891,33.741363 L46.6813174,57.4015668 C46.0576293,57.7630541 45.2433699,57.9351909 44.4291106,57.9351909 C43.6148512,57.9351909 42.8005918,57.7630541 42.1769037,57.4015668 L0.935532061,33.741363 C0.31184402,33.3884826 0,32.9237132 0,32.450337 C0,32.1146702 0.164584344,31.7703966 0.493753032,31.4777641 C0.615025707,31.3658751 0.762285383,31.2539862 0.935532061,31.159311 L42.1769037,7.50771402 C43.4156175,6.79334628 45.4339413,6.79334628 46.6813174,7.50771402 L87.9226891,31.159311 C89.1614028,31.8736787 89.1614028,33.0356021 87.9226891,33.741363" id="Fill-47" fill="#DCEEFF"></path><path d="M44.4257323,6.97185215 C43.6106066,6.97185215 42.7963472,7.15087442 42.1769904,7.50805829 L0.935618684,31.1596552 C0.762372006,31.2534698 0.61511233,31.3662194 0.493839656,31.4781083 C0.164670967,31.7698802 8.66233388e-05,32.1141538 8.66233388e-05,32.4506813 C8.66233388e-05,32.9231968 0.311930644,33.3879662 0.935618684,33.7417073 L42.1769904,57.4019111 C42.8006784,57.7633984 43.6149378,57.9346745 44.4291972,57.9346745 C45.2434566,57.9346745 46.057716,57.7633984 46.681404,57.4019111 L87.9227757,33.7417073 C89.1614894,33.0359464 89.1614894,31.874023 87.9227757,31.1596552 L46.681404,7.50805829 C46.057716,7.15087442 45.2408579,6.97185215 44.4257323,6.97185215 M44.4257323,7.83253617 C45.1169865,7.83253617 45.7813875,7.98573792 46.2482873,8.25341066 L87.4879265,31.9032862 C87.8560757,32.1158752 87.9860107,32.3327676 87.9860107,32.454124 C87.9860107,32.5737591 87.8560757,32.7872087 87.489659,32.9954943 L46.2456886,56.6582801 C45.7883174,56.9225101 45.1265151,57.0739905 44.4291972,57.0739905 C43.7318793,57.0739905 43.070077,56.9225101 42.6101071,56.6565587 L1.36440421,32.9929122 C1.05689136,32.8199147 0.866320013,32.6116292 0.866320013,32.4506813 C0.866320013,32.3568667 0.942548551,32.2337889 1.08201213,32.1089897 C1.16776923,32.0306675 1.25872374,31.9652555 1.36873538,31.9050076 L42.6118395,8.25168929 C43.0735419,7.98573792 43.7353442,7.83253617 44.4257323,7.83253617" id="Fill-49" fill="#FFFFFF"></path><path d="M42.926802,13.1298742 L10.7410342,31.5932678 C9.91204881,32.0683654 9.91204881,32.8395383 10.7410342,33.3146359 L42.926802,51.7780295 C43.7566536,52.2539878 45.0993153,52.2539878 45.9283007,51.7780295 L78.1140685,33.3146359 C78.9421876,32.8395383 78.9421876,32.0683654 78.1140685,31.5932678 L45.9274345,13.1298742 C45.0993153,12.6539159 43.7557873,12.6539159 42.926802,13.1298742" id="Fill-51" fill="url(#linearGradient-1)"></path><path d="M78.113722,31.59344 L45.9279542,13.1300463 C45.5130284,12.8916369 44.9699001,12.7728625 44.4267717,12.7728625 L44.4267717,14.288527 L77.8547182,33.4628457 L78.113722,33.314808 C78.9427074,32.8397104 78.9427074,32.0685376 78.113722,31.59344" id="Fill-53" fill="#6B9AD1"></path><path d="M44.4274647,12.7731207 C43.8843364,12.7731207 43.341208,12.8918951 42.9271485,13.1303045 L10.7405144,31.5936982 C9.9123953,32.0687958 9.9123953,32.839108 10.7405144,33.3150662 L11.0003844,33.4631039 L44.4274647,14.2879245 L44.4274647,12.7731207 Z" id="Fill-55" fill="#6B9AD1"></path><path d="M72.5753722,4.19485515 C72.5641112,4.17678078 72.6126203,4.35408169 72.5771047,4.47027403 C72.5615125,4.62089374 72.4229152,4.64241084 72.2843178,4.73364334 C71.9941296,4.89717331 71.5809363,5.13214005 71.0845846,5.41358372 C70.0936136,5.97819244 68.7656778,6.71924138 67.426481,7.4404946 C66.0820867,8.15572302 64.7489536,8.88730444 63.7250657,9.3959687 C62.7107064,9.92012527 62.0229171,10.2506279 62.0229171,10.2506279 C62.0229171,10.2506279 62.6544012,9.82458934 63.618519,9.21350368 C64.5739744,8.58692571 65.8785219,7.80456394 67.1726746,7.00498848 C68.4711584,6.2122985 69.7809033,5.43940424 70.7684094,4.86877074 C71.2612962,4.58216296 71.672757,4.34375348 71.9603465,4.17678078 C72.1093387,4.10190127 72.1968282,3.99345508 72.3362918,4.05542433 C72.455832,4.08296622 72.5866333,4.21292951 72.5753722,4.19485515" id="Fill-75" fill="#FFFFFF"></path><path d="M37.3816956,0.157816737 C37.3704345,0.139742373 37.4189436,0.317043281 37.383428,0.433235624 C37.3678358,0.583855328 37.2292385,0.605372429 37.0906412,0.696604935 C36.800453,0.8601349 36.3872596,1.09510164 35.8909079,1.37654531 C34.8999369,1.94115403 33.5720011,2.68220298 32.2319381,3.40345619 C30.8884101,4.11868461 29.5544107,4.85026603 28.531389,5.35893029 C27.5161635,5.88308686 26.8292404,6.21358952 26.8292404,6.21358952 C26.8292404,6.21358952 27.4607246,5.78755093 28.4248423,5.17646527 C29.3802978,4.54988731 30.6848452,3.76752553 31.9789979,2.96795007 C33.2774818,2.17526009 34.5872267,1.40236583 35.5747327,0.831732327 C36.0676195,0.545124547 36.4790804,0.306715073 36.7666699,0.139742373 C36.915662,0.0648628626 37.0031516,-0.0435833243 37.1426152,0.0183859254 C37.2621554,0.0459278141 37.3929566,0.175891102 37.3816956,0.157816737" id="Fill-85" fill="#FFFFFF"></path></g></g><rect id="矩形" opacity="0" x="0" y="0" width="150" height="150"></rect><g id="编组-3" transform="translate(9.105882, 72.000000)"><polyline id="路径" stroke="url(#linearGradient-2)" stroke-width="1.046875" points="5.47829076 36.2180431 18.4232151 29.6246673 69.8117647 59.431824 133.970276 21.6151374 102.285164 1.6002127"></polyline><ellipse id="椭圆形备份-6" fill="url(#radialGradient-3)" fill-rule="nonzero" cx="4.04705882" cy="37" rx="4.04705882" ry="4"></ellipse><ellipse id="椭圆形备份-7" fill="url(#radialGradient-4)" fill-rule="nonzero" cx="69.8117647" cy="58" rx="3.03529412" ry="3"></ellipse><ellipse id="椭圆形备份-9" fill="url(#radialGradient-5)" fill-rule="nonzero" cx="103.705882" cy="2.5" rx="2.52941176" ry="2.5"></ellipse></g><g id="box_gear" transform="translate(46.193382, 16.298527)"><path d="M64.7644059,18.5681985 C64.7670266,18.5982715 64.7670266,18.6285107 64.7644059,18.6585837 C64.7663714,18.6823206 64.7663714,18.7062037 64.7644059,18.7299405 C64.7663714,18.7584436 64.7663714,18.7870655 64.7644059,18.8155686 L64.7354502,18.8869253 C64.7229201,18.9163884 64.70841,18.9449946 64.6920165,18.9725534 C64.6809869,18.9957415 64.6680757,19.0180138 64.6534088,19.0391531 L64.5858454,19.1390525 C64.5617155,19.1675952 64.5375857,19.2008951 64.50863,19.2294378 L64.50863,19.2532233 L64.383155,19.3673941 C64.356522,19.3952299 64.3274539,19.4206995 64.2962877,19.443508 L64.2142463,19.5053505 C64.1852905,19.5291361 64.1466828,19.5481646 64.1129011,19.5719502 L64.001904,19.6433069 L34.6117973,36.4787434 C34.5241893,36.5278667 34.4339755,36.5723301 34.3415434,36.6119427 L34.2595021,36.6499996 L34.0326819,36.7308706 L33.9506405,36.7594133 C33.9023809,36.7594133 33.8492953,36.787956 33.8010357,36.8022274 L33.6852126,36.8307701 L33.5259559,36.8640699 L33.4197847,36.8878555 C33.3136136,36.8878555 33.2026165,36.9211553 33.0916193,36.9306695 L32.9902741,36.9306695 L32.7972357,36.9306695 L32.3339434,36.9306695 L32.1891645,36.9306695 L32.0540376,36.9306695 L31.9092587,36.9306695 L31.7789578,36.9306695 L31.6293529,36.9068839 L31.5087039,36.9068839 L31.3301433,36.8593128 L31.2336241,36.8355272 C31.1287547,36.8063974 31.0256369,36.7714563 30.9247625,36.7308706 L30.7799837,36.6737852 L30.7027683,36.6404854 L30.490426,36.5310717 L0.887976952,19.6433069 C0.46855728,19.4473783 0.161623302,19.0748679 0.0530855786,18.630041 C0.0483155783,18.5778184 0.0483155783,18.5252788 0.0530855786,18.4730562 L0,56.4776626 C0.0483096359,56.9901912 0.372867674,57.4373633 0.849369258,57.6479134 L30.4325144,74.4833499 L30.6448568,74.5927636 L30.7220721,74.6260634 L30.8475471,74.6831488 L30.8475471,74.6831488 C30.9485221,74.7221233 31.0516384,74.7554757 31.1564087,74.7830482 L31.1805385,74.7830482 L31.2529279,74.7830482 L31.4314885,74.8258623 L31.4797481,74.8258623 L31.5521376,74.8258623 L31.7017424,74.8496479 L31.7644799,74.8496479 L31.8320433,74.8496479 L31.9768222,74.8496479 L32.0443856,74.8496479 L32.6717607,74.8496479 L32.8647991,74.8496479 L32.9420145,74.8496479 L32.9420145,74.8496479 L33.2701799,74.8020767 L33.2701799,74.8020767 L33.3618732,74.8020767 L33.5211299,74.7687769 L33.636953,74.7354771 L33.7865578,74.6974201 L33.8155136,74.6974201 L33.8685992,74.6974201 L34.0954194,74.611792 L34.1774607,74.5784922 C34.2699639,74.5372644 34.3601761,74.4912138 34.4477146,74.4405358 L63.8378213,57.6050993 L63.871603,57.6050993 L63.9488184,57.552771 C63.9844032,57.5333603 64.0183002,57.5110847 64.0501636,57.4861714 L64.132205,57.4243289 L64.2190723,57.3529721 L64.2190723,57.3529721 C64.2553407,57.3205116 64.2892088,57.285537 64.3204175,57.2483156 L64.378329,57.186473 L64.378329,57.1579303 C64.4024588,57.1246305 64.4265886,57.0913307 64.4458925,57.0580309 L64.4748482,57.0152168 C64.4748482,57.0152168 64.4748482,57.0152168 64.4748482,57.0152168 L64.5182819,56.9248316 C64.5272341,56.9078102 64.5352881,56.8903441 64.5424117,56.8725033 L64.5424117,56.8725033 C64.5526816,56.8446163 64.5607489,56.8159882 64.5665415,56.7868752 C64.5665415,56.7868752 64.5665415,56.7488183 64.5665415,56.7297898 L64.5665415,56.7297898 C64.5689146,56.7012951 64.5689146,56.6726565 64.5665415,56.6441617 C64.5665415,56.6441617 64.5665415,56.6061048 64.5665415,56.5823192 L64.5665415,56.5823192 L64.6051492,18.5777127 C64.6571483,18.564652 64.7111873,18.5614236 64.7644059,18.5681985 L64.7644059,18.5681985 Z" id="Path" fill="#E5EFFF"></path><path d="M63.9246886,17.3028054 C65.0491377,17.9450162 65.0539636,18.9868248 63.9246886,19.6290356 L34.5345819,36.4644721 C33.2550453,37.1067233 31.7410068,37.1067233 30.4614702,36.4644721 L0.887976952,19.6433069 C-0.241298085,19.0010961 -0.246124046,17.9592876 0.887976952,17.3170768 L30.2829096,0.481640279 C31.5607605,-0.16054676 33.0733445,-0.16054676 34.3511953,0.481640279 L63.9246886,17.3028054 Z" id="Path" fill="#F0F4FF"></path><path d="M64.754754,18.6585837 C64.7569389,18.6823206 64.7569389,18.7062037 64.754754,18.7299405 C64.7569107,18.7584436 64.7569107,18.7870655 64.754754,18.8155686 L64.7257982,18.8869253 C64.7132682,18.9163884 64.6987581,18.9449946 64.6823646,18.9725534 C64.671335,18.9957415 64.6584238,19.0180138 64.6437569,19.0391531 L64.5761934,19.1390525 C64.5520636,19.1675952 64.5279338,19.2008951 64.498978,19.2294378 L64.498978,19.2532233 L64.373503,19.3673941 C64.3468701,19.3952299 64.317802,19.4206995 64.2866357,19.443508 L64.2045944,19.5053505 C64.1756386,19.5291361 64.1370309,19.5481646 64.1032492,19.5719502 L63.9922521,19.6433069 L34.6021453,36.4787434 C34.5145374,36.5278667 34.4243236,36.5723301 34.3318915,36.6119427 L34.2498501,36.6499996 L34.0230299,36.7308706 L33.9409886,36.7594133 C33.892729,36.7594133 33.8396434,36.787956 33.7913838,36.8022274 L33.6755607,36.8307701 L33.516304,36.8640699 L33.4101328,36.8878555 C33.3039617,36.8878555 33.1929645,36.9211553 33.0819674,36.9306695 L32.9806222,36.9306695 L32.7875838,36.9306695 L32.4642443,36.9306695 L32.4642443,74.935276 L32.7489761,74.935276 L32.9420145,74.935276 L33.0192299,74.935276 L33.0192299,74.935276 L33.3473953,74.8877048 L33.3473953,74.8877048 L33.4390886,74.8877048 L33.5983453,74.854405 L33.7141684,74.8211052 L33.8637732,74.7830482 L33.892729,74.7830482 L33.9458146,74.7830482 L34.1726348,74.6974201 L34.2546761,74.6641203 C34.3471793,74.6228925 34.4373914,74.5768419 34.52493,74.5261639 L63.9150367,57.6907274 L63.9488184,57.6907274 L64.0260338,57.6383991 C64.0616186,57.6189884 64.0955156,57.5967128 64.127379,57.5717995 L64.2094203,57.509957 L64.2962877,57.4386002 L64.2962877,57.4386002 C64.3325561,57.4061397 64.3664242,57.3711651 64.3976328,57.3339437 L64.4555444,57.2721011 L64.4555444,57.2435584 C64.4796742,57.2102586 64.503804,57.1769588 64.5231079,57.143659 L64.5520636,57.1008449 C64.5520636,57.1008449 64.5520636,57.1008449 64.5520636,57.1008449 L64.5954973,57.0104597 C64.6044495,56.9934383 64.6125035,56.9759722 64.6196271,56.9581314 L64.6196271,56.9581314 C64.629897,56.9302444 64.6379643,56.9016164 64.6437569,56.8725033 C64.6437569,56.8725033 64.6437569,56.8344464 64.6437569,56.8154179 L64.6437569,56.8154179 C64.64613,56.7869232 64.64613,56.7582846 64.6437569,56.7297898 C64.6417825,56.7092216 64.6417825,56.6885155 64.6437569,56.6679473 L64.6437569,56.6679473 L64.6823646,18.6633409 C64.6850123,18.6902347 64.6850123,18.717318 64.6823646,18.7442118 C64.7033622,18.7132316 64.7276271,18.684529 64.754754,18.6585837 L64.754754,18.6585837 Z" id="Path" fill="#D5E2F8"></path><path d="M44.6059975,22.0253013 C45.3213743,21.2289437 48.1273781,20.8094882 48.3678927,19.9401819 C48.6084073,19.0708755 46.1477578,18.1590157 45.9010762,17.2775513 C45.6543945,16.3960868 47.4983399,15.1255621 46.7767961,14.3231255 C46.0552522,13.5206889 43.1814109,13.6422702 42.0405083,12.9918102 C40.8996056,12.3413502 41.0537817,10.6939235 39.6970326,10.2927052 C38.3402835,9.89148691 36.03381,10.9310071 34.5043837,10.7911886 C32.9749575,10.6513701 31.3776938,9.25318505 29.8297664,9.39300355 C28.281839,9.53282205 27.5664622,11.1255372 26.1480427,11.5085183 C24.7296232,11.8914994 22.0716284,11.2896719 20.9368927,11.9340529 C19.8021571,12.5784338 20.8813894,14.1285954 20.1968478,14.9006367 C19.5123062,15.672678 16.6693001,16.1164498 16.4349526,16.9857561 C16.200605,17.8550625 18.6550874,18.7669223 18.9017691,19.6483867 C19.1484508,20.5298512 17.3045054,21.8003759 18.0260492,22.6028125 C18.7475931,23.4052491 21.6214343,23.2897469 22.762337,23.9341278 C23.9032396,24.5785087 23.7428966,26.2380935 25.1058127,26.6332328 C26.4687289,27.028372 28.7690353,25.9949309 30.2984615,26.1347494 C31.8278878,26.2745679 33.4251515,27.6727529 34.9669118,27.5390135 C36.5086722,27.4052741 37.230216,25.8064799 38.6671367,25.3991825 C40.1040573,24.9918851 42.743551,25.6180289 43.8782866,24.9736479 C45.0130222,24.329267 43.9152889,22.7973426 44.6059975,22.0253013 Z M25.8273565,22.2198314 C22.170301,20.134712 22.1271317,16.7486726 25.7841873,14.7061066 C29.4412428,12.6635407 35.3307673,12.6453035 38.9878228,14.7061066 C42.6448783,16.7669098 42.6880476,20.1772654 39.0309921,22.2259104 C35.3739366,24.2745554 29.4844121,24.2745554 25.8273565,22.2198314 L25.8273565,22.2198314 Z" id="Shape" fill="#77A9E4" fill-rule="nonzero"></path><path d="M30.3552991,41.2596459 L30.5772933,41.3785738 L30.6593346,41.4118736 L30.8137654,41.4737161 C30.9194773,41.5158752 31.027413,41.5523992 31.1371049,41.5831298 L31.243276,41.6116725 L31.4363145,41.6592437 L31.5617895,41.6830293 L31.7210462,41.711572 L31.8609991,41.711572 L32.0106039,41.711572 L32.1553828,41.711572 L32.3098135,41.711572 L32.7489761,41.711572 L32.9564924,41.711572 L33.0626636,41.711572 L33.4149588,41.6640008 L33.5259559,41.6640008 L33.6948645,41.6259439 L33.8155136,41.5974012 L33.9747703,41.54983 L34.0616376,41.5212873 L34.3029357,41.4309021 L34.389803,41.3928451 C34.4891335,41.3510307 34.5858268,41.3033738 34.6793607,41.2501316 L64.7644059,24.0150973 L64.7644059,18.4778133 C64.7670536,18.5047071 64.7670536,18.5317905 64.7644059,18.5586843 C64.7663917,18.5887573 64.7663917,18.6189965 64.7644059,18.6490695 C64.7663917,18.6728063 64.7663917,18.6966894 64.7644059,18.7204263 C64.7663917,18.7489294 64.7663917,18.7775512 64.7644059,18.8060544 L64.7354502,18.8774111 C64.7229201,18.9068741 64.70841,18.9354803 64.6920165,18.9630392 C64.6809869,18.9862273 64.6680757,19.0084996 64.6534088,19.0296388 L64.5858454,19.1295383 C64.5617155,19.158081 64.5375857,19.1913808 64.50863,19.2199235 L64.50863,19.2437091 L64.383155,19.3578799 C64.356522,19.3857156 64.3274539,19.4111853 64.2962877,19.4339938 L64.2142463,19.4958363 C64.1852905,19.5196219 64.1466828,19.5386504 64.1129011,19.5624359 L64.001904,19.6337927 L34.6117973,36.4692292 C34.5241893,36.5183524 34.4339755,36.5628159 34.3415434,36.6024285 L34.2595021,36.6404854 L34.0326819,36.7213564 L33.9506405,36.7498991 C33.9023809,36.7498991 33.8492953,36.7784418 33.8010357,36.7927131 L33.6852126,36.8212558 L33.5259559,36.8545557 L33.4197847,36.8783412 C33.3136136,36.8783412 33.2026165,36.9116411 33.0916193,36.9211553 L32.9902741,36.9211553 L32.7972357,36.9211553 L32.3339434,36.9211553 L32.1891645,36.9211553 L32.0540376,36.9211553 L31.9092587,36.9211553 L31.7789578,36.9211553 L31.6293529,36.8973697 L31.5087039,36.8973697 L31.3301433,36.8497985 L31.2336241,36.826013 C31.1287547,36.7968832 31.0256369,36.7619421 30.9247625,36.7213564 L30.7799837,36.664271 L30.7027683,36.6309712 L30.490426,36.5215575 L0.887976952,19.6433069 C0.46855728,19.4473783 0.161623302,19.0748679 0.0530855786,18.630041 C0.0483155783,18.5778184 0.0483155783,18.5252788 0.0530855786,18.4730562 L0.0530855786,24.0055831 L30.3552991,41.2596459 Z" id="Path" fill="#358AE6" opacity="0.320056734"></path><path d="M30.3059504,60.9540812 C30.3773639,60.9968338 30.4515179,61.0349709 30.5279446,61.068252 L30.609986,61.1015518 L30.7644167,61.1681515 C30.8701286,61.2103106 30.9780643,61.2468346 31.0877562,61.2775652 L31.1939273,61.3061079 C31.2566648,61.3061079 31.3194023,61.3394077 31.3869658,61.3489219 L31.5124408,61.3774646 L31.6716975,61.4060073 L31.8116504,61.4060073 L31.9612552,61.4060073 L32.1060341,61.4060073 L32.6996274,61.4060073 C32.7687166,61.4107267 32.8380544,61.4107267 32.9071437,61.4060073 L33.0133149,61.4060073 C33.1316467,61.3974883 33.2493134,61.3815995 33.3656101,61.3584361 L33.4766072,61.3584361 L33.6455159,61.3203792 L33.7661649,61.2870794 L33.9254216,61.2442653 L34.0122889,61.2157226 L34.253587,61.1253374 L34.3404543,61.0872805 C34.4397848,61.0454661 34.5364781,60.9978091 34.630012,60.944567 L64.7150572,43.7095327 L64.7150572,38.1722486 C64.7168304,38.1991568 64.7168304,38.2262115 64.7150572,38.2531196 C64.7168304,38.283203 64.7168304,38.3134215 64.7150572,38.3435049 C64.7168304,38.3672417 64.7168304,38.3911248 64.7150572,38.4148616 C64.7168304,38.4433647 64.7168304,38.4719866 64.7150572,38.5004897 L64.6861015,38.5718465 C64.6735714,38.6013095 64.6590613,38.6299157 64.6426678,38.6574746 C64.6326696,38.6797018 64.619684,38.7005024 64.6040601,38.7193171 L64.5364967,38.8192165 C64.5134473,38.8529633 64.4876218,38.8847847 64.4592813,38.9143589 L64.4592813,38.9381445 L64.3338063,39.0523153 L64.246939,39.123672 L64.1648976,39.1902717 L64.0635524,39.2568713 L63.9525553,39.3234709 L34.5624486,56.1636645 L34.2149793,56.3206494 L34.132938,56.3539492 C34.0590033,56.3866222 33.9832792,56.4152092 33.9061178,56.4395773 L33.8240764,56.46812 L33.6744716,56.5109341 L33.5586485,56.5394768 L33.3993918,56.5727766 L33.2932207,56.5727766 C33.1870495,56.5727766 33.0760524,56.6060764 32.9650553,56.6155906 L32.8637101,56.6155906 L32.6706716,56.6155906 L32.2845947,56.6155906 L32.1398158,56.6155906 L32.0046889,56.6155906 L31.85991,56.6155906 L31.7296091,56.6155906 L31.5800043,56.5870479 L31.4593552,56.5870479 L31.2807946,56.5442339 L31.1842754,56.5442339 C31.0781042,56.5109341 30.9719331,56.4776343 30.8754138,56.4395773 L30.730635,56.3777348 L30.6534196,56.3491921 L30.4410773,56.2397784 L0.838628262,39.3377423 C0.420086855,39.1407127 0.113547881,38.7686817 0.00373688908,38.3244764 C-0.00124562969,38.2706743 -0.00124562969,38.2165366 0.00373688908,38.1627344 L0.00373688908,43.7000184 L30.3059504,60.9540812 Z" id="Path" fill="#77A9E4" opacity="0.475748698"></path></g></g></g></g></g></svg>