<svg width="14px" height="14px" viewBox="0 0 14 14" version="1.1" xmlns="http://www.w3.org/2000/svg" xmlns:xlink="http://www.w3.org/1999/xlink"><title>icon_after shutdown</title><g id="2-表格" stroke="none" stroke-width="1" fill="none" fill-rule="evenodd"><g id="03表格" transform="translate(-343.000000, -460.000000)" fill="#9E9E9E" fill-rule="nonzero"><g id="编组-5" transform="translate(342.000000, 240.000000)"><g id="icon_after-shutdown" transform="translate(1.000000, 220.000000)"><path d="M7,0 C3.1375,0 0,3.1375 0,7 C0,10.8625 3.1375,14 7,14 C10.8625,14 14,10.8625 14,7 C14,3.1375 10.8625,0 7,0 Z M6.5,2 L7.5,2 L7.5,8 L6.5,8 L6.5,2 Z M7,12 C4.2375,12 2,9.7625 2,7 C2,4.95 3.2375,3.1875 5,2.4125 L5,3.5375 C3.8,4.225 3,5.525 3,7 C3,9.2 4.8,11 7,11 C9.2,11 11,9.2 11,7 C11,5.525 10.2,4.225 9,3.5375 L9,2.4125 C10.7625,3.1875 12,4.95 12,7 C12,9.7625 9.7625,12 7,12 Z" id="形状"></path></g></g></g></g></svg>