<svg width="40px" height="40px" viewBox="0 0 40 40" version="1.1" xmlns="http://www.w3.org/2000/svg" xmlns:xlink="http://www.w3.org/1999/xlink"><title>icon_vnc</title><g id="交互状态和新增切图" stroke="none" stroke-width="1" fill="none" fill-rule="evenodd"><g id="交互状态和新增icon" transform="translate(-115.000000, -321.000000)"><g id="icon_vnc" transform="translate(115.000000, 321.000000)"><rect id="矩形" fill-opacity="0" fill="#FFFFFF" x="0" y="0" width="40" height="40"></rect><g id="云诊室" transform="translate(3.000000, 4.000000)"><path d="M2.95723407,0 C1.32297314,0 0,1.41024349 0,3.15230898 L0,22.847691 C0,24.5897565 1.32297314,26 2.95723407,26 L31.0427659,26 C32.6770269,26 34,24.5897565 34,22.847691 L34,3.15230898 C33.9959041,1.41024349 32.672931,0 31.03867,0 L2.95723407,0 Z" id="路径" stroke="#0099F0" stroke-width="2.4" fill-rule="nonzero"></path><path d="M28.0199976,14.0475749 L25.0177087,14.0475749 L21.7000361,19.7594949 L20.3074328,19.7920879 L19.6643778,18.5168875 L14.5240332,10.2138255 L12.4965667,13.253121 C12.3040598,13.717571 11.8453198,14.0435008 11.308758,14.0435008 L7.45452355,14.0435008 C6.74593422,14.0435008 6.16841344,13.4731236 6.16841344,12.7683004 C6.16841344,12.0634772 6.74183833,11.4931 7.45452355,11.4931 L10.0840863,11.4931 L13.774485,5.14561692 L15.1670883,5.11302394 L16.4531984,7.66749885 L20.7293097,15.0498091 L22.7731599,11.525693 L28.0199976,11.4931 C28.7285869,11.4931 29.3061077,12.0634772 29.3061077,12.7683004 C29.3061077,13.4731236 28.7285869,14.0475749 28.0199976,14.0475749 Z" id="路径" fill="#0099F0" fill-rule="nonzero"></path><line x1="9.09288038" y1="33.4040141" x2="24.341845" y2="33.4040141" id="路径-2" stroke="#0099F0" stroke-width="2.4" stroke-linecap="round"></line></g></g></g></g></svg>