<?xml version="1.0" encoding="UTF-8"?>
<svg width="40px" fill="currentColor" height="40px" viewBox="0 0 40 40" version="1.1" xmlns="http://www.w3.org/2000/svg" xmlns:xlink="http://www.w3.org/1999/xlink">
    <title>icon_vnc</title>
    <g id="2-表格" stroke="none" stroke-width="1" fill="none" fill-rule="evenodd">
        <g id="桌面端-HD" transform="translate(-825.000000, -653.000000)">
            <g id="icon_vnc" transform="translate(825.000000, 653.000000)">
                <rect id="矩形" fill-opacity="0" fill="#FFFFFF" x="0" y="0" width="40" height="40"></rect>
                <g id="云诊室" transform="translate(3.000000, 1.000000)" fill-rule="nonzero">
                    <rect id="矩形" fill="currentColor" opacity="0" x="0" y="0" width="35" height="35"></rect>
                    <path d="M5.81738281,7.37744141 C4.45361328,7.37744141 3.34960937,8.48144531 3.34960937,9.84521484 L3.34960937,25.2636719 C3.34960937,26.6274414 4.45361328,27.7314453 5.81738281,27.7314453 L29.2543945,27.7314453 C30.6181641,27.7314453 31.722168,26.6274414 31.722168,25.2636719 L31.722168,9.84521484 C31.71875,8.48144531 30.6147461,7.37744141 29.2509766,7.37744141 L5.81738281,7.37744141 Z" id="路径" stroke="currentColor" stroke-width="2.2"></path>
                    <path d="M26.7319336,19.1625977 L24.2265625,19.1625977 L21.4580078,23.9545898 L20.2958984,23.9819336 L19.7592773,22.9121094 L15.4697266,15.9462891 L13.777832,18.4960937 C13.6171875,18.8857422 13.234375,19.1591797 12.7866211,19.1591797 L9.5703125,19.1591797 C8.97900391,19.1591797 8.49707031,18.6806641 8.49707031,18.0893555 C8.49707031,17.4980469 8.97558594,17.0195312 9.5703125,17.0195312 L11.7646484,17.0195312 L14.8442383,11.6943359 L16.0063477,11.6669922 L17.0795898,13.8100586 L20.6479492,20.003418 L22.3535156,17.046875 L26.7319336,17.0195312 C27.3232422,17.0195312 27.8051758,17.4980469 27.8051758,18.0893555 C27.8051758,18.6806641 27.3232422,19.1625977 26.7319336,19.1625977 Z" id="路径" fill="currentColor"></path>
                    <path d="M12.0369126,31.71875 L22.9630874,31.71875 C23.6960291,31.71875 24.0625,32.1500977 24.0625,33.012793 L24.0625,33.026123 C24.0625,33.8888184 23.6960291,34.320166 22.9630874,34.320166 L12.0369126,34.320166 C11.3039709,34.320166 10.9375,33.8888184 10.9375,33.026123 L10.9375,33.012793 C10.9375,32.1500977 11.3039709,31.71875 12.0369126,31.71875 Z" id="路径" fill="currentColor"></path>
                </g>
            </g>
        </g>
    </g>
</svg>
