<svg width="18px" height="18px" viewBox="0 0 18 18" version="1.1" xmlns="http://www.w3.org/2000/svg" xmlns:xlink="http://www.w3.org/1999/xlink"><title>icon_shutting down</title><g id="2-表格" stroke="none" stroke-width="1" fill="none" fill-rule="evenodd"><g id="03表格" transform="translate(-342.000000, -407.000000)" fill-rule="nonzero"><g id="编组-5" transform="translate(342.000000, 240.000000)"><g id="icon_shutting-down" transform="translate(0.000000, 167.000000)"><rect id="矩形" fill="#000000" opacity="0" x="0" y="0" width="18" height="18"></rect><g id="编组-6" transform="translate(2.000000, 0.000000)" fill="#C8C8C8"><g id="更多" transform="translate(2.500000, 15.000000)"><path d="M0,1 C0,1.55228475 0.44771525,2 1,2 C1.55228475,2 2,1.55228475 2,1 C2,0.44771525 1.55228475,0 1,0 C0.44771525,0 0,0.44771525 0,1 Z M3.5,1 C3.5,1.55228475 3.94771525,2 4.5,2 C5.05228475,2 5.5,1.55228475 5.5,1 C5.5,0.44771525 5.05228475,0 4.5,0 C3.94771525,0 3.5,0.44771525 3.5,1 Z M7,1 C7,1.55228475 7.44771525,2 8,2 C8.55228475,2 9,1.55228475 9,1 C9,0.44771525 8.55228475,0 8,0 C7.44771525,0 7,0.44771525 7,1 Z" id="形状"></path></g><path d="M7,0 C3.1375,0 0,3.1375 0,7 C0,10.8625 3.1375,14 7,14 C10.8625,14 14,10.8625 14,7 C14,3.1375 10.8625,0 7,0 Z M6.5,2 L7.5,2 L7.5,8 L6.5,8 L6.5,2 Z M7,12 C4.2375,12 2,9.7625 2,7 C2,4.95 3.2375,3.1875 5,2.4125 L5,3.5375 C3.8,4.225 3,5.525 3,7 C3,9.2 4.8,11 7,11 C9.2,11 11,9.2 11,7 C11,5.525 10.2,4.225 9,3.5375 L9,2.4125 C10.7625,3.1875 12,4.95 12,7 C12,9.7625 9.7625,12 7,12 Z" id="形状"></path></g></g></g></g></g></svg>