<svg width="14px" height="14px" viewBox="0 0 14 14" version="1.1" xmlns="http://www.w3.org/2000/svg" xmlns:xlink="http://www.w3.org/1999/xlink"><title>icon_running</title><g id="2-表格" stroke="none" stroke-width="1" fill="none" fill-rule="evenodd"><g id="03表格" transform="translate(-343.000000, -298.000000)" fill-rule="nonzero"><g id="编组-5" transform="translate(343.000000, 240.000000)"><g id="icon_running" transform="translate(0.000000, 58.000000)"><rect id="矩形" fill-opacity="0" fill="#000000" opacity="0" x="0" y="0" width="14" height="14"></rect><path d="M7,0 C3.13399147,0 0,3.13399147 0,7 C0,10.8660085 3.13399148,14 7,14 C10.8660085,14 14,10.8660085 14,7 C14,3.13399148 10.8660085,0 7,0 Z M9.93144887,7.46474432 L5.95417614,10.0897443 C5.7831802,10.2024591 5.56411128,10.2122067 5.38378026,10.1151246 C5.20344923,10.0180424 5.09096775,9.82980288 5.09090909,9.625 L5.09090909,4.37549715 C5.09090909,4.17062803 5.20342873,3.98231229 5.38382741,3.88521608 C5.56422609,3.78811988 5.78337201,3.79792848 5.95437499,3.91075283 L9.93164773,6.53575284 C10.087809,6.63880565 10.1817752,6.81339765 10.1817752,7.00049715 C10.1817752,7.18759666 10.087809,7.36218865 9.93164773,7.46524147 L9.93144887,7.46474432 Z" id="形状" fill="#00DCA2"></path></g></g></g></g></svg>