<?xml version="1.0" encoding="UTF-8"?>
<svg width="20px" height="20px" viewBox="0 0 20 20" version="1.1" xmlns="http://www.w3.org/2000/svg" xmlns:xlink="http://www.w3.org/1999/xlink">
    <title>icon_more </title>
    <g id="页面-1" stroke="none" stroke-width="1" fill="none" fill-rule="evenodd">
        <g id="交互状态和切图" transform="translate(-175.000000, -100.000000)">
            <g id="编组-37" transform="translate(170.000000, 95.000000)">
                <g id="icon_more-" transform="translate(5.000000, 5.000000)">
                    <path d="M18.5594374,7.11887477 L15.0022686,10.6760436 C14.7481851,10.930127 14.3670599,10.930127 14.1129764,10.6760436 L10.5739564,7.11887477 C10.319873,6.86479129 10.319873,6.48366605 10.5739564,6.22958257 L14.1311252,2.69056261 C14.3852087,2.43647913 14.7663339,2.43647913 15.0204174,2.69056261 L18.5594374,6.24773139 C18.8135209,6.48366605 18.8135209,6.88294011 18.5594374,7.11887477 Z M9.41243194,17.4818512 L4.38520872,17.4818512 C4.04038114,17.4818512 3.75,17.2096189 3.75,16.8466425 L3.75,11.8375681 C3.75,11.4927405 4.0222323,11.2023594 4.38520872,11.2023594 L9.41243194,11.2023594 C9.75725952,11.2023594 10.0476406,11.4745917 10.0476406,11.8375681 L10.0476406,16.8647913 C10.0476406,17.2096189 9.77540834,17.4818512 9.41243194,17.4818512 Z M9.41243194,9.95009073 L4.38520872,9.95009073 C4.04038114,9.95009073 3.75,9.67785843 3.75,9.31488203 L3.75,4.30580763 C3.75,3.96098005 4.0222323,3.67059891 4.38520872,3.67059891 L9.41243194,3.67059891 C9.75725952,3.67059891 10.0476406,3.94283121 10.0476406,4.30580763 L10.0476406,9.33303085 C10.0476406,9.67785843 9.77540834,9.95009073 9.41243194,9.95009073 L9.41243194,9.95009073 Z M11.9169691,11.2023594 L16.9441924,11.2023594 C17.2890199,11.2023594 17.5794011,11.4745917 17.5794011,11.8375681 L17.5794011,16.8647913 C17.5794011,17.2096189 17.3071688,17.5 16.9441924,17.5 L11.9169691,17.5 C11.5721416,17.5 11.2817604,17.2277677 11.2817604,16.8647913 L11.2817604,11.8375681 C11.2999093,11.4745917 11.5721416,11.2023594 11.9169691,11.2023594 L11.9169691,11.2023594 Z" id="形状" fill="#B0B8CD" fill-rule="nonzero"></path>
                    <rect id="矩形" fill-opacity="0" fill="#D8D8D8" x="0" y="0" width="20" height="20"></rect>
                </g>
            </g>
        </g>
    </g>
</svg>