<svg width="18px" height="18px" viewBox="0 0 18 18" version="1.1" xmlns="http://www.w3.org/2000/svg" xmlns:xlink="http://www.w3.org/1999/xlink"><title>icon_search</title><g id="页面-1" stroke="none" stroke-width="1" fill="none" fill-rule="evenodd"><g id="交互状态和切图" transform="translate(-43.000000, -393.000000)"><g id="编组-33" transform="translate(43.000000, 391.000000)"><g id="icon_search" transform="translate(0.000000, 2.000000)"><rect id="矩形" fill-opacity="0" fill="#D8D8D8" x="0" y="0" width="18" height="18"></rect><path d="M14.8757138,14.2206474 L12.6653871,11.8576901 C13.5624757,10.7795441 14.0533825,9.43497412 14.0533825,8.02068568 C14.0533825,4.70158973 11.3496571,2 8.02544532,2 C4.70372547,2 2,4.70158973 2,8.02068568 C2,11.3397816 4.70372547,14.0413714 8.02544532,14.0413714 C8.89512291,14.0413714 9.73489755,13.8596054 10.5198501,13.5010534 C10.7540899,13.3939858 10.8562583,13.1200919 10.7491061,12.8885271 C10.6419538,12.6544723 10.3678434,12.5523846 10.1360955,12.6594522 C9.47075478,12.9607355 8.76055962,13.115112 8.02544532,13.115112 C5.21456759,13.115112 2.92699159,10.829343 2.92699159,8.02068568 C2.92699159,5.21202834 5.21456759,2.92625933 8.02544532,2.92625933 C10.836323,2.92625933 13.123899,5.21202834 13.123899,8.02068568 C13.123899,9.34284619 12.6180407,10.5952882 11.7035087,11.548937 C11.5265829,11.7331929 11.5315667,12.0270063 11.7159683,12.2037924 C11.7309198,12.2162421 11.7483631,12.221222 11.7633146,12.2336717 C11.7757742,12.2511013 11.7832499,12.2735108 11.7982014,12.2909404 L14.1954216,14.8530933 C14.2851305,14.9502011 14.4097261,15 14.5343217,15 C14.6489497,15 14.7610858,14.9576709 14.8507947,14.8755028 C15.04018,14.7012066 15.0501477,14.4073932 14.8757138,14.2206474 Z" id="路径" stroke="#BEC3D6" stroke-width="0.5" fill="#BEC3D6" fill-rule="nonzero"></path></g></g></g></g></svg>