<svg width="40px" height="40px" viewBox="0 0 40 40" version="1.1" xmlns="http://www.w3.org/2000/svg" xmlns:xlink="http://www.w3.org/1999/xlink"><title>icon_optimization</title><g id="交互状态和新增切图" stroke="none" stroke-width="1" fill="none" fill-rule="evenodd"><g id="交互状态和新增icon" transform="translate(-28.000000, -321.000000)"><g id="icon_optimization" transform="translate(28.000000, 321.000000)"><rect id="矩形" fill-opacity="0" fill="#FFFFFF" x="0" y="0" width="40" height="40"></rect><g id="建议" transform="translate(1.000000, 1.000000)" fill-rule="nonzero"><rect id="矩形" fill="#000000" opacity="0" x="0" y="0" width="38" height="38"></rect><path d="M30.4968866,37.1652176 L6.10105407,37.1652176 C2.8680127,37.1652176 0.237808001,34.5350129 0.237808001,31.3029486 L0.237808001,6.90711606 C0.237808001,3.67407469 2.8680127,1.04484704 6.10105407,1.04484704 L28.8808544,1.04484704 C29.7572637,1.04484704 30.4675752,1.75515864 30.4675752,2.63156785 C30.4675752,3.50797707 29.7572637,4.21828867 28.8808544,4.21828867 L6.10105407,4.21828867 C4.6179,4.21828867 3.41124963,5.42493904 3.41124963,6.90711606 L3.41124963,31.3029486 C3.41124963,32.7861026 4.6179,33.991776 6.10105407,33.991776 L30.4959095,33.991776 C31.9790636,33.991776 33.185714,32.7851256 33.185714,31.3029486 L33.185714,16.494857 C33.185714,15.6184478 33.8960256,14.9081362 34.7724348,14.9081362 C35.648844,14.9081362 36.3591556,15.6184478 36.3591556,16.494857 L36.3591556,31.3029486 C36.3591556,34.5359899 33.729928,37.1652176 30.4968866,37.1652176 Z" id="路径" fill="#0099F0"></path><path d="M27.6214436,13.7200497 C27.1827505,13.7200497 26.7469885,13.5402735 26.4333571,13.1856062 C25.8520154,12.5300091 25.9116152,11.5275611 26.5672123,10.9462194 L35.1544593,3.33113195 C35.8090794,2.74881323 36.8144585,2.80939001 37.3938461,3.4649871 C37.9751878,4.12058418 37.915588,5.12303219 37.259991,5.70437386 L28.6727439,13.3194613 C28.3718141,13.5881487 27.9956518,13.7200497 27.6214436,13.7200497 Z M17.061543,13.3331399 L8.05905192,13.3331399 C7.1826427,13.3331399 6.4723311,12.6228284 6.4723311,11.7464191 C6.4723311,10.8700099 7.1826427,10.1596983 8.05905192,10.1596983 L17.061543,10.1596983 C17.9379523,10.1596983 18.6482639,10.8700099 18.6482639,11.7464191 C18.6482639,12.6228284 17.9379523,13.3331399 17.061543,13.3331399 Z M21.2921472,21.4347957 L8.05905192,21.4347957 C7.1826427,21.4347957 6.4723311,20.7244841 6.4723311,19.8480749 C6.4723311,18.9716657 7.1826427,18.2613541 8.05905192,18.2613541 L21.2911701,18.2613541 C22.1675794,18.2613541 22.877892,18.9716657 22.877892,19.8480749 C22.878868,20.7244841 22.1675794,21.4347957 21.2921472,21.4347957 Z M27.6380534,29.5364515 L8.05905192,29.5364515 C7.1826427,29.5364515 6.4723311,28.8261399 6.4723311,27.9497307 C6.4723311,27.0733215 7.1826427,26.3630099 8.05905192,26.3630099 L27.6380534,26.3630099 C28.5144626,26.3630099 29.2247742,27.0733215 29.2247742,27.9497307 C29.2247742,28.8261399 28.5144626,29.5364515 27.6380534,29.5364515 Z" id="形状" fill="#0099F0"></path></g></g></g></g></svg>