<svg width="150px" height="150px" viewBox="0 0 150 150" version="1.1" xmlns="http://www.w3.org/2000/svg" xmlns:xlink="http://www.w3.org/1999/xlink"><title>icon_ram</title><defs><linearGradient x1="8.94097305%" y1="50%" x2="181.485769%" y2="55.2830422%" id="linearGradient-1"><stop stop-color="#ACB8ED" offset="0%"></stop><stop stop-color="#FEFEFF" stop-opacity="0.00402947337" offset="99.5970527%"></stop><stop stop-color="#FFFFFF" stop-opacity="0" offset="100%"></stop></linearGradient><radialGradient cx="13.2648784%" cy="50%" fx="13.2648784%" fy="50%" r="87.7555348%" gradientTransform="translate(0.132649,0.500000),scale(0.988372,1.000000),translate(-0.132649,-0.500000)" id="radialGradient-2"><stop stop-color="#ECDEF8" offset="0%"></stop><stop stop-color="#ABC4F1" offset="100%"></stop></radialGradient><radialGradient cx="13.2648784%" cy="50%" fx="13.2648784%" fy="50%" r="87.7555348%" gradientTransform="translate(0.132649,0.500000),scale(0.988372,1.000000),translate(-0.132649,-0.500000)" id="radialGradient-3"><stop stop-color="#ECDEF8" offset="0%"></stop><stop stop-color="#ABC4F1" offset="100%"></stop></radialGradient><radialGradient cx="13.2648784%" cy="50%" fx="13.2648784%" fy="50%" r="87.7555348%" gradientTransform="translate(0.132649,0.500000),scale(0.988372,1.000000),translate(-0.132649,-0.500000)" id="radialGradient-4"><stop stop-color="#ECDEF8" offset="0%"></stop><stop stop-color="#ABC4F1" offset="100%"></stop></radialGradient><linearGradient x1="108.679884%" y1="60.4193326%" x2="0%" y2="28.738264%" id="linearGradient-5"><stop stop-color="#D5DFF5" offset="0%"></stop><stop stop-color="#3D7BBC" offset="100%"></stop></linearGradient><linearGradient x1="17.1243225%" y1="-98.9824455%" x2="61.9700988%" y2="50%" id="linearGradient-6"><stop stop-color="#4C9EFF" offset="0%"></stop><stop stop-color="#CFE4FF" offset="100%"></stop></linearGradient><linearGradient x1="36.5245426%" y1="-98.9824455%" x2="54.9064405%" y2="50%" id="linearGradient-7"><stop stop-color="#4C9EFF" offset="0%"></stop><stop stop-color="#CFE4FF" offset="100%"></stop></linearGradient><path d="M6.05100857,0.499424335 C1.88277785,1.66160451 -0.557759333,5.99113489 0.602652158,10.1706185 L0.602652158,10.1706185 C1.76034287,14.3514662 6.07957673,16.795864 10.2478075,15.6350479 L10.2478075,15.6350479 C14.4160382,14.4742317 16.855215,10.1419732 15.6975243,5.9624896 L15.6975243,5.9624896 C14.7330087,2.48822562 11.5850695,0.210243352 8.15416937,0.210243352 L8.15416937,0.210243352 C7.45901079,0.210243352 6.7529691,0.302999516 6.05100857,0.499424335" id="path-8"></path><radialGradient cx="13.2648784%" cy="50%" fx="13.2648784%" fy="50%" r="86.7351216%" gradientTransform="translate(0.132649,0.500000),scale(1.000000,0.997329),translate(-0.132649,-0.500000)" id="radialGradient-10"><stop stop-color="#ECDEF8" offset="0%"></stop><stop stop-color="#C1C9F4" offset="100%"></stop></radialGradient><path d="M3.21749652,0.327374698 C0.968774138,0.954842868 -0.346721655,3.29011571 0.27769672,5.54354488 L0.27769672,5.54354488 C0.903475484,7.79697405 3.2324608,9.11738533 5.47982279,8.48991716 L5.47982279,8.48991716 C7.72718479,7.86381305 9.04404097,5.52854021 8.4196226,3.27511104 L8.4196226,3.27511104 C7.89859376,1.39952683 6.20082876,0.171871716 4.35070024,0.171871716 L4.35070024,0.171871716 C3.97659337,0.171871716 3.59568456,0.222341982 3.21749652,0.327374698" id="path-11"></path><radialGradient cx="13.2648784%" cy="50%" fx="13.2648784%" fy="50%" r="86.7351216%" gradientTransform="translate(0.132649,0.500000),scale(1.000000,0.997416),translate(-0.132649,-0.500000)" id="radialGradient-13"><stop stop-color="#ECDEF8" offset="0%"></stop><stop stop-color="#C1C9F4" offset="100%"></stop></radialGradient><path d="M3.71250054,0.172049637 C1.46513854,0.798153746 0.149642748,3.13479065 0.774061123,5.38821982 L0.774061123,5.38821982 C1.39983989,7.64301305 3.7288252,8.96206027 5.9761872,8.33595616 L5.9761872,8.33595616 C8.22490958,7.70848799 9.54176576,5.37321515 8.915987,3.11978598 L8.915987,3.11978598 C8.39631855,1.24420177 6.69855355,0.0151825947 4.84706464,0.0151825947 L4.84706464,0.0151825947 C4.47295777,0.0151825947 4.09068857,0.0656528606 3.71250054,0.172049637" id="path-14"></path><radialGradient cx="13.2648784%" cy="50%" fx="13.2648784%" fy="50%" r="86.7351216%" gradientTransform="translate(0.132649,0.500000),scale(1.000000,0.997220),translate(-0.132649,-0.500000)" id="radialGradient-16"><stop stop-color="#ECDEF8" offset="0%"></stop><stop stop-color="#C1C9F4" offset="100%"></stop></radialGradient><path d="M4.15734762,1.02713811 C1.33998279,1.81147333 -0.308808216,4.73738469 0.476136016,7.56235551 L0.476136016,7.56235551 C1.25835947,10.3886904 4.17775344,12.0405686 6.99375788,11.2548693 L6.99375788,11.2548693 C9.81112271,10.4705341 11.4612741,7.54462272 10.6776903,4.71965189 L10.6776903,4.71965189 C10.0260641,2.37073844 7.89841631,0.830713295 5.57895372,0.830713295 L5.57895372,0.830713295 C5.10961965,0.830713295 4.63212324,0.894824173 4.15734762,1.02713811" id="path-17"></path><radialGradient cx="13.2648784%" cy="50%" fx="13.2648784%" fy="50%" r="86.7351216%" gradientTransform="translate(0.132649,0.500000),scale(1.000000,0.997384),translate(-0.132649,-0.500000)" id="radialGradient-19"><stop stop-color="#ECDEF8" offset="0%"></stop><stop stop-color="#C1C9F4" offset="100%"></stop></radialGradient></defs><g id="1-首页和色彩分析" stroke="none" stroke-width="1" fill="none" fill-rule="evenodd"><g id="广电运通框架-租户角色-方案1" transform="translate(-389.000000, -131.000000)"><g id="01-3内存总量" transform="translate(375.000000, 80.000000)"><g id="icon_ram" transform="translate(14.000000, 51.000000)"><rect id="矩形" fill="#D8D8D8" opacity="0" x="0" y="0" width="150" height="150"></rect><polyline id="路径" stroke="url(#linearGradient-1)" stroke-width="1.046875" points="14.5841731 108.218043 27.5290974 101.624667 78.9176471 131.431824 143.076159 93.6151374 111.391047 73.6002127"></polyline><ellipse id="椭圆形备份-6" fill="url(#radialGradient-2)" fill-rule="nonzero" cx="13.1529412" cy="109" rx="4.04705882" ry="4"></ellipse><ellipse id="椭圆形备份-7" fill="url(#radialGradient-3)" fill-rule="nonzero" cx="78.9176471" cy="130" rx="3.03529412" ry="3"></ellipse><ellipse id="椭圆形备份-9" fill="url(#radialGradient-4)" fill-rule="nonzero" cx="112.811765" cy="74.5" rx="2.52941176" ry="2.5"></ellipse><g id="编组-6" transform="translate(35.985504, 15.757858)"><g id="编组-74" transform="translate(-0.000000, 40.819390)"><path d="M86.9003322,41.5134701 L46.1385114,64.98987 C45.5220755,65.3486796 44.7172843,65.5195413 43.912493,65.5195413 C43.1077017,65.5195413 42.3114721,65.3486796 41.6950362,64.9984131 L0.924653781,41.5134701 C0.308217927,41.1546605 0,40.6933338 0,40.2320072 C0,39.7621375 0.308217927,39.3008108 0.924653781,38.9505443 L7.39723025,35.2257589 L41.6864746,15.4656013 C42.9107847,14.7565252 44.9056397,14.7565252 46.1385114,15.4656013 L86.9003322,38.9505443 C88.1246423,39.6510773 88.1246423,40.8043939 86.9003322,41.5134701" id="Fill-41" fill="#DCEEFF"></path><path d="M43.9125786,56.2586654 L43.9125786,65.5193705 C43.1077874,65.5193705 42.3115577,65.3485087 41.6951219,64.9982422 L0.924739397,41.5132992 C0.308303543,41.1544896 8.56160902e-05,40.693163 8.56160902e-05,40.2318363 L8.56160902e-05,32.2098787 C8.56160902e-05,31.8766984 0.162756189,31.5349749 0.488097334,31.24451 L7.39731587,35.225588 L43.9125786,56.2586654 Z" id="Fill-43" fill="#C8E2FF"></path><path d="M43.9125786,56.2586654 L43.9125786,65.5193705 C44.7173699,65.5193705 45.5135995,65.3485087 46.1300354,64.9982422 L86.9004178,41.5132992 C87.5168537,41.1544896 87.8250716,40.693163 87.8250716,40.2318363 L87.8250716,32.2098787 C87.8250716,31.8766984 87.662401,31.5349749 87.3370599,31.24451 L80.4278414,35.225588 L43.9125786,56.2586654 Z" id="Fill-45" fill="#ACC9F0"></path><path d="M86.9003322,33.491427 L46.1385114,56.97637 C45.5220755,57.3351796 44.7172843,57.5060413 43.912493,57.5060413 C43.1077017,57.5060413 42.3029105,57.3351796 41.6864746,56.97637 L0.924653781,33.491427 C0.308217927,33.1411605 0,32.6798339 0,32.2099641 C0,31.8767838 0.162670573,31.5350603 0.488011718,31.2445954 C0.607874245,31.1335353 0.7534216,31.0224752 0.924653781,30.9285013 L41.6864746,7.45210132 C42.9107847,6.7430252 44.9056397,6.7430252 46.1385114,7.45210132 L86.9003322,30.9285013 C88.1246423,31.6375774 88.1246423,32.790894 86.9003322,33.491427" id="Fill-47" fill="#DCEEFF"></path><path d="M43.909154,6.9202088 C43.1035066,6.9202088 42.2987153,7.09790498 41.6865603,7.45244304 L0.924739397,30.928843 C0.753507216,31.0219626 0.607959861,31.133877 0.488097334,31.2449372 C0.162756189,31.5345478 8.56160907e-05,31.8762712 8.56160907e-05,32.2103059 C8.56160907e-05,32.6793213 0.308303543,33.1406479 0.924739397,33.4917687 L41.6865603,56.9767117 C42.3029961,57.3355214 43.1077874,57.5055288 43.9125786,57.5055288 C44.7173699,57.5055288 45.5221611,57.3355214 46.138597,56.9767117 L86.9004178,33.4917687 C88.1247279,32.7912357 88.1247279,31.6379191 86.9004178,30.928843 L46.138597,7.45244304 C45.5221611,7.09790498 44.7148014,6.9202088 43.909154,6.9202088 M43.909154,7.77451738 C44.5923704,7.77451738 45.2490458,7.92658431 45.7105165,8.19227428 L86.4706251,31.6669656 C86.8344934,31.8779798 86.9629176,32.0932656 86.9629176,32.2137231 C86.9629176,32.332472 86.8344934,32.5443405 86.4723374,32.7510832 L45.707948,56.2385891 C45.2558951,56.5008619 44.6017881,56.6512202 43.9125786,56.6512202 C43.2233691,56.6512202 42.5692621,56.5008619 42.1146407,56.2368805 L1.34853905,32.7485203 C1.04460192,32.5768042 0.856246525,32.3700616 0.856246525,32.2103059 C0.856246525,32.1171862 0.931588685,31.9950201 1.06943059,31.8711453 C1.15419052,31.7934033 1.24408742,31.7284758 1.35281985,31.6686742 L42.116353,8.19056566 C42.5726868,7.92658431 43.2267937,7.77451738 43.909154,7.77451738" id="Fill-49" fill="#FFFFFF"></path><path d="M42.4276531,13.0326159 L10.6161384,31.3592436 C9.79679243,31.830822 9.79679243,32.5962825 10.6161384,33.0678608 L42.4276531,51.3944886 C43.2478553,51.8669212 44.5749047,51.8669212 45.3942507,51.3944886 L77.2057654,33.0678608 C78.0242552,32.5962825 78.0242552,31.830822 77.2057654,31.3592436 L45.3933945,13.0326159 C44.5749047,12.5601832 43.2469991,12.5601832 42.4276531,13.0326159" id="Fill-51" fill="url(#linearGradient-5)"></path><path d="M77.2054229,31.3594145 L45.3939082,13.0327867 C44.9838071,12.7961432 44.4469943,12.6782487 43.9101814,12.6782487 L43.9101814,14.1826861 L76.9494308,33.2149728 L77.2054229,33.0680317 C78.0247689,32.5964533 78.0247689,31.8309928 77.2054229,31.3594145" id="Fill-53" fill="#81ADE1"></path><path d="M43.9108663,12.678505 C43.3740534,12.678505 42.8372405,12.7963995 42.4279956,13.033043 L10.6156247,31.3596708 C9.79713489,31.8312491 9.79713489,32.5958553 10.6156247,33.068288 L10.872473,33.215229 L43.9108663,14.1820881 L43.9108663,12.678505 Z" id="Fill-55" fill="#6B9AD1"></path><path d="M71.7314726,4.16378214 C71.7203425,4.14584166 71.7682875,4.32182923 71.7331849,4.43716089 C71.717774,4.58666489 71.5807882,4.60802261 71.4438025,4.69857932 C71.1569886,4.86089795 70.7485998,5.09412419 70.2580196,5.3734831 C69.2785715,5.93390953 67.9660769,6.66946923 66.6424521,7.38537982 C65.3136904,8.09531026 63.9960587,8.82147255 62.9840765,9.32636893 C61.9815121,9.84664286 61.3017204,10.1746974 61.3017204,10.1746974 C61.3017204,10.1746974 61.9258617,9.7518146 62.8787688,9.14525551 C63.8231142,8.52331886 65.1124926,7.74675235 66.391597,6.95309968 C67.6749822,6.16628147 68.9694975,5.39911236 69.9455209,4.83270577 C70.4326765,4.54822101 70.8393529,4.31157753 71.1235983,4.14584166 C71.270858,4.07151682 71.3573302,3.96387394 71.4951721,4.02538415 C71.6133223,4.05272203 71.7426026,4.18172263 71.7314726,4.16378214" id="Fill-75" fill="#FFFFFF"></path><path d="M36.9470247,0.156647724 C36.9358946,0.138707244 36.9838396,0.314694813 36.948737,0.430026472 C36.9333261,0.579530474 36.7963404,0.600888189 36.6593546,0.691444899 C36.3725407,0.85376353 35.964152,1.08698977 35.4735718,1.36634868 C34.4941237,1.92677511 33.181629,2.66233481 31.8571481,3.3782454 C30.5292425,4.08817583 29.2107547,4.81433813 28.1996287,5.31923451 C27.1962081,5.83950844 26.5172725,6.16756293 26.5172725,6.16756293 C26.5172725,6.16756293 27.1414138,5.74468018 28.0943209,5.13812109 C29.0386664,4.51618444 30.3280447,3.73961793 31.6071491,2.94596526 C32.8905343,2.15914705 34.1850496,1.39197794 35.161073,0.825571347 C35.6482286,0.541086588 36.054905,0.304443109 36.3391504,0.138707244 C36.4864101,0.0643823969 36.5728824,-0.0432604848 36.7107243,0.0182497333 C36.8288745,0.0455876081 36.9581548,0.174588204 36.9470247,0.156647724" id="Fill-85" fill="#FFFFFF"></path></g><g id="编组-30备份-2" transform="translate(15.806055, 0.000000)"><g id="编组-26" transform="translate(2.983846, 41.753956)" fill-rule="nonzero" opacity="0.8"><g id="编组-23"><path d="M26.3442195,18.2687843 L26.3442195,37.338791 C26.3442195,38.0239274 25.7939884,38.4863977 25.1108047,38.4863977 C19.5142515,38.4843893 12.7023042,35.7741041 11.3173822,35.1448017 C10.3698953,34.7137964 9.46445671,34.2462381 8.59319061,33.7387793 C2.89598866,30.4159284 0.0372427212,26.0697246 0.00947753838,21.7164245 C0.00680780926,21.6472012 0.00320367495,21.5783796 0.00320367495,21.5090224 L0.00320367495,3.41269384 L-2.84217094e-14,0.0342768999 C-2.84217094e-14,0.0756501891 0.00320367495,0.117157373 0.00320367495,0.158664556 L0.00320367495,9.54969437e-12 C0.00320367495,0.787297543 0.0995808962,1.57847802 0.287930286,2.36269599 C0.295272041,2.39349165 0.299276634,2.42817023 0.308887659,2.45923367 C0.340790922,2.59071772 0.385241912,2.72220176 0.422751606,2.85341802 C0.464399381,3.00177273 0.502042561,3.15026133 0.55370182,3.29874993 C0.557172468,3.31280881 0.563980277,3.33034894 0.571322032,3.34721961 C1.67672337,6.56362464 4.38049154,9.635424 8.68569672,12.1257211 C10.5763989,13.2208413 12.6598555,14.1361416 14.8714591,14.8722916 C14.9131069,14.8866183 14.9539537,14.8959909 14.995201,14.9104514 C18.1659048,15.9556291 21.6013123,16.6304556 25.1105377,16.936002 C25.7914521,16.9953171 26.3442195,17.5833802 26.3442195,18.2687843 Z" id="Shape" fill="url(#linearGradient-6)"></path><path d="M49.2087083,0 L49.2087083,27.63642 L32.0970795,39.0462091 L32.0970795,13.2407915 C32.1841126,13.8162685 32.6849538,14.1548868 33.2817718,13.9942138 C35.1772794,13.4890312 36.9925618,12.8495528 38.6839686,12.0785904 C39.5632439,11.6783808 40.4132857,11.2434926 41.2199443,10.7731225 C46.3423536,7.78554256 49.0034061,3.91185119 49.2087083,0 Z" id="Shape" fill="url(#linearGradient-7)"></path></g></g><g id="编组-9"><polyline id="Stroke-15" stroke="#70A3D1" stroke-width="1.11514317" points="45.0269587 34.7868354 49.7379845 8.01986165 29.8708691 4.40782749"></polyline><polyline id="Stroke-17" stroke="#70A3D1" stroke-width="1.11514317" points="8.1489999 39.1148653 29.8716853 4.40905515 45.0264145 34.786699"></polyline><g id="编组" transform="translate(0.000000, 31.047220)"><mask id="mask-9" fill="white"><use xlink:href="#path-8"></use></mask><g id="Clip-20"></g><path d="M6.05100857,0.499424335 C1.88277785,1.66160451 -0.557759333,5.99113489 0.602652158,10.1706185 L0.602652158,10.1706185 C1.76034287,14.3514662 6.07957673,16.795864 10.2478075,15.6350479 L10.2478075,15.6350479 C14.4160382,14.4742317 16.855215,10.1419732 15.6975243,5.9624896 L15.6975243,5.9624896 C14.7330087,2.48822562 11.5850695,0.210243352 8.15416937,0.210243352 L8.15416937,0.210243352 C7.45901079,0.210243352 6.7529691,0.302999516 6.05100857,0.499424335" id="Fill-19" fill="url(#radialGradient-10)" fill-rule="nonzero" mask="url(#mask-9)"></path></g><g id="编组" transform="translate(25.522073, 0.000000)"><mask id="mask-12" fill="white"><use xlink:href="#path-11"></use></mask><g id="Clip-22"></g><path d="M3.21749652,0.327374698 C0.968774138,0.954842868 -0.346721655,3.29011571 0.27769672,5.54354488 L0.27769672,5.54354488 C0.903475484,7.79697405 3.2324608,9.11738533 5.47982279,8.48991716 L5.47982279,8.48991716 C7.72718479,7.86381305 9.04404097,5.52854021 8.4196226,3.27511104 L8.4196226,3.27511104 C7.89859376,1.39952683 6.20082876,0.171871716 4.35070024,0.171871716 L4.35070024,0.171871716 C3.97659337,0.171871716 3.59568456,0.222341982 3.21749652,0.327374698" id="Fill-21" fill="url(#radialGradient-13)" fill-rule="nonzero" mask="url(#mask-12)"></path></g><g id="编组" transform="translate(44.892824, 3.765995)"><mask id="mask-15" fill="white"><use xlink:href="#path-14"></use></mask><g id="Clip-24"></g><path d="M3.71250054,0.172049637 C1.46513854,0.798153746 0.149642748,3.13479065 0.774061123,5.38821982 L0.774061123,5.38821982 C1.39983989,7.64301305 3.7288252,8.96206027 5.9761872,8.33595616 L5.9761872,8.33595616 C8.22490958,7.70848799 9.54176576,5.37321515 8.915987,3.11978598 L8.915987,3.11978598 C8.39631855,1.24420177 6.69855355,0.0151825947 4.84706464,0.0151825947 L4.84706464,0.0151825947 C4.47295777,0.0151825947 4.09068857,0.0656528606 3.71250054,0.172049637" id="Fill-23" fill="url(#radialGradient-16)" fill-rule="nonzero" mask="url(#mask-15)"></path></g><g id="编组" transform="translate(39.451270, 28.645286)"><mask id="mask-18" fill="white"><use xlink:href="#path-17"></use></mask><g id="Clip-26"></g><path d="M4.15734762,1.02713811 C1.33998279,1.81147333 -0.308808216,4.73738469 0.476136016,7.56235551 L0.476136016,7.56235551 C1.25835947,10.3886904 4.17775344,12.0405686 6.99375788,11.2548693 L6.99375788,11.2548693 C9.81112271,10.4705341 11.4612741,7.54462272 10.6776903,4.71965189 L10.6776903,4.71965189 C10.0260641,2.37073844 7.89841631,0.830713295 5.57895372,0.830713295 L5.57895372,0.830713295 C5.10961965,0.830713295 4.63212324,0.894824173 4.15734762,1.02713811" id="Fill-25" fill="url(#radialGradient-19)" fill-rule="nonzero" mask="url(#mask-18)"></path></g></g></g></g></g></g></g></g></svg>