<svg width="16px" height="16px" viewBox="0 0 16 16" version="1.1" xmlns="http://www.w3.org/2000/svg" xmlns:xlink="http://www.w3.org/1999/xlink"><title>icon_remote</title><g id="2-表格" stroke="none" stroke-width="1" fill="none" fill-rule="evenodd"><g id="03表格" transform="translate(-834.000000, -298.000000)" fill="#000000" fill-rule="nonzero"><g id="icon_remote" transform="translate(834.000000, 298.000000)"><rect id="矩形" opacity="0" x="0" y="0" width="16" height="16"></rect><path d="M13.0971875,11.8189063 L2.9340625,11.8189063 C2.56483142,11.8189063 2.21072308,11.6722298 1.94963728,11.411144 C1.68855148,11.1500582 1.541875,10.7959498 1.541875,10.4267187 L1.541875,3.1021875 C1.541875,2.33330357 2.16517857,1.71 2.9340625,1.71 L13.0971875,1.71 C13.8660714,1.71 14.489375,2.33330357 14.489375,3.1021875 L14.489375,10.4267187 C14.489375,10.7959498 14.3426985,11.1500582 14.0816127,11.411144 C13.8205269,11.6722298 13.4664186,11.8189063 13.0971875,11.8189063 Z M13.3125,10.4898438 L13.3125,3.0390625 C13.3120702,2.96170273 13.249236,2.89921875 13.171875,2.89921875 L2.859375,2.89921875 C2.78201403,2.89921875 2.71917978,2.96170273 2.71875,3.0390625 L2.71875,10.4898438 C2.71926534,10.5671424 2.78207461,10.6295313 2.859375,10.6295313 L13.171875,10.6295313 C13.2491754,10.6295313 13.3119847,10.5671424 13.3125,10.4898438 L13.3125,10.4898438 Z" id="形状"></path><path d="M5.07609375,13.008125 L10.9551562,13.008125 C11.3495312,13.008125 11.5467187,13.2053125 11.5467187,13.5996875 L11.5467187,13.6057813 C11.5467187,14.0001563 11.3495312,14.1973438 10.9551562,14.1973438 L5.07609375,14.1973438 C4.68171875,14.1973438 4.48453125,14.0001563 4.48453125,13.6057813 L4.48453125,13.5996875 C4.48453125,13.2053125 4.68171875,13.008125 5.07609375,13.008125 Z" id="路径"></path><path d="M4.3909375,5.2778125 L4.57796875,5.2778125 C4.90796875,5.2778125 5.07296875,5.4428125 5.07296875,5.7728125 L5.07296875,8.9453125 C5.07296875,9.2753125 4.90796875,9.4403125 4.57796875,9.4403125 L4.3909375,9.4403125 C4.0609375,9.4403125 3.8959375,9.2753125 3.8959375,8.9453125 L3.8959375,5.7728125 C3.8959375,5.4428125 4.0609375,5.2778125 4.3909375,5.2778125 Z" id="路径"></path><path d="M6.83859375,7.06171875 L6.8384375,7.06171875 C7.23083333,7.06171875 7.42703125,7.25791667 7.42703125,7.6503125 L7.42703125,8.85171875 C7.42703125,9.24411458 7.23083333,9.4403125 6.8384375,9.4403125 L6.83859375,9.4403125 C6.44619792,9.4403125 6.25,9.24411458 6.25,8.85171875 L6.25,7.6503125 C6.25,7.25791667 6.44619792,7.06171875 6.83859375,7.06171875 Z" id="路径"></path><path d="M9.1928125,4.08859375 L9.19265625,4.08859375 C9.58505208,4.08859375 9.78125,4.28479167 9.78125,4.6771875 L9.78125,8.85171875 C9.78125,9.24411458 9.58505208,9.4403125 9.19265625,9.4403125 L9.1928125,9.4403125 C8.80041667,9.4403125 8.60421875,9.24411458 8.60421875,8.85171875 L8.60421875,4.6771875 C8.60421875,4.28479167 8.80041667,4.08859375 9.1928125,4.08859375 Z" id="路径"></path><path d="M11.546875,6.46703125 L11.5467188,6.46703125 C11.9391146,6.46703125 12.1353125,6.66322917 12.1353125,7.055625 L12.1353125,8.8515625 C12.1353125,9.24395833 11.9391146,9.44015625 11.5467188,9.44015625 L11.546875,9.44015625 C11.1544792,9.44015625 10.9582813,9.24395833 10.9582813,8.8515625 L10.9582813,7.055625 C10.9582813,6.66322917 11.1544792,6.46703125 11.546875,6.46703125 Z" id="路径"></path></g></g></g></svg>