<svg width="16px" height="16px" viewBox="0 0 16 16" version="1.1" xmlns="http://www.w3.org/2000/svg" xmlns:xlink="http://www.w3.org/1999/xlink"><title>icon_monitor_vnc</title><g id="2-表格" stroke="none" stroke-width="1" fill="none" fill-rule="evenodd"><g id="03表格" transform="translate(-927.000000, -350.000000)" fill-rule="nonzero"><g id="icon_monitor_vnc" transform="translate(927.000000, 350.000000)"><g id="云诊室" fill="#000000"><rect id="矩形" opacity="0" x="0" y="0" width="16" height="16"></rect><path d="M13.371875,2.3296875 L2.659375,2.3296875 C2.0359375,2.3296875 1.53125,2.834375 1.53125,3.4578125 L1.53125,10.50625 C1.53125,11.1296875 2.0359375,11.634375 2.659375,11.634375 L13.3734375,11.634375 C13.996875,11.634375 14.5015625,11.1296875 14.5015625,10.50625 L14.5015625,3.4578125 C14.5,2.834375 13.9953125,2.3296875 13.371875,2.3296875 L13.371875,2.3296875 Z" id="形状"></path><path d="M5.50258861,13 L10.4974114,13 C10.8324705,13 11,13.1971875 11,13.5915625 L11,13.5976563 C11,13.9920313 10.8324705,14.1892188 10.4974114,14.1892188 L5.50258861,14.1892188 C5.16752954,14.1892188 5,13.9920313 5,13.5976563 L5,13.5915625 C5,13.1971875 5.16752954,13 5.50258861,13 Z" id="路径"></path></g><path d="M4.86,9 L6.006,5.898 L5.262,5.898 L4.518,8.148 L3.774,5.898 L3.03,5.898 L4.176,9 L4.86,9 Z M7.08,9 L7.08,7.134 C7.104,6.888 7.188,6.696 7.332,6.564 C7.458,6.444 7.608,6.384 7.776,6.384 C8.244,6.384 8.478,6.636 8.478,7.146 L8.478,9 L9.162,9 L9.162,7.086 C9.162,6.234 8.772,5.814 7.998,5.814 C7.812,5.814 7.644,5.85 7.488,5.928 C7.338,6 7.2,6.114 7.08,6.258 L7.08,5.898 L6.396,5.898 L6.396,9 L7.08,9 Z M11.262,9.084 C11.664,9.084 11.988,8.982 12.228,8.784 C12.474,8.58 12.636,8.268 12.708,7.848 L12.03,7.848 C11.976,8.298 11.724,8.526 11.268,8.526 C11.004,8.526 10.806,8.43 10.674,8.244 C10.53,8.052 10.464,7.782 10.464,7.44 C10.464,7.104 10.536,6.84 10.68,6.654 C10.824,6.462 11.022,6.372 11.274,6.372 C11.478,6.372 11.646,6.42 11.772,6.516 C11.892,6.612 11.976,6.756 12.018,6.954 L12.696,6.954 C12.636,6.564 12.48,6.276 12.234,6.084 C11.994,5.904 11.676,5.814 11.274,5.814 C10.788,5.814 10.41,5.976 10.14,6.3 C9.888,6.594 9.762,6.978 9.762,7.446 C9.762,7.926 9.888,8.316 10.146,8.616 C10.41,8.928 10.782,9.084 11.262,9.084 Z" id="vnc" fill="#FFFFFF"></path></g></g></g></svg>