<?xml version="1.0" encoding="UTF-8"?>
<svg fill="currentColor" width="40px" height="40px" viewBox="0 0 40 40" version="1.1" xmlns="http://www.w3.org/2000/svg" xmlns:xlink="http://www.w3.org/1999/xlink">
    <title>icon_optimization</title>
    <g id="2-表格" stroke="none" stroke-width="1" fill="none" fill-rule="evenodd">
        <g id="桌面端-HD" transform="translate(-738.000000, -653.000000)">
            <g id="icon_optimization" transform="translate(738.000000, 653.000000)">
                <rect id="矩形" fill-opacity="0" fill="#FFFFFF" x="0" y="0" width="40" height="40"></rect>
                <g id="建议" transform="translate(4.000000, 4.000000)" fill-rule="nonzero">
                    <rect id="矩形" fill="currentColor" opacity="0" x="0" y="0" width="32" height="32"></rect>
                    <path d="M25.6815887,31.2970254 L5.13772974,31.2970254 C2.41516859,31.2970254 0.200259369,29.0821161 0.200259369,26.3603778 L0.200259369,5.81651879 C0.200259369,3.09395764 2.41516859,0.87987119 5.13772974,0.87987119 L24.3207195,0.87987119 C25.0587483,0.87987119 25.6569055,1.47802832 25.6569055,2.21605714 C25.6569055,2.95408595 25.0587483,3.55224309 24.3207195,3.55224309 L5.13772974,3.55224309 C3.8887579,3.55224309 2.87263127,4.56836972 2.87263127,5.81651879 L2.87263127,26.3603778 C2.87263127,27.6093496 3.8887579,28.6246535 5.13772974,28.6246535 L25.6807659,28.6246535 C26.9297378,28.6246535 27.9458644,27.6085268 27.9458644,26.3603778 L27.9458644,13.8904059 C27.9458644,13.1523771 28.5440215,12.55422 29.2820504,12.55422 C30.0200792,12.55422 30.6182363,13.1523771 30.6182363,13.8904059 L30.6182363,26.3603778 C30.6182363,29.0829389 28.4041499,31.2970254 25.6815887,31.2970254 Z" id="路径" fill="currentColor"></path>
                    <path d="M23.2601631,11.5537261 C22.8907373,11.5537261 22.5237798,11.4023355 22.2596692,11.1036684 C21.7701183,10.5515866 21.8203075,9.70741987 22.3723893,9.21786898 L29.6037552,2.80516375 C30.1550142,2.31479009 31.0016493,2.36580212 31.4895546,2.91788387 C31.9791055,3.46996563 31.9289162,4.31413237 31.3768345,4.80368325 L24.1454685,11.2163885 C23.892054,11.4426515 23.5752857,11.5537261 23.2601631,11.5537261 Z M14.3676152,11.2279073 L6.78657004,11.2279073 C6.04854122,11.2279073 5.45038409,10.6297502 5.45038409,9.89172138 C5.45038409,9.15369256 6.04854122,8.55553543 6.78657004,8.55553543 L14.3676152,8.55553543 C15.105644,8.55553543 15.7038011,9.15369256 15.7038011,9.89172138 C15.7038011,10.6297502 15.105644,11.2279073 14.3676152,11.2279073 Z M17.9302292,18.0503543 L6.78657004,18.0503543 C6.04854122,18.0503543 5.45038409,17.4521972 5.45038409,16.7141684 C5.45038409,15.9761395 6.04854122,15.3779824 6.78657004,15.3779824 L17.9294064,15.3779824 C18.6674353,15.3779824 19.2655932,15.9761395 19.2655932,16.7141684 C19.2664152,17.4521972 18.6674353,18.0503543 17.9302292,18.0503543 Z M23.2741502,24.8728013 L6.78657004,24.8728013 C6.04854122,24.8728013 5.45038409,24.2746441 5.45038409,23.5366153 C5.45038409,22.7985865 6.04854122,22.2004294 6.78657004,22.2004294 L23.2741502,22.2004294 C24.012179,22.2004294 24.6103362,22.7985865 24.6103362,23.5366153 C24.6103362,24.2746441 24.012179,24.8728013 23.2741502,24.8728013 Z" id="形状" fill="currentColor"></path>
                </g>
            </g>
        </g>
    </g>
</svg>
