<svg width="14px" height="14px" viewBox="0 0 14 14" version="1.1" xmlns="http://www.w3.org/2000/svg" xmlns:xlink="http://www.w3.org/1999/xlink"><title>icon_stop</title><g id="2-表格" stroke="none" stroke-width="1" fill="none" fill-rule="evenodd"><g id="03表格" transform="translate(-343.000000, -351.000000)" fill-rule="nonzero"><g id="编组-5" transform="translate(343.000000, 240.000000)"><g id="icon_stop" transform="translate(0.000000, 111.000000)"><rect id="矩形" fill="#000000" opacity="0" x="0" y="0" width="14" height="14"></rect><path d="M7.00156681,0 C3.15203735,0 0,3.13166118 0,7.00156681 C0,10.8510963 3.13009378,14.0015662 7,14.0015662 C10.869905,14.0015662 14,10.8714724 14,7.00156681 C14.0015662,3.15203735 10.8714724,0 7.00156681,0 Z M9.1927892,8.99686445 C9.1927892,9.13479547 9.07993654,9.24764813 8.94200552,9.24764813 L5.09561086,9.24764813 C4.95767983,9.24764813 4.84482718,9.13479547 4.84482718,8.99686445 L4.84482718,5.15046979 C4.84482718,5.01253876 4.95767983,4.89968611 5.09561086,4.89968611 L8.94357292,4.89968611 C9.08150394,4.89968611 9.19435659,5.01253876 9.19435659,5.15046979 L9.19435659,8.99686445 L9.1927892,8.99686445 Z" id="形状" fill="#D26667"></path></g></g></g></g></svg>