<svg width="150px" height="150px" viewBox="0 0 150 150" version="1.1" xmlns="http://www.w3.org/2000/svg" xmlns:xlink="http://www.w3.org/1999/xlink"><title>icon_tenant</title><defs><linearGradient x1="108.679884%" y1="60.5822097%" x2="22.014262%" y2="36.3863065%" id="linearGradient-1"><stop stop-color="#D5DFF5" offset="0%"></stop><stop stop-color="#3D7BBC" offset="100%"></stop></linearGradient><linearGradient x1="8.94097305%" y1="50%" x2="181.485769%" y2="55.4080803%" id="linearGradient-2"><stop stop-color="#ACB8ED" offset="0%"></stop><stop stop-color="#FEFEFF" stop-opacity="0.00402947337" offset="99.5970527%"></stop><stop stop-color="#FFFFFF" stop-opacity="0" offset="100%"></stop></linearGradient><radialGradient cx="13.2648784%" cy="50%" fx="13.2648784%" fy="50%" r="86.7351216%" id="radialGradient-3"><stop stop-color="#ECDEF8" offset="0%"></stop><stop stop-color="#ABC4F1" offset="100%"></stop></radialGradient></defs><g id="2-表格" stroke="none" stroke-width="1" fill="none" fill-rule="evenodd"><g id="02广电运通框架-管理员角色" transform="translate(-34.000000, -127.000000)"><g id="01-3内存总量" transform="translate(20.000000, 80.000000)"><g id="icon_tenant" transform="translate(14.000000, 47.000000)"><rect id="矩形" fill="#D8D8D8" opacity="0" x="0" y="0" width="150" height="150"></rect><g id="编组-74" transform="translate(31.193111, 18.076713)"><path d="M92.4904607,83.6225668 L49.1065116,108.803698 C48.4504216,109.188562 47.5938597,109.371831 46.7372978,109.371831 C45.8807359,109.371831 45.0332864,109.188562 44.3771964,108.812861 L0.984134951,83.6225668 C0.328044984,83.2377024 0,82.7428766 0,82.2480509 C0,81.7440618 0.328044984,81.249236 0.984134951,80.873535 L7.87307961,76.8782755 L44.368084,55.6832404 C45.6711516,54.9226749 47.7943316,54.9226749 49.1065116,55.6832404 L92.4904607,80.873535 C93.7935282,81.624937 93.7935282,82.8620013 92.4904607,83.6225668" id="Fill-41" fill="#DCEEFF"></path><path d="M46.7373889,99.4384798 L46.7373889,109.371648 C45.880827,109.371648 45.0333775,109.188379 44.3772875,108.812678 L0.984226074,83.6223835 C0.328136107,83.2375191 9.11236057e-05,82.7426934 9.11236057e-05,82.2478676 L9.11236057e-05,73.6433981 C9.11236057e-05,73.286024 0.173225976,72.9194864 0.519495681,72.6079295 L7.87317073,76.8780922 L46.7373889,99.4384798 Z" id="Fill-43" fill="#CCE1FD"></path><path d="M46.7373889,99.4384798 L46.7373889,109.371648 C47.5939508,109.371648 48.4414004,109.188379 49.0974903,108.812678 L92.4905518,83.6223835 C93.1466417,83.2375191 93.4746867,82.7426934 93.4746867,82.2478676 L93.4746867,73.6433981 C93.4746867,73.286024 93.3015519,72.9194864 92.9552822,72.6079295 L85.6016071,76.8780922 L46.7373889,99.4384798 Z" id="Fill-45" fill="#ACC9F0"></path><path d="M92.4904607,75.0180057 L49.1065116,100.2083 C48.4504216,100.593165 47.5938597,100.776434 46.7372978,100.776434 C45.8807359,100.776434 45.024174,100.593165 44.368084,100.2083 L0.984134951,75.0180057 C0.328044984,74.6423047 0,74.1474789 0,73.6434898 C0,73.2861156 0.173134852,72.9195781 0.519404557,72.6080211 C0.646977607,72.4888964 0.801887738,72.3697717 0.984134951,72.2689739 L44.368084,47.0878427 C45.6711516,46.3272772 47.7943316,46.3272772 49.1065116,47.0878427 L92.4904607,72.2689739 C93.7935282,73.0295393 93.7935282,74.2666036 92.4904607,75.0180057" id="Fill-47" fill="#F9FAFF"></path><path d="M45.1569411,53.0735845 L11.2990538,72.7309945 C10.4270009,73.2368163 10.4270009,74.0578605 11.2990538,74.5636823 L45.1569411,94.2210923 C46.0299052,94.7278305 47.4423211,94.7278305 48.3143741,94.2210923 L82.1722613,74.5636823 C83.043403,74.0578605 83.043403,73.2368163 82.1722613,72.7309945 L48.3134628,53.0735845 C47.4423211,52.5668463 46.028994,52.5668463 45.1569411,53.0735845" id="Fill-51" fill="url(#linearGradient-1)"></path><path d="M82.1718968,72.7311778 L48.3140096,53.0737678 C47.8775275,52.8199405 47.3061825,52.693485 46.7348375,52.693485 L46.7348375,54.3071667 L81.8994372,74.7214768 L82.1718968,74.5638656 C83.0439497,74.0580438 83.0439497,73.2369996 82.1718968,72.7311778" id="Fill-53" fill="#6B9AD1"></path><path d="M46.7355665,52.6937599 C46.1642214,52.6937599 45.5928764,52.8202154 45.1573056,53.0740427 L11.2985071,72.7314527 C10.4273654,73.2372745 10.4273654,74.0574023 11.2985071,74.5641405 L11.5718779,74.7217517 L46.7355665,54.3065253 L46.7355665,52.6937599 Z" id="Fill-55" fill="#6B9AD1"></path><g id="编组-68" transform="translate(16.806889, 0.000000)"><polygon id="Fill-57" fill="#FDDABF" points="19 53.2363481 29.9963896 61.923287 30 15.6077574 19 6.92328702"></polygon><polygon id="Fill-59" fill="#F1AB76" points="30 61.923287 41 53.236543 40.9963905 6.92328702 30.0036095 15.6087968"></polygon><polygon id="Fill-61" fill="#FFF5EE" points="40.9963905 6.92328702 29.613201 0 19 6.92328702 30 15.6077574"></polygon><polygon id="Fill-67" fill="#FDDABF" points="38 70.0991342 48.995487 76.923287 48.995487 35.6248949 38 27.423287"></polygon><polygon id="Fill-69" fill="#F1AB76" points="48.995487 76.923287 60 70.1464925 61 27.423287 49 35.6248949"></polygon><polygon id="Fill-71" fill="#FFF5EE" points="61 27.4244949 49.5 20.8456295 38 27.4244949 48.995487 35.6248949"></polygon><polygon id="Fill-77" fill="#FDDABF" points="0 69.850003 11.9960614 76.923287 11.5 30.923287 0 21.923287"></polygon><polygon id="Fill-79" fill="#F1AB76" points="12 76.923287 23 68.236543 23 22.423287 11.5 30.923287"></polygon><polygon id="Fill-81" fill="#FFF5EE" points="23 22.4244949 11.4981123 13.923287 0 22.4244949 11.5018877 30.923287"></polygon><g id="编组-4" transform="translate(19.000000, 35.923287)"><polygon id="Fill-87" fill="#FDDABF" points="0 44.9397655 11.496178 51.9998768 11.5008965 17.3341955 0 8.6680831"></polygon><polygon id="Fill-89" fill="#F1AB76" points="11.4962724 52 23 44.7644259 22.9962252 8.66820627 11.5000472 17.3343187"></polygon><polygon id="Fill-91" fill="#FFF5EE" points="22.9963196 8.66857577 11.4963667 0 0.000188740404 8.66857577 11.5001416 17.3346882"></polygon></g></g></g><g id="编组-3" transform="translate(8.895349, 76.000000)"><polyline id="路径" stroke="url(#linearGradient-2)" stroke-width="1.046875" points="5.4145897 36.2180431 18.2089917 29.6246673 69 59.431824 132.412482 21.6151374 101.095802 1.6002127"></polyline><circle id="椭圆形备份-6" fill="url(#radialGradient-3)" fill-rule="nonzero" cx="4" cy="37" r="4"></circle><circle id="椭圆形备份-7" fill="url(#radialGradient-3)" fill-rule="nonzero" cx="69" cy="58" r="3"></circle><circle id="椭圆形备份-9" fill="url(#radialGradient-3)" fill-rule="nonzero" cx="102.5" cy="2.5" r="2.5"></circle></g></g></g></g></g></svg>