<svg width="24px" height="24px" viewBox="0 0 24 24" version="1.1" xmlns="http://www.w3.org/2000/svg" xmlns:xlink="http://www.w3.org/1999/xlink"><title>icon_next</title><g id="页面-1" stroke="none" stroke-width="1" fill="none" fill-rule="evenodd"><g id="交互状态和切图" transform="translate(-20.000000, -334.000000)" fill-rule="nonzero"><g id="icon_next" transform="translate(32.000000, 346.000000) scale(-1, -1) translate(-32.000000, -346.000000) translate(20.000000, 334.000000)"><rect id="矩形" fill-opacity="0.01" fill="#FFFFFF" x="0" y="0" width="24" height="24"></rect><path d="M14.2928932,5.29289322 C14.6834175,4.90236893 15.3165825,4.90236893 15.7071068,5.29289322 C16.0675907,5.65337718 16.0953203,6.22060824 15.7902954,6.61289944 L15.7071068,6.70710678 L10.415,12 L15.7071068,17.2928932 C16.0675907,17.6533772 16.0953203,18.2206082 15.7902954,18.6128994 L15.7071068,18.7071068 C15.3466228,19.0675907 14.7793918,19.0953203 14.3871006,18.7902954 L14.2928932,18.7071068 L8.29289322,12.7071068 C7.93240926,12.3466228 7.90467972,11.7793918 8.20970461,11.3871006 L8.29289322,11.2928932 L14.2928932,5.29289322 Z" id="路径" fill="#B0B8CD"></path></g></g></g></svg>