<svg fill="currentColor" width="14px" height="14px" viewBox="0 0 14 14" version="1.1" xmlns="http://www.w3.org/2000/svg" xmlns:xlink="http://www.w3.org/1999/xlink"><title>icon_decline</title><g id="页面-1" stroke="none" stroke-width="1" fill="none" fill-rule="evenodd"><g id="交互状态和切图" transform="translate(-330.000000, -338.000000)"><g id="icon_decline" transform="translate(330.000000, 338.000000)"><g id="shangsheng" transform="translate(3.000000, 1.000000)" fill="currentColor" fill-rule="nonzero"><path d="M4.70120534,0.0944624418 L8.93431629,5.14870509 C9.00289438,5.23029783 9.01931042,5.34615205 8.97628762,5.44491265 C8.93326482,5.54367325 8.83876236,5.60706958 8.73467068,5.60699976 L6.65398903,5.60699976 C6.52167695,5.60581321 6.40927648,5.70759207 6.39195416,5.84427289 C6.23598102,7.02088757 5.29390327,12.2246448 0.833071548,12.9949699 C0.713166847,13.0190859 0.592960396,12.9547551 0.541926552,12.8391582 C0.490892709,12.7235612 0.522230761,12.5865959 0.617828612,12.5074223 C1.38209699,11.8833615 2.38032506,10.6742437 2.66107671,8.52253393 C2.76886175,7.64841627 2.82096682,6.76782022 2.81704985,5.886527 C2.81708883,5.7328571 2.69933988,5.60728208 2.55189552,5.60374944 L0.265329323,5.60374944 C0.161237637,5.60381927 0.0667351843,5.54042293 0.0237123837,5.44166233 C-0.0193104169,5.34290173 -0.00289437682,5.22704752 0.0656837108,5.14545477 L4.30191412,0.0944624418 C4.35226561,0.0344369913 4.42504792,0 4.50155973,0 C4.57807154,0 4.65085385,0.0344369913 4.70120534,0.0944624418 Z" id="路径" transform="translate(4.500000, 6.500000) scale(1, -1) translate(-4.500000, -6.500000) "></path></g><rect id="矩形" fill-opacity="0" fill="currentColor" transform="translate(7.000000, 7.000000) scale(1, -1) translate(-7.000000, -7.000000) " x="0" y="0" width="14" height="14"></rect></g></g></g></svg>