<svg width="20px" height="20px" viewBox="0 0 20 20" version="1.1" xmlns="http://www.w3.org/2000/svg" xmlns:xlink="http://www.w3.org/1999/xlink"><title>icon_notice</title><g id="页面-1" stroke="none" stroke-width="1" fill="none" fill-rule="evenodd"><g id="交互状态和切图" transform="translate(-25.000000, -100.000000)"><g id="编组-28" transform="translate(20.000000, 93.000000)"><g id="icon_notice" transform="translate(5.000000, 7.000000)"><path d="M18.1696404,14.6318603 L17.0089213,14.6318603 L17.0089213,8.81369139 C17.0089213,5.48975096 14.4472248,2.73802978 11.2053596,2.44157226 L11.2053596,1.83184082 C11.2053596,1.51181641 10.944202,1.25 10.625,1.25 C10.305798,1.25 10.0446404,1.51181641 10.0446404,1.83182373 L10.0446404,2.44157226 C6.80277517,2.73801269 4.24107873,5.48971679 4.24107873,8.8136743 L4.24107873,14.6318603 L3.08035958,14.6318603 C2.75983583,14.6318603 2.5,14.8923517 2.5,15.213684 C2.5,15.5350164 2.75983583,15.7955078 3.08035958,15.7955078 L18.1696404,15.7955078 C18.4901642,15.7955078 18.75,15.5350164 18.75,15.213684 C18.75,14.8923517 18.4901642,14.6318603 18.1696404,14.6318603 L18.1696404,14.6318603 Z M10.625,18.75 C11.089169,18.750077 11.5343489,18.5652556 11.8625659,18.2362105 C12.1907829,17.9071654 12.3751393,17.4608624 12.3750624,16.9955224 L8.87493756,16.9955224 C8.8748607,17.4608624 9.05921706,17.9071654 9.38743409,18.2362105 C9.71565113,18.5652556 10.160831,18.750077 10.625,18.75 L10.625,18.75 Z" id="形状" fill="#B0B8CD" fill-rule="nonzero"></path><rect id="矩形" fill-opacity="0" fill="#D8D8D8" x="0" y="0" width="20" height="20"></rect></g></g></g></g></svg>