<svg width="14px" height="14px" viewBox="0 0 14 14" version="1.1" xmlns="http://www.w3.org/2000/svg" xmlns:xlink="http://www.w3.org/1999/xlink"><title>icon_reboot</title><g id="2-表格" stroke="none" stroke-width="1" fill="none" fill-rule="evenodd"><g id="03表格" transform="translate(-495.000000, -187.000000)" fill="#000000" fill-rule="nonzero"><g id="编组-11" transform="translate(485.000000, 178.000000)"><g id="icon_reboot" transform="translate(10.000000, 9.000000)"><rect id="矩形" opacity="0" x="0" y="0" width="14" height="14"></rect><path d="M7,6.95597484 C7.2625,6.95597484 7.525,6.6918239 7.525,6.42767296 L7.525,0.528301887 C7.525,0.264150943 7.2625,0 7,0 C6.7375,0 6.475,0.264150943 6.475,0.528301887 L6.475,6.42767296 C6.475,6.6918239 6.65,6.95597484 7,6.95597484 Z M10,2 C10.5522847,2 11,1.55228475 11,1 C11,0.44771525 10.5522847,0 10,0 C9.44771525,0 9,0.44771525 9,1 C9,1.55228475 9.44771525,2 10,2 Z M12.775,3.08176101 C12.6,2.81761006 12.25,2.72955975 11.9875,2.90566038 C11.9,2.99371069 11.8125,3.08176101 11.725,3.25786164 C11.725,3.43396226 11.725,3.52201258 11.8125,3.69811321 C12.425,4.66666667 12.775,5.81132075 12.775,6.95597484 C12.775,10.2141075 10.1502693,12.8553459 6.9125,12.8553459 C3.67473065,12.8553459 1.05,10.2141075 1.05,6.95597484 C1.05,4.75471698 2.275,2.72955975 4.2,1.67295597 C4.4625,1.49685535 4.55,1.2327044 4.4625,0.968553459 C4.2875,0.704402516 4.025,0.616352201 3.7625,0.704402516 C1.4,1.93710692 0,4.31446541 0,6.95597484 C0,10.8301887 3.15,14 7,14 C10.85,14 14,10.8301887 14,6.95597484 C14,5.63522013 13.5625,4.22641509 12.775,3.08176101 L12.775,3.08176101 Z" id="形状"></path></g></g></g></g></svg>