<?xml version="1.0" standalone="no"?>
<!DOCTYPE svg PUBLIC "-//W3C//DTD SVG 20010904//EN"
 "http://www.w3.org/TR/2001/REC-SVG-20010904/DTD/svg10.dtd">
<svg version="1.0" xmlns="http://www.w3.org/2000/svg"
 width="463.000000pt" height="378.000000pt" viewBox="0 0 463.000000 378.000000"
 preserveAspectRatio="xMidYMid meet">

<g transform="translate(0.000000,378.000000) scale(0.100000,-0.100000)"
fill="#2776FF" stroke="none">
<path d="M2515 3415 c-38 -7 -88 -14 -110 -14 -39 -1 -106 -19 -173 -47 -18
-8 -39 -14 -46 -14 -8 0 -19 -6 -25 -14 -7 -8 -24 -17 -39 -21 -15 -4 -51 -27
-81 -51 -29 -24 -60 -44 -69 -44 -27 0 -166 -120 -188 -162 -8 -15 -22 -29
-31 -33 -17 -6 -93 -96 -93 -110 0 -4 -13 -23 -30 -42 -16 -18 -30 -42 -30
-52 0 -10 -7 -24 -15 -31 -8 -7 -15 -19 -15 -27 0 -8 -11 -24 -25 -37 -26 -24
-62 -119 -67 -175 -3 -32 -2 -33 85 -67 49 -18 93 -34 99 -34 6 0 27 -13 48
-30 47 -37 58 -38 66 -2 11 52 37 117 65 165 16 26 29 53 29 61 0 7 7 19 15
26 8 7 15 19 15 27 0 7 19 32 43 54 23 22 47 44 52 50 141 146 128 137 339
234 137 63 312 89 431 65 33 -6 76 -15 95 -19 20 -4 67 -22 105 -40 39 -19 86
-40 105 -49 19 -8 42 -19 50 -23 8 -5 24 -13 35 -18 32 -14 114 -91 130 -121
8 -15 25 -30 37 -34 13 -3 39 -29 58 -57 19 -29 40 -57 46 -64 7 -6 22 -34 34
-61 12 -27 28 -63 36 -81 8 -17 14 -39 14 -48 0 -9 11 -31 24 -48 14 -18 27
-44 30 -59 3 -16 8 -39 11 -52 4 -19 13 -25 49 -30 25 -4 61 -18 81 -32 20
-13 44 -24 55 -24 10 0 31 -10 47 -22 15 -13 43 -33 61 -46 l32 -23 0 73 c-1
102 -33 273 -64 338 -14 30 -26 62 -26 71 0 9 -7 30 -15 45 -8 16 -15 37 -15
46 0 9 -13 26 -29 37 -16 12 -32 32 -35 46 -10 40 -66 126 -113 174 -23 25
-45 53 -49 63 -3 10 -11 18 -18 18 -7 0 -33 23 -57 51 -42 49 -134 119 -157
119 -5 0 -32 17 -59 39 -27 21 -60 42 -74 46 -13 4 -37 15 -54 25 -73 44 -364
102 -495 99 -30 0 -86 -7 -125 -14z"/>
<path d="M1153 2405 c-45 -7 -105 -25 -133 -39 -28 -14 -60 -26 -70 -26 -10 0
-25 -7 -34 -15 -8 -8 -23 -15 -34 -15 -11 0 -31 -9 -45 -20 -14 -11 -28 -20
-31 -20 -11 0 -145 -142 -151 -159 -2 -9 -14 -21 -26 -26 -12 -6 -37 -39 -55
-74 -19 -35 -39 -70 -45 -77 -33 -40 -63 -253 -56 -399 4 -93 28 -220 48 -255
4 -8 25 -47 46 -87 20 -39 48 -77 60 -84 13 -7 37 -34 53 -60 17 -28 50 -61
82 -83 30 -19 64 -46 78 -61 13 -14 31 -25 41 -25 9 0 22 -7 29 -15 7 -8 18
-15 25 -15 6 0 41 -15 76 -32 l64 -33 200 0 c161 0 209 4 246 17 73 27 112 54
152 108 20 27 55 61 77 75 22 14 40 29 40 34 0 5 19 29 43 54 23 25 60 64 82
88 23 24 52 54 65 65 27 24 123 129 166 182 14 17 33 32 42 32 10 1 30 21 46
46 15 24 46 59 67 76 21 17 39 36 39 43 0 6 14 22 31 35 18 14 46 40 63 59
152 164 149 153 76 249 -38 51 -86 74 -151 74 -59 0 -88 -13 -141 -62 -80 -75
-134 -132 -180 -192 -28 -38 -55 -68 -59 -68 -10 0 -18 -8 -114 -115 -38 -43
-78 -85 -88 -94 -53 -49 -100 -99 -112 -123 -8 -15 -23 -29 -32 -32 -10 -3
-25 -18 -34 -33 -16 -28 -49 -51 -148 -99 -51 -25 -61 -26 -181 -22 -73 2
-133 8 -141 14 -8 6 -25 14 -39 17 -48 12 -143 117 -193 215 -43 84 -47 98
-47 162 0 63 5 80 47 169 29 61 56 105 70 112 12 7 25 21 29 31 3 10 18 26 32
36 15 9 31 22 35 29 4 7 16 13 25 13 10 0 22 4 28 10 21 21 162 33 252 21 l87
-11 30 35 c17 19 35 35 40 35 21 0 195 192 195 215 0 14 -80 55 -105 55 -7 0
-18 6 -24 14 -6 7 -39 20 -73 29 -159 41 -219 44 -365 22z"/>
<path d="M3225 2214 c-39 -5 -141 -40 -159 -56 -6 -4 -16 -8 -24 -8 -45 0
-339 -270 -383 -352 -5 -10 -16 -18 -24 -18 -7 0 -24 -15 -36 -32 -27 -39
-148 -169 -201 -215 -7 -6 -42 -44 -78 -84 -60 -67 -90 -98 -163 -168 -15 -14
-30 -34 -33 -43 -3 -10 -9 -18 -14 -18 -12 0 -70 -53 -70 -65 0 -5 -15 -25
-33 -42 -17 -18 -45 -46 -62 -62 -127 -127 -155 -157 -155 -168 0 -8 -15 -22
-33 -33 -34 -20 -72 -74 -63 -89 3 -4 104 -9 224 -10 206 -1 220 0 242 19 13
11 29 20 37 20 7 0 13 3 13 8 0 23 156 199 204 230 6 4 24 23 40 42 15 19 75
85 132 145 167 176 308 324 393 413 44 46 83 92 86 102 3 10 15 22 26 25 11 4
39 24 61 45 73 67 213 87 350 50 73 -20 158 -95 195 -171 54 -111 71 -201 48
-255 -8 -20 -15 -46 -15 -57 0 -30 -65 -141 -96 -163 -14 -10 -38 -28 -53 -40
-41 -33 -61 -41 -138 -54 -104 -17 -198 -1 -269 46 -30 20 -54 40 -54 45 0 5
-7 9 -16 9 -9 0 -32 10 -51 21 -49 30 -103 22 -175 -26 -52 -35 -56 -41 -62
-86 -4 -26 -4 -60 -1 -74 3 -14 7 -36 10 -50 3 -14 11 -25 18 -25 12 0 33 -19
97 -84 14 -15 34 -29 45 -33 11 -3 35 -18 54 -32 36 -27 96 -44 216 -62 77
-12 292 -4 310 11 6 5 30 12 53 16 24 4 59 20 79 35 20 16 45 29 56 29 27 0
249 225 266 270 7 19 17 42 22 50 36 60 48 96 59 175 28 197 -1 377 -81 505
-5 8 -14 27 -20 42 -6 15 -19 30 -30 33 -11 4 -26 18 -34 33 -33 63 -130 139
-250 195 -44 21 -88 43 -99 49 -19 10 -292 19 -361 12z"/>
</g>
</svg>
