<svg xmlns="http://www.w3.org/2000/svg" viewBox="0 0 1024 1024" version="1.1"><path d="M864 384H64v452.8c0 14.944 12.416 27.2 27.936 27.2H464a32 32 0 0 1 0 64H91.936C41.216 928 0 887.264 0 836.8V187.2C0 136.736 41.216 96 91.936 96h744.128C886.784 96 928 136.736 928 187.2v269.344a32 32 0 0 1-64 0V384z m0-64V187.2a27.552 27.552 0 0 0-27.936-27.2H91.936A27.552 27.552 0 0 0 64 187.2V320h800zM160 544a32 32 0 0 1 0-64h256a32 32 0 0 1 0 64H160z m800 224c0-87.776-78.272-160-176-160S608 680.224 608 768s78.272 160 176 160 176-72.224 176-160z m64 0c0 124.288-108 224-240 224S544 892.288 544 768s108-224 240-224 240 99.712 240 224z"></path></svg>