<svg t="1745221600505" class="icon" viewBox="0 0 1024 1024" version="1.1" xmlns="http://www.w3.org/2000/svg" p-id="34860" width="200" height="200"><path d="M813.681778 124.984889a426.666667 426.666667 0 0 1 0 603.363555L552.220444 989.866667a56.888889 56.888889 0 0 1-80.440888 0l-261.461334-261.461334A426.666667 426.666667 0 0 1 813.681778 124.984889zM512 186.595556a48.014222 48.014222 0 0 0-48.014222 48.014222v143.985778H320l-6.485333 0.455111a48.014222 48.014222 0 0 0 6.485333 95.573333h143.985778v143.985778l0.455111 6.485333a48.014222 48.014222 0 0 0 95.573333-6.485333V474.624h143.985778l6.485333-0.398222a48.014222 48.014222 0 0 0-6.485333-95.573334H559.957333V234.666667l-0.398222-6.485334a48.014222 48.014222 0 0 0-47.559111-41.528889z" p-id="34861"></path></svg>
