<svg viewBox="0 0 1024 1024" version="1.1" xmlns="http://www.w3.org/2000/svg" xmlns:xlink="http://www.w3.org/1999/xlink" width="200" height="200"><path d="M1024 508.586667c0-39.770505-24.151919-77.420606-70.231919-109.950707 46.08-32.581818 70.231919-70.180202 70.231919-109.950707 0-119.621818-224.91798-213.281616-512-213.281617C224.91798 75.351919 0 169.063434 0 288.633535 0 328.40404 24.151919 366.054141 70.231919 398.584242 24.151919 431.217778 0 468.816162 0 508.586667c0 39.770505 24.151919 77.420606 70.231919 109.950707C24.151919 651.119192 0 688.769293 0 728.539798c0 119.621818 224.91798 213.281616 512 213.281616s512-93.659798 512-213.281616c0-39.770505-24.151919-77.420606-70.231919-109.950707 46.08-32.581818 70.231919-70.180202 70.231919-110.002424zM40.96 288.633535C40.96 204.955152 230.244848 115.329293 512 115.329293s471.04 89.625859 471.04 173.304242c0 40.391111-41.994343 72.714343-77.213737 92.677172-89.005253 50.47596-236.24404 80.627071-393.826263 80.627071s-304.872727-30.151111-393.826263-80.627071c-35.219394-19.962828-77.213737-52.234343-77.213737-92.677172z m942.08 439.906263c0 83.678384-189.284848 173.304242-471.04 173.304242S40.96 812.218182 40.96 728.539798c0-36.667475 34.598788-66.663434 67.335758-86.833131 0.72404 0.36202 1.448081 0.775758 2.172121 1.137777 0.413737 0.206869 0.879192 0.465455 1.292929 0.672324 1.137778 0.568889 2.327273 1.189495 3.465051 1.758384 0.413737 0.206869 0.827475 0.413737 1.189495 0.620606 1.189495 0.620606 2.430707 1.189495 3.671919 1.810101 0.36202 0.155152 0.72404 0.36202 1.08606 0.517171l3.878788 1.861818 0.930909 0.465455c1.396364 0.672323 2.792727 1.292929 4.240808 1.965253 0.206869 0.103434 0.465455 0.206869 0.672324 0.310303 1.551515 0.72404 3.10303 1.396364 4.654545 2.120404l0.310303 0.155151c11.894949 5.275152 24.462222 10.24 37.598384 14.946263 0.103434 0.051717 0.155152 0.051717 0.258586 0.103434 1.758384 0.620606 3.568485 1.241212 5.326868 1.861818 0.206869 0.051717 0.465455 0.155152 0.672324 0.206869l4.964848 1.706667c0.310303 0.103434 0.620606 0.206869 0.982626 0.310303 1.603232 0.517172 3.154747 1.034343 4.75798 1.603232 0.413737 0.103434 0.775758 0.258586 1.189495 0.36202 1.551515 0.517172 3.051313 0.982626 4.602828 1.499798 0.465455 0.155152 0.879192 0.258586 1.344647 0.413738l4.499394 1.396363c0.517172 0.155152 0.982626 0.310303 1.499798 0.465455 1.499798 0.465455 2.947879 0.879192 4.447677 1.344646 0.517172 0.155152 1.034343 0.310303 1.603232 0.465455 1.448081 0.413737 2.947879 0.879192 4.39596 1.292929 0.568889 0.155152 1.086061 0.310303 1.654949 0.465455 1.448081 0.413737 2.896162 0.827475 4.39596 1.241212l1.706666 0.465454c1.448081 0.413737 2.896162 0.827475 4.39596 1.189495 0.568889 0.155152 1.189495 0.310303 1.810101 0.465455 1.448081 0.413737 2.896162 0.775758 4.39596 1.189495 0.620606 0.155152 1.189495 0.310303 1.810101 0.465454 1.448081 0.36202 2.947879 0.775758 4.395959 1.137778l1.861818 0.465455c1.499798 0.36202 2.947879 0.72404 4.447677 1.137777l1.861818 0.465455 4.499394 1.08606 1.861818 0.465455c1.499798 0.36202 3.051313 0.72404 4.551111 1.086061 0.620606 0.155152 1.241212 0.310303 1.861819 0.413737 1.551515 0.36202 3.10303 0.72404 4.654545 1.034343 0.620606 0.155152 1.189495 0.258586 1.810101 0.413738 1.603232 0.36202 3.154747 0.672323 4.75798 1.034343 0.568889 0.103434 1.189495 0.258586 1.758384 0.36202 1.654949 0.36202 3.258182 0.672323 4.913131 1.034344 0.568889 0.103434 1.086061 0.206869 1.65495 0.36202 1.706667 0.36202 3.413333 0.672323 5.12 1.034344 0.517172 0.103434 0.982626 0.206869 1.499798 0.310303 1.810101 0.36202 3.568485 0.72404 5.378585 1.034343 0.413737 0.103434 0.827475 0.155152 1.241213 0.258586 1.965253 0.36202 3.930505 0.72404 5.895757 1.137778l0.775758 0.155151c11.326061 2.120404 22.807273 4.033939 34.443636 5.792323 0.36202 0.051717 0.672323 0.103434 1.034343 0.155152 1.965253 0.310303 3.930505 0.568889 5.895758 0.879192 0.568889 0.103434 1.137778 0.155152 1.706667 0.258586 1.758384 0.258586 3.516768 0.517172 5.275151 0.72404 0.72404 0.103434 1.396364 0.206869 2.120404 0.310303 1.654949 0.206869 3.258182 0.465455 4.913132 0.672323 0.775758 0.103434 1.603232 0.206869 2.37899 0.310303 1.551515 0.206869 3.10303 0.413737 4.654545 0.568889 0.879192 0.103434 1.706667 0.206869 2.585859 0.310303 1.499798 0.206869 2.999596 0.36202 4.499393 0.517172 0.930909 0.103434 1.810101 0.206869 2.741011 0.310303 1.448081 0.155152 2.896162 0.36202 4.395959 0.517172 0.930909 0.103434 1.913535 0.206869 2.844445 0.310303 1.448081 0.155152 2.844444 0.310303 4.292525 0.465454l2.947879 0.310303c1.396364 0.155152 2.844444 0.310303 4.240808 0.413738 0.982626 0.103434 2.01697 0.206869 2.999596 0.310303 1.396364 0.155152 2.792727 0.258586 4.189091 0.413737l3.10303 0.310303c1.396364 0.103434 2.74101 0.258586 4.137374 0.36202 1.034343 0.103434 2.120404 0.206869 3.154747 0.258586 1.396364 0.103434 2.74101 0.206869 4.137374 0.36202 1.086061 0.103434 2.120404 0.155152 3.206465 0.258586 1.344646 0.103434 2.74101 0.206869 4.085656 0.310303 1.086061 0.103434 2.172121 0.155152 3.258182 0.258586 1.344646 0.103434 2.74101 0.206869 4.085656 0.310303 1.086061 0.051717 2.172121 0.155152 3.309899 0.206869 1.344646 0.103434 2.689293 0.155152 4.085657 0.258586 1.086061 0.051717 2.223838 0.155152 3.309899 0.206868 1.344646 0.103434 2.74101 0.155152 4.085657 0.258586 1.086061 0.051717 2.223838 0.103434 3.309899 0.206869 1.344646 0.051717 2.74101 0.155152 4.085656 0.206869 1.137778 0.051717 2.223838 0.103434 3.361616 0.155151 1.344646 0.051717 2.74101 0.103434 4.085657 0.206869 1.137778 0.051717 2.223838 0.103434 3.361616 0.155151 1.396364 0.051717 2.74101 0.103434 4.137374 0.155152 1.086061 0.051717 2.223838 0.103434 3.309899 0.103434l4.189091 0.155152c1.086061 0.051717 2.223838 0.051717 3.309899 0.103434 1.396364 0.051717 2.844444 0.103434 4.240808 0.103434 1.086061 0.051717 2.172121 0.051717 3.258182 0.103435 1.448081 0.051717 2.896162 0.051717 4.344242 0.103434 1.034343 0 2.120404 0.051717 3.154747 0.051717 1.499798 0.051717 3.051313 0.051717 4.551112 0.051717 0.982626 0 1.965253 0.051717 2.999596 0.051718 1.706667 0 3.361616 0.051717 5.068282 0.051717h20.066263c1.706667 0 3.361616-0.051717 5.068283-0.051717 0.982626 0 1.965253-0.051717 2.999596-0.051718 1.499798 0 3.051313-0.051717 4.551111-0.051717 1.034343 0 2.120404-0.051717 3.154747-0.051717 1.448081-0.051717 2.896162-0.051717 4.344243-0.103434 1.086061-0.051717 2.172121-0.051717 3.258182-0.103435 1.396364-0.051717 2.844444-0.051717 4.240808-0.103434 1.086061-0.051717 2.223838-0.051717 3.309899-0.103434l4.189091-0.155152c1.086061-0.051717 2.223838-0.103434 3.309899-0.103434 1.396364-0.051717 2.74101-0.103434 4.137373-0.155152 1.137778-0.051717 2.223838-0.103434 3.361616-0.155151 1.344646-0.051717 2.74101-0.103434 4.085657-0.206869 1.137778-0.051717 2.223838-0.103434 3.361616-0.155151 1.344646-0.051717 2.74101-0.155152 4.085657-0.206869 1.137778-0.051717 2.223838-0.103434 3.361616-0.206869 1.344646-0.051717 2.74101-0.155152 4.085656-0.258586 1.086061-0.051717 2.223838-0.155152 3.309899-0.206868 1.344646-0.103434 2.74101-0.155152 4.085657-0.258586 1.086061-0.051717 2.172121-0.155152 3.309899-0.206869 1.344646-0.103434 2.74101-0.206869 4.085657-0.310303 1.086061-0.103434 2.172121-0.155152 3.258181-0.258586 1.344646-0.103434 2.74101-0.206869 4.085657-0.310303 1.086061-0.103434 2.120404-0.155152 3.206465-0.258586 1.396364-0.103434 2.74101-0.206869 4.137373-0.36202 1.034343-0.103434 2.120404-0.155152 3.154748-0.258586 1.396364-0.103434 2.74101-0.258586 4.137374-0.36202l3.10303-0.310303c1.396364-0.155152 2.792727-0.258586 4.189091-0.413737 0.982626-0.103434 2.01697-0.206869 2.999596-0.310303 1.396364-0.155152 2.844444-0.310303 4.240808-0.413738l2.947879-0.310303c1.448081-0.155152 2.896162-0.310303 4.292525-0.465454 0.930909-0.103434 1.913535-0.206869 2.844444-0.310303 1.448081-0.155152 2.896162-0.310303 4.39596-0.517172 0.930909-0.103434 1.810101-0.206869 2.74101-0.310303 1.499798-0.155152 2.999596-0.36202 4.499394-0.517172 0.879192-0.103434 1.706667-0.206869 2.585859-0.310303 1.551515-0.206869 3.10303-0.413737 4.654545-0.568889 0.775758-0.103434 1.603232-0.206869 2.37899-0.310303 1.654949-0.206869 3.258182-0.413737 4.913131-0.672323 0.72404-0.103434 1.396364-0.206869 2.120404-0.258586 1.758384-0.258586 3.516768-0.517172 5.275152-0.72404 0.568889-0.103434 1.137778-0.155152 1.654949-0.258586 1.965253-0.310303 3.982222-0.568889 5.947475-0.879192 0.310303-0.051717 0.672323-0.103434 0.982626-0.155151 11.688081-1.758384 23.169293-3.671919 34.495354-5.792324 0.258586-0.051717 0.465455-0.103434 0.72404-0.155151 2.01697-0.36202 3.982222-0.72404 5.947475-1.137778 0.413737-0.051717 0.775758-0.155152 1.189495-0.258586l5.430303-1.08606c0.465455-0.103434 0.982626-0.206869 1.448081-0.310303 1.706667-0.36202 3.465051-0.672323 5.171717-1.034344 0.517172-0.103434 1.034343-0.206869 1.603232-0.310303 1.654949-0.36202 3.309899-0.672323 4.964849-1.034343 0.568889-0.103434 1.137778-0.258586 1.706666-0.362021 1.603232-0.36202 3.206465-0.72404 4.809697-1.034343 0.568889-0.155152 1.189495-0.258586 1.758384-0.413737 1.551515-0.36202 3.154747-0.72404 4.706263-1.086061 0.620606-0.155152 1.189495-0.258586 1.810101-0.413737 1.551515-0.36202 3.10303-0.72404 4.602828-1.086061 0.620606-0.155152 1.189495-0.310303 1.810101-0.413737 1.499798-0.36202 3.051313-0.72404 4.551111-1.086061 0.620606-0.155152 1.189495-0.310303 1.810101-0.465454 1.499798-0.36202 2.999596-0.775758 4.499394-1.137778 0.568889-0.155152 1.189495-0.310303 1.758384-0.465455 1.499798-0.36202 2.999596-0.775758 4.499394-1.189495 0.568889-0.155152 1.137778-0.310303 1.758384-0.465454 1.499798-0.413737 2.999596-0.775758 4.499394-1.189495l1.706666-0.465455c1.499798-0.413737 2.999596-0.827475 4.447677-1.241212 0.568889-0.155152 1.086061-0.310303 1.65495-0.465454 1.499798-0.413737 2.999596-0.827475 4.499394-1.29293l1.551515-0.465454c1.499798-0.413737 2.999596-0.879192 4.499394-1.344647 0.465455-0.155152 0.982626-0.310303 1.44808-0.413737 1.551515-0.465455 3.051313-0.930909 4.551112-1.396364 0.465455-0.155152 0.879192-0.258586 1.344646-0.413737 1.551515-0.465455 3.10303-0.982626 4.654546-1.448081 0.413737-0.103434 0.775758-0.258586 1.189494-0.36202 1.603232-0.517172 3.206465-1.034343 4.75798-1.551515 0.310303-0.103434 0.672323-0.206869 0.982627-0.310303 1.654949-0.568889 3.309899-1.086061 4.964848-1.65495 0.258586-0.103434 0.517172-0.155152 0.775758-0.258586 1.758384-0.568889 3.516768-1.189495 5.223434-1.810101 0.155152-0.051717 0.258586-0.103434 0.413737-0.155151 17.066667-5.947475 33.254141-12.360404 48.303839-19.238788 0.103434-0.051717 0.206869-0.103434 0.258586-0.103434l4.654545-2.172122c0.206869-0.103434 0.36202-0.155152 0.568889-0.258586 1.448081-0.672323 2.844444-1.344646 4.292525-2.068686 0.258586-0.103434 0.517172-0.258586 0.724041-0.362021 1.344646-0.672323 2.689293-1.292929 4.033939-1.965252 0.310303-0.155152 0.568889-0.310303 0.879192-0.413737 1.292929-0.620606 2.534141-1.292929 3.827071-1.913536 0.310303-0.155152 0.620606-0.310303 0.982626-0.517172 0.827475-0.413737 1.603232-0.827475 2.430707-1.241212 32.892121 20.273131 67.490909 50.269091 67.490909 86.936566z m-77.213737-127.27596c-89.005253 50.47596-236.24404 80.627071-393.826263 80.627071s-304.872727-30.151111-393.826263-80.627071c-35.219394-19.962828-77.213737-52.234343-77.213737-92.677171 0-36.667475 34.598788-66.663434 67.335758-86.833132 0.72404 0.36202 1.448081 0.775758 2.172121 1.137778 0.413737 0.206869 0.879192 0.465455 1.292929 0.672323 1.137778 0.568889 2.275556 1.137778 3.413333 1.758384l1.241213 0.620606c1.189495 0.568889 2.37899 1.189495 3.568484 1.758384 0.413737 0.206869 0.775758 0.413737 1.189495 0.568889 1.241212 0.620606 2.482424 1.189495 3.775354 1.810101 0.36202 0.155152 0.72404 0.36202 1.08606 0.517172 1.344646 0.620606 2.637576 1.241212 3.982223 1.861818 0.310303 0.155152 0.620606 0.310303 0.930909 0.413737 1.448081 0.672323 2.896162 1.292929 4.344242 1.965253 0.206869 0.103434 0.413737 0.206869 0.672323 0.310303 1.654949 0.72404 3.258182 1.448081 4.913132 2.120404 0.051717 0 0.103434 0.051717 0.155151 0.051717 8.636768 3.723636 17.583838 7.292121 26.841212 10.705455 0.155152 0.051717 0.258586 0.103434 0.413738 0.155151l5.12 1.861818c0.310303 0.103434 0.672323 0.258586 0.982626 0.36202 1.499798 0.517172 3.051313 1.086061 4.602828 1.603233 0.465455 0.155152 0.879192 0.310303 1.344647 0.465454 1.448081 0.517172 2.844444 0.982626 4.292525 1.448081 0.517172 0.155152 1.086061 0.36202 1.603232 0.517172 1.344646 0.465455 2.74101 0.930909 4.137374 1.344646 0.568889 0.206869 1.189495 0.36202 1.758384 0.568889 1.344646 0.413737 2.637576 0.879192 3.982222 1.29293 0.620606 0.206869 1.292929 0.413737 1.913536 0.620606 1.292929 0.413737 2.637576 0.827475 3.930505 1.241212l2.016969 0.620606c1.292929 0.413737 2.585859 0.775758 3.878788 1.189495 0.72404 0.206869 1.396364 0.413737 2.120404 0.620606 1.292929 0.36202 2.534141 0.775758 3.827071 1.137778 0.72404 0.206869 1.448081 0.413737 2.223838 0.620606 1.292929 0.36202 2.534141 0.72404 3.827071 1.08606 0.775758 0.206869 1.499798 0.413737 2.275556 0.620606 1.292929 0.36202 2.534141 0.72404 3.82707 1.034344l2.327273 0.620606c1.292929 0.36202 2.534141 0.672323 3.827071 1.034343 0.775758 0.206869 1.551515 0.413737 2.37899 0.620606 1.292929 0.310303 2.534141 0.672323 3.82707 0.982627 0.827475 0.206869 1.603232 0.413737 2.430707 0.620606 1.292929 0.310303 2.585859 0.620606 3.878788 0.982626 0.827475 0.206869 1.603232 0.413737 2.430707 0.620606l3.878788 0.930909c0.827475 0.206869 1.654949 0.413737 2.482424 0.568889 1.292929 0.310303 2.637576 0.620606 3.930505 0.930909 0.827475 0.206869 1.654949 0.36202 2.482425 0.568889 1.292929 0.310303 2.637576 0.620606 3.982222 0.879192 0.827475 0.206869 1.654949 0.36202 2.482424 0.568889 1.344646 0.310303 2.689293 0.568889 4.03394 0.879192 0.827475 0.155152 1.654949 0.36202 2.430707 0.517171 1.396364 0.310303 2.74101 0.568889 4.137373 0.879192 0.827475 0.155152 1.603232 0.36202 2.430707 0.517172 1.396364 0.310303 2.844444 0.568889 4.240809 0.879192 0.775758 0.155152 1.551515 0.310303 2.378989 0.465454 1.448081 0.310303 2.896162 0.568889 4.39596 0.879192 0.775758 0.155152 1.499798 0.310303 2.275556 0.465455 1.551515 0.310303 3.10303 0.568889 4.654545 0.879192 0.672323 0.103434 1.344646 0.258586 2.01697 0.36202 1.706667 0.310303 3.465051 0.620606 5.171717 0.930909 0.517172 0.103434 1.034343 0.206869 1.551515 0.258586 2.120404 0.36202 4.292525 0.775758 6.412929 1.137778 0.103434 0 0.258586 0.051717 0.362021 0.051717 4.551111 0.775758 9.153939 1.551515 13.808484 2.275555 0.517172 0.103434 0.982626 0.155152 1.499798 0.206869 1.810101 0.258586 3.568485 0.568889 5.378586 0.827475 0.72404 0.103434 1.448081 0.206869 2.223839 0.310303 1.551515 0.258586 3.154747 0.465455 4.706262 0.672323 0.827475 0.103434 1.706667 0.258586 2.534142 0.36202 1.448081 0.206869 2.947879 0.413737 4.395959 0.620606 0.930909 0.103434 1.861818 0.258586 2.792728 0.362021 1.396364 0.206869 2.792727 0.36202 4.18909 0.568889 0.982626 0.103434 1.965253 0.258586 2.947879 0.36202 1.344646 0.155152 2.74101 0.36202 4.085657 0.517171 1.034343 0.103434 2.01697 0.258586 3.051313 0.362021l4.033939 0.465454c1.034343 0.103434 2.068687 0.258586 3.154748 0.36202 1.344646 0.155152 2.637576 0.310303 3.982222 0.465455 1.086061 0.103434 2.120404 0.258586 3.206465 0.36202 1.292929 0.155152 2.637576 0.310303 3.930505 0.413738 1.086061 0.103434 2.172121 0.206869 3.258182 0.36202 1.292929 0.155152 2.637576 0.258586 3.930505 0.413737l3.258181 0.310303c1.292929 0.103434 2.637576 0.258586 3.930505 0.36202 1.086061 0.103434 2.223838 0.206869 3.309899 0.310303 1.292929 0.103434 2.637576 0.258586 3.930505 0.362021 1.137778 0.103434 2.223838 0.206869 3.361617 0.310303 1.292929 0.103434 2.585859 0.206869 3.930505 0.310303 1.137778 0.103434 2.275556 0.206869 3.413333 0.258585 1.292929 0.103434 2.637576 0.206869 3.930505 0.310303 1.137778 0.103434 2.275556 0.155152 3.413333 0.258586 1.292929 0.103434 2.637576 0.206869 3.930505 0.258586 1.137778 0.103434 2.275556 0.155152 3.413334 0.206869 1.292929 0.103434 2.637576 0.155152 3.930505 0.258586 1.137778 0.051717 2.275556 0.155152 3.413333 0.206868 1.344646 0.103434 2.637576 0.155152 3.982222 0.206869 1.137778 0.051717 2.275556 0.155152 3.413334 0.206869 1.344646 0.051717 2.637576 0.155152 3.982222 0.206869l3.413333 0.155151c1.344646 0.051717 2.689293 0.103434 4.03394 0.206869l3.413333 0.155151c1.344646 0.051717 2.689293 0.103434 4.085657 0.155152l3.413333 0.155151c1.396364 0.051717 2.74101 0.103434 4.137374 0.155152 1.137778 0.051717 2.223838 0.051717 3.361616 0.103434 1.396364 0.051717 2.792727 0.103434 4.189091 0.103434 1.086061 0.051717 2.223838 0.051717 3.309899 0.103435 1.448081 0.051717 2.896162 0.051717 4.344242 0.103434 1.034343 0 2.120404 0.051717 3.154748 0.051717 1.499798 0.051717 3.051313 0.051717 4.551111 0.051717 0.982626 0 1.965253 0.051717 2.999596 0.051718 1.706667 0 3.361616 0.051717 5.068283 0.051717h20.066262c1.706667 0 3.361616-0.051717 5.068283-0.051717 0.982626 0 1.965253-0.051717 2.999596-0.051718 1.499798 0 3.051313-0.051717 4.551111-0.051717 1.086061 0 2.120404-0.051717 3.154748-0.051717 1.448081-0.051717 2.896162-0.051717 4.344242-0.103434 1.086061-0.051717 2.223838-0.051717 3.309899-0.103435 1.396364-0.051717 2.792727-0.051717 4.189091-0.103434 1.137778-0.051717 2.223838-0.051717 3.361616-0.103434 1.396364-0.051717 2.74101-0.103434 4.137374-0.155152l3.413333-0.155151c1.344646-0.051717 2.689293-0.103434 4.085657-0.155152l3.413333-0.155151c1.344646-0.051717 2.689293-0.103434 4.033939-0.206869l3.413334-0.155151c1.344646-0.051717 2.637576-0.155152 3.982222-0.206869 1.137778-0.051717 2.275556-0.103434 3.413333-0.206869 1.344646-0.051717 2.637576-0.155152 3.982222-0.206869 1.137778-0.051717 2.275556-0.155152 3.413334-0.206868 1.292929-0.103434 2.637576-0.155152 3.930505-0.258586 1.137778-0.051717 2.275556-0.155152 3.413333-0.206869 1.292929-0.103434 2.637576-0.206869 3.930505-0.258586 1.137778-0.103434 2.275556-0.155152 3.413334-0.258586 1.292929-0.103434 2.637576-0.206869 3.930505-0.310303 1.137778-0.103434 2.275556-0.155152 3.413333-0.258585 1.292929-0.103434 2.637576-0.206869 3.930505-0.310303 1.137778-0.103434 2.223838-0.206869 3.361616-0.310303 1.292929-0.103434 2.637576-0.206869 3.930505-0.362021 1.086061-0.103434 2.223838-0.206869 3.309899-0.310303 1.292929-0.103434 2.637576-0.258586 3.930505-0.36202l3.258182-0.310303c1.344646-0.155152 2.637576-0.258586 3.930505-0.413737 1.086061-0.103434 2.172121-0.206869 3.258182-0.36202 1.344646-0.155152 2.637576-0.258586 3.982222-0.413738 1.086061-0.103434 2.120404-0.258586 3.206465-0.36202 1.344646-0.155152 2.637576-0.310303 3.982222-0.465455 1.034343-0.103434 2.068687-0.258586 3.10303-0.36202l4.03394-0.465454c1.034343-0.103434 2.01697-0.258586 3.051313-0.362021 1.344646-0.155152 2.74101-0.36202 4.085656-0.517171 0.982626-0.103434 1.965253-0.258586 2.947879-0.36202 1.396364-0.206869 2.792727-0.36202 4.240808-0.568889 0.930909-0.103434 1.861818-0.258586 2.792728-0.362021 1.499798-0.206869 2.947879-0.413737 4.447676-0.620606 0.827475-0.103434 1.706667-0.258586 2.534142-0.36202 1.603232-0.206869 3.154747-0.465455 4.75798-0.72404l2.172121-0.310303c1.810101-0.258586 3.620202-0.568889 5.48202-0.827475 0.465455-0.051717 0.930909-0.155152 1.448081-0.206869 4.654545-0.72404 9.257374-1.499798 13.808485-2.275555 0.051717 0 0.155152 0 0.206868-0.051717 2.172121-0.36202 4.39596-0.775758 6.568081-1.137778 0.517172-0.103434 0.982626-0.155152 1.499798-0.258586l5.275152-0.930909c0.672323-0.103434 1.292929-0.258586 1.965252-0.36202 1.603232-0.310303 3.154747-0.568889 4.75798-0.879192 0.72404-0.155152 1.448081-0.310303 2.172121-0.413738 1.499798-0.310303 2.947879-0.568889 4.447677-0.879192l2.327273-0.465454c1.448081-0.310303 2.896162-0.568889 4.292525-0.879192 0.775758-0.155152 1.551515-0.310303 2.327273-0.517172 1.396364-0.310303 2.792727-0.568889 4.189091-0.879192 0.775758-0.155152 1.603232-0.36202 2.378989-0.517171 1.344646-0.310303 2.74101-0.620606 4.085657-0.879192 0.827475-0.155152 1.603232-0.36202 2.430707-0.568889l4.033939-0.930909c0.827475-0.206869 1.603232-0.36202 2.430708-0.568889 1.344646-0.310303 2.637576-0.620606 3.982222-0.930909 0.775758-0.206869 1.603232-0.36202 2.37899-0.568889 1.344646-0.310303 2.637576-0.620606 3.982222-0.982626 0.775758-0.206869 1.603232-0.413737 2.37899-0.568889 1.292929-0.310303 2.637576-0.672323 3.930505-0.982627l2.327273-0.620606c1.292929-0.36202 2.637576-0.672323 3.930505-1.034343 0.775758-0.206869 1.499798-0.413737 2.275555-0.620606 1.292929-0.36202 2.637576-0.672323 3.930505-1.034344 0.72404-0.206869 1.499798-0.413737 2.223839-0.620606 1.292929-0.36202 2.637576-0.72404 3.930505-1.08606l2.172121-0.620606c1.292929-0.36202 2.637576-0.72404 3.930505-1.137778 0.72404-0.206869 1.396364-0.413737 2.120404-0.620606 1.344646-0.36202 2.637576-0.775758 3.930505-1.137778l2.01697-0.620606c1.344646-0.413737 2.689293-0.827475 3.982222-1.189495 0.620606-0.206869 1.241212-0.36202 1.913535-0.568889 1.344646-0.413737 2.74101-0.827475 4.085657-1.292929 0.568889-0.206869 1.189495-0.36202 1.758384-0.568889 1.396364-0.465455 2.792727-0.879192 4.189091-1.344646 0.517172-0.155152 1.086061-0.36202 1.603232-0.517172 1.448081-0.465455 2.896162-0.930909 4.344242-1.448081l1.396364-0.465455c1.499798-0.517172 3.051313-1.034343 4.551111-1.551515 0.36202-0.103434 0.72404-0.258586 1.086061-0.36202 1.654949-0.568889 3.258182-1.137778 4.913131-1.758384 0.206869-0.103434 0.465455-0.155152 0.672323-0.258586 13.136162-4.706263 25.651717-9.671111 37.546667-14.946262 0.051717-0.051717 0.103434-0.051717 0.155151-0.103435 1.603232-0.72404 3.258182-1.448081 4.809697-2.172121 0.155152-0.103434 0.36202-0.155152 0.517172-0.258586 1.499798-0.672323 2.947879-1.344646 4.39596-2.068686 0.258586-0.103434 0.465455-0.206869 0.72404-0.310304 1.396364-0.672323 2.792727-1.292929 4.137374-1.965252 0.258586-0.155152 0.568889-0.258586 0.827475-0.413737 1.344646-0.620606 2.637576-1.292929 3.930505-1.965253l0.930909-0.465454c1.292929-0.620606 2.534141-1.292929 3.775353-1.913536 0.310303-0.155152 0.672323-0.36202 0.982627-0.517172 0.827475-0.413737 1.603232-0.827475 2.430707-1.241212 32.73697 20.169697 67.335758 50.165657 67.335757 86.833132-0.051717 40.753131-42.046061 73.024646-77.265454 92.987474z" fill="#E99411"></path></svg>