<svg viewBox="0 0 1041 1024" version="1.1" xmlns="http://www.w3.org/2000/svg" width="32.53125" height="32" xmlns:xlink="http://www.w3.org/1999/xlink"><path d="M333.91078 996.334644c-24.194169 0-47.034576-10.743322-62.481356-30.216678L36.273898 673.844068c-15.44678-19.473356-21.486644-44.327051-15.446779-68.521221l83.985356-364.804339c5.380339-24.176814 21.486644-43.667525 43.667525-54.410847l339.950644-162.590373A78.396746 78.396746 0 0 1 523.368136 15.44678c12.097085 0 24.176814 2.690169 34.937491 8.070508l339.950644 161.913492c22.163525 10.760678 38.287186 30.234034 43.667526 54.410847l83.985356 364.821695c5.380339 24.176814 0 49.047864-15.44678 68.52122L775.289492 965.441085c-15.44678 18.813831-38.287186 30.234034-62.481356 30.234034l-378.914712 0.659525z" fill="#326DE6"></path><path d="M522.691254 32.247322c9.406915 0 18.813831 2.013288 27.543865 6.039864l339.950644 161.930848c17.477424 8.730034 30.910915 24.853695 34.937491 43.667525l83.985356 364.804339a62.828475 62.828475 0 0 1-12.773966 55.087729L761.196475 956.034169a64.008678 64.008678 0 0 1-50.384272 24.176814H333.91078a64.008678 64.008678 0 0 1-50.401627-24.176814L48.370983 663.777627a67.254237 67.254237 0 0 1-12.75661-55.087729l83.968-364.821695C124.285831 224.412203 137.059797 208.271186 154.519864 200.218034L494.470508 37.627661a80.930712 80.930712 0 0 1 28.220746-5.380339z m0-31.587797c-14.110373 0-28.220746 3.367051-41.654237 9.424272L141.103729 172.656814a95.14522 95.14522 0 0 0-52.414915 65.171525L4.720814 602.650034c-6.716746 28.880271 0 58.437424 18.81383 81.954712l235.13817 292.256542a94.902237 94.902237 0 0 0 74.57844 35.597017h376.901424a94.902237 94.902237 0 0 0 74.578441-35.597017L1019.834576 684.604746c18.813831-22.840407 25.530576-53.074441 18.813831-81.954712l-83.985356-364.821695a95.14522 95.14522 0 0 0-52.397559-65.171525L563.66861 10.083797a96.325424 96.325424 0 0 0-40.96-9.406916z" fill="#FFFFFF"></path><path d="M863.31878 579.792271c-0.676881 0-0.676881 0 0 0h-0.676882c-0.659525 0-1.336407 0-1.336406-0.659525-1.353763 0-2.690169-0.676881-4.026577-0.676882-4.703458-0.676881-8.74739-1.336407-12.773966-1.336406-2.013288 0-4.026576 0-6.716746-0.694238h-0.676881c-14.110373-1.336407-25.51322-2.672814-36.273898-6.022508-4.703458-2.030644-6.039864-4.703458-7.393627-7.393627 0-0.676881-0.676881-0.676881-0.676882-1.353763l-8.730034-2.690169c4.026576-30.893559 2.690169-63.140881-4.686101-94.728678a276.827119 276.827119 0 0 0-37.645017-87.994577l6.734101-6.05722v-1.336407c0-3.367051 0.659525-6.716746 3.349695-10.083796 8.070508-7.393627 18.136949-13.433492 30.234034-20.827119 2.013288-1.336407 4.026576-2.013288 6.039865-3.367051 4.043932-2.013288 7.393627-4.026576 11.437559-6.716746 0.659525-0.659525 2.013288-1.336407 3.349695-2.690169 0.676881-0.659525 1.336407-0.659525 1.336407-1.336407 9.406915-8.053153 11.437559-21.504 4.703457-30.234034-3.349695-4.686102-9.389559-7.393627-15.446779-7.393627-5.380339 0-10.066441 2.013288-14.769899 5.380339l-1.353762 1.336407c-1.336407 0.694237-2.013288 2.030644-3.349695 2.690169-3.367051 3.367051-6.05722 6.05722-8.74739 9.406916-1.336407 1.353763-2.690169 3.367051-4.686102 4.703457-9.424271 10.066441-18.154305 18.136949-26.884339 24.19417a10.830102 10.830102 0 0 1-6.039864 2.013288c-1.353763 0-2.690169 0-4.043932-0.676882h-1.336407l-8.070509 5.380339c-8.730034-9.406915-18.136949-17.477424-27.543864-25.530576a268.305356 268.305356 0 0 0-140.409492-55.76461l-0.676881-8.730034-1.336407-1.353763c-2.013288-2.013288-4.703458-4.026576-5.380339-8.730034-0.676881-10.760678 0.676881-22.840407 2.013288-36.273898v-0.676881c0-2.013288 0.676881-4.686102 1.353763-6.716746 0.659525-4.026576 1.336407-8.070508 2.013288-12.773966V178.037153c0-12.097085-9.406915-22.163525-20.827118-22.163526-5.380339 0-10.760678 2.672814-14.787255 6.716746a21.278373 21.278373 0 0 0-6.039864 15.44678v5.380339c0 4.686102 0.676881 8.730034 2.013288 12.75661 0.676881 2.013288 0.676881 4.026576 1.336407 6.716745v0.676882c1.353763 13.433492 3.367051 25.530576 2.030644 36.273898-0.694237 4.703458-3.367051 6.716746-5.380339 8.74739l-1.353763 1.336407-0.659525 8.730034c-12.097085 1.353763-24.194169 2.690169-36.273898 5.380339a259.002576 259.002576 0 0 0-133.033221 75.237966l-6.716746-4.686102h-1.353762c-1.336407 0-2.672814 0.659525-4.026577 0.659525a10.830102 10.830102 0 0 1-6.039864-2.013288c-8.74739-6.039864-17.477424-14.787254-26.884339-24.853695-1.336407-1.353763-2.690169-3.367051-4.686102-4.703457-2.690169-3.367051-5.380339-6.05722-8.747389-9.406915-0.676881-0.676881-2.013288-1.353763-3.349695-2.69017-0.694237-0.676881-1.353763-0.676881-1.353763-1.336407a23.482576 23.482576 0 0 0-14.769898-5.380339c-6.05722 0-12.097085 2.690169-15.44678 7.393627-6.734102 8.730034-4.720814 22.163525 4.686102 30.234034 0.676881 0 0.676881 0.659525 1.353762 0.659526 1.336407 0.694237 2.013288 2.013288 3.349695 2.690169 4.026576 2.690169 7.393627 4.703458 11.420204 6.716746 2.013288 0.676881 4.026576 2.013288 6.05722 3.367051 12.079729 7.393627 22.163525 13.433492 30.234034 20.827118 3.349695 3.349695 3.349695 6.716746 3.349695 10.066441v1.353763l6.716746 6.039864c-1.336407 2.013288-2.690169 3.367051-3.349695 5.380339-33.601085 53.074441-46.357695 115.555797-37.627661 177.377627l-8.730034 2.672814c0 0.676881-0.676881 0.676881-0.676882 1.353763a15.620339 15.620339 0 0 1-7.393627 7.376271c-10.066441 3.367051-22.163525 4.703458-36.273898 6.05722h-0.676881c-2.013288 0-4.686102 0-6.716746 0.659526-4.026576 0-8.053153 0.694237-12.75661 1.353762-1.353763 0-2.690169 0.676881-4.043933 0.676882-0.659525 0-1.336407 0-2.013288 0.659525-12.097085 2.690169-19.473356 14.110373-17.460067 24.871051 2.013288 9.406915 10.760678 15.44678 21.486644 15.44678 2.030644 0 3.367051 0 5.380339-0.676882 0.676881 0 1.353763 0 1.353762-0.676881 1.336407 0 2.672814-0.659525 4.026577-0.659526 4.686102-1.353763 8.053153-2.690169 12.097084-4.703457 2.013288-0.676881 4.026576-2.013288 6.039865-2.69017h0.676881c12.75661-4.703458 24.176814-8.730034 34.937492-10.06644h1.336406c4.026576 0 6.716746 1.995932 8.730034 3.349695 0.676881 0 0.676881 0.676881 1.353763 0.676881l9.406915-1.353763a265.719322 265.719322 0 0 0 87.994576 126.316475 271.967458 271.967458 0 0 0 28.897628 19.473356l-4.026577 8.730034c0 0.694237 0.659525 0.694237 0.659526 1.353762 1.353763 2.690169 2.690169 6.039864 1.353762 10.760678-4.026576 10.066441-10.066441 20.132881-17.477423 31.570441v0.659525c-1.336407 2.013288-2.672814 3.367051-4.026577 5.380339-2.690169 3.349695-4.686102 6.716746-7.393627 10.760678-0.659525 0.659525-1.336407 1.995932-2.013288 3.349695 0 0.676881-0.659525 1.336407-0.659525 1.336407-5.380339 11.420203-1.353763 24.194169 8.730034 28.897627 2.690169 1.336407 5.380339 2.013288 8.053152 2.013288 8.070508 0 16.141017-5.380339 20.167593-12.773966 0-0.659525 0.659525-1.336407 0.659526-1.336407a14.683119 14.683119 0 0 1 2.013288-3.36705c2.030644-4.686102 2.690169-8.053153 4.043932-12.079729l2.013288-6.057221c4.686102-13.433492 8.053153-24.176814 14.110373-33.583728 2.690169-4.026576 6.039864-4.703458 8.730034-6.057221 0.676881 0 0.676881 0 1.336407-0.659525l4.703458-8.74739a262.491119 262.491119 0 0 0 94.069152 17.477424c19.473356 0 39.640949-2.013288 58.437424-6.716746a298.591458 298.591458 0 0 0 34.937491-10.066441l4.043933 7.376271c0.659525 0 0.659525 0 1.336406 0.676882 3.367051 0.659525 6.039864 2.013288 8.730034 6.039864 5.380339 9.406915 9.406915 20.827119 14.110373 33.601085v0.659525l2.013288 6.057221c1.353763 4.026576 2.013288 8.053153 4.043932 12.079729 0.659525 1.353763 1.336407 2.030644 2.013289 3.36705 0 0.676881 0.659525 1.336407 0.659525 1.336407 4.043932 8.070508 12.097085 12.773966 20.167593 12.773966 2.672814 0 5.380339-0.676881 8.053153-2.013288 4.703458-2.690169 8.730034-6.716746 10.06644-12.097085 1.353763-5.380339 1.353763-11.420203-1.336406-16.800542 0-0.659525-0.659525-0.659525-0.659526-1.336407-0.676881-1.353763-1.353763-2.690169-2.013288-3.367051-2.030644-4.026576-4.703458-7.393627-7.393627-10.760678-1.353763-1.995932-2.690169-3.349695-4.043932-5.362983v-0.659525c-7.376271-11.437559-14.093017-21.521356-17.460068-31.587797-1.336407-4.686102 0-7.393627 0.676881-10.760678 0-0.659525 0.659525-0.659525 0.659526-1.336406l-3.349695-8.053153c35.614373-20.827119 65.831051-50.384271 88.688813-86.675525a260.391051 260.391051 0 0 0 28.20339-60.468068l8.070509 1.353763c0.676881 0 0.676881-0.676881 1.336406-0.676882 2.690169-1.336407 4.703458-3.349695 8.74739-3.349695h1.336407c10.760678 1.336407 22.163525 5.380339 34.937492 10.066441h0.676881c2.013288 0.676881 4.026576 2.013288 6.039864 2.690169 4.026576 2.013288 7.393627 3.367051 12.097085 4.703458 1.336407 0 2.690169 0.676881 4.026576 0.676881 0.676881 0 1.336407 0 2.013289 0.659526 2.013288 0.694237 3.367051 0.694237 5.380339 0.694237 10.066441 0 18.813831-6.734102 21.504-15.464135 0-8.070508-7.393627-18.813831-19.490712-22.180882zM552.248407 546.885424l-29.557153 14.110373-29.557152-14.110373-7.393627-31.587797 20.150237-25.51322h32.924203l20.150238 25.51322-6.716746 31.587797z m175.364339-69.874983c5.380339 22.840407 6.716746 45.680814 4.686101 67.861695l-102.78183-29.574509a18.223729 18.223729 0 0 1-12.773966-21.486644 16.019525 16.019525 0 0 1 4.043932-7.393627l81.295186-73.242034a215.265627 215.265627 0 0 1 25.513221 63.835119z m-57.795254-104.135594l-87.994577 62.481356a17.87661 17.87661 0 0 1-23.517288-4.026576c-2.013288-2.030644-2.690169-4.703458-3.367051-7.393627l-6.039864-109.515932a203.932203 203.932203 0 0 1 120.936135 58.454779zM475.014508 317.787119c7.393627-1.353763 14.110373-2.690169 21.486645-4.043933l-6.039865 107.502645c-0.676881 9.406915-8.053153 17.460068-18.136949 17.460067-2.690169 0-6.039864-0.659525-8.070508-2.013288L374.888136 372.874847a204.956203 204.956203 0 0 1 100.109017-55.087728z m-132.356339 95.388203l79.941424 71.228746c7.393627 6.039864 8.070508 17.460068 2.030644 24.853695a13.364068 13.364068 0 0 1-8.070508 5.380339l-104.135593 30.234034c-4.026576-45.698169 6.039864-92.055864 30.234033-131.696814z m-18.136949 182.063729l106.825763-18.119593c8.730034-0.694237 16.783186 5.380339 18.796475 14.110373 0.694237 4.026576 0.694237 7.376271-0.659526 10.743322l-40.994712 98.755254a211.759729 211.759729 0 0 1-83.968-105.472zM569.725831 728.949153c-15.44678 3.367051-30.893559 5.380339-47.034577 5.380339-23.517288 0-46.340339-4.043932-67.861695-10.760678l53.091797-96.065085c5.380339-6.05722 14.093017-8.730034 21.486644-4.703458 3.367051 2.013288 6.05722 4.686102 8.070508 7.393627l51.720678 93.374916c-6.039864 2.013288-12.75661 3.367051-19.473355 5.380339z m131.002576-93.374916c-16.800542 26.866983-38.964068 48.353627-64.494644 65.15417L593.92 599.300339a18.084881 18.084881 0 0 1 9.406915-20.827119c2.690169-1.336407 6.05722-2.013288 9.406916-2.013288l107.502644 18.136949c-4.026576 14.787254-10.760678 28.220746-19.490712 40.977356z" fill="#FFFFFF"></path></svg>