<svg viewBox="0 0 1194 1024" version="1.1" xmlns="http://www.w3.org/2000/svg" xmlns:xlink="http://www.w3.org/1999/xlink" width="233.203125" height="200"><path d="M199.099733 967.099733h682.666667c17.066667 0 28.4672 11.400533 28.4672 28.4672 0 17.066667-11.400533 28.433067-28.4672 28.433067h-682.666667c-17.066667 0-28.433067-11.3664-28.433066-28.433067 0-17.066667 11.3664-28.4672 28.433066-28.4672z"></path><path d="M1058.9184 910.2336H135.748267C59.733333 910.2336 0 857.531733 0 790.4256V119.808C0 52.701867 59.733333 0 135.748267 0h923.170133C1134.933333 0 1194.666667 52.701867 1194.666667 119.773867v670.685866c0 67.072-59.733333 119.773867-135.748267 119.773867zM135.748267 47.9232c-46.148267 0-81.442133 31.1296-81.442134 71.850667v670.685866c0 40.721067 35.293867 71.850667 81.442134 71.850667h923.170133c46.148267 0 81.442133-31.1296 81.442133-71.850667V119.739733c0-40.686933-35.293867-71.816533-81.442133-71.816533H135.748267z"></path><path d="M1058.9184 910.2336H135.748267c-76.014933 0-135.748267-37.546667-135.748267-85.333333v-85.333334h1194.666667v85.333334c0 47.786667-59.733333 85.333333-135.748267 85.333333z m-1004.612267-136.533333v51.2c0 29.013333 35.293867 51.2 81.442134 51.2h923.170133c46.148267 0 81.442133-22.186667 81.442133-51.2v-51.2H54.306133z"></path><path d="M1137.7664 56.900267v682.666666H56.900267v-682.666666h1080.866133z m-793.941333 208.554666h-59.392v303.445334h59.392v-303.445334z m415.505066 0h-59.357866v303.445334h59.392v-303.445334zM551.594667 113.800533H492.202667v455.133867h59.392V113.7664z m415.5392 50.5856h-59.357867v404.548267h59.392V164.352z"></path></svg>