<svg width="18px" height="18px" viewBox="0 0 18 18" version="1.1" xmlns="http://www.w3.org/2000/svg" xmlns:xlink="http://www.w3.org/1999/xlink"><title>icon-报表备份 3</title><g id="页面-1" stroke="none" stroke-width="1" fill="none" fill-rule="evenodd"><g id="个人资料-面板颜色更新" transform="translate(-1708.000000, -258.000000)"><g id="编组-15" transform="translate(1688.000000, 77.000000)"><g id="icon-报表备份-2" transform="translate(20.000000, 181.000000)"><g id="编组-17" transform="translate(1.000000, 1.000000)" stroke="#6B7180"><path d="M15.25,0.75 L15.25,14.25 L0.75,14.25 L0.75,0.75 L15.25,0.75 Z" id="矩形" stroke-width="1.5"></path><polygon id="路径" stroke-width="0.5" fill="#6B7180" fill-rule="nonzero" points="3.49 5.002 3.49 10 7.214 10 7.214 9.3 4.309 9.3 4.309 7.788 6.927 7.788 6.927 7.088 4.309 7.088 4.309 5.702 7.095 5.702 7.095 5.002"></polygon><polygon id="路径" stroke-width="0.5" fill="#6B7180" fill-rule="nonzero" points="7.984 5.002 7.984 10 8.803 10 8.803 6.346 8.831 6.346 11.33 10 12.128 10 12.128 5.002 11.302 5.002 11.302 8.607 11.274 8.607 8.803 5.002"></polygon></g><g id="EN" transform="translate(5.490000, 6.002000)"></g></g></g></g></g></svg>