<svg viewBox="0 0 1024 1024" version="1.1" xmlns="http://www.w3.org/2000/svg" xmlns:xlink="http://www.w3.org/1999/xlink" width="200" height="200"><path d="M759 311H259v200h500V311z m-50 150H309V361h400v100z m245-167.5c2 0 4 0.1 6 0.4V132H64v161.8c2-0.2 4-0.4 6-0.4 27.6 0 50 22.4 50 50s-22.4 50-50 50c-2 0-4-0.1-6-0.4v499h245V727.3h50V892h601V393.1c-2 0.2-4 0.4-6 0.4-27.6 0-50-22.4-50-50s22.4-50 50-50z m-44-39.8c-33.1 16.3-56 50.4-56 89.8s22.9 73.5 56 89.8V842H745V677.3h-50V842h-62V677.3h-50V842h-62V677.3h-50V842h-62V677.3H259V842H114V433.3c33.1-16.3 56-50.4 56-89.8s-22.9-73.5-56-89.8V182h796v71.7z" fill=""></path></svg>