<svg viewBox="0 0 1024 1024" version="1.1" xmlns="http://www.w3.org/2000/svg" xmlns:xlink="http://www.w3.org/1999/xlink" width="200" height="200"><path d="M208.896 368.64l131.072 71.68c8.192 5.12 19.456 5.12 27.648 0 8.192-5.12 14.336-13.312 14.336-22.528s-5.12-18.432-14.336-22.528l-131.072-71.68c-13.312-7.168-29.696-3.072-37.888 9.216-7.168 12.288-3.072 28.672 10.24 35.84z" fill="#646466"></path><path d="M606.208 381.952c9.216 0 18.432-5.12 22.528-14.336l71.68-131.072c7.168-13.312 3.072-29.696-9.216-37.888-12.288-7.168-28.672-3.072-35.84 10.24l-71.68 131.072c-5.12 8.192-5.12 19.456 0 27.648 4.096 9.216 12.288 14.336 22.528 14.336z" fill="#818285"></path><path d="M815.104 655.36l-131.072-71.68c-8.192-5.12-19.456-5.12-27.648 0-8.192 5.12-14.336 13.312-14.336 22.528 0 9.216 5.12 18.432 14.336 22.528l131.072 71.68c8.192 5.12 19.456 5.12 27.648 0 8.192-5.12 14.336-13.312 14.336-22.528-1.024-9.216-6.144-18.432-14.336-22.528z" fill="#ADAEB1"></path><path d="M431.104 645.12c-6.144-4.096-13.312-5.12-19.456-3.072-7.168 3.072-12.288 7.168-16.384 13.312l-71.68 131.072c-5.12 8.192-5.12 19.456 0 27.648 5.12 8.192 13.312 14.336 22.528 14.336 9.216 0 18.432-5.12 22.528-14.336l71.68-131.072c8.192-13.312 3.072-29.696-9.216-37.888z" fill="#F3F3F3"></path><path d="M368.64 208.896c-7.168-13.312-23.552-17.408-35.84-10.24-12.288 7.168-16.384 24.576-9.216 37.888l71.68 131.072c4.096 9.216 13.312 14.336 22.528 14.336 9.216 0 18.432-5.12 22.528-14.336s4.096-19.456 0-27.648l-71.68-131.072z" fill="#6D6F70"></path><path d="M642.048 417.792c0 9.216 5.12 18.432 14.336 22.528 8.192 5.12 19.456 4.096 27.648 0l131.072-71.68c6.144-3.072 11.264-9.216 13.312-16.384 2.048-7.168 1.024-14.336-3.072-19.456-7.168-12.288-24.576-16.384-37.888-9.216l-131.072 71.68c-9.216 5.12-14.336 13.312-14.336 22.528z" fill="#8D8D90"></path><path d="M628.736 656.384c-4.096-9.216-13.312-14.336-22.528-14.336-9.216 0-18.432 5.12-22.528 14.336-5.12 8.192-4.096 19.456 0 27.648l71.68 131.072c4.096 9.216 13.312 14.336 22.528 14.336s18.432-5.12 22.528-14.336c5.12-8.192 4.096-19.456 0-27.648l-71.68-131.072z" fill="#C5C6C8"></path><path d="M380.928 610.304c2.048-6.144 1.024-12.288-3.072-18.432-7.168-11.264-24.576-15.36-37.888-9.216l-132.096 66.56c-13.312 7.168-17.408 21.504-9.216 32.768 7.168 11.264 24.576 15.36 37.888 9.216L368.64 624.64c6.144-3.072 10.24-8.192 12.288-14.336z" fill="#505050"></path><path d="M361.472 518.144v-12.288c0-11.264-9.216-20.48-21.504-20.48H175.104c-12.288 0-21.504 9.216-21.504 20.48v12.288c0 11.264 9.216 20.48 21.504 20.48h164.864c12.288-1.024 21.504-9.216 21.504-20.48z" fill="#5A5A5C"></path><path d="M848.896 486.4H684.032c-12.288 0-21.504 9.216-21.504 20.48v12.288c0 11.264 9.216 20.48 21.504 20.48h164.864c12.288 0 21.504-9.216 21.504-20.48v-12.288c0-12.288-9.216-20.48-21.504-20.48z" fill="#98999D"></path><path d="M518.144 662.528h-12.288c-11.264 0-20.48 9.216-20.48 21.504v164.864c0 12.288 9.216 21.504 20.48 21.504h12.288c11.264 0 20.48-9.216 20.48-21.504V684.032c-1.024-12.288-9.216-21.504-20.48-21.504z" fill="#DBDBDC"></path><path d="M518.144 153.6h-12.288c-11.264 0-20.48 9.216-20.48 21.504v164.864c0 12.288 9.216 21.504 20.48 21.504h12.288c11.264 0 20.48-9.216 20.48-21.504V175.104c-1.024-12.288-9.216-21.504-20.48-21.504z" fill="#79797B"></path></svg>