<svg viewBox="0 0 1024 1024" version="1.1" xmlns="http://www.w3.org/2000/svg" xmlns:xlink="http://www.w3.org/1999/xlink" width="128" height="128"><path d="M512 85.333333a512 512 0 0 1 381.610667 853.333334H130.389333A512 512 0 0 1 512 85.333333zM512 170.666667a426.666667 426.666667 0 0 0-351.971556 667.875555L170.666667 853.333333h682.666666l10.638223-14.734222a424.106667 424.106667 0 0 0 74.296888-222.549333l0.398223-18.773334A426.666667 426.666667 0 0 0 512 170.666667z m0 156.444444c57.856 0 101.148444 11.889778 140.458667 40.334222l18.261333-23.722666a42.666667 42.666667 0 0 1 71.111111 46.762666l-3.413333 5.290667-192.568889 250.368a42.666667 42.666667 0 0 1-71.111111-46.762667l3.413333-5.233777 122.254222-159.004445c-23.893333-16.611556-49.550222-22.755556-88.405333-22.755555a184.888889 184.888889 0 0 0-184.888889 184.888888 42.666667 42.666667 0 0 1-85.333333 0A270.222222 270.222222 0 0 1 512 327.111111z"></path></svg>