<svg viewBox="0 0 1024 1024" version="1.1" xmlns="http://www.w3.org/2000/svg" width="200" height="200"><path d="M341.504 685.714286a33.938286 33.938286 0 0 0-44.251429 4.096 30.500571 30.500571 0 0 0 0.365715 42.569143l26.331428 22.893714H119.661714a32.182857 32.182857 0 0 0-32.914285 31.451428c0 17.481143 14.701714 31.524571 32.914285 31.524572h209.993143l-33.572571 32.402286a30.500571 30.500571 0 0 0-7.094857 34.304 32.914286 32.914286 0 0 0 30.354285 19.456 34.377143 34.377143 0 0 0 23.259429-9.216l89.307428-85.723429a30.208 30.208 0 0 0-1.097142-45.348571L341.504 685.641143z"></path><path d="M856.283429 272.749714H691.273143v-66.194285c0-53.394286-45.129143-96.694857-100.937143-96.841143h-160.182857c-55.808 0.146286-101.010286 43.373714-101.156572 96.841143v66.194285H167.716571c-25.014857-0.073143-49.005714 9.362286-66.779428 26.331429A88.502857 88.502857 0 0 0 73.142857 362.788571v282.916572c0 17.408 14.774857 31.524571 32.914286 31.524571a32.182857 32.182857 0 0 0 32.914286-31.451428v-63.049143c9.508571 3.145143 19.382857 4.754286 29.403428 4.827428h686.811429c10.24-0.219429 20.260571-2.121143 29.842285-5.485714v242.029714c0 7.168-2.925714 14.043429-8.265142 19.163429a28.964571 28.964571 0 0 1-20.041143 7.899429H524.507429a32.182857 32.182857 0 0 0-32.914286 31.524571c0 17.408 14.701714 31.524571 32.914286 31.524571h331.776c25.014857 0 49.005714-9.435429 66.779428-26.331428a88.502857 88.502857 0 0 0 27.794286-63.780572V361.984c-0.585143-49.517714-42.788571-89.380571-94.573714-89.234286z m-460.8-66.194285c0-18.651429 15.798857-33.792 35.328-33.792h160.182857c19.456 0.073143 35.108571 15.213714 35.108571 33.792v66.194285H394.825143l0.658286-66.194285z m460.8 317.44H168.813714a30.134857 30.134857 0 0 1-21.065143-8.118858 27.574857 27.574857 0 0 1-8.777142-20.041142v-130.925715c0-15.506286 13.165714-28.086857 29.403428-28.086857h686.811429a30.134857 30.134857 0 0 1 21.065143 8.045714c5.632 5.339429 8.777143 12.507429 8.777142 20.114286v131.876572a28.891429 28.891429 0 0 1-29.842285 27.062857h1.097143z"></path></svg>