<svg viewBox="0 0 1024 1024" version="1.1" xmlns="http://www.w3.org/2000/svg" xmlns:xlink="http://www.w3.org/1999/xlink" width="128" height="128"><path d="M512 49.777778a369.777778 369.777778 0 1 1-369.777778 369.777778v-0.113778l0.227556-13.141334A369.777778 369.777778 0 0 1 512 49.777778zM235.52 486.627556l1.137778 4.721777a284.899556 284.899556 0 0 0 208.384 204.743111 538.965333 538.965333 0 0 1-60.529778-149.048888A539.875556 539.875556 0 0 1 235.52 486.570667z m552.96-0.113778l-9.500444 5.575111a539.249778 539.249778 0 0 1-139.548445 54.954667 539.875556 539.875556 0 0 1-60.359111 148.992 284.842667 284.842667 0 0 0 209.464889-209.521778zM547.157333 560.64l-14.791111 0.796444a578.56 578.56 0 0 1-55.352889-0.739555c8.192 25.543111 18.887111 50.517333 31.857778 74.922667L512 641.137778l3.185778-5.575111c13.084444-24.462222 23.722667-49.436444 31.971555-74.979556zM512 362.666667c-18.204444 0-36.181333 1.024-53.816889 3.015111a478.151111 478.151111 0 0 0-0.056889 107.690666c11.491556 1.365333 23.04 2.275556 34.702222 2.730667L512 476.444444c18.204444 0 36.124444-0.967111 53.76-3.015111 1.422222-11.491556 2.275556-23.04 2.787556-34.702222L568.888889 419.498667c0-18.204444-1.024-36.181333-3.015111-53.816889A466.432 466.432 0 0 0 512 362.666667z m-141.141333 21.902222l-6.030223 1.877333c-23.438222 7.964444-46.421333 17.976889-68.835555 29.980445l-5.632 3.072 5.575111 3.185777c24.462222 13.084444 49.379556 23.665778 74.922667 31.971556a553.870222 553.870222 0 0 1 0-70.087111z m282.282666-0.113778l0.739556 14.791111a578.56 578.56 0 0 1-0.739556 55.296 445.44 445.44 0 0 0 74.922667-31.857778l5.632-3.128888-5.688889-3.128889a457.898667 457.898667 0 0 0-74.865778-31.971556z m-208.213333-241.379555l-4.721778 1.137777A284.899556 284.899556 0 0 0 235.52 352.597333a540.330667 540.330667 0 0 1 149.048889-60.472889 539.875556 539.875556 0 0 1 60.302222-149.048888z m134.087111 0l5.518222 9.500444c25.088 44.657778 43.406222 91.192889 54.954667 139.548444a539.875556 539.875556 0 0 1 148.992 60.359112 284.842667 284.842667 0 0 0-209.464889-209.408zM512 197.859556l-3.128889 5.688888c-13.084444 24.348444-23.665778 49.322667-31.971555 74.865778a567.068444 567.068444 0 0 1 70.087111 0 447.544889 447.544889 0 0 0-31.857778-74.922666L512 197.859556zM142.222222 974.222222a42.666667 42.666667 0 0 1-5.802666-84.935111l5.802666-0.398222h327.111111v-14.222222a42.666667 42.666667 0 0 1 84.935111-5.802667l0.398223 5.802667v14.222222h327.111111a42.666667 42.666667 0 0 1 5.802666 84.935111l-5.802666 0.398222h-739.555556z"></path></svg>