<svg viewBox="0 0 1024 1024" version="1.1" xmlns="http://www.w3.org/2000/svg" xmlns:xlink="http://www.w3.org/1999/xlink" width="128" height="128"><path d="M512 14.222222a497.777778 497.777778 0 1 1 0 995.555556A497.777778 497.777778 0 0 1 512 14.222222z m0 85.333334a412.444444 412.444444 0 1 0 0 824.888888 412.444444 412.444444 0 0 0 0-824.888888z m170.439111 173.511111l5.347556 3.413333a42.666667 42.666667 0 0 1 12.060444 54.328889l-3.413333 5.347555-120.661334 161.621334h54.613334a42.666667 42.666667 0 0 1 5.802666 84.935111l-5.802666 0.398222H554.666667v28.444445h75.719111a42.666667 42.666667 0 0 1 5.802666 84.935111l-5.802666 0.398222H554.666667v72.419555a42.666667 42.666667 0 0 1-84.935111 5.745778l-0.398223-5.745778V696.888889H398.222222a42.666667 42.666667 0 0 1-5.802666-84.935111L398.222222 611.555556h71.111111v-28.444445H398.222222a42.666667 42.666667 0 0 1-5.802666-84.935111L398.222222 497.777778h48.355556L320.284444 336.952889a42.666667 42.666667 0 0 1 62.862223-57.344l4.266666 4.664889 123.733334 157.582222 116.963555-156.728889a42.666667 42.666667 0 0 1 54.328889-12.117333z"></path></svg>