<?xml version="1.0" standalone="no"?><!DOCTYPE svg PUBLIC "-//W3C//DTD SVG 1.1//EN" "http://www.w3.org/Graphics/SVG/1.1/DTD/svg11.dtd"><svg t="1609729908545" class="icon" viewBox="0 0 1024 1024" version="1.1" xmlns="http://www.w3.org/2000/svg" p-id="32988" xmlns:xlink="http://www.w3.org/1999/xlink" width="16" height="16"><defs><style type="text/css"></style></defs><path d="M512 972.8a460.8 460.8 0 1 0 0-921.6 460.8 460.8 0 0 0 0 921.6z m0 51.2C229.2224 1024 0 794.7776 0 512S229.2224 0 512 0s512 229.2224 512 512-229.2224 512-512 512z" p-id="32989"></path><path d="M614.4 665.6h102.4V486.4a25.6 25.6 0 1 1 51.2 0V665.6h25.6a25.6 25.6 0 1 1 0 51.2h-563.2a25.6 25.6 0 1 1 0-51.2H256V486.4a25.6 25.6 0 0 1 51.2 0V665.6h102.4V281.6a25.6 25.6 0 0 1 51.2 0V665.6h102.4V384a25.6 25.6 0 1 1 51.2 0V665.6z" p-id="32990"></path></svg>