<svg viewBox="0 0 1024 1024" version="1.1" xmlns="http://www.w3.org/2000/svg" xmlns:xlink="http://www.w3.org/1999/xlink" width="200" height="200"><path d="M543.94 515.56a24 24 0 0 0 36.88-30.73 300.54 300.54 0 0 0-63.89-57.51 223.18 223.18 0 1 0-324-5.77 299.5 299.5 0 0 0-142.18 255v148.66c0 83.27 67.74 151 151 151h148.72a24 24 0 0 0 0-48H201.8a103.14 103.14 0 0 1-103-103V676.54a251.54 251.54 0 0 1 125.26-217.68A23.78 23.78 0 0 0 230 454a223.51 223.51 0 0 0 249.89 3.79 24 24 0 0 0 7.22 7.29 252.76 252.76 0 0 1 56.83 50.48zM182.5 271c0-96.6 78.59-175.19 175.19-175.19S532.87 174.36 532.87 271s-78.58 175.14-175.18 175.14S182.5 367.55 182.5 271zM957.73 794.79a31.76 31.76 0 0 1 3.45-52.79 24 24 0 0 0 11.71-24.74 225.12 225.12 0 0 0-24-70.29 24 24 0 0 0-24.17-12.4 31.77 31.77 0 0 1-34.86-39.44 24 24 0 0 0-9.34-25.51 225 225 0 0 0-80.6-36.19 24 24 0 0 0-25.2 9.9 31.78 31.78 0 0 1-52.5 0.15 24 24 0 0 0-25.25-9.75 225.45 225.45 0 0 0-65.39 26.73 24 24 0 0 0-11.18 24.74 31.79 31.79 0 0 1-37.64 36.77 24 24 0 0 0-25 10.59 226 226 0 0 0-25.39 54.57 24 24 0 0 0 8.21 26.09 31.78 31.78 0 0 1-3.8 52.78A24 24 0 0 0 525 790.58a225 225 0 0 0 23.54 70.29A24 24 0 0 0 573 873.38a31.75 31.75 0 0 1 35.06 40 24 24 0 0 0 9.17 26 225.13 225.13 0 0 0 80.1 36.24A24 24 0 0 0 723 965.23a31.75 31.75 0 0 1 53.36-0.17A24 24 0 0 0 802 975.28a225.15 225.15 0 0 0 64.79-26.68 24 24 0 0 0 11.06-25.24A31.75 31.75 0 0 1 915.79 886a24 24 0 0 0 25.4-10.67 226.1 226.1 0 0 0 24.93-54.47 24 24 0 0 0-8.39-26.07z m-60.33-30.95a79.54 79.54 0 0 0 18.09 56.52 180.28 180.28 0 0 1-7.74 16.92 79.77 79.77 0 0 0-78.49 77.3 176.21 176.21 0 0 1-24.48 10.08 79.79 79.79 0 0 0-110.49 0.34 176.6 176.6 0 0 1-37.08-16.8 79.79 79.79 0 0 0-72.55-82.83 176.24 176.24 0 0 1-9.5-28.39 79.79 79.79 0 0 0 7.78-109.07 176.6 176.6 0 0 1 8.06-17.37 79.79 79.79 0 0 0 77.73-75.91 176.89 176.89 0 0 1 25.61-10.47 79.77 79.77 0 0 0 108.35-0.32A176.64 176.64 0 0 1 840.83 601a79.78 79.78 0 0 0 72 81.46 175.63 175.63 0 0 1 9.83 28.69 79.67 79.67 0 0 0-25.26 52.69z"></path><path d="M748.93 659.55a95 95 0 1 0 95 95 95.06 95.06 0 0 0-95-95z m0 141.9a47 47 0 1 1 47-47 47 47 0 0 1-47 47z"></path></svg>