<svg viewBox="0 0 18 18" xmlns="http://www.w3.org/2000/svg"><path data-follow-fill="#6B7180" fill="#6B7180" d="m10 .582 5.794 3.346a2 2 0 0 1 1 1.732v6.69a2 2 0 0 1-1 1.732L10 17.428a2 2 0 0 1-2 0l-5.794-3.346a2 2 0 0 1-1-1.732V5.66a2 2 0 0 1 1-1.732L8 .582a2 2 0 0 1 2 0ZM8.83 1.844l-.08.037-5.794 3.346a.5.5 0 0 0-.242.345l-.008.088v6.69a.5.5 0 0 0 .178.383l.072.05L8.75 16.13a.5.5 0 0 0 .42.037l.08-.037 5.794-3.346a.5.5 0 0 0 .242-.345l.008-.088V5.66a.5.5 0 0 0-.178-.383l-.072-.05L9.25 1.88a.5.5 0 0 0-.42-.037Zm4.79 8.363a.75.75 0 0 1-.189.968l-.085.057-3.025 1.746c-.763.44-1.691.47-2.476.088l-.166-.088-3.025-1.746a.75.75 0 0 1 .658-1.344l.092.045 3.025 1.746c.314.182.693.202 1.022.06l.12-.06 3.025-1.746a.75.75 0 0 1 1.025.274Zm0-4a.75.75 0 0 1-.189.968l-.085.057-3.025 1.746c-.763.44-1.691.47-2.476.088l-.166-.088-3.025-1.746a.75.75 0 0 1 .658-1.344l.092.045 3.025 1.746c.314.182.693.202 1.022.06l.12-.06 3.025-1.746a.75.75 0 0 1 1.025.274Z"/></svg>