<svg viewBox="0 0 18 18" xmlns="http://www.w3.org/2000/svg"><path data-follow-fill="#6B7180" fill="#6B7180" d="M15 1a1.75 1.75 0 0 1 1.744 1.606l.006.144v9a1.75 1.75 0 0 1-1.606 1.744L15 13.5H3a1.75 1.75 0 0 1-1.744-1.606l-.006-.144v-9a1.75 1.75 0 0 1 1.606-1.744L3 1h12Zm.25 7H2.75v3.75a.25.25 0 0 0 .193.243L3 12h12a.25.25 0 0 0 .243-.193l.007-.057V8Zm-9.727.48v2.5h-1.5v-2.5h1.5Zm3 0v2.5h-1.5v-2.5h1.5ZM15 2.5H3a.25.25 0 0 0-.243.193l-.007.057V6.5h12.5V2.75a.25.25 0 0 0-.193-.243L15 2.5Zm-9.477.725v2.5h-1.5v-2.5h1.5Zm3 0v2.5h-1.5v-2.5h1.5ZM15.5 15.5a.75.75 0 0 1 .102 1.493L15.5 17h-13a.75.75 0 0 1-.102-1.493L2.5 15.5h13Z"/></svg>