<svg viewBox="0 0 18 18" xmlns="http://www.w3.org/2000/svg"><path data-follow-fill="#6B7180" fill="#6B7180" d="M6.5.25a4.252 4.252 0 0 1 4.127 3.23l.035.159.106.053c.302.162.578.362.821.595A4.75 4.75 0 0 1 15.75 9l-.001-.038-.001-.069.109.07a4.247 4.247 0 0 1 1.888 3.321l.005.216a4.25 4.25 0 0 1-4.25 4.25h-6a4.25 4.25 0 0 1-3.865-6.019 3.749 3.749 0 0 1-1.403-7.039l.106-.054.035-.159A4.252 4.252 0 0 1 6.29.255Zm6.165 5.958.031.156c.025.143.04.288.049.436l.005.2A3.75 3.75 0 0 1 9 10.75H5.379a2.75 2.75 0 0 0 2.121 4.5h6a2.75 2.75 0 0 0 1.168-5.24l-.472-.221.043-.52a3.248 3.248 0 0 0-1.574-3.061ZM6.5 1.75a2.75 2.75 0 0 0-2.737 2.486l-.046.48-.455.158A2.251 2.251 0 0 0 4 9.25h.761a4.234 4.234 0 0 1 1.332-.762l.192-.062.008-.07A4.756 4.756 0 0 1 9.27 4.574l-.032-.339A2.75 2.75 0 0 0 6.5 1.75Zm4.374 4.004-.058.001c-1.71.096-3.066 1.511-3.066 3.223l.007.272H9a2.25 2.25 0 0 0 2.245-2.096L11.25 7c0-.456-.137-.886-.376-1.246Z"/></svg>