<svg viewBox="0 0 18 18" xmlns="http://www.w3.org/2000/svg"><path data-follow-fill="#6B7180" d="M9 .25a8.75 8.75 0 1 1 0 17.5A8.75 8.75 0 0 1 9 .25Zm0 1.5a7.25 7.25 0 1 0 0 14.5 7.25 7.25 0 0 0 0-14.5Zm2.996 3.05.094.06a.75.75 0 0 1 .212.955l-.06.094-2.121 2.841h.96a.75.75 0 0 1 .102 1.493l-.102.007H9.75v.5h1.331a.75.75 0 0 1 .102 1.493l-.102.007H9.75v1.273a.75.75 0 0 1-1.493.101l-.007-.101V12.25H7a.75.75 0 0 1-.102-1.493L7 10.75h1.25v-.5H7a.75.75 0 0 1-.102-1.493L7 8.75h.85L5.63 5.923a.75.75 0 0 1 1.105-1.008l.075.082 2.175 2.77 2.056-2.755a.75.75 0 0 1 .955-.213Z" fill="#6B7180" fill-rule="nonzero"/></svg>