<svg viewBox="0 0 18 18" xmlns="http://www.w3.org/2000/svg"><path data-follow-fill="#6B7180" fill="#6B7180" d="M9 .875a6.5 6.5 0 1 1-6.5 6.5v-.002l.004-.231A6.5 6.5 0 0 1 9 .875ZM4.14 8.554l.02.083a5.008 5.008 0 0 0 3.663 3.599 9.474 9.474 0 0 1-1.064-2.62A9.49 9.49 0 0 1 4.14 8.553Zm9.72-.002-.167.098a9.479 9.479 0 0 1-2.453.966 9.49 9.49 0 0 1-1.061 2.619 5.007 5.007 0 0 0 3.682-3.683ZM9.618 9.855l-.26.014a10.17 10.17 0 0 1-.973-.013c.144.449.332.888.56 1.317L9 11.27l.056-.098c.23-.43.417-.869.562-1.318ZM9 6.375c-.32 0-.636.018-.946.053a8.405 8.405 0 0 0-.001 1.893c.202.024.405.04.61.048L9 8.375c.32 0 .635-.017.945-.053.025-.202.04-.405.049-.61L10 7.374c0-.32-.018-.636-.053-.946A8.199 8.199 0 0 0 9 6.375Zm-2.481.385-.106.033c-.412.14-.816.316-1.21.527l-.099.054.098.056c.43.23.868.416 1.317.562a9.736 9.736 0 0 1 0-1.232Zm4.962-.002.013.26a10.17 10.17 0 0 1-.013.972 7.83 7.83 0 0 0 1.317-.56l.099-.055-.1-.055a8.049 8.049 0 0 0-1.316-.562Zm-3.66-4.243-.083.02A5.008 5.008 0 0 0 4.14 6.198a9.498 9.498 0 0 1 2.62-1.063 9.49 9.49 0 0 1 1.06-2.62Zm2.357 0 .097.167c.441.785.763 1.603.966 2.453a9.49 9.49 0 0 1 2.619 1.061 5.007 5.007 0 0 0-3.682-3.681ZM9 3.478l-.055.1c-.23.428-.416.867-.562 1.316a9.968 9.968 0 0 1 1.232 0 7.867 7.867 0 0 0-.56-1.317L9 3.478ZM2.5 17.125a.75.75 0 0 1-.102-1.493l.102-.007h5.75v-.25a.75.75 0 0 1 1.493-.102l.007.102v.25h5.75a.75.75 0 0 1 .102 1.493l-.102.007h-13Z"/></svg>