<svg xmlns="http://www.w3.org/2000/svg" viewBox="0 0 1024 1024" version="1.1"><path d="M196.923077 173.292308a23.630769 23.630769 0 0 0-23.630769 23.630769v299.835077a23.630769 23.630769 0 0 0 23.630769 23.630769h198.183385a23.630769 23.630769 0 0 0 23.630769-23.630769V196.923077a23.630769 23.630769 0 0 0-23.630769-23.630769H196.923077zM196.923077 118.153846h198.183385a78.769231 78.769231 0 0 1 78.76923 78.769231v299.835077a78.769231 78.769231 0 0 1-78.76923 78.769231H196.923077a78.769231 78.769231 0 0 1-78.769231-78.769231V196.923077a78.769231 78.769231 0 0 1 78.769231-78.769231zM628.893538 503.611077a23.630769 23.630769 0 0 0-23.630769 23.630769V827.076923a23.630769 23.630769 0 0 0 23.630769 23.630769H827.076923a23.630769 23.630769 0 0 0 23.630769-23.630769v-299.835077a23.630769 23.630769 0 0 0-23.630769-23.630769h-198.183385z m0-55.138462H827.076923a78.769231 78.769231 0 0 1 78.769231 78.769231V827.076923a78.769231 78.769231 0 0 1-78.769231 78.769231h-198.183385a78.769231 78.769231 0 0 1-78.76923-78.769231v-299.835077a78.769231 78.769231 0 0 1 78.76923-78.769231zM628.893538 173.292308a23.630769 23.630769 0 0 0-23.630769 23.630769v147.377231a23.630769 23.630769 0 0 0 23.630769 23.630769H827.076923a23.630769 23.630769 0 0 0 23.630769-23.630769V196.923077a23.630769 23.630769 0 0 0-23.630769-23.630769h-198.183385z m0-55.138462H827.076923a78.769231 78.769231 0 0 1 78.769231 78.769231v147.377231a78.769231 78.769231 0 0 1-78.769231 78.76923h-198.183385a78.769231 78.769231 0 0 1-78.76923-78.76923V196.923077a78.769231 78.769231 0 0 1 78.76923-78.769231zM196.923077 656.068923a23.630769 23.630769 0 0 0-23.630769 23.630769V827.076923a23.630769 23.630769 0 0 0 23.630769 23.630769h198.183385a23.630769 23.630769 0 0 0 23.630769-23.630769v-147.377231a23.630769 23.630769 0 0 0-23.630769-23.630769H196.923077z m0-55.138461h198.183385a78.769231 78.769231 0 0 1 78.76923 78.76923V827.076923a78.769231 78.769231 0 0 1-78.76923 78.769231H196.923077a78.769231 78.769231 0 0 1-78.769231-78.769231v-147.377231a78.769231 78.769231 0 0 1 78.769231-78.76923z" p-id="1710"></path></svg>