<svg viewBox="0 0 18 18" xmlns="http://www.w3.org/2000/svg"><path data-follow-fill="#6B7180" fill="#6B7180" d="m4.087 3.127 2.867 2.867-1.061 1.06L3.025 4.19l-.457.957a5.251 5.251 0 0 0 1.027 5.975l.167.16A5.252 5.252 0 0 0 8.94 12.4l.13-.045 3.545 3.544a1.75 1.75 0 0 0 2.475 0l.707-.707.097-.106a1.75 1.75 0 0 0-.097-2.37l-3.545-3.544.046-.13A5.252 5.252 0 0 0 5.044 2.67l-.957.457Zm-.519 3.986.025-.235 2.3 2.298 3.182-3.182-2.298-2.298.021-.004a3.75 3.75 0 0 1 3.894 5.333l-.228.479 4.272 4.272a.25.25 0 0 1 0 .354l-.707.707a.25.25 0 0 1-.353 0l-4.274-4.272-.478.228a3.752 3.752 0 0 1-5.356-3.68Z"/></svg>