<svg viewBox="0 0 1024 1024" version="1.1" xmlns="http://www.w3.org/2000/svg" width="128" height="128"><path d="M319.254649 319.647087 63.273581 319.647087l0 511.961114L319.254649 831.608202 319.254649 319.647087zM255.258103 767.612679 127.26808 767.612679 127.26808 383.64261l127.990023 0L255.258103 767.612679z"></path><path d="M639.246591 63.668065 383.250172 63.668065l0 767.940137 255.997442 0L639.247614 63.668065zM575.251068 767.612679 447.244672 767.612679 447.244672 127.662565l128.007419 0L575.252091 767.612679z"></path><path d="M703.240067 191.658088l0 639.950114 255.980046 0L959.220113 191.658088 703.240067 191.658088zM895.22459 767.612679 767.23559 767.612679l0-511.960091 127.988999 0L895.22459 767.612679z"></path><path d="M63.273581 895.600655l895.946532 0 0 63.995523-895.946532 0 0-63.995523Z"></path></svg>