<svg viewBox="0 0 1024 1024" version="1.1" xmlns="http://www.w3.org/2000/svg" xmlns:xlink="http://www.w3.org/1999/xlink" width="128" height="128"><path d="M232.504889 177.891556l163.100444 163.100444-60.359111 60.302222L172.088889 238.364444l-25.998222 54.442667a298.723556 298.723556 0 0 0 58.424889 339.911111l9.500444 9.102222A298.780444 298.780444 0 0 0 508.586667 705.422222l7.395555-2.56 201.671111 201.614222a99.555556 99.555556 0 0 0 140.8 0l40.220445-40.220444 5.518222-6.030222a99.555556 99.555556 0 0 0-5.518222-134.826667l-201.671111-201.614222 2.616889-7.395556A298.780444 298.780444 0 0 0 286.947556 151.893333l-54.442667 25.998223z m-29.525333 226.759111l1.422222-13.368889 130.844444 130.730666 181.020445-181.020444-130.730667-130.730667 1.194667-0.227555a213.333333 213.333333 0 0 1 221.525333 303.388444l-12.970667 27.249778 243.029334 243.029333a14.222222 14.222222 0 0 1 0 20.138667l-40.220445 40.220444a14.222222 14.222222 0 0 1-20.081778 0l-243.143111-243.029333-27.192889 12.970667a213.447111 213.447111 0 0 1-304.696888-209.351111z"></path></svg>