<svg viewBox="0 0 1024 1024" version="1.1" xmlns="http://www.w3.org/2000/svg" xmlns:xlink="http://www.w3.org/1999/xlink" width="128" height="128"><path d="M853.333333 56.888889a56.888889 56.888889 0 0 1 56.888889 56.888889v284.444444a56.888889 56.888889 0 0 1-56.888889 56.888889H170.666667a56.888889 56.888889 0 0 1-56.888889-56.888889V113.777778a56.888889 56.888889 0 0 1 56.888889-56.888889h682.666666z m-28.444444 85.333333h-625.777778v227.555556h625.777778v-227.555556z m-512 28.444445a85.333333 85.333333 0 1 1 0 170.666666 85.333333 85.333333 0 0 1 0-170.666666z m540.444444 398.222222a56.888889 56.888889 0 0 1 56.888889 56.888889v284.444444a56.888889 56.888889 0 0 1-56.888889 56.888889H170.666667a56.888889 56.888889 0 0 1-56.888889-56.888889v-284.444444a56.888889 56.888889 0 0 1 56.888889-56.888889h682.666666z m-28.444444 85.333333h-625.777778v227.555556h625.777778v-227.555556z m-512 28.444445a85.333333 85.333333 0 1 1 0 170.666666 85.333333 85.333333 0 0 1 0-170.666666z"></path></svg>