<svg viewBox="0 0 1024 1024" version="1.1" xmlns="http://www.w3.org/2000/svg" xmlns:xlink="http://www.w3.org/1999/xlink" width="128" height="128"><path d="M369.777778 14.222222a241.891556 241.891556 0 0 1 234.780444 183.751111l1.991111 9.045334 6.030223 3.015111c17.180444 9.216 32.881778 20.593778 46.705777 33.848889A270.222222 270.222222 0 0 1 896 512l-0.056889-2.161778-0.056889-3.925333 6.200889 3.982222a241.607111 241.607111 0 0 1 107.406222 188.928l0.284445 12.288a241.777778 241.777778 0 0 1-241.777778 241.777778h-341.333333a241.777778 241.777778 0 0 1-219.875556-342.414222 213.276444 213.276444 0 0 1-79.815111-400.440889l6.030222-3.072 1.991111-9.045334A241.891556 241.891556 0 0 1 357.831111 14.506667z m350.72 338.944l1.763555 8.874667c1.422222 8.135111 2.275556 16.384 2.787556 24.803555l0.284444 11.377778A213.333333 213.333333 0 0 1 512 611.555556H306.005333a156.444444 156.444444 0 0 0 120.661334 256h341.333333a156.444444 156.444444 0 0 0 66.446222-298.097778l-26.851555-12.572445 2.446222-29.582222a184.775111 184.775111 0 0 0-89.543111-174.136889zM369.777778 99.555556a156.444444 156.444444 0 0 0-155.704889 141.425777l-2.616889 27.306667-25.884444 8.988444A128.056889 128.056889 0 0 0 227.555556 526.222222h43.292444a240.867556 240.867556 0 0 1 75.776-43.349333l10.922667-3.527111 0.455111-3.982222A270.563556 270.563556 0 0 1 527.36 260.209778l-1.820444-19.285334A156.444444 156.444444 0 0 0 369.777778 99.555556z m248.832 227.783111l-3.299556 0.056889c-97.28 5.461333-174.421333 85.959111-174.421333 183.352888l0.398222 15.473778H512a128 128 0 0 0 127.715556-119.239111L640 398.222222c0-25.941333-7.793778-50.403556-21.390222-70.883555z"></path></svg>