<svg viewBox="0 0 18 18" xmlns="http://www.w3.org/2000/svg"><path data-follow-fill="#6B7180" fill="#6B7180" d="M11 4a2 2 0 0 1 2 2v1.75h3.5a.75.75 0 0 1 .102 1.493l-.102.007H13V12a2 2 0 0 1-2 2H7a2 2 0 0 1-2-2V9.25H1.5a.75.75 0 0 1-.102-1.493L1.5 7.75H5V6a2 2 0 0 1 2-2h4Zm0 1.5H7a.5.5 0 0 0-.492.41L6.5 6v6a.5.5 0 0 0 .41.492L7 12.5h4a.5.5 0 0 0 .492-.41L11.5 12V6a.5.5 0 0 0-.41-.492L11 5.5Zm2.5-3.75a.75.75 0 0 1 .102 1.493l-.102.007h-9a.75.75 0 0 1-.102-1.493L4.5 1.75h9Zm0 13a.75.75 0 0 1 .102 1.493l-.102.007h-9a.75.75 0 0 1-.102-1.493l.102-.007h9Z"/></svg>