<svg viewBox="0 0 18 18" xmlns="http://www.w3.org/2000/svg"><path data-follow-fill="#6B7180" fill="#6B7180" d="M8.989 2.025c3.572 0 6.468 1.425 6.468 3.182v2.545a.122.122 0 0 1 .001.023l-.001 2.522a.138.138 0 0 1 .001.024v2.523c0 1.757-2.897 3.182-6.47 3.182-3.572 0-6.468-1.425-6.468-3.182V5.207c0-.313.092-.615.263-.9.788-1.319 3.268-2.282 6.206-2.282Zm5.174 10.183c-1.18.772-3.058 1.272-5.174 1.272-2.116 0-3.995-.5-5.175-1.273v.637c0 .673 1.965 1.909 5.175 1.909s5.175-1.237 5.175-1.91ZM3.814 9.662v.636c0 .673 1.965 1.909 5.175 1.909s5.175-1.236 5.175-1.909l-.001.01v-.645c-1.129.738-2.897 1.228-4.9 1.269l-.274.002c-2.116 0-3.995-.5-5.175-1.272ZM8.99 8.389c-2.116 0-3.995-.5-5.175-1.272v.636c0 .673 1.965 1.909 5.175 1.909s5.175-1.236 5.175-1.91l-.001.011v-.647c-1.18.773-3.058 1.273-5.174 1.273Zm0-5.091c-3.21 0-5.175 1.236-5.175 1.909s1.965 1.91 5.175 1.91 5.175-1.237 5.175-1.91c0-.652-1.844-1.832-4.878-1.905l-.297-.004Z"/></svg>