<svg viewBox="0 0 1024 1024" version="1.1" xmlns="http://www.w3.org/2000/svg" width="200" height="200"><path d="M919.7 390.5c-2.1-6.2-7.4-10.8-13.9-11.7l-264.3-38.4L523.3 101c-5.8-11.8-25.1-11.8-30.8 0L374.3 340.4 110 378.8c-6.5 0.9-11.9 5.5-13.9 11.7-2 6.2-0.3 13 4.4 17.6l191.2 186.4-45.1 263.2c-1.1 6.4 1.5 13 6.9 16.8 5.3 3.9 12.3 4.4 18.1 1.3L508 751.5l236.3 124.3c2.5 1.3 5.3 2 8 2 3.6 0 7.1-1.1 10.1-3.3 5.3-3.9 8-10.4 6.9-16.8l-45.1-263.2 191.2-186.4c4.6-4.5 6.3-11.4 4.3-17.6zM693.5 576.2c-4 4-5.9 9.7-4.9 15.2l40.8 237.7-213.5-112.2c-2.5-1.3-5.3-2-8-2-2.8 0-5.5 0.7-8 2L286.4 829.2l40.8-237.7c0.9-5.6-0.9-11.3-5-15.2L149.5 407.9l238.7-34.7c5.6-0.8 10.4-4.4 13-9.4l106.7-216.3 106.7 216.3c2.5 5.1 7.3 8.6 12.9 9.4l238.7 34.7-172.7 168.3z m0 0"></path></svg>