<svg viewBox="0 0 1024 1024" version="1.1" xmlns="http://www.w3.org/2000/svg" xmlns:xlink="http://www.w3.org/1999/xlink" width="128" height="128"><path d="M853.333333 56.888889a99.555556 99.555556 0 0 1 99.214223 91.363555l0.341333 8.192v512a99.555556 99.555556 0 0 1-91.363556 99.214223L853.333333 768H170.666667a99.555556 99.555556 0 0 1-99.214223-91.363556l-0.341333-8.192v-512a99.555556 99.555556 0 0 1 91.363556-99.214222L170.666667 56.888889h682.666666z m14.222223 398.222222H156.444444v213.333333a14.222222 14.222222 0 0 0 10.979556 13.824L170.666667 682.666667h682.666666a14.222222 14.222222 0 0 0 13.824-10.979556l0.398223-3.242667V455.111111z m-553.358223 27.306667v142.222222h-85.333333v-142.222222h85.333333z m170.666667 0v142.222222h-85.333333v-142.222222h85.333333zM853.333333 142.222222H170.666667a14.222222 14.222222 0 0 0-13.824 10.979556l-0.398223 3.242666V369.777778h711.111112V156.444444a14.222222 14.222222 0 0 0-10.979556-13.824L853.333333 142.222222z m-539.136 41.244445v142.222222h-85.333333v-142.222222h85.333333z m170.666667 0v142.222222h-85.333333v-142.222222h85.333333zM881.777778 881.777778a42.666667 42.666667 0 0 1 5.802666 84.935111L881.777778 967.111111h-739.555556a42.666667 42.666667 0 0 1-5.802666-84.935111L142.222222 881.777778h739.555556z"></path></svg>