<svg viewBox="0 0 1024 1024" version="1.1" xmlns="http://www.w3.org/2000/svg" xmlns:xlink="http://www.w3.org/1999/xlink" width="128" height="128"><path d="M625.777778 227.555556a113.777778 113.777778 0 0 1 113.777778 113.777777v99.555556h199.111111a42.666667 42.666667 0 0 1 5.802666 84.935111l-5.802666 0.398222H739.555556V682.666667a113.777778 113.777778 0 0 1-113.777778 113.777777H398.222222a113.777778 113.777778 0 0 1-113.777778-113.777777V526.222222H85.333333a42.666667 42.666667 0 0 1-5.802666-84.935111L85.333333 440.888889H284.444444V341.333333a113.777778 113.777778 0 0 1 113.777778-113.777777h227.555556z m0 85.333333H398.222222a28.444444 28.444444 0 0 0-27.989333 23.324444L369.777778 341.333333v341.333334a28.444444 28.444444 0 0 0 23.324444 27.989333L398.222222 711.111111h227.555556a28.444444 28.444444 0 0 0 27.989333-23.324444L654.222222 682.666667V341.333333a28.444444 28.444444 0 0 0-23.324444-27.989333L625.777778 312.888889z m142.222222-213.333333a42.666667 42.666667 0 0 1 5.802667 84.935111l-5.802667 0.398222h-512a42.666667 42.666667 0 0 1-5.802667-84.935111L256 99.555556h512z m0 739.555555a42.666667 42.666667 0 0 1 5.802667 84.935111l-5.802667 0.398222h-512a42.666667 42.666667 0 0 1-5.802667-84.935111l5.802667-0.398222h512z"></path></svg>