<svg viewBox="0 0 18 18" xmlns="http://www.w3.org/2000/svg"><path data-follow-fill="#6B7180" fill="#6B7180" d="M9 1.5a9 9 0 0 1 6.708 15H2.292A9 9 0 0 1 9 1.5ZM9 3a7.5 7.5 0 0 0-6.187 11.74L3 15h12l.187-.259a7.455 7.455 0 0 0 1.306-3.912l.007-.33A7.5 7.5 0 0 0 9 3Zm0 2.75c1.017 0 1.778.209 2.469.709l.321-.417a.75.75 0 0 1 1.25.822l-.06.093-3.385 4.401a.75.75 0 0 1-1.25-.822l.06-.092 2.149-2.795c-.42-.292-.871-.4-1.554-.4a3.25 3.25 0 0 0-3.25 3.25.75.75 0 0 1-1.5 0A4.75 4.75 0 0 1 9 5.75Z"/></svg>