<svg viewBox="0 0 1024 1024" version="1.1" xmlns="http://www.w3.org/2000/svg" width="200" height="200"><path d="M711.7 517.1c0 18.2 9.7 35 25.5 44.2 15.8 9.1 35.2 9.1 51 0 15.8-9.1 25.5-25.9 25.5-44.2 0-18.2-9.7-35-25.5-44.1a51.05 51.05 0 0 0-51 0c-15.8 9-25.5 25.9-25.5 44.1z m0 0M588.2 641.6c0 18.2 9.7 35 25.5 44.1 15.8 9.1 35.2 9.1 51 0a50.86 50.86 0 0 0 25.5-44.1c0-18.2-9.7-35-25.5-44.2a51.05 51.05 0 0 0-51 0c-15.8 9.2-25.5 26-25.5 44.2z m0 0"></path><path d="M389.1 548.3h-46.3V502c0-17.2-13.9-31.1-31.1-31.1-17.2 0-31.1 13.9-31.1 31.1v46.3h-46.3c-17.2 0-31.1 13.9-31.1 31.1 0 17.2 13.9 31.1 31.1 31.1h46.3v46.3c0 17.2 13.9 31.1 31.1 31.1 17.2 0 31.1-13.9 31.1-31.1v-46.3h46.3c17.2 0 31.1-13.9 31.1-31.1 0-17.2-13.9-31.1-31.1-31.1z m0 0"></path><path d="M713 332.7H611.3c23.2-24.1 36.8-48.7 44.6-69 16.3-42.3 12.6-75.9 12.2-79.7-2.2-17-17.8-29.1-34.8-26.9-17 2.2-29.1 17.8-26.9 34.8 0 0.2 2.2 21.7-8.5 49.3-14.8 38.4-46.3 69.1-93.5 91.4H315.3C185.4 332.7 79.2 439 79.2 568.8v21.1C79.2 719.8 185.4 826 315.3 826H713c129.9 0 236.1-106.2 236.1-236.1v-21.1c0-129.9-106.3-236.1-236.1-236.1z m173.9 257.2c-0.4 95.9-78 173.5-173.9 173.9H315.3c-95.9-0.4-173.5-78-173.9-173.9v-21.1c0.4-95.9 78-173.5 173.9-173.9h193.2c0.8 0.1 1.6 0.1 2.4 0.1 0.8 0 1.6 0 2.4-0.1H713c95.9 0.4 173.5 78 173.9 173.9v21.1z m0 0"></path></svg>