<svg viewBox="0 0 1024 1024" version="1.1" xmlns="http://www.w3.org/2000/svg" xmlns:xlink="http://www.w3.org/1999/xlink" width="128" height="128"><path d="M716.458667 107.235556l4.380444 3.811555 201.159111 201.102222a42.666667 42.666667 0 0 1-55.978666 64.170667l-4.380445-3.811556-121.173333-121.173333v348.615111a325.461333 325.461333 0 0 1-650.695111 12.515556l-0.227556-12.515556V200.135111a42.666667 42.666667 0 0 1 84.935111-5.802667l0.398222 5.802667v399.815111a240.128 240.128 0 0 0 479.971556 12.003556l0.341333-11.946667-0.056889-362.951111-135.395555 135.452444a42.666667 42.666667 0 0 1-55.978667 3.811556l-4.380444-3.811556a42.666667 42.666667 0 0 1-3.811556-55.978666l3.811556-4.380445 201.102222-201.102222a42.666667 42.666667 0 0 1 55.978667-3.811555z"></path></svg>