<svg viewBox="0 0 18 18" xmlns="http://www.w3.org/2000/svg"><path data-follow-fill="#6B7180" fill="#6B7180" d="M9.243 1.25a1.75 1.75 0 0 1 1.684 1.275l.301 1.069.995-.546a1.75 1.75 0 0 1 1.967.192l.114.104.35.35a1.75 1.75 0 0 1 .295 2.085l-.547.987 1.076.306a1.75 1.75 0 0 1 1.265 1.529l.007.155v.487a1.75 1.75 0 0 1-1.276 1.684l-1.081.304.55.986a1.75 1.75 0 0 1-.185 1.976l-.105.114-.345.345a1.75 1.75 0 0 1-2.092.289l-.971-.544-.315 1.09a1.75 1.75 0 0 1-1.527 1.256l-.154.007h-.496a1.75 1.75 0 0 1-1.682-1.266l-.313-1.085-.975.545a1.75 1.75 0 0 1-1.976-.186l-.114-.105-.345-.345a1.75 1.75 0 0 1-.289-2.092l.543-.971-1.09-.315a1.75 1.75 0 0 1-1.255-1.527L1.25 9.25v-.496c0-.78.516-1.466 1.266-1.682l1.073-.31-.54-.984a1.75 1.75 0 0 1 .19-1.967l.105-.114.35-.35A1.75 1.75 0 0 1 5.78 3.05l.987.546.306-1.075a1.75 1.75 0 0 1 1.529-1.265l.155-.007Zm0 1.5h-.487a.25.25 0 0 0-.24.182l-.548 1.925-.368.129c-.15.052-.296.113-.44.181l-.348.168-1.759-.971a.25.25 0 0 0-.298.042l-.35.35a.25.25 0 0 0-.042.298l.97 1.763-.168.348a4.218 4.218 0 0 0-.176.427l-.129.365-1.93.556a.25.25 0 0 0-.18.24v.496a.25.25 0 0 0 .18.24l1.932.56.128.364c.053.15.114.296.184.44l.17.351-.976 1.745a.25.25 0 0 0 .041.299l.344.344a.25.25 0 0 0 .3.042l1.748-.975.351.17c.143.069.29.13.44.182l.365.129.556 1.93a.25.25 0 0 0 .24.18h.496a.25.25 0 0 0 .24-.18l.56-1.932.364-.128c.15-.053.296-.114.44-.184l.351-.17 1.745.976a.25.25 0 0 0 .299-.041l.344-.344a.25.25 0 0 0 .042-.3l-.975-1.748.17-.351c.07-.147.133-.299.187-.453l.129-.37 1.923-.542a.25.25 0 0 0 .182-.24v-.487a.25.25 0 0 0-.182-.24l-1.925-.548-.129-.368a4.218 4.218 0 0 0-.181-.44l-.168-.348.971-1.759a.25.25 0 0 0-.042-.298l-.35-.35a.25.25 0 0 0-.298-.042l-1.763.97-.348-.168a4.218 4.218 0 0 0-.44-.18l-.369-.13-.543-1.923a.25.25 0 0 0-.24-.182ZM9 6.25a2.75 2.75 0 1 1 0 5.5 2.75 2.75 0 0 1 0-5.5Zm0 1.5a1.25 1.25 0 1 0 0 2.5 1.25 1.25 0 0 0 0-2.5Z"/></svg>