<svg viewBox="0 0 18 18" xmlns="http://www.w3.org/2000/svg"><path data-follow-fill="#6B7180" fill="#6B7180" d="M7.463.47a2.75 2.75 0 0 1 2.81 0l.336.197c1.882 1.086 3.379 1.619 4.458 1.619l.5.004a1.76 1.76 0 0 1 1.92 1.51c.059.442.089.818.089 1.133 0 5.606-3.475 11.222-8.275 13.136l-.278.11-.278-.11C3.948 16.154.475 10.538.475 4.933c0-.256.022-.553.066-.902l.034-.25a1.75 1.75 0 0 1 1.73-1.495h.36c1.144 0 2.756-.597 4.798-1.816Zm1.909 1.22a1.25 1.25 0 0 0-1.143.07l.002-.002.026-.013-.399.234C5.89 3.11 4.246 3.716 2.9 3.78l-.236.006h-.358a.248.248 0 0 0-.246.206l-.032.236a5.76 5.76 0 0 0-.053.705c0 4.805 2.869 9.645 6.807 11.515l.24.11.243-.11c3.856-1.83 6.686-6.5 6.807-11.202l.004-.313c0-.24-.025-.553-.076-.93-.018-.136-.144-.235-.359-.217h-.574c-1.469 0-3.31-.683-5.562-2.027Zm3.366 4.484a.75.75 0 0 1 .128.971l-.068.088-3.695 4.138a.75.75 0 0 1-.975.125l-.088-.068-2.146-1.946a.75.75 0 0 1 .92-1.18l.088.069 1.585 1.436 3.192-3.573a.75.75 0 0 1 1.06-.06Z"/></svg>