<?xml version="1.0" standalone="no"?><!DOCTYPE svg PUBLIC "-//W3C//DTD SVG 1.1//EN" "http://www.w3.org/Graphics/SVG/1.1/DTD/svg11.dtd"><svg t="1619676544649" class="icon" viewBox="0 0 1024 1024" version="1.1" xmlns="http://www.w3.org/2000/svg" p-id="1128" xmlns:xlink="http://www.w3.org/1999/xlink" width="200" height="200"><defs><style type="text/css"></style></defs><path d="M512 1024C76.96384 1024 0 947.03616 0 512S76.96384 0 512 0 1024 76.96384 1024 512 947.022507 1024 512 1024z m0-998.4C98.7136 25.6 25.6 98.7136 25.6 512S98.7136 998.4 512 998.4 998.4 925.272747 998.4 512 925.272747 25.6 512 25.6z" fill="#ffffff" p-id="1129"></path><path d="M279.893333 785.066667c-101.034667 0-177.793707-5.270187-236.05248-21.149014C30.26944 698.69568 25.6 616.174933 25.6 512 25.6 98.7136 98.7136 25.6 512 25.6c31.402667 0 60.648107 0.49152 88.255147 1.447253C671.45728 83.367253 689.493333 187.665067 689.493333 375.466667c0 348.023467-61.576533 409.6-409.6 409.6z" fill="#ffffff" opacity=".2" p-id="1130"></path><path d="M546.133333 518.826667m-136.533333 0a136.533333 136.533333 0 1 0 273.066667 0 136.533333 136.533333 0 1 0-273.066667 0Z" fill="#ffffff" p-id="1131"></path><path d="M811.70432 507.071147H757.896533a17.85856 17.85856 0 1 1 0-35.703467h53.807787a17.85856 17.85856 0 1 1 0 35.703467z m-111.520427-175.035734a17.85856 17.85856 0 1 1-25.245013-25.245013l38.038187-38.038187a17.85856 17.85856 0 1 1 25.245013 25.245014zM546.133333 559.786667h-109.226666a13.653333 13.653333 0 1 1 0-27.306667h109.226666a13.653333 13.653333 0 1 1 0 27.306667z m-109.226666-109.226667a13.653333 13.653333 0 1 1 0-27.306667h54.613333a13.653333 13.653333 0 1 1 0 27.306667h-54.613333z m191.146666 40.96a13.653333 13.653333 0 0 1-13.653333 13.653333H436.906667a13.653333 13.653333 0 1 1 0-27.306666h177.493333a13.653333 13.653333 0 0 1 13.653333 13.653333z m-5.311146 142.636373a196.1984 196.1984 0 0 0-10.6496 50.33984 17.844907 17.844907 0 0 1-13.339307 15.68768l-151.005867 38.775467a17.85856 17.85856 0 1 1-8.874666-34.583893l139.10016-35.71712a194.819413 194.819413 0 0 1 14.226773-53.98528 17.749333 17.749333 0 0 1 6.26688-7.154347 145.312427 145.312427 0 1 0-147.264853 7.33184 17.85856 17.85856 0 1 1-16.5888 31.62112 181.0432 181.0432 0 1 1 188.12928-12.315307z m-104.98048-367.274666a17.85856 17.85856 0 0 1-17.85856-17.85856V195.242667a17.85856 17.85856 0 1 1 35.703466 0v53.794133a17.85856 17.85856 0 0 1-17.844906 17.89952zM347.968853 337.237333a17.749333 17.749333 0 0 1-12.629333-5.229226l-38.038187-38.038187a17.85856 17.85856 0 1 1 25.245014-25.245013l38.038186 38.065493a17.85856 17.85856 0 0 1-12.61568 30.446933z m-70.341973 169.833814h-53.794133a17.85856 17.85856 0 1 1 0-35.703467h53.807786a17.85856 17.85856 0 1 1-0.013653 35.703467z m57.71264 139.264a17.85856 17.85856 0 1 1 25.245013 25.245013l-38.038186 38.038187a17.85856 17.85856 0 1 1-25.245014-25.245014z m103.519573 113.227093L589.824 720.896a17.85856 17.85856 0 0 1 8.88832 34.583893l-151.01952 38.775467a17.85856 17.85856 0 1 1-8.833707-34.638507z m49.575254 42.175147a44.946773 44.946773 0 0 0 57.09824 0 17.85856 17.85856 0 1 1 22.7328 27.538773 80.65024 80.65024 0 0 1-102.52288 0.068267 17.85856 17.85856 0 1 1 22.69184-27.552427z m211.7632-155.40224l38.038186 38.038186a17.85856 17.85856 0 0 1-25.245013 25.245014l-38.038187-38.038187a17.85856 17.85856 0 1 1 25.23136-25.1904z" fill="#ffffff" p-id="1132"></path></svg>