<svg viewBox="0 0 1024 1024" version="1.1" xmlns="http://www.w3.org/2000/svg" xmlns:xlink="http://www.w3.org/1999/xlink" width="128" height="128"><path d="M426.666667 37.603556a56.888889 56.888889 0 0 1 56.888889 56.888888v398.222223a56.888889 56.888889 0 0 1-56.888889 56.888889h-341.333334a56.888889 56.888889 0 0 1-56.888889-56.888889v-398.222223a56.888889 56.888889 0 0 1 56.888889-56.888888h341.333334z m-28.444445 85.333333H113.777778v341.333333h284.444444v-341.333333z m28.444445 540.444444a56.888889 56.888889 0 0 1 56.888889 56.888889v209.237334a56.888889 56.888889 0 0 1-56.888889 56.888888h-341.333334a56.888889 56.888889 0 0 1-56.888889-56.888888V720.213333a56.888889 56.888889 0 0 1 56.888889-56.888889h341.333334z m-28.444445 85.333334H113.777778v152.291555h284.444444v-152.291555z m540.444445 237.681777a56.888889 56.888889 0 0 0 56.888889-56.888888v-398.222223a56.888889 56.888889 0 0 0-56.888889-56.888889h-341.333334a56.888889 56.888889 0 0 0-56.888889 56.888889v398.222223a56.888889 56.888889 0 0 0 56.888889 56.888888h341.333334z m-28.444445-85.333333h-284.444444v-341.333333h284.444444v341.333333z m28.444445-540.444444a56.888889 56.888889 0 0 0 56.888889-56.888889V94.435556a56.888889 56.888889 0 0 0-56.888889-56.888889h-341.333334a56.888889 56.888889 0 0 0-56.888889 56.888889v209.351111a56.888889 56.888889 0 0 0 56.888889 56.888889h341.333334z m-28.444445-85.333334h-284.444444V122.993778h284.444444v152.291555z"></path></svg>