<svg viewBox="0 0 18 18" xmlns="http://www.w3.org/2000/svg"><path data-follow-fill="#6B7180" fill="#6B7180" d="M7.5.661a1 1 0 0 1 1 1v7a1 1 0 0 1-1 1h-6a1 1 0 0 1-1-1v-7a1 1 0 0 1 1-1h6Zm-.5 1.5H2v6h5v-6Zm.5 9.5a1 1 0 0 1 1 1v3.678a1 1 0 0 1-1 1h-6a1 1 0 0 1-1-1V12.66a1 1 0 0 1 1-1h6Zm-.5 1.5H2v2.677h5v-2.677Zm9.5 4.178a1 1 0 0 0 1-1v-7a1 1 0 0 0-1-1h-6a1 1 0 0 0-1 1v7a1 1 0 0 0 1 1h6Zm-.5-1.5h-5v-6h5v6Zm.5-9.5a1 1 0 0 0 1-1V1.66a1 1 0 0 0-1-1h-6a1 1 0 0 0-1 1v3.68a1 1 0 0 0 1 1h6Zm-.5-1.5h-5V2.162h5v2.677Z"/></svg>