<svg viewBox="0 0 1024 1024" version="1.1" xmlns="http://www.w3.org/2000/svg" xmlns:xlink="http://www.w3.org/1999/xlink" width="128" height="128"><path d="M525.824 71.111111a99.555556 99.555556 0 0 1 95.800889 72.533333l17.123555 60.814223 56.604445-31.061334a99.555556 99.555556 0 0 1 111.900444 10.922667l6.485334 5.916444 19.911111 19.911112a99.555556 99.555556 0 0 1 16.782222 118.613333l-31.118222 56.149333 61.212444 17.408a99.555556 99.555556 0 0 1 71.964445 86.983111l0.398222 8.817778v27.704889a99.555556 99.555556 0 0 1-72.590222 95.800889l-61.496889 17.294222 31.288889 56.092445a99.555556 99.555556 0 0 1-10.524445 112.412444l-5.973333 6.485333-19.626667 19.626667a99.555556 99.555556 0 0 1-119.011555 16.440889l-55.239111-30.947556-17.92 62.008889a99.555556 99.555556 0 0 1-86.869334 71.452445l-8.760889 0.398222h-28.216889a99.555556 99.555556 0 0 1-95.687111-72.021333l-17.806222-61.724445-55.466667 31.004445a99.555556 99.555556 0 0 1-112.412444-10.581334l-6.485333-5.973333-19.626667-19.626667a99.555556 99.555556 0 0 1-16.440889-119.011555l30.890667-55.239111-62.008889-17.92a99.555556 99.555556 0 0 1-71.395556-86.869334L71.111111 526.222222v-28.216889c0-44.373333 29.354667-83.399111 72.021333-95.687111l61.041778-17.635555-30.72-55.978667a99.555556 99.555556 0 0 1 10.808889-111.900444l5.973333-6.485334 19.911112-19.911111A99.555556 99.555556 0 0 1 328.817778 173.511111l56.149333 31.061333 17.408-61.155555a99.555556 99.555556 0 0 1 86.983111-71.964445l8.817778-0.398222z m0 85.333333h-27.704889a14.222222 14.222222 0 0 0-13.653333 10.353778l-31.175111 109.511111-20.935111 7.338667c-8.533333 2.958222-16.839111 6.428444-25.031112 10.296889l-19.797333 9.557333-100.067555-55.239111a14.222222 14.222222 0 0 0-16.952889 2.389333l-19.911111 19.911112a14.222222 14.222222 0 0 0-2.389334 16.952888l55.182222 100.295112-9.557333 19.797333a239.957333 239.957333 0 0 0-10.012444 24.291555l-7.338667 20.764445-109.795556 31.630222a14.222222 14.222222 0 0 0-10.24 13.653333v28.216889a14.222222 14.222222 0 0 0 10.24 13.653334l109.909334 31.857777 7.281778 20.707556c3.015111 8.533333 6.485333 16.839111 10.467555 25.031111l9.671111 19.968-55.523555 99.271111a14.222222 14.222222 0 0 0 2.332444 17.009778l19.569778 19.569778a14.222222 14.222222 0 0 0 17.066667 2.389333l99.441777-55.466667 19.968 9.671112c8.135111 3.925333 16.497778 7.395556 25.031111 10.353777l20.764445 7.338667 31.630222 109.795556a14.222222 14.222222 0 0 0 13.653333 10.24h28.216889a14.222222 14.222222 0 0 0 13.653334-10.24l31.857777-109.909334 20.707556-7.281778c8.533333-3.015111 16.839111-6.485333 25.031111-10.467555l19.968-9.671111 99.271111 55.523555a14.222222 14.222222 0 0 0 17.009778-2.332444l19.569778-19.569778a14.222222 14.222222 0 0 0 2.389333-17.066667l-55.466667-99.441777 9.671112-19.968c3.982222-8.362667 7.566222-17.009778 10.638222-25.770667l7.338666-21.048889 109.397334-30.833778a14.222222 14.222222 0 0 0 10.353778-13.653333v-27.704889a14.222222 14.222222 0 0 0-10.353778-13.653333l-109.511111-31.175111-7.338667-20.935111a239.957333 239.957333 0 0 0-10.296889-25.031112l-9.557333-19.797333 55.239111-100.067555a14.222222 14.222222 0 0 0-2.389333-16.952889l-19.911112-19.911111a14.222222 14.222222 0 0 0-16.952888-2.389334l-100.295112 55.182222-19.797333-9.557333a239.957333 239.957333 0 0 0-25.031111-10.24l-20.992-7.395555-30.890667-109.397334a14.222222 14.222222 0 0 0-13.653333-10.353778zM512 355.555556a156.444444 156.444444 0 1 1 0 312.888888 156.444444 156.444444 0 0 1 0-312.888888z m0 85.333333a71.111111 71.111111 0 1 0 0 142.222222 71.111111 71.111111 0 0 0 0-142.222222z"></path></svg>