<svg viewBox="0 0 1024 1024" version="1.1" xmlns="http://www.w3.org/2000/svg" xmlns:xlink="http://www.w3.org/1999/xlink" width="200" height="200"><path d="M196.1 989.7c-9.1 0-17.6-3.5-24-9.9-6.3-6.3-9.9-15-9.9-24v-236c0-1.9-1.4-3.5-3.3-3.8-39.1-5.1-108.4-19.7-133.7-60.7-12.4-20.1-13.5-44.2-3.1-67.7 27.2-61.2 72.5-105.4 97-126.2 0.7-0.6 1.2-1.5 1.3-2.4 8.9-71.3 71.3-426.8 428.7-426.8 194.6 0 351.9 88.1 420.8 235.5 73.4 157.3 30.3 352.4-118.3 535.4-0.6 0.7-0.8 1.5-0.8 2.4V950c0 18.7-15.2 33.9-33.9 33.9S783 968.7 783 950V791.8c0-8 2.8-15.7 7.9-21.8C929.1 604.9 972 432.1 908.6 296.2c-57.5-123-191.8-196.4-359.4-196.4-336.2 0-361.8 364.6-362.8 380.1-0.7 10.1-5.7 19.4-13.9 25.4-6.3 4.8-60.7 47.3-88.4 109.7-0.4 1-0.4 2.1 0 3 7.1 16.8 65.6 31.1 113.6 33.5 18.1 0.9 32.2 15.7 32.3 33.8V918c0 2.1 1.7 3.8 3.8 3.8h189.3c18.7 0 33.9 15.2 33.9 33.9s-15.2 33.9-33.9 33.9h-227z"></path><path d="M583.9 687.3c-14.3 0-27.1-9-31.9-22.4l-21.3-62.3c-0.5-1.5-2-2.6-3.6-2.6H415.2c-1.6 0-3.1 1-3.6 2.5L389 665.4c-5.1 12.8-17.5 21.1-31.4 21.1-3.9 0-7.8-0.7-11.5-2-17.2-6.2-26.4-24.7-20.8-42.2l116.3-323.6c4.8-13.4 17.6-22.4 31.9-22.4 14.6 0.1 27.4 9.3 32 22.9l110.7 323.7c5.7 17.4-3.9 36.6-21.3 42.5-3.6 1.3-7.2 1.9-11 1.9z m-111.4-247c-1.6 0-3.1 1-3.6 2.5L438.7 527c-0.4 1.2-0.2 2.5 0.5 3.5s1.9 1.6 3.1 1.6h59c1.2 0 2.4-0.6 3.1-1.6 0.7-1 0.9-2.3 0.5-3.5l-28.8-84.2c-0.5-1.5-1.9-2.5-3.6-2.5z m225 244.5c-18.7 0-33.9-14.7-33.9-32.7V329.3c0-18 15.2-32.7 33.9-32.7s33.9 14.7 33.9 32.7v322.9c-0.1 18-15.3 32.6-33.9 32.6z"></path></svg>