<svg viewBox="0 0 1024 1024" version="1.1" xmlns="http://www.w3.org/2000/svg" xmlns:xlink="http://www.w3.org/1999/xlink" width="128" height="128"><path d="M511.374222 115.2c203.207111 0 367.957333 81.066667 367.957334 181.020444v144.782223a6.940444 6.940444 0 0 1 0.056888 1.308444l-0.056888 143.473778a7.850667 7.850667 0 0 1 0.056888 1.365333v143.530667c0 99.953778-164.807111 181.020444-368.071111 181.020444-203.207111 0-367.957333-81.066667-367.957333-181.020444V296.220444c0-17.806222 5.233778-34.986667 14.961778-51.2 44.828444-75.036444 185.912889-129.820444 353.052444-129.820444z m294.343111 579.299556c-67.128889 43.918222-173.966222 72.362667-294.343111 72.362666-120.376889 0-227.271111-28.444444-294.4-72.419555v36.238222c0 38.286222 111.786667 108.600889 294.4 108.600889s294.4-70.371556 294.4-108.657778zM216.974222 549.660444v36.181334c0 38.286222 111.786667 108.600889 294.4 108.600889s294.4-70.314667 294.4-108.600889l-0.056889 0.568889v-36.693334c-64.227556 41.984-164.807111 69.859556-278.755555 72.192l-15.587556 0.113778c-120.376889 0-227.271111-28.444444-294.4-72.362667zM511.431111 477.240889c-120.376889 0-227.271111-28.444444-294.4-72.362667v36.181334c0 38.286222 111.786667 108.600889 294.4 108.600888s294.4-70.314667 294.4-108.657777l-0.056889 0.625777v-36.807111c-67.128889 43.975111-173.966222 72.419556-294.343111 72.419556z m0-289.621333c-182.613333 0-294.4 70.314667-294.4 108.600888s111.786667 108.657778 294.4 108.657778 294.4-70.371556 294.4-108.657778c0-37.091556-104.903111-104.220444-277.504-108.373333l-16.896-0.227555z"></path></svg>