<svg viewBox="0 0 1024 1024" version="1.1" xmlns="http://www.w3.org/2000/svg" xmlns:xlink="http://www.w3.org/1999/xlink" width="128" height="128"><path d="M568.888889 33.109333l329.614222 190.350223a113.777778 113.777778 0 0 1 56.888889 98.531555v380.586667a113.777778 113.777778 0 0 1-56.888889 98.531555L568.888889 991.459556a113.777778 113.777778 0 0 1-113.777778 0l-329.614222-190.350223a113.777778 113.777778 0 0 1-56.888889-98.531555V321.991111a113.777778 113.777778 0 0 1 56.888889-98.531555L455.111111 33.109333a113.777778 113.777778 0 0 1 113.777778 0zM502.328889 104.903111l-4.551111 2.104889-329.614222 190.350222a28.444444 28.444444 0 0 0-13.767112 19.626667l-0.455111 5.006222v380.586667a28.444444 28.444444 0 0 0 10.126223 21.788444l4.096 2.844445L497.777778 917.617778a28.444444 28.444444 0 0 0 23.893333 2.104889l4.551111-2.104889 329.614222-190.350222a28.444444 28.444444 0 0 0 13.767112-19.626667l0.455111-5.006222V321.991111a28.444444 28.444444 0 0 0-10.126223-21.788444l-4.096-2.844445L526.222222 106.951111a28.444444 28.444444 0 0 0-23.893333-2.104889z m272.497778 475.761778a42.666667 42.666667 0 0 1-10.752 55.068444l-4.835556 3.242667-172.088889 99.328c-43.406222 25.031111-96.199111 26.737778-140.856889 5.006222l-9.443555-5.006222-172.088889-99.328a42.666667 42.666667 0 0 1 37.432889-76.458667l5.233778 2.56 172.088888 99.328c17.863111 10.353778 39.424 11.491556 58.140445 3.413334l6.826667-3.413334 172.088888-99.328a42.666667 42.666667 0 0 1 58.311112 15.587556z m0-227.555556a42.666667 42.666667 0 0 1-10.752 55.068445l-4.835556 3.242666-172.088889 99.328c-43.406222 25.031111-96.199111 26.737778-140.856889 5.006223l-9.443555-5.006223-172.088889-99.328a42.666667 42.666667 0 0 1 37.432889-76.458666l5.233778 2.56 172.088888 99.328c17.863111 10.353778 39.424 11.491556 58.140445 3.413333l6.826667-3.413333 172.088888-99.328a42.666667 42.666667 0 0 1 58.311112 15.587555z"></path></svg>