<svg viewBox="0 0 1024 1024" version="1.1" xmlns="http://www.w3.org/2000/svg" xmlns:xlink="http://www.w3.org/1999/xlink" width="128" height="128"><path d="M425.422741 26.474504a154.90401 154.90401 0 0 1 158.283734 0l18.926453 11.09676c106.010672 61.173002 190.334782 91.196215 251.113483 91.196215l28.164365 0.225315a99.138566 99.138566 0 0 1 108.151164 85.056384c3.323395 24.897299 5.013257 46.076902 5.013257 63.820452 0 315.778866-195.74234 632.121019-466.120249 739.93421l-15.659387 6.19616-15.659387-6.19616C227.427251 909.93432 31.797569 593.592167 31.797569 277.86963c0-14.420155 1.239232-31.149788 3.717696-50.808516l1.915177-14.082182a98.575279 98.575279 0 0 1 97.448704-84.211453h20.278343c64.440068 0 155.241983-33.628252 270.265252-102.292975z m107.531547 68.721051a70.410914 70.410914 0 0 0-64.38374 3.943011l0.112658-0.112657 1.464547-0.732273-22.475164 13.180923C336.817647 175.182353 244.213213 209.317564 168.394741 212.922603l-13.29358 0.337972h-20.165686a13.969525 13.969525 0 0 0-13.856868 11.603719l-1.802519 13.29358a324.45349 324.45349 0 0 0-2.985423 39.711756c0 270.659552 161.607129 543.29061 383.429672 648.625337l13.518895 6.19616 13.687882-6.19616c217.203587-103.081578 376.613895-366.136751 383.429671-630.994444l0.225315-17.630893c0-13.518895-1.408218-31.149788-4.280983-52.38572-1.013917-7.660707-8.111337-13.237252-20.222015-12.223335h-32.332691c-82.746906 0-186.448099-38.472523-313.300402-114.178337z m189.602508 252.57803a42.246548 42.246548 0 0 1 7.210078 54.695198l-3.830354 4.956928-208.134661 233.088289a42.246548 42.246548 0 0 1-54.920512 7.041091l-4.956929-3.830354-120.881456-109.61571a42.246548 42.246548 0 0 1 51.822432-66.467903l4.956928 3.886683 89.281039 80.888057 179.801309-201.262555a42.246548 42.246548 0 0 1 59.708455-3.379724z"></path></svg>