<svg viewBox="0 0 1077 1024" version="1.1" xmlns="http://www.w3.org/2000/svg" xmlns:xlink="http://www.w3.org/1999/xlink" width="210.3515625" height="200"><path d="M546.061474 740.513684h396.557473a44.732632 44.732632 0 0 0 44.786527-44.732631V134.521263a44.894316 44.894316 0 0 0-44.786527-44.732631H134.575158a44.732632 44.732632 0 0 0-44.786526 44.732631v561.367579c0.053895 24.683789 20.102737 44.732632 44.786526 44.732632h157.157053v134.629052l254.329263-134.629052z m21.989052 89.788632L280.468211 988.968421c-43.331368 23.929263-78.524632 3.179789-78.524632-46.349474v-112.316631H134.790737c-74.428632 0-134.736842-60.362105-134.790737-134.736842V134.736842A134.736842 134.736842 0 0 1 134.736842 0h807.666526c74.374737 0 134.736842 60.362105 134.736843 134.736842v560.828632a134.736842 134.736842 0 0 1-134.736843 134.736842H568.050526zM291.732211 493.729684a67.368421 67.368421 0 1 1 0-134.682947 67.368421 67.368421 0 0 1 0 134.682947z m246.837894 0a67.368421 67.368421 0 1 1 0-134.682947 67.368421 67.368421 0 0 1 0 134.682947z m246.837895 0a67.368421 67.368421 0 1 1 0-134.682947 67.368421 67.368421 0 0 1 0 134.682947z"></path></svg>