<svg viewBox="0 0 1024 1024" version="1.1" xmlns="http://www.w3.org/2000/svg" width="200" height="200"><path d="M1000.124823 528.521986a339.880851 339.880851 0 0 0-30.320568-97.316312 621.843972 621.843972 0 0 0-90.780142-142.706383v-104.215603C879.205674 82.428369 687.114894 0 450.178723 0S21.151773 82.428369 21.151773 184.283688v648.170213C21.151773 934.30922 213.242553 1016.737589 450.178723 1016.737589c151.239716 0 283.960284-33.588652 360.397164-84.425532 6.17305 43.211348 7.625532 65.543262 7.625531 66.087943a27.234043 27.234043 0 0 0 27.234043 25.6h1.634043a27.234043 27.234043 0 0 0 25.6-28.686525c0-2.360284-1.997163-30.502128-9.985816-83.51773L879.931915 889.64539c61.548936-76.61844 138.167376-172.300709 120.192908-361.123404zM682.757447 778.712057a401.792908 401.792908 0 0 1-110.570213-227.676596 535.239716 535.239716 0 0 1-1.997163-163.404255 453.900709 453.900709 0 0 1 51.2-159.046809l1.089362-2.360284a121.28227 121.28227 0 0 1 9.441134-18.156028c25.6 90.780142 74.621277 267.075177 117.832624 433.384397 21.968794 84.607092 36.312057 154.326241 47.205674 209.157447a367.296454 367.296454 0 0 1-114.201418-71.897872zM450.178723 54.468085C674.768794 54.468085 824.737589 132.539007 824.737589 184.283688a50.836879 50.836879 0 0 1-18.156029 33.407092 594.246809 594.246809 0 0 0-64.635461-45.934752 837.356028 837.356028 0 0 1-87.330496-71.534751 27.234043 27.234043 0 0 0-45.390071 16.340425 149.060993 149.060993 0 0 1-13.617021 47.931915 222.411348 222.411348 0 0 0-22.695036 38.853901A505.82695 505.82695 0 0 0 529.520567 310.468085c-25.41844 2.360284-52.107801 3.449645-79.886524 3.449645C225.043972 313.91773 75.619858 236.028369 75.619858 184.283688S225.043972 54.468085 450.178723 54.468085zM75.619858 273.974468c72.624113 56.283688 213.514894 94.411348 374.558865 94.411348 23.239716 0 45.934752-0.907801 68.266667-2.360284 0 4.539007-1.634043 9.078014-2.178723 13.617021a592.068085 592.068085 0 0 0 1.997163 179.563121 479.319149 479.319149 0 0 0 17.248227 74.984397c-27.052482 2.541844-55.557447 3.994326-85.333334 3.994326C225.043972 638.184397 75.619858 560.113475 75.619858 508.368794zM450.178723 962.269504C225.043972 962.269504 75.619858 884.198582 75.619858 832.453901V599.148936c72.624113 56.283688 213.514894 94.411348 374.558865 94.411348a985.87234 985.87234 0 0 0 105.486525-5.809929A456.079433 456.079433 0 0 0 643.721986 817.021277 394.348936 394.348936 0 0 0 765.548936 896.363121C701.821277 931.767376 590.706383 962.269504 450.178723 962.269504zM801.860993 628.017021c-42.666667-163.404255-90.780142-337.157447-116.924823-429.571631A290.496454 290.496454 0 0 0 713.804255 217.87234a527.614184 527.614184 0 0 1 206.615603 236.028369 292.675177 292.675177 0 0 1 25.6 80.794326c14.524823 153.41844-41.032624 236.028369-95.682269 304.839717-10.348936-55.557447-25.6-126.002837-48.476596-211.517731z"></path></svg>