<svg viewBox="0 0 1024 1024" version="1.1" xmlns="http://www.w3.org/2000/svg" width="200" height="200"><path d="M832 153.6H192a110.08 110.08 0 0 0-111.04 110.08v461.76A110.4 110.4 0 0 0 192 835.84h291.2v52.16h-126.08a30.08 30.08 0 0 0 0 59.84h309.76a30.08 30.08 0 0 0 0-59.84h-125.12v-52.16H832a110.4 110.4 0 0 0 110.08-110.4V263.68A110.08 110.08 0 0 0 832 153.6z m49.92 589.12H141.12v-480A49.92 49.92 0 0 1 192 213.76h640a49.92 49.92 0 0 1 49.92 49.92v480-0.96z m-231.04-306.88a32.032 32.032 0 0 0-25.6-14.08 30.08 30.08 0 0 0-25.6 14.4l-61.44 101.44-60.8-201.28a32 32 0 0 0-29.44-21.44 32 32 0 0 0-28.8 22.4l-41.92 160H261.44a30.08 30.08 0 0 0 0 60.16h139.2a30.08 30.08 0 0 0 29.12-22.08l20.8-79.36 49.92 164.48a29.76 29.76 0 0 0 28.48 21.12 30.08 30.08 0 0 0 25.92-14.72l70.4-117.12 19.2 32a30.08 30.08 0 0 0 25.6 14.08h92.48a30.08 30.08 0 1 0 0-60.16h-75.84l-35.84-59.84z"></path></svg>