<svg viewBox="0 0 1024 1024" version="1.1" xmlns="http://www.w3.org/2000/svg" xmlns:xlink="http://www.w3.org/1999/xlink" width="200" height="200"><path d="M527.862781 759.201102c-54.142108 0-98.438986 44.297902-98.438986 98.438986 0 54.142108 44.297902 98.44001 98.438986 98.44001 54.142108 0 98.438986-44.297902 98.438986-98.44001 0.001023-54.141084-44.296879-98.438986-98.438986-98.438986zM527.862781 267.004123c54.142108 0 98.438986-44.297902 98.438986-98.438986 0-54.142108-44.297902-98.438986-98.438986-98.438987-54.142108 0-98.438986 44.297902-98.438986 98.438987s44.297902 98.438986 98.438986 98.438986zM527.862781 414.663114c-54.142108 0-98.438986 44.297902-98.438986 98.44001 0 54.142108 44.297902 98.438986 98.438986 98.438986 54.142108 0 98.438986-44.297902 98.438986-98.438986 0.001023-54.142108-44.296879-98.44001-98.438986-98.44001z"></path></svg>