<svg viewBox="0 0 1024 1024" version="1.1" xmlns="http://www.w3.org/2000/svg" xmlns:xlink="http://www.w3.org/1999/xlink" width="200" height="200"><path d="M492.629333 85.418667h0.341334l0.597333 0.128h0.085333l1.493334 0.256a21.888 21.888 0 0 1 8.405333 3.84l0.853333 0.725333 0.853334 0.682667 91.008 91.050666a21.333333 21.333333 0 1 1-30.165334 30.165334L512 158.208l-0.042667 311.082667h311.210667l-54.101333-54.058667a21.333333 21.333333 0 1 1 30.165333-30.165333l90.538667 90.496 0.597333 0.64 0.682667 0.768-0.768-0.768 1.408 1.578666 0.896 1.322667 1.109333 1.92 0.64 1.365333a21.248 21.248 0 0 1 1.664 7.424v0.853334l-0.042667 0.469333-0.085333 1.28v0.554667a21.290667 21.290667 0 0 1-4.224 10.581333l-0.682667 0.853333-0.682666 0.853334-91.050667 91.008a21.333333 21.333333 0 1 1-30.165333-30.165334L823.125333 512l-311.168-0.042667v311.210667l54.144-54.101333a21.333333 21.333333 0 1 1 30.165334 30.165333l-91.050667 91.008-0.810667 0.725333-0.469333 0.384 1.450667-1.322666-1.664 1.450666-1.706667 1.237334a22.186667 22.186667 0 0 1-10.837333 3.285333h-0.938667l-0.085333-0.042667 0.512 0.042667-0.810667-0.042667h0.298667l-2.730667-0.256-1.28-0.170666a21.930667 21.930667 0 0 1-9.941333-5.162667l-0.298667-0.298667-90.837333-90.837333a21.333333 21.333333 0 1 1 30.165333-30.165333L469.333333 823.210667l-0.042666-311.253334H158.165333l54.101334 54.144a21.333333 21.333333 0 1 1-30.165334 30.165334L91.093333 505.173333l-0.725333-0.810666-0.384-0.426667 1.109333 1.237333-1.28-1.493333-1.194666-1.706667A22.186667 22.186667 0 0 1 85.333333 491.221333V490.666667l0.256-3.328-0.042666 0.213333-0.128 1.024-0.085334 1.621333v-0.682666l0.085334-0.682667v-0.426667l0.128-0.853333 0.256-1.365333a21.930667 21.930667 0 0 1 5.162666-9.984l0.298667-0.298667 90.837333-90.837333a21.333333 21.333333 0 1 1 30.165334 30.165333L158.122667 469.333333l311.168-0.042666V158.165333L415.274667 212.266667a21.333333 21.333333 0 1 1-30.165334-30.165334l90.496-90.538666 0.682667-0.597334-0.128 0.085334 0.085333-0.085334 0.725334-0.64-0.682667 0.64 1.536-1.28-0.682667 0.512a23.210667 23.210667 0 0 1 2.005334-1.450666l1.92-1.109334 1.365333-0.64A21.248 21.248 0 0 1 489.813333 85.333333h0.810667l2.944 0.213334-0.938667-0.128z"></path></svg>