<svg viewBox="0 0 1024 1024" version="1.1" xmlns="http://www.w3.org/2000/svg" xmlns:xlink="http://www.w3.org/1999/xlink" width="128" height="128"><path d="M825.6 569.6c-38.4 6.4-70.4 32-89.6 64-19.2 32-25.6 76.8-6.4 108.8-32 32-70.4 51.2-115.2 64-25.6-32-64-51.2-102.4-51.2s-76.8 19.2-102.4 51.2c-44.8-12.8-83.2-38.4-115.2-64 12.8-38.4 12.8-76.8-6.4-108.8-19.2-32-51.2-57.6-89.6-64-6.4-44.8-6.4-89.6 0-134.4 38.4-6.4 70.4-25.6 89.6-64 19.2-32 25.6-76.8 6.4-108.8 32-32 70.4-51.2 115.2-64 25.6 32 64 51.2 102.4 51.2s76.8-19.2 102.4-51.2c44.8 12.8 83.2 38.4 115.2 64-12.8 38.4-12.8 76.8 6.4 108.8s51.2 57.6 89.6 64c6.4 44.8 6.4 89.6 0 134.4m57.6-172.8c-6.4-12.8-19.2-25.6-32-25.6-25.6 0-44.8-12.8-57.6-32s-12.8-44.8 0-70.4c6.4-12.8 6.4-32-6.4-38.4-51.2-44.8-115.2-83.2-179.2-102.4-19.2 0-32 6.4-38.4 19.2-12.8 19.2-32 32-57.6 32s-44.8-12.8-57.6-38.4C448 134.4 435.2 128 416 128c-64 19.2-128 57.6-179.2 108.8-12.8 6.4-12.8 25.6-6.4 38.4 12.8 19.2 12.8 44.8 0 70.4-6.4 19.2-32 32-57.6 25.6-12.8 0-25.6 12.8-32 25.6-6.4 32-12.8 70.4-12.8 102.4 0 38.4 6.4 70.4 12.8 102.4 6.4 12.8 19.2 25.6 32 25.6 25.6 0 44.8 12.8 57.6 32 12.8 19.2 12.8 44.8 0 70.4-6.4 12.8-6.4 32 6.4 38.4 51.2 51.2 115.2 89.6 179.2 102.4 12.8 6.4 32-6.4 38.4-19.2 12.8-19.2 32-32 57.6-32s44.8 12.8 57.6 38.4c6.4 12.8 19.2 19.2 38.4 19.2 70.4-19.2 134.4-51.2 179.2-102.4 12.8-12.8 12.8-25.6 6.4-38.4-12.8-19.2-12.8-44.8 0-70.4 12.8-19.2 32-32 57.6-32 12.8 0 25.6-6.4 32-25.6 6.4-38.4 12.8-70.4 12.8-108.8 0-32-6.4-70.4-12.8-102.4M512 595.2c-51.2 0-96-44.8-96-96S460.8 403.2 512 403.2s96 44.8 96 96c0 57.6-44.8 96-96 96m0-256c-89.6 0-160 70.4-160 160s70.4 160 160 160 160-70.4 160-160c0-83.2-70.4-160-160-160"></path></svg>