<svg xmlns="http://www.w3.org/2000/svg" viewBox="0 0 1024 1024" version="1.1"><path d="M512 945.493333C272.5888 945.493333 78.506667 751.4112 78.506667 512 78.506667 272.5888 272.5888 78.506667 512 78.506667c239.4112 0 433.493333 194.082133 433.493333 433.493333 0 239.4112-194.082133 433.493333-433.493333 433.493333z m0-47.786666c212.992 0 385.706667-172.714667 385.706667-385.706667 0-212.992-172.714667-385.706667-385.706667-385.706667C299.008 126.293333 126.293333 299.008 126.293333 512c0 212.992 172.714667 385.706667 385.706667 385.706667zM512 604.16a194.56 194.56 0 1 1 0-389.12 194.56 194.56 0 0 1 0 389.12z m0-47.786667a146.773333 146.773333 0 1 0 0-293.546666 146.773333 146.773333 0 0 0 0 293.546666zM804.1472 818.517333l-47.445333 5.5296a249.207467 249.207467 0 0 0-494.114134-6.485333l-47.3088-6.826667a297.028267 297.028267 0 0 1 588.868267 7.748267z"></path></svg>