<svg xmlns="http://www.w3.org/2000/svg" viewBox="0 0 1024 1024" version="1.1"><path d="M752.640686 545.072233H592.659041c-25.702382 0-46.536896 20.859074-46.536896 46.595224l-0.005116 160.154584c0 114.189715 92.462878 206.752878 206.522633 206.752877 114.056686 0 206.51854-92.565209 206.518541-206.748784 0-114.185622-92.461855-206.753901-206.517517-206.753901zM592.659041 476.641701l159.980621 0.005116c114.056686 0 206.51854-92.567255 206.518541-206.7539 0.001023-114.183576-92.461855-206.748784-206.516494-206.748785l-0.002047 0.001024c-114.054639 0-206.517517 92.565209-206.517517 206.746737v160.1597c0 25.733081 20.834514 46.590108 46.536896 46.590108zM431.229418 545.072233H271.248797c-114.055662 0-206.517517 92.567255-206.517517 206.748784 0 114.189715 92.461855 206.752878 206.517517 206.752878 114.059755 0 206.51854-92.565209 206.523657-206.752878V591.667457c0-25.731034-20.840654-46.595224-46.543036-46.595224zM271.248797 476.645794h159.981645c25.702382 0 46.536896-20.86112 46.536896-46.594201V269.899056c0.005117-114.188692-92.458785-206.753901-206.518541-206.7539-114.055662 0-206.517517 92.566232-206.517517 206.746737-0.001023 114.187669 92.460832 206.753901 206.517517 206.753901z"></path></svg>