<svg viewBox="0 0 1024 1024" version="1.1" xmlns="http://www.w3.org/2000/svg" xmlns:xlink="http://www.w3.org/1999/xlink" width="128" height="128"><path d="M853.333333 85.333333c45.511111 0 79.644444 34.133333 85.333334 79.644445V853.333333c0 45.511111-34.133333 79.644444-79.644445 85.333334H170.666667c-45.511111 0-79.644444-34.133333-85.333334-79.644445V170.666667c0-45.511111 34.133333-79.644444 79.644445-85.333334H853.333333z m28.444445 654.222223h-739.555556v113.777777c0 11.377778 11.377778 22.755556 22.755556 28.444445H853.333333c11.377778 0 22.755556-11.377778 28.444445-22.755556V739.555556z m0-284.444445h-739.555556v227.555556h739.555556V455.111111z m-512 85.333333c17.066667 0 28.444444 11.377778 28.444444 28.444445 0 11.377778-11.377778 22.755556-22.755555 28.444444H256c-17.066667 0-28.444444-11.377778-28.444444-28.444444 0-11.377778 11.377778-22.755556 22.755555-28.444445h119.466667z m398.222222 0c17.066667 0 28.444444 11.377778 28.444444 28.444445 0 11.377778-11.377778 22.755556-22.755555 28.444444H540.444444c-17.066667 0-28.444444-11.377778-28.444444-28.444444 0-11.377778 11.377778-22.755556 22.755556-28.444445h233.244444z m85.333333-398.222222H170.666667c-11.377778 0-22.755556 11.377778-28.444445 22.755556V398.222222h739.555556V170.666667c0-11.377778-11.377778-22.755556-28.444445-28.444445zM369.777778 244.622222c17.066667 0 28.444444 11.377778 28.444444 28.444445 0 11.377778-11.377778 22.755556-22.755555 28.444444H256c-17.066667 0-28.444444-17.066667-28.444444-28.444444s11.377778-22.755556 22.755555-28.444445h119.466667z m398.222222 0c17.066667 0 28.444444 11.377778 28.444444 28.444445 0 11.377778-11.377778 22.755556-22.755555 28.444444H540.444444c-17.066667 0-28.444444-17.066667-28.444444-28.444444s11.377778-22.755556 22.755556-28.444445h233.244444z"></path></svg>