<svg viewBox="0 0 1024 1024" version="1.1" xmlns="http://www.w3.org/2000/svg" width="200" height="200"><path d="M452.266667 684.8L753.066667 384l-59.733334-59.733333-241.066666 241.066666-121.6-121.6-59.733334 59.733334 181.333334 181.333333zM213.333333 896c-23.466667 0-43.52-8.362667-60.288-25.045333A82.176 82.176 0 0 1 128 810.666667V213.333333c0-23.466667 8.362667-43.52 25.045333-60.288A82.176 82.176 0 0 1 213.333333 128h179.2c9.258667-25.6 24.746667-46.208 46.421334-61.866667A121.898667 121.898667 0 0 1 512 42.666667c27.008 0 51.370667 7.808 73.088 23.466666 21.674667 15.658667 37.12 36.266667 46.378667 61.866667H810.666667c23.466667 0 43.52 8.362667 60.288 25.045333C887.594667 169.813333 896 189.866667 896 213.333333v597.333334c0 23.466667-8.362667 43.52-25.045333 60.288A82.176 82.176 0 0 1 810.666667 896H213.333333z m0-85.333333h597.333334V213.333333H213.333333v597.333334z m298.666667-629.333334a31.061333 31.061333 0 0 0 32-32 31.061333 31.061333 0 0 0-32-32 31.061333 31.061333 0 0 0-32 32 31.061333 31.061333 0 0 0 32 32z"></path></svg>