<svg viewBox="0 0 1024 1024" version="1.1" xmlns="http://www.w3.org/2000/svg" width="200" height="200"><path d="M170.666667 810.666667v-85.333334h85.333333v-298.666666c0-59.008 17.792-111.445333 53.333333-157.354667 35.541333-45.866667 81.792-75.904 138.666667-90.112v-29.866667c0-17.792 6.229333-32.853333 18.688-45.354666A61.738667 61.738667 0 0 1 512 85.333333c17.792 0 32.853333 6.229333 45.354667 18.688 12.416 12.416 18.645333 27.52 18.645333 45.312v29.866667c56.874667 14.208 103.125333 44.245333 138.666667 90.112C750.208 315.221333 768 367.658667 768 426.666667v298.666666h85.333333v85.333334H170.666667z m341.333333 128c-23.466667 0-43.52-8.362667-60.245333-25.045334A82.176 82.176 0 0 1 426.666667 853.333333h170.666666c0 23.466667-8.362667 43.52-25.088 60.288A82.176 82.176 0 0 1 512 938.666667z m-170.666667-213.333334h341.333334v-298.666666c0-46.933333-16.725333-87.125333-50.133334-120.533334C599.125333 272.725333 558.933333 256 512 256s-87.125333 16.725333-120.533333 50.133333C358.058667 339.541333 341.333333 379.733333 341.333333 426.666667v298.666666z"></path></svg>