<svg viewBox="0 0 1024 1024" version="1.1" xmlns="http://www.w3.org/2000/svg" width="200" height="200"><path d="M557.952 853.333c19.883-8.746 40.107-16.725 60.587-23.978 9.984-3.627 19.2-6.528 29.226-9.43 7.808-2.176 15.659-5.12 23.467-7.253A913.323 913.323 0 0 1 1024 783.616V660.864a1023.147 1023.147 0 0 0-389.803 35.584 291.072 291.072 0 0 0-23.466 7.253c-10.027 2.944-20.694 6.571-30.678 10.198-19.968 7.253-39.893 14.506-59.136 22.485l37.035 116.95z" fill="#07C846"></path><path d="M1023.275 262.912v367.445a1054.976 1054.976 0 0 0-453.206 55.211c-19.925 7.253-39.893 13.056-59.861 19.627A1411.627 1411.627 0 0 1 0.725 761.813V394.368c131.115 13.056 265.814 1.408 399.062-37.803a768.06 768.06 0 0 0 54.144-17.408 1406.592 1406.592 0 0 1 569.344-76.245z" fill="#0181FD"></path><path d="M466.048 170.667c-19.883 8.746-40.107 16.725-60.587 23.978-9.984 3.627-19.2 6.528-29.226 9.43-7.808 2.176-15.659 5.12-23.467 7.253A913.323 913.323 0 0 1 0 240.384v122.752c127.573 13.056 259.413 2.176 389.803-35.584 7.808-2.176 15.658-4.352 23.466-7.253 10.368-3.072 20.566-6.486 30.678-10.198 19.968-7.253 39.893-14.506 59.136-22.485l-37.035-116.95z" fill="#FFA005"></path></svg>