<svg viewBox="0 0 1024 1024" version="1.1" xmlns="http://www.w3.org/2000/svg" xmlns:xlink="http://www.w3.org/1999/xlink" width="200" height="200"><path d="M941.568 259.584L774.144 92.672c-23.04-23.04-60.416-23.04-83.456 0L525.312 259.584c-23.04 23.04-23.04 60.416 0 83.456l166.4 166.4c23.04 23.04 60.416 23.04 83.456 0l166.4-166.912c22.016-23.04 22.016-60.416 0-82.944zM733.184 467.456l-166.4-166.4 166.4-166.4 166.4 166.4-166.4 166.4zM386.048 131.072H141.312c-32.768 0-54.784 19.456-54.784 51.712v246.784c0 32.768 22.016 54.784 54.784 54.784h244.736c32.768 0 54.784-22.016 54.784-54.784V184.832c0-32.768-22.016-53.76-54.784-53.76z m0 462.848H141.312c-32.768 0-54.784 27.648-54.784 60.416v235.52c0 32.768 26.112 58.368 58.368 58.368h235.52c32.768 0 60.416-22.016 60.416-54.784V648.704c0-32.768-27.648-53.76-60.416-53.76l5.632-1.024z m409.088 0H604.16c-32.768 0-54.784 22.016-54.784 54.784V893.44c0 32.768 32.768 54.784 65.536 54.784h235.52c32.768 0 53.76-22.016 53.76-54.784V648.704c0-32.768-22.016-54.784-54.784-54.784h-54.272z"></path></svg>