<svg viewBox="0 0 1024 1024" version="1.1" xmlns="http://www.w3.org/2000/svg" xmlns:xlink="http://www.w3.org/1999/xlink" width="24" height="24"><path d="M876.36 80.304H151.98c-45.309 0-82.556 37.31-82.556 82.696v195.186h200.97v-31.742c0-24.781 20.013-44.829 44.752-44.829H713.47c24.74 0 44.753 20.048 44.753 44.829v31.742h200.691V163c0-45.385-37.247-82.696-82.556-82.696z m-118.414 625.93c0 24.781-20.014 44.829-44.753 44.829H314.868c-24.74 0-44.753-20.048-44.753-44.829v-31.742H69.424v195.186c0 45.664 37.247 82.696 82.556 82.696H876.08c45.587 0 82.556-37.31 82.556-82.696V674.492h-200.97v31.742zM69.424 616.855h200.97V415.823H69.423z m688.522 0h200.97V415.823h-200.97z" fill="#ED1844"></path></svg>