<svg width="42px" height="26px" viewBox="0 0 42 26" version="1.1" xmlns="http://www.w3.org/2000/svg" x="0px" y="0px" enableBackground="new 0 0 42 26" ><title id="logo-title">Oracle ®</title><g stroke="none" strokeWidth="1" fill="none" fillRule="evenodd" ><g transform="translate(-130.000000, -56.000000)" fill="#C74634"><g><g transform="translate(127.000000, 45.000000)"><g transform="translate(3.000000, 11.000000)"><path d="M28.7215646,-1.59872116e-14 C36.0555841,-1.59872116e-14 42,5.817738 42,12.9954667 C42,20.182262 36.0555841,26 28.7215646,26 L13.2815234,25.9939556 C5.94750386,25.9939556 4.76063633e-13,20.1792398 4.76063633e-13,12.9954667 C4.76063633e-13,5.817738 5.94750386,-1.59872116e-14 13.2815234,-1.59872116e-14 L28.7215646,-1.59872116e-14 Z M28.3726197,4.58467976 L13.6273803,4.58467976 C8.87802367,4.58467976 5.02727741,8.3503429 5.02727741,12.9954667 C5.02727741,17.6466349 8.87802367,21.4153202 13.6273803,21.4153202 L28.3726197,21.4153202 C33.1219763,21.4153202 36.9758106,17.6466349 36.9758106,12.9954667 C36.9758106,8.3503429 33.1219763,4.58467976 28.3726197,4.58467976 Z" /></g></g></g></g></g></svg>