<svg viewBox="0 0 1024 1024" version="1.1" xmlns="http://www.w3.org/2000/svg" xmlns:xlink="http://www.w3.org/1999/xlink" width="200" height="200"><path d="M448.011838 640.478845a42.061552 42.061552 0 1 1 62.495105 36.55857v111.552696a20.433553 20.433553 0 1 1-40.824448 0v-111.552696a41.890917 41.890917 0 0 1-21.670657-36.55857z m425.393302-234.623262v596.753601a20.476212 20.476212 0 0 1-21.329387 21.329387H128.028368a20.476212 20.476212 0 0 1-21.329387-21.329387V405.812925a22.907762 22.907762 0 0 1 21.329387-21.329388h575.296237v-127.976324a213.293874 213.293874 0 1 0-426.587748 0h-42.658775a255.952649 255.952649 0 1 1 511.905298 0v127.976324h106.092373a22.907762 22.907762 0 0 1 21.286728 21.329388z m-42.658775 21.329388H149.315097v554.094826h681.473927z"></path></svg>