<svg viewBox="0 0 1024 1024" version="1.1" xmlns="http://www.w3.org/2000/svg" width="200" height="200"><path d="M908.667 879.3h-778.6v-429.2h778.6v429.2zM162.067 847.3h714.6v-365.2h-714.6v365.2z" fill=""></path><path d="M261.267 641h101.4v32h-101.4zM439.767 641h71.2v32h-71.2zM630.867 641h142.8v32h-142.8zM752.267 376h-32c0-68.7-55.9-124.6-124.6-124.6s-124.6 55.9-124.6 124.6h-32c0-86.3 70.2-156.6 156.6-156.6 86.4 0.1 156.6 70.3 156.6 156.6z" fill=""></path><path d="M819.967 376h-32c0-106-86.2-192.2-192.2-192.2s-192.2 86.3-192.2 192.2h-32c0-59.9 23.3-116.2 65.7-158.5 42.3-42.3 98.6-65.7 158.5-65.7s116.2 23.3 158.5 65.7 65.7 98.7 65.7 158.5z" fill=""></path><path d="M579.767 290.5h32v159.6h-32z" fill=""></path></svg>