<svg viewBox="0 0 1024 1024" version="1.1" xmlns="http://www.w3.org/2000/svg" width="200" height="200"><path d="M974.848 647.168c-28.672-30.72-86.016-48.128-167.936-48.128-44.032 0-94.208 4.096-149.504 14.336-30.72-30.72-62.464-66.56-92.16-108.544-21.504-29.696-39.936-60.416-56.32-91.136 32.768-101.376 48.128-183.296 48.128-242.688 0-66.56-23.552-136.192-93.184-136.192-21.504 0-41.984 13.312-53.248 31.744-30.72 56.32-17.408 179.2 36.864 300.032-20.48 60.416-40.96 118.784-67.584 183.296-22.528 54.272-49.152 111.616-76.8 162.816-155.648 63.488-256 137.216-265.216 194.56-4.096 21.504 3.072 41.984 18.432 57.344 5.12 4.096 25.6 21.504 59.392 21.504 103.424 0 211.968-169.984 267.264-273.408 41.984-14.336 84.992-27.648 126.976-39.936 46.08-13.312 93.184-23.552 135.168-30.72C753.664 741.376 849.92 757.76 898.048 757.76c59.392 0 80.896-24.576 88.064-45.056 11.264-25.6 3.072-54.272-10.24-69.632l-1.024 4.096z m-55.296 41.984c-4.096 21.504-25.6 35.84-55.296 35.84-8.192 0-15.36-1.024-23.552-3.072-54.272-13.312-104.448-40.96-155.648-83.968 50.176-8.192 92.16-10.24 118.784-10.24 29.696 0 55.296 1.024 71.68 6.144 19.456 4.096 50.176 17.408 44.032 55.296z m-300.032-67.584c-36.864 7.168-75.776 16.384-116.736 27.648-32.768 9.216-66.56 18.432-100.352 30.72 18.432-35.84 33.792-70.656 48.128-103.424 17.408-40.96 30.72-81.92 45.056-120.832 14.336 24.576 29.696 49.152 45.056 70.656 25.6 33.792 52.224 66.56 78.848 95.232zM434.176 83.968c6.144-11.264 17.408-17.408 26.624-17.408 29.696 0 34.816 34.816 34.816 62.464 0 46.08-14.336 116.736-37.888 197.632-40.96-112.64-44.032-205.824-23.552-242.688zM279.552 756.736c-71.68 120.832-141.312 196.608-183.296 196.608-8.192 0-15.36-3.072-21.504-7.168-8.192-8.192-12.288-18.432-10.24-30.72 8.192-43.008 89.088-103.424 215.04-158.72z"></path></svg>