<svg viewBox="0 0 1024 1024" version="1.1" xmlns="http://www.w3.org/2000/svg" width="200" height="200"><path d="M31.997334 1023.957337a31.698692 31.698692 0 0 1-22.611449-9.385885c-6.058162-6.015499-9.385885-14.078827-9.385885-22.611449s3.327723-16.59595 9.385885-22.611449l318.864094-318.864094-152.520623-152.520624a95.906674 95.906674 0 0 1-25.08591-92.15232A95.309391 95.309391 0 0 1 194.970419 347.192401l0.895925-0.511958A353.463878 353.463878 0 0 1 372.022331 299.281727c20.136989 0 40.359303 1.749188 60.282977 5.204899l165.404883-259.946338A95.224065 95.224065 0 0 1 678.684776 0.085326c25.64053 0 49.745188 9.983168 67.877011 28.072328l249.195233 249.195233a95.224065 95.224065 0 0 1 25.896509 88.739272 95.138738 95.138738 0 0 1-42.151154 60.154987l-259.989001 165.447546a352.226648 352.226648 0 0 1-42.663112 237.292226 95.394717 95.394717 0 0 1-82.851762 47.526706 95.522706 95.522706 0 0 1-67.962336-28.200317l-152.60595-152.605949-318.821431 318.906757a31.912007 31.912007 0 0 1-22.611449 9.343222zM372.022331 363.276394c-50.641113 0-100.684943 13.566869-144.7986 39.207399a31.570702 31.570702 0 0 0-14.67611 19.497042 31.698692 31.698692 0 0 0 8.36197 30.674777l350.434797 350.434797c6.058162 6.058162 14.12149 9.385885 22.696775 9.385885a31.698692 31.698692 0 0 0 27.56037-15.785352 287.421382 287.421382 0 0 0 31.058745-212.67561 31.997334 31.997334 0 0 1 13.908175-34.471794l278.590117-177.265228a31.570702 31.570702 0 0 0 14.036164-20.051662 31.698692 31.698692 0 0 0-8.617949-29.565536L701.296225 73.380552a31.912007 31.912007 0 0 0-49.617198 5.418215l-177.307891 278.590117a31.826681 31.826681 0 0 1-34.471794 13.908175 293.778185 293.778185 0 0 0-67.877011-8.020665z"></path></svg>