<svg t="1768898043404" class="icon" viewBox="0 0 1024 1024" version="1.1" xmlns="http://www.w3.org/2000/svg" p-id="6328" width="32" height="32"><path d="M952.6 606.7L841.3 411.8l47.8-91.2c6.7-8.5 8.5-21.5 5.8-31.7l-61.2-110.4c-4.9-7.2-13-11.6-21.5-12.1H584.7L533.3 77c-3.6-7.2-10.3-11.6-18.3-12.5H394.8c-8.9 0-15.2 6.7-19.7 14.3l-1.8 3.1-113.5 194.9H150.7c-8.9 0-17.4 4.5-22.3 12.1L65.8 399.7c-4 8-4 17.5 0 25.5l113.1 196.2-51 88.9c-4 8-4 17.5 0 25.5l58.1 102c4.9 7.6 13 12.5 22.3 12.5h227.5l55 95.2c4 7.2 11.6 12.1 19.7 13h128.7c8.9 0 17-4.9 21.5-12.5l112.2-196.2H873c8.9-0.9 17-5.8 21.5-13.4L952.6 634c5.3-9 5.3-19.3 0-27.3z m-140.8 12.5l-58.1-107.3L515 932.1l-65.3-107.3H211.5l57.2-103.7h121.6L151.6 302.3h124.7L394.8 90.9 454.2 195 393 302.3h477.4l-59.9 106.4 120.2 210.5H811.8z m0 0" fill="#605BEC" p-id="6329"></path><path d="M509.6 659.4l148.8-238.2H359.9l149.7 238.2z m0 0" fill="#605BEC" p-id="6330"></path></svg>
