<svg xmlns="http://www.w3.org/2000/svg" viewBox="0 0 1024 1024" version="1.1"><path d="M512 0C228.693333 0 0 228.693333 0 512s228.693333 512 512 512 512-228.693333 512-512S795.306667 0 512 0z m0 959.146667C266.24 959.146667 64.853333 757.76 64.853333 512S266.24 64.853333 512 64.853333 959.146667 266.24 959.146667 512 757.76 959.146667 512 959.146667zM518.826667 662.186667c-13.653333 0-23.893333 3.413333-34.133334 13.653333-10.24 6.826667-13.653333 20.48-13.653333 34.133333s3.413333 23.893333 13.653333 34.133334c10.24 10.24 20.48 13.653333 34.133334 13.653333s23.893333-3.413333 34.133333-13.653333c10.24-10.24 13.653333-20.48 13.653333-34.133334s-3.413333-23.893333-13.653333-34.133333c-6.826667-6.826667-20.48-13.653333-34.133333-13.653333zM529.066667 279.893333c-47.786667 0-85.333333 13.653333-112.64 40.96-20.48 17.066667-30.72 40.96-37.546667 71.68-3.413333 20.48 10.24 44.373333 34.133333 44.373334 17.066667 0 30.72-13.653333 34.133334-30.72 3.413333-13.653333 6.826667-27.306667 13.653333-37.546667 13.653333-17.066667 34.133333-27.306667 64.853333-27.306667 23.893333 0 40.96 6.826667 54.613334 20.48 13.653333 13.653333 20.48 30.72 20.48 54.613334 0 17.066667-6.826667 34.133333-17.066667 47.786666l-10.24 13.653334c-40.96 37.546667-64.853333 64.853333-75.093333 81.92-6.826667 17.066667-13.653333 37.546667-13.653334 61.44v10.24h71.68v-10.24c0-17.066667 3.413333-30.72 10.24-44.373334 6.826667-10.24 13.653333-23.893333 27.306667-34.133333 30.72-27.306667 47.786667-44.373333 54.613333-51.2 17.066667-20.48 23.893333-47.786667 23.893334-78.506667 0-40.96-13.653333-71.68-37.546667-95.573333-27.306667-27.306667-61.44-37.546667-105.813333-37.546667z"></path></svg>