<svg viewBox="0 0 1024 1024" version="1.1" xmlns="http://www.w3.org/2000/svg" xmlns:xlink="http://www.w3.org/1999/xlink" width="128" height="128"><path d="M568.888889 466.488889h329.955555V142.222222h-85.333333v130.844445C739.555556 182.044444 631.466667 125.155556 512 125.155556c-210.488889 0-386.844444 170.666667-386.844444 386.844444 0 210.488889 170.666667 386.844444 386.844444 386.844444 108.088889 0 204.8-45.511111 278.755556-119.466666l-62.577778-56.888889c-56.888889 62.577778-130.844444 96.711111-210.488889 96.711111-164.977778 0-295.822222-136.533333-295.822222-295.822222C221.866667 358.4 358.4 227.555556 517.688889 227.555556c113.777778 0 221.866667 68.266667 273.066667 170.666666H568.888889v68.266667z"></path></svg>