<svg xmlns="http://www.w3.org/2000/svg" viewBox="0 0 1024 1024" version="1.1"><path d="M128 597.333333h234.666667a42.666667 42.666667 0 0 1 42.666666 42.666667v234.666667a42.666667 42.666667 0 0 1-42.666666 42.666666H128a42.666667 42.666667 0 0 1-42.666667-42.666666V640a42.666667 42.666667 0 0 1 42.666667-42.666667zM565.333333 170.666667h362.666667a32 32 0 0 1 0 64h-362.666667a32 32 0 0 1 0-64z m0 618.666666h362.666667a32 32 0 0 1 0 64h-362.666667a32 32 0 0 1 0-64z m0-309.12h362.666667a32 32 0 0 1 0 64h-362.666667a32 32 0 0 1 0-64zM79.402667 257.834667l135.765333-135.765334a42.666667 42.666667 0 0 1 60.330667 0l135.765333 135.765334a42.666667 42.666667 0 0 1 0 60.330666l-135.765333 135.765334a42.666667 42.666667 0 0 1-60.330667 0l-135.765333-135.765334a42.666667 42.666667 0 0 1 0-60.330666z"></path></svg>