<?xml version="1.0" standalone="no"?><!DOCTYPE svg PUBLIC "-//W3C//DTD SVG 1.1//EN" "http://www.w3.org/Graphics/SVG/1.1/DTD/svg11.dtd"><svg t="1600160636945" class="icon" viewBox="0 0 1024 1024" version="1.1" xmlns="http://www.w3.org/2000/svg" p-id="5958" xmlns:xlink="http://www.w3.org/1999/xlink" width="200" height="200"><defs><style type="text/css"></style></defs><path d="M998.4 0a25.6 25.6 0 0 1 25.6 25.6v972.8a25.6 25.6 0 0 1-25.6 25.6H25.6a25.6 25.6 0 0 1-25.6-25.6V25.6a25.6 25.6 0 0 1 25.6-25.6h972.8z m-38.4 64h-896v896h896v-896z" p-id="5959"></path><path d="M448 576v256h-256v-256h256z m384 0v256h-256v-256h256zM384 640h-128v128h128v-128z m384 0h-128v128h128v-128zM640 192v256H384v-256h256zM576 256h-128v128h128v-128zM768 320v256h-64V384H640v-64h128z m-384 0V384h-64v192H256v-256h128z" p-id="5960"></path></svg>