<svg viewBox="0 0 1024 1024" version="1.1" xmlns="http://www.w3.org/2000/svg" xmlns:xlink="http://www.w3.org/1999/xlink" width="200" height="200"><path d="M187.538286 0h648.923428c65.243429 0 88.868571 6.802286 112.64 19.529143 23.917714 12.726857 42.642286 31.451429 55.369143 55.296 12.726857 23.844571 19.529143 47.542857 19.529143 112.64v648.996571c0 65.243429-6.802286 88.868571-19.529143 112.64-12.726857 23.917714-31.451429 42.642286-55.296 55.369143-23.844571 12.726857-47.542857 19.529143-112.64 19.529143H187.465143c-65.243429 0-88.868571-6.802286-112.64-19.529143a132.900571 132.900571 0 0 1-55.369143-55.296C6.802286 925.257143 0 901.632 0 836.534857V187.465143c0-65.243429 6.802286-88.868571 19.529143-112.64 12.726857-23.917714 31.451429-42.642286 55.296-55.369143C98.742857 6.802286 122.368 0 187.465143 0z m52.516571 146.285714c-32.621714 0-44.397714 3.364571-56.32 9.801143a66.486857 66.486857 0 0 0-27.648 27.648c-6.436571 11.922286-9.801143 23.698286-9.801143 56.32v105.033143c0 32.621714 3.364571 44.397714 9.801143 56.32 6.363429 11.922286 15.725714 21.284571 27.648 27.648 11.922286 6.436571 23.698286 9.801143 56.32 9.801143h105.033143c32.621714 0 44.397714-3.364571 56.32-9.801143a66.486857 66.486857 0 0 0 27.648-27.648c6.436571-11.922286 9.801143-23.698286 9.801143-56.32V240.054857c0-32.621714-3.364571-44.397714-9.801143-56.32a66.486857 66.486857 0 0 0-27.648-27.648C389.485714 149.650286 377.709714 146.285714 345.088 146.285714H240.054857z m0 438.857143c-32.621714 0-44.397714 3.364571-56.32 9.801143a66.486857 66.486857 0 0 0-27.648 27.648c-6.436571 11.922286-9.801143 23.698286-9.801143 56.32v105.033143c0 32.621714 3.364571 44.397714 9.801143 56.32 6.363429 11.922286 15.725714 21.284571 27.648 27.648 11.922286 6.436571 23.698286 9.801143 56.32 9.801143h105.033143c32.621714 0 44.397714-3.364571 56.32-9.801143a66.486857 66.486857 0 0 0 27.648-27.648c6.436571-11.922286 9.801143-23.698286 9.801143-56.32V678.912c0-32.621714-3.364571-44.397714-9.801143-56.32a66.486857 66.486857 0 0 0-27.648-27.648C389.485714 588.507429 377.709714 585.142857 345.088 585.142857H240.054857z m438.857143-438.857143c-32.621714 0-44.397714 3.364571-56.32 9.801143a66.486857 66.486857 0 0 0-27.648 27.648c-6.436571 11.922286-9.801143 23.698286-9.801143 56.32v105.033143c0 32.621714 3.364571 44.397714 9.801143 56.32 6.363429 11.922286 15.725714 21.284571 27.648 27.648 11.922286 6.436571 23.698286 9.801143 56.32 9.801143h105.033143c32.621714 0 44.397714-3.364571 56.32-9.801143a66.486857 66.486857 0 0 0 27.648-27.648c6.436571-11.922286 9.801143-23.698286 9.801143-56.32V240.054857c0-32.621714-3.364571-44.397714-9.801143-56.32a66.486857 66.486857 0 0 0-27.648-27.648c-11.922286-6.436571-23.698286-9.801143-56.32-9.801143H678.912z m0 438.857143c-32.621714 0-44.397714 3.364571-56.32 9.801143a66.486857 66.486857 0 0 0-27.648 27.648c-6.436571 11.922286-9.801143 23.698286-9.801143 56.32v105.033143c0 32.621714 3.364571 44.397714 9.801143 56.32 6.363429 11.922286 15.725714 21.284571 27.648 27.648 11.922286 6.436571 23.698286 9.801143 56.32 9.801143h105.033143c32.621714 0 44.397714-3.364571 56.32-9.801143a66.486857 66.486857 0 0 0 27.648-27.648c6.436571-11.922286 9.801143-23.698286 9.801143-56.32V678.912c0-32.621714-3.364571-44.397714-9.801143-56.32a66.486857 66.486857 0 0 0-27.648-27.648c-11.922286-6.436571-23.698286-9.801143-56.32-9.801143H678.912z"></path></svg>