<svg viewBox="0 0 1024 1024" version="1.1" xmlns="http://www.w3.org/2000/svg" width="200" height="200"><path d="M805.632 614.592a23.68 23.68 0 0 1 23.68 23.872v28.864c9.92 2.688 19.2 6.656 28.096 11.584l20.416-20.224a24.192 24.192 0 0 1 33.92 0l17.216 16.96c9.216 9.28 9.536 24.512 0.32 33.792l-0.32 0.384-20.48 20.224c4.928 8.96 8.96 18.24 11.52 27.84h29.056a23.68 23.68 0 0 1 23.68 23.936v23.872c0 13.312-10.88 23.872-23.68 23.872h-29.056c-2.944 10.304-6.912 19.968-12.16 28.928l20.736 20.864c9.28 9.344 9.6 24.256 0.384 33.92l-0.384 0.256-16.768 16.96a24.192 24.192 0 0 1-33.984 0l-21.12-21.248c-8.576 4.672-17.792 8.32-27.008 10.944v28.864a24.192 24.192 0 0 1-24.064 23.872h-23.744a23.68 23.68 0 0 1-23.744-23.872v-28.8a121.984 121.984 0 0 1-28.032-11.648l-21.76 21.888a24.192 24.192 0 0 1-33.92 0l-17.152-16.96a24.128 24.128 0 0 1-0.384-33.792l0.384-0.384 21.76-21.888a127.424 127.424 0 0 1-11.52-27.84h-29.44a23.68 23.68 0 0 1-23.68-23.936v-23.872a23.68 23.68 0 0 1 23.68-23.872h29.056a137.6 137.6 0 0 1 10.88-27.264l-21.12-21.248a24.128 24.128 0 0 1-0.32-33.792l0.32-0.384 16.832-16.896a24.192 24.192 0 0 1 33.92 0l20.8 20.928c9.28-5.312 18.816-9.344 29.056-11.968v-28.864a23.68 23.68 0 0 1 23.68-23.872h24.448zM568.96 114.432c14.592 7.872 27.392 18.688 37.632 31.808l5.824 8.128 240.512 408.96h-72.96L562.688 193.6a58.24 58.24 0 0 0-84.608-19.008l-5.056 4.16-4.48 4.608-3.84 4.864-3.392 5.504-343.04 583.552a56.064 56.064 0 0 0-6.848 26.752c0 26.88 19.072 49.792 44.928 55.424l6.08 0.96 6.4 0.32H563.2v63.68H168.896a120.256 120.256 0 0 1-113.6-159.616l3.648-9.344 4.416-8.96 343.04-583.616a120.128 120.128 0 0 1 162.688-48.384z m224.704 607.68a71.68 71.68 0 0 0 0 143.36 71.68 71.68 0 0 0 0-143.36z m-292.032-25.216c23.68 0 42.88 19.52 42.88 43.52 0 24-19.2 43.52-42.88 43.52a43.2 43.2 0 0 1-42.88-43.52c0-24.064 19.2-43.52 42.88-43.52z m0-380.352c19.84 0 36.8 13.824 41.6 32.896l0.96 5.312 0.32 5.312v234.048c0 24.064-19.2 43.52-42.88 43.52a43.008 43.008 0 0 1-41.6-32.896l-0.96-5.312-0.32-5.312V360.064c0-24 19.2-43.52 42.88-43.52z"></path></svg>