<?xml version="1.0" standalone="no"?><!DOCTYPE svg PUBLIC "-//W3C//DTD SVG 1.1//EN" "http://www.w3.org/Graphics/SVG/1.1/DTD/svg11.dtd"><svg t="1713335137994" class="icon" viewBox="0 0 1024 1024" version="1.1" xmlns="http://www.w3.org/2000/svg" p-id="2373" xmlns:xlink="http://www.w3.org/1999/xlink" width="128" height="128"><path d="M521.344 204.010667c132.458667 0 245.269333 97.258667 266.922667 225.557333 96.96 12.224 171.733333 94.762667 171.733333 194.432 0 108.074667-87.914667 196.010667-196.010667 196.010667h-55.978666a28.010667 28.010667 0 0 1 0-56.021334h55.978666a140.16 140.16 0 0 0 140.010667-139.989333 140.16 140.16 0 0 0-140.010667-140.010667h-25.941333l-2.666667-25.877333c-8.426667-111.104-102.442667-198.122667-214.037333-198.122667-93.504 0-175.616 59.733333-204.330667 148.608l-6.250666 19.413334H288c-92.629333 0-168 75.349333-168 168 0 92.629333 75.370667 168 168 168h28.010667a27.989333 27.989333 0 1 1 0 55.978666H288c-123.52 0-224-100.48-224-224 0-117.632 91.157333-214.378667 206.528-223.317333a269.866667 269.866667 0 0 1 250.816-168.682667zM614.677333 437.333333c12.032 0 21.930667 9.088 23.189334 20.778667l0.128 2.56v336c0 12.010667-9.088 21.909333-20.778667 23.189333l-2.56 0.128h-205.312a23.338667 23.338667 0 0 1-23.210667-20.778666l-0.128-2.56v-336c0-12.010667 9.088-21.909333 20.778667-23.189334l2.56-0.128h205.333333z m-23.338666 46.656H432.64V773.333333h158.677333V483.989333z m-60.672 224a18.666667 18.666667 0 0 1 2.346666 37.184l-2.346666 0.149334h-37.333334a18.666667 18.666667 0 0 1-2.346666-37.184l2.346666-0.149334h37.333334z" p-id="2374"></path></svg>