<svg viewBox="0 0 1191 1024" version="1.1" xmlns="http://www.w3.org/2000/svg" xmlns:xlink="http://www.w3.org/1999/xlink" width="148.875" height="128"><path d="M968.603279 456.603279v-9.232787a303.674754 303.674754 0 0 0-577.133115-129.594754A156.789508 156.789508 0 0 0 167.868852 430.583607a233.001967 233.001967 0 0 0 67.147541 453.245901v-38.609836a194.224262 194.224262 0 0 1-54.557377-378.040656l20.983607-7.386229 4.36459-23.333771a117.508197 117.508197 0 0 1 167.868853-83.934426l35.588196 17.794099 16.786886-35.756066a264.561311 264.561311 0 0 1 502.767213 112.975738v8.225573l-1.007213 39.61705h40.120655a175.087213 175.087213 0 1 1 0 350.174426H956.852459v39.113442h11.918689a214.032787 214.032787 0 1 0 0-427.897704z"></path><path d="M664.08918 518.714754a20.144262 20.144262 0 0 1 19.976394 19.976394v292.427541a20.144262 20.144262 0 0 1-19.976394 19.976393H371.661639a20.144262 20.144262 0 0 1-19.976393-19.976393V538.691148a20.144262 20.144262 0 0 1 19.976393-19.976394h292.427541m0-33.57377H371.661639A53.550164 53.550164 0 0 0 318.95082 538.691148v292.427541a53.550164 53.550164 0 0 0 53.382295 53.382295h291.756065a53.550164 53.550164 0 0 0 53.382295-53.382295V538.691148a53.550164 53.550164 0 0 0-53.382295-53.382296z"></path><path d="M820.207213 390.798689H527.779672a53.550164 53.550164 0 0 0-53.382295 53.382295v46.667541h33.573771v-46.667541a20.144262 20.144262 0 0 1 19.976393-19.976394h292.259672a20.144262 20.144262 0 0 1 19.976394 19.976394v292.427541a20.144262 20.144262 0 0 1-19.976394 19.976393H706.727869v33.573771h113.479344A53.550164 53.550164 0 0 0 872.918033 736.608525V444.180984a53.550164 53.550164 0 0 0-52.71082-53.382295z"></path><path d="M399.36 595.43082l66.811803 0 0 66.811803-66.811803 0 0-66.811803Z"></path><path d="M387.944918 706.392131l261.707541 0 0 16.619017-261.707541 0 0-16.619017Z"></path><path d="M387.944918 759.774426l261.707541 0 0 16.619017-261.707541 0 0-16.619017Z"></path></svg>