<svg t="1754394349416" class="icon" viewBox="0 0 1024 1024" version="1.1" xmlns="http://www.w3.org/2000/svg" p-id="4521" width="200" height="200"><path d="M511.65879 1023.996588a33.438606 33.438606 0 0 1-30.026504-17.742934 34.121027 34.121027 0 0 1 13.648411-46.404597 861.897142 861.897142 0 0 0 180.841443-129.659903 33.438606 33.438606 0 0 1 47.769438 0 34.121027 34.121027 0 0 1 0 48.451859 949.246972 949.246972 0 0 1-195.172275 136.484108 36.168289 36.168289 0 0 1-17.060513 8.871467z" p-id="4522"></path><path d="M511.65879 1023.996588a34.121027 34.121027 0 0 1-16.378093-4.094523A760.216482 760.216482 0 0 1 80.369008 205.09194v-10.236309l8.189047-6.824205A839.377265 839.377265 0 0 1 507.564266 0.365777 34.121027 34.121027 0 0 1 546.462237 30.392281a34.121027 34.121027 0 0 1-30.708924 38.21555 776.594575 776.594575 0 0 0-370.554353 161.733668c-14.330831 68.242054-68.242054 483.153743 382.837923 729.507558a34.803448 34.803448 0 0 1 13.648411 46.404597 34.803448 34.803448 0 0 1-30.026504 17.742934z" p-id="4523"></path><path d="M851.504219 682.786318a28.661663 28.661663 0 0 1-15.013252-3.412103 33.438606 33.438606 0 0 1-17.060514-45.039756 700.163474 700.163474 0 0 0 57.323326-403.99296A782.053939 782.053939 0 0 0 507.564266 68.607831 34.121027 34.121027 0 0 1 478.220183 30.392281 34.121027 34.121027 0 0 1 515.070892 0.365777a840.742106 840.742106 0 0 1 416.958951 186.300808l7.506626 6.824205v10.236308a743.838389 743.838389 0 0 1-60.053008 459.951445 34.121027 34.121027 0 0 1-27.979242 19.107775z" p-id="4524"></path><path d="M511.65879 731.238176a272.968216 272.968216 0 0 1-193.125013-466.093229 279.792422 279.792422 0 0 1 386.250026 0 272.968216 272.968216 0 0 1-193.125013 466.093229z m0-477.694378a204.726162 204.726162 0 0 0-144.673155 349.399317 204.726162 204.726162 0 1 0 144.673155-349.399317z" p-id="4525"></path><path d="M793.498473 801.527492a32.073765 32.073765 0 0 1-23.884719-10.236308L650.87258 673.23243a34.803448 34.803448 0 0 1 0-48.451858 34.121027 34.121027 0 0 1 48.451858 0L819.430453 742.839325a34.121027 34.121027 0 0 1 0 48.451859 32.073765 32.073765 0 0 1-25.93198 10.236308z" fill="#A1A8B2" p-id="4526"></path></svg>
