<svg t="1697611452196" class="icon" viewBox="0 0 1024 1024" version="1.1" xmlns="http://www.w3.org/2000/svg" p-id="10420" width="200" height="200"><path d="M170.666667 810.666667v-85.333334h85.333333v-298.666666c0-59.008 17.792-111.445333 53.333333-157.312 35.541333-45.866667 81.792-75.946667 138.666667-90.154667v-29.866667c0-17.792 6.229333-32.853333 18.688-45.312A61.738667 61.738667 0 0 1 512 85.333333c17.792 0 32.853333 6.229333 45.354667 18.688 12.416 12.416 18.645333 27.52 18.645333 45.312v29.866667c56.874667 14.208 103.125333 44.288 138.666667 90.154667C750.208 315.221333 768 367.658667 768 426.666667v298.666666h85.333333v85.333334H170.666667z m341.333333 128c-23.466667 0-43.52-8.362667-60.245333-25.045334A82.176 82.176 0 0 1 426.666667 853.333333h170.666666c0 23.466667-8.362667 43.52-25.088 60.288A82.176 82.176 0 0 1 512 938.666667zM85.333333 426.666667c0-71.125333 15.786667-136.362667 47.445334-195.712A433.408 433.408 0 0 1 260.266667 83.2l50.133333 68.266667a345.088 345.088 0 0 0-101.888 118.4C183.296 317.525333 170.666667 369.792 170.666667 426.666667H85.333333z m768 0c0-56.874667-12.629333-109.141333-37.845333-156.8a345.088 345.088 0 0 0-101.888-118.4l50.133333-68.266667c53.333333 39.125333 95.829333 88.32 127.488 147.754667C922.794667 290.304 938.666667 355.541333 938.666667 426.666667h-85.333334z" p-id="10421"></path></svg>
