<svg t="1750819626910" class="icon" viewBox="0 0 1024 1024" version="1.1" xmlns="http://www.w3.org/2000/svg" p-id="68539" width="200" height="200"><path d="M819.119096 955.726076a34.136962 34.136962 0 0 1 0 68.273924H204.788176a34.136962 34.136962 0 1 1 0-68.273924h614.33092zM853.256058 0.092734a165.37611 165.37611 0 0 1 170.617611 159.261024v568.83737a165.510507 165.510507 0 0 1-170.617611 159.261024H170.651214A165.443308 165.443308 0 0 1 0.033602 728.258327V159.286559a165.443308 165.443308 0 0 1 170.617612-159.261023z m0 68.273924H170.651214A97.236583 97.236583 0 0 0 68.173129 159.353758v568.83737a97.303782 97.303782 0 0 0 102.410886 90.9871h682.672043a97.236583 97.236583 0 0 0 102.410886-90.9871V159.353758a97.236583 97.236583 0 0 0-102.410886-91.121497zM365.729168 324.326675c59.202094 0 95.422217 27.685883 167.996861 108.189978l13.439749 15.186917c54.901374 60.47887 81.243282 80.033704 110.541934 80.033704a136.951041 136.951041 0 0 0 117.060213-59.134895 36.287322 36.287322 0 0 1 51.205443-7.391862 37.228104 37.228104 0 0 1 7.257464 51.743033 209.525684 209.525684 0 0 1-175.52312 88.769541c-59.202094 0-95.422217-27.753081-167.99686-108.257177l-13.439749-15.186916c-54.901374-60.47887-81.243282-79.966506-110.474736-79.966505a107.517991 107.517991 0 0 0-111.549915 85.678398 36.488918 36.488918 0 0 1-46.232736 23.385163 37.093707 37.093707 0 0 1-23.116368-47.039121 179.756641 179.756641 0 0 1 180.899019-136.279053z" p-id="68540"></path></svg>
