<svg xmlns="http://www.w3.org/2000/svg" viewBox="0 0 1027 1024" version="1.1"><path d="M530 832.3h93.7v75.6H530zM988.1 208.6H165.7c-21.5 0-39.2 17.6-39.2 39.2v545.3c0 21.5 17.6 39.2 39.2 39.2H488v75.6H355.1c-11.6 0-21 9.4-21 21s9.4 21 21 21h443.5c11.6 0 21-9.4 21-21s-9.4-21-21-21H665.7v-75.6H988c21.5 0 39.2-17.6 39.2-39.2V247.7c0.1-21.6-17.5-39.1-39.1-39.1zM984.5 754c0 20.3-12.9 33.9-32.2 33.9H201.4c-20.3 0-32.4-14.5-32.4-38.8V285c0-5.8 0-16.5 8.1-24.4 7.8-7.6 18.5-7.6 24.2-7.6h749.5c6.3 0 16.8 0 24.9 8 7.7 7.7 8.8 18.3 8.8 28.6V754zM0 223.2h45v114.3H0zM45.2 138h26.2V93h-29c-5.4 0-10.5 1.2-13.8 2.3h-0.2l-0.5 0.2C16.5 99.7 7.5 108.7 3 120.3l-0.2 0.5v0.2c-0.8 2.4-2.3 7.8-2.3 13.8v40.3h45.1l-0.4-37.1zM45.5 657.8h-45v22.5c0 5.4 1.2 10.5 2.3 13.8v0.2l0.2 0.5c4.2 11.4 13.2 20.4 24.9 24.9l0.5 0.2h0.2c2.4 0.8 7.8 2.3 13.8 2.3h74.2v-45l-71 0.3-0.1-19.7zM904.7 121.2v-0.2l-0.2-0.5c-4.2-11.4-13.2-20.4-24.9-24.9l-0.5-0.2h-0.2c-2.4-0.8-7.8-2.3-13.8-2.3h-74.2v45l71-0.3v22h45V135c0.1-5.4-1.1-10.5-2.2-13.8zM116 92.8h101.5v45H116zM590.8 92.8h114.3v45H590.8zM0 385.5h45v114.3H0zM428.3 92.8h114.3v45H428.3zM265.7 92.8H380v45H265.7zM0 538.1h45v92.6H0z"></path></svg>