<svg t="1750763701080" class="icon" viewBox="0 0 1024 1024" version="1.1" xmlns="http://www.w3.org/2000/svg" p-id="10661" width="200" height="200"><path d="M725.1 896.4v13.3H195.3V203.3h529.8v73.1h91.3v-73.1H859c24.4 0 42.6-18.3 42.6-42.6 0-24.4-18.3-42.6-42.6-42.6H597.2c0-48.7-42.6-91.3-91.3-91.3h-91.3c-48.7 0-85.3 42.6-85.3 91.3h-268c-24.4 0-42.6 18.3-42.6 42.6 0 24.4 18.3 42.6 42.6 42.6H104v706.4c0 48.7 42.6 91.3 91.3 91.3h529.8c48.7 0 91.3-42.6 91.3-91.3v-15c-30.4 18.3-60.9-4.4-91.3 1.7z" p-id="10662"></path><path d="M981.4 695.8l-52.7-89-33 72.4-79.7-5.6 52.7 89H717.4l-63.2 65.5 63.2 65.4H869c54.7 0 98.9-23.3 121.4-63.8 22.2-40.3 18.7-89.6-9-133.9zM642.3 385.4c0.7-1.3 1.5-2.3 2.1-3.3 0.4 0.6 0.7 1.2 1.2 1.8l98.9 168 89.8 22.7 23-89.2L757.4 316c-27.8-44.7-69.1-70.4-113.1-70.4s-85.2 25.7-113.9 71.6l-62.6 105.5 77.7-1.5 34.9 68.4 61.9-104.2zM414.6 762.5c0.1-0.2 0.3-0.4 0.4-0.7l89-154.9-23.2-85.6-90.4 20.3-88.7 154.3c-27.7 47.2-30.8 96.7-8.4 135.9s66.5 61.7 121 61.7h161.4L529.1 828l46.7-65.5H414.6z" p-id="10663"></path></svg>
