<?xml version="1.0" standalone="no"?><!DOCTYPE svg PUBLIC "-//W3C//DTD SVG 1.1//EN" "http://www.w3.org/Graphics/SVG/1.1/DTD/svg11.dtd"><svg t="1586747435328" class="icon" viewBox="0 0 1024 1024" version="1.1" xmlns="http://www.w3.org/2000/svg" p-id="11482" xmlns:xlink="http://www.w3.org/1999/xlink" width="200" height="200"><defs><style type="text/css"></style></defs><path d="M641.024 500.736c55.296-38.912 91.648-102.912 91.648-175.616 0-118.272-96.256-214.528-214.528-214.528-118.272 0-214.528 96.256-214.528 214.528 0 72.704 36.352 136.704 91.648 175.616C234.496 561.152 117.76 737.28 117.76 944.128c0 16.896 13.824 30.72 30.72 30.72h740.352c16.896 0 30.72-13.824 30.72-30.72-0.512-206.848-117.248-382.976-278.528-443.392z m-276.48-176.128c0-84.48 68.608-153.088 153.088-153.088S670.72 240.128 670.72 324.608s-68.608 153.088-153.088 153.088c-83.968 0.512-153.088-68.096-153.088-153.088z m-184.832 588.8c13.312-208.896 159.744-373.76 338.432-373.76 178.688 0 325.12 164.864 338.432 373.76H179.712z" p-id="11483"></path></svg>