<svg t="1750816085026" class="icon" viewBox="0 0 1024 1024" version="1.1" xmlns="http://www.w3.org/2000/svg" p-id="14570" width="200" height="200"><path d="M718.20556244 724.09715042l70.69905015 17.67476253 58.91587557-100.15698723-47.13269963-53.02428761c5.89158797-29.45793709 5.89158797-53.02428761 5.8915866-76.59063811s0-47.13269964-5.8915866-70.69905013l47.13269963-53.02428762-58.91587557-100.15698724-70.69905015 17.67476255c-35.34952507-29.45793709-76.59063811-58.91587557-123.72333774-70.69905015L570.91587557 158.5047493h-117.83175114l-23.56634913 70.69905013c-47.13269964 11.78317456-88.37381268 35.34952507-123.72333774 70.69905015l-70.69905015-17.67476253-58.91587557 100.15698723 47.13269963 53.02428761c-5.89158797 29.45793709-5.89158797 53.02428761-5.8915866 76.59063811s0 47.13269964 5.8915866 70.69905013l-47.13269963 53.02428762 58.91587557 100.15698724 70.69905015-17.67476255c35.34952507 29.45793709 76.59063811 58.91587557 123.72333774 70.69905015L453.08412443 865.4952507h117.83175114l23.56634913-70.69905013c47.13269964-11.78317456 88.37381268-35.34952507 123.72333774-70.69905015z m53.02428761 111.94016318c-29.45793709 23.56635051-70.69905013 47.13269964-106.04857521 58.91587421L629.83174977 983.32700047h-235.66349954l-35.34952507-88.37381266c-41.24111305-17.67476253-76.59063811-35.34952507-106.04857521-58.91587421l-94.26540065 17.67476253-117.83174977-206.20556381 58.9158742-70.69905014V512c0-23.56635051 0-41.24111305 5.89158796-58.91587557l-58.91587557-70.69905015 117.83175116-206.20556244 94.26539927 17.67476253c29.45793709-23.56635051 70.69905013-47.13269964 106.0485752-58.91587559L394.16825023 40.67299953h235.66349954l35.34952507 88.37381266c41.24111305 17.67476253 76.59063811 35.34952507 106.04857521 58.91587421l94.26540065-17.67476253 117.83174977 206.20556381-58.9158742 70.69905014c5.89158797 17.67476253 5.89158797 41.24111305 5.89158659 58.91587421s0 41.24111305-5.89158659 58.91587558l58.9158742 70.69905014-117.83174977 206.20556245-94.26540065-5.8915866zM512 570.91587557c35.34952507 0 58.91587557-23.56635051 58.91587557-58.91587557s-23.56635051-58.91587557-58.91587557-58.91587557-58.91587557 23.56635051-58.91587557 58.91587557 23.56635051 58.91587557 58.91587557 58.91587557z m0 117.83174977c-100.15698723 0-176.74762534-76.59063811-176.74762534-176.74762534s76.59063811-176.74762534 176.74762534-176.74762534 176.74762534 76.59063811 176.74762534 176.74762534-76.59063811 176.74762534-176.74762534 176.74762534z" p-id="14571"></path></svg>
