<svg viewBox="0 0 1024 1024" version="1.1" xmlns="http://www.w3.org/2000/svg" width="200" height="200"><path d="M861.9 413.63c-35.16-87.92-87.91-101.11-114.33-101.11-17.58 0-39.55 4.39-65.94 26.39l-13.19 13.19c-26.39-21.97-48.35-26.39-61.55-26.39-26.39 0-74.76 13.19-114.31 101.11l-43.97 109.92-52.74-123.12c-35.16-87.92-87.92-101.11-114.31-101.11S206.8 325.7 167.25 413.62c-4.39 13.19 4.39 30.77 17.58 35.16 13.19 4.39 30.78 0 39.57-17.58 17.58-39.56 39.55-65.95 57.16-65.95 17.6 0 39.55 26.39 57.16 65.95L400 578.15 410.62 604s6.23 12.75-1.56 21.06c-9.14 9.75-26.36 12.76-39.55 12.76-17.58 0-39.57-26.37-57.18-65.94-4.37-13.2-21.97-21.97-39.55-17.58-13.19 4.39-21.97 21.97-17.58 39.55 35.16 87.92 87.92 101.12 114.31 101.12 17.58 0 39.55-4.39 65.94-26.39l13.19-13.19c26.39 21.98 48.36 26.39 61.55 26.39 26.39 0 74.76-13.19 114.31-101.1l48.35-109.92 52.74 127.5c4.4 13.2 21.98 21.97 39.56 17.58 13.2-4.38 21.99-21.97 17.58-39.57l-61.55-145.08-13.19-26.37s-4.39 4.39-4.39 8.79c4.39-8.79 10.49-20.29 18.2-26.35 9.69-7.62 16.96-13.2 30.15-13.2 17.58 0 39.57 26.39 57.18 65.94 4.39 8.8 21.97 17.58 35.16 8.8 13.19-4.39 21.97-21.97 17.58-35.16h0.03z m-228.61 0l-61.56 145.08c-17.58 39.55-39.55 65.94-57.16 65.94-8.79 0-20-4.06-33.2-17.25-8.81 13.19-0.49 1.21 0 0l6.84-13.53 61.55-145.08c17.58-39.55 39.55-65.93 57.16-65.93 8.81 0 20.57 6.02 33.77 19.22 8.81-13.19 10.2-23.62 18.98-32.41-4.39 4.39-8.79 8.79-13.2 17.58l-13.18 26.38z"></path></svg>