<svg t="1750815486605" class="icon" viewBox="0 0 1024 1024" version="1.1" xmlns="http://www.w3.org/2000/svg" p-id="5648" width="200" height="200"><path d="M946.176 513.024c0-159.232-121.856-290.816-276.992-306.176V84.48c0-11.264-6.144-22.016-16.384-27.136s-22.528-4.608-31.744 2.048l-358.4 250.368H111.104c-16.896 0-30.72 13.824-30.72 30.72V686.08c0 16.896 13.824 30.72 30.72 30.72h151.552l358.4 250.368c5.12 3.584 11.264 5.632 17.408 5.632 4.608 0 9.728-1.024 14.336-3.584 10.24-5.12 16.384-15.872 16.384-27.136v-122.368c155.136-15.872 276.992-146.944 276.992-306.688z m-276.992-100.864c43.008 13.312 74.752 53.248 74.752 100.864 0 47.616-31.744 87.552-74.752 100.864V412.16z m-527.36-40.96h99.84V655.36H141.824V371.2z m465.92 512l-304.64-212.992V356.352L607.744 143.36v739.84z m61.44-125.44v-80.384c77.312-14.336 136.192-82.432 136.192-163.84s-58.88-149.504-136.192-163.84V268.8c121.344 15.36 215.552 118.784 215.552 244.224 0 125.44-94.208 229.376-215.552 244.736z" p-id="5649"></path></svg>
