<svg viewBox="0 0 1024 1024" version="1.1" xmlns="http://www.w3.org/2000/svg" xmlns:xlink="http://www.w3.org/1999/xlink" width="200" height="200"><path d="M401.377 988.471h-0.081c-96.262-0.08-266.639-11.71-326.023-88.642-20.364-26.436-26.438-58.433-17.507-92.492 18.934-72.169 103.17-122.303 232.778-139.453v-9.565c-41.284-33.307-73.159-87.927-88.483-152.711-9.21-38.863-18.934-123.456-5.796-184.985 19.252-90.073 75.741-140.486 163.349-145.923 20.841-1.269 62.879-1.469 83.719 0.039 87.569 6.311 143.938 56.766 162.992 145.884 13.18 61.489 3.494 146.122-5.756 184.985-15.362 64.745-47.199 119.405-88.483 152.711v9.565c129.649 17.15 213.843 67.246 232.739 139.414 8.931 34.098 2.858 66.095-17.507 92.492-59.306 76.971-229.681 88.603-325.945 88.681z m1.589-755.259c-14.807 0-29.812 0.358-39.658 0.954-60.575 3.731-95.151 35.17-108.806 98.923-10.401 48.669-2.86 123.495 5.477 158.785 13.339 56.17 42.079 103.488 76.852 126.551 8.295 5.557 13.298 14.846 13.298 24.811v51.207c0 15.402-11.71 28.223-27.034 29.652-115.039 10.718-194.629 48.35-207.69 98.288-4.247 16.195-2.025 29.255 7.106 41.006 31.042 40.292 137.945 65.381 278.866 65.499 140.96-0.118 247.823-25.246 278.866-65.499 9.09-11.748 11.313-24.811 7.065-41.006-13.059-49.938-92.651-87.57-207.65-98.288-15.324-1.43-27.034-14.251-27.034-29.652v-51.207c0-9.965 5.003-19.252 13.298-24.811 34.775-23.103 63.515-70.421 76.852-126.551 8.336-35.29 15.838-110.158 5.439-158.785-13.537-63.157-48.191-94.596-109.045-98.963-9.131-0.634-22.589-0.914-36.203-0.914z m529.031 475.442c-13.179 0-25.286-8.853-28.78-22.27-13.06-49.938-92.652-87.57-207.651-98.249-15.322-1.43-27.033-14.251-27.033-29.652v-51.207c0-9.965 5.001-19.252 13.298-24.811 34.772-23.103 63.515-70.421 76.813-126.593 8.375-35.249 15.918-109.997 5.477-158.785-12.981-60.617-47.119-91.22-110.593-99.082-16.316-2.026-27.867-16.911-25.842-33.226 2.026-16.316 16.634-27.986 33.226-25.842 88.762 10.995 143.105 60.061 161.446 145.685 13.734 63.951 2.025 152.275-5.796 185.024-15.324 64.705-47.159 119.366-88.483 152.711v9.526c129.648 17.149 213.882 67.245 232.738 139.491 4.129 15.878-5.359 32.194-21.277 36.322-2.501 0.675-5.041 0.954-7.542 0.954z"></path></svg>