<svg viewBox="0 0 1024 1024" version="1.1" xmlns="http://www.w3.org/2000/svg" width="200" height="200"><path d="M955.904 0H169.984C97.28 0.512 38.912 59.392 38.4 131.584v759.808c0 72.704 58.88 132.096 131.584 132.608h785.92c18.944 0 34.304-15.36 34.304-34.304V34.304c-0.512-18.944-15.36-34.304-34.304-34.304zM169.984 68.096h751.104v691.712H169.984c-22.528 0-44.032 6.144-63.488 16.896v-645.12c0.512-34.816 28.672-62.976 63.488-63.488z m751.104 887.808H169.984c-35.328 0-64-28.672-64-64s28.672-64 64-64h751.104v128z"></path><path d="M366.592 657.92H312.832c-3.584 0-6.656-3.072-6.656-6.656V485.376c0-3.584 3.072-6.656 6.656-6.656h53.76c3.584 0 6.656 3.072 6.656 6.656v166.4c0 3.072-3.072 6.144-6.656 6.144zM541.184 657.92H487.424c-3.584 0-6.656-3.072-6.656-6.656V329.216c0-3.584 3.072-6.656 6.656-6.656h53.76c3.584 0 6.656 3.072 6.656 6.656v322.048c-0.512 3.584-3.584 6.656-6.656 6.656zM715.264 657.92h-53.76c-3.584 0-6.656-3.072-6.656-6.656V193.536c0-3.584 3.072-6.656 6.656-6.656h53.76c3.584 0 6.656 3.072 6.656 6.656v458.24c0 3.072-3.072 6.144-6.656 6.144z"></path></svg>