<svg viewBox="0 0 1024 1024" version="1.1" xmlns="http://www.w3.org/2000/svg" width="200" height="200"><path d="M843.2 774.1c-19.3 0-35-15.8-35-35v-606h70v606c0 19.3-15.8 35-35 35z"></path><path d="M236.7 166.6c0-19.3 15.7-35 35-35h606v70h-606c-19.3 0-35-15.7-35-35zM701.2 774.1c-19.3 0-35-15.8-35-35v-465h70v465c0 19.3-15.8 35-35 35z"></path><path d="M244.7 307.6c0-19.3 15.7-35 35-35h456v70h-456c-19.3 0-35-15.7-35-35z"></path><path d="M533.2 774.5c-19.3 0-35-15.8-35-35v-288h70v288c0 19.2-15.8 35-35 35z"></path><path d="M246.7 485c0-19.3 15.7-35 35-35h286v70h-286c-19.3 0-35-15.8-35-35z"></path><path d="M120.8 101.3m-80 0a80 80 0 1 0 160 0 80 80 0 1 0-160 0Z"></path><path d="M120.8 922.7m-80 0a80 80 0 1 0 160 0 80 80 0 1 0-160 0Z"></path><path d="M903.2 921.7m-80 0a80 80 0 1 0 160 0 80 80 0 1 0-160 0Z"></path><path d="M144.9 945.1h-46c-6.6 0-12-5.4-12-12v-826c0-6.6 5.4-12 12-12h46c6.6 0 12 5.4 12 12v826c0 6.6-5.4 12-12 12z"></path><path d="M85.9 942.7v-46c0-6.6 5.4-12 12-12h826c6.6 0 12 5.4 12 12v46c0 6.6-5.4 12-12 12h-826c-6.6 0-12-5.4-12-12z"></path></svg>