<svg viewBox="0 0 1024 1024" version="1.1" xmlns="http://www.w3.org/2000/svg" width="200" height="200"><path d="M184.32 153.6h655.36v128H184.32V153.6z m-25.6-76.8c-28.27776 0-51.2 22.92224-51.2 51.2v179.2c0 28.27776 22.92224 51.2 51.2 51.2h706.56c28.27776 0 51.2-22.92224 51.2-51.2V128c0-28.27776-22.92224-51.2-51.2-51.2H158.72zM184.32 491.52h107.52v368.64H184.32V491.52z m-25.6-76.8c-28.27776 0-51.2 22.92224-51.2 51.2v419.84c0 28.27776 22.92224 51.2 51.2 51.2h158.72c28.27776 0 51.2-22.92224 51.2-51.2V465.92c0-28.27776-22.92224-51.2-51.2-51.2H158.72zM501.76 491.52h337.92v368.64H501.76V491.52z m-25.6-76.8c-28.27776 0-51.2 22.92224-51.2 51.2v419.84c0 28.27776 22.92224 51.2 51.2 51.2h389.12c28.27776 0 51.2-22.92224 51.2-51.2V465.92c0-28.27776-22.92224-51.2-51.2-51.2H476.16z"></path></svg>