<svg t="1750817439434" class="icon" viewBox="0 0 1024 1024" version="1.1" xmlns="http://www.w3.org/2000/svg" p-id="26431" width="200" height="200"><path d="M512 1024a459.78329 459.78329 0 0 1-459.322892-459.322892V94.151218A94.227951 94.227951 0 0 1 146.828325 0h730.266617a94.227951 94.227951 0 0 1 94.151218 94.151218v470.449157a459.78329 459.78329 0 0 1-459.24616 459.322892zM146.828325 65.913526a28.160959 28.160959 0 0 0-28.160959 28.160959v470.449157a393.332634 393.332634 0 1 0 786.665268 0V94.074485a28.237692 28.237692 0 0 0-28.237692-28.160959z" p-id="26432"></path><path d="M299.833646 293.886849m28.774822 0l364.481079 0q28.774822 0 28.774822 28.774822l0 0q0 28.774822-28.774822 28.774822l-364.481079 0q-28.774822 0-28.774822-28.774822l0 0q0-28.774822 28.774822-28.774822Z" p-id="26433"></path><path d="M299.833646 447.352567m28.774822 0l364.481079 0q28.774822 0 28.774822 28.774822l0 0q0 28.774822-28.774822 28.774822l-364.481079 0q-28.774822 0-28.774822-28.774822l0 0q0-28.774822 28.774822-28.774822Z" p-id="26434"></path><path d="M299.833646 600.818284m28.774822 0l364.481079 0q28.774822 0 28.774822 28.774822l0 0q0 28.774822-28.774822 28.774822l-364.481079 0q-28.774822 0-28.774822-28.774822l0 0q0-28.774822 28.774822-28.774822Z" p-id="26435"></path></svg>
