<svg viewBox="0 0 1024 1024" version="1.1" xmlns="http://www.w3.org/2000/svg" xmlns:xlink="http://www.w3.org/1999/xlink" width="200" height="200"><path d="M24.571559 316.455806 165.099155 316.455806C178.656258 316.455806 189.645117 305.858248 189.645117 292.786518 189.645117 279.71362 178.655044 269.117235 165.099155 269.117235L24.571559 269.117235C11.01446 269.117235 0.025599 279.714793 0.025599 292.786518 0.025599 305.858248 11.015674 316.455806 24.571559 316.455806L24.571559 316.455806ZM165.099155 488.940949 24.571559 488.940949C11.01446 488.940949 0.025599 499.538507 0.025599 512.610233 0.025599 525.68313 11.015674 536.279516 24.571559 536.279516L165.099155 536.279516C178.656258 536.279516 189.645117 525.681958 189.645117 512.610233 189.645117 499.538507 178.656258 488.940949 165.099155 488.940949L165.099155 488.940949ZM165.099155 707.951265 24.571559 707.951265C11.01446 707.951265 0.025599 718.548823 0.025599 731.620548 0.025599 744.693446 11.015674 755.289836 24.571559 755.289836L165.099155 755.289836C178.656258 755.289836 189.645117 744.692278 189.645117 731.620548 189.645117 718.548823 178.656258 707.951265 165.099155 707.951265L165.099155 707.951265ZM185.263431 0C124.848403 0 75.873164 47.226052 75.873164 105.483315L75.873164 182.966667 144.168295 182.966667 144.168295 117.92566C144.168295 72.614716 151.652654 61.417407 198.641854 61.417407L902.343373 61.417407C949.332568 61.417407 964.403256 72.614716 964.403256 117.92566L964.403256 907.245543C964.403256 952.556486 949.332568 963.421581 902.343373 963.421581L198.641854 963.421581C151.652654 963.421581 138.985768 952.556486 138.985768 907.245543L138.985768 842.204561 75.873164 842.204566 75.873164 918.465488C75.873164 976.722753 124.848403 1023.948803 185.263431 1023.948803L914.584133 1023.948803C974.999166 1023.948803 1023.974401 976.722753 1023.974401 918.465488L1023.974401 105.483315C1023.974401 47.227224 974.999166 0 914.584133 0L185.263431 0ZM651.659766 631.80286C715.203357 597.383655 758.5061 532.405933 758.5061 457.121321 758.5061 346.038015 665.122062 255.988081 549.924391 255.988081 434.726716 255.988081 341.341458 346.036842 341.341458 457.121321 341.341458 532.565331 384.828953 597.656737 448.592539 632.018514 387.16626 657.594702 325.981853 705.603673 300.459888 765.347082L353.454609 765.347082C387.388687 703.680364 465.693887 661.026425 542.431154 658.256905 544.913099 658.255732 547.409629 658.25456 549.924391 658.25456 552.752737 658.25456 555.562852 658.255732 558.351085 658.258077 635.085926 661.031115 713.385049 703.683881 747.317908 765.348254L800.312635 765.348254C774.717739 705.4349 713.329136 657.323965 651.659766 631.80286L651.659766 631.80286ZM389.597155 457.120148C389.597155 371.739611 461.381475 302.519115 549.924391 302.519115 638.470947 302.519115 710.251627 371.739611 710.251627 457.120148 710.251627 542.504203 638.470947 611.721181 549.924391 611.721181 461.380262 611.721181 389.597155 542.504203 389.597155 457.120148L389.597155 457.120148Z"></path></svg>