<svg viewBox="0 0 1024 1024" version="1.1" xmlns="http://www.w3.org/2000/svg" width="200" height="200"><path d="M926.72 883.712c-8.704 0-16.896 1.536-24.576 4.608l-92.16-84.48v-109.568c112.64-19.968 198.144-118.784 198.144-237.056 0-113.152-79.872-210.944-188.928-235.008C773.12 93.184 648.192 4.608 509.44 4.608S246.272 93.184 199.68 222.208C90.624 246.272 10.752 344.064 10.752 457.216c0 120.832 89.6 221.184 205.824 238.08V803.84l-40.96 37.888c-7.68-2.56-15.872-4.608-24.064-4.608-38.912 0-70.144 31.232-70.144 70.144s31.232 70.144 70.144 70.144 70.144-31.232 70.144-70.144c0-6.656-1.024-12.8-2.56-18.944l61.952-56.832v-133.632h112.64v64.512c-23.552 11.264-39.424 35.328-39.424 62.976 0 38.912 31.232 70.144 70.144 70.144s70.144-31.232 70.144-70.144c0-26.624-14.848-49.664-36.864-61.952v-65.536h110.08v135.168c-22.528 11.776-37.888 35.328-37.888 62.464 0 38.912 31.232 70.144 70.144 70.144s70.144-31.232 70.144-70.144c0-27.136-15.36-50.688-37.888-62.464v-135.168H747.52v133.632l112.64 103.936c-1.536 5.632-2.56 11.776-2.56 18.432 0 38.912 31.232 70.144 70.144 70.144s70.144-31.232 70.144-70.144-32.256-70.144-71.168-70.144zM74.752 457.216c0-88.064 66.048-163.328 153.6-175.104l20.48-2.56 5.632-19.968c32.768-112.64 137.728-190.976 254.976-190.976s222.208 78.336 254.976 190.976l5.632 19.968 20.48 2.56c87.552 11.264 153.6 86.528 153.6 175.104 0 97.28-79.36 176.64-176.64 176.64H250.88c-97.28 0-176.128-79.36-176.128-176.64z"></path><path d="M494.592 486.4h242.176v64H494.592zM358.912 486.4h64v64H358.912z"></path></svg>