<svg viewBox="0 0 1024 1024" version="1.1" xmlns="http://www.w3.org/2000/svg" width="200" height="200"><path d="M555.426 941.38c-20.19 10.952-34.86 15.827-47.55 15.827-12.777 0-27.024-4.83-47.548-16.184-342.44-189.195-341.304-292.82-337.097-678.4 0.423-38.333 0.868-79.249 1.002-123.08C177.281 123.827 234.001 109 293.171 95.422c64.623-14.848 136.503-24.443 213.593-28.561 146.677 16.273 259.183 37.732 381.04 72.882 0.222 49.53 0.867 95.277 1.424 137.661 5.32 387.562 6.611 479.655-333.802 663.975M956.01 276.492c-0.667-49.197-1.402-102.868-1.513-161.815-0.023-14.714-9.706-27.692-23.82-31.9C794.62 41.951 673.165 18.021 511.395 0.19c-1.78-0.2-3.584-0.223-5.365-0.156-82.009 4.23-158.653 14.425-227.818 30.297-69.587 15.983-135.947 33.658-197.164 52.513-13.98 4.297-23.552 17.252-23.552 31.9 0 53.048-0.557 101.888-1.024 147.144-4.23 385.024-5.81 529.097 371.556 737.592 31.12 17.185 55.007 24.51 79.85 24.51 24.398 0 48.885-7.369 79.36-23.864 375.92-203.598 374.272-324.163 368.773-723.634m-214.02 14.865l-301.1 302.236L293.076 445.27c-17.341-17.386-45.545-17.452-62.976-0.111-17.408 17.363-17.452 45.545-0.111 62.976l179.356 179.979a44.602 44.602 0 0 0 31.543 13.09 44.491 44.491 0 0 0 31.544-13.112l332.644-333.913c17.341-17.408 17.297-45.613-0.133-62.954-17.386-17.341-45.613-17.32-62.954 0.133"></path></svg>