<svg viewBox="0 0 1024 1024" version="1.1" xmlns="http://www.w3.org/2000/svg" width="200" height="200"><path d="M742.4 507.5456c-65.7408 0-131.2256-30.208-177.664-76.6976C518.2464 384.3584 496.64 322.2016 496.64 256.4608c0-65.6896 21.504-127.488 68.0448-173.9776C611.1744 35.9936 676.6592 6.912 742.4 6.912c65.7408 0 127.8976 29.0816 174.3872 75.5712 46.4896 46.4896 72.5504 106.496 72.5504 172.288 0 65.6896-26.112 129.536-72.5504 176.0768-46.4896 46.4384-108.6464 76.6976-174.3872 76.6976z m0.4096-445.3376a194.56 194.56 0 0 0-194.304 194.2528 194.56 194.56 0 0 0 194.304 194.304 194.56 194.56 0 0 0 194.2528-194.304 194.56 194.56 0 0 0-194.2528-194.2528z"></path><path d="M114.176 985.3952a77.824 77.824 0 0 1-77.6192-77.6704V195.2256c0-42.8544 34.816-77.7216 77.6704-77.7216h487.0656a189.184 189.184 0 0 0-33.8432 55.296c-12.8 31.6928-14.848 53.8624-14.848 84.6848 0 97.9456 77.9776 184.3712 184.5248 193.28 11.264 0.9216 40.448-1.0752 52.736-3.328l30.5664-5.5808 0.6144 465.8688c0 42.8544-47.616 77.6704-90.4192 77.6704H114.176zM125.0816 182.272a25.9072 25.9072 0 0 0-25.9072 25.9072v688.896c0 14.2848 11.6224 25.9072 25.9072 25.9072H730.624a25.9072 25.9072 0 0 0 25.9072-25.9072V502.1696a244.5312 244.5312 0 0 1-187.7504-71.68A244.48 244.48 0 0 1 496.6912 256.512c0-25.4464 3.84-50.2784 11.52-74.1888H125.0304z"></path><path d="M630.5792 334.7456l184.32-184.4736 36.6592 36.608-184.32 184.4736z"></path><path d="M630.5792 186.88l36.6592-36.608 184.32 184.4224-36.6592 36.608-184.32-184.4224zM216.2176 355.4304h221.184v51.8144h-221.184V355.4304z m0 171.3152h425.1136v51.7632H216.2176v-51.7632z m0 171.264h425.1136v51.8144H216.2176v-51.8144z"></path></svg>