<svg xmlns="http://www.w3.org/2000/svg" viewBox="0 0 1024 1024" version="1.1"><path d="M733.87008 102.4c-103.70048 0-187.74016 84.03968-187.74016 187.72992v443.72992c0 65.9968-53.504 119.48032-119.45984 119.48032C360.704 853.34016 307.2 799.85664 307.2 733.85984V542.69952c77.89568-15.8208 136.52992-84.66432 136.52992-167.23968v-102.4h-68.25984V136.52992A34.10944 34.10944 0 0 0 341.32992 102.4 34.10944 34.10944 0 0 0 307.2 136.52992v136.52992h-68.27008V136.52992C238.92992 117.66784 223.67232 102.4 204.8 102.4s-34.12992 15.26784-34.12992 34.12992v136.52992H102.4v102.4c0 82.56512 58.63424 151.3984 136.52992 167.23968v191.16032C238.92992 837.56032 323.00032 921.6 426.67008 921.6 530.3296 921.6 614.4 837.56032 614.4 733.85984V290.12992c0-65.98656 53.47328-119.47008 119.47008-119.47008s119.45984 53.48352 119.45984 119.47008V921.6H921.6V290.12992C921.6 186.43968 837.57056 102.4 733.87008 102.4z m-563.2 273.07008v-34.12992h204.8v34.12992c0 56.4736-45.93664 102.4-102.4 102.4-56.4736 0-102.4-45.93664-102.4-102.4z"></path></svg>