<svg viewBox="0 0 1024 1024" version="1.1" xmlns="http://www.w3.org/2000/svg" width="200" height="200"><path d="M923.880593 905.830839l-32.86072 32.86072L100.115306 147.763808l32.863718-32.862719L923.880593 905.830839zM769.940564 883.337089l-132.898495 0c-13.986517 44.207028-71.555286 76.436976-142.528965 76.436976-70.976678 0-128.548444-32.230148-142.529965-76.436976L159.349945 883.337089c-14.319292 0-27.665243-7.718767-34.790412-20.161331-7.081199-12.305657-7.058215-27.674237 0.04397-40.039653l71.967006-124.485399L196.570509 422.179954c0-33.405351 5.673154-65.775204 16.101083-96.131623l33.670172 33.670172c-5.098543 20.106368-7.923628 41.01699-7.923628 62.461451l0 287.683151-76.119191 131.644345 207.296853 0 249.833013 0 108.690908 0L769.940564 883.337089zM589.945001 883.337089l-190.867192 0c15.389566 18.798255 50.382641 34.610534 95.435095 34.610534C539.564159 917.947624 574.558433 902.135344 589.945001 883.337089zM443.016019 171.183729l16.726659-3.43667L459.742678 143.098971c0-20.426151 16.567767-37.048881 36.924965-37.048881 20.356198 0 36.926964 16.62273 36.926964 37.048881l0 25.315836 16.429861 3.609553c118.08254 25.930419 200.553425 128.807269 200.553425 250.155794l0 244.614551 55.54614 55.54514-13.694715-23.676947L792.429317 422.179954c0-135.603661-88.575746-251.380964-217.392008-287.03559-4.000288-39.772834-37.606503-70.921715-78.369665-70.921715-40.352641 0-73.734808 30.56028-78.253744 69.775492-49.260401 13.034163-93.093682 38.329013-128.565433 72.051949l29.667885 29.667885C353.178129 203.994484 395.396305 180.956104 443.016019 171.183729z"></path></svg>