<svg viewBox="0 0 1024 1024" version="1.1" xmlns="http://www.w3.org/2000/svg" width="200" height="200" xmlns:xlink="http://www.w3.org/1999/xlink"><path d="M543.840672 703.79381h-63.981256c-17.694816 0-31.990628 14.295812-31.990628 31.990628s14.295812 31.990628 31.990628 31.990628h63.981256c17.694816 0 31.990628-14.295812 31.990627-31.990628s-14.295812-31.990628-31.990627-31.990628z"></path><path d="M959.718832 255.925022H703.79381V31.990628c0-17.694816-14.295812-31.990628-31.990627-31.990628s-31.990628 14.295812-31.990628 31.990628v223.934394H383.887533V31.990628v-1.599532c0-0.299912 0-0.499854-0.099971-0.699795 0-0.299912 0-0.499854-0.09997-0.799765 0-0.299912-0.099971-0.599824-0.099971-0.999707 0-0.199941 0-0.399883-0.099971-0.599825-0.099971-0.299912-0.099971-0.699795-0.199941-0.999707 0-0.199941-0.099971-0.299912-0.099971-0.499853-0.099971-0.299912-0.099971-0.699795-0.199941-0.999707 0-0.199941-0.099971-0.299912-0.099971-0.499854-0.099971-0.299912-0.199941-0.699795-0.299912-0.999707-0.099971-0.199941-0.099971-0.399883-0.199942-0.499854l-0.299912-0.899736c-0.099971-0.199941-0.099971-0.399883-0.199941-0.599824-0.099971-0.299912-0.199941-0.499854-0.299912-0.799766-0.099971-0.199941-0.199941-0.499854-0.299913-0.699795-0.099971-0.199941-0.199941-0.499854-0.299912-0.699795-0.099971-0.299912-0.199941-0.499854-0.299912-0.799766l-0.299912-0.599824c-0.099971-0.299912-0.299912-0.599824-0.399883-0.799766-0.099971-0.199941-0.199941-0.299912-0.299912-0.499853-0.199941-0.299912-0.299912-0.599824-0.499854-0.899737-0.099971-0.099971-0.199941-0.299912-0.299912-0.399883l-0.599824-0.899736c-0.099971-0.099971-0.199941-0.299912-0.299912-0.399883-0.199941-0.299912-0.399883-0.599824-0.599824-0.799765-0.099971-0.199941-0.199941-0.299912-0.399883-0.499854s-0.399883-0.499854-0.599824-0.699795c-0.199941-0.199941-0.399883-0.399883-0.499854-0.599824-0.199941-0.199941-0.299912-0.399883-0.499854-0.499854-0.399883-0.399883-0.699795-0.799766-1.099677-1.099678l-0.099971-0.09997c-0.299912-0.299912-0.699795-0.599824-0.999707-0.999708-0.199941-0.199941-0.399883-0.299912-0.599824-0.499853-0.199941-0.199941-0.399883-0.399883-0.599825-0.499854-0.199941-0.199941-0.499854-0.399883-0.699795-0.599824-0.199941-0.099971-0.299912-0.299912-0.499853-0.399883-0.299912-0.199941-0.499854-0.399883-0.799766-0.599824-0.199941-0.099971-0.299912-0.199941-0.499854-0.299912-0.299912-0.199941-0.599824-0.399883-0.899736-0.499854-0.199941-0.099971-0.299912-0.199941-0.499854-0.299912-0.299912-0.199941-0.599824-0.299912-0.899736-0.499853-0.199941-0.099971-0.299912-0.199941-0.499853-0.299913-0.299912-0.099971-0.499854-0.299912-0.799766-0.399882l-0.599824-0.299913c-0.299912-0.099971-0.499854-0.199941-0.799766-0.299912-0.199941-0.099971-0.499854-0.199941-0.699795-0.299912-0.199941-0.099971-0.499854-0.199941-0.699795-0.299912-0.299912-0.099971-0.499854-0.199941-0.799766-0.299912-0.199941-0.099971-0.399883-0.099971-0.599824-0.199941l-0.899736-0.299913c-0.199941-0.099971-0.399883-0.099971-0.499854-0.199941-0.299912-0.099971-0.599824-0.199941-0.999707-0.299912-0.199941 0-0.299912-0.099971-0.499854-0.099971-0.299912-0.099971-0.699795-0.199941-0.999707-0.199941-0.199941 0-0.299912-0.099971-0.499853-0.099971-0.299912-0.099971-0.699795-0.099971-0.999707-0.199941-0.199941 0-0.399883-0.099971-0.599825-0.099971-0.299912 0-0.599824-0.099971-0.899736-0.099971-0.299912 0-0.499854 0-0.799766-0.099971-0.299912 0-0.499854 0-0.799766-0.09997h-3.199062c-0.299912 0-0.499854 0-0.799766 0.09997-0.299912 0-0.499854 0-0.799766 0.099971-0.299912 0-0.599824 0.099971-0.999707 0.099971-0.199941 0-0.399883 0-0.599824 0.099971-0.299912 0.099971-0.699795 0.099971-0.999707 0.199941-0.199941 0-0.299912 0.099971-0.499854 0.099971-0.299912 0.099971-0.699795 0.099971-0.999707 0.199941-0.199941 0-0.299912 0.099971-0.499853 0.099971-0.299912 0.099971-0.699795 0.199941-0.999708 0.299912-0.199941 0-0.399883 0.099971-0.499853 0.099971l-0.899737 0.299912c-0.199941 0.099971-0.399883 0.099971-0.599824 0.199941-0.299912 0.099971-0.499854 0.199941-0.799765 0.299912-0.199941 0.099971-0.499854 0.199941-0.699795 0.299913-0.199941 0.099971-0.499854 0.199941-0.699795 0.299912-0.299912 0.099971-0.499854 0.199941-0.799766 0.299912l-0.599824 0.299912c-0.299912 0.099971-0.599824 0.299912-0.799766 0.399883-0.199941 0.099971-0.299912 0.199941-0.499854 0.299912-0.299912 0.199941-0.599824 0.299912-0.899736 0.499853-0.099971 0.099971-0.299912 0.199941-0.399883 0.299913l-0.899736 0.599824c-0.099971 0.099971-0.299912 0.199941-0.399883 0.299912-0.299912 0.199941-0.599824 0.399883-0.799766 0.599824-0.199941 0.099971-0.299912 0.199941-0.499853 0.399883s-0.499854 0.399883-0.699795 0.599824c-0.199941 0.199941-0.399883 0.399883-0.599825 0.499854-0.199941 0.199941-0.399883 0.299912-0.499853 0.499853-0.399883 0.399883-0.799766 0.699795-1.099678 1.099678L201.041101 137.759641c-12.496339 12.496339-12.496339 32.790393 0 45.286732 6.198184 6.198184 14.395782 9.397247 22.593381 9.397247 8.197598 0 16.395197-3.099092 22.593381-9.397247l73.678414-73.678414V255.925022H63.981255c-35.289661 0-63.981255 28.691594-63.981255 63.981255v383.887533c0 35.289661 28.691594 63.981255 63.981255 63.981256h159.953139c17.694816 0 31.990628-14.295812 31.990628-31.990628s-14.295812-31.990628-31.990628-31.990628H63.981255V319.906277h895.737577v383.887533H799.765694c-17.694816 0-31.990628 14.295812-31.990628 31.990628s14.295812 31.990628 31.990628 31.990628h159.953138c35.289661 0 63.981255-28.691594 63.981256-63.981256V319.906277c0-35.289661-28.691594-63.981255-63.981256-63.981255z"></path><path d="M351.896905 383.887533c-17.694816 0-31.990628 14.295812-31.990628 31.990628v575.831299c0 17.694816 14.295812 31.990628 31.990628 31.990628s31.990628-14.295812 31.990628-31.990628V415.878161c0-17.694816-14.295812-31.990628-31.990628-31.990628zM777.472225 840.653715L703.79381 914.4321V415.878161c0-17.694816-14.295812-31.990628-31.990627-31.990628s-31.990628 14.295812-31.990628 31.990628V994.008786c0 0.299912 0 0.599824 0.099971 0.899737 0 0.299912 0.099971 0.599824 0.09997 0.899736 0 0.199941 0.099971 0.399883 0.099971 0.599825 0 0.299912 0.099971 0.699795 0.199941 0.999707 0 0.199941 0.099971 0.399883 0.099971 0.599824 0.099971 0.299912 0.099971 0.699795 0.199942 0.999707 0 0.199941 0.099971 0.399883 0.09997 0.499854l0.299912 0.899736c0.099971 0.199941 0.099971 0.399883 0.199942 0.599824l0.299912 0.899737c0.099971 0.199941 0.099971 0.399883 0.199941 0.599824 0.099971 0.299912 0.199941 0.499854 0.299913 0.799766 0.099971 0.199941 0.199941 0.499854 0.299912 0.699795l0.299912 0.599824c0.099971 0.299912 0.199941 0.499854 0.399883 0.799766 0.099971 0.199941 0.199941 0.399883 0.299912 0.499853 0.099971 0.299912 0.299912 0.599824 0.399883 0.899737 0.099971 0.199941 0.199941 0.299912 0.299912 0.499853 0.199941 0.299912 0.299912 0.599824 0.499853 0.899737 0.099971 0.099971 0.199941 0.299912 0.199942 0.399882l0.599824 0.899737c0.099971 0.099971 0.199941 0.299912 0.299912 0.399883l0.599824 0.899736c0.099971 0.099971 0.199941 0.299912 0.299913 0.399883 0.199941 0.299912 0.399883 0.499854 0.599824 0.799766 0.199941 0.199941 0.299912 0.399883 0.499853 0.599824 0.199941 0.199941 0.399883 0.399883 0.499854 0.599824 0.399883 0.399883 0.699795 0.799766 1.099678 1.099678 0.099971 0.099971 0.199941 0.099971 0.199941 0.199941l0.899737 0.899737c0.199941 0.199941 0.399883 0.299912 0.599824 0.499853 0.199941 0.199941 0.399883 0.299912 0.599824 0.499854 0.299912 0.199941 0.499854 0.399883 0.799766 0.599824 0.199941 0.099971 0.299912 0.199941 0.499853 0.399883l0.899737 0.599824c0.099971 0.099971 0.299912 0.199941 0.399883 0.299912l0.899736 0.599825c0.099971 0.099971 0.299912 0.199941 0.399883 0.299912 0.299912 0.199941 0.599824 0.299912 0.899736 0.499853 0.199941 0.099971 0.299912 0.199941 0.499854 0.299913 0.299912 0.199941 0.599824 0.299912 0.899736 0.399882 0.199941 0.099971 0.399883 0.199941 0.499854 0.299913 0.299912 0.099971 0.499854 0.199941 0.799766 0.399882l0.599824 0.299912c0.199941 0.099971 0.499854 0.199941 0.699795 0.299913 0.299912 0.099971 0.499854 0.199941 0.799766 0.299912 0.199941 0.099971 0.399883 0.099971 0.599824 0.199941l0.899736 0.299912c0.199941 0.099971 0.399883 0.099971 0.599824 0.199942l0.899737 0.299912c0.199941 0 0.399883 0.099971 0.499853 0.099971 0.299912 0.099971 0.699795 0.199941 0.999708 0.199941 0.199941 0 0.399883 0.099971 0.499853 0.099971 0.299912 0.099971 0.699795 0.099971 0.999707 0.199941 0.199941 0 0.399883 0.099971 0.599824 0.099971 0.299912 0 0.599824 0.099971 0.899737 0.099971 0.299912 0 0.499854 0 0.799766 0.09997 0.199941 0 0.499854 0 0.699795 0.099971h3.199062c0.299912 0 0.499854 0 0.799766-0.099971 0.299912 0 0.499854 0 0.799766-0.09997 0.299912 0 0.599824-0.099971 0.999707-0.099971 0.199941 0 0.399883 0 0.599824-0.099971 0.299912-0.099971 0.699795-0.099971 0.999707-0.199941 0.199941 0 0.299912-0.099971 0.499854-0.099971 0.299912-0.099971 0.699795-0.099971 0.999707-0.199941 0.199941 0 0.299912-0.099971 0.499853-0.099971 0.299912-0.099971 0.699795-0.199941 0.999708-0.299912 0.199941 0 0.399883-0.099971 0.499853-0.099971l0.899737-0.299912c0.199941-0.099971 0.399883-0.099971 0.599824-0.199942 0.299912-0.099971 0.499854-0.199941 0.799766-0.299912 0.199941-0.099971 0.499854-0.199941 0.699794-0.299912 0.199941-0.099971 0.499854-0.199941 0.699795-0.299912 0.299912-0.099971 0.499854-0.199941 0.799766-0.299912l0.599824-0.299912c0.299912-0.099971 0.599824-0.299912 0.799766-0.399883 0.199941-0.099971 0.299912-0.199941 0.499854-0.299912 0.299912-0.199941 0.599824-0.299912 0.899736-0.499854 0.099971-0.099971 0.299912-0.199941 0.399883-0.299912l0.899736-0.599824c0.099971-0.099971 0.299912-0.199941 0.399883-0.299912 0.299912-0.199941 0.599824-0.399883 0.799766-0.599825 0.199941-0.099971 0.299912-0.199941 0.499853-0.399882 0.299912-0.199941 0.499854-0.399883 0.799766-0.599825 0.199941-0.199941 0.399883-0.299912 0.599824-0.499853 0.199941-0.199941 0.399883-0.299912 0.599825-0.499854 0.399883-0.399883 0.799766-0.699795 1.099678-1.099678l128.262423-128.462364c12.496339-12.496339 12.496339-32.790393 0-45.286733-12.496339-12.59631-32.790393-12.59631-45.186762-0.09997z"></path></svg>