<svg t="1750816658664" class="icon" viewBox="0 0 1024 1024" version="1.1" xmlns="http://www.w3.org/2000/svg" p-id="20267" width="200" height="200"><path d="M199.111111 56.888889h625.777778a85.333333 85.333333 0 0 1 85.333333 85.333333v739.555556a85.333333 85.333333 0 0 1-85.333333 85.333333H199.111111a85.333333 85.333333 0 0 1-85.333333-85.333333V142.222222a85.333333 85.333333 0 0 1 85.333333-85.333333z m26.88 55.466667a56.888889 56.888889 0 0 0-56.888889 56.888888v685.511112a56.888889 56.888889 0 0 0 56.888889 56.888888h572.017778a56.888889 56.888889 0 0 0 56.888889-56.888888V169.244444a56.888889 56.888889 0 0 0-56.888889-56.888888zM483.555556 449.991111H252.586667a28.444444 28.444444 0 0 1 0-56.888889H483.555556a28.444444 28.444444 0 0 1 0 56.888889z m0-96H252.586667a28.444444 28.444444 0 0 1 0-56.888889H483.555556a28.444444 28.444444 0 0 1 0 56.888889z m-118.186667 146.915556a28.444444 28.444444 0 0 1-28.444445-28.444445V325.688889a28.444444 28.444444 0 0 1 56.888889 0v146.915555a28.444444 28.444444 0 0 1-28.444444 28.302223z m5.688889-158.293334H348.444444a28.444444 28.444444 0 0 1 0-39.537777l101.546667-101.688889a28.444444 28.444444 0 1 1 39.395556 39.537777l-101.404445 96.142223z m0 0H348.444444l-95.857777-101.688889a28.444444 28.444444 0 1 1 39.537777-39.537777l95.857778 96.142222a33.848889 33.848889 0 0 1 5.546667 39.537778z m-118.897778 313.742223h232.106667a28.444444 28.444444 0 1 1 0 55.466666H252.16a27.733333 27.733333 0 0 1 0-55.466666z m0 110.933333h486.542222a28.444444 28.444444 0 1 1 0 55.466667H252.16a28.444444 28.444444 0 0 1 0-55.466667z" p-id="20268"></path></svg>
