<svg viewBox="0 0 1024 1024" version="1.1" xmlns="http://www.w3.org/2000/svg" width="200" height="200"><path d="M231.266462 815.261538c2.363077 0 4.726154-0.236308 7.08923-0.630153L436.932923 779.815385a11.579077 11.579077 0 0 0 6.301539-3.308308l500.814769-500.893539a11.815385 11.815385 0 0 0 0-16.620307L747.756308 62.542769A11.657846 11.657846 0 0 0 739.406769 59.076923a11.657846 11.657846 0 0 0-8.428307 3.465846L230.242462 563.278769a11.972923 11.972923 0 0 0-3.308308 6.301539l-34.816 198.656a40.014769 40.014769 0 0 0 39.227077 46.867692z m79.556923-206.060307l428.583384-428.425846 86.646154 86.646153-428.583385 428.425847-104.999384 18.510769 18.432-105.156923z m655.675077 305.309538H96.886154a37.809231 37.809231 0 0 0-37.809231 37.809231v42.535385c0 5.198769 4.253538 9.452308 9.452308 9.452307h926.326154a9.452308 9.452308 0 0 0 9.452307-9.452307v-42.535385a37.809231 37.809231 0 0 0-37.80923-37.809231z"></path></svg>