<svg viewBox="0 0 1024 1024" version="1.1" xmlns="http://www.w3.org/2000/svg" width="200" height="200"><path d="M212.184 172.168c-16.584 0-30 12.544-30 27.952v635.392a27.584 27.584 0 0 0 14.272 23.784 31.896 31.896 0 0 0 29.144 1.2L471.76 745.84a95.912 95.912 0 0 1 80.48 0l246.16 114.672a31.896 31.896 0 0 0 29.248-1.2 27.536 27.536 0 0 0 14.16-23.792V200.16c0-15.4-13.408-27.952-29.944-27.952h-599.68v-0.048z m0-55.808h599.68c49.664 0 89.952 37.496 89.952 83.76v635.392c0 29-16.136 55.952-42.656 71.256a95.76 95.76 0 0 1-87.48 3.664L525.36 795.76a32 32 0 0 0-26.776 0l-246.312 114.672a95.76 95.76 0 0 1-87.48-3.664c-26.424-15.256-42.608-42.2-42.608-71.256V200.16c0.048-46.32 40.336-83.808 90-83.808z m299.76 478.16l-91.76 44.968a31.896 31.896 0 0 1-31.568-2.112 27.04 27.04 0 0 1-11.952-27.296l17.552-95.2-74.28-67.4a26.56 26.56 0 0 1-7.56-28.6 29.52 29.52 0 0 1 24.2-19.072L439.2 386l45.88-86.568a30.288 30.288 0 0 1 26.88-15.568 30.288 30.288 0 0 1 26.872 15.568l45.888 86.56 102.656 13.904a29.52 29.52 0 0 1 24.208 19.024A26.72 26.72 0 0 1 704 447.536l-74.272 67.296 17.552 95.2a27.048 27.048 0 0 1-11.952 27.296 31.896 31.896 0 0 1-31.568 2.112L512 594.48l-0.048 0.04z m-13.96-56.256a31.952 31.952 0 0 1 27.984 0l51.936 25.44-9.888-53.84a26.72 26.72 0 0 1 8.576-24.696l42-38.136-58.032-7.832a29.904 29.904 0 0 1-22.64-15.36l-25.968-48.976-25.968 48.984a29.904 29.904 0 0 1-22.592 15.304l-58.136 7.832 42.048 38.136a26.6 26.6 0 0 1 8.624 24.688l-9.88 53.904 51.936-25.44z"></path></svg>