<svg viewBox="0 0 1024 1024" version="1.1" xmlns="http://www.w3.org/2000/svg" width="200" height="200"><path d="M725.376 181.312h-11.52c-4.16-53.504-38.784-85.312-95.168-85.312H405.376c-56.384 0-91.008 31.808-95.168 85.312h-11.52c-103.168 0-160 56.832-160 160V768c0 103.168 56.832 160 160 160h426.688c103.168 0 160-56.832 160-160V341.312c0-103.168-56.832-160-160-160zM373.376 192c0-25.152 6.848-32 32-32h213.312c25.152 0 32 6.848 32 32v42.688c0 25.088-6.848 32-32 32H405.376c-25.152 0-32-6.912-32-32V192z m448 576c0 67.264-28.736 96-96 96H298.688c-67.264 0-96-28.736-96-96V341.312c0-67.264 28.736-96 96-96h11.52c4.16 53.504 38.784 85.376 95.168 85.376h213.312c56.32 0 91.008-31.872 95.168-85.376h11.52c67.264 0 96 28.736 96 96V768z m-127.168-310.592l-42.24-42.24a69.376 69.376 0 0 0-49.408-20.48h-0.064c-18.688 0-36.352 7.296-49.472 20.608l-234.24 235.328a31.808 31.808 0 0 0-9.408 22.592V768a32 32 0 0 0 32 32h94.848a32 32 0 0 0 22.592-9.344l235.328-234.24a69.76 69.76 0 0 0 0-99.008z m-91.712 1.28a5.76 5.76 0 0 1 4.224 1.728l42.24 42.24a5.888 5.888 0 0 1 0 8.384l-27.136 27.008-50.56-50.496 27.008-27.136a5.952 5.952 0 0 1 4.224-1.728zM423.04 736h-49.6v-49.6L526.08 532.928l50.304 50.304L422.976 736z"></path></svg>