<svg viewBox="0 0 1024 1024" version="1.1" xmlns="http://www.w3.org/2000/svg" width="64" height="64"><path d="M806.4 800V672c0-4.608-1.664-6.4-1.056-6.4H218.656c0.608 0-1.056 1.792-1.056 6.4v128H160V672c0-35.36 26.24-64 58.656-64h586.688C837.728 608 864 636.64 864 672v128h-57.6zM57.6 966.4h236.8V857.6H57.6v108.8zM32 800h288a32 32 0 0 1 32 32v160a32 32 0 0 1-32 32H32a32 32 0 0 1-32-32V832a32 32 0 0 1 32-32z m697.6 166.4h236.8V857.6H729.6v108.8zM704 800h288a32 32 0 0 1 32 32v160a32 32 0 0 1-32 32H704a32 32 0 0 1-32-32V832a32 32 0 0 1 32-32zM480 512h57.6v96H480v-96z m15.104-201.12h-87.52a15.648 15.648 0 0 0-16.16 16.192v4.256c0 9.376 6.816 16.16 16.16 16.16h87.52v57.696a17.92 17.92 0 0 0 15.04 17.6h5.408a15.648 15.648 0 0 0 16.16-16.16v-59.136h84.704a15.648 15.648 0 0 0 16.16-16.16v-4.256a15.648 15.648 0 0 0-16.16-16.192h-84.704v-59.104h84.704a19.424 19.424 0 0 0 19.872-19.872v-4.256a19.424 19.424 0 0 0-19.872-19.904h-91.072a21.6 21.6 0 0 0 1.6-1.408l68.16-63.936a21.984 21.984 0 0 0 1.408-29.824c-8.512-8.512-22.72-9.92-31.232-1.408l-52.32 49.024-49.952-53.28c-8.544-8.544-22.72-9.952-31.264-1.44-8.512 8.544-9.92 22.72-1.408 31.264l63.904 68.16a23.808 23.808 0 0 0 0.768 0.736 19.584 19.584 0 0 0 2.24 2.112h-89.664a19.424 19.424 0 0 0-19.872 19.904v4.256c0 11.36 8.512 19.872 19.872 19.872h87.52v59.104zM512 512a256 256 0 1 1 0-512 256 256 0 0 1 0 512z"></path></svg>