<svg t="1750815552690" class="icon" viewBox="0 0 1024 1024" version="1.1" xmlns="http://www.w3.org/2000/svg" p-id="6680" width="200" height="200"><path d="M970.752 864.256h-37.376V416.256c0-70.656-52.224-122.88-122.88-122.88h-197.12V224.256c0-70.656-52.736-122.88-122.88-122.88h-256c-70.656 0-122.88 52.736-122.88 122.88v640h-37.376c-17.92 0-32.256 12.288-32.256 30.208 0 17.92 14.336 28.672 32.256 28.672h896c17.92 0 32.768-10.752 32.768-28.672 0.512-18.432-14.336-30.208-32.256-30.208zM554.496 288.256v576h-384v-640c0-35.328 28.672-64 64-64h256c35.328 0 64 28.672 64 64v64z m320 576h-261.12v-512h197.12c35.328 0 64 28.672 64 64v448z" fill="" p-id="6681"></path><path d="M460.8 346.624H263.68c-16.384 0-29.184-13.312-29.184-29.184 0-16.384 13.312-29.184 29.184-29.184H460.8c16.384 0 29.184 13.312 29.184 29.184 0.512 15.872-12.8 29.184-29.184 29.184zM460.8 541.696H263.68c-16.384 0-29.184-13.312-29.184-29.184 0-16.384 13.312-29.184 29.184-29.184H460.8c16.384 0 29.184 13.312 29.184 29.184 0.512 15.872-12.8 29.184-29.184 29.184zM460.8 731.648H263.68c-16.384 0-29.184-13.312-29.184-29.696 0-16.384 13.312-29.184 29.184-29.184H460.8c16.384 0 29.184 13.312 29.184 29.184 0.512 16.384-12.8 29.696-29.184 29.696zM784.896 731.648h-74.24c-16.384 0-29.696-13.312-29.696-29.696 0-16.384 13.312-29.184 29.696-29.184h74.24c16.384 0 29.184 13.312 29.184 29.184 0.512 16.384-12.8 29.696-29.184 29.696zM784.896 541.696h-74.24c-16.384 0-29.696-13.312-29.696-29.184 0-16.384 13.312-29.184 29.696-29.184h74.24c16.384 0 29.184 13.312 29.184 29.184 0.512 15.872-12.8 29.184-29.184 29.184z" fill="" p-id="6682"></path></svg>
