<svg viewBox="0 0 1024 1024" version="1.1" xmlns="http://www.w3.org/2000/svg" xmlns:xlink="http://www.w3.org/1999/xlink" width="128" height="128"><path d="M164.977778 944.355556h694.044444a22.755556 22.755556 0 0 0 22.755556-22.755556V102.4a22.755556 22.755556 0 0 0-22.755556-22.755556H164.977778a22.755556 22.755556 0 0 0-22.755556 22.755556v819.2a22.755556 22.755556 0 0 0 22.755556 22.755556z m22.755555-819.2h648.533334v773.688888H187.733333z"></path><path d="M398.222222 241.777778L316.871111 323.697778 284.444444 292.408889a19.911111 19.911111 0 0 0-27.875555 27.875555l45.511111 46.08a19.911111 19.911111 0 0 0 13.653333 5.688889 19.911111 19.911111 0 0 0 13.653334-5.688889l96.711111-96.711111A19.911111 19.911111 0 0 0 398.222222 241.777778zM752.64 293.546667H512A22.755556 22.755556 0 1 0 512 341.333333h240.071111a22.755556 22.755556 0 0 0 0-45.511111zM398.222222 435.768889L316.871111 517.688889 284.444444 486.4a19.911111 19.911111 0 0 0-27.306666 25.6l45.511111 45.511111a18.204444 18.204444 0 0 0 13.653333 6.257778 18.204444 18.204444 0 0 0 13.653334-6.257778l96.711111-96.142222a19.911111 19.911111 0 0 0-28.444445-25.6zM752.64 487.537778H512a22.755556 22.755556 0 0 0 0 45.511111h240.071111a22.755556 22.755556 0 0 0 0-45.511111zM752.64 695.751111H512A22.755556 22.755556 0 0 0 512 739.555556h240.071111a22.755556 22.755556 0 0 0 0-45.511112zM335.644444 643.982222a74.524444 74.524444 0 1 0 74.524445 74.524445 74.524444 74.524444 0 0 0-74.524445-74.524445z m0 109.226667a34.702222 34.702222 0 0 1-34.702222-34.702222 35.271111 35.271111 0 0 1 34.702222-35.84 34.702222 34.702222 0 0 1 34.702223 34.702222 34.702222 34.702222 0 0 1-34.702223 35.84z"></path></svg>