<svg t="1750767132998" class="icon" viewBox="0 0 1024 1024" version="1.1" xmlns="http://www.w3.org/2000/svg" p-id="19086" width="200" height="200"><path d="M729.6 239.3c32.1 0 58.2-26 58.2-58.2s-26-58.2-58.2-58.2-58.2 26-58.2 58.2 26.1 58.2 58.2 58.2z m-219-86.8c25.1 0 49.5 2.6 73.2 7.4l19.4-68.6c-29.8-6.5-60.8-10-92.6-10-181.4 0-337 112.1-401.3 270.7l68.1 21.5c55-129.7 183.7-221 333.2-221z m0 723.3c-150.7 0-280.2-92.7-334.5-224.1l-65.8 27.1C175.3 836.1 330.2 947 510.6 947c28.3 0 56-2.7 82.8-8l-14.6-69.7c-22 4.3-44.8 6.5-68.2 6.5z m346.8-620.4l-57.6 41.8c45.5 60.5 72.5 135.7 72.5 217 0 96.2-37.8 183.8-99.2 248.6l55.3 45c71.4-77.2 115.1-180.4 115.1-293.7 0-96.9-32.1-186.5-86.1-258.7z m-142.5 544c-32.1 0-58.2 26-58.2 58.2 0 32.1 26 58.2 58.2 58.2s58.2-26 58.2-58.2-26.1-58.2-58.2-58.2zM178.8 513c0-32.1-26-58.2-58.2-58.2s-58.2 26-58.2 58.2 26 58.2 58.2 58.2 58.2-26 58.2-58.2z m281.8 103.8l-47.9-47.9-77.9 77.9 47.9 47.9 77.9-77.9zM577.4 500l-47.9-47.9-77.9 77.9 47.9 47.9 77.9-77.9z m38.9-39l77.9-77.9-47.9-47.9-77.9 77.9 47.9 47.9z m-135-172H293v189.2h188.3V289z m-67.7 121.4h-52.8v-53.7h52.8v53.7z m321.5 137.5H546.8v189.2h188.3V547.9z m-67.8 121.4h-52.8v-53.7h52.8v53.7z" p-id="19087"></path></svg>
