<svg t="1750767791384" class="icon" viewBox="0 0 1024 1024" version="1.1" xmlns="http://www.w3.org/2000/svg" p-id="25745" width="200" height="200"><path d="M512.186242 97.390098c247.289106 0 447.778326 198.589964 447.778326 443.524442 0 166.995385-93.189426 312.3898-230.887554 388.070456L295.30161 928.984996C157.609621 853.30434 64.407915 707.910948 64.407915 540.915563 64.407915 295.980062 264.903276 97.390098 512.186242 97.390098zM765.737982 792.042067c67.74287-67.083861 104.997356-156.281369 104.997356-251.127528l-78.68099 0 0-55.441707 74.389244 0c-6.147-38.975686-18.691711-76.339666-37.222763-110.87625l-93.13826 0 0-55.441707 56.195883 0c-8.232498-10.209526-17.060561-20.002566-26.54047-29.374004-40.396035-40.037878-88.826048-69.297272-141.599995-86.434581l0 60.366879-55.978942 0 0-73.67907c-18.359137-2.821255-37.050848-4.285606-55.972802-4.285606-18.908652 0-37.606503 1.465374-55.972802 4.285606l0 73.67907-55.965639 0 0-60.366879c-52.780087 17.137309-101.20396 46.396703-141.599995 86.434581-9.479909 9.371438-18.307971 19.164478-26.54047 29.374004l56.195883 0 0 55.441707L195.158818 374.596584c-18.532075 34.536584-31.075763 71.900563-37.222763 110.87625l74.389244 0 0 55.441707-78.67485 0c0 94.846158 37.242206 184.043666 104.997356 251.127528 9.345856 9.249665 19.183921 17.968234 29.322839 26.066679L456.214463 818.108746 488.172315 374.597607l48.040133 0 31.945573 443.512163 168.249959 0C746.55406 810.011324 756.392126 801.291732 765.737982 792.042067z" p-id="25746"></path></svg>
