<svg xmlns="http://www.w3.org/2000/svg" viewBox="0 0 1024 1024" version="1.1"><path d="M960 444.8s-3.2 0-4.8 3.2L518.4 620.8H512L75.2 448c-3.2 0-3.2-3.2-4.8-4.8v129.6c0 3.2 3.2 4.8 4.8 4.8L512 750.4h6.4l436.8-172.8 4.8-4.8v-128zM68.8 787.2L505.6 960h6.4l436.8-172.8 4.8-4.8V652.8c0 3.2-3.2 3.2-4.8 4.8L513.6 830.4h-6.4L70.4 657.6c-3.2 0-3.2-3.2-4.8-4.8v129.6c-1.6-3.2 1.6 0 3.2 4.8z m0-412.8l436.8 172.8h6.4l436.8-172.8 4.8-4.8V243.2c0-3.2-3.2-4.8-4.8-4.8L512 65.6h-6.4L68.8 238.4c-3.2 0-4.8 3.2-4.8 4.8v126.4c0 1.6 3.2 4.8 4.8 4.8z m464 19.2s0 3.2 0 0c-4.8 3.2-4.8 3.2 0 0l-160-64s-3.2 0 0-3.2c0 0 0-3.2 3.2-3.2l203.2-22.4h3.2v3.2l-49.6 89.6z m179.2-200l124.8 49.6v6.4L726.4 296l-124.8-49.6V240L712 193.6c-1.6 0-1.6 0 0 0z m-348.8-27.2l83.2-14.4-19.2-35.2V112h3.2l72 27.2 83.2-14.4h3.2v3.2L552 160l68.8 27.2s3.2 3.2 0 3.2c0 0 0 3.2-3.2 3.2l-96-4.8L480 224h-3.2l-19.2-44.8-96-4.8c-1.6-4.8-1.6-4.8 1.6-8-3.2 0-3.2 0 0 0z m-148.8 54.4c19.2-9.6 41.6-12.8 68.8-12.8s54.4 4.8 73.6 12.8c22.4 4.8 33.6 22.4 33.6 32s-9.6 22.4-27.2 27.2-44.8 9.6-68.8 9.6c-27.2 0-56-4.8-73.6-12.8-22.4-4.8-32-22.4-32-32-3.2-9.6 4.8-19.2 25.6-24z"></path></svg>