<svg width="200px" height="200.00px" viewBox="0 0 1024 1024" version="1.1" xmlns="http://www.w3.org/2000/svg"><path d="M836.6 251.5L708.7 124.1C690.5 106 666.6 96 641.4 96H255c-52.9 0-96 43.1-96 96v639.6c0 52.9 43.1 96 96 96h291.2c-21.5-18.1-39.9-39.7-54.4-64H255c-17.6 0-32-14.4-32-32V192c0-17.6 14.4-32 32-32h295.3a97.86 97.86 0 0 0-5.4 32.1v127.4c0 52.9 43.1 96 96 96h127.9c11.2 0 22-1.8 32.1-5.4v64.2c23.3 9.5 44.8 22.3 64 38V319.1c0-1.6 0-3.2-0.1-4.7-1.1-23.6-11-45.8-28.2-62.9z m-67.7 100h-128c-17.6 0-32-14.4-32-32V192.1c0-20.1 16.5-32.1 32.5-32.1 5.8 0 14.3 1.6 22.1 9.5l127.9 127.4c7.9 7.9 9.5 16.4 9.5 22.2 0.1 15.9-11.9 32.4-32 32.4z" /><path d="M480.1 320.1h-192c-17.7 0-32 14.3-32 32s14.3 32 32 32h192c17.7 0 32-14.3 32-32s-14.4-32-32-32zM544 447.8H288.1c-17.7 0-32 14.3-32 32s14.3 32 32 32H544c17.7 0 32-14.3 32-32s-14.3-32-32-32zM288.1 640h193.2c17.7 0 32-14.3 32-32s-14.3-32-32-32H288.1c-17.7 0-32 14.3-32 32 0 17.6 14.4 32 32 32zM736.9 664.6c39.8 0 72.1 32.3 72.1 72.1s-32.3 72.1-72.1 72.1-72.1-32.3-72.1-72.1 32.2-72.1 72.1-72.1z m209 28.9h-49c-3.8-13.9-9.3-27.1-16.3-39.3l34.7-34.7c5.6-5.6 5.6-14.8 0-20.4l-40.8-40.8c-5.6-5.6-14.8-5.6-20.4 0L819.4 593c-12.2-7-25.4-12.6-39.3-16.3v-49c0-8-6.5-14.4-14.4-14.4H708c-8 0-14.4 6.5-14.4 14.4v49c-13.9 3.8-27.1 9.3-39.3 16.3l-34.7-34.7c-5.6-5.6-14.8-5.6-20.4 0l-40.8 40.8c-5.6 5.6-5.6 14.8 0 20.4l34.7 34.7c-7 12.2-12.6 25.4-16.3 39.3h-49c-8 0-14.4 6.5-14.4 14.4v57.7c0 8 6.5 14.4 14.4 14.4h49c3.8 13.9 9.3 27.1 16.3 39.3L558.4 854c-5.6 5.6-5.6 14.8 0 20.4l40.8 40.8c5.6 5.6 14.8 5.6 20.4 0l34.7-34.7c12.2 7 25.4 12.6 39.3 16.3v49c0 8 6.5 14.4 14.4 14.4h57.7c8 0 14.4-6.5 14.4-14.4v-49c13.9-3.8 27.1-9.3 39.3-16.3l34.7 34.7c5.6 5.6 14.8 5.6 20.4 0l40.8-40.8c5.6-5.6 5.6-14.8 0-20.4l-34.7-34.7c7-12.2 12.6-25.4 16.3-39.3h49c8 0 14.4-6.5 14.4-14.4v-57.7c0.1-8-6.4-14.4-14.4-14.4z" /></svg>
