<svg viewBox="0 0 1024 1024" version="1.1" xmlns="http://www.w3.org/2000/svg" width="200" height="200"><path d="M949.12 624.64L860.16 128H163.84L72.32 627.2a32.64 32.64 0 0 0-8.32 21.76V832a33.28 33.28 0 0 0 33.28 33.28h832A33.28 33.28 0 0 0 960 832v-183.04a32.64 32.64 0 0 0-10.88-24.32zM204.8 176h615.68L896 615.68H124.16z m704 640H113.92V665.6h796.16z"></path><path d="M611.84 698.88m16.64 0l115.84 0q16.64 0 16.64 16.64l0 33.28q0 16.64-16.64 16.64l-115.84 0q-16.64 0-16.64-16.64l0-33.28q0-16.64 16.64-16.64Z"></path><path d="M794.24 698.88m16.64 0l33.28 0q16.64 0 16.64 16.64l0 33.28q0 16.64-16.64 16.64l-33.28 0q-16.64 0-16.64-16.64l0-33.28q0-16.64 16.64-16.64Z"></path><path d="M684.16 548.48H396.8a99.84 99.84 0 0 1-103.04-96.64A99.2 99.2 0 0 1 384 356.48h9.6l4.48-8.32a151.04 151.04 0 0 1 136.96-76.8 144.64 144.64 0 0 1 144 99.84v12.16h12.8a84.48 84.48 0 0 1 78.08 81.28 85.12 85.12 0 0 1-85.76 83.84z"></path></svg>