<svg viewBox="0 0 1024 1024" version="1.1" xmlns="http://www.w3.org/2000/svg" width="200" height="200"><path d="M509.867 1006.933c-12.8 0-27.734-4.266-40.534-10.666L106.667 806.4c-27.734-14.933-44.8-44.8-44.8-74.667v-588.8C61.867 96 100.267 57.6 147.2 57.6h66.133c46.934 0 85.334 38.4 85.334 85.333v27.734h100.266v-27.734c0-46.933 38.4-85.333 85.334-85.333h49.066c46.934 0 85.334 38.4 85.334 85.333v27.734h100.266v-27.734c0-46.933 38.4-85.333 85.334-85.333H870.4c46.933 0 85.333 38.4 85.333 85.333v588.8c0 32-17.066 61.867-46.933 74.667L546.133 996.267c-10.666 6.4-23.466 10.666-36.266 10.666z m-362.667-864v588.8L509.867 921.6l362.666-189.867v-588.8H806.4v27.734C806.4 217.6 768 256 721.067 256h-102.4c-46.934 0-85.334-38.4-85.334-85.333v-27.734h-49.066v27.734c0 46.933-38.4 85.333-85.334 85.333H298.667c-46.934 0-85.334-38.4-85.334-85.333v-27.734H147.2z"></path><path d="M266.667 695.467c-23.467 0-42.667-19.2-42.667-42.667V390.4c0-23.467 19.2-42.667 42.667-42.667s42.666 19.2 42.666 42.667v262.4c0 23.467-19.2 42.667-42.666 42.667z m162.133 0c-23.467 0-42.667-19.2-42.667-42.667V426.667c0-23.467 19.2-42.667 42.667-42.667s42.667 19.2 42.667 42.667V652.8c0 23.467-19.2 42.667-42.667 42.667z m322.133 0c-23.466 0-42.666-19.2-42.666-42.667V475.733c0-23.466 19.2-42.666 42.666-42.666s42.667 19.2 42.667 42.666V652.8c0 23.467-19.2 42.667-42.667 42.667z m-160 0c-23.466 0-42.666-19.2-42.666-42.667V356.267c0-23.467 19.2-42.667 42.666-42.667s42.667 19.2 42.667 42.667V652.8c0 23.467-19.2 42.667-42.667 42.667z"></path></svg>
