<svg t="1781160194575" class="icon" viewBox="0 0 1024 1024" version="1.1" xmlns="http://www.w3.org/2000/svg" p-id="5891" width="32" height="32"><path d="M96 107.2a32 32 0 0 1 32-32h384a32 32 0 0 1 32 32v682.688a32 32 0 0 1-32 32H128a32 32 0 0 1-32-32V107.2z m64 32v618.688h320V139.2h-320z" p-id="5892"></path><path d="M480 235.2a32 32 0 0 1 32-32h384a32 32 0 0 1 32 32v682.688a32 32 0 0 1-32 32H512a32 32 0 0 1-32-32V235.2z m64 32v618.688h320V267.2h-320zM254.08 341.184a32 32 0 0 1 45.248-1.216L384.64 420.8a32 32 0 0 1 2.112 44.288L308.544 554.88a32 32 0 1 1-48.256-41.984l58.048-66.688-63.04-59.776a32 32 0 0 1-1.216-45.248z" p-id="5893"></path><path d="M769.92 469.184a32 32 0 0 1-1.28 45.248l-63.04 59.776 58.048 66.688a32 32 0 1 1-48.256 41.984L637.184 593.088a32 32 0 0 1 2.112-44.288l85.312-80.832a32 32 0 0 1 45.248 1.28z" p-id="5894"></path></svg>
