<svg viewBox="0 0 1024 1024" version="1.1" xmlns="http://www.w3.org/2000/svg" width="200" height="200"><path d="M161.8 804H115V87.5c0-13.1 10.3-23.4 23.4-23.4h751.9c13.1 0 23.4 10.3 23.4 23.4v585.4c0 50.1-40.7 90.8-90.8 90.8v-46.8c24.8 0 44-19.2 44-44v-562h-705V804z m726.1 59.5H230.2c-13.1 0-23.4-10.3-23.4-23.4 0-13.1 10.3-23.4 23.4-23.4H888c13.1 0 23.4 10.3 23.4 23.4 0 13.1-10.3 23.4-23.5 23.4z m0 0"></path><path d="M887.9 959.9H220.8c-61.8-2.3-110.5-55.3-110.5-120.4 0-62.8 46.4-117.1 105.8-123.6h610.5c13.1 0 23.4 10.3 23.4 23.4 0 13.1-10.3 23.4-23.4 23.4H219.9c-35.1 4.7-62.8 37.9-62.8 76.8 0 39.8 28.6 72.1 65.1 73.5h665.7c13.1 0 23.4 10.3 23.4 23.4 0.1 13.2-10.2 23.5-23.4 23.5zM514.3 274.3c-77.3 0-140.5 63.2-140.5 140.5S437 555.3 514.3 555.3s140.5-63.2 140.5-140.5c0-77.2-63.2-140.5-140.5-140.5z m0 234.2c-51.5 0-93.7-42.1-93.7-93.7 0-51.5 42.1-93.7 93.7-93.7s93.7 42.1 93.7 93.7c0 51.5-42.1 93.7-93.7 93.7z"></path><path d="M512.9 302.9c-13.1 0-23.4-10.3-23.4-23.4v-42.6c0-13.1 10.3-23.4 23.4-23.4 13.1 0 23.4 10.3 23.4 23.4v42.6c0.1 13.1-10.3 23.4-23.4 23.4z m-95.5 40.3c-6.1 0-12.2-2.3-16.9-7l-29.5-30c-8.9-9.4-8.9-23.9 0.5-33.2 9.4-8.9 23.9-8.9 33.2 0.5l29.5 30c8.9 9.4 8.9 23.9-0.5 33.2-4.6 4.1-10.2 6.5-16.3 6.5z m-38.9 96.4h-42.1c-13.1 0-23.4-10.3-23.4-23.4 0-13.1 10.3-23.4 23.4-23.4h42.1c13.1 0 23.4 10.3 23.4 23.4 0.1 13.1-10.3 23.4-23.4 23.4z m10.3 125.1c-6.1 0-12.2-2.3-16.9-7-8.9-9.4-8.9-23.9 0.5-33.2l30.4-30c9.4-8.9 23.9-8.9 33.2 0.5 8.9 9.4 8.9 23.9-0.5 33.2l-30.4 30c-4.6 4.1-10.2 6.5-16.3 6.5z m126.9 51.5c-13.1 0-23.4-10.3-23.4-23.4v-42.1c0-13.1 10.3-23.4 23.4-23.4s23.4 10.3 23.4 23.4v42.1c0.1 13.1-10.2 23.4-23.4 23.4z m125.1-52.5c-6.1 0-12.2-2.3-16.9-7l-30-30.4c-8.9-9.4-8.9-23.9 0.5-33.2 9.4-8.9 23.9-8.9 33.2 0.5l30 30.4c8.9 9.4 8.9 23.9-0.5 33.2-4.6 4.2-10.2 6.5-16.3 6.5z m51.5-126.9h-42.6c-13.1 0-23.4-10.3-23.4-23.4 0-13.1 10.3-23.4 23.4-23.4h42.6c13.1 0 23.4 10.3 23.4 23.4 0 13.1-10.3 23.4-23.4 23.4z m-82.9-95c-6.1 0-12.2-2.3-16.4-7-9.4-9.4-9.4-23.9 0-33.2l30-30c9.4-9.4 23.9-9.4 33.2 0 9.4 9.4 9.4 23.9 0 33.2l-30 30c-4.6 4.6-10.7 7-16.8 7z m0 0"></path></svg>