<?xml version="1.0" standalone="no"?><!DOCTYPE svg PUBLIC "-//W3C//DTD SVG 1.1//EN" "http://www.w3.org/Graphics/SVG/1.1/DTD/svg11.dtd"><svg t="1585040472338" class="icon" viewBox="0 0 1024 1024" version="1.1" xmlns="http://www.w3.org/2000/svg" p-id="9270" xmlns:xlink="http://www.w3.org/1999/xlink" width="200" height="200"><defs><style type="text/css"></style></defs><path d="M911.644444 112.355556H112.355556v245.656565h129.292929V911.515152H782.222222V358.012121h129.29293v-245.656565z m-181.010101 747.571717H293.365657V267.507071H730.505051v592.420202z m129.29293-553.632324h-77.575758v-38.787878h25.858586v-51.717172H215.789899v51.717172h25.858586v38.787878h-77.575758v-142.222222H859.79798v142.222222z" p-id="9271"></path><path d="M361.144889 700.621576l265.128081-265.128081 36.567919 36.570505L397.714101 737.189495zM598.238384 595.006061c-42.79596 0-77.575758 34.779798-77.575758 77.575757s34.779798 77.575758 77.575758 77.575758 77.575758-34.779798 77.575757-77.575758-34.779798-77.575758-77.575757-77.575757z m0 103.434343c-14.222222 0-25.858586-11.636364-25.858586-25.858586s11.636364-25.858586 25.858586-25.858586 25.858586 11.636364 25.858586 25.858586-11.636364 25.858586-25.858586 25.858586zM425.761616 577.680808c42.79596 0 77.575758-34.779798 77.575758-77.575757s-34.779798-77.575758-77.575758-77.575758-77.575758 34.779798-77.575757 77.575758 34.779798 77.575758 77.575757 77.575757z m0-103.434343c14.222222 0 25.858586 11.636364 25.858586 25.858586s-11.636364 25.858586-25.858586 25.858585-25.858586-11.636364-25.858586-25.858585 11.636364-25.858586 25.858586-25.858586z" p-id="9272"></path></svg>