<svg viewBox="0 0 1024 1024" version="1.1" xmlns="http://www.w3.org/2000/svg" xmlns:xlink="http://www.w3.org/1999/xlink" width="200" height="200"><path d="M515.807 1023.921a42.104 42.104 0 0 1-7.005-0.63C216.83 970.407-51.062 685.832 8.671 169.094a39.113 39.113 0 0 1 41.002-34.785C234.458 143.674 494.715 7.603 497.39 6.187a39.428 39.428 0 0 1 36.753 69.648C523.362 81.501 283.409 206.87 83.277 213.243c-41.71 473.61 208.08 690.741 439.455 732.609a39.35 39.35 0 0 1-6.925 78.07z"></path><path d="M515.728 1024a39.35 39.35 0 0 1-7.004-78.07c181.873-32.896 331.086-165.11 399.003-353.515a39.35 39.35 0 0 1 74.135 26.758c-77.676 215.084-249.24 366.265-459.051 404.276a55.876 55.876 0 0 1-7.083 0.551zM963.84 212.693c-203.043 0-455.431-131.821-466.449-137.645a39.35 39.35 0 1 1 36.674-69.57C536.74 6.895 798.02 143.358 981.862 133.6c20.934-1.416 40.215 15.74 41.16 37.382a39.27 39.27 0 0 1-37.383 41.238 492.89 492.89 0 0 1-21.8 0.473z m-448.112 51.39c46.118 0 83.5 35.257 83.5 78.699s-37.382 78.699-83.5 78.699-83.5-35.257-83.5-78.7 37.382-78.698 83.5-78.698m0-78.699c-86.726 0-157.398 70.593-157.398 157.398S428.923 500.18 515.728 500.18c86.726 0 157.398-70.593 157.398-157.398s-70.593-157.398-157.398-157.398z"></path><path d="M515.728 436.198c-24.554 0-44.465 17.628-44.465 39.349v350.446c0 21.721 19.91 39.35 44.465 39.35s44.465-17.629 44.465-39.35V475.547c0-21.72-19.91-39.35-44.465-39.35z"></path></svg>