<svg t="1750771256321" class="icon" viewBox="0 0 1024 1024" version="1.1" xmlns="http://www.w3.org/2000/svg" p-id="61224" width="200" height="200"><path d="M443.133028 953.544345c-26.075889 0-50.592258-10.155291-69.031213-28.592198l-279.862989-279.864012c-18.47784-18.47784-28.632107-43.044352-28.593222-69.175499 0.038886-26.13217 10.266831-50.671053 28.798906-69.091588l428.059216-425.527556c5.463432-5.429663 11.842723-9.671267 18.961864-12.608156 7.119141-2.935865 14.633279-4.424776 22.333658-4.424776l314.331012 0c20.86112 0 40.473807 8.123005 55.224766 22.874987 14.749936 14.749936 22.874987 34.362622 22.874987 55.223742L956.230012 456.622762c0 7.731078-1.50119 15.272845-4.458545 22.415522-2.959402 7.144724-7.230682 13.538341-12.69923 19.004843L512.164241 924.952146C493.724263 943.390078 469.208916 953.544345 443.133028 953.544345zM563.798225 103.307877c-2.567475 0-5.071506 0.496304-7.444553 1.474584-2.37407 0.979304-4.500501 2.393513-6.321986 4.203742l-428.059216 425.527556c-11.119245 11.053754-17.257036 25.77606-17.279548 41.456181-0.023536 15.678074 6.069229 30.420847 17.156752 41.506323L401.712663 897.341299c11.063987 11.063987 25.774013 17.155728 41.420365 17.155728s30.356378-6.090718 41.419342-17.155728l426.907996-426.911066c1.823532-1.822508 3.246951-3.953032 4.233418-6.334265 0.98749-2.381234 1.486864-4.894474 1.486864-7.472182L917.180648 142.359288c0-10.431583-4.062526-20.237927-11.438517-27.612894-7.375991-7.375991-17.182334-11.438517-27.612894-11.438517L563.798225 103.307877z" p-id="61225"></path><path d="M774.16849 326.856279c-45.215808 0-82.000596-36.784788-82.000596-82.000596s36.784788-82.000596 82.000596-82.000596 82.000596 36.784788 82.000596 82.000596S819.384297 326.856279 774.16849 326.856279zM774.16849 201.903429c-23.684422 0-42.953278 19.268856-42.953278 42.952254 0 23.684422 19.268856 42.953278 42.953278 42.953278s42.953278-19.268856 42.953278-42.953278C817.121767 221.172285 797.852912 201.903429 774.16849 201.903429z" p-id="61226"></path><path d="M406.968363 648.845715l-22.070668 22.070668-24.272823-24.272823 22.069645-22.071691c-26.789133-29.874401-38.821167-55.844889-36.134988-77.95035 1.906419-21.325701 9.049097-38.178531 21.445428-50.574862l30.341029 30.343075c-10.073426 10.072403-14.997576 20.649296-14.735609 31.726585 1.040702 11.892865 8.479115 26.301016 22.315238 43.224454l78.987982-78.987982c-17.461697-37.572734-24.759917-64.255443-21.934568-80.014358-0.366344-15.829524 6.829546-31.103392 21.548782-45.823652 17.023722-17.023722 35.83516-25.328875 56.43329-24.877597 20.561291 0.451278 42.544979 10.021238 65.919339 28.748764l23.231097-23.232121 24.273846 24.273846-23.232121 23.231097c21.862937 23.423479 32.214702 43.830251 31.019481 61.22134-2.010797 16.573467-8.061606 29.90817-18.116613 39.963177l-30.341029-30.344099c6.188956-6.188956 9.188266-13.245675 9.031701-21.168112-0.192382-7.924483-4.733814-17.11275-13.664208-27.602661l-80.148411 80.149435c16.523325 32.024367 25.00244 58.325383 25.473161 78.904071-0.468674 15.033391-7.281847 29.127388-20.440541 42.287105-17.822924 17.822924-37.034475 26.488281-57.595766 26.038026C452.6201 673.587212 429.47189 665.179728 406.968363 648.845715zM503.693312 566.68753l-3.798513-10.766205-68.532863 68.533886c11.268648 9.742898 23.249517 13.956873 35.889395 12.656251 11.059893 0.2415 21.655206-4.662183 31.726585-14.734586 8.511861-8.511861 12.69002-15.95232 12.568247-22.278399C512.135588 591.391165 509.517971 580.281129 503.693312 566.68753zM511.422344 486.134913l2.530636 7.178493 70.856791-70.856791c-12.085246-8.964162-24.447808-13.594623-37.103036-13.871939-11.096732-0.243547-22.433942 5.442966-34.04949 17.058514-4.646833 4.646833-8.063653 12.084223-10.194176 22.330588C502.040672 455.845049 504.693082 468.589304 511.422344 486.134913z" p-id="61227"></path></svg>
