<svg viewBox="0 0 1024 1024" version="1.1" xmlns="http://www.w3.org/2000/svg" xmlns:xlink="http://www.w3.org/1999/xlink" width="200" height="200"><path d="M199.111 128v768H824.89V128H199.11z m0-56.889H824.89A56.889 56.889 0 0 1 881.778 128v768a56.889 56.889 0 0 1-56.89 56.889H199.112A56.889 56.889 0 0 1 142.222 896V128a56.889 56.889 0 0 1 56.89-56.889z m490.78 438.5a56.889 56.889 0 0 0 40.164 16.611h7.197A30.72 30.72 0 0 0 768 495.502V128h-56.889v322.645l-73.557-73.557a56.889 56.889 0 0 0-80.441 0l-73.557 73.557V128h-56.89v367.388c0 17.039 13.796 30.834 30.834 30.834h7.282a56.889 56.889 0 0 0 40.22-16.64l72.25-72.192a28.444 28.444 0 0 1 40.192 0l72.448 72.25z"></path></svg>