<svg viewBox="0 0 1024 1024" version="1.1" xmlns="http://www.w3.org/2000/svg" xmlns:xlink="http://www.w3.org/1999/xlink" width="200" height="200"><path d="M270.592 142.08A158.784 158.784 0 0 0 112 300.672a158.784 158.784 0 0 0 158.592 158.656 158.784 158.784 0 0 0 158.656-158.656A158.784 158.784 0 0 0 270.592 142.08z m0 257.664A99.2 99.2 0 0 1 171.52 300.672 99.2 99.2 0 0 1 270.592 201.6a99.2 99.2 0 0 1 99.072 99.072 99.2 99.2 0 0 1-99.072 99.072zM532.48 235.584h215.808a29.76 29.76 0 1 0 0-59.52H532.48a29.76 29.76 0 1 0 0 59.52z m0 189.76h349.76a29.76 29.76 0 1 0 0-59.52H532.48a29.76 29.76 0 1 0 0 59.52zM270.592 564.8a158.784 158.784 0 0 0-158.592 158.592 158.784 158.784 0 0 0 158.592 158.592 158.784 158.784 0 0 0 158.656-158.592 158.784 158.784 0 0 0-158.656-158.592z m0 257.664a99.2 99.2 0 0 1-99.072-99.072 99.2 99.2 0 0 1 99.072-99.072 99.2 99.2 0 0 1 99.072 99.072 99.2 99.2 0 0 1-99.072 99.072z m261.888-164.224h215.808a29.76 29.76 0 1 0 0-59.52H532.48a29.76 29.76 0 1 0 0 59.52z m349.76 130.688H532.48a29.76 29.76 0 1 0 0 59.52h349.76a29.76 29.76 0 1 0 0-59.52z" fill="#666666"></path></svg>