<svg viewBox="0 0 1024 1024" version="1.1" xmlns="http://www.w3.org/2000/svg" xmlns:xlink="http://www.w3.org/1999/xlink" width="200" height="200"><path d="M619.232 620.224c80.384-38.976 133.984-121.792 133.984-216.8 0-133.984-109.632-243.616-243.616-243.616S265.984 269.44 265.984 403.424c0 95.008 56.032 177.824 133.984 216.8-102.304 36.544-185.152 126.688-207.072 238.752-2.432 12.192 4.864 26.784 19.488 29.248h4.864c12.192 0 21.92-7.296 24.352-19.488 26.784-126.688 138.848-219.232 267.968-219.232s241.184 92.576 267.968 219.264a25.344 25.344 0 0 0 29.408 19.456l-0.16 0.032a25.344 25.344 0 0 0 19.456-29.408l0.032 0.16c-21.92-112.064-102.304-199.744-207.072-238.752z m-302.08-216.832c0-107.2 87.712-194.88 194.88-194.88s194.88 87.712 194.88 194.88-87.712 194.88-194.88 194.88h-0.96a193.92 193.92 0 0 1-193.92-193.92v-1.024 0.064zM219.712 476.48c0-12.192-7.296-21.92-19.488-24.352-70.656-17.056-82.816-90.144-82.816-131.552 0-77.952 53.6-136.416 124.256-136.416 14.624 0 24.352-9.728 24.352-24.352s-9.76-24.352-24.352-24.352c-99.872 0-172.96 80.384-172.96 185.152 0 70.656 24.352 121.792 65.76 153.472-68.224 29.248-119.36 87.712-133.984 168.096-2.432 12.192 4.864 26.784 19.488 29.248h4.864c12.192 0 21.92-7.296 24.352-19.488 17.056-80.384 70.656-133.984 151.04-146.176a25.344 25.344 0 0 0 19.456-29.408l0.032 0.16z m803.904 165.664c-17.056-80.384-65.76-138.848-133.984-168.096 41.408-31.68 65.76-85.28 65.76-153.472 0-104.768-75.52-185.152-172.96-185.152-14.624 0-24.352 9.728-24.352 24.352s9.76 24.352 24.352 24.352c73.088 0 124.256 58.464 124.256 136.416 0 41.408-9.76 114.496-82.816 131.552-12.192 2.432-17.056 12.192-17.056 24.352v2.432c-2.432 12.192 7.296 26.784 19.488 26.784 80.384 12.192 133.984 65.76 151.04 146.176 2.432 12.192 12.192 19.488 24.352 19.488h4.864c9.76-2.432 19.488-17.056 17.056-29.248z"></path></svg>