<svg xmlns="http://www.w3.org/2000/svg" viewBox="0 0 1024 1024" version="1.1"><path d="M370.346667 515.413333a147.626667 147.626667 0 0 1-102.4-41.984 145.237333 145.237333 0 1 1 204.8 0 142.336 142.336 0 0 1-102.4 41.984z m0-238.933333a94.037333 94.037333 0 0 0-66.56 160.597333 95.061333 95.061333 0 0 0 66.56 27.306667 92.16 92.16 0 0 0 66.56-27.306667 94.037333 94.037333 0 0 0-66.56-160.597333zM521.045333 998.4a68.266667 68.266667 0 0 1-48.981333-20.309333L33.109333 539.136a25.6 25.6 0 0 1-7.168-22.357333L93.184 114.176a25.6 25.6 0 0 1 20.992-20.992l402.773333-67.242667a25.6 25.6 0 0 1 22.357334 7.168l438.784 438.954667a69.461333 69.461333 0 0 1 0 97.962667L570.026667 978.090667a68.266667 68.266667 0 0 1-48.981334 20.309333zM78.677333 512l429.568 429.909333a18.432 18.432 0 0 0 25.6 0l408.064-408.064a18.261333 18.261333 0 0 0 0-25.6L512 78.677333 140.629333 140.629333zM391.168 703.488a25.6 25.6 0 0 1-18.090667-43.690667l281.429334-281.429333a25.6 25.6 0 0 1 36.181333 36.181333L409.6 695.978667a25.6 25.6 0 0 1-18.432 7.509333zM491.861333 804.010667a25.6 25.6 0 0 1-18.090666-43.690667l187.733333-187.733333a25.6 25.6 0 1 1 36.181333 36.181333l-187.733333 187.733333a25.6 25.6 0 0 1-18.090667 7.509334z"></path></svg>