<svg viewBox="0 0 1024 1024" version="1.1" xmlns="http://www.w3.org/2000/svg" xmlns:xlink="http://www.w3.org/1999/xlink" width="200" height="200"><path d="M853.333333 910.222222H170.666667a113.777778 113.777778 0 0 1-113.777778-113.777778V227.555556a113.777778 113.777778 0 0 1 113.777778-113.777778h215.495111L507.448889 227.555556H853.333333a113.777778 113.777778 0 0 1 113.777778 113.777777v455.111111a113.777778 113.777778 0 0 1-113.777778 113.777778z m56.888889-568.888889a56.888889 56.888889 0 0 0-56.888889-56.888889H453.290667L340.821333 170.666667H170.666667a56.888889 56.888889 0 0 0-56.888889 56.888889v568.888888a56.888889 56.888889 0 0 0 56.888889 56.888889h682.666666a56.888889 56.888889 0 0 0 56.888889-56.888889V341.333333z"></path><path d="M398.222222 682.666667v-56.888889h341.333334v56.888889H398.222222z m0-227.555556h341.333334v56.888889H398.222222V455.111111z m-113.777778 170.666667h56.888889v56.888889H284.444444v-56.888889z m0-170.666667h56.888889v56.888889H284.444444V455.111111z"></path></svg>