<svg viewBox="0 0 1047 1024" version="1.1" xmlns="http://www.w3.org/2000/svg" width="200" height="200"><path d="M718.184597 915.038213c-127.021752 0.601999-253.441505 0.601999-380.463257 0-23.477954 0-25.283951 11.437978-25.28395 29.497942 0 18.059965 1.805996 29.497942 25.28395 28.895944 63.209877-1.203998 127.021752-0.601999 190.231629-0.601999s127.021752-1.203998 190.231628 0.601999c23.477954 0.601999 25.283951-10.835979 25.283951-28.895944s-1.805996-29.497942-25.283951-29.497942zM983.666079 154.713698c0-60.801881-31.303939-92.10582-92.10582-92.10582-240.197531 0-480.395062 0.601999-721.194592-0.601999-45.751911 0-77.05585 15.651969-96.319812 56.587889v585.142858c19.865961 42.139918 52.975897 57.189888 98.727808 56.587889 237.187537-1.203998 474.375073-0.601999 711.56261-0.601999 68.627866 0 98.125808-29.497942 98.125808-97.523809 1.203998-168.559671 1.203998-337.72134 1.203998-507.485009z m-853.032334 0.601999c0-26.487948 9.029982-34.915932 36.119929-34.915932h716.378601c36.119929 0 42.741917 6.621987 42.741917 42.139918 0 81.87184-0.601999 163.141681 0.601998 245.013521 0 20.46796-5.417989 28.293945-27.089947 28.293945-74.647854-1.203998-149.897707-0.601999-224.545561 0-15.651969 0-24.681952-5.417989-31.905938-19.865961-26.487948-54.179894-54.179894-108.359788-80.667842-162.539683-7.825985-15.049971-15.049971-30.70194-34.915932-30.70194s-25.283951 16.253968-32.507936 30.70194C457.519106 331.099353 419.59318 408.757202 382.269253 485.813051c-2.407995 5.417989-6.019988 13.243974-9.631981 14.447972-8.427984 1.805996-10.23398-8.427984-12.039976-13.845973-15.049971-42.139918-43.945914-55.985891-87.891829-51.771899-39.129924 3.611993-78.259847 0-117.991769 1.203998-17.457966 0.601999-24.079953-6.019988-24.079953-23.477954V155.315697z m795.842445 364.209288c-1.203998 48.159906 0 96.921811-0.601998 145.081717 0 29.497942-8.427984 37.323927-37.925926 37.925926H173.375661c-36.119929 0-42.741917-6.621987-42.741916-42.139918 0-47.557907 0.601999-95.115814 0-142.673721-0.601999-18.059965 6.019988-25.885949 24.681952-25.283951 40.333921 1.203998 80.065844 1.203998 120.399764 0 16.253968-0.601999 25.283951 6.019988 31.905938 19.865961 10.23398 20.46796 21.671958 39.731922 32.507937 59.597884 7.825985 14.447972 15.049971 28.895944 34.313933 28.293945 19.263962-0.601999 25.283951-16.855967 32.507936-30.70194 36.119929-74.647854 72.239859-149.897707 108.961787-224.545562 3.611993-7.223986 4.213992-18.661964 13.845973-18.661963 7.223986 0.601999 9.029982 11.437978 12.039977 18.059964 21.069959 40.93592 42.139918 81.87184 62.005879 124.011758 8.427984 18.059965 21.069959 25.283951 40.93592 25.283951 84.881834-0.601999 169.16167 0 254.043504-0.601999 20.46796-1.203998 28.293945 5.417989 27.691945 26.487948z"></path></svg>