<svg viewBox="0 0 1024 1024" version="1.1" xmlns="http://www.w3.org/2000/svg" xmlns:xlink="http://www.w3.org/1999/xlink" width="200" height="200"><path d="M998.4 0a25.6 25.6 0 0 1 25.6 25.6v972.8a25.6 25.6 0 0 1-25.6 25.6H25.6a25.6 25.6 0 0 1-25.6-25.6V25.6a25.6 25.6 0 0 1 25.6-25.6h972.8z m-38.4 64h-896v896h896v-896z"></path><path d="M448 576v256h-256v-256h256z m384 0v256h-256v-256h256zM384 640h-128v128h128v-128z m384 0h-128v128h128v-128zM640 192v256H384v-256h256zM576 256h-128v128h128v-128zM768 320v256h-64V384H640v-64h128z m-384 0V384h-64v192H256v-256h128z"></path></svg>