<svg xmlns="http://www.w3.org/2000/svg" viewBox="0 0 1068 1024" version="1.1"><path d="M550.4 0C275.2 0 51.2 224 51.2 499.2s224 499.2 499.2 499.2 499.2-224 499.2-499.2S825.6 0 550.4 0z m0 934.4c-243.2 0-435.2-198.4-435.2-435.2S307.2 64 550.4 64s435.2 198.4 435.2 435.2c0 243.2-192 435.2-435.2 435.2zM550.4 211.2c0-12.8-12.8-25.6-25.6-25.6-160 0-288 128-288 288 0 12.8 12.8 25.6 25.6 25.6s25.6-12.8 25.6-25.6c0-134.4 108.8-243.2 243.2-243.2 6.4 6.4 19.2-6.4 19.2-19.2zM838.4 499.2c-12.8 0-25.6 12.8-25.6 25.6 0 134.4-108.8 243.2-243.2 243.2-12.8 0-25.6 12.8-25.6 25.6s12.8 25.6 25.6 25.6c160 0 288-128 288-288 6.4-19.2-6.4-32-19.2-32zM748.8 473.6H524.8v25.6H748.8zM748.8 659.2v-25.6H524.8v25.6H736zM524.8 608H748.8v-25.6H524.8zM748.8 524.8H524.8v25.6H748.8zM371.2 467.2v198.4h128V467.2h-128zM467.2 640H396.8V492.8h76.8V640zM371.2 320v121.6h377.6V320H371.2z m345.6 25.6v70.4h-320V345.6h320z"></path></svg>