<svg viewBox="0 0 1024 1024" version="1.1" xmlns="http://www.w3.org/2000/svg" width="200" height="200"><path d="M691.712 106.496l-31.744 55.296 229.376 132.608v435.712l-74.24 43.008 31.744 55.296 106.496-61.44V257.024l-261.632-150.528zM134.656 294.4L512 76.288l73.728 42.496 31.744-55.296L512 2.56 70.656 257.024v301.568h64V294.4zM512 947.712l-377.344-217.6v-86.016H70.656v122.88l441.344 254.464 261.12-150.528-31.744-55.296-229.376 132.096z"></path><path d="M512 232.448v53.76c5.632 2.048 24.576 24.576 39.936 78.336-13.312 2.048-26.624 2.56-39.936 2.56v53.76c16.896 0 33.792-1.024 50.688-3.584 3.584 22.528 5.632 45.568 6.656 68.096H512v53.248h56.832c-1.024 23.04-3.072 45.568-6.656 68.096-16.896-2.56-33.792-3.584-50.688-3.584v53.76c13.312 0 26.624 1.024 39.936 2.56-15.36 53.76-33.792 76.288-39.936 78.848v53.76c154.624 0 279.552-125.44 279.552-279.552 0.512-155.136-124.416-280.064-279.04-280.064zM649.216 332.8c-14.336 7.68-29.696 14.336-45.568 19.456-5.12-18.432-11.264-36.352-19.456-53.76 23.552 8.192 45.056 19.456 65.024 34.304z m-65.024 392.704c8.192-17.408 14.336-35.84 19.456-54.272 15.872 5.12 30.72 11.776 45.568 19.456-19.456 14.848-41.472 26.624-65.024 34.816z m104.448-73.728c-23.04-13.824-48.128-25.088-73.728-33.28 4.096-26.624 6.656-53.248 7.68-80.384h113.664c-4.608 41.984-21.504 81.408-47.616 114.176v-0.512z m-66.048-167.424c-1.024-26.624-3.584-52.736-7.68-79.36 26.112-8.192 50.688-19.456 73.728-33.792 26.624 32.768 43.008 72.192 47.616 114.176l-113.664-1.024zM232.448 512c0-154.624 125.44-279.552 279.552-279.552V149.504L197.12 330.24v362.496l314.88 181.76v-82.944c-154.624 0-279.552-124.928-279.552-279.552z"></path><path d="M461.312 607.232c16.896-2.56 33.792-3.584 50.688-4.096v-64H455.168c0.512 23.04 3.072 45.568 6.144 68.096z m-6.144-121.856H512V421.376c-16.896 0-33.792-1.536-50.688-4.096-3.584 22.528-5.632 45.568-6.144 68.096z m16.896-120.832c13.312 1.536 26.624 2.56 39.936 2.56V286.208c-5.12 1.024-24.576 23.04-39.936 78.336z m39.936 373.76v-81.408c-13.312 0-26.624 1.024-39.936 2.56 15.36 53.76 34.304 76.288 39.936 78.848zM374.784 691.2c19.456 14.848 40.96 26.624 64 34.816-8.192-17.408-14.336-35.84-19.456-54.272-15.36 5.12-30.208 11.776-44.544 19.456z m34.304-285.696c-26.112-8.192-50.688-19.456-74.24-33.28-26.112 32.768-42.496 72.192-47.616 113.664h114.176c1.024-27.136 3.584-53.76 7.68-80.384z m-7.168 133.12H287.744c5.12 41.472 21.504 80.896 47.616 113.664 23.04-14.336 48.128-25.6 74.24-33.792-4.608-26.112-7.168-53.248-7.68-79.872z m37.888-240.128c-23.04 8.192-44.544 19.456-64 34.304 14.336 7.68 29.696 14.336 45.568 19.456 4.096-17.92 10.752-36.352 18.432-53.76z"></path></svg>