<svg viewBox="0 0 1024 1024" version="1.1" xmlns="http://www.w3.org/2000/svg" width="200" height="200"><path d="M932.1984 876.83072a10.24 10.24 0 0 1 10.24 10.24v51.2a10.24 10.24 0 0 1-10.24 10.24h-309.76a10.24 10.24 0 0 1-10.24-10.24v-51.2a10.24 10.24 0 0 1 10.24-10.24h309.76zM439.1424 86.4768a30.72 30.72 0 0 1 30.72 0l346.112 199.8592a30.72 30.72 0 0 1 15.36 26.60352v190.64832a10.24 10.24 0 0 1-10.24 10.24h-51.2a10.24 10.24 0 0 1-10.24-10.24v-125.952l-269.312 155.648v310.784l29.20448-16.78336a10.24 10.24 0 0 1 15.33952 8.87808v59.35104a10.24 10.24 0 0 1-5.10464 8.8576l-59.904 34.72384a30.72 30.72 0 0 1-30.76608 0.02048L93.0304 739.26656a30.72 30.72 0 0 1-15.36-26.60352V312.9344a30.72 30.72 0 0 1 15.36-26.60352z m-289.792 291.67104v310.784l269.312 155.648v-311.296l-269.312-155.136z m782.848 359.936a10.24 10.24 0 0 1 10.24 10.24v51.2a10.24 10.24 0 0 1-10.24 10.24h-309.76a10.24 10.24 0 0 1-10.24-10.24v-51.2a10.24 10.24 0 0 1 10.24-10.24h309.76z m0-138.24a10.24 10.24 0 0 1 10.24 10.24v51.2a10.24 10.24 0 0 1-10.24 10.24h-309.76a10.24 10.24 0 0 1-10.24-10.24v-51.2a10.24 10.24 0 0 1 10.24-10.24h309.76z m-477.696-439.808l-269.312 155.648 269.312 155.648 269.312-155.648-269.312-155.648z"></path></svg>