<svg t="1750768492467" class="icon" viewBox="0 0 1024 1024" version="1.1" xmlns="http://www.w3.org/2000/svg" p-id="32601" width="200" height="200"><path d="M1019.00288 966.43072l-231.05536-365.39392a25.58464 25.58464 0 0 0-21.5552-11.91936h-0.08192c-8.71936 0-16.8448 4.43904-21.5552 11.78624l-234.1888 365.3888a25.61024 25.61024 0 0 0 21.5552 39.41888h465.24928a25.6 25.6 0 0 0 21.632-39.28064z m-440.06912-11.91936l187.23328-292.12672 184.72448 292.12672h-371.95776z" p-id="32602"></path><path d="M739.1488 759.02976v82.49856c0 14.14144 11.45856 25.6 25.6 25.6s25.6-11.45856 25.6-25.6v-82.49856c0-14.14144-11.45856-25.6-25.6-25.6s-25.6 11.45856-25.6 25.6z" p-id="32603"></path><path d="M737.05984 908.41088a27.68896 25.58464 0 1 0 55.37792 0 27.68896 25.58464 0 1 0-55.37792 0Z" p-id="32604"></path><path d="M478.15168 204.544v278.48192H278.13376a30.72 30.72 0 0 0 0 61.44h230.7328a30.72 30.72 0 0 0 30.72-30.72V204.544a30.72 30.72 0 0 0-61.43488 0z" p-id="32605"></path><path d="M35.99872 376.47872c0.4096 1.48992 0.95232 2.93376 1.58208 4.34688 0.11264 0.256 0.22528 0.51712 0.34304 0.768 0.62464 1.30048 1.3312 2.55488 2.12992 3.75296 0.16896 0.25088 0.34304 0.49152 0.51712 0.73728 0.84992 1.2032 1.7664 2.36544 2.78528 3.44576l0.07168 0.06656c1.02912 1.0752 2.15552 2.05824 3.34336 2.98496l0.48128 0.37888c1.17248 0.8704 2.4064 1.664 3.71712 2.37056 0.22016 0.11776 0.44544 0.22528 0.67072 0.33792 1.18272 0.60416 2.41152 1.14688 3.69664 1.60256 0.18432 0.06656 0.3584 0.14848 0.5376 0.20992l0.16896 0.06656a30.35648 30.35648 0 0 0 5.0432 1.15712c1.45408 0.21504 2.90304 0.34816 4.34176 0.3584l0.15872 0.01024c0.10752 0 0.21504-0.0256 0.32256-0.03072a30.0544 30.0544 0 0 0 5.26848-0.4864h0.02048l121.68704-22.51264a30.72 30.72 0 0 0-11.18208-60.416L114.6112 328.0384c71.09632-151.42912 223.47264-249.93792 394.24512-249.93792 240.21504 0 435.64544 195.42528 435.64544 435.64032 0 31.82592-3.44576 63.56992-10.24 94.3616a431.93344 431.93344 0 0 1-17.36192 58.58816 30.73024 30.73024 0 0 0 28.75904 41.5232 30.73536 30.73536 0 0 0 28.76928-19.9424 494.5408 494.5408 0 0 0 19.82976-66.93376 500.1472 500.1472 0 0 0 11.67872-107.5968c0-274.08896-222.99136-497.08032-497.08544-497.08032-184.84736 0-350.7456 101.20704-436.56192 259.11808l-10.91072-40.17152A30.70464 30.70464 0 0 0 23.68 214.016a30.71488 30.71488 0 0 0-21.59104 37.69856l33.86368 124.68736a0.1536 0.1536 0 0 1 0.04608 0.0768zM455.23968 946.11968c-217.78432-26.72128-382.01856-212.59776-382.01856-432.37376a30.72 30.72 0 0 0-61.44 0c0 250.76736 187.42784 462.86336 435.97824 493.35296a30.72512 30.72512 0 0 0 7.48032-60.9792z" p-id="32606"></path></svg>
