<svg xmlns="http://www.w3.org/2000/svg" viewBox="0 0 1024 1024" version="1.1"><path d="M438.01 561.271c26.213 0 47.544-17.647 54.842-41.469h155.657v83.039h199.626V403.215H648.509v83.084H492.852c-7.298-23.822-28.629-41.469-54.842-41.469-32.156 0-58.223 26.067-58.223 58.221s26.068 58.22 58.223 58.22z m244.002-124.554h132.621v132.621H682.012V436.717z m-584.389 1.837H64.12v142.475h33.502V438.554zM64.12 108.949V364.83h33.502V142.452h54.105v734.634H97.623V654.752H64.12v255.837h896.234v-801.64H64.12zM185.231 367.16h82.211v125.858H185.88v-31.532h-0.649V367.16z m0 190.936h0.649V526.52h81.561v125.858H185.23v-94.282z m741.621 318.99h-95.088V749.481h-33.502v127.605h-66.445V749.481h-33.502v127.605h-66.467V749.481h-33.502v127.605h-66.467V749.481h-33.502v127.605H185.88v-29.113h-0.649v-96.611h0.649V685.88h115.064V333.657H185.88V268.22h-0.649v-96.655h0.649v-29.113h740.972v734.634z"></path></svg>