<svg t="1750814134670" class="icon" viewBox="0 0 1024 1024" version="1.1" xmlns="http://www.w3.org/2000/svg" p-id="78561" width="200" height="200"><path d="M359.897382 345.386844l-238.424213 30.586895c-9.534409 1.151808-17.02116-12.925843-17.021159-31.738703 0-18.620893 7.422761-35.130138 17.021159-37.049818l238.424213-45.816354c14.397597-2.687552 26.363601 14.077651 26.363601 37.7537 0.063989 23.740038-11.966003 44.472579-26.363601 46.26428M104.45201 512.015037c0-18.620893 7.422761-33.97833 17.021159-34.234287l120.683861-3.903348c11.902014-0.511915 21.500412 16.701213 21.500412 38.137635 0 21.372433-9.790366 38.64955-21.564401 38.137636l-120.683861-3.967338c-9.47042-0.127979-16.95717-15.613395-16.95717-34.170298M278.95089 747.111806l-157.477721-30.394928c-9.534409-1.91968-17.02116-18.428925-17.021159-37.113807 0-18.620893 7.422761-32.698543 17.021159-31.610725l157.477721 20.348605c12.541907 1.471754 22.972167 20.79653 22.972167 43.000824 0.063989 22.268284-10.430259 38.137636-22.972167 35.770031M927.866602 169.800145l-83.890001 30.842853v628.247161l83.890001 30.458917c37.241785 14.013661 69.81235-22.204295 69.81235-81.586385V251.514509c-0.191968-59.318101-32.570565-95.2801-69.81235-81.714364z m44.088643 567.90523c0 50.295607-21.628391 81.202449-46.328269 69.428415l-55.990657-25.851686V248.50701l55.990657-26.043654c24.891846-11.582067 46.328269 19.004829 46.328269 69.300436v445.941583z" p-id="78562"></path><path d="M422.670907 4.323758L76.616655 132.686338C48.205396 143.372555 26.385037 198.211403 26.385037 255.929772v512.106542c0 57.654379 21.948337 112.685196 50.231618 123.115455l345.990262 128.554548c54.262945 20.156636 101.551054-33.210458 101.551054-120.299925V124.687673C524.22196 37.406238 477.06183-15.768889 422.670907 4.323758z m55.414752 835.700543c0 73.843677-40.057315 119.084128-86.065637 102.062968L99.012917 833.241433c-23.995996-9.214462-42.48891-55.478742-42.488909-104.558552V295.091237c0-48.823853 18.492914-95.344089 42.488909-104.302595l293.007105-108.845836v-0.127979c46.008322-16.893181 86.065638 28.091312 86.065637 101.998979v656.210495zM718.685509 134.606018l-147.623365 54.262944v651.859221l147.687355 54.070977c41.017155 15.037491 76.723197-25.019825 76.723196-89.904997V224.638993c0-65.269108-35.770031-105.006477-76.787186-90.032975z m42.552899 619.672592c0 54.454913-24.827857 87.345424-53.495073 74.867506l-102.638872-44.920504V245.243555l102.766851-44.984493c28.539238-12.541907 53.367094 20.540572 53.367094 74.48357v479.535978z" p-id="78563"></path></svg>
