<svg viewBox="0 0 1024 1024" version="1.1" xmlns="http://www.w3.org/2000/svg" width="200" height="200"><path d="M499.2 691.2c6.4 6.4 12.8 6.4 25.6 0l153.6-83.2c19.2-6.4 12.8-32 0-44.8l-153.6-64c-6.4 0-12.8 0-19.2 0l-153.6 64c-19.2 6.4-19.2 32 0 44.8L499.2 691.2z"></path><path d="M499.2 755.2C499.2 755.2 505.6 755.2 499.2 755.2c6.4 0 6.4 0 6.4 0 0 0 6.4 0 6.4 0 0 0 0 0 0 0l166.4-89.6c6.4-6.4 12.8-12.8 6.4-25.6-6.4-6.4-12.8-12.8-25.6-6.4L512 723.2 358.4 633.6c-6.4-6.4-19.2 0-25.6 6.4-6.4 6.4 0 19.2 6.4 25.6L499.2 755.2z"></path><path d="M665.6 697.6 512 787.2l-153.6-83.2c-6.4-6.4-19.2 0-25.6 6.4-6.4 6.4 0 19.2 6.4 25.6l160 89.6c0 0 0 0 0 0 0 0 6.4 0 6.4 0 0 0 6.4 0 6.4 0 0 0 0 0 0 0l166.4-89.6c6.4-6.4 12.8-12.8 6.4-25.6C684.8 697.6 672 691.2 665.6 697.6z"></path><path d="M524.8 211.2c-6.4-6.4-19.2-6.4-25.6 0L409.6 294.4c-6.4 6.4-6.4 19.2 0 25.6 6.4 6.4 19.2 6.4 25.6 0l51.2-51.2 0 153.6C492.8 435.2 499.2 448 512 448s19.2-6.4 19.2-19.2L531.2 275.2l51.2 51.2c6.4 6.4 19.2 6.4 25.6 0 6.4-6.4 6.4-19.2 0-25.6L524.8 211.2z"></path><path d="M268.8 640 115.2 640l51.2-51.2c6.4-6.4 6.4-19.2 0-25.6-6.4-6.4-19.2-6.4-25.6 0l-83.2 83.2c0 0 0 0 0 6.4 0 0-6.4 6.4-6.4 12.8 0 6.4 0 12.8 6.4 12.8l83.2 83.2c6.4 6.4 19.2 6.4 25.6 0 6.4-6.4 6.4-19.2 0-25.6l-51.2-51.2 153.6 0c12.8 0 19.2-6.4 19.2-19.2C288 652.8 275.2 640 268.8 640z"></path><path d="M972.8 646.4l-83.2-83.2c-6.4-6.4-19.2-6.4-25.6 0-6.4 6.4-6.4 19.2 0 25.6l51.2 51.2-153.6 0c-12.8 0-19.2 6.4-19.2 19.2 0 12.8 6.4 19.2 19.2 19.2l153.6 0-51.2 51.2c-6.4 6.4-6.4 19.2 0 25.6 6.4 6.4 19.2 6.4 25.6 0l83.2-83.2c6.4-6.4 6.4-6.4 6.4-12.8S979.2 652.8 972.8 646.4z"></path></svg>