<svg xmlns="http://www.w3.org/2000/svg" viewBox="0 0 1028 1024" version="1.1"><path d="M512 512m-142.262172 0a142.262172 142.262172 0 1 0 284.524344 0 142.262172 142.262172 0 1 0-284.524344 0ZM769.558052 307.29588l-70.112359 55.370787c32.719101 40.988764 52.254682 92.883895 52.254682 149.333333 0 132.194757-107.505618 239.700375-239.700375 239.700375s-239.700375-107.505618-239.700375-239.700375 107.505618-239.700375 239.700375-239.700375c29.243446 0 57.168539 5.273408 83.05618 14.861424l31.400749-83.655431c-35.715356-13.303371-74.187266-20.494382-114.456929-20.494382-181.453184 0-329.108614 147.655431-329.108614 329.108614 0 181.453184 147.655431 329.108614 329.108614 329.108614s329.108614-147.655431 329.108614-329.108614c0-77.423221-26.726592-148.614232-71.550562-204.82397zM874.067416 149.932584C777.348315 53.213483 648.749064 0 512 0S246.651685 53.213483 149.932584 149.932584 0 375.250936 0 512c0 94.681648 25.52809 185.52809 73.468165 264.509363l76.70412-46.382022c-38.59176-63.7603-60.764045-138.307116-60.764045-218.127341 0-232.988764 189.602996-422.59176 422.59176-422.59176s422.59176 189.602996 422.59176 422.59176c0 232.988764-189.602996 422.59176-422.59176 422.59176-58.007491 0-113.258427-11.745318-163.595506-32.958801L314.007491 984.449438c61.842697 25.88764 128.838951 39.550562 197.992509 39.550562 136.749064 0 265.348315-53.213483 362.067416-149.932584 96.719101-96.719101 149.932584-225.318352 149.932584-362.067416 0-136.749064-53.213483-265.348315-149.932584-362.067416z" p-id="2190"></path></svg>