<svg xmlns="http://www.w3.org/2000/svg" viewBox="0 0 1024 1024" version="1.1"><path d="M839.850667 86.058667H183.466667c-46.506667-5.248-89.6 21.973333-98.133334 62.08v617.173333c8.405333 40.106667 51.626667 67.541333 98.133334 62.08h656.512c46.72 5.546667 90.197333-21.76 98.688-62.08V148.138667c-8.618667-40.32-52.053333-67.626667-98.816-62.08zM512 721.621333c-33.621333-0.298667-60.672-24.277333-60.373333-53.504 0.256-29.226667 27.861333-52.736 61.525333-52.48 33.621333 0.298667 60.672 24.192 60.288 53.418667-0.213333 29.354667-27.818667 52.864-61.44 52.565333z m194.986667-265.130666H316.288c-14.165333 6.101333-31.36 2.858667-41.301333-7.850667a26.325333 26.325333 0 0 1 0-36.693333c9.941333-10.666667 27.136-13.952 41.301333-7.808h390.656c14.250667-6.528 31.829333-3.456 42.069333 7.424a26.453333 26.453333 0 0 1 0 37.290666c-10.24 10.794667-27.733333 13.952-42.069333 7.424v0.213334z m0-158.805334H316.288c-14.165333 6.016-31.274667 2.773333-41.216-7.936a26.368 26.368 0 0 1 0-36.608c9.856-10.666667 26.965333-14.037333 41.216-7.893333h390.656c14.250667-6.4 31.744-3.285333 41.856 7.509333a26.538667 26.538667 0 0 1 0 37.205334c-10.112 10.794667-27.605333 13.952-41.813333 7.509333v0.213333zM193.792 933.546667c-14.848-3.242667-22.357333-11.904-22.613333-25.984-0.170667-14.08 7.338667-22.912 22.613333-26.453334h661.845333c15.018667 3.413333 22.528 12.245333 22.528 26.453334s-7.509333 23.04-22.528 26.453333l-661.845333-0.426667z"></path></svg>