<svg t="1750816848218" class="icon" viewBox="0 0 1024 1024" version="1.1" xmlns="http://www.w3.org/2000/svg" p-id="23246" width="200" height="200"><path d="M640 96a64 64 0 0 1 64 64h96a64 64 0 0 1 64 64v640a64 64 0 0 1-64 64h-576a64 64 0 0 1-64-64v-640a64 64 0 0 1 64-64H320a64 64 0 0 1 64-64h256z m-320 128H240a16 16 0 0 0-16 16v608c0 8.832 7.168 16 16 16h544a16 16 0 0 0 16-16v-608a16 16 0 0 0-16-16H704v48a16 16 0 0 1-16 16h-352A16 16 0 0 1 320 272V224zM592 576a16 16 0 0 1 16 16V640h80a16 16 0 0 1 16 16v32a16 16 0 0 1-16 16H608v48a16 16 0 0 1-16 16h-32a16 16 0 0 1-16-16V704H336a16 16 0 0 1-16-16v-32a16 16 0 0 1 16-16H544v-48A16 16 0 0 1 560 576h32z m-128-192a16 16 0 0 1 16 16V448h208a16 16 0 0 1 16 16v32a16 16 0 0 1-16 16H480v48a16 16 0 0 1-16 16h-32a16 16 0 0 1-16-16V512H336A16 16 0 0 1 320 496v-32A16 16 0 0 1 336 448H416v-48A16 16 0 0 1 432 384h32z m160-224h-224a16 16 0 0 0-15.552 12.352L384 176v48h256v-48a16 16 0 0 0-12.352-15.552L624 160z" p-id="23247"></path></svg>
