<svg viewBox="0 0 1024 1024" version="1.1" xmlns="http://www.w3.org/2000/svg" xmlns:xlink="http://www.w3.org/1999/xlink" width="200" height="200"><path d="M0 0h1023.488v228.992H0V0z m0 447.914667h202.666667V1024H0V447.914667z m274.005333 0h202.538667V1024h-202.24l-0.298667-576.085333z m273.877334 0h202.666666V1024h-202.24l-0.426666-576.085333z m273.877333 0H1024V1024h-201.813333l-0.426667-576.085333zM74.325333 241.066667h52.48V292.693333h-52.48V241.066667z m0 68.778666h52.48V361.386667h-52.48V309.845333z m0 66.944h52.48v51.541334h-52.48V376.746667z m274.901334-135.68h52.48v51.541334h-52.48V241.066667z m0 68.736h52.48V361.386667h-52.48V309.845333z m0 66.944h52.48v51.541334h-52.48V376.746667z m275.114666-135.68h52.48v51.541334h-52.48V241.066667z m0 68.224h52.48v51.541334h-52.48V309.333333z m0 66.901334h52.48v51.584h-52.48V376.234667zM898.986667 241.066667h52.821333V292.693333H898.986667V241.066667z m0 68.778666h52.821333V361.386667H898.986667V309.845333z m0 66.944h52.821333v51.541334H898.986667V376.746667z"></path><path d="M85.333333 426.666667h53.632v42.666666H85.333333v-42.666666z m280.704 0h53.589334v42.666666H366.08v-42.666666z m280.746667 0h53.632v42.666666h-53.504l-0.085333-42.666666z m280.618667 0H981.333333v42.666666h-53.930666v-42.666666z"></path></svg>