<svg viewBox="0 0 1024 1024" version="1.1" xmlns="http://www.w3.org/2000/svg" width="200" height="200"><path d="M390.363429 584.850286a87.552 87.552 0 0 1-30.939429-31.890286 93.988571 93.988571 0 0 1-11.922286-47.981714c0-23.844571 7.094857-45.421714 21.284572-64.512 14.189714-19.163429 36.425143-30.793143 66.852571-35.108572v-37.668571h41.106286v37.741714c45.933714 5.485714 75.702857 31.305143 89.307428 77.531429l-56.685714 23.04c-11.044571-31.670857-28.013714-47.542857-51.2-47.542857a37.595429 37.595429 0 0 0-27.940571 10.605714 35.474286 35.474286 0 0 0-10.605715 25.819428c0 10.24 3.364571 18.139429 10.166858 23.698286 6.802286 5.485714 21.284571 12.288 43.52 20.406857 24.356571 8.850286 43.593143 17.261714 57.417142 25.161143 3.364571 1.901714 6.509714 3.949714 9.581715 6.217143-17.188571 19.602286-31.597714 41.691429-42.642286 65.609143a26.112 26.112 0 0 0-5.632-6.070857c-7.314286-5.778286-23.552-13.092571-48.713143-21.942857a285.549714 285.549714 0 0 1-52.955428-23.113143z m82.212571 165.522285c0 16.457143 1.462857 32.548571 4.242286 48.201143v0.585143h-41.106286v-48.566857c-53.76-5.485714-87.04-36.571429-99.913143-93.184l63.561143-16.530286c5.851429 35.620571 25.380571 53.467429 58.514286 53.467429a62.390857 62.390857 0 0 0 21.138285-3.218286 272.822857 272.822857 0 0 0-6.436571 59.245714zM385.243429 85.065143l-9.289143 1.462857 23.332571 34.816h153.892572l23.698285-35.328-9.289143-1.462857a574.829714 574.829714 0 0 0-89.234285-8.045714h-1.828572a609.28 609.28 0 0 0-91.282285 8.557714zM293.888 74.605714L293.741714 70.802286C293.156571 68.022857 292.717714 66.340571 292.717714 64.731429c0-11.629714 5.778286-21.869714 14.774857-26.112l2.706286-2.340572C318.829714 34.230857 405.650286 14.774857 476.233143 14.482286h2.048c71.314286 0 150.820571 18.578286 163.913143 21.723428l0.658285 1.462857 2.048 1.024c8.923429 4.169143 14.628571 14.409143 14.628572 26.038858 0 1.609143-0.438857 3.364571-0.804572 5.12L658.285714 71.68l0.950857 4.315429-72.630857 107.373714H365.860571l-72.265142-107.812572 0.292571-0.950857z m168.594286 863.158857c13.677714 22.601143 30.208 43.227429 49.005714 61.659429a1382.4 1382.4 0 0 1-35.328 0.585143c-303.542857 0-438.930286-103.204571-438.930286-334.555429 0-183.076571 146.139429-382.537143 325.778286-444.562285l228.278857 0.292571c122.075429 42.422857 228.790857 149.357714 283.940572 271.286857a315.392 315.392 0 0 0-84.918858-27.867428 470.674286 470.674286 0 0 0-113.152-125.586286 391.68 391.68 0 0 0-96.914285-55.369143l-206.994286-0.438857-1.097143 0.438857a390.802286 390.802286 0 0 0-96.987428 55.369143 474.697143 474.697143 0 0 0-153.453715 207.945143c-14.628571 40.228571-22.016 80.091429-22.016 118.491428 0 48.932571 6.875429 90.770286 20.48 124.489143 12.946286 32.036571 32.036571 57.563429 58.368 78.262857 28.306286 22.162286 66.121143 39.277714 112.493715 50.761143 47.323429 11.776 105.033143 18.066286 171.446857 18.797714z" fill="#323333"></path><path d="M948.004571 971.264H567.222857a72.192 72.192 0 0 1-63.195428-36.644571 71.387429 71.387429 0 0 1 0.073142-72.630858l190.171429-329.801142c26.989714-45.933714 101.010286-45.129143 126.683429 0.292571l190.171428 329.508571a72.923429 72.923429 0 0 1-63.122286 109.275429z m0-73.142857v36.571428l0.292572-36.571428-190.829714-329.362286-190.025143 329.801143 380.562285-0.438857z" fill="#333333"></path><path d="M758.198857 827.757714m-28.598857 0a28.598857 28.598857 0 1 0 57.197714 0 28.598857 28.598857 0 1 0-57.197714 0Z" fill="#333333"></path><path d="M758.272 827.757714m-14.043429 0a14.043429 14.043429 0 1 0 28.086858 0 14.043429 14.043429 0 1 0-28.086858 0Z" fill="#333333"></path><path d="M758.125714 781.750857a26.843429 26.843429 0 0 1-26.843428-26.916571v-58.075429a26.843429 26.843429 0 0 1 53.613714 0v58.148572a26.038857 26.038857 0 0 1-7.606857 18.944 26.770286 26.770286 0 0 1-19.163429 7.899428z" fill="#333333"></path><path d="M758.125714 684.397714a12.361143 12.361143 0 0 0-12.288 12.361143v58.075429a12.361143 12.361143 0 0 0 21.065143 8.704 12.141714 12.141714 0 0 0 3.437714-8.557715v-58.221714a12.141714 12.141714 0 0 0-12.214857-12.361143z" fill="#333333"></path></svg>