<svg width="200px" height="200.00px" viewBox="0 0 1024 1024" version="1.1" xmlns="http://www.w3.org/2000/svg"><path d="M512 1024c-111.316293 0-474.536585-8.167024-474.536585-113.26439 0-34.691122 27.02361-77.499317 237.518048-101.126244a33.792 33.792 0 0 1 37.113757 30.245463 34.066732 34.066732 0 0 1-29.720976 37.738147c-88.888195 9.965268-138.040195 23.452098-162.166634 33.242536 48.452683 19.306146 182.147122 44.806244 391.79239 44.806244 209.52039 0 343.239805-25.500098 391.717463-44.781268-17.582829-7.242927-50.500683-17.283122-110.442146-26.474147a34.116683 34.116683 0 0 1-28.247415-38.912c2.747317-18.681756 19.730732-31.694049 38.262635-28.721951 128.449561 19.705756 183.246049 47.828293 183.246048 93.98322C986.536585 1015.857951 623.316293 1024 512 1024z m0-135.267902c-22.053463 0-63.138341 0-199.655024-213.766244-62.339122-97.604683-136.616585-234.645854-136.616586-333.124683C175.72839 153.350244 326.581073 0 512 0s336.27161 153.350244 336.27161 341.841171c0 98.478829-74.277463 235.52-136.616586 333.124683-136.516683 213.766244-177.601561 213.766244-199.655024 213.766244z m0-820.373854c-148.554927 0-269.012293 122.430439-269.012293 273.482927 0 150.977561 245.710049 478.532683 269.012293 478.532683 23.277268 0 269.012293-327.555122 269.012293-478.532683 0-151.052488-120.457366-273.482927-269.012293-273.482927z m-134.518634 296.260683c0-75.37639 60.366049-136.741463 134.518634-136.741464 74.152585 0 134.518634 61.365073 134.518634 136.741464 0 75.401366-60.366049 136.716488-134.518634 136.716488-74.152585 0-134.518634-61.340098-134.518634-136.716488z m201.777951 0c0-24.426146-12.837463-47.004098-33.642146-59.217171a66.310244 66.310244 0 0 0-67.259317 0 68.608 68.608 0 0 0-33.617171 59.217171c0 37.763122 30.120585 68.358244 67.259317 68.358244s67.259317-30.595122 67.259317-68.358244z" /></svg>