<svg viewBox="0 0 1024 1024" version="1.1" xmlns="http://www.w3.org/2000/svg" width="200" height="200"><path d="M0.4352 77.5424v748.17536h378.76736v64.1152h266.74432v-64.1152h378.01728V77.5424H0.4352z m944.64 667.71456H80.9472V158.70976h864.128v586.5472zM194.83392 890.19904h635.4816v54.56896H194.83392v-54.56896z m618.88-380.88192h-113.28256a197.33504 197.33504 0 0 0-10.0224-25.31072l82.21952-56.37632c8.58624-5.888 10.79552-17.73312 4.90496-26.3168l-46.76608-68.20608c-5.888-8.58624-17.73312-10.79552-26.3168-4.90752l-97.69984 66.9952c-0.08448 0.05632-0.1664 0.12032-0.24832 0.1792a197.248 197.248 0 0 0-35.01312-15.0016v-111.2448c0-10.41152-8.51968-18.9312-18.9312-18.9312H469.8624c-10.41152 0-18.9312 8.51968-18.9312 18.9312v111.24224a197.38112 197.38112 0 0 0-32.78336 13.80352l-96.21248-65.97632c-8.5888-5.888-20.43136-3.67872-26.3168 4.90752l-46.7712 68.20608c-5.888 8.58624-3.67872 20.4288 4.90752 26.3168l79.24992 54.34112a197.3504 197.3504 0 0 0-11.01568 27.3408H211.44064c-10.41152 0-18.9312 8.51968-18.9312 18.9312v82.7008c0 10.41152 8.51968 18.9312 18.9312 18.9312h110.54592l0.08192 0.25088h378.28608c0.0256-0.08704 0.05632-0.16896 0.08192-0.25088h113.28512c10.41152 0 18.9312-8.51968 18.9312-18.9312v-82.7008c0-10.4064-8.51968-18.92608-18.9312-18.92608h-0.00512z m-237.24032 52.352c0 35.88864-29.09184 64.98304-64.98048 64.98304-35.8912 0-64.98304-29.0944-64.98304-64.98304s29.0944-64.98304 64.98304-64.98304c28.48512 0 52.67456 18.33728 61.44768 43.84512a66.75456 66.75456 0 0 1 5.25568 14.94784h-2.0224c0.192 2.03776 0.29952 4.10112 0.29952 6.19008z"></path></svg>