<svg viewBox="0 0 1024 1024" version="1.1" xmlns="http://www.w3.org/2000/svg" width="200" height="200"><path d="M865.92 568.32l-121.2416-81.9712v-20.3264c0-165.632-131.9936-297.9328-188.7488-347.1104a66.304 66.304 0 0 0-87.552 0c-56.7808 49.2544-188.7744 181.4528-188.7744 347.136v20.224L158.3872 568.32A69.5296 69.5296 0 0 0 128 625.9968v67.9424c0 38.1696 30.3104 69.12 67.7376 69.1968h632.4992C865.664 763.0592 896 732.1088 896 693.9392v-67.9424a68.7104 68.7104 0 0 0-30.08-57.6512z m-586.4192 123.3408H197.9904v-64.4096l81.5104-55.1168v119.5008z m70.0928 0v-225.6384c0-134.2976 112.384-247.424 162.5088-291.2256 50.0736 43.7248 162.176 156.6208 162.4832 290.6368v226.0224l-324.992 0.2048z m476.4928 0h-81.5104v-119.552l81.5104 55.1424v64.384z m-312.7552-160.768c-55.6544 0.1024-100.8128-45.8752-100.864-102.656-0.0256-56.7552 45.056-102.784 100.6848-102.8096 55.6544-0.0256 100.7616 45.9776 100.7616 102.7584 0 56.6784-45.0048 102.656-100.5824 102.7328z m0-133.8624a30.8224 30.8224 0 0 0-30.5664 31.104c0 17.2032 13.6448 31.1808 30.5152 31.1808 16.8704 0 30.5408-13.9264 30.5408-31.1296 0-17.2032-13.6448-31.1296-30.4896-31.1552zM512.1024 972.8a33.1264 33.1264 0 0 1-32.768-33.4336V805.376a33.0752 33.0752 0 0 1 32.768-33.5872c18.1504 0 32.8448 15.0784 32.7424 33.5872v133.888a33.28 33.28 0 0 1-32.768 33.536z m-129.0496-53.0432a33.1264 33.1264 0 0 1-32.768-33.4336v-54.7328c-0.2048-18.6112 14.5408-33.792 32.768-33.792 18.2272 0 32.9472 15.1808 32.7424 33.792v54.7072a33.28 33.28 0 0 1-32.7424 33.4592z m258.048 0c-18.0992 0-32.768-15.0016-32.768-33.4336v-54.7328c0-18.432 14.6688-33.408 32.768-33.408 18.0736 0 32.7424 14.9504 32.7424 33.408v54.7072a33.1776 33.1776 0 0 1-32.7424 33.4592z" fill-opacity=".65"></path></svg>