<svg viewBox="0 0 1024 1024" version="1.1" xmlns="http://www.w3.org/2000/svg" width="200" height="200"><path d="M916.89054 679.040411l-63.615876 0L853.274664 510.627746c0-22.716374-18.575054-41.291428-41.292452-41.291428l-273.263687 0L538.718525 342.159824l71.357188 0c22.716374 0 41.292452-18.575054 41.292452-41.292452L651.368164 117.347638c-0.057305-22.660092-18.576077-41.235147-41.34771-41.235147L411.250388 76.112492c-22.771633 0-41.292452 18.575054-41.292452 41.292452l0 183.519734c0 22.716374 18.576077 41.291428 41.292452 41.291428l71.180156 0 0 127.121236L209.109552 469.337341c-22.716374 0-41.291428 18.575054-41.291428 41.291428l0 168.412664-63.615876 0c-22.716374 0-41.23617 18.519796-41.23617 41.292452l0 183.51871c0 22.716374 18.519796 41.291428 41.23617 41.291428L287.778262 945.144024c22.715351 0 41.235147-18.576077 41.235147-41.291428L329.013409 720.332862c0-22.716374-18.519796-41.292452-41.235147-41.292452l-63.6169 0L224.161363 525.678534l258.213923 0 0 153.361877-63.560618 0c-22.715351 0-41.292452 18.576077-41.292452 41.292452l0 183.51871c0 22.716374 18.576077 41.291428 41.292452 41.291428l183.519734 0c22.715351 0 41.292452-18.576077 41.292452-41.291428L643.626853 720.332862c0-22.716374-18.576077-41.292452-41.292452-41.292452l-63.615876 0L538.718525 525.678534l258.213923 0 0 153.361877-63.561641 0c-22.716374 0-41.291428 18.576077-41.291428 41.292452l0 183.51871c0 22.716374 18.575054 41.291428 41.291428 41.291428l183.519734 0c22.717398 0 41.292452-18.576077 41.292452-41.291428L958.182992 720.332862C958.181969 697.560206 939.606915 679.040411 916.89054 679.040411L916.89054 679.040411zM426.301176 285.817608l0-153.3629 168.666444 0 0 153.3629L426.301176 285.817608 426.301176 285.817608zM433.865455 888.744503 433.865455 735.38365l153.361877 0L587.227332 888.744503 433.865455 888.744503 433.865455 888.744503zM901.839753 735.38365 901.839753 888.744503l-153.3629 0L748.476853 735.38365 901.839753 735.38365 901.839753 735.38365zM119.253034 888.744503 119.253034 735.38365l153.418158 0L272.671193 888.744503 119.253034 888.744503 119.253034 888.744503z"></path></svg>