<svg t="1774509630060" class="icon" viewBox="0 0 1024 1024" version="1.1" xmlns="http://www.w3.org/2000/svg" p-id="9850" width="32" height="32"><path d="M848.38 225.06c-21.61-77.78-92.89-135.1-177.48-135.1H210.33C108.69 89.96 26 172.65 26 274.29v337.28c0 94.1 70.88 171.8 162.02 182.87 21.77 78.35 93.12 134.22 177.39 134.22h448.07C915.22 928.66 998 846 998 744.38V405.92c0-88.98-64.85-164.47-149.62-180.86zM99.42 611.57V274.29c0-61.16 49.76-110.91 110.91-110.91H670.9c61.18 0 110.94 49.76 110.94 110.91v337.28c0 61.18-49.76 110.94-110.94 110.94H210.33c-61.16-0.01-110.91-49.76-110.91-110.94z m825.16 132.8c0 61.13-49.85 110.87-111.1 110.87H365.41c-42.65 0-79.76-23.77-98.28-59.32H670.9c101.66 0 184.35-82.69 184.35-184.35V303.44c40.44 16.61 69.33 56.45 69.33 102.48v338.45z" p-id="9851"></path></svg>
