<svg viewBox="0 0 1024 1024" version="1.1" xmlns="http://www.w3.org/2000/svg" xmlns:xlink="http://www.w3.org/1999/xlink" width="200" height="200"><path d="M870.4 659.2c-19.2 0-38.4 6.4-57.6 12.8L620.8 320c32-32 57.6-70.4 57.6-121.6 0-89.6-70.4-160-160-160S358.4 115.2 358.4 198.4c0 38.4 12.8 76.8 38.4 108.8l-198.4 358.4c-12.8 0-25.6-6.4-38.4-6.4-89.6 0-160 70.4-160 160s70.4 160 160 160c76.8 0 140.8-57.6 153.6-134.4l396.8 0c12.8 76.8 76.8 134.4 153.6 134.4 89.6 0 160-70.4 160-160S960 659.2 870.4 659.2L870.4 659.2zM454.4 345.6c19.2 12.8 44.8 12.8 64 12.8 12.8 0 32 0 44.8-6.4l198.4 352c-19.2 19.2-32 44.8-38.4 76.8L320 780.8c-6.4-38.4-32-70.4-57.6-89.6L454.4 345.6 454.4 345.6z"></path></svg>