<svg viewBox="0 0 1024 1024" version="1.1" xmlns="http://www.w3.org/2000/svg" xmlns:xlink="http://www.w3.org/1999/xlink" width="200" height="200"><path d="M480.853333 664.746667H68.693333A503.893333 503.893333 0 0 1 45.653333 512c0-53.333333 7.68-104.533333 23.04-152.746667h676.693334A152.32 152.32 0 0 1 898.133333 512a151.893333 151.893333 0 0 1-151.466666 152.746667z m-19.2 51.2H87.466667a503.466667 503.466667 0 0 0 187.306666 221.013333A503.466667 503.466667 0 0 0 554.666667 1021.013333c177.066667 0 331.946667-90.453333 423.68-226.133333a259.413333 259.413333 0 0 0-185.6-79.36z m331.093334-407.466667c72.533333 0 138.666667-30.72 185.6-78.933333A510.293333 510.293333 0 0 0 87.466667 308.48h372.906666z"></path></svg>