<svg viewBox="0 0 1024 1024" version="1.1" xmlns="http://www.w3.org/2000/svg" width="200" height="200"><path d="M716.8 613.888c-50.176 0-91.136 40.96-91.136 91.136s40.96 91.136 91.136 91.136 91.136-40.96 91.136-91.136-40.96-91.136-91.136-91.136z m3.584 139.776c-25.088 0-45.568-20.48-45.568-45.568s20.48-45.568 45.568-45.568 45.568 20.48 45.568 45.568c-0.512 25.088-20.48 45.568-45.568 45.568z m246.272-93.696c-3.584-18.432-15.36-29.696-30.208-29.696h-2.048c-28.672 0-52.224-23.04-52.224-51.712 0-7.168 3.072-16.896 4.608-19.968 7.168-16.896 1.024-36.864-14.336-46.592l-61.44-33.28c-15.36-6.144-32.768-2.56-44.544 8.704-7.68 7.68-27.648 24.064-41.984 24.064s-34.304-16.384-41.984-24.064c-11.264-11.264-29.184-15.36-44.544-9.216l-1.024 0.512-62.464 33.792-1.536 1.024c-14.848 9.728-19.968 29.184-13.312 45.568 0.512 1.024 4.608 10.752 4.608 19.968 0 28.672-23.552 51.712-52.224 51.712h-2.56c-14.848 0-26.624 11.264-29.696 29.696-3.072 15.872-4.608 31.744-5.12 48.128 0 20.48 4.608 45.568 5.12 48.128 3.584 18.432 15.36 29.696 30.208 29.696h2.048c28.672 0 52.224 23.552 52.224 51.712 0 7.168-3.072 16.896-4.608 19.968-7.168 16.896-1.024 36.864 14.336 46.592l59.904 32.768c15.872 6.144 33.28 2.56 45.056-9.216 7.168-7.68 28.16-25.6 43.008-25.6s34.816 17.408 43.008 26.112c11.776 12.8 30.72 16.384 46.592 8.704l60.928-33.28 1.536-1.024c14.848-9.728 19.968-29.184 13.312-45.568-2.56-6.144-4.096-13.312-4.608-19.968 0-28.672 23.552-51.712 52.224-51.712h2.56c14.848 0 26.624-11.264 29.696-29.696 0-0.512 5.12-26.624 5.12-48.128-0.512-19.968-5.12-45.056-5.632-48.128z m-46.08 79.872c-49.664 6.144-86.528 48.64-86.528 98.304 0 11.264 3.072 22.528 5.12 29.696l-43.52 24.064c-5.632-5.632-11.264-10.24-17.92-15.872-19.456-14.336-37.888-21.504-55.296-21.504-17.408 0-35.84 7.168-54.784 20.992-6.144 4.608-11.776 9.216-17.92 15.36l-41.984-23.552c2.56-7.168 5.12-18.944 5.12-30.208 0-50.176-37.376-92.16-86.528-98.816-1.536-10.24-2.56-20.992-3.072-31.744 0-10.24 1.536-23.552 3.072-31.744 49.664-6.144 86.528-48.64 86.528-98.816 0-11.264-2.56-22.528-5.12-29.696l45.056-24.576c3.584 3.584 9.728 9.216 17.92 14.848 18.944 13.824 37.376 20.48 54.272 20.48s34.816-6.656 53.76-19.968c7.68-5.12 14.336-10.752 17.92-14.336l43.008 24.064c-3.072 9.728-5.12 19.968-5.12 30.208 0 50.176 37.888 92.16 86.528 98.304 1.024 8.192 3.072 21.504 3.072 31.744-1.024 11.776-2.56 24.576-3.584 32.768z"></path><path d="M467.456 919.552H161.792c-59.392 1.536-109.056-40.448-110.592-93.696V176.128c1.536-53.248 51.2-95.232 110.592-93.696h535.552c58.88-0.512 107.52 40.96 109.056 93.696V419.84c-4.608 18.432-25.088 29.696-45.056 25.6-14.336-3.072-25.088-12.8-28.672-25.6V176.128c-1.536-17.408-17.92-31.232-37.888-31.232H161.792c-19.968 0-36.352 13.312-37.888 31.232v649.216c1.536 17.92 17.92 31.744 37.888 31.744h305.152c18.944 0 34.816 13.824 34.816 31.232 0 16.896-15.36 31.232-34.304 31.232z"></path><path d="M590.336 288.768H267.264c-17.92 0-32.256-13.824-32.256-31.232s14.336-31.232 32.256-31.232h323.072c17.92 0 32.256 13.824 32.256 31.232s-14.336 31.232-32.256 31.232zM590.336 459.264H267.264c-17.92 0-32.256-13.824-32.256-31.232 0-17.408 14.336-31.232 32.256-31.232h323.072c17.92 0 32.256 13.824 32.256 31.232 0 17.408-14.336 31.232-32.256 31.232zM475.648 629.76H257.024c-11.776 0-22.016-13.824-22.016-31.232s9.728-31.232 22.016-31.232H476.16c11.776 0 22.016 13.824 22.016 31.232s-10.24 31.232-22.528 31.232z"></path></svg>