<svg t="1626685498377" class="icon" viewBox="0 0 1024 1024" version="1.1" xmlns="http://www.w3.org/2000/svg" p-id="10072" width="200" height="200"><path d="M963.530652 124.231111c-4.094511-12.795348-12.795348-25.590697-29.685208-34.291533C806.403775 25.962836 657.465921-3.722372 508.528068 0.37214 363.684726-3.722372 214.746872 25.962836 83.210692 89.939578c-12.795348 4.094511-25.590697 16.88986-25.590697 34.291533-38.386045 238.505291-16.88986 429.923701 59.370416 574.255229 84.961112 140.237017 212.914595 250.788826 370.041472 318.860079 12.795348 8.700837 34.291533 8.700837 46.575067 0 157.63869-68.071253 285.080359-178.623062 370.041472-318.860079 81.378415-144.843342 102.362786-336.261752 59.88223-574.255229zM512.622579 953.881492C223.447709 813.644475 57.108181 613.525228 125.179434 128.325622 248.526591 81.750555 380.574585 60.25437 512.622579 64.348881c132.047994-4.094511 263.584174 21.496185 386.931331 68.071253 4.094511 42.480556 12.795348 84.961112 12.795349 123.347157h-59.370416c-16.88986 0-34.291533 4.094511-51.181393 8.700837-12.795348 4.094511-29.685208 12.795348-38.386045 25.590696l-144.843342 306.576544-12.283535-340.356263H533.60695l-148.937853 301.970219-46.575068-301.970219H248.526591l51.181393 442.719049h72.165764l148.937854-246.694314 34.291533 246.694314H652.859596s170.434039-370.041471 182.717573-378.742308c29.685208-16.88986 84.961112-8.700837 84.961112-8.700837s30.197022 484.687792-407.915702 642.326483z" p-id="10073"></path></svg>
