<svg t="1750815887632" class="icon" viewBox="0 0 1024 1024" version="1.1" xmlns="http://www.w3.org/2000/svg" p-id="12398" width="200" height="200"><path d="M512 327.68h-245.76c-12.288 0-20.48 8.192-20.48 20.48s8.192 20.48 20.48 20.48h245.76c12.288 0 20.48-8.192 20.48-20.48s-8.192-20.48-20.48-20.48zM512 491.52h-245.76c-12.288 0-20.48 8.192-20.48 20.48s8.192 20.48 20.48 20.48h245.76c12.288 0 20.48-8.192 20.48-20.48s-8.192-20.48-20.48-20.48zM389.12 655.36h-122.88c-12.288 0-20.48 8.192-20.48 20.48s8.192 20.48 20.48 20.48h122.88c12.288 0 20.48-8.192 20.48-20.48s-8.192-20.48-20.48-20.48zM929.792 573.44l-106.496-61.44c-4.096-4.096-8.192-4.096-8.192-4.096-8.192 0-16.384 4.096-20.48 12.288L622.592 819.2l24.576 90.112c4.096 8.192 12.288 16.384 20.48 16.384h4.096l90.112-24.576 172.032-303.104c8.192-8.192 4.096-20.48-4.096-24.576zM737.28 868.352l-57.344 16.384-16.384-57.344 110.592-196.608 69.632 40.96-106.496 196.608z m131.072-233.472l-73.728-40.96 20.48-36.864 69.632 40.96-16.384 36.864z" p-id="12399"></path><path d="M884.736 356.352l-237.568-184.32c-8.192-4.096-16.384-8.192-24.576-8.192H163.84c-24.576 0-40.96 16.384-40.96 40.96v614.4c0 24.576 16.384 40.96 40.96 40.96h413.696v-40.96H163.84V204.8h450.56v167.936c0 20.48 16.384 36.864 36.864 36.864H860.16v102.4h40.96v-122.88c0-12.288-4.096-24.576-16.384-32.768zM655.36 229.376L835.584 368.64H655.36V229.376z" p-id="12400"></path></svg>
