<svg t="1750819936962" class="icon" viewBox="0 0 1024 1024" version="1.1" xmlns="http://www.w3.org/2000/svg" p-id="76037" width="200" height="200"><path d="M688.213333 228.181333a49.066667 49.066667 0 0 1 91.52-1.92l1.92 5.546667 160 579.925333-69.973333 19.328L731.306667 322.133333l-173.184 478.378667a49.066667 49.066667 0 0 1-24.405334 27.306667l-4.992 2.133333a49.066667 49.066667 0 0 1-60.757333-24.533333l-2.133333-4.906667L292.693333 322.133333l-140.373333 508.928-69.888-19.328L242.346667 231.850667a49.066667 49.066667 0 0 1 91.050666-9.088l2.346667 5.418666L512 714.837333l176.213333-486.656z" p-id="76038"></path><path d="M288 202.666667m-85.333333 0a85.333333 85.333333 0 1 0 170.666666 0 85.333333 85.333333 0 1 0-170.666666 0Z" p-id="76039"></path><path d="M736 202.666667m-85.333333 0a85.333333 85.333333 0 1 0 170.666666 0 85.333333 85.333333 0 1 0-170.666666 0Z" p-id="76040"></path><path d="M906.666667 821.333333m-85.333334 0a85.333333 85.333333 0 1 0 170.666667 0 85.333333 85.333333 0 1 0-170.666667 0Z" p-id="76041"></path><path d="M512 821.333333m-85.333333 0a85.333333 85.333333 0 1 0 170.666666 0 85.333333 85.333333 0 1 0-170.666666 0Z" p-id="76042"></path><path d="M117.333333 821.333333m-85.333333 0a85.333333 85.333333 0 1 0 170.666667 0 85.333333 85.333333 0 1 0-170.666667 0Z" p-id="76043"></path><path d="M307.626667 183.125333l618.666666 618.666667-39.253333 39.253333-618.666667-618.666666z" p-id="76044"></path><path d="M716.373333 183.125333l39.253334 39.253334-618.666667 618.666666-39.253333-39.253333z" p-id="76045"></path></svg>
