<?xml version="1.0" standalone="no"?><!DOCTYPE svg PUBLIC "-//W3C//DTD SVG 1.1//EN" "http://www.w3.org/Graphics/SVG/1.1/DTD/svg11.dtd"><svg t="1618539370819" class="icon" viewBox="0 0 1194 1024" version="1.1" xmlns="http://www.w3.org/2000/svg" p-id="2623" xmlns:xlink="http://www.w3.org/1999/xlink" width="256.5234375" height="220"><defs><style type="text/css"></style></defs><path d="M445.610667 74.666667c2.645333 0 5.290667 1.109333 7.338666 2.901333L609.28 227.157333h478.634667a42.666667 42.666667 0 0 1 42.666666 42.666667v636.842667a42.666667 42.666667 0 0 1-42.666666 42.666666H106.666667a42.666667 42.666667 0 0 1-42.666667-42.666666v-789.333334a42.666667 42.666667 0 0 1 42.666667-42.666666zM411.306667 170.666667H160v682.666666h874.666667V323.157333H570.794667L411.306667 170.666667zM588.8 421.888a93.866667 93.866667 0 0 1 53.674667 170.922667v121.173333a25.6 25.6 0 0 1-25.6 25.6h-55.466667a25.6 25.6 0 0 1-25.6-25.6V593.237333a93.781333 93.781333 0 0 1 53.077333-171.264z" p-id="2624"></path></svg>