<svg viewBox="0 0 1024 1024" version="1.1" xmlns="http://www.w3.org/2000/svg" xmlns:xlink="http://www.w3.org/1999/xlink" width="200" height="200"><path d="M545.9 756.9c0 13.5-10.9 24.4-24.4 24.4H263c-13.5 0-24.4-10.9-24.4-24.4 0-13.5 10.9-24.4 24.4-24.4h258.5c13.5 0 24.4 10.9 24.4 24.4z m256.8-514.2H221.3c-32.7 0-59.3 26.6-59.3 59.3v292.5c0 32.7 26.6 59.3 59.3 59.3h208.3c13.5 0 24.4-10.9 24.4-24.4 0-13.5-10.9-24.4-24.4-24.4H221.3c-5.8 0-10.5-4.7-10.5-10.5V302c0-5.8 4.7-10.5 10.5-10.5h581.4c5.8 0 10.5 4.7 10.5 10.5v131.5c0 13.5 10.9 24.4 24.4 24.4 13.5 0 24.4-10.9 24.4-24.4V302c0-32.7-26.6-59.3-59.3-59.3z m40.2 354c0 95.3-77.6 172.9-172.9 172.9S497.1 692 497.1 596.7 574.6 423.9 670 423.9s172.9 77.5 172.9 172.8zM670 720.8c29 0 55.7-10 76.9-26.8L572.7 519.9c-16.8 21.2-26.8 47.9-26.8 76.9 0 68.3 55.7 124 124.1 124z m124-124.1c0-68.4-55.6-124.1-124.1-124.1-21.7 0-42.1 5.6-59.9 15.5l168.5 168.5c9.9-17.7 15.5-38.2 15.5-59.9z"></path></svg>