<svg viewBox="0 0 1024 1024" version="1.1" xmlns="http://www.w3.org/2000/svg" xmlns:xlink="http://www.w3.org/1999/xlink" width="200" height="200"><path d="M183.338667 221.184h72.362666a36.48 36.48 0 1 0 0-72.96H183.338667a36.48 36.48 0 1 0 0 72.96z m0 145.237333h72.362666a36.48 36.48 0 1 0 0-72.96H183.338667a36.48 36.48 0 1 0 0 72.96z m0 145.578667h72.362666a36.48 36.48 0 1 0 0-72.96H183.338667a36.48 36.48 0 1 0 0 72.96z"></path><path d="M365.482667 0.938667H73.984a72.96 72.96 0 0 0-72.96 72.96v876.202666c0 40.32 32.682667 72.96 72.96 72.96h291.498667a72.96 72.96 0 0 0 72.96-72.96V73.898667a72.96 72.96 0 0 0-72.96-72.96z m0 912.64a36.48 36.48 0 0 1-36.48 36.522666H110.506667a36.48 36.48 0 0 1-36.522667-36.48V110.378667c0-20.138667 16.341333-36.48 36.522667-36.48h218.453333c20.181333 0 36.522667 16.341333 36.522667 36.48v803.242666z"></path><path d="M146.816 731.392a72.832 72.832 0 1 0 145.706667 0 72.832 72.832 0 0 0-145.706667 0z"></path><path d="M765.653333 221.184h72.362667a36.48 36.48 0 0 0 0-72.96h-72.362667a36.48 36.48 0 0 0 0 72.96z m0 145.237333h72.362667a36.48 36.48 0 0 0 0-72.96h-72.362667a36.48 36.48 0 0 0 0 72.96z m0 145.578667h72.362667a36.48 36.48 0 0 0 0-72.96h-72.362667a36.48 36.48 0 1 0 0 72.96z"></path><path d="M947.712 0.938667h-291.456a72.96 72.96 0 0 0-72.96 72.96v876.202666c0 40.32 32.64 72.96 72.96 72.96h291.456a72.96 72.96 0 0 0 72.96-72.96V73.898667a72.96 72.96 0 0 0-72.96-72.96z m0 912.64a36.48 36.48 0 0 1-36.48 36.522666h-218.496a36.48 36.48 0 0 1-36.48-36.48V110.378667c0-20.138667 16.298667-36.48 36.48-36.48h218.453333c20.181333 0 36.522667 16.341333 36.522667 36.48v803.242666z"></path><path d="M729.088 731.392a72.832 72.832 0 1 0 145.664 0 72.832 72.832 0 0 0-145.664 0z"></path></svg>