<svg viewBox="0 0 1024 1024" version="1.1" xmlns="http://www.w3.org/2000/svg" width="200" height="200"><path d="M334.547666 564.97669a52.774796 52.774796 0 0 1-34.569536 9.818567 51.138368 51.138368 0 0 1-34.364984-10.841334 56.456758 56.456758 0 0 1-16.977938-34.16043l-46.229085 4.500176A89.798974 89.798974 0 0 0 230.839056 593.205069a102.276736 102.276736 0 0 0 68.525413 20.455347 133.573417 133.573417 0 0 0 51.342922-8.591245 67.502646 67.502646 0 0 0 31.705788-26.182845 74.048357 74.048357 0 0 0 1.840981-75.480231 66.275325 66.275325 0 0 0-25.978291-23.932756 229.918103 229.918103 0 0 0-51.342921-16.977938 124.573065 124.573065 0 0 1-43.774443-15.750618 18.000706 18.000706 0 0 1-7.159372-14.318743 17.182492 17.182492 0 0 1 7.568479-14.72785 54.411224 54.411224 0 0 1 32.524002-8.591246 48.070066 48.070066 0 0 1 30.06936 7.977586 40.910694 40.910694 0 0 1 13.091422 26.182844l47.456406-2.045535a68.525413 68.525413 0 0 0-23.52365-51.956581 99.412987 99.412987 0 0 0-66.684431-19.43258 117.618246 117.618246 0 0 0-46.433639 8.182139 63.820683 63.820683 0 0 0-29.4557 23.932756 61.366042 61.366042 0 0 0-10.227673 33.751323A61.366042 61.366042 0 0 0 232.27093 484.178069a129.073241 129.073241 0 0 0 53.59301 23.319095q29.660253 7.363925 38.046946 10.227674a39.274267 39.274267 0 0 1 17.182491 10.227674 20.455347 20.455347 0 0 1 4.909284 14.114189 28.84204 28.84204 0 0 1-11.454995 22.909989zM553.828989 564.97669a52.774796 52.774796 0 0 1-34.569537 9.818567 51.138368 51.138368 0 0 1-34.364984-10.841334 56.456758 56.456758 0 0 1-16.977938-34.16043l-46.229084 4.500176A89.798974 89.798974 0 0 0 450.120378 593.205069 102.276736 102.276736 0 0 0 518.645791 613.660416a133.573417 133.573417 0 0 0 51.342922-8.591245 67.502646 67.502646 0 0 0 31.705788-26.182845 74.048357 74.048357 0 0 0 1.840981-75.480231 66.275325 66.275325 0 0 0-25.978291-23.932756 229.918103 229.918103 0 0 0-51.342921-16.977938 124.573065 124.573065 0 0 1-43.774443-15.750618 18.000706 18.000706 0 0 1-7.159372-14.318743 17.182492 17.182492 0 0 1 7.568479-14.72785 54.411224 54.411224 0 0 1 32.524002-8.591246 48.070066 48.070066 0 0 1 30.06936 7.977586 40.910694 40.910694 0 0 1 14.11419 27.410165l47.456405-2.045535a68.525413 68.525413 0 0 0-23.523649-51.956582 99.412987 99.412987 0 0 0-66.684432-19.43258 117.8228 117.8228 0 0 0-46.433638 8.182139 63.820683 63.820683 0 0 0-29.4557 23.932757 61.366042 61.366042 0 0 0-10.227674 33.751323 61.366042 61.366042 0 0 0 21.682668 47.456405 129.073241 129.073241 0 0 0 53.59301 23.319096q29.660253 7.363925 38.046946 10.227673a39.274267 39.274267 0 0 1 17.182492 10.227674 20.455347 20.455347 0 0 1 4.909283 14.11419 28.84204 28.84204 0 0 1-12.273208 22.705435zM654.264743 376.992049v233.600065h165.892866v-39.683373h-118.231907v-193.916692h-47.660959zM511.077313 143.187431a71.593715 71.593715 0 1 0-71.593715-71.593716 71.593715 71.593715 0 0 0 71.593715 71.593716z m0-102.276737a30.683021 30.683021 0 1 1-30.683021 30.683021 30.683021 30.683021 0 0 1 30.683021-30.683021z"></path><path d="M893.183199 126.209492l-265.919514-92.253616-13.500529 38.660607 265.919514 92.253616a21.682668 21.682668 0 0 1 12.477761 17.591598v437.744431a106.776912 106.776912 0 0 1-10.841334 42.138015A892.057692 892.057692 0 0 1 745.904699 838.669236a665.821552 665.821552 0 0 1-215.190253 141.141896 89.185314 89.185314 0 0 1-40.910694 1.636427s-96.140132-28.023826-213.962932-145.846625A913.331253 913.331253 0 0 1 140.221868 660.707715a106.572359 106.572359 0 0 1-11.045888-40.910694V184.098125a21.682668 21.682668 0 0 1 12.477762-17.591599l267.965049-93.68549L395.913708 34.16043 129.994194 127.027706A61.366042 61.366042 0 0 0 89.0835 184.098125v434.676128a144.619305 144.619305 0 0 0 16.159724 61.366042 937.059456 937.059456 0 0 0 143.187431 184.098125c126.209492 126.209492 227.668015 155.256085 231.963637 156.483406a108.617894 108.617894 0 0 0 27.410165 3.272856 115.368158 115.368158 0 0 0 37.637839-5.932051 695.481805 695.481805 0 0 0 230.122656-150.960463 916.808662 916.808662 0 0 0 143.187431-184.098124 144.823858 144.823858 0 0 0 16.159724-61.366042V182.461697a61.366042 61.366042 0 0 0-41.728908-56.252205z"></path></svg>