<svg viewBox="0 0 1024 1024" version="1.1" xmlns="http://www.w3.org/2000/svg" width="200" height="200"><path d="M962.392754 274.121912c7.551685 15.1887 3.75451 34.089246-11.391526 41.683596l-98.470563 56.829632-30.292072-53.075122 94.716054-56.786967c7.551685-3.797175 15.103371-3.797175 22.697721-3.797175 11.34886 3.797175 18.943211 7.551685 22.740386 15.146036z m-901.466439 0c3.83984-7.59435 11.391525-11.34886 18.94321-15.146036 7.59435-3.797175 15.1887 0 22.740386 3.797175l94.716054 56.786967-30.292071 53.075122-94.716054-56.829632c-15.146036-7.59435-18.943211-26.494896-11.391525-41.683596z" opacity=".4"></path><path d="M250.358422 84.775134c7.551685-3.797175 15.103371-3.797175 22.697721-3.797175 7.551685 3.797175 15.146036 7.551685 18.94321 15.146036l56.786968 94.716053-52.989792 30.292071L238.924232 126.373401c-7.551685-15.146036-3.797175-34.089246 11.391525-41.640932l0.042665 0.042665z" opacity=".6"></path><path d="M511.680867 12.799467c18.900546 0 34.089246 15.146036 34.089246 30.292071v109.819424h-64.423982V43.091538c-3.797175-15.146036 11.391525-30.292071 30.334736-30.292071z"></path><path d="M769.206136 84.775134c15.146036 7.551685 18.943211 26.452231 11.348861 41.640932l-56.786967 94.716053-53.032457-30.292071 56.786967-94.716053c7.59435-7.59435 11.391525-11.34886 18.943211-15.146036 7.59435 0 18.943211 0 22.740385 3.797175z" opacity=".6"></path><path d="M542.271592 365.04079l-30.334736 189.346777 25.726928-0.042665-50.728553 245.109787-5.247781 8.703638 30.292071-189.389442H386.971396l155.300196-253.728095z"></path><path d="M512.363505 240.032665c145.444606 0 267.2102 97.787926 303.34736 229.281114h-208.460647c-25.172284 0-46.803383 17.663264-51.880505 42.280905l-70.823716 342.001749-286.580059 0.042665v-303.048706c0-170.403567 140.15416-310.557727 314.397567-310.557727z" opacity=".6"></path><path d="M484.545997 853.639098l-14.079413 68.135828H34.047435A33.918587 33.918587 0 0 1 0.000853 887.68568a33.918587 33.918587 0 0 1 34.089247-34.046582h450.455897z"></path><path d="M484.631327 853.297779l-14.122078 68.221158L34.132765 921.561602c-20.991125 0-32.297321-9.68493-33.918587-29.097455L0.000853 887.42969c0-22.740386 11.391525-34.131911 34.131912-34.131911h450.498562z"></path><path d="M967.640535 604.732136l55.67768 268.95946a35.411858 35.411858 0 0 1 0.639973 7.039707v125.776093c0 9.642265-7.67968 17.44994-17.321944 17.449939h-412.398817a17.36461 17.36461 0 0 1-17.321945-17.449939v-125.562769c0-2.389234 0.17066-4.735803 0.639973-7.039706l55.720345-269.21545a34.686555 34.686555 0 0 1 33.961252-27.732178h266.527561a34.55856 34.55856 0 0 1 33.918587 27.774843z m-288.670639 14.890046a6.911712 6.911712 0 0 0-6.826382 5.631766l-46.206075 238.496729a17.577934 17.577934 0 0 0 3.669181 14.420733 17.321945 17.321945 0 0 0 13.311445 6.399733h96.16666c0-34.217241 27.433524-61.864089 61.35211-61.864089 33.918587 0 61.35211 27.646848 61.35211 61.864089h96.123995a17.321945 17.321945 0 0 0 13.354111-6.399733 17.577934 17.577934 0 0 0 3.66918-14.420733l-46.16341-238.496729a6.911712 6.911712 0 0 0-6.869047-5.631766h-242.933878z"></path><path d="M868.700658 740.875797a23.380359 23.380359 0 0 1 23.721678 21.289779 23.252364 23.252364 0 0 1-19.881838 24.788301l-3.83984 0.341319h-136.527645a23.380359 23.380359 0 0 1-23.721678-21.28978 23.252364 23.252364 0 0 1 19.881838-24.7883l3.83984-0.341319h136.527645z m0-85.073789a23.465689 23.465689 0 0 1 23.465688 21.332445 23.252364 23.252364 0 0 1-19.625848 24.745635l-3.83984 0.341319h-136.527645a23.380359 23.380359 0 0 1-23.721678-21.289779 23.252364 23.252364 0 0 1 19.881838-24.788301l3.83984-0.341319h136.527645z"></path></svg>