<svg viewBox="0 0 1024 1024" version="1.1" xmlns="http://www.w3.org/2000/svg" xmlns:xlink="http://www.w3.org/1999/xlink" width="128" height="128"><path d="M658.26816 877.73184v63.32416c-0.1024 57.07776-25.86624 82.8416-82.944 82.944H82.944C25.84576 1023.93856 0.06144 998.15424 0 941.056V229.21216c0.06144-57.09824 25.84576-82.88256 82.944-82.944h282.78784V82.944C365.7728 25.84576 391.5776 0.04096 448.67584 0H941.056c57.09824 0.06144 82.88256 25.84576 82.944 82.944v711.84384c-0.12288 57.07776-25.86624 82.82112-82.944 82.944H658.26816zM52.67456 229.21216V941.056a30.3104 30.3104 0 0 0 30.26944 30.26944h492.38016a30.3104 30.3104 0 0 0 30.24896-30.26944V667.48416c-46.63296 18.08384-137.19552 27.29984-187.20768 27.17696v94.04416l-180.92032-128.16384L418.36544 532.48v109.568c50.74944 0.24576 141.824-11.44832 187.20768-34.14016V229.21216a30.3104 30.3104 0 0 0-30.24896-30.26944H82.944a30.3104 30.3104 0 0 0-30.26944 30.26944zM971.5712 82.944a30.3104 30.3104 0 0 0-30.26944-30.26944H448.67584a30.3104 30.3104 0 0 0-30.24896 30.26944v63.32416h156.93824c57.09824 0.08192 82.86208 25.86624 82.944 82.944v348.48768c51.77344-49.68448 103.15776-126.8736 124.12928-195.50208 5.69344-18.90304 22.07744-36.29056 41.1648-31.21152 19.06688 5.07904 20.76672 25.3952 16.30208 44.62592a499.26144 499.26144 0 0 1-181.59616 253.44v176.00512h282.80832a30.37184 30.37184 0 0 0 30.26944-30.26944V82.944h0.16384z"></path></svg>