<svg t="1782201900368" class="icon" viewBox="0 0 1024 1024" version="1.1" xmlns="http://www.w3.org/2000/svg" p-id="6987" width="32" height="32"><path d="M884.8896 443.2896h-21.504V114.176a31.9488 31.9488 0 1 0-64 0v329.1136h-244.48V114.176a31.9488 31.9488 0 1 0-64 0v329.1136H232.96V114.176a31.9488 31.9488 0 1 0-64 0v329.1136h-29.9008c-35.8912 0-65.2288 29.184-65.2288 65.2288v318.1056c0 35.84 29.184 65.1776 65.2288 65.1776h745.7792c35.8912 0 65.2288-29.184 65.2288-65.1776V508.5184a65.3312 65.3312 0 0 0-65.2288-65.2288z m1.1264 383.3344c0 0.5632-0.512 1.1776-1.2288 1.1776H139.1104a1.2288 1.2288 0 0 1-1.2288-1.1776V508.5184c0-0.6144 0.512-1.2288 1.2288-1.2288h745.7792c0.6144 0 1.2288 0.512 1.2288 1.2288v318.1056h-0.1024z" p-id="6988"></path><path d="M233.8816 709.5296a59.392 59.392 0 1 0 83.968-83.968 59.392 59.392 0 0 0-83.968 83.968zM417.792 709.4784a59.392 59.392 0 1 0 83.968-83.968 59.392 59.392 0 0 0-83.968 83.968z" p-id="6989"></path></svg>
