<svg viewBox="0 0 1024 1024" version="1.1" xmlns="http://www.w3.org/2000/svg" width="200" height="200"><path d="M860.16 163.84H163.84a40.96 40.96 0 0 0-40.96 40.96v450.56a40.96 40.96 0 0 0 40.96 40.96h327.68v122.88H389.12a20.48 20.48 0 0 0 0 40.96h245.76a20.48 20.48 0 0 0 0-40.96H532.48v-122.88h327.68a40.96 40.96 0 0 0 40.96-40.96V204.8a40.96 40.96 0 0 0-40.96-40.96z m0 40.96v204.8h-255.1808l-75.776-113.8688a22.1184 22.1184 0 0 0-34.4064 0l-149.9136 224.8704-64.3072-63.8976A19.2512 19.2512 0 0 0 266.24 450.56H163.84V204.8zM163.84 655.36v-163.84h93.7984l76.1856 75.776a19.2512 19.2512 0 0 0 14.336 6.144h2.048a22.528 22.528 0 0 0 15.1552-9.0112L512 344.064l64.7168 97.4848a20.8896 20.8896 0 0 0 17.2032 9.0112H860.16v204.8z"></path></svg>