<?xml version="1.0" standalone="no"?><!DOCTYPE svg PUBLIC "-//W3C//DTD SVG 1.1//EN" "http://www.w3.org/Graphics/SVG/1.1/DTD/svg11.dtd"><svg t="1629452063587" class="icon" viewBox="0 0 1024 1024" version="1.1" xmlns="http://www.w3.org/2000/svg" p-id="2706" xmlns:xlink="http://www.w3.org/1999/xlink" width="200" height="200"><defs><style type="text/css"></style></defs><path d="M954.9 533.7c4.8-92.3-18.9-182.3-68.5-260.5l-0.2-0.2-0.4-0.7c-0.4-0.5-0.7-1.1-1.1-1.7-38.3-59.5-90.7-109.4-151.6-144.5C678 94.4 615.8 74.7 552.3 68.6l-0.2-0.2-12.3-0.8h-0.7c-48.5-3.1-96.8 1.7-143.6 14.3l-12.1 3.3-0.2 0.4c-39.7 11.9-77.4 29.4-112.6 51.9-69.1 44.5-124.4 107-159.9 180.8v0.1C79 384.3 64 457.7 67.1 530.7H67c3.3 78.3 27.7 154.7 70.3 221 35.2 54.6 80.6 99.8 135 134.4 49.1 31.1 102.8 52 160 62.3l0.1 0.2 9.4 1.4c1 0.2 1.9 0.3 2.9 0.5h0.1c21.9 3.4 44.1 5 66.3 5 43.7 0 87.5-6.4 129.1-19.1l12.4-3.8 0.1-0.2c34.6-11.7 67.8-27.6 98.9-47.5 60.3-38.9 110.7-92.1 145.9-154.1 32.2-56.9 51.7-121 56.7-186.2l0.2-0.3 0.5-10.6z m-63.5-14c-40.7 47-89.3 85.6-144.8 114.9 6.5-71.3 2.6-142.4-11.7-212.7l0.4-0.2-0.1-0.4c0.8-0.4 1.5-0.8 2.3-1.3 41.4-21.5 79.7-47.7 114.2-78.3 27.6 55.3 41.2 116 39.7 178zM266.6 444c-3.6 65.1 1.4 129.6 14.9 192.8-57.5-29.7-108.8-70.3-150.8-119.5-0.7-45.9 7-91.7 22.4-134.8 35.2 24.5 73.1 45 113.1 61v0.4l0.4 0.1z m88.6 223.6c-18.9-66.1-27.4-134.2-25.4-203.1 48 12.9 97.1 19.5 146.9 19.5 7.5 0 15-0.1 22.3-0.6 60.4-2.4 119.3-14.3 175.7-35.5 13.1 71.5 14.4 144.1 3.8 216.5-104.2 36.8-217.8 37.9-323.3 3.2z m462.6-381.4c-29.9 27.7-63.1 51.6-99.1 71.5-22.8-76.1-57.7-147.3-104.1-212.5 30.3 8.6 59.5 20.8 86.6 36.4 46.1 26.6 85.3 61.7 116.6 104.6zM522.1 131c6.9 7.9 13.7 16 20.1 24.2 54.5 69.1 94.1 146.4 117.9 230-104 41-217.7 46-325.2 14.3 11.7-91.4 42.3-180.1 89.4-258.7 32-7.5 64.8-10.8 97.8-9.8z m-216.9 60.3c9.4-6 19-11.6 28.9-16.8-29.8 64-50.3 132.4-60.7 202.4-32.9-14.6-64.1-32.5-93.1-53.7 30.2-53.2 73-98.5 124.9-131.9zM191.1 717c-18.7-29.1-33.3-60.4-43.4-93.1 46.4 39 99 70.5 155.9 93 17.6 52.2 40.9 102 69.7 148.9-23.2-9-45.4-20.3-66.7-33.8-46.5-29.5-85.4-68.2-115.5-115z m275.6 171.9c-34.9-45.7-63.6-95-85.5-147.5 93.4 22.2 190.7 20.4 283-5.4-12.9 49.6-31.3 97.4-55.1 142.7-46.1 12.3-94.8 15.8-142.4 10.2zM716.9 831c-6.9 4.4-13.9 8.6-21 12.6 17.4-42.8 30.6-87.1 39.7-132.7 12.7-5.5 25.3-11.4 37.5-17.8 36.1-18.8 69.7-41 100.5-66.5-8 25.3-18.6 49.7-31.7 72.6-30.2 53-73.4 98.6-125 131.8z" p-id="2707"></path></svg>
