<svg viewBox="0 0 1131 1024" version="1.1" xmlns="http://www.w3.org/2000/svg" width="200" height="200"><path d="M57.923855 2.677205C64.808096 1.061012 71.91441 0.801928 78.959036 0.900627 370.515277 0.937639 662.083855 0.863614 953.640096 0.925301c29.436916 0.037012 57.442699 19.665735 67.793735 47.15335 7.316048 17.630072 4.478458 37.012048 5.033639 55.542747-16.445687 0.024675-32.903711 0.012337-49.33706 0.012337-0.135711-10.314024 0.209735-20.628048-0.160386-30.929735-0.764916-12.362024-12.213976-22.737735-24.576-22.441639-292.789976-0.012337-585.579952-0.024675-878.369928 0.012338-9.919229-0.148048-19.406651 6.37841-22.947469 15.606747-2.208386 5.292723-1.690217 11.140627-1.727229 16.741783 0.012337 199.482602-0.012337 398.965205 0 598.447807-0.468819 12.041253 9.080289 23.403952 21.047518 24.909109 7.340723 0.65388 14.730795 0.135711 22.096192 0.283759 0.074024 16.445687 0.024675 32.891373 0.037012 49.349397-6.98294-0.024675-13.978217 0.086361-20.961156-0.049349-18.160578-0.481157-35.963373-8.080964-48.96694-20.739085C9.166651 722.006361 1.122699 703.981494 0 685.487807V69.903422c1.036337-9.561446 3.244723-19.073542 7.624482-27.685012 9.672482-19.863133 28.684337-34.890024 50.299373-39.541205z"></path><path d="M160.249831 122.954024c10.881542-3.047325 22.244241-2.307084 33.397205-2.381108 287.892048 0.012337 575.796434 0 863.688482 0.012337 20.06053-0.111036 39.923663 8.451084 53.66747 23.058506 11.856193 12.312675 18.80212 28.832386 20.331952 45.783904v615.732433c-1.036337 16.174265-7.180337 32.027759-17.839807 44.291085-13.780819 16.248289-34.840675 25.97012-56.159615 25.834409-61.168578 0.012337-122.349494 0.024675-183.518072 0-23.823422 41.083373-47.486458 82.265446-71.285205 123.361157-9.697157 16.161928-28.573301 26.20453-47.400096 25.143518-17.519036-0.616867-34.273157-10.733494-43.069687-25.859084-23.638361-40.873639-47.178024-81.808964-70.865735-122.657928-154.093494 0.049349-308.174651 0.012337-462.255807 0.012337-20.492337 0.148048-40.787277-8.79653-54.555759-23.946795-12.633446-13.620434-19.739759-32.138795-19.517687-50.706506v-605.763855c0-8.525108 1.406458-17.074892 4.28106-25.106506 7.95759-22.76241 27.722024-40.910651 51.101301-46.807904m-6.020626 71.963759c-0.024675 201.937735-0.012337 403.863133-0.012338 605.800868-0.60453 13.361349 11.276337 25.562988 24.674699 25.217542 163.593253 0 327.186506 0.037012 490.779759-0.012338 28.400578 48.892916 56.529735 97.946217 84.893302 146.863808 1.122699 2.319422 4.823904 2.28241 5.921927-0.037012 28.375904-48.91759 56.468048-97.983229 84.905639-146.85147 70.618988 0.098699 141.237976 0.024675 211.869301 0.037012 13.435373 0.382458 25.36559-11.86853 24.724048-25.279229 0-201.900723 0.012337-403.813783-0.012337-605.714506 0.518169-13.312-11.387373-25.377928-24.711711-25.007807-292.802313-0.012337-585.604627-0.012337-878.40694 0-13.287325-0.320771-25.131181 11.708145-24.625349 24.983132z"></path><path d="M341.004337 425.021687c18.950169-1.640867 38.393831 3.220048 54.234988 13.756144 16.063229 10.536096 28.388241 26.636337 34.297832 44.920289 5.675181 17.420337 5.53947 36.666602-0.382458 54.000579-6.785542 20.134554-21.442313 37.443855-40.133398 47.52347-29.214843 16.322313-67.892434 12.966554-93.837879-8.179663-16.001542-12.65812-27.265542-31.188819-30.892723-51.286361-3.849253-20.517012 0.111036-42.428145 11.115952-60.193928 13.830169-22.873446 38.912-38.480193 65.597686-40.54053m3.54082 49.250699c-18.506024 1.505157-33.742651 19.22159-32.262169 37.764626 0.505831 18.863807 18.000193 35.05041 36.839325 34.174458 19.554699 0.024675 36.654265-18.234602 35.173783-37.776964-0.37012-20.011181-19.900145-36.814651-39.750939-34.16212zM611.118265 425.021687c18.654072-1.62853 37.801639 3.047325 53.519422 13.237976 16.445687 10.548434 29.103807 26.870747 35.087421 45.463132 5.551807 17.050217 5.53947 35.852337-0.024674 52.890217-5.53947 17.17359-16.766458 32.422554-31.423229 42.921639-14.15094 10.227663-31.50959 15.915181-48.979277 16.013879-19.665735 0.271422-39.33147-6.575807-54.568097-19.011855-15.680771-12.645783-26.698024-30.991422-30.263518-50.842217-3.713542-19.961831-0.074024-41.206747 10.264675-58.688771 13.645108-23.613687 39.171084-39.861976 66.387277-41.984m3.614843 49.250699c-18.506024 1.505157-33.742651 19.22159-32.274506 37.764626 0.518169 18.888482 18.06188 35.087422 36.925687 34.162121 19.579373 0 36.654265-18.345639 35.099759-37.900338-0.456482-19.961831-19.949494-36.666602-39.75094-34.026409zM881.232193 425.034024c18.382651-1.616193 37.246458 2.874602 52.840867 12.744482 16.791133 10.523759 29.745349 27.04347 35.827663 45.919614 5.551807 17.03788 5.564145 35.815325 0.012337 52.853205-6.711518 20.89947-21.886458 38.887325-41.305446 49.102651-29.116145 15.853494-67.324916 12.337349-93.035951-8.599133-16.01388-12.65812-27.290217-31.213494-30.905061-51.323373-3.972627-21.183229 0.407133-43.822265 12.201639-61.884145 13.978217-21.92347 38.430843-36.740627 64.363952-38.813301m3.799903 49.226024c-18.567711 1.44347-33.878361 19.22159-32.373204 37.826313 0.530506 18.863807 18.06188 35.038072 36.901012 34.112772 19.604048 0 36.67894-18.370313 35.112096-37.93735-0.493494-19.900145-19.887807-36.567904-39.639904-34.001735z"></path></svg>