<svg viewBox="0 0 1024 1024" version="1.1" xmlns="http://www.w3.org/2000/svg" xmlns:xlink="http://www.w3.org/1999/xlink" width="220" height="220"><path d="M478.47936 366.75072v113.1264h57.68192V366.75072c64.30208-13.32224 112.62976-70.27712 112.62976-138.5216 0-78.1312-63.33952-141.47072-141.47072-141.47072S365.8496 150.09792 365.8496 228.22912c0 68.2496 48.3328 125.19936 112.62976 138.5216z m28.83584-225.0496c47.78496 0 86.52288 38.73792 86.52288 86.528 0 47.78496-38.73792 86.528-86.52288 86.528-47.78496 0-86.528-38.73792-86.528-86.528s38.73792-86.528 86.528-86.528zM902.1696 643.712V479.88224H116.51072v167.26016c-62.91968 14.35136-109.89056 70.61504-109.89056 137.88672 0 78.1312 63.33952 141.47072 141.47072 141.47072s141.47072-63.33952 141.47072-141.47072c0-69.20704-49.71008-126.7712-115.36384-139.02336v-108.43648h306.44736v110.1824h0.53248c-61.59872 15.29856-107.25888 70.94784-107.25888 137.28256 0 78.1312 63.33952 141.47072 141.47072 141.47072s141.47072-63.33952 141.47072-141.47072c0-70.31296-51.31264-128.62464-118.528-139.59168v-107.86816h306.16064v108.44672h0.55808c-61.60896 15.29344-107.27936 70.94272-107.27936 137.28256 0 78.1312 63.3344 141.47072 141.47072 141.47072 78.1312 0 141.47072-63.33952 141.47072-141.47072-0.00512-70.3232-51.32288-128.63488-118.54336-139.59168zM234.61376 790.2208c0 47.79008-38.73792 86.528-86.528 86.528-47.78496 0-86.528-38.73792-86.528-86.528s38.73792-86.528 86.528-86.528c47.79008-0.00512 86.528 38.73792 86.528 86.528z m367.29856-5.19168c0 47.79008-38.73792 86.528-86.52288 86.528-47.79008 0-86.528-38.73792-86.528-86.528s38.73792-86.528 86.528-86.528c47.77984 0 86.52288 38.73792 86.52288 86.528z m275.59936 91.71968c-47.79008 0-86.528-38.73792-86.528-86.528s38.73792-86.528 86.528-86.528c47.78496 0 86.52288 38.73792 86.52288 86.528s-38.73792 86.528-86.52288 86.528z" fill="#333333"></path></svg>