<svg xmlns="http://www.w3.org/2000/svg" viewBox="0 0 1024 1024" version="1.1"><path d="M575.488 854.528l13.312 62.976-157.184 57.856L65.024 670.72l80.384-469.504 446.976-164.864 366.592 304.64-48.128 281.6-60.928-24.576 39.936-231.424-309.76-257.536-377.856 139.776-68.096 396.8 309.76 257.536 131.584-48.64z m188.928-290.816l29.696-157.184L565.248 209.92 280.576 309.248l-55.808 296.448 228.864 196.608 103.424-36.352-13.312-62.976-76.288 26.624-173.056-148.48 42.496-224.256 215.04-75.264 173.056 148.48-20.48 108.544 59.904 25.088z m257.536 172.032L808.96 842.752 676.864 1024l-99.328-466.944 444.416 178.688z m-155.136 6.656l-201.728-80.896 44.544 209.408 56.832-77.824 100.352-50.688z"></path></svg>