<svg width="200px" height="200.00px" viewBox="0 0 1024 1024" version="1.1" xmlns="http://www.w3.org/2000/svg"><path d="M263.872 567.872l55.872 33.536-145.28 78.144 346.304 201.088 346.304-201.088L721.92 595.84l55.872-33.472 153.28 89.408a32 32 0 0 1-0.256 55.36l-394.048 225.92a32 32 0 0 1-31.808 0l-392.96-225.216a32 32 0 0 1 0.448-55.68l151.488-84.224zM936.32 372.544L542.464 603.136a32 32 0 0 1-32.192 0.128l-399.36-231.04a32 32 0 0 1 0.128-55.424L504.96 91.008a32 32 0 0 1 31.68-0.064l399.36 226.112a32 32 0 0 1 0.384 55.488zM168.576 344.32l352.192 204.544 352.256-204.544-352.256-198.784L168.576 344.32z" /></svg>