<svg t="1751601446221" class="icon" viewBox="0 0 1024 1024" version="1.1" xmlns="http://www.w3.org/2000/svg" p-id="4802" width="200" height="200"><path d="M295.756652 911.103544A407.295796 407.295796 0 0 0 511.999744 972.799514c79.38556 0 153.497523-22.579189 216.268692-61.69597 9.983995 14.233593 21.734389 27.135986 34.943982 38.399981l-5.119997 3.353599A458.649371 458.649371 0 0 1 511.999744 1023.999488c-92.671954 0-178.969511-27.366386-251.238274-74.444763a206.412697 206.412697 0 0 0 34.995182-38.451181zM895.999552 665.599667a127.999936 127.999936 0 1 1 0 255.999872 127.999936 127.999936 0 0 1 0-255.999872zM127.999936 665.599667a127.999936 127.999936 0 1 1 0 255.999872 127.999936 127.999936 0 0 1 0-255.999872zM715.673242 149.734325C867.993166 224.895888 972.799514 381.823809 972.799514 563.199718c0 13.414393-0.5632 26.700787-1.6896 39.83358a201.983899 201.983899 0 0 0-50.406374-12.748793c0.5888-8.959996 0.896-17.971191 0.895999-27.084787 0-157.055921-88.396756-293.478253-218.163091-362.214218 6.143997-16.179192 10.342395-33.382383 12.236794-51.251175z m-407.295796 0a202.495899 202.495899 0 0 0 12.211194 51.276774l-2.175999 1.1264C189.823905 271.231864 102.399949 407.039796 102.399949 563.199718c0 9.113595 0.3072 18.150391 0.870399 27.084787a202.572699 202.572699 0 0 0-50.380774 12.723193A474.162963 474.162963 0 0 1 51.199974 563.199718C51.199974 381.823809 156.006322 224.895888 308.351846 149.734325zM511.999744 0a127.999936 127.999936 0 1 1 0 255.999872 127.999936 127.999936 0 0 1 0-255.999872z" p-id="4803"></path><path d="M535.654132 665.599667h-54.015973l-17.407991-53.247973h-84.428758L362.700619 665.599667H308.991846l85.068757-232.345484h58.188771L535.654132 665.599667z m-83.097558-91.494354l-26.419187-80.56316a89.420755 89.420755 0 0 1-3.583998-20.22399h-1.3568a85.759957 85.759957 0 0 1-4.044798 19.635191l-26.547186 81.151959h61.951969zM659.96767 471.807764H639.99968v155.238322h19.96799V665.599667h-89.113555v-38.553581h19.63519V471.807764H570.879715v-38.553581h89.087955z" p-id="4804"></path></svg>
