<svg viewBox="0 0 1024 1024" version="1.1" xmlns="http://www.w3.org/2000/svg" xmlns:xlink="http://www.w3.org/1999/xlink" width="200" height="200"><path d="M875.936 728.024a147.2 147.2 0 0 0-89.48 30.224L629.728 601.52a147.216 147.216 0 0 0 30.224-89.488 147.28 147.28 0 0 0-7.344-45.968l161.312-78.208c21.088 29.16 55.36 48.184 94.016 48.184 63.96 0 115.992-52.032 115.992-115.992 0-63.952-52.032-115.992-115.992-115.992-63.96 0-115.992 52.04-115.992 115.992 0 11.04 1.584 21.72 4.48 31.84l-161.296 78.208c-23.048-34.52-60.208-58.832-103.16-64.664v-53.16c27.76-8.56 47.992-34.456 47.992-64.992 0-37.496-30.504-68-68-68-37.488 0-67.984 30.512-67.984 68 0 30.536 20.232 56.432 47.992 64.992v53.16a147.208 147.208 0 0 0-69.488 28.84l-129.28-129.28a164.568 164.568 0 0 0 29.016-144.128 20 20 0 1 0-38.592 10.504 124.392 124.392 0 0 1-31.592 119.984c-0.128 0.128-0.264 0.232-0.4 0.36-0.104 0.112-0.2 0.24-0.312 0.352-48.368 48-126.768 47.904-175-0.328-48.344-48.344-48.344-127.008 0-175.352 30.576-30.576 74-42.912 116.152-33.016A20 20 0 0 0 201.616 4.424c-55.736-13.08-113.152 3.24-153.584 43.68-63.936 63.936-63.936 167.968 0 231.912 31.968 31.968 73.96 47.952 115.96 47.952a163.6 163.6 0 0 0 100.912-34.704l129.288 129.28a147.2 147.2 0 0 0-30.224 89.48c0 81.6 66.392 147.992 147.992 147.992 33.6 0 64.608-11.28 89.48-30.224L758.16 786.52a147.2 147.2 0 0 0-30.224 89.488c0 81.6 66.392 147.984 147.992 147.984s147.984-66.384 147.984-147.984c0-81.6-66.384-147.984-147.984-147.984z m32-483.976c41.896 0 75.992 34.096 75.992 76 0 41.896-34.096 75.992-76 75.992-41.896 0-75.992-34.096-75.992-76 0-41.896 34.096-75.992 76-75.992z m-423.976 3.224c0-15.44 12.56-28 28-28s28 12.56 28 28-12.56 28-28 28-28-12.56-28-28z m28 372.752c-59.552 0-107.992-48.448-107.992-108 0-59.544 48.44-107.984 107.992-107.984 59.552 0 107.992 48.44 107.992 107.992 0 59.544-48.44 107.992-107.992 107.992zM875.936 984c-59.552 0-107.992-48.44-107.992-107.992 0-59.544 48.448-107.992 107.992-107.992 59.552 0 107.992 48.448 107.992 108 0 59.544-48.448 107.984-107.992 107.984zM280.632 48.784a20 20 0 1 1-28.424 28.152l-0.512-0.52a20 20 0 1 1 28.216-28.352l0.72 0.72z m50.984 643.592a20 20 0 0 1 0 28.28l-120.752 120.752a115.312 115.312 0 0 1 21.12 66.6c0 63.96-52.04 115.992-116 115.992C52.04 1024 0 971.968 0 908c0-63.952 52.032-115.992 115.992-115.992 24.768 0 47.728 7.832 66.592 21.112l120.752-120.752a20 20 0 0 1 28.28 0zM115.992 984c41.896 0 75.992-34.088 75.992-75.992s-34.096-76-76-76c-41.896 0-75.984 34.096-75.984 76s34.088 76 75.992 76z m263.12-339.12a20.16 20.16 0 0 1 5.856 14.136c0 5.256-2.136 10.416-5.856 14.136a20.144 20.144 0 0 1-14.136 5.864 20.152 20.152 0 0 1-14.136-5.864 20.144 20.144 0 0 1-5.864-14.136c0-5.256 2.136-10.416 5.864-14.136a20.144 20.144 0 0 1 14.136-5.864c5.256 0 10.416 2.144 14.136 5.864z"></path></svg>