<svg t="1782115523166" class="icon" viewBox="0 0 1024 1024" version="1.1" xmlns="http://www.w3.org/2000/svg" p-id="11299" width="32" height="32"><path d="M981.333333 85.333333a42.666667 42.666667 0 0 1 42.666667 42.666667v554.666667a42.666667 42.666667 0 0 1-42.666667 42.666666H554.666667v128h149.333333a21.333333 21.333333 0 0 1 21.333333 21.333334v42.666666a21.333333 21.333333 0 0 1-21.333333 21.333334h-384a21.333333 21.333333 0 0 1-21.333333-21.333334v-42.666666a21.333333 21.333333 0 0 1 21.333333-21.333334H469.333333v-128H42.666667a42.666667 42.666667 0 0 1-42.666667-42.666666V128a42.666667 42.666667 0 0 1 42.666667-42.666667h938.666666z m-42.666666 85.333334H85.333333v469.333333h853.333334V170.666667z" opacity=".65" p-id="11300"></path></svg>
