<svg viewBox="0 0 1024 1024" version="1.1" xmlns="http://www.w3.org/2000/svg" width="200" height="200"><path d="M626.447059 929.310118H572.235294a30.117647 30.117647 0 1 1 0-60.235294l24.033882-0.060236 0.060236-144.444235c0-81.136941 65.054118-147.094588 146.733176-152.033882L752.941176 572.235294c86.256941 0 156.611765 67.945412 156.611765 152.335059v144.444235h24.094118a30.117647 30.117647 0 0 1 29.635765 24.696471l0.481882 5.421176a30.117647 30.117647 0 0 1-30.117647 30.117647H626.447059zM752.941176 632.470588c-53.428706 0-96.376471 41.441882-96.37647 92.099765v144.444235h192.752941v-144.444235c0-47.826824-38.309647-87.461647-87.582118-91.738353L752.941176 632.470588z"></path><path d="M813.176471 903.529412v10.059294c0 27.708235-26.985412 50.176-60.235295 50.176s-60.235294-22.467765-60.235294-50.176V903.529412h120.470589zM851.847529 84.751059a30.117647 30.117647 0 0 1 30.117647 30.117647v349.063529a30.117647 30.117647 0 1 1-60.235294 0V144.986353H142.878118v722.823529h340.931764a30.117647 30.117647 0 0 1 29.635765 24.696471l0.481882 5.421176a30.117647 30.117647 0 0 1-30.117647 30.117647h-371.049411a30.117647 30.117647 0 0 1-30.117647-30.117647v-783.058823a30.117647 30.117647 0 0 1 30.117647-30.117647h739.087058z"></path><path d="M233.231059 416.045176m30.117647 0l301.17647 0q30.117647 0 30.117648 30.117648l0 0q0 30.117647-30.117648 30.117647l-301.17647 0q-30.117647 0-30.117647-30.117647l0 0q0-30.117647 30.117647-30.117648Z"></path><path d="M233.231059 235.339294m30.117647 0l301.17647 0q30.117647 0 30.117648 30.117647l0 0q0 30.117647-30.117648 30.117647l-301.17647 0q-30.117647 0-30.117647-30.117647l0 0q0-30.117647 30.117647-30.117647Z"></path></svg>