<svg viewBox="0 0 1024 1024" version="1.1" xmlns="http://www.w3.org/2000/svg" width="200" height="200"><path d="M810.688 960v-58.944a150.4 150.4 0 0 1-49.792 9.216H263.104a149.376 149.376 0 0 1-149.312-149.376V412.416h49.792v348.416c0 54.976 44.544 99.584 99.584 99.584h497.728c17.472-0.064 34.752-4.864 49.792-13.824v-35.968H960V960h-149.312z m99.584-99.584h-49.792v49.792h49.792v-49.792z m-248.96-448v248.896h99.584v49.792H263.104v-49.792h49.728V362.688h49.792v298.688h99.584V263.104H512v398.208h99.584V412.416h49.728z m199.104-149.312c0-54.976-44.544-99.584-99.584-99.584H263.104a98.88 98.88 0 0 0-49.792 13.824v36.032H64V64h149.312v58.88c15.936-5.888 32.768-8.96 49.792-9.152h497.728a149.376 149.376 0 0 1 149.376 149.312v348.416h-49.792V263.104zM163.584 113.792h-49.792v49.792h49.792v-49.792z"></path></svg>