<svg t="1750770174517" class="icon" viewBox="0 0 1024 1024" version="1.1" xmlns="http://www.w3.org/2000/svg" p-id="50952" width="200" height="200"><path d="M733.090909 744.727273h-442.181818a34.909091 34.909091 0 1 0 0 69.818182h442.181818a34.909091 34.909091 0 1 0 0-69.818182zM440.389818 238.987636h58.065455c30.254545 0 51.549091 7.889455 65.303272 24.296728 13.172364 15.522909 19.851636 39.586909 19.851637 71.493818 0 31.069091-7.330909 54.295273-22.411637 70.958545-15.150545 16.686545-37.236364 24.808727-67.514181 24.808728h-53.294546v-191.557819z m53.294546 261.376c50.362182 0 90.461091-16.034909 119.249454-47.732363 26.856727-29.696 40.494545-69.352727 40.494546-117.853091 0-48.942545-12.264727-88.203636-36.305455-116.48-27.275636-32.605091-67.188364-49.128727-118.667636-49.128727h-90.670546c-20.503273 0-37.213091 16.709818-37.213091 37.236363V463.127273c0 20.526545 16.709818 37.236364 37.213091 37.236363h85.899637zM733.090909 605.090909h-442.181818a34.909091 34.909091 0 1 0 0 69.818182h442.181818a34.909091 34.909091 0 1 0 0-69.818182z m139.636364 116.363636a34.909091 34.909091 0 0 0 34.909091-34.90909V93.090909a69.818182 69.818182 0 0 0-69.818182-69.818182H186.181818a69.818182 69.818182 0 0 0-69.818182 69.818182v837.818182a69.818182 69.818182 0 0 0 69.818182 69.818182h651.636364a69.818182 69.818182 0 0 0 69.818182-69.818182v-81.454546a34.909091 34.909091 0 1 0-69.818182 0V930.909091H186.181818V93.090909h651.636364v593.454546a34.909091 34.909091 0 0 0 34.909091 34.90909z" p-id="50953"></path></svg>
