<svg t="1750762591578" class="icon" viewBox="0 0 1024 1024" version="1.1" xmlns="http://www.w3.org/2000/svg" p-id="6056" width="200" height="200"><path d="M596.361 616.177a369.29 369.29 0 0 1-24.513 30.413c44.407 24.699 74.523 72.107 74.523 126.427 0 79.717-64.848 144.565-144.565 144.565H270.501c-79.717 0-144.567-64.848-144.567-144.565 0-54.319 30.115-101.726 74.522-126.426a369.307 369.307 0 0 1-24.513-30.414c-53.074 32.067-88.56 90.307-88.56 156.839 0 101.132 81.986 183.114 183.118 183.114h231.305c101.13 0 183.114-81.982 183.114-183.114 0-66.532-35.485-124.772-88.559-156.839z m-210.21 89.376c106.017 0 240.944-133.766 240.944-298.769 0-165.007-107.875-298.771-240.944-298.771-133.068 0-240.943 133.764-240.943 298.771 0 165.003 134.93 298.769 240.943 298.769z m0.066-558.989c111.597 0 202.39 116.728 202.39 260.22C588.606 555.264 465.83 667 386.217 667c-79.615 0-202.394-111.736-202.394-260.216 0-143.492 90.797-260.22 202.394-260.22z m474.678 374.089c-8.348 11.679-17.448 22.415-27.277 32.084 35.989 6.511 63.331 37.847 63.331 75.714 0 42.581-34.518 77.102-77.102 77.102H712.938c3.959 12.398 6.706 25.311 8.435 38.549h98.474c63.875 0 115.652-51.778 115.652-115.651 0.001-49.366-31.067-91.2-74.604-107.798z m16.779-181.333c0-127.746-77.668-231.307-173.479-231.307-45.825 0-87.379 23.869-118.391 62.566 8.25 10.181 15.819 21.114 22.957 32.483 24.42-34.904 58.164-56.498 95.434-56.498 74.521 0 134.93 86.3 134.93 192.756 0 106.454-60.409 192.752-134.93 192.752-20.083 0-39.077-6.44-56.205-17.683-4.069 12.456-8.83 24.514-14.115 36.263 21.509 12.747 45.264 19.971 70.32 19.971 95.81 0 173.479-103.557 173.479-231.303z" p-id="6057"></path></svg>
