<svg width="200px" height="200.00px" viewBox="0 0 1024 1024" version="1.1" xmlns="http://www.w3.org/2000/svg"><path d="M423.744 530.048L87.488 348.992a44.288 44.288 0 0 0-21.248-5.312c-24.192 0-46.976 21.12-46.976 50.56v353.92c0 36.992 18.944 70.144 49.984 86.784l336.256 181.056a45.44 45.44 0 0 0 21.184 6.08c24.192 0 46.976-21.888 46.976-51.328v-353.92c0-36.224-18.88-70.208-49.92-86.784z m-14.08 428.032l-315.776-178.048a27.52 27.52 0 0 1-10.624-22.976V407.68l315.776 178.048c6.528 4.224 10.624 13.632 10.624 22.976v349.376zM957.76 343.616a43.904 43.904 0 0 0-21.184 5.312L600.256 530.752c-31.04 16.64-49.984 50.56-49.984 87.552v352.384c0 29.44 22.72 51.328 46.976 51.328a43.904 43.904 0 0 0 21.184-5.312l336.256-181.824c30.272-16.64 49.984-49.792 49.984-86.784v-353.92c0.064-29.376-22.72-50.56-46.912-50.56z m-17.024 412.544c0 11.904-5.696 20.416-10.624 22.976L614.336 958.08V610.432c0-11.904 5.696-20.416 10.624-22.976l315.776-179.776v348.48zM905.28 263.936c15.936-8.32 23.424-22.784 22.016-36.352 1.536-14.4-6.08-28.032-22.016-36.352L562.88 12.48a104.896 104.896 0 0 0-50.752-12.16c-18.176 0-35.584 3.776-51.52 12.16l-343.104 177.92a38.784 38.784 0 0 0-22.016 37.12 38.4 38.4 0 0 0 22.016 36.416l342.4 177.984c15.168 8.32 33.28 12.16 51.52 12.16h1.536c18.176 0 35.584-3.776 51.52-12.16l340.8-177.984zM511.04 390.4a42.368 42.368 0 0 1-18.112-4.096l-307.84-158.72 307.84-159.552A42.56 42.56 0 0 1 511.872 64c6.592 0 13.184 1.664 18.112 4.096l307.84 159.552-308.608 158.72a38.4 38.4 0 0 1-18.176 4.032z" /></svg>
