<svg t="1750770551204" class="icon" viewBox="0 0 1024 1024" version="1.1" xmlns="http://www.w3.org/2000/svg" p-id="54873" width="200" height="200"><path d="M446.599168 75.262976c-116.059136 0-216.403968 100.404224-216.403968 222.7968 0 69.040128 31.309824 131.713024 84.692992 175.756288l15.652864 9.314304-15.623168 6.367232C170.4448 545.803264 73.539584 683.854848 73.539584 840.558592A105.720832 105.720832 0 0 0 180.25472 947.273728h285.415424c9.315328 0 24.968192-9.289728 24.968192-28.386304 0-22.024192-15.652864-28.361728-24.968192-28.361728h-285.91104a49.265664 49.265664 0 0 1-35.52256-14.437376 49.278976 49.278976 0 0 1-14.415872-35.530752c0-166.462464 128.789504-304.073728 291.782656-319.725568h34.311168c37.646336-2.94912 91.004928-12.735488 118.948864-37.702656l12.760064-9.314304c53.387264-44.043264 84.666368-106.71616 84.666368-175.756288 0-122.391552-100.4288-222.795776-225.690624-222.795776z m5.870592 389.26336c-91.117568 0-166.44096-75.377664-166.44096-166.46656 0-91.083776 75.352064-166.491136 166.44096-166.491136 91.0848 0 166.49216 75.40736 166.49216 166.491136 0 91.088896-75.40736 166.46656-166.49216 166.46656z m349.195264 139.365376c-35.062784-35.063808-81.682432-54.368256-131.264512-54.368256-49.58208 0-96.200704 19.304448-131.264512 54.368256-35.062784 35.06176-54.373376 81.681408-54.373376 131.264512 0 49.58208 19.309568 96.19968 54.373376 131.264512 35.062784 35.058688 81.682432 54.368256 131.264512 54.368256 49.583104 0 96.201728-19.308544 131.264512-54.368256 35.062784-35.063808 54.368256-81.682432 54.368256-131.264512 0-49.583104-19.305472-96.201728-54.368256-131.264512z m-34.121728 228.407296c-25.94816 25.946112-60.448768 40.236032-97.142784 40.236032s-71.194624-14.28992-97.143808-40.236032c-25.94816-25.949184-40.239104-60.448768-40.239104-97.142784s14.290944-71.194624 40.239104-97.142784c25.949184-25.950208 60.449792-40.236032 97.143808-40.236032s71.194624 14.285824 97.142784 40.236032c25.949184 25.94816 40.236032 60.448768 40.236032 97.142784s-14.286848 71.1936-40.236032 97.142784z m-26.79808-78.794752c6.479872 0 11.730944-10.376192 11.730944-16.856064 0-6.478848-5.251072-11.730944-11.730944-11.730944h-45.673472l50.200576-65.302528c3.95264-5.136384 2.985984-12.504064-2.1504-16.452608-5.137408-3.948544-17.625088-8.105984-21.572608-2.9696l-50.29888 66.965504-50.297856-66.965504c-3.949568-5.136384-16.433152-0.978944-21.572608 2.9696-5.136384 3.948544-6.10304 11.317248-2.1504 16.452608l50.199552 65.302528h-45.669376c-6.483968 0-11.736064 5.252096-11.736064 11.730944 0 6.479872 5.252096 16.856064 11.736064 16.856064h52.637696v20.440064h-49.860608c-6.480896 0-11.731968 5.256192-11.731968 11.736064s5.251072 16.85504 11.731968 16.85504h49.860608v38.71232c0 6.479872 10.372096 11.73504 16.851968 11.73504s16.85504-5.255168 16.85504-11.73504v-38.71232h49.857536c6.479872 0 11.731968-10.375168 11.731968-16.85504s-5.252096-11.736064-11.731968-11.736064h-49.857536v-20.440064h52.640768z" fill="" p-id="54874"></path></svg>
