<svg viewBox="0 0 1024 1024" version="1.1" xmlns="http://www.w3.org/2000/svg" width="200" height="200"><path d="M896.149333 856.477867c23.5648 0 42.666667 19.101867 42.666667 42.666666 0 21.751467-16.277333 39.701333-37.316267 42.333867l-5.3504 0.3328h-241.361066c-23.560533 0-42.666667-19.101867-42.666667-42.666667 0-21.751467 16.277333-39.701333 37.316267-42.333866l5.3504-0.3328h241.361066zM428.360533 682.666667c43.7248 0 50.359467 25.045333 50.359467 42.8928 0 17.8432-10.385067 42.440533-51.639467 42.440533H298.666667c-70.6944 0-128 57.3056-128 128 0 23.5648-19.101867 42.666667-42.666667 42.666667s-42.666667-19.101867-42.666667-42.666667c0-114.722133 90.551467-208.290133 204.078934-213.137067L298.666667 682.666667h129.693866z m467.7888 45.8112c23.5648 0 42.666667 19.101867 42.666667 42.666666 0 21.751467-16.277333 39.701333-37.316267 42.333867l-5.3504 0.3328h-241.361066c-23.560533 0-42.666667-19.101867-42.666667-42.666667 0-21.751467 16.277333-39.701333 37.316267-42.333866l5.3504-0.3328h241.361066z m0-128c23.5648 0 42.666667 19.101867 42.666667 42.666666 0 21.751467-16.277333 39.701333-37.316267 42.333867l-5.3504 0.3328h-241.361066c-23.560533 0-42.666667-19.101867-42.666667-42.666667 0-21.751467 16.277333-39.701333 37.316267-42.333866l5.3504-0.3328h241.361066zM512 85.333333c117.819733 0 213.333333 95.5136 213.333333 213.333334 0 123.677867-98.3552 256-213.333333 256S298.666667 422.344533 298.666667 298.666667c0-117.819733 95.5136-213.333333 213.333333-213.333334z m0 85.333334c-70.6944 0-128 57.3056-128 128 0 81.109333 66.564267 170.666667 128 170.666666s128-89.557333 128-170.666666c0-70.6944-57.3056-128-128-128z" fill="#212B36"></path></svg>