<svg width="200px" height="200.00px" viewBox="0 0 1024 1024" version="1.1" xmlns="http://www.w3.org/2000/svg"><path d="M783.936 423.552L1024 560v309.312L752.064 1024 512 887.488 271.936 1024 0 869.376V560l240.064-136.512V154.624L512 0l271.936 154.624v268.928zM308.672 193.664v231.232L512 540.544l203.328-115.648V193.664L512 78.016 308.672 193.664zM68.608 599.04v231.232L271.936 945.92l203.328-115.648V599.104L271.936 483.456 68.608 599.04z m480.128 0v231.232L752.064 945.92l203.328-115.648V599.104L752.064 483.456 548.736 599.04z" /></svg>
