<?xml version="1.0" standalone="no"?><!DOCTYPE svg PUBLIC "-//W3C//DTD SVG 1.1//EN" "http://www.w3.org/Graphics/SVG/1.1/DTD/svg11.dtd"><svg class="icon" width="200px" height="200.00px" viewBox="0 0 1024 1024" version="1.1" xmlns="http://www.w3.org/2000/svg"><path d="M861.4 254.2H683.8v-61.8c0-37-30.2-66.6-66.6-66.6H411.4c-37 0-66.6 30.2-66.6 66.6v61.8H167.2c-36.5 0-66.6 30.2-66.6 66.6v501.1c0 37 30.2 66.6 66.6 66.6h693.7c37 0 66.6-30.2 66.6-66.6V320.8c0.5-36.5-29.6-66.6-66.1-66.6z m-472.9-61.8c0-12.6 10.2-23.4 23.4-23.4h205.8c12.6 0 23.4 10.2 23.4 23.4v61.8H388.5v-61.8zM385.6 603c12.2 0 21.9-9.7 21.9-21.9v-32.6h213.6v32.6c0 12.2 9.7 21.9 21.9 21.9s21.9-9.7 21.9-21.9v-32.6h219.9v273.9c0 12.6-10.2 23.4-23.4 23.4H167.2c-12.6 0-23.4-10.2-23.4-23.4V548.5h219.9v32.6c0 12.2 10.2 21.9 21.9 21.9zM643 456.6c-12.2 0-21.9 9.7-21.9 21.9v26.3H407.5v-26.3c0-12.2-9.7-21.9-21.9-21.9s-21.9 9.7-21.9 21.9v26.3H144.3v-184c0-12.6 10.2-23.4 23.4-23.4h693.7c12.6 0 23.4 10.2 23.4 23.4v183.9H664.9v-26.3c0-12.1-10.3-21.8-21.9-21.8z" /></svg>
