<svg viewBox="0 0 1024 1024" version="1.1" xmlns="http://www.w3.org/2000/svg" width="200" height="200"><path d="M813.550345 553.313103l-0.388414-1.765517c-18.432-67.301517-49.222621-124.468966-91.524414-169.701517a343.499034 343.499034 0 0 0-62.146207-52.435862 11.016828 11.016828 0 0 1-3.248551-14.477241c11.087448-20.162207 15.536552-42.407724 13.629793-68.007725a49.293241 49.293241 0 0 0-3.03669-13.771034c-12.570483-33.474207-41.807448-57.626483-84.568276-69.914483a262.320552 262.320552 0 0 0-67.901793-9.357241c-0.247172 0-0.564966 0-0.918069-0.070621a34.145103 34.145103 0 0 0-3.03669-0.176552c-29.872552-0.423724-129.341793 4.13131-157.837241 80.083862-1.553655 4.307862-2.471724 8.721655-2.860138 13.206069-1.906759 25.6 2.612966 47.916138 13.735724 68.078345a11.016828 11.016828 0 0 1-3.283862 14.477242 348.018759 348.018759 0 0 0-62.216827 52.683034c-42.372414 45.550345-73.304276 103.035586-91.806897 171.113931l-0.353103 1.412414c-16.313379 79.377655-0.494345 154.65931 44.420413 211.862069 36.969931 46.998069 110.274207 103.106207 249.926621 103.106207 3.10731 0 6.426483 0 9.392552-0.070621 3.283862 0.070621 6.567724 0.070621 9.675034 0.070621 139.652414 0 213.062621-56.037517 249.926621-103.000276 45.267862-57.238069 61.086897-133.014069 44.420414-213.380414zM434.670345 334.035862a26.977103 26.977103 0 0 0-9.039448-23.622621c-19.350069-16.560552-27.330207-34.639448-25.776552-58.544551 16.384-41.630897 86.404414-45.409103 107.625931-45.585656h0.847448c0.953379 0.070621 1.977379 0.176552 4.025379 0.176552 14.971586 0 90.182621 2.118621 107.44938 45.161931 1.588966 24.152276-6.391172 42.231172-25.670621 58.791724a26.765241 26.765241 0 0 0-9.039448 23.622621c1.05931 9.039448 6.355862 16.737103 14.230069 20.585931 82.273103 40.96 137.816276 111.65131 165.146483 210.202483l0.247172 0.918069c12.852966 63.735172 0.670897 123.127172-34.251035 167.371034-30.013793 38.241103-91.10069 83.862069-211.155862 83.862069-2.930759 0-6.002759 0-9.004138-0.105931h-2.08331c-2.612966 0.105931-5.261241 0.176552-8.050759 0.105931-119.984552 0-181.036138-45.620966-211.085241-83.897379-34.604138-44.208552-46.892138-103.176828-34.321655-165.958621l0.247172-0.918069c27.400828-99.222069 83.120552-170.372414 165.499587-211.403034a26.341517 26.341517 0 0 0 14.124137-20.762483z"></path><path d="M591.130483 636.928h-60.733793v75.422897c0 11.793655-9.110069 21.53931-20.550621 21.53931a21.044966 21.044966 0 0 1-20.585931-21.53931v-75.422897h-60.733793a21.080276 21.080276 0 0 1-20.550621-21.53931c0-11.934897 9.110069-21.574621 20.550621-21.574621h60.733793v-26.906483H435.023448c-10.946207-0.423724-19.632552-9.992828-19.632551-21.53931a21.186207 21.186207 0 0 1 19.632551-21.53931h35.133793l-34.145103-38.558897a22.245517 22.245517 0 0 1 1.341793-30.084414 19.879724 19.879724 0 0 1 28.70731 0.776828l43.714207 49.328551 43.678897-49.328551a19.950345 19.950345 0 0 1 28.70731-0.776828 22.245517 22.245517 0 0 1 1.341793 30.084414l-34.251034 38.523586h35.204414c11.29931 0 20.585931 9.675034 20.585931 21.539311 0 11.828966-9.18069 21.574621-20.585931 21.57462h-54.20138v26.906483h60.804414c11.29931 0 20.585931 9.533793 20.585931 21.53931a20.903724 20.903724 0 0 1-20.48 21.539311z"></path></svg>