<svg xmlns="http://www.w3.org/2000/svg" viewBox="0 0 1024 1024" version="1.1"><path d="M512.278 899.323c178.167 0 322.6-144.433 322.6-322.6 0-178.168-144.433-322.601-322.6-322.601-178.168 0-322.6 144.433-322.6 322.6 0 178.168 144.432 322.6 322.6 322.6zM711.766 185.62c-120.005-81.43-279.36-81.846-399.448-0.59-0.346 0.381-0.702 0.757-1.07 1.125-11.849 11.848-31.058 11.848-42.906 0-11.848-11.848-11.848-31.057 0-42.905l0.006-0.007-0.222-0.209c0.682-0.494 1.365-0.985 2.049-1.474a30.248 30.248 0 0 1 4.453-3.142c141.986-98.774 331.704-99.294 473.949-1.13a30.493 30.493 0 0 1 3.942 2.754c0.868 0.614 1.735 1.233 2.6 1.855l-0.259 0.283c11.826 11.958 11.785 31.238-0.123 43.146-11.85 11.85-31 11.948-42.971 0.294zM512.278 960C300.599 960 129 788.4 129 576.722c0-211.678 171.6-383.277 383.278-383.277 211.678 0 383.277 171.599 383.277 383.277C895.555 788.401 723.956 960 512.278 960z m95.607-449.132c-11.662 12.031-30.87 12.33-42.9 0.667-12.03-11.662-12.33-30.87-0.667-42.9l96.072-99.106c11.663-12.03 30.87-12.33 42.9-0.667 12.031 11.663 12.33 30.87 0.667 42.9l-96.072 99.106z m-96.113 194.288c-70.653 0-127.928-57.275-127.928-127.928 0-70.653 57.275-127.928 127.928-127.928 70.653 0 127.928 57.275 127.928 127.928 0 70.653-57.275 127.928-127.928 127.928z m0-60.677c37.141 0 67.25-30.11 67.25-67.251 0-37.141-30.109-67.25-67.25-67.25s-67.25 30.109-67.25 67.25 30.109 67.25 67.25 67.25z"></path></svg>