<svg t="1750815452911" class="icon" viewBox="0 0 1024 1024" version="1.1" xmlns="http://www.w3.org/2000/svg" p-id="4620" width="200" height="200"><path d="M509.074286 260.388571a130.194286 130.194286 0 1 0 0-260.388571 130.194286 130.194286 0 0 0 0 260.388571zM863.085714 588.068571c-74.605714 0-135.314286 60.708571-135.314285 135.314286s60.708571 135.314286 135.314285 135.314286 135.314286-60.708571 135.314286-135.314286-60.708571-135.314286-135.314286-135.314286zM550.034286 844.8c-5.851429 0-9.508571 5.12-7.314286 10.971429l14.628571 33.645714c-15.36 2.194286-31.451429 3.657143-47.542857 3.657143-71.68 0-137.508571-21.942857-193.828571-59.245715l-65.828572 62.902858c73.142857 52.662857 163.108571 84.114286 259.657143 84.114285 28.525714 0 56.32-3.657143 84.114286-9.508571l21.211429 48.274286c2.194286 5.12 9.508571 5.851429 13.165714 0.731428l106.057143-150.674286c3.657143-4.388571 0-11.702857-5.12-11.702857l-179.2-13.165714zM289.645714 725.577143a133.851429 133.851429 0 1 0-267.849143 0.146286A133.851429 133.851429 0 0 0 289.645714 725.577143zM831.634286 379.611429l-45.348572 10.24c-5.851429 0.731429-8.777143 8.777143-4.388571 13.165714l130.194286 138.971428c4.388571 4.388571 11.702857 2.925714 13.165714-2.925714l60.708571-180.662857c2.194286-5.851429-2.925714-11.702857-9.508571-10.24l-55.588572 11.702857a444.562286 444.562286 0 0 0-186.514285-211.382857l-46.08 75.337143c62.902857 36.571429 111.908571 91.428571 143.36 155.794286zM152.137143 548.571429v-14.628572c0-125.074286 62.902857-238.445714 168.228571-304.274286l-46.08-75.337142C141.165714 236.982857 62.171429 378.148571 62.171429 533.942857c0 13.165714 0.731429 25.6 2.194285 38.034286l87.771429-23.405714z" p-id="4621"></path></svg>
