<svg viewBox="0 0 1024 1024" version="1.1" xmlns="http://www.w3.org/2000/svg" width="200" height="200"><path d="M430 0H70C31.34 0 0 31.34 0 70v360c0 38.66 31.34 70 70 70h360c38.66 0 70-31.34 70-70V70c0-38.66-31.34-70-70-70z m-10.418 419.582H80.418V80.418h339.164v339.164zM430 524H70c-38.66 0-70 31.34-70 70v360c0 38.66 31.34 70 70 70h360c38.66 0 70-31.34 70-70V594c0-38.66-31.34-70-70-70z m-10.418 419.582H80.418V604.418h339.164v339.164zM954 0H594c-38.66 0-70 31.34-70 70v360c0 38.66 31.34 70 70 70h360c38.66 0 70-31.34 70-70V70c0-38.66-31.34-70-70-70z m-10.418 419.582H604.418V80.418h339.164v339.164zM774 524c-66.777 0-129.558 26.005-176.776 73.224S524 707.223 524 774s26.005 129.558 73.224 176.776S707.223 1024 774 1024s129.558-26.005 176.776-73.224S1024 840.777 1024 774s-26.005-129.558-73.224-176.776S840.777 524 774 524z m0 419.582c-93.508 0-169.582-76.074-169.582-169.582S680.492 604.418 774 604.418 943.582 680.492 943.582 774 867.508 943.582 774 943.582z"></path></svg>