<svg viewBox="0 0 1024 1024" version="1.1" xmlns="http://www.w3.org/2000/svg" width="200" height="200"><path d="M677.831111 531.626667h-93.297778l69.404445-68.266667c17.351111-17.066667 17.635556-45.226667 0.568889-62.577778a44.373333 44.373333 0 0 0-62.577778-0.568889L512 478.72l-79.928889-78.506667c-17.351111-17.066667-45.511111-17.066667-62.577778 0.568889-17.066667 17.351111-17.066667 45.511111 0.568889 62.577778l69.404445 68.266667h-93.297778c-24.462222 0-44.373333 19.911111-44.373333 44.373333 0 24.462222 19.911111 44.373333 44.373333 44.373333h121.457778v53.475556h-68.835556c-24.462222 0-44.373333 19.911111-44.373333 44.373333s19.911111 44.373333 44.373333 44.373334h68.835556v59.448888c0 24.462222 19.911111 44.373333 44.373333 44.373334 24.462222 0 44.373333-19.911111 44.373333-44.373334v-59.733333h68.835556c24.462222 0 44.373333-19.911111 44.373333-44.373333s-19.911111-44.373333-44.373333-44.373334h-68.835556V620.088889h121.457778c24.462222 0 44.373333-19.911111 44.373333-44.373333 0-24.177778-19.911111-44.088889-44.373333-44.088889z"></path><path d="M842.808889 261.973333h-27.875556v-125.155555c0-75.377778-61.44-136.817778-136.817777-136.817778H345.884444C270.506667 0 209.066667 61.44 209.066667 136.817778v125.155555h-27.875556c-85.617778 0-155.306667 69.688889-155.306667 155.306667v451.413333C25.884444 954.311111 95.573333 1024 181.191111 1024h661.617778c85.617778 0 155.306667-69.688889 155.306667-155.306667V417.28c0-85.617778-69.688889-155.306667-155.306667-155.306667z m-544.995556-125.155555c0-26.453333 21.617778-48.071111 48.071111-48.071111h332.231112c26.453333 0 48.071111 21.617778 48.071111 48.071111v125.155555H297.813333v-125.155555z m611.555556 731.875555c0 36.693333-29.866667 66.56-66.56 66.56H181.191111c-36.693333 0-66.56-29.866667-66.56-66.56V417.28c0-36.693333 29.866667-66.56 66.56-66.56h661.333333c36.693333 0 66.56 29.866667 66.56 66.56v451.413333z"></path></svg>