<svg t="1750770257252" class="icon" viewBox="0 0 1024 1024" version="1.1" xmlns="http://www.w3.org/2000/svg" p-id="52000" width="200" height="200"><path d="M733.090909 744.727273h-442.181818a34.909091 34.909091 0 1 0 0 69.818182h442.181818a34.909091 34.909091 0 1 0 0-69.818182M651.636364 498.618182a34.909091 34.909091 0 0 0 34.909091-34.909091V206.824727a53.806545 53.806545 0 0 0-103.121455-21.550545l-71.144727 163.002182-71.703273-163.118546a53.829818 53.829818 0 0 0-49.268364-32.139636h-0.046545A53.806545 53.806545 0 0 0 337.454545 206.824727v256.884364a34.909091 34.909091 0 1 0 69.818182 0v-180.782546l73.634909 165.213091a35.002182 35.002182 0 0 0 64.046546-0.256l71.773091-164.375272v180.200727a34.909091 34.909091 0 0 0 34.909091 34.909091M872.727273 721.454545a34.909091 34.909091 0 0 0 34.909091-34.90909V93.090909a69.818182 69.818182 0 0 0-69.818182-69.818182H186.181818a69.818182 69.818182 0 0 0-69.818182 69.818182v837.818182a69.818182 69.818182 0 0 0 69.818182 69.818182h651.636364a69.818182 69.818182 0 0 0 69.818182-69.818182v-81.454546a34.909091 34.909091 0 1 0-69.818182 0V930.909091H186.181818V93.090909h651.636364v593.454546a34.909091 34.909091 0 0 0 34.909091 34.90909m-139.636364-116.363636h-442.181818a34.909091 34.909091 0 1 0 0 69.818182h442.181818a34.909091 34.909091 0 1 0 0-69.818182" p-id="52001"></path></svg>
