<svg viewBox="0 0 1024 1024" version="1.1" xmlns="http://www.w3.org/2000/svg" width="200" height="200"><path d="M612.485981 299.862928H25.520249c-12.760125 0-25.520249 6.380062-25.520249 25.52025v76.560747c0 12.760125 12.760125 25.520249 25.520249 25.520249h586.965732c12.760125 0 25.520249-12.760125 25.52025-25.520249V325.383178c0-19.140187-12.760125-25.520249-25.52025-25.52025zM25.520249 127.601246h714.566978c12.760125 0 25.520249-12.760125 25.52025-25.520249V25.520249c0-12.760125-12.760125-25.520249-25.52025-25.520249H25.520249C12.760125 0 0 12.760125 0 25.520249v76.560748c0 12.760125 12.760125 25.520249 25.520249 25.520249zM427.464174 593.345794H31.900312c-12.760125 0-25.520249 12.760125-25.52025 25.52025v76.560747c0 12.760125 12.760125 25.520249 25.52025 25.520249h395.563862c12.760125 0 25.520249-12.760125 25.52025-25.520249V618.866044c0-12.760125-12.760125-25.520249-25.52025-25.52025zM357.283489 893.208723H25.520249c-12.760125 0-25.520249 12.760125-25.520249 25.520249v76.560748c0 12.760125 12.760125 25.520249 25.520249 25.520249h331.76324c12.760125 0 25.520249-12.760125 25.520249-25.520249v-76.560748c0-12.760125-12.760125-25.520249-25.520249-25.520249zM1014.429907 746.46729l-51.040499-51.040499-178.641744-178.641744c-12.760125-12.760125-25.520249-12.760125-38.280374 0l-51.040499 51.040498c-12.760125 12.760125-12.760125 25.520249 0 38.280374l159.501558 159.501558-159.501558 159.501557c-12.760125 12.760125-12.760125 25.520249 0 38.280374l51.040499 51.040499c12.760125 12.760125 25.520249 12.760125 38.280374 0l178.641744-178.641745 51.040499-51.040498c6.380062-6.380062 6.380062-12.760125 6.380062-19.140187 0-6.380062 0-12.760125-6.380062-19.140187z"></path></svg>