<svg viewBox="0 0 1024 1024" version="1.1" xmlns="http://www.w3.org/2000/svg" width="200" height="200"><path d="M421.955195 655.331099c-5.599577 0-11.199153-2.167578-15.534309-6.502734l-148.298466-148.298466c-8.670312-8.670312-8.670312-22.398307 0-31.068618 8.489681-8.489681 22.398307-8.489681 30.887987 0l132.944788 132.944787 223.26054-224.52496c8.489681-8.670312 22.398307-8.670312 30.887987 0 8.670312 8.489681 8.670312 22.398307 0 31.068619L437.489504 649.008996c-4.335156 4.335156-9.934733 6.322103-15.534309 6.322103z" fill=""></path><path d="M544.96525 890.513318c-24.927148 11.379785-50.757453 20.41136-77.671547 26.914094C266.431469 867.93438 115.604163 677.548774 115.604163 473.435174V255.593579l351.328277-146.130887L818.260716 255.593579v217.2997s2.528841 20.230729 28.720409 20.230729c20.230729 0 25.288411-20.230729 25.288411-20.230729V219.467278l-405.517728-168.529194-405.156465 168.529194v253.967896c0 231.388957 171.238666 445.437291 399.376257 498.18169l5.96084 1.445052 6.141471-1.445052c24.746516-5.599577 48.589875-13.005468 71.891339-22.217675 0 0 26.191568-3.431999 26.191568-33.778092 0-23.662727-26.191568-25.107779-26.191568-25.107779z" fill=""></path><path d="M976.674546 694.889398c-2.528841-13.727994-10.83789-22.217675-21.133886-22.037043h-1.806315c-29.98483 0-54.370083-24.385253-54.370083-54.370083 0-9.57347 4.515788-20.230729 4.696419-20.772623 5.238314-11.741048 1.264421-26.3722-9.392838-33.59746l-0.722526-0.361263-54.550715-30.346093-0.903157-0.361263c-3.431999-1.625684-7.22526-2.34821-11.379785-2.348209-8.309049 0-16.437467 3.431999-21.856412 9.031575-6.502734 6.683366-26.733463 24.02399-42.990298 24.02399s-36.848827-17.701887-43.17093-24.385253c-5.418945-5.780208-13.727994-9.031575-22.217675-9.031575-3.973893 0-7.767155 0.722526-11.199153 2.167578l-0.722526 0.361263-56.537661 30.707356-0.722526 0.541894c-10.657259 7.405892-14.631152 21.856412-9.57347 33.59746 0 0.180632 4.877051 11.199153 4.877051 20.772623 0 29.98483-24.385253 54.370083-54.370083 54.370083h-1.806315c-10.295996-0.180632-18.605045 8.489681-21.133886 22.037043-0.180632 0.903158-4.515788 24.385253-4.515788 43.17093 0 18.06315 4.154525 40.642089 4.515788 43.17093 2.528841 13.366731 10.657259 22.037044 20.772623 22.037043h2.348209c29.98483 0 54.370083 24.385253 54.370083 54.370083 0 9.754101-4.696419 20.772623-4.696419 20.772623-5.238314 11.741048-1.264421 26.3722 9.392838 33.59746l0.722526 0.361263 53.466926 29.98483 0.722526 0.361263c3.431999 1.625684 7.22526 2.34821 11.379784 2.348209 8.489681 0 16.79873-3.431999 22.037044-9.392838 7.767155-8.309049 28.539778-25.469042 43.893456-25.469042 16.79873 0 37.932616 19.327571 44.254718 26.010937 5.238314 5.96084 13.727994 9.57347 22.217675 9.573469 3.973893 0 7.767155-0.722526 11.199154-2.348209l0.722526-0.361263 55.453872-30.526724 0.722526-0.541895c10.657259-7.405892 14.631152-21.856412 9.573469-33.59746 0-0.180632-4.877051-11.018522-4.87705-20.772623 0-29.98483 24.385253-54.370083 54.370083-54.370083h2.167578c10.115364 0 18.243782-8.670312 20.772623-22.037043 0-0.180632 4.515788-24.204622 4.515787-43.17093 0-18.605045-4.335156-42.267772-4.515787-43.17093z m-25.469042 43.17093c0 12.824837-2.528841 29.262304-3.61263 35.403775-20.953255 1.625684-40.461457 10.657259-54.911978 26.010937-14.992415 15.714941-23.301464 36.487564-23.301464 58.343976 0 13.005468 4.335156 25.649674 6.322103 30.707355L826.389134 915.801729c-1.806315-1.806315-9.031575-9.392838-19.14694-16.979362-16.437467-12.282942-32.333039-18.424413-46.783559-18.424413s-30.165461 5.96084-46.602929 18.06315c-10.115364 7.22526-17.159993 14.631152-19.146939 16.79873l-47.506086-26.733463c1.986947-5.057682 6.322103-17.701887 6.322103-30.707355 0-21.675781-8.309049-42.448404-23.301464-58.343976-14.631152-15.353678-34.139354-24.565885-54.911978-26.010937-1.083789-5.96084-3.61263-22.398307-3.61263-35.403775 0-12.644205 2.528841-29.262304 3.61263-35.403775 20.953255-1.625684 40.461457-10.657259 54.911978-26.010936 14.992415-15.714941 23.301464-36.487564 23.301464-58.343976 0-13.005468-4.335156-25.649674-6.322103-30.707356l50.576822-27.636621c0.180632 0 0.180632 0 0.361263 0.180632 1.625684 1.625684 8.850944 8.850944 18.966308 16.076204 16.256835 11.379785 31.610513 17.340624 45.69977 17.340624 13.908626 0 29.442935-5.780208 45.338508-16.979361 9.934733-7.044629 17.340624-14.089257 18.966308-15.714941 0.180632 0 0.180632 0 0.361263-0.180631l48.589875 27.094725c-1.986947 5.057682-6.322103 17.701887-6.322103 30.707356 0 21.675781 8.309049 42.448404 23.301464 58.343976 14.631152 15.353678 34.139354 24.565885 54.911978 26.010937 0.541895 5.96084 3.251367 22.398307 3.251367 35.223143z"></path><path d="M760.278003 660.20815c-42.809667 0-77.671547 34.86188-77.671547 77.671547s34.86188 77.671547 77.671547 77.671547 77.671547-34.86188 77.671547-77.671547c0-42.990298-34.86188-77.671547-77.671547-77.671547z m0 125.177632c-26.191568 0-47.506086-21.314518-47.506086-47.506085s21.314518-47.506086 47.506086-47.506086 47.506086 21.314518 47.506086 47.506086c0 26.010937-21.495149 47.506086-47.506086 47.506085z"></path></svg>