<?xml version="1.0" standalone="no"?><!DOCTYPE svg PUBLIC "-//W3C//DTD SVG 1.1//EN" "http://www.w3.org/Graphics/SVG/1.1/DTD/svg11.dtd"><svg class="icon" width="200px" height="200.00px" viewBox="0 0 1024 1024" version="1.1" xmlns="http://www.w3.org/2000/svg"><path d="M511.424144 186.833292a418.455386 418.455386 0 1 1 0 836.910772 418.455386 418.455386 0 0 1 0-836.910772z m251.137216 167.382154a355.111222 355.111222 0 1 0-502.210448 502.338416 355.111222 355.111222 0 0 0 502.210448-502.338416zM389.534616 0h243.84304c14.780305 0 28.472882 4.734816 38.582354 12.412897 11.837041 9.021745 19.195201 21.818545 19.195201 36.470882v33.07973c0 14.652337-7.35816 27.513122-19.195201 36.470882-10.173457 7.67808-23.866033 12.476881-38.582354 12.476881h-243.84304a64.623844 64.623844 0 0 1-38.582354-12.412897 45.684579 45.684579 0 0 1-19.195201-36.470882v-33.143714c0-14.652337 7.35816-27.513122 19.195201-36.470882 10.173457-7.67808 23.802049-12.412897 38.582354-12.412897z m243.84304 42.677331h-243.84304a21.690577 21.690577 0 0 0-12.924768 3.775056c-1.343664 1.023744-2.23944 1.91952-2.239441 2.495376v33.07973c0 0.511872 0.831792 1.471632 2.239441 2.495376 3.071232 2.303424 7.67808 3.775056 12.924768 3.775057h243.84304a21.242689 21.242689 0 0 0 12.924768-3.775057c1.343664-1.023744 2.23944-1.983504 2.239441-2.495376v-33.143714c0-0.511872-0.831792-1.471632-2.239441-2.495376a21.690577 21.690577 0 0 0-12.924768-3.711072z"  /><path d="M472.585854 96.615846l39.286178 50.803299 42.037491-51.315171 32.951762 27.00125-58.929268 72.045988-16.891777 20.666833-16.379905-21.178705-55.730068-72.045988zM806.83829 216.457886a21.306673 21.306673 0 0 0-30.264433 30.008497l0.127968 0.127968 70.062484 70.062485a21.306673 21.306673 0 0 0 30.136466-30.136466l-70.062485-70.062484zM524.220945 522.237441a83.051237 83.051237 0 1 1 0 166.102474 83.051237 83.051237 0 0 1 0-166.102474z m22.010497 61.104723a31.032242 31.032242 0 1 0-43.829043 43.893027 31.032242 31.032242 0 0 0 43.829043-43.893027z"  /><path d="M556.276931 538.105474a31.992002 31.992002 0 0 1-63.984004 0v-127.968008a31.992002 31.992002 0 0 1 63.984004 0v127.968008z"  /></svg>
