<svg viewBox="0 0 1080 1024" version="1.1" xmlns="http://www.w3.org/2000/svg" xmlns:xlink="http://www.w3.org/1999/xlink" width="210.9375" height="200"><path d="M1012.622222 284.444444v199.111112c0 176.355556-73.955556 307.2-199.111111 403.911111-45.511111 34.133333-91.022222 62.577778-142.222222 79.644444-34.133333 11.377778-56.888889 22.755556-79.644445 28.444445h-17.066666c-22.755556-5.688889-45.511111-11.377778-79.644445-28.444445-51.2-22.755556-96.711111-45.511111-142.222222-79.644444-125.155556-96.711111-193.422222-227.555556-193.422222-403.911111V290.133333c0-34.133333 28.444444-56.888889 62.577778-51.2 22.755556 5.688889 45.511111 5.688889 68.266666 5.688889 96.711111 0 187.733333-28.444444 261.688889-85.333333 17.066667-17.066667 45.511111-17.066667 68.266667 0 73.955556 51.2 164.977778 85.333333 261.688889 85.333333 22.755556 0 45.511111 0 68.266666-5.688889 34.133333-11.377778 62.577778 11.377778 62.577778 45.511111z m-130.844444 11.377778c-108.088889 0-210.488889-34.133333-295.822222-96.711111C506.311111 261.688889 398.222222 295.822222 290.133333 295.822222c-22.755556 0-51.2 0-73.955555-5.688889v187.733334c0 159.288889 62.577778 278.755556 176.355555 358.4 39.822222 28.444444 85.333333 56.888889 130.844445 73.955555 28.444444 11.377778 51.2 17.066667 68.266666 22.755556 17.066667-5.688889 39.822222-11.377778 68.266667-22.755556 45.511111-17.066667 85.333333-45.511111 125.155556-73.955555 108.088889-85.333333 176.355556-199.111111 176.355555-358.4V284.444444c-28.444444 5.688889-56.888889 11.377778-79.644444 11.377778z"></path><path d="M585.955556 648.533333c-91.022222 0-159.288889-68.266667-159.288889-153.6S494.933333 341.333333 585.955556 341.333333s159.288889 68.266667 159.288888 153.6-68.266667 153.6-159.288888 153.6z m0-56.888889c56.888889 0 102.4-45.511111 102.4-96.711111S642.844444 398.222222 585.955556 398.222222s-102.4 45.511111-102.4 96.711111 45.511111 96.711111 102.4 96.711111z"></path><path d="M557.511111 642.844444h56.888889v130.844445h-56.888889z"></path></svg>