<svg viewBox="0 0 1024 1024" version="1.1" xmlns="http://www.w3.org/2000/svg" xmlns:xlink="http://www.w3.org/1999/xlink" width="128" height="128"><path d="M526.628571 182.125714a239.908571 239.908571 0 0 1 176.274286 68.754286 185.051429 185.051429 0 0 1 43.154286 146.285714 78.262857 78.262857 0 0 0 19.017143 57.782857 73.142857 73.142857 0 0 0 53.394285 24.868572 131.657143 131.657143 0 0 1 146.285715 146.285714 179.931429 179.931429 0 0 1-196.022857 194.56H258.925714A180.662857 180.662857 0 0 1 62.171429 650.24a183.588571 183.588571 0 0 1 175.542857-176.274286 73.142857 73.142857 0 0 0 64.365714-80.457143 185.782857 185.782857 0 0 1 47.542857-146.285714 247.222857 247.222857 0 0 1 177.005714-65.097143m0-62.171428c-146.285714 0-296.96 92.16-286.72 277.211428a13.165714 13.165714 0 0 1-10.971428 15.36C178.468571 420.571429 0 460.8 0 650.24A241.371429 241.371429 0 0 0 258.925714 877.714286h507.611429A240.64 240.64 0 0 0 1024 622.445714a194.56 194.56 0 0 0-203.337143-205.531428 13.165714 13.165714 0 0 1-12.434286-15.36c16.091429-187.977143-132.388571-281.6-281.6-281.6z"></path><path d="M782.628571 595.382857c-219.428571 0-417.645714-46.08-526.628571-225.28l36.571429-22.674286c126.537143 210.651429 400.822857 219.428571 677.302857 195.291429l3.657143 43.154286c-63.634286 5.851429-128 9.508571-190.902858 9.508571zM460.068571 230.4l-43.154285-4.388571c0-24.868571 5.851429-49.005714 10.24-73.142858l43.154285 7.314286c-3.657143 23.405714-7.314286 46.811429-10.24 70.217143z"></path><path d="M590.994286 787.748571a501.028571 501.028571 0 0 1-89.965715-103.131428l36.571429-26.331429a473.234286 473.234286 0 0 0 81.92 93.622857z m-124.342857-163.108571a603.428571 603.428571 0 0 1-42.422858-130.194286l43.154286-8.777143a512 512 0 0 0 39.497143 119.954286z m-52.662858-197.485714a804.571429 804.571429 0 0 1-4.388571-84.845715V292.571429h43.885714v47.542857a721.92 721.92 0 0 0 4.388572 80.457143zM711.68 868.205714c-23.405714-12.434286-46.08-25.6-65.828571-38.765714l24.868571-36.571429a531.748571 531.748571 0 0 0 60.708571 35.84z"></path><path d="M419.84 868.205714l-19.748571-39.497143 13.165714-6.582857C590.994286 731.428571 758.491429 643.657143 788.48 448.365714l43.154286 6.582857c-32.914286 219.428571-219.428571 313.051429-398.628572 405.942858z"></path><path d="M454.217143 511.268571m-63.634286 0a63.634286 63.634286 0 1 0 127.268572 0 63.634286 63.634286 0 1 0-127.268572 0Z"></path><path d="M768 574.902857m-63.634286 0a63.634286 63.634286 0 1 0 127.268572 0 63.634286 63.634286 0 1 0-127.268572 0Z"></path><path d="M590.262857 753.371429m-63.634286 0a63.634286 63.634286 0 1 0 127.268572 0 63.634286 63.634286 0 1 0-127.268572 0Z"></path></svg>