<svg t="1750816397451" class="icon" viewBox="0 0 1024 1024" version="1.1" xmlns="http://www.w3.org/2000/svg" p-id="18139" width="200" height="200"><path d="M861.587998 0.057126H162.722442a147.87317 147.87317 0 0 0-100.5341 39.10797A131.042411 131.042411 0 0 0 20.48 134.744154v782.159388a38.903216 38.903216 0 0 0 15.49986 28.78838l100.00174 69.616281a54.669256 54.669256 0 0 0 59.378592-0.552836l108.519496-77.663103 112.819326 78.215939a49.018052 49.018052 0 0 0 28.870281 8.681559 49.918968 49.918968 0 0 0 29.402641-9.234395l107.495727-77.826906 111.222246 78.215939a53.768339 53.768339 0 0 0 58.825757-0.552836l96.787106-88.535528a44.001584 44.001584 0 0 0 14.9675-35.852385V264.005207c79.669691-1.085195 139.027808-56.491564 139.027808-129.261053A137.758334 137.758334 0 0 0 861.587998 0.057126z m-56.143483 885.826221a19.799689 19.799689 0 0 1-6.961628 13.575174l-68.961069 64.087929a12.285226 12.285226 0 0 1-12.838061 0.552836l-104.301569-74.960354a42.38403 42.38403 0 0 0-58.293397-0.552836l-102.131179 73.854684a11.978095 11.978095 0 0 1-13.370421 0l-106.942892-74.407519a41.85167 41.85167 0 0 0-58.293397 0l-103.236849 76.045549a11.15908 11.15908 0 0 1-12.838062-0.552835L87.229728 903.778826a20.884884 20.884884 0 0 1-6.941153-13.575175L79.223856 240.642802V145.616579c0.53236-3.80842 12.285226-86.897499 84.481404-86.897499h5.876433a78.134037 78.134037 0 0 1 60.504738 85.812304 70.988131 70.988131 0 0 1-66.83163 54.853534 28.849806 28.849806 0 0 0-32.043964 29.320739 33.129159 33.129159 0 0 0 32.084915 34.214355h642.148763z m56.737269-683.242844l-596.754853-4.34078a76.823613 76.823613 0 0 0 25.123287-63.473668 110.730837 110.730837 0 0 0-25.676122-74.939878l597.307688-2.252292c31.020196 1.63803 82.351965 13.042815 82.351965 72.769489-0.061426 42.363554-43.448749 72.237129-82.351965 72.237129z" p-id="18140"></path><path d="M760.931046 695.073312H205.700257a32.822029 32.822029 0 0 0 0 65.644057h554.657479a33.907224 33.907224 0 0 0 33.149634-32.760602 32.63775 32.63775 0 0 0-32.576324-32.883455zM524.297118 462.984917h236.040142a32.822029 32.822029 0 0 0 0-65.644057H524.317593a32.822029 32.822029 0 0 0 0 65.644057z m0 148.876464h236.040142a32.822029 32.822029 0 0 0 0-65.644058H524.317593a32.822029 32.822029 0 0 0 0 65.644058zM173.123933 430.183364a32.63775 32.63775 0 0 0 32.555849 32.760602h55.815877v23.444307H205.700257a32.822029 32.822029 0 0 0 0 65.644057h55.815877v56.266335a32.555849 32.555849 0 0 0 65.111698 0.593786v-56.860121h55.815877a33.907224 33.907224 0 0 0 33.149634-32.760602 32.63775 32.63775 0 0 0-32.555848-32.760603h-56.389188v-23.444306h55.815877a33.907224 33.907224 0 0 0 33.149635-32.760603 32.63775 32.63775 0 0 0-32.555849-32.760603h-31.982538l41.851669-46.294826a34.460059 34.460059 0 0 0 8.722511-23.444307 33.600093 33.600093 0 0 0-10.462918-22.85052 34.930993 34.930993 0 0 0-23.260027-8.783936 33.108684 33.108684 0 0 0-22.666242 10.544819l-51.741277 56.860121-53.481684-56.860121a30.242131 30.242131 0 0 0-22.666242-9.971509 33.866273 33.866273 0 0 0-23.260028 8.783937 30.713065 30.713065 0 0 0-9.889607 22.85052 34.460059 34.460059 0 0 0 8.722511 23.444306l42.445455 45.721516h-29.075034a32.760603 32.760603 0 0 0-33.170111 32.617275z" p-id="18141"></path></svg>
