<svg t="1750772062449" class="icon" viewBox="0 0 1024 1024" version="1.1" xmlns="http://www.w3.org/2000/svg" p-id="68282" width="200" height="200"><path d="M828.952381 146.285714a73.142857 73.142857 0 0 1 73.142857 73.142857v463.238096a73.142857 73.142857 0 0 1-73.142857 73.142857H195.047619a73.142857 73.142857 0 0 1-73.142857-73.142857V219.428571a73.142857 73.142857 0 0 1 73.142857-73.142857h633.904762z m0 73.142857H195.047619v463.238096h633.904762V219.428571z m-96.792381 84.577524v195.047619h-73.142857v-70.070857l-136.362667 136.362667-86.186666-86.211048-137.947429 137.947429-51.712-51.736381 189.635048-189.635048 86.211047 86.186667 84.772572-84.772572h-70.290286v-73.142857h195.047619zM268.190476 804.571429h487.619048v73.142857H268.190476z" p-id="68283"></path></svg>
