<svg xmlns="http://www.w3.org/2000/svg" xmlns:xlink="http://www.w3.org/1999/xlink" width="282" height="260" viewBox="0 0 282 260" fill="none"><rect x="0" y="0" width="0" height="0" fill="rgba(249, 249, 249, 1)" /><defs><rect id="path_0" x="0" y="0" width="282" height="260" /></defs><g opacity="1" transform="translate(0 0)  rotate(0 141 130)"><rect fill="#FFFFFF" opacity="1" transform="translate(0 0)  rotate(0 141 130)" x="0" y="0" width="282" height="260" /><mask id="bg-mask-0" fill="white"><use xlink:href="#path_0"></use></mask><g mask="url(#bg-mask-0)" ><path id="矩形 2" fill-rule="evenodd" style="fill:#F8F8F9" transform="translate(0 0)  rotate(0 141 130)" opacity="1" d="M0,260L282,260L282,0L0,0L0,260Z " /><path id="圆形 1" fill-rule="evenodd" style="fill:#FFFFFF" transform="translate(247 202)  rotate(0 12.5 12.5)" opacity="1" d="M12.5,0C5.6,0 0,5.6 0,12.5C0,19.4 5.6,25 12.5,25C19.4,25 25,19.4 25,12.5C25,5.6 19.4,0 12.5,0Z " /><path  id="圆形 1" style="stroke:#000000; stroke-width:4; stroke-opacity:1; stroke-dasharray:0 0" transform="translate(247 202)  rotate(0 12.5 12.5)" d="M12.5,0C5.6,0 0,5.6 0,12.5C0,19.4 5.6,25 12.5,25C19.4,25 25,19.4 25,12.5C25,5.6 19.4,0 12.5,0Z " /><path id="圆形 1" fill-rule="evenodd" style="fill:#FFFFFF" transform="translate(198 37)  rotate(0 12.5 12.5)" opacity="1" d="M12.5,0C5.6,0 0,5.6 0,12.5C0,19.4 5.6,25 12.5,25C19.4,25 25,19.4 25,12.5C25,5.6 19.4,0 12.5,0Z " /><path  id="圆形 1" style="stroke:#000000; stroke-width:4; stroke-opacity:1; stroke-dasharray:0 0" transform="translate(198 37)  rotate(0 12.5 12.5)" d="M12.5,0C5.6,0 0,5.6 0,12.5C0,19.4 5.6,25 12.5,25C19.4,25 25,19.4 25,12.5C25,5.6 19.4,0 12.5,0Z " /><path id="圆形 1" fill-rule="evenodd" style="fill:#FFFFFF" transform="translate(5 202)  rotate(0 12.5 12.5)" opacity="1" d="M12.5,0C5.6,0 0,5.6 0,12.5C0,19.4 5.6,25 12.5,25C19.4,25 25,19.4 25,12.5C25,5.6 19.4,0 12.5,0Z " /><path  id="圆形 1" style="stroke:#000000; stroke-width:4; stroke-opacity:1; stroke-dasharray:0 0" transform="translate(5 202)  rotate(0 12.5 12.5)" d="M12.5,0C5.6,0 0,5.6 0,12.5C0,19.4 5.6,25 12.5,25C19.4,25 25,19.4 25,12.5C25,5.6 19.4,0 12.5,0Z " /><path id="圆形 1" fill-rule="evenodd" style="fill:#FFFFFF" transform="translate(126 202)  rotate(0 12.5 12.5)" opacity="1" d="M12.5,0C5.6,0 0,5.6 0,12.5C0,19.4 5.6,25 12.5,25C19.4,25 25,19.4 25,12.5C25,5.6 19.4,0 12.5,0Z " /><path  id="圆形 1" style="stroke:#000000; stroke-width:4; stroke-opacity:1; stroke-dasharray:0 0" transform="translate(126 202)  rotate(0 12.5 12.5)" d="M12.5,0C5.6,0 0,5.6 0,12.5C0,19.4 5.6,25 12.5,25C19.4,25 25,19.4 25,12.5C25,5.6 19.4,0 12.5,0Z " /><path id="圆形 1" fill-rule="evenodd" style="fill:#FFFFFF" transform="translate(54 37)  rotate(0 12.5 12.5)" opacity="1" d="M12.5,0C5.6,0 0,5.6 0,12.5C0,19.4 5.6,25 12.5,25C19.4,25 25,19.4 25,12.5C25,5.6 19.4,0 12.5,0Z " /><path  id="圆形 1" style="stroke:#000000; stroke-width:4; stroke-opacity:1; stroke-dasharray:0 0" transform="translate(54 37)  rotate(0 12.5 12.5)" d="M12.5,0C5.6,0 0,5.6 0,12.5C0,19.4 5.6,25 12.5,25C19.4,25 25,19.4 25,12.5C25,5.6 19.4,0 12.5,0Z " /><path id="直线 1"  style="fill:#CCCCCC" transform="translate(20.100000000000023 59)  rotate(0 20.949743244710266 73.05551490463068)" opacity="1" d="" /><path  id="直线 1" style="stroke:#000000; stroke-width:12; stroke-opacity:1; stroke-dasharray:0 0" transform="translate(20.100000000000023 59)  rotate(0 20.949743244710266 73.05551490463068)" d="M41.9,0L0,146.11 " /><path id="直线 1"  style="fill:#CCCCCC" transform="translate(70 59)  rotate(0 31.731181104394736 73.43794758651757)" opacity="1" d="" /><path  id="直线 1" style="stroke:#000000; stroke-width:12; stroke-opacity:1; stroke-dasharray:0 0" transform="translate(70 59)  rotate(0 31.731181104394736 73.43794758651757)" d="M0,0L63.46,146.88 " /><path id="直线 1"  style="fill:#CCCCCC" transform="translate(214 60)  rotate(0 21.3085415508611 71.90929047748439)" opacity="1" d="" /><path  id="直线 1" style="stroke:#000000; stroke-width:12; stroke-opacity:1; stroke-dasharray:0 0" transform="translate(214 60)  rotate(0 21.3085415508611 71.90929047748439)" d="M0,0L42.62,143.82 " /><path id="直线 1"  style="fill:#CCCCCC" transform="translate(142.98091314640453 59)  rotate(0 31.009543426797745 73.20285661407992)" opacity="1" d="" /><path  id="直线 1" style="stroke:#000000; stroke-width:12; stroke-opacity:1; stroke-dasharray:0 0" transform="translate(142.98091314640453 59)  rotate(0 31.009543426797745 73.20285661407992)" d="M62.02,0L0,146.41 " /><path id="直线 1"  style="fill:#CCCCCC" transform="translate(25.200000000000045 57)  rotate(0 88.39756696843482 75.11238349340994)" opacity="1" d="" /><path  id="直线 1" style="stroke:#000000; stroke-width:6; stroke-opacity:1; stroke-dasharray:0 0" transform="translate(25.200000000000045 57)  rotate(0 88.39756696843482 75.11238349340994)" d="M176.8,0L0,150.22 " /><path id="直线 1"  style="fill:#CCCCCC" transform="translate(73.7495784112624 58.94738521626044)  rotate(0 89.12521079436878 75.02630739186976)" opacity="1" d="" /><path  id="直线 1" style="stroke:#000000; stroke-width:6; stroke-opacity:1; stroke-dasharray:0 0" transform="translate(73.7495784112624 58.94738521626044)  rotate(0 89.12521079436878 75.02630739186976)" d="M178.25,150.05L0,0 " /></g></g></svg>