<svg viewBox="0 0 1024 1024" version="1.1" xmlns="http://www.w3.org/2000/svg" width="128" height="128"><path d="M875.354839 24.774194A123.870968 123.870968 0 0 1 999.225806 148.645161v726.709678a123.870968 123.870968 0 0 1-123.870967 123.870967H148.645161A123.870968 123.870968 0 0 1 24.774194 875.354839V148.645161A123.870968 123.870968 0 0 1 148.645161 24.774194z m0 82.580645H148.645161A41.290323 41.290323 0 0 0 107.354839 148.645161v726.709678A41.290323 41.290323 0 0 0 148.645161 916.645161h726.709678a41.290323 41.290323 0 0 0 41.290322-41.290322V148.645161A41.290323 41.290323 0 0 0 875.354839 107.354839zM338.580645 528.516129a123.870968 123.870968 0 1 1 0 247.741936 123.870968 123.870968 0 0 1 0-247.741936zM809.290323 619.354839a41.290323 41.290323 0 0 1 2.708645 82.498064L809.290323 701.935484H545.032258a41.290323 41.290323 0 0 1-2.708645-82.498065L545.032258 619.354839h264.258065zM338.580645 611.096774a41.290323 41.290323 0 1 0 0 82.580645 41.290323 41.290323 0 0 0 0-82.580645z m138.322581-316.349935a41.290323 41.290323 0 0 1-1.502968 56.253935l-2.147097 2.031484-129.61858 114.357677a57.806452 57.806452 0 0 1-73.182968 2.708646l-2.675613-2.147097-46.905806-40.216774a41.290323 41.290323 0 0 1 51.431225-64.545033l2.312258 1.849807 30.538323 26.178064 113.465806-100.120774a41.290323 41.290323 0 0 1 58.28542 3.633549zM809.290323 338.580645a41.290323 41.290323 0 0 1 2.708645 82.498065L809.290323 421.16129H545.032258a41.290323 41.290323 0 0 1-2.708645-82.498064L545.032258 338.580645h264.258065z"></path></svg>