<?xml version="1.0" standalone="no"?><!DOCTYPE svg PUBLIC "-//W3C//DTD SVG 1.1//EN" "http://www.w3.org/Graphics/SVG/1.1/DTD/svg11.dtd"><svg class="icon" width="200px" height="200.00px" viewBox="0 0 1024 1024" version="1.1" xmlns="http://www.w3.org/2000/svg"><path d="M22.4 700.8h848v-236.8H22.4v236.8zM128 617.6c-19.2 0-38.4-16-38.4-38.4 0-19.2 16-38.4 38.4-38.4 19.2 0 38.4 16 38.4 38.4s-19.2 38.4-38.4 38.4M22.4 771.2V928c0 44.8 38.4 80 86.4 80h761.6v-236.8H22.4z m108.8 153.6c-19.2 0-38.4-16-38.4-38.4 0-19.2 16-38.4 38.4-38.4 19.2 0 38.4 16 38.4 38.4-3.2 22.4-19.2 38.4-38.4 38.4M374.4 211.2c9.6-22.4 25.6-41.6 44.8-57.6H22.4v236.8h400c-54.4-38.4-76.8-112-48-179.2z m-230.4 96c-19.2 0-38.4-16-38.4-38.4 0-19.2 16-38.4 38.4-38.4 19.2 0 38.4 16 38.4 38.4-3.2 22.4-19.2 38.4-38.4 38.4z"  /><path d="M995.2 224c-22.4-48-73.6-76.8-124.8-70.4-3.2-12.8-6.4-28.8-12.8-41.6C832 54.4 774.4 12.8 710.4 12.8H704c-64 0-121.6 38.4-147.2 99.2-6.4 16-9.6 28.8-12.8 41.6-64-6.4-121.6 38.4-131.2 102.4-6.4 51.2 22.4 102.4 70.4 124.8 16 6.4 32 9.6 48 9.6h358.4c16 0 32-3.2 48-9.6 57.6-25.6 86.4-96 57.6-156.8z"  /></svg>
