<svg t="1750816340661" class="icon" viewBox="0 0 1024 1024" version="1.1" xmlns="http://www.w3.org/2000/svg" p-id="17014" width="200" height="200"><path d="M826.562187 365.247921a36.590534 36.590534 0 0 0-36.641142-36.641143H350.834641a36.641143 36.641143 0 0 0 0 73.231676h439.137013a36.641143 36.641143 0 0 0 36.590533-36.590533z m0 219.897467a36.590534 36.590534 0 0 0-36.641142-36.641143H350.834641a36.641143 36.641143 0 0 0 0 73.231676h439.137013a36.641143 36.641143 0 0 0 36.590533-36.641143z m-475.727546 183.256323a36.641143 36.641143 0 0 0 0 73.231677h219.543202a36.641143 36.641143 0 0 0 0-73.231677z" p-id="17015"></path><path d="M643.761347 950.443412H275.426765a36.539924 36.539924 0 0 1-36.489315-36.641143V255.223274a36.539924 36.539924 0 0 1 36.489315-36.641143h588.18144a36.539924 36.539924 0 0 1 36.489315 36.641143v329.871504a36.489315 36.489315 0 1 0 73.029239 0V218.63274a73.130458 73.130458 0 0 0-73.130458-73.231677h-72.067662V73.232183A73.130458 73.130458 0 0 0 754.747572 0.000506H93.536892A73.231676 73.231676 0 0 0 20.406434 73.232183v731.861281a73.130458 73.130458 0 0 0 73.130458 73.231676h72.21949v72.118272a73.130458 73.130458 0 0 0 73.130458 73.231676h404.874507a36.641143 36.641143 0 0 0 0-73.231676zM165.857601 218.63274v586.460724h-35.730175a36.539924 36.539924 0 0 1-36.489315-36.641143V109.873325a36.539924 36.539924 0 0 1 36.489315-36.641142h588.232049a36.539924 36.539924 0 0 1 36.489315 36.641142v35.42652h-516.214996A73.231676 73.231676 0 0 0 165.857601 218.63274z" p-id="17016"></path><path d="M957.741528 950.59524h-21.762005a36.944799 36.944799 0 0 1-36.995408-36.995408v-130.47081l42.106949 42.106948a36.590534 36.590534 0 0 0 51.722718-51.722718l-103.496046-103.496046a35.882003 35.882003 0 0 0-25.304657-10.627956h-0.70853a36.84358 36.84358 0 0 0-25.304657 10.627956l-103.344218 103.344218a36.590534 36.590534 0 0 0 51.722719 51.722718l39.576483-39.576483v128.29461a109.923429 109.923429 0 0 0 109.872819 109.872819h22.87541a36.590534 36.590534 0 1 0-0.657921-73.130458z" p-id="17017"></path></svg>
