<svg viewBox="0 0 1024 1024" version="1.1" xmlns="http://www.w3.org/2000/svg" width="200" height="200"><path d="M512 167.808c17.664 0 32-14.528 32-32.448V70.464a32.256 32.256 0 0 0-32-32.448c-17.664 0-32 14.528-32 32.448v64.896c0 17.92 14.336 32.448 32 32.448zM131.84 282.56c12.608 12.288 32.576 12.16 44.864-0.384a32.768 32.768 0 0 0 0.448-45.44L131.84 190.72a31.68 31.68 0 0 0-44.864 0.384 32.768 32.768 0 0 0-0.448 45.44l45.312 45.952z m813.312-59.328a31.68 31.68 0 0 0-45.248 0l-45.248 45.888a32.768 32.768 0 0 0 0.384 45.44 31.68 31.68 0 0 0 44.864 0.448l45.248-45.888a32.768 32.768 0 0 0 0-45.888zM912 914.24h-48V557.248c0-197.12-157.632-356.992-352-356.992S160 360.128 160 557.248V914.24h-48c-17.664 0-32 14.528-32 32.448s14.336 32.448 32 32.448h800c17.664 0 32-14.528 32-32.448a32.256 32.256 0 0 0-32-32.448z m-368 0V784.448A32.256 32.256 0 0 0 512 752c-17.664 0-32 14.528-32 32.448V914.24H224V557.248c0-161.28 128.896-292.032 288-292.032s288 130.752 288 292.032V914.24H544z m-32-454.336c-70.72 0-128 58.112-128 129.792s57.28 129.856 128 129.856 128-58.112 128-129.856c0-71.68-57.28-129.792-128-129.792z m0 194.688a63.872 63.872 0 0 1-55.424-32.448 65.728 65.728 0 0 1 0-64.896 63.872 63.872 0 0 1 55.488-32.448c35.328 0 64 29.056 64 64.896S547.328 654.72 512 654.592z"></path></svg>