<svg viewBox="0 0 1024 1024" version="1.1" xmlns="http://www.w3.org/2000/svg" width="200" height="200"><path d="M790.528 340.992c-48.64-109.568-158.72-181.76-279.552-181.76-101.376 0-195.072 50.688-251.392 132.096-5.12-1.024-10.24-1.536-15.36-1.536-41.472 0-75.264 32.256-77.824 72.704C67.072 408.576 0 508.928 0 622.592c0 158.208 129.024 287.232 287.232 287.232h447.488c158.208 0 287.232-129.024 287.232-287.232 0-137.216-98.304-254.976-231.424-281.6zM189.44 424.448c8.192 8.192 17.92 14.336 29.184 17.92 2.56 77.824 23.552 153.088 61.44 220.16-5.12 5.632-9.216 11.776-12.8 18.432-73.216-25.088-138.752-69.632-189.44-129.536C96.768 496.128 137.216 450.048 189.44 424.448z m97.792 419.84c-118.272 0-214.528-92.672-221.184-209.408C122.88 688.128 192 727.552 266.24 749.568c12.8 26.112 39.424 44.544 70.656 44.544 13.824 0 27.136-3.584 38.4-9.728 24.576 23.04 51.2 43.008 78.848 59.904H287.232z m447.488 0h-45.568c-104.96 0-202.24-44.032-274.944-114.688 1.024-4.608 1.024-9.216 1.024-13.824 0-41.472-32.256-75.264-73.216-77.824-35.328-59.904-56.32-129.536-57.856-202.752 22.528-13.824 37.888-38.4 37.888-67.072 0-13.824-3.584-26.624-9.728-37.888C356.352 265.728 430.592 225.28 510.976 225.28c99.84 0 190.464 62.976 225.28 156.672l7.168 18.432 19.968 2.56c110.08 14.336 193.024 108.544 193.024 219.648-0.512 122.368-99.84 221.696-221.696 221.696z"></path></svg>