<svg viewBox="0 0 1024 1024" version="1.1" xmlns="http://www.w3.org/2000/svg" xmlns:xlink="http://www.w3.org/1999/xlink" width="128" height="128"><path d="M460.8 221.866667h405.333333c12.8 0 21.333333-8.533333 21.333334-21.333334s-8.533333-21.333333-21.333334-21.333333h-405.333333c-12.8 0-21.333333 8.533333-21.333333 21.333333s8.533333 21.333333 21.333333 21.333334zM861.866667 802.133333h-119.466667c-12.8 0-21.333333 8.533333-21.333333 21.333334s8.533333 21.333333 21.333333 21.333333h119.466667c12.8 0 21.333333-8.533333 21.333333-21.333333s-8.533333-21.333333-21.333333-21.333334zM439.466667 533.333333c8.533333 46.933333 51.2 85.333333 102.4 85.333334 59.733333 0 106.666667-46.933333 106.666666-106.666667s-46.933333-106.666667-106.666666-106.666667c-51.2 0-93.866667 38.4-102.4 85.333334H264.533333V307.2c46.933333-8.533333 85.333333-51.2 85.333334-102.4 0-59.733333-46.933333-106.666667-106.666667-106.666667S136.533333 145.066667 136.533333 204.8c0 51.2 38.4 93.866667 85.333334 102.4v430.933333c0 59.733333 46.933333 106.666667 106.666666 106.666667h106.666667c8.533333 46.933333 51.2 85.333333 106.666667 85.333333 59.733333 0 106.666667-46.933333 106.666666-106.666666s-46.933333-106.666667-106.666666-106.666667c-51.2 0-93.866667 38.4-106.666667 85.333333H332.8c-34.133333 0-64-29.866667-64-64v-204.8h170.666667z m106.666666-85.333333c34.133333 0 64 29.866667 64 64s-29.866667 64-64 64-64-29.866667-64-64 25.6-64 64-64z m0 311.466667c34.133333 0 64 29.866667 64 64s-29.866667 64-64 64-64-29.866667-64-64 25.6-64 64-64z m-366.933333-554.666667c0-34.133333 29.866667-64 64-64s64 29.866667 64 64-25.6 59.733333-59.733333 59.733333-68.266667-25.6-68.266667-59.733333zM861.866667 490.666667h-119.466667c-12.8 0-21.333333 8.533333-21.333333 21.333333s8.533333 21.333333 21.333333 21.333333h119.466667c12.8 0 21.333333-8.533333 21.333333-21.333333s-8.533333-21.333333-21.333333-21.333333z"></path></svg>