<svg t="1750771362675" class="icon" viewBox="0 0 1024 1024" version="1.1" xmlns="http://www.w3.org/2000/svg" p-id="62246" width="200" height="200"><path d="M506.160455 966.985524H187.466835c-71.049931 0-130.758118-62.613923-130.758117-142.193595V256.017552c0-76.861402 56.896184-142.193594 131.226784-142.193595v28.120025a83.797675 83.797675 0 0 0 85.391144 85.29741h366.591396a77.61127 77.61127 0 0 0 59.708187-25.589223 81.73554 81.73554 0 0 0 25.589223-59.708187v-28.120025c71.049931 0 131.226785 65.613392 131.226784 142.193595v176.312558a28.120025 28.120025 0 0 0 56.802452 0V256.017552c0-110.980366-85.29741-199.089779-187.466836-199.089779h-5.717738A82.766608 82.766608 0 0 0 639.918042 0.031588H273.045445a77.33007 77.33007 0 0 0-59.708187 25.589223 117.541706 117.541706 0 0 0-19.965218 31.306962h-2.812002C85.29741 56.927773 0 145.037185 0 256.017552V824.885663c0 110.886633 85.29741 199.089779 187.466835 199.089779h315.881617a26.995224 26.995224 0 0 0 28.120026-28.120025 26.245357 26.245357 0 0 0-25.308023-28.869893zM244.550486 85.328998A25.964157 25.964157 0 0 1 253.080227 65.64498a25.870423 25.870423 0 0 1 19.965218-8.529741h366.872597a28.120025 28.120025 0 0 1 28.120025 28.120026v56.896184a25.589223 25.589223 0 0 1-8.529741 19.871485 32.244296 32.244296 0 0 1-22.121086 8.623474H273.045445a26.901491 26.901491 0 0 1-28.120025-28.120025z m378.308074 278.763184l-110.980367 187.466835h45.554441a287.480392 287.480392 0 0 0-37.0247 51.178446h-45.460707v79.673405h17.059482a316.818951 316.818951 0 0 0-5.717739 51.178446H478.04043v111.0741a41.14897 41.14897 0 0 1-5.624005 25.589223c-2.905736 5.717738-11.435477 5.717738-22.777221 5.717738a43.492306 43.492306 0 0 1-22.77722-5.717738c-5.717738-5.624005-5.717738-14.153746-5.717739-25.589223V733.776781H284.387189a25.589223 25.589223 0 1 1 0-51.178446h131.226785v-76.767669h-131.226785a22.589754 22.589754 0 0 1-25.589223-25.589223 22.683487 22.683487 0 0 1 25.589223-25.682956h96.732887c-19.965218-31.213228-37.0247-62.52019-56.896185-93.733418s-37.493367-62.52019-56.896184-93.733418c-8.529741-17.059482-8.529741-31.306961 5.717738-39.836702a27.088958 27.088958 0 0 1 19.871485-5.624005c5.717738 0 11.341744 5.624005 17.059482 17.059482l131.226785 215.58686h14.247479c19.871485-34.118964 42.648705-71.049931 62.52019-108.07463 22.77722-36.930967 42.648705-71.049931 62.613923-107.980897 8.529741-11.435477 14.153746-17.059482 19.871484-17.059482a72.455932 72.455932 0 0 1 19.871485 5.624005 20.808819 20.808819 0 0 1 11.435477 17.059482 50.241112 50.241112 0 0 1-8.904675 20.246418z m145.005597 147.8176a255.985963 255.985963 0 1 0 255.985963 255.985963 254.954896 254.954896 0 0 0-255.985963-255.985963z m0 455.075742a199.089779 199.089779 0 1 1 199.089779-199.089779 197.871245 197.871245 0 0 1-199.089779 199.089779z" p-id="62247"></path><path d="M871.720784 655.415644v181.28043c0 20.340152-4.780404 30.463361-17.434416 36.462299s-31.213228 6.936273-56.240051 6.936273a147.067732 147.067732 0 0 0-14.80988-37.493367c15.840948 1.218534 36.649766 0.937334 42.648705 0.937334s7.68614-1.968402 7.686141-6.936273v-28.120025H733.93266a131.226785 131.226785 0 0 1-41.617638 72.737132 140.600126 140.600126 0 0 0-28.120025-26.05789c36.556033-31.119495 39.461769-77.142603 39.461769-114.63597v-85.109943z m-132.257853 117.166772h93.733418v-23.808288h-92.233683c-0.468667 7.498673-0.468667 15.653481-1.499735 23.808288z m1.499735-58.020986h92.046216v-23.902021h-92.046216z" p-id="62248"></path></svg>
