<svg xmlns="http://www.w3.org/2000/svg" viewBox="0 0 1051 1024" version="1.1"><path d="M401.70724761 441.99962269a24.33857541 24.33857541 0 0 0 34.4157217 34.36923065 137.89534992 137.89534992 0 1 1 0 195.01080342l28.68558033-28.68557934-114.7074518-22.94381545 22.93219196 114.70745179 28.68558033-28.68558032c72.73677502 72.73677502 191.09385028 72.76002103 263.84224879 0s72.74839753-191.10547378 0-263.8422488-191.09385028-72.69028298-263.85387131 0.06973805zM938.94585566 802.97533744a103.44475772 103.44475772 0 0 0-73.95719133 30.99855839l-76.71184271-64.58904802A324.18889847 324.18889847 0 0 0 851.30838561 576.768384c0-173.76394809-135.98917664-315.75059578-307.37040764-325.31632974v-42.87727139a103.78182544 103.78182544 0 1 0-36.92629139 0v42.84240188c-171.36960848 9.56573395-307.39365366 151.55238263-307.39365366 325.31632973a324.28188253 324.28188253 0 0 0 56.5110571 183.4110436l-78.51340843 66.14653007a103.89805552 103.89805552 0 1 0 23.98988518 28.05793791l77.03728692-64.89124523a325.81611956 325.81611956 0 0 0 486.15549511 8.38018715l79.30377295 66.73930397a103.77020194 103.77020194 0 1 0 94.84373391-61.60193451zM109.19104198 960.15325486a52.46625136 52.46625136 0 1 1 52.5127434-52.46625136 52.46625136 52.46625136 0 0 1-52.5127434 52.46625136zM472.39837325 110.65095239a52.46625136 52.46625136 0 1 1 52.45462786 52.46625234 52.44300534 52.44300534 0 0 1-52.45462786-52.46625234zM524.85300111 837.23996053c-143.75334488 0-260.29723092-116.54388703-260.29723092-260.35534645s116.54388703-260.29723092 260.35534645-260.29723191 260.35534645 116.54388703 260.35534645 260.35534645S668.61796948 837.23996053 524.85300111 837.23996053z m417.68436347 122.91329433a52.46625136 52.46625136 0 1 1 52.46625136-52.46625136 52.46625136 52.46625136 0 0 1-52.46625136 52.46625136z" p-id="2250"></path></svg>