<svg viewBox="0 0 1301 1024" version="1.1" xmlns="http://www.w3.org/2000/svg" width="200" height="200"><path d="M1138.909091 0c12.853818 0 23.275636 10.418909 23.275636 23.272727v434.065455c-28.763636-32.590545-64.436364-58.935273-104.730182-76.741818V104.727273H104.727273v616.727272l534.782545 0.00291c8.199273 38.065455 23.559273 73.469091 44.602182 104.730181L650.180364 826.181818l0.001454 93.090909h132.493091c0.353455 0 0.701091 0.029091 1.042909 0.084364 1.432727 0.834909 2.875636 1.656727 4.325818 2.465454 1.969455 2.130909 3.229091 5.410909 3.229091 9.086546v81.454545c0 6.426182-3.848727 11.636364-8.597818 11.636364H412.96c-4.749091 0-8.597818-5.210182-8.597818-11.636364v-81.454545c0-6.426182 3.848727-11.636364 8.597818-11.636364H545.454545l-0.001454-93.090909H23.272727c-12.853818 0-23.272727-10.418909-23.272727-23.272727V23.272727C0 10.418909 10.418909 0 23.272727 0h1115.636364z m2.459636 456.257455c99.825455 99.825455 111.050182 254.702545 33.671273 366.906181L1301.818182 949.946182 1227.764364 1024l-126.781091-126.778182c-112.203636 77.378909-267.080727 66.155636-366.907637-33.671273-112.471273-112.469818-112.471273-294.821818 0-407.29309 112.471273-112.471273 294.821818-112.471273 407.293091 0zM808.130909 530.312727c-71.572364 71.572364-71.572364 187.614545 0 259.185455 71.572364 71.573818 187.614545 71.573818 259.185455 0 71.573818-71.570909 71.573818-187.613091 0-259.185455-71.570909-71.572364-187.613091-71.572364-259.185455 0zM365.394909 144l66.500364 6.603636 111.210182 391.956364 102.248727-204.378182 65.076363 1.780364 36.532364 84.270545a271.371636 271.371636 0 0 0-53.745454 56.596364l-18.06691-41.678546L565.941818 657.454545l-66.676363-6.260363-111.613091-393.367273L305.454545 420.363636l-66.52509-30.232727L365.393455 144z"></path></svg>