<svg viewBox="0 0 1024 1024" version="1.1" xmlns="http://www.w3.org/2000/svg" xmlns:xlink="http://www.w3.org/1999/xlink" width="200" height="200"><path d="M860.16 573.44l0 189.44c0 67.86048-55.01952 122.88-122.88 122.88L276.48 885.76c-67.86048 0-122.88-55.00928-122.88-122.88L153.6 573.44l-30.72 0 0 194.56c0 79.17568 64.18432 143.36 143.36 143.36l481.28 0c79.17568 0 143.36-64.18432 143.36-143.36L890.88 573.44 860.16 573.44zM266.24 768l30.72 0c0-118.76352 96.27648-215.04 215.04-215.04 118.76352 0 215.04 96.27648 215.04 215.04l30.72 0c0-107.71456-69.33504-199.18848-165.77536-232.37632C659.49696 505.09824 706.56 437.30944 706.56 358.4c0-107.44832-87.11168-194.56-194.56-194.56-107.44832 0-194.56 87.11168-194.56 194.56 0 78.90944 47.06304 146.69824 114.57536 177.22368C335.57504 568.81152 266.24 660.28544 266.24 768zM348.16 358.4c0-90.48064 73.35936-163.84 163.84-163.84 90.48064 0 163.84 73.35936 163.84 163.84s-73.34912 163.84-163.84 163.84C421.50912 522.24 348.16 448.88064 348.16 358.4z"></path></svg>