<svg viewBox="0 0 1024 1024" version="1.1" xmlns="http://www.w3.org/2000/svg" width="200" height="200"><path d="M921.8048 231.5264c-22.016-28.928-55.04-65.1264-88.064-101.2736-36.7104-32.5632-73.3696-65.1264-102.7584-86.8352C679.6288 7.168 653.9264 0 639.232 0h-506.368C88.7808 0 52.0192 36.1984 52.0192 79.5648v864.6656c0 43.4176 36.7104 79.5648 80.7424 79.5648h748.6464c44.032 0 80.7424-36.1472 80.7424-79.5648V321.9968c0-14.4896-3.6864-39.8336-40.3968-90.4704z m-135.7824-54.272c33.0752 28.9792 55.0912 57.856 73.4208 83.2h-157.7984V104.96c25.7024 18.0736 51.3536 39.7824 84.3776 72.3456z m113.7664 770.56c0 7.2704-7.3216 14.4896-14.6432 14.4896H132.8128c-7.3216 0-14.6432-7.2192-14.6432-14.4384V83.2c0-7.2192 7.3216-14.4384 14.6432-14.4384h502.784v224.256c0 18.1248 14.6432 32.5632 33.024 32.5632h227.5328v622.2848h3.6352z"></path><path d="M162.2016 817.6128h689.92v83.2H162.2016v-83.2z m499.0976-170.0352h84.3776v126.6176h-84.3776v-126.6176z m-128.512-170.0352h84.48v296.6528h-84.48V477.5424zM404.4288 604.16h84.4288v169.984H404.3776V604.16zM275.968 350.9248h84.3776v423.2704H275.968V350.9248z"></path></svg>