<?xml version="1.0" standalone="no"?><!DOCTYPE svg PUBLIC "-//W3C//DTD SVG 1.1//EN" "http://www.w3.org/Graphics/SVG/1.1/DTD/svg11.dtd"><svg t="1640340247254" class="icon" viewBox="0 0 1024 1024" version="1.1" xmlns="http://www.w3.org/2000/svg" p-id="10298" xmlns:xlink="http://www.w3.org/1999/xlink" width="200" height="200"><defs><style type="text/css"></style></defs><path d="M195.21856 195.2a448 448 0 0 0 0 633.6 32 32 0 0 1-45.248 45.248 512 512 0 0 1 0-724.096 32 32 0 0 1 45.248 45.248z m135.808 135.808a256 256 0 0 0 0 361.984 32 32 0 1 1-45.312 45.312 320 320 0 0 1 0-452.608 32 32 0 0 1 45.312 45.312z m361.984-45.312a32 32 0 0 1 45.312 0 320 320 0 0 1 0 452.608 32 32 0 1 1-45.312-45.312 256 256 0 0 0 0-361.984 32 32 0 0 1 0-45.312z m135.808-135.68a32 32 0 0 1 45.248 0 512 512 0 0 1 0 724.032 32 32 0 0 1-45.248-45.248 448 448 0 0 0 0-633.6 32 32 0 0 1 0-45.248zM640.01856 512a128 128 0 1 1-256 0 128 128 0 0 1 256 0z" p-id="10299"></path></svg>