<svg viewBox="0 0 1024 1024" version="1.1" xmlns="http://www.w3.org/2000/svg" width="200" height="200"><path d="M320 503.466667l140.8 81.066666c12.8 8.533333 21.333333 21.333333 21.333333 38.4v162.133334c0 17.066667-8.533333 29.866667-21.333333 38.4l-140.8 81.066666c-12.8 8.533333-29.866667 8.533333-42.666667 0l-140.8-81.066666c-12.8-8.533333-21.333333-21.333333-21.333333-38.4v-162.133334c0-17.066667 8.533333-29.866667 21.333333-38.4l140.8-81.066666c12.8-8.533333 29.866667-8.533333 42.666667 0z m426.666667 0l140.8 81.066666c12.8 8.533333 21.333333 21.333333 21.333333 38.4v162.133334c0 17.066667-8.533333 29.866667-21.333333 38.4l-140.8 81.066666c-12.8 8.533333-29.866667 8.533333-42.666667 0l-140.8-81.066666c-12.8-8.533333-21.333333-21.333333-21.333333-38.4v-162.133334c0-17.066667 8.533333-29.866667 21.333333-38.4l140.8-81.066666c12.8-8.533333 29.866667-8.533333 42.666667 0z m119.466666 157.866666l-119.466666 72.533334v123.733333l119.466666-68.266667v-128z m-426.666666 0l-119.466667 72.533334v123.733333l119.466667-68.266667v-128z m145.066666 0v123.733334l119.466667 68.266666v-123.733333l-119.466667-68.266667z m-426.666666 0v123.733334L277.333333 853.333333v-123.733333l-119.466666-68.266667zM298.666667 541.866667l-132.266667 76.8L298.666667 695.466667l132.266666-76.8L298.666667 541.866667z m426.666666 0l-132.266666 76.8 132.266666 76.8 132.266667-76.8-132.266667-76.8z m-192-422.4l140.8 81.066666c12.8 8.533333 21.333333 21.333333 21.333334 38.4v162.133334c0 17.066667-8.533333 29.866667-21.333334 38.4l-140.8 81.066666c-12.8 8.533333-29.866667 8.533333-42.666666 0l-140.8-81.066666c-12.8-8.533333-21.333333-21.333333-21.333334-38.4V238.933333c0-17.066667 8.533333-29.866667 21.333334-38.4l140.8-81.066666c12.8-8.533333 29.866667-8.533333 42.666666 0z m119.466667 157.866666l-119.466667 72.533334v123.733333l119.466667-68.266667v-128z m-281.6 0v123.733334l119.466667 68.266666V345.6L371.2 277.333333zM512 157.866667L379.733333 230.4 512 311.466667l132.266667-76.8L512 157.866667z"></path></svg>