<svg viewBox="0 0 1024 1024" version="1.1" xmlns="http://www.w3.org/2000/svg" xmlns:xlink="http://www.w3.org/1999/xlink" width="200" height="200"><path d="M415.915 822.485h176v43.947h-176v-43.947zM172.032 123.691l46.677 46.677-31.146 31.104-46.635-46.677 31.104-31.104zM482.645 0.427h44.032v66.005h-43.989V0.427zM43.093 465.408H109.1v43.99H43.093v-43.99z"></path><path d="M503.893 103.083c-194.346 0-342.101 135.637-342.101 329.984 0 139.136 103.723 254.208 188.117 338.602v161.707h72.704v51.67h43.99v-51.713h74.794v51.712h43.99v-51.712h72.533V771.627c90.41-90.411 186.965-199.424 186.965-338.56 0-194.347-146.602-329.984-340.992-329.984zM393.9 889.429V801.92h219.989v87.552h-219.99z m406.997-456.362c0 123.093-89.856 223.189-174.123 307.456l-12.885 12.97v4.395h-87.21V475.989c0-18.176 14.847-33.024 32.98-33.024 18.177 0 33.025 14.848 33.025 33.024a32.981 32.981 0 0 1-20.267 30.464v45.526a76.928 76.928 0 1 0-67.755-129.792 76.928 76.928 0 1 0-67.754 129.792v-45.526a32.981 32.981 0 1 1 45.738-30.464v281.814H393.9v-4.395l-12.886-12.885c-39.936-39.936-85.461-88.022-119.765-141.483-37.29-57.941-55.467-112.299-55.467-165.973 0-41.558 7.595-80.854 22.656-116.48 14.422-34.134 35.2-64.256 61.867-89.558a280.32 280.32 0 0 1 93.91-58.624 333.141 333.141 0 0 1 119.807-21.333 331.947 331.947 0 0 1 119.552 21.333 279.467 279.467 0 0 1 93.483 58.624 264.192 264.192 0 0 1 61.525 89.558c14.72 35.626 22.315 74.794 22.315 116.48z m99.328 32.341h66.005v43.99h-66.005v-43.99z m-78.421-263.979l-31.147-31.146 46.677-46.635 31.147 31.147-46.72 46.592z"></path></svg>