<svg viewBox="0 0 1024 1024" version="1.1" xmlns="http://www.w3.org/2000/svg" width="200" height="200"><path d="M377.6 428.8v288c0 19.2-12.8 32-32 32s-32-12.8-32-32V428.8c0-19.2 12.8-32 32-32s32 19.2 32 32z"></path><path d="M473.6 467.2h-256c-19.2 0-32-19.2-32-32 0-19.2 12.8-32 32-32h256c19.2 0 32 12.8 32 32 0 12.8-12.8 32-32 32zM806.4 448h-192c-19.2 0-32-12.8-32-32s12.8-32 32-32h192c19.2 0 32 12.8 32 32s-12.8 32-32 32zM800 723.2h-192c-19.2 0-32-19.2-32-32 0-19.2 12.8-32 32-32h192c19.2 0 32 12.8 32 32 0 12.8-12.8 32-32 32z"></path><path d="M742.4 320v192c0 19.2-12.8 32-32 32s-32-12.8-32-32V320c0-19.2 12.8-32 32-32s32 12.8 32 32zM454.4 326.4L364.8 416c-12.8 12.8-32 12.8-44.8 0-12.8-12.8-12.8-32 0-44.8l89.6-89.6c12.8-12.8 32-12.8 44.8 0 12.8 12.8 12.8 32 0 44.8z"></path><path d="M275.2 281.6l89.6 89.6c12.8 12.8 12.8 32 0 44.8-12.8 12.8-32 12.8-44.8 0L230.4 326.4c-12.8-12.8-12.8-32 0-44.8 12.8-12.8 32-12.8 44.8 0zM473.6 595.2h-256c-19.2 0-32-19.2-32-32 0-19.2 12.8-32 32-32h256c19.2 0 32 12.8 32 32 0 12.8-12.8 32-32 32z"></path><path d="M832 128c38.4 0 64 25.6 64 64v640c0 38.4-25.6 64-64 64H192c-38.4 0-64-25.6-64-64V192c0-38.4 25.6-64 64-64h640m0-64H192c-70.4 0-128 57.6-128 128v640c0 70.4 57.6 128 128 128h640c70.4 0 128-57.6 128-128V192c0-70.4-57.6-128-128-128z"></path></svg>