<svg viewBox="0 0 1024 1024" version="1.1" xmlns="http://www.w3.org/2000/svg" xmlns:xlink="http://www.w3.org/1999/xlink" width="200" height="200"><path d="M341.333 149.333h-42.666v85.334h42.666v-85.334z m85.334 0H384v85.334h42.667v-85.334z m298.666 21.334h-192v42.666h192v-42.666z m-384 192h-42.666V448h42.666v-85.333z m85.334 0H384V448h42.667v-85.333zM725.333 384h-192v42.667h192V384z m-384 192h-42.666v85.333h42.666V576z m85.334 0H384v85.333h42.667V576z m298.666 21.333h-192V640h192v-42.667z m-384 192h-42.666v85.334h42.666v-85.334z m85.334 0H384v85.334h42.667v-85.334z m298.666 21.334h-192v42.666h192v-42.666z m64-746.667H234.667c-12.8 0-21.334 8.533-21.334 21.333v853.334c0 12.8 8.534 21.333 21.334 21.333h554.666c12.8 0 21.334-8.533 21.334-21.333V85.333c0-12.8-8.534-21.333-21.334-21.333zM768 917.333H256V746.667h512v170.666zM768 704H256V533.333h512V704z m0-213.333H256V320h512v170.667z m0-213.334H256V106.667h512v170.666zM42.667 256v512c0 12.8 8.533 21.333 21.333 21.333h106.667v-42.666H85.333v-85.334h85.334v-42.666H85.333v-85.334h85.334v-42.666H85.333v-85.334h85.334v-42.666H85.333v-85.334h85.334v-42.666H64c-12.8 0-21.333 8.533-21.333 21.333zM960 234.667H853.333v42.666h85.334v85.334h-85.334v42.666h85.334v85.334h-85.334v42.666h85.334v85.334h-85.334v42.666h85.334v85.334h-85.334v42.666H960c12.8 0 21.333-8.533 21.333-21.333V256c0-12.8-8.533-21.333-21.333-21.333z"></path></svg>