<svg t="1782201987838" class="icon" viewBox="0 0 1024 1024" version="1.1" xmlns="http://www.w3.org/2000/svg" p-id="8200" width="32" height="32"><path d="M850.176 64L992 400 896 515.2V960H128V515.2L32 400 174.4 64h675.84zM512 400l-128 115.2-128-115.2-64 57.6V704h320v64H192v128h448V515.2l-128-115.2z m256 0l-64 57.6V896h128V457.6l-64-57.6z m39.744-272.064H216.832l-110.72 261.056 28.48 34.112L256 313.92l127.936 115.136L512 313.856l128 115.2 128-115.2 121.344 109.248 28.48-34.176-110.08-260.992z" p-id="8201"></path></svg>
