<svg t="1750767441306" class="icon" viewBox="0 0 1024 1024" version="1.1" xmlns="http://www.w3.org/2000/svg" p-id="23696" width="200" height="200"><path d="M783.1 885.6c-67.2 0-122.2-55-122.2-122.2s55-122.2 122.2-122.2 122.2 55 122.2 122.2c0.1 67.1-54.9 122.2-122.2 122.2z m0-200.9c-43.2 0-78.6 35.4-78.6 78.6 0 43.2 35.4 78.6 78.6 78.6s78.6-35.4 78.6-78.6c0-43.2-35.4-78.6-78.6-78.6z m0 0" p-id="23697"></path><path d="M780.5 667.3c-12.2 0-21.8-9.6-21.8-21.8v-34.9c0-12.2 9.6-21.8 21.8-21.8 12.2 0 21.8 9.6 21.8 21.8v34.9c0 12.2-9.6 21.8-21.8 21.8zM700.2 703.5c-5.7 0-11.3-2.2-15.7-6.5l-25.3-26.2c-8.3-8.7-8.3-22.7 0.4-31 8.7-8.3 22.7-8.3 31 0.4l25.3 26.2c8.3 8.7 8.3 22.7-0.4 31-4.4 3.9-9.6 6.1-15.3 6.1zM667 785.1h-34.9c-12.2 0-21.8-9.6-21.8-21.8 0-12.2 9.6-21.8 21.8-21.8H667c12.2 0 21.8 9.6 21.8 21.8 0 12.2-9.6 21.8-21.8 21.8zM676.2 893.4c-5.7 0-11.3-2.2-15.3-6.5-8.7-8.7-8.7-22.3 0-31l25.8-25.8c8.7-8.7 22.3-8.7 31 0s8.7 22.3 0 31l-25.8 25.8c-4.4 4.3-10.1 6.5-15.7 6.5zM784.9 937.9c-12.2 0-21.8-9.6-21.8-21.8v-39.3c0-12.2 9.6-21.8 21.8-21.8 12.2 0 21.8 9.6 21.8 21.8v39.3c0 12.2-9.6 21.8-21.8 21.8zM891.8 892.5c-5.7 0-11.4-2.2-15.3-6.5l-25.8-25.8c-8.7-8.7-8.7-22.3 0-31s22.3-8.7 31 0l25.8 25.8c8.7 8.7 8.7 22.3 0 31-4.3 4.4-10 6.5-15.7 6.5zM937.7 785.1h-39.3c-12.2 0-21.8-9.6-21.8-21.8 0-12.2 9.6-21.8 21.8-21.8h39.3c12.2 0 21.8 9.6 21.8 21.8 0 12.2-9.6 21.8-21.8 21.8zM864.8 702.6c-5.7 0-11.3-2.2-15.3-6.5-8.7-8.7-8.7-22.3 0-31l25.8-25.8c8.7-8.7 22.3-8.7 31 0s8.7 22.3 0 31l-25.8 25.8c-4.4 4.4-10.1 6.5-15.7 6.5zM807.2 389.1H160.4c-53 0-95.9-43-95.9-95.9V182c0-53 43-95.9 95.9-95.9h646.8c53 0 95.9 43 95.9 95.9v111.6c-0.4 52.9-43.3 95.5-95.9 95.5zM160.4 129.5c-29.1 0-52.5 23.4-52.5 52.5v111.1c0 29.1 23.4 52.5 52.5 52.5h646.8c28.7 0 52.1-23.4 52.5-52.5V182c0-29.1-23.4-52.5-52.5-52.5H160.4z m0 0" p-id="23698"></path><path d="M624.5 239.7c0 32.1 26 58.2 58.2 58.2 32.1 0 58.2-26 58.2-58.2 0-32.1-26-58.2-58.2-58.2-32.2 0.1-58.2 26.1-58.2 58.2z m0 0M624.5 501.1c0 32.1 26 58.2 58.2 58.2 32.1 0 58.2-26 58.2-58.2 0-32.1-26-58.2-58.2-58.2s-58.2 26-58.2 58.2z m0 0" p-id="23699"></path><path d="M584.2 606.5H160.4c-29.1 0-52.5-23.4-52.5-52.5V443.3c0-29.1 23.4-52.5 52.5-52.5h646.8c29.1 0 52.5 23.4 52.5 52.5v37.6c14.9 2.4 29.4 5.8 43.4 10.5v-48.1c0-53-43-95.9-95.9-95.9H160.4c-53 0-95.9 43-95.9 95.9V554c0 53 43 95.9 95.9 95.9h401.8c6.1-15.2 13.5-29.6 22-43.4z" p-id="23700"></path><path d="M568.7 866.1H160.4c-29.1 0-52.5-23.4-52.5-52.5V702.9c0-29.1 23.4-52.5 52.5-52.5h401.7c6-15.2 13.4-29.7 21.9-43.4H160.4c-53 0-95.9 43-95.9 95.9v110.7c0 53 43 95.9 95.9 95.9H594c-9.7-13.6-18.2-28.1-25.3-43.4z" p-id="23701"></path></svg>
