<?xml version="1.0" standalone="no"?><!DOCTYPE svg PUBLIC "-//W3C//DTD SVG 1.1//EN" "http://www.w3.org/Graphics/SVG/1.1/DTD/svg11.dtd"><svg class="icon" width="200px" height="200.00px" viewBox="0 0 1024 1024" version="1.1" xmlns="http://www.w3.org/2000/svg"><path d="M941.056 242.176L570.88 16.384c-32.256-19.456-86.016-19.456-118.272 0l-369.664 225.28C50.688 261.12 46.08 292.864 46.08 310.272c0 16.896 4.608 48.128 36.864 68.608l368.64 225.792c16.896 10.24 37.376 15.872 59.392 15.872 22.528 0 43.52-5.632 59.904-15.36l370.176-225.792c32.256-19.456 36.864-51.2 36.864-68.608 0-16.896-4.608-48.128-36.864-68.608z m-377.344 281.6c-19.968 11.776-58.368 11.776-77.312 0L137.216 310.272l348.672-213.504c19.968-11.776 58.368-11.776 77.312 0l348.672 213.504-348.16 213.504z"  /><path d="M899.584 527.872l-348.672 213.504c-19.456 11.776-58.368 11.776-78.848 0l-348.672-213.504H45.568c1.024 17.408 7.168 46.08 36.864 64.512l370.176 225.792c16.896 10.24 36.864 15.872 59.392 15.872 22.016 0 42.496-5.632 59.392-15.872l370.176-225.792c30.72-18.432 36.864-47.104 36.864-64.512h-78.848z"  /><path d="M906.24 712.192l-355.328 217.6c-19.456 11.776-58.368 11.776-78.848 0l-355.328-217.6H45.568c0 17.408 4.608 49.152 36.864 68.608l370.176 225.792c16.896 10.24 36.864 15.872 59.392 15.872 22.016 0 42.496-5.632 59.392-15.872l370.176-225.792c32.256-20.48 36.864-51.712 36.864-68.608H906.24z"  /></svg>
