<svg xmlns="http://www.w3.org/2000/svg" viewBox="0 0 1024 1024" version="1.1"><path d="M571.463 73.349v126.24h-126.24v-126.24h126.24M634.58 10.229h-252.475v252.475h252.475v-252.475zM950.175 830.777v126.24h-126.24v-126.24h126.24M571.463 830.777v126.24h-126.24v-126.24h126.24M192.748 830.777v126.24h-126.24v-126.24h126.24M539.902 262.705h-63.117v189.358h-378.713v315.597h-94.679v252.475h252.475v-252.475h-94.679v-252.475h315.597v252.475h-94.679v252.475h252.475v-252.475h-94.679v-252.475h315.597v252.475h-94.679v252.475h252.475v-252.475h-94.679v-315.597h-378.713v-189.358z"></path></svg>