<svg t="1782202089640" class="icon" viewBox="0 0 1024 1024" version="1.1" xmlns="http://www.w3.org/2000/svg" p-id="11098" width="32" height="32"><path d="M320.731429 155.428571h432.018285c54.710857 0 101.412571 19.346286 140.068572 58.038858C931.510857 252.123429 950.857143 298.788571 950.857143 353.536c0 54.674286-19.346286 101.376-58.038857 140.068571-38.656 38.692571-85.357714 58.002286-140.068572 58.002286h-475.428571c-32.804571 0-60.818286 11.629714-84.041143 34.816a114.505143 114.505143 0 0 0-34.816 84.041143c0 32.841143 11.629714 60.854857 34.816 84.077714 23.222857 23.186286 51.2 34.779429 84.041143 34.779429h422.034286a128 128 0 1 1 3.949714 79.250286H277.321143c-54.710857 0-101.376-19.346286-140.068572-58.002286-38.692571-38.692571-58.002286-85.394286-58.002285-140.068572 0-54.710857 19.309714-101.412571 58.002285-140.068571 38.692571-38.692571 85.357714-58.038857 140.068572-58.038857h475.428571c32.841143 0 60.854857-11.629714 84.041143-34.816 23.222857-23.222857 34.816-51.2 34.816-84.041143 0-32.841143-11.593143-60.854857-34.816-84.041143a114.505143 114.505143 0 0 0-84.041143-34.816H324.681143a128 128 0 1 1-3.986286-79.250286z" p-id="11099"></path></svg>
