<svg viewBox="0 0 1024 1024" version="1.1" xmlns="http://www.w3.org/2000/svg" width="200" height="200"><path d="M382.72 53.333333c-110.933333 0-195.584 22.272-251.989333 78.677334C74.368 188.373333 52.096 273.066667 52.096 384v256c0 110.933333 22.272 195.626667 78.634667 251.989333 56.405333 56.405333 141.098667 78.677333 252.032 78.677334h256c110.933333 0 195.541333-22.272 251.904-78.677334 56.362667-56.362667 78.762667-141.056 78.762666-251.989333V384c0-110.933333-22.4-195.626667-78.762666-251.989333-56.362667-56.405333-140.970667-78.677333-251.904-78.677334z m0 64h256c102.4 0 167.082667 20.394667 206.677333 59.989334 39.637333 39.637333 60.032 104.277333 60.032 206.677333v256c0 102.4-20.394667 167.04-60.032 206.677333-39.594667 39.594667-104.234667 59.989333-206.634666 59.989334h-256c-102.4 0-167.125333-20.394667-206.762667-59.989334C136.362667 807.04 116.096 742.4 116.096 640V384c0-102.4 20.266667-167.04 59.904-206.677333 39.637333-39.594667 104.362667-59.989333 206.762667-59.989334z"></path><path d="M622.677333 419.754667c-24.661333 1.28-39.466667 20.608-46.592 38.741333l-87.765333 222.72-38.741333-97.792a32 32 0 0 0 0-0.085333 118.101333 118.101333 0 0 0-109.482667-74.325334 32 32 0 0 0-0.170667 0l-256 0.853334a32 32 0 0 0-31.829333 32.128 32 32 0 0 0 32.085333 31.829333l255.914667-0.853333c15.786667 0 44.074667 19.2 50.090667 34.133333l48.554666 122.709333a32 32 0 0 0 0 0.170667c3.84 9.642667 8.533333 18.261333 16.085334 26.026667 7.552 7.722667 19.584 14.933333 33.493333 14.933333 13.952 0 25.898667-7.210667 33.450667-14.933333a76.373333 76.373333 0 0 0 16.042666-26.026667 32 32 0 0 0 0.085334-0.170667L627.2 503.466667l33.578667 63.658666a116.778667 116.778667 0 0 0 103.850666 62.677334h173.226667a32 32 0 0 0 32-32 32 32 0 0 0-32-32h-173.226667c-12.629333 0-41.173333-17.066667-47.189333-28.501334a32 32 0 0 0-0.085333-0.085333l-44.330667-84.053333c-9.045333-17.194667-25.685333-34.688-50.346667-33.365334z"></path></svg>