<svg viewBox="0 0 1024 1024" version="1.1" xmlns="http://www.w3.org/2000/svg" width="200" height="200"><path d="M892.245333 789.333333h-725.333333a64.085333 64.085333 0 0 1-64-64V213.333333a64.085333 64.085333 0 0 1 64-64h725.333333a64.085333 64.085333 0 0 1 64 64v512a64.085333 64.085333 0 0 1-64 64z m-725.333333-597.333333a21.333333 21.333333 0 0 0-21.333333 21.333333v512a21.333333 21.333333 0 0 0 21.333333 21.333334h725.333333a21.333333 21.333333 0 0 0 21.333334-21.333334V213.333333a21.333333 21.333333 0 0 0-21.333334-21.333333zM659.754667 917.333333c-20.650667 0-61.354667-17.408-67.498667-83.370666a21.333333 21.333333 0 0 1 42.496-3.968c3.84 41.770667 23.466667 44.501333 25.770667 44.672a21.717333 21.717333 0 0 1 20.053333 22.144 20.906667 20.906667 0 0 1-20.821333 20.48zM399.402667 917.333333a21.333333 21.333333 0 0 1-0.597334-42.666666c2.645333-0.256 21.802667-3.456 25.642667-44.672a21.333333 21.333333 0 0 1 42.496 3.968C460.8 899.925333 420.096 917.333333 399.402667 917.333333z"></path><path d="M721.578667 917.333333h-384a21.333333 21.333333 0 1 1 0-42.666666h384a21.333333 21.333333 0 0 1 0 42.666666zM527.573333 585.429333a378.538667 378.538667 0 0 1-99.712-13.098666 21.333333 21.333333 0 0 1 11.434667-41.130667 333.482667 333.482667 0 0 0 114.218667 10.496c32.853333-3.669333 50.773333-14.72 50.773333-23.253333 0-9.984-12.672-17.792-77.226667-28.245334-49.706667-8.021333-111.36-17.92-111.36-68.821333 0-11.264 5.717333-67.584 118.698667-67.584a467.84 467.84 0 0 1 75.52 7.381333 21.333333 21.333333 0 0 1-6.997333 42.069334c-112.128-18.602667-144.554667 7.424-144.554667 18.133333 0 14.549333 49.024 22.442667 75.306667 26.709333 53.162667 8.533333 113.237333 18.261333 113.237333 70.4 0 34.858667-33.28 59.434667-89.045333 65.706667-5.632 0.469333-16.213333 1.28-30.293334 1.28z"></path><path d="M530.048 394.666667a21.333333 21.333333 0 0 1-21.333333-21.333334V341.333333a21.333333 21.333333 0 0 1 42.666666 0v32a21.333333 21.333333 0 0 1-21.333333 21.333334zM530.048 618.666667a21.333333 21.333333 0 0 1-21.333333-21.333334v-32a21.333333 21.333333 0 0 1 42.666666 0V597.333333a21.333333 21.333333 0 0 1-21.333333 21.333334z"></path></svg>