<svg t="1750763256041" class="icon" viewBox="0 0 1136 1024" version="1.1" xmlns="http://www.w3.org/2000/svg" p-id="8113" width="200" height="200"><path d="M365.439141 977.468023H94.265409c-41.348236 0-74.983848-33.689172-74.983848-74.983848V121.580954c0-41.348236 33.635612-74.983848 74.983848-74.983848h271.173732c41.294676 0 74.983848 33.635612 74.983848 74.983848v780.903221c0 41.294676-33.689172 74.983848-74.983848 74.983848zM94.265409 110.868976a10.711978 10.711978 0 0 0-10.711978 10.711978v780.903221c0 5.891588 4.82039 10.711978 10.711978 10.711978h271.173732a10.711978 10.711978 0 0 0 10.711978-10.711978V121.580954a10.711978 10.711978 0 0 0-10.711978-10.711978H94.265409z" p-id="8114"></path><path d="M229.825495 774.476034a50.024939 50.024939 0 0 1 0-99.942758 50.024939 50.024939 0 0 1 0 99.942758z m0-64.27187a14.300491 14.300491 0 0 0-14.300491 14.300491c0 15.800168 28.600982 15.800168 28.600982 0a14.300491 14.300491 0 0 0-14.300491-14.300491zM269.192016 266.460461h-78.733041a32.135935 32.135935 0 1 1 0-64.27187h78.733041a32.135935 32.135935 0 1 1 0 64.27187zM269.192016 425.42622h-78.733041a32.135935 32.135935 0 1 1 0-64.27187h78.733041a32.135935 32.135935 0 1 1 0 64.27187z" p-id="8115"></path><path d="M1042.703971 977.468023h-271.120172c-41.348236 0-74.983848-33.689172-74.983848-74.983848V121.580954c0-41.348236 33.635612-74.983848 74.983848-74.983848h271.120172c41.348236 0 74.983848 33.635612 74.983848 74.983848v780.903221c0 41.294676-33.635612 74.983848-74.983848 74.983848zM771.583799 110.868976a10.711978 10.711978 0 0 0-10.711978 10.711978v780.903221c0 5.891588 4.82039 10.711978 10.711978 10.711978h271.120172a10.711978 10.711978 0 0 0 10.711978-10.711978V121.580954a10.711978 10.711978 0 0 0-10.711978-10.711978h-271.120172z" p-id="8116"></path><path d="M907.143885 774.476034a50.024939 50.024939 0 0 1 0-99.942758 50.024939 50.024939 0 0 1 0 99.942758z m0-64.27187a14.300491 14.300491 0 0 0-14.300491 14.300491c0 15.800168 28.600982 15.800168 28.600982 0a14.300491 14.300491 0 0 0-14.300491-14.300491zM946.456846 266.460461h-78.625921a32.135935 32.135935 0 1 1 0-64.27187h78.625921a32.135935 32.135935 0 1 1 0 64.27187zM946.456846 425.42622h-78.625921a32.135935 32.135935 0 1 1 0-64.27187h78.625921a32.135935 32.135935 0 1 1 0 64.27187z" p-id="8117"></path><path d="M568.48469 999.427579a32.135935 32.135935 0 0 1-32.135935-32.135935v-910.518159a32.135935 32.135935 0 1 1 64.27187 0v910.518159a32.135935 32.135935 0 0 1-32.135935 32.135935z" p-id="8118"></path></svg>
