<svg t="1725938563094" class="icon" viewBox="0 0 1317 1024" version="1.1" xmlns="http://www.w3.org/2000/svg" p-id="5111" width="200" height="200"><path d="M845.230794 783.210623c-17.336306-18.196504-46.516882-18.196504-64.763013 0l-131.345675 130.419308-131.362218-130.43585a45.789021 45.789021 0 1 0-64.74647 64.763012l163.272269 162.345902a45.755937 45.755937 0 0 0 31.926594 13.680463 44.167878 44.167878 0 0 0 31.926593-13.663921l163.27227-162.345901c20.082324-18.196504 20.082324-47.443249 1.836192-64.763013z m0 0" p-id="5112"></path><path d="M647.302456 839.752124a45.143873 45.143873 0 0 0 45.590514-45.607056v-135.911344a45.607056 45.607056 0 1 0-91.214113 0v135.911344a45.160415 45.160415 0 0 0 45.623599 45.607056zM432.004727 360.886304c-5.475494 2.729476-10.041162 4.565668-15.516655 7.295144-72.967982 37.385545-138.640819 91.214113-188.813544 156.88695a62.513263 62.513263 0 0 0 11.893896 87.492101 63.770476 63.770476 0 0 0 37.402088 12.770637 60.908662 60.908662 0 0 0 49.246357-24.614907c52.935285-68.418856 120.411231-117.665213 197.928338-144.116313z m665.859714 163.272269a556.879196 556.879196 0 0 0-187.787923-156.88695 539.824109 539.824109 0 0 0-153.24765-50.172725l267.174308 278.208006a150.915189 150.915189 0 0 1 20.992149 28.270751 61.206423 61.206423 0 0 0 41.041388-12.770637c27.360925-20.065781 32.836419-59.287519 11.860812-86.648445z m0 0M245.077002 165.687441C154.739631 220.409292 74.476505 292.467449 12.45951 377.296242c-20.992149 27.377468-14.60683 66.533036 12.754096 87.574812a60.213886 60.213886 0 0 0 36.492261 11.860812 62.265129 62.265129 0 0 0 50.172725-25.541274c59.287519-80.279668 135.894801-145.952506 221.666505-193.379213z m1059.863656 210.698976a801.489839 801.489839 0 0 0-645.793932-324.724887 772.524313 772.524313 0 0 0-145.026138 13.697004l107.62405 112.140093c12.78718-0.909825 24.63145-0.909825 37.402088-0.909825 217.100837 0 415.939 100.328907 545.465025 274.60179 20.975607 27.360925 59.287519 33.746244 87.558269 12.770637s32.836419-60.213886 12.770638-87.574812z m0 0M928.273022 742.152693c-14.590288 0-29.180576-5.475494-39.205195-17.336306L282.446005 92.71946a54.857497 54.857497 0 1 1 79.402927-75.714L968.354958 649.11893a54.78802 54.78802 0 0 1-1.803108 77.583277 57.137023 57.137023 0 0 1-38.278828 15.450486z m0 0" p-id="5113"></path></svg>
