<svg viewBox="0 0 1024 1024" version="1.1" xmlns="http://www.w3.org/2000/svg" xmlns:xlink="http://www.w3.org/1999/xlink" width="128" height="128"><path d="M512 43.8144l-217.6 119.68v236.1984l217.6 119.68 217.6-119.68V163.4944z"></path><path d="M512 0l256 140.8v281.6L512 563.2 256 422.4V140.8L512 0z m0 43.8144l-217.6 119.68v236.1984l217.6 119.68 217.6-119.68V163.4944l-217.6-119.68z"></path><path d="M230.4 512l230.4 128v256L230.4 1024 0 896V640l230.4-128z m0 43.9168L38.4 662.5792v210.8288l192 106.6624 192-106.6752V662.592l-192-106.6752zM793.6 512l230.4 128v256L793.6 1024 563.2 896V640l230.4-128z m0 43.9168l-192 106.6624v210.8288l192 106.6624 192-106.6752V662.592l-192-106.6752z"></path><path d="M593.6 153.6c4.416 0 8 3.456 8 7.7056v240.5888c0 4.2496-3.584 7.7056-8 7.7056h-163.2a7.8592 7.8592 0 0 1-8-7.7056V161.3056c0-4.2496 3.584-7.7056 8-7.7056z m-81.6128 200.0512a15.2192 15.2192 0 0 0-13.4272 7.1296 14.0544 14.0544 0 0 0 0 14.7712c2.816 4.544 7.9488 7.2704 13.44 7.1168l0.4352-0.0256c7.936-0.448 14.1824-6.784 14.1824-14.4896 0-7.8464-6.4768-14.272-14.6304-14.5024zM518.4 358.4a6.4 6.4 0 1 1 0 12.8 6.4 6.4 0 0 1 0-12.8z m-6.4-32.1408h-0.3456a8.5248 8.5248 0 0 0-8.3456 8.3712c0 4.6336 3.8912 8.384 8.704 8.384a8.768 8.768 0 0 0 7.5264-4.1856 8.1024 8.1024 0 0 0 0-8.384 8.768 8.768 0 0 0-7.5264-4.1856z m4.352-26.7904a8.9856 8.9856 0 0 0-8.704 0 8.32 8.32 0 0 0-4.352 7.2576l0.0128 0.3328c0.192 4.4672 4.0064 8.0384 8.704 8.0384 4.8 0 8.704-3.7504 8.704-8.3712a8.32 8.32 0 0 0-4.352-7.2576z m44.8-48.1792h-98.304v13.824h98.304v-13.824z m0-24.704h-98.304v13.824h98.304v-13.824z m0-48.5632h-98.304v38.528h98.304v-38.528zM550.4 192v12.8h-76.8v-12.8h76.8z" fill="#bfbfbf"></path><path d="M230.4 601.6l153.6 83.2v166.4L230.4 934.4 76.8 851.2v-166.4L230.4 601.6z m-76.8 140.8a25.6 25.6 0 1 0 0 51.2 25.6 25.6 0 0 0 0-51.2z m76.8 0a25.6 25.6 0 1 0 0 51.2 25.6 25.6 0 0 0 0-51.2z m76.8 0a25.6 25.6 0 1 0 0 51.2 25.6 25.6 0 0 0 0-51.2zM793.6 601.6l153.6 83.2v166.4L793.6 934.4l-153.6-83.2v-166.4L793.6 601.6z m-76.8 140.8a25.6 25.6 0 1 0 0 51.2 25.6 25.6 0 0 0 0-51.2z m76.8 0a25.6 25.6 0 1 0 0 51.2 25.6 25.6 0 0 0 0-51.2z m76.8 0a25.6 25.6 0 1 0 0 51.2 25.6 25.6 0 0 0 0-51.2z"></path></svg>