<svg viewBox="0 0 1024 1024" version="1.1" xmlns="http://www.w3.org/2000/svg" width="200" height="200"><path d="M951.808 921.088c0 16.384-13.312 29.696-29.696 29.696h-188.928v64h188.928c51.712 0 93.184-41.984 93.184-93.184V103.936c0-51.712-41.984-93.184-93.184-93.184H105.984c-51.712 0-93.184 41.984-93.184 93.184v816.64c0 51.712 41.984 93.184 93.184 93.184h177.664v-64H105.984c-16.384 0-29.696-13.312-29.696-29.696V103.936c0-16.384 13.312-29.696 29.696-29.696h816.64c16.384 0 29.696 13.312 29.696 29.696v817.152z"></path><path d="M392.704 950.272h66.56v64h-66.56zM544.768 950.272h66.56v64h-66.56zM509.952 802.304c-64 0-128.512-24.576-177.152-73.216-80.384-80.384-96.768-204.8-39.424-303.104L440.32 172.032c14.336-25.088 40.448-39.936 69.632-39.936 29.184 0 55.296 14.848 69.632 39.936L727.04 425.984c56.832 98.304 40.96 222.72-39.424 303.104-49.664 49.152-113.664 73.216-177.664 73.216z m0-606.208c-3.072 0-9.728 1.024-14.336 8.192L348.16 458.24c-42.496 73.216-30.208 165.888 29.696 225.792 35.328 35.328 82.432 54.784 132.096 54.784s96.768-19.456 132.096-54.784c59.904-59.904 71.68-152.576 29.696-225.792l-147.456-253.952c-4.608-7.68-11.776-8.192-14.336-8.192z"></path><path d="M475.136 556.544h64v348.672H475.136z"></path><path d="M475.136 437.76h64v68.608H475.136z"></path></svg>