<?xml version="1.0" standalone="no"?><!DOCTYPE svg PUBLIC "-//W3C//DTD SVG 1.1//EN" "http://www.w3.org/Graphics/SVG/1.1/DTD/svg11.dtd"><svg t="1618486900162" class="icon" viewBox="0 0 1229 1024" version="1.1" xmlns="http://www.w3.org/2000/svg" p-id="4066" xmlns:xlink="http://www.w3.org/1999/xlink" width="264.04296875" height="220"><defs><style type="text/css"></style></defs><path d="M1175.815086 272.437617 1175.109325 272.437617 863.867556 272.437617C829.755638 240.678257 789.762376 208.918897 758.002995 176.924283 748.357571 167.278838 737.300603 163.985265 726.949396 164.9263 725.537874 164.9263 724.126351 164.691046 722.714829 164.691046L68.001423 164.691046C65.413612 164.691046 63.296328 164.9263 60.94379 165.161554 40.476631 165.632061 20.48 179.982582 20.48 208.213135L20.48 788.821361C20.48 793.526436 21.185761 797.996278 22.126776 801.995612 24.008827 821.051228 37.183078 838.695322 61.884805 838.695322L276.672205 838.695322C282.083062 897.7442 331.957023 944.089354 392.417444 944.089354 407.473725 944.089354 422.765281 941.031035 436.41004 935.384924 486.754509 976.789729 549.802721 999.374172 614.027223 999.374172 678.251704 999.374172 741.299937 976.554476 791.644406 935.384924 805.524419 941.031035 820.580721 944.089354 835.637002 944.089354 896.097423 944.089354 945.971384 897.7442 951.382241 838.695322L1165.699133 838.695322C1188.989338 843.400397 1216.043602 829.28513 1216.043602 795.878994L1216.043602 316.194959C1216.278856 287.493919 1196.046971 272.67287 1175.815086 272.437617L1175.815086 272.437617ZM392.417444 777.999647C420.412723 777.999647 442.291405 799.878308 442.291405 827.873608 442.291405 855.868887 420.412723 877.747569 392.417444 877.747569 364.422144 877.747569 342.543483 855.868887 342.543483 827.873608 342.543483 799.878308 364.422144 777.999647 392.417444 777.999647L392.417444 777.999647ZM835.637002 777.999647C863.632302 777.999647 885.510963 799.878308 885.510963 827.873608 885.510963 855.868887 863.632302 877.747569 835.637002 877.747569 807.641723 877.747569 785.763041 855.868887 785.763041 827.873608 785.763041 799.878308 807.876977 777.999647 835.637002 777.999647L835.637002 777.999647ZM514.044047 526.04203C534.981693 562.035958 572.857672 583.914639 614.262477 583.914639 655.432028 583.914639 693.308006 561.800704 714.480906 526.04203 784.586772 562.035958 828.579369 632.377078 830.461399 711.657861 768.824709 714.480906 719.656509 765.531156 719.656509 827.873608 719.656509 850.693304 726.714143 873.042473 740.123668 892.568596 703.423959 918.91712 658.960835 933.26764 614.497731 933.26764 569.799373 933.26764 525.571523 918.91712 488.871813 892.568596 502.281318 873.042473 509.338952 850.928558 509.338952 827.873608 509.338952 765.531156 460.170752 714.480906 398.534062 711.657861 399.945585 632.377078 443.702927 562.271232 514.044047 526.04203L514.044047 526.04203ZM564.153262 467.698893C564.153262 439.703593 586.031923 417.824932 614.027223 417.824932 642.022523 417.824932 663.901184 439.703593 663.901184 467.698893 663.901184 495.694193 642.022523 517.572854 614.027223 517.572854 586.031923 517.572854 564.153262 495.694193 564.153262 467.698893L564.153262 467.698893ZM896.097423 728.831447C896.332677 725.067366 896.567931 721.53856 896.567931 717.068718 896.567931 605.08756 830.931907 504.398602 729.301955 459.700244 725.067366 398.769316 675.193405 351.483146 614.027223 351.483146 552.861041 351.483146 502.98708 398.769316 498.752492 459.700244 396.887265 504.398602 331.486515 605.08756 331.486515 717.068718L331.486515 721.773814 331.486515 729.537208C319.95904 736.830095 309.843087 746.005033 301.609185 756.356219 299.256648 755.885711 296.90409 755.650458 294.316298 755.650458L103.524864 755.650458 103.524864 247.500636 712.128369 247.500636C744.122982 277.377966 806.23018 331.486515 823.168512 346.307543 828.108861 351.7184 834.460733 355.247227 842.694636 355.247227L1133.70452 355.247227 1133.70452 755.885711 936.090706 755.885711C932.797133 755.885711 929.974088 756.120965 927.151022 756.591473 918.681866 745.769759 908.095406 736.359588 896.097423 728.831447ZM777.529139 103.760118C810.229514 136.460493 842.929889 169.160868 875.395031 201.62601 878.688584 204.919562 882.217411 207.507374 885.981471 209.389404 890.92182 217.152799 898.449961 222.328402 908.565914 222.328402L1185.931018 222.328402C1226.159555 222.328402 1226.159555 139.283538 1185.931018 139.283538L930.444595 139.283538C894.921155 103.760118 859.397714 68.236677 823.874273 32.713236 814.228849 23.067791 803.171881 19.774239 792.820675 20.715254 791.409152 20.715254 789.997629 20.48 788.586086 20.48L67.530916 20.48C12.951859 20.715254 12.951859 103.760118 67.76617 103.760118L777.529139 103.760118Z" p-id="4067"></path></svg>