<svg viewBox="0 0 1024 1024" version="1.1" xmlns="http://www.w3.org/2000/svg" width="200" height="200"><path d="M774.778 123.95c-65.994-32.231-160.27-48.346-263.976-48.346-103.706 0-197.983 16.115-263.977 48.346-75.422 37.603-113.133 80.577-113.133 134.296v499.579c0 48.346 37.711 96.692 113.133 128.922 65.995 32.231 160.272 48.345 263.977 48.345 103.705 0 197.982-16.114 263.976-48.345 70.707-32.23 113.132-80.576 113.132-128.922v-499.58c-0.001-53.718-37.71-96.693-113.132-134.295m-47.89 224.219c-59.769 26.197-142.525 36.675-216.086 36.675-78.16 0-156.319-10.478-216.088-36.675-68.964-20.958-101.148-52.394-101.148-83.83s36.78-62.871 101.148-89.068c59.769-26.197 137.928-36.675 216.088-36.675 73.56 0 156.317 15.718 216.087 36.675 64.366 26.197 101.148 57.632 101.148 89.068s-32.185 62.873-101.148 83.83m4.596 151.94c-59.767 20.956-142.524 36.675-220.683 36.675-78.16 0-156.319-15.718-220.685-36.675-64.366-26.196-101.147-57.631-101.147-89.067v-57.633c45.975 20.957 78.16 47.154 128.733 57.633 59.769 15.717 124.136 26.196 193.1 26.196s133.33-10.478 193.1-26.196c50.573-10.479 82.756-36.676 128.731-57.633v62.87c-0.001 26.199-36.782 57.634-101.149 83.83m0 167.659c-59.767 20.957-142.524 36.675-220.683 36.675-78.16 0-156.319-15.717-220.685-36.675s-101.147-52.395-101.147-89.07V500.11c45.975 26.197 78.16 47.154 128.733 62.871 59.769 15.717 124.136 26.197 193.1 26.197s133.33-10.479 193.1-26.197c50.573-15.717 82.756-36.674 128.731-62.87v78.588c-0.001 36.675-36.782 68.111-101.149 89.07M510.802 872.1c-78.16 0-156.319-15.717-220.685-36.675s-101.147-52.394-101.147-89.07v-78.588c45.975 26.196 78.16 47.154 128.733 62.87 55.172 15.718 124.136 26.197 188.502 26.197 68.964 0 133.331-10.478 193.098-26.196 55.173-15.717 87.356-36.676 133.331-62.871v78.589c0 31.437-36.78 62.873-101.148 89.07-59.768 26.195-147.123 36.674-220.684 36.674m0 0"></path></svg>