<svg t="1750815816826" class="icon" viewBox="0 0 1024 1024" version="1.1" xmlns="http://www.w3.org/2000/svg" p-id="11074" width="200" height="200"><path d="M512 327.68h-245.76c-12.288 0-20.48 8.192-20.48 20.48s8.192 20.48 20.48 20.48h245.76c12.288 0 20.48-8.192 20.48-20.48s-8.192-20.48-20.48-20.48zM512 491.52h-245.76c-12.288 0-20.48 8.192-20.48 20.48s8.192 20.48 20.48 20.48h245.76c12.288 0 20.48-8.192 20.48-20.48s-8.192-20.48-20.48-20.48zM389.12 655.36h-122.88c-12.288 0-20.48 8.192-20.48 20.48s8.192 20.48 20.48 20.48h122.88c12.288 0 20.48-8.192 20.48-20.48s-8.192-20.48-20.48-20.48z" p-id="11075"></path><path d="M884.736 356.352l-237.568-184.32c-8.192-4.096-16.384-8.192-24.576-8.192H163.84c-24.576 0-40.96 16.384-40.96 40.96v614.4c0 24.576 16.384 40.96 40.96 40.96h409.6v-40.96H163.84V204.8h450.56v167.936c0 20.48 16.384 36.864 36.864 36.864H860.16v81.92h40.96V389.12c0-12.288-4.096-24.576-16.384-32.768zM655.36 229.376L835.584 368.64H655.36V229.376z" p-id="11076"></path><path d="M757.76 901.12h-8.192c-8.192-4.096-12.288-12.288-12.288-20.48V778.24h-143.36c-12.288 0-20.48-8.192-20.48-20.48v-122.88c0-12.288 8.192-20.48 20.48-20.48H737.28v-102.4c0-8.192 4.096-16.384 12.288-20.48 8.192-4.096 16.384 0 20.48 4.096l163.84 184.32c8.192 8.192 8.192 20.48 0 28.672l-163.84 184.32c0 4.096-8.192 8.192-12.288 8.192zM614.4 737.28h143.36c12.288 0 20.48 8.192 20.48 20.48v69.632l114.688-131.072-114.688-131.072v69.632c0 12.288-8.192 20.48-20.48 20.48H614.4v81.92z" p-id="11077"></path></svg>
