<svg xmlns="http://www.w3.org/2000/svg" viewBox="0 0 1024 1024" version="1.1"><path d="M18.11416 364.4L481.01416 620.2c9.7 5.4 20.3 8 31 8 10.6 0 21.3-2.7 31-8l462.9-255.8c10.5-5.8 17-16.9 17-28.9s-6.5-23.1-17-28.9L543.01416 50.8c-19.4-10.7-42.5-10.7-61.9 0l-463 255.8c-10.5 5.8-17 16.9-17 28.9s6.5 23.1 17 28.9zM512.01416 106.8l413.8 228.7L512.01416 564.2 98.21416 335.5 512.01416 106.8zM16.51416 546.3L481.01416 802.9c9.7 5.4 20.3 8 31 8 10.6 0 21.3-2.7 31-8l464.5-256.7c15.5-8.5 21.1-28 12.5-43.5-8.5-15.5-28-21.1-43.5-12.5L512.01416 746.9 47.51416 490.2c-15.5-8.5-35-2.9-43.5 12.6-8.6 15.4-2.9 34.9 12.5 43.5zM976.51416 660.5L512.01416 917.2 47.51416 660.5C32.01416 651.9 12.51416 657.6 4.01416 673c-8.5 15.5-2.9 34.9 12.5 43.5L481.01416 973.2c9.7 5.4 20.3 8 31 8 10.6 0 21.3-2.7 31-8l464.5-256.7c15.5-8.5 21.1-28 12.5-43.5-8.5-15.4-28-21.1-43.5-12.5z"></path></svg>