<svg t="1750771509483" class="icon" viewBox="0 0 1024 1024" version="1.1" xmlns="http://www.w3.org/2000/svg" p-id="63287" width="200" height="200"><path d="M800 776V248a122.24 122.24 0 0 0-121.6-121.92H270.08a122.24 122.24 0 0 0-121.6 121.92H224v528a122.24 122.24 0 0 0 121.6 121.92h408.32a122.24 122.24 0 0 0 121.6-121.92z m-59.84-528V784H347.84a29.12 29.12 0 0 1 2.88 13.12 32 32 0 0 1-66.88 0A29.12 29.12 0 0 1 288 784h-4.16V249.92l-22.72-47.36h422.4c32 2.56 56.64 21.12 56.64 44.48z" p-id="63288"></path><path d="M512 305.92h202.56v62.72H512zM512 464.64h202.56v62.72H512zM512 623.68h202.56v62.72H512zM378.88 562.56H320v-24h58.88V512H320v-23.68h48.64L297.92 364.8h43.84l56.64 107.84 56.96-107.84h43.84l-70.72 122.56h48.64V512h-58.88v27.52h58.88v24h-58.88v50.56h-39.36z" p-id="63289"></path></svg>
