<svg t="1750816781649" class="icon" viewBox="0 0 1024 1024" version="1.1" xmlns="http://www.w3.org/2000/svg" p-id="22166" width="200" height="200"><path d="M576 463.36h215.04v81.92c0 7.68 7.68 10.24 12.8 7.68l179.2-125.44c5.12-2.56 5.12-10.24 0-15.36l-179.2-125.44c-5.12-2.56-12.8 0-12.8 7.68v74.24H588.8L826.88 102.4c10.24-30.72 5.12-51.2-17.92-64-23.04-12.8-46.08-5.12-71.68 17.92l-217.6 240.64-215.04-240.64c-23.04-23.04-46.08-30.72-69.12-17.92S204.8 71.68 209.92 102.4l230.4 266.24H125.44c-25.6 0-48.64 23.04-48.64 48.64s23.04 48.64 48.64 48.64H460.8v184.32H243.2v-74.24c0-7.68-7.68-10.24-12.8-7.68l-179.2 125.44c-5.12 2.56-5.12 10.24 0 15.36l179.2 125.44c5.12 2.56 12.8 0 12.8-7.68v-81.92H460.8v197.12c0 46.08 17.92 69.12 58.88 69.12 40.96 0 58.88-23.04 56.32-69.12v-197.12h332.8c25.6 0 48.64-23.04 48.64-48.64s-23.04-48.64-48.64-48.64h-332.8v-184.32z" p-id="22167"></path></svg>
