<?xml version="1.0" standalone="no"?><!DOCTYPE svg PUBLIC "-//W3C//DTD SVG 1.1//EN" "http://www.w3.org/Graphics/SVG/1.1/DTD/svg11.dtd"><svg t="1784779210694" class="icon" viewBox="0 0 1024 1024" version="1.1" xmlns="http://www.w3.org/2000/svg" p-id="7281" xmlns:xlink="http://www.w3.org/1999/xlink" width="200" height="200"><path d="M511.488 81.664l372.736 215.04v430.08l-372.736 215.04-372.736-215.04v-430.08l372.736-215.04m0-67.84c-11.776 0-23.552 3.072-33.792 8.96L104.704 238.08c-20.992 12.032-33.792 34.56-33.792 58.624v430.08c0 24.32 12.8 46.592 33.792 58.624l372.736 215.04c20.992 12.032 46.848 12.032 67.84 0l372.736-215.04c20.992-12.032 33.792-34.56 33.792-58.624v-430.08c0-24.32-12.8-46.592-33.792-58.624L545.28 23.04c-10.24-5.888-21.76-9.216-33.792-9.216z m0 0" p-id="7282"></path><path d="M511.488 376.064c64.768 0 120.32 45.568 132.864 109.056 12.544 63.488-21.248 126.976-81.152 151.808-59.648 24.832-128.768 3.84-164.608-49.92s-28.928-125.44 16.896-171.264c25.6-25.344 60.16-39.68 96-39.68m0-67.584c-112.384 0-203.264 91.136-203.264 203.264 0 112.384 91.136 203.264 203.264 203.264s203.264-91.136 203.264-203.264c0-112.384-90.88-203.264-203.264-203.264z m0 0" p-id="7283"></path></svg>