<svg viewBox="0 0 1053 1024" version="1.1" xmlns="http://www.w3.org/2000/svg" width="200" height="200"><path d="M380.342857 58.514286m28.379429 0l235.812571 0q28.379429 0 28.379429 28.379428l0 1.755429q0 28.379429-28.379429 28.379428l-235.812571 0q-28.379429 0-28.379429-28.379428l0-1.755429q0-28.379429 28.379429-28.379428Z" fill="#515151"></path><path d="M881.225143 58.514286H819.2a29.257143 29.257143 0 0 0-29.257143 29.257143 29.257143 29.257143 0 0 0 29.257143 29.257142h62.902857A113.517714 113.517714 0 0 1 994.742857 230.546286v621.421714A113.517714 113.517714 0 0 1 881.225143 965.485714H172.032A113.517714 113.517714 0 0 1 58.514286 851.968V230.546286A113.517714 113.517714 0 0 1 172.032 117.028571H234.057143a29.257143 29.257143 0 0 0 29.257143-29.257142 29.257143 29.257143 0 0 0-29.257143-29.257143H172.032A172.032 172.032 0 0 0 0 230.546286v621.421714A172.032 172.032 0 0 0 172.032 1024h709.193143A172.032 172.032 0 0 0 1053.257143 851.968V230.546286A172.032 172.032 0 0 0 881.225143 58.514286z" fill="#515151"></path><path d="M321.828571 175.542857a29.257143 29.257143 0 0 1-29.257142-29.257143V29.257143a29.257143 29.257143 0 0 1 58.514285 0v117.028571a29.257143 29.257143 0 0 1-29.257143 29.257143zM731.428571 175.542857a29.257143 29.257143 0 0 1-29.257142-29.257143V29.257143a29.257143 29.257143 0 0 1 58.514285 0v117.028571a29.257143 29.257143 0 0 1-29.257143 29.257143z" fill="#515151"></path><path d="M83.968 220.598857m29.257143 0l826.806857 0q29.257143 0 29.257143 29.257143l0 0q0 29.257143-29.257143 29.257143l-826.806857 0q-29.257143 0-29.257143-29.257143l0 0q0-29.257143 29.257143-29.257143Z" fill="#515151"></path><path d="M398.774857 424.228571h25.161143a26.624 26.624 0 0 1 24.868571 17.261715l64.658286 178.761143c9.069714 25.746286 16.969143 52.077714 26.038857 78.409142h2.633143c8.777143-26.331429 16.091429-52.662857 25.161143-78.409142l63.780571-178.468572a26.624 26.624 0 0 1 24.868572-17.554286h25.746286a26.331429 26.331429 0 0 1 26.331428 26.331429v334.994286a26.331429 26.331429 0 0 1-26.331428 26.331428h-4.096a26.331429 26.331429 0 0 1-26.624-26.331428V620.251429c0-34.816 4.973714-84.845714 7.899428-120.246858h-2.048l-31.012571 89.526858-61.147429 167.643428a26.331429 26.331429 0 0 1-24.868571 17.261714 26.331429 26.331429 0 0 1-24.868572-17.261714l-61.44-167.643428-30.72-89.526858h-2.048c2.633143 35.401143 7.314286 85.430857 7.314286 120.246858v165.302857a26.331429 26.331429 0 0 1-26.331429 26.331428h-2.048a26.331429 26.331429 0 0 1-26.331428-26.331428V450.56a26.331429 26.331429 0 0 1 25.453714-26.331429z" fill="#515151"></path></svg>