<svg xmlns="http://www.w3.org/2000/svg" viewBox="0 0 1024 1024" version="1.1"><path d="M855.552 962.56c-48.64 0-90.112-32.256-103.424-76.8H272.384c-13.312 44.544-54.784 76.8-102.912 76.8-59.392 0-107.52-48.128-107.52-107.52 0-48.64 32.256-89.6 76.288-102.912V272.384c-44.544-13.312-76.8-55.296-76.288-103.936 0-59.392 48.128-107.008 107.52-107.008h1.024c47.616 0.512 88.576 32.256 101.888 75.776H752.64c13.824-44.032 54.784-75.776 102.912-75.776h1.024c59.392 0.512 107.52 49.152 107.008 108.544-1.024 47.616-32.768 88.576-76.288 101.888v479.744c44.032 13.824 75.776 54.784 75.776 102.912 0 59.904-48.128 108.032-107.52 108.032z m0-152.576c-24.576 0-44.544 19.968-44.544 44.544s19.968 44.544 44.544 44.544 44.544-19.968 44.544-44.544-19.968-44.544-44.544-44.544z m-686.592 0c-24.576 0-44.544 19.968-44.544 44.544s19.968 44.544 44.544 44.544 44.544-19.968 44.544-44.544-19.456-44.544-44.544-44.544z m583.168 13.312c10.752-34.304 37.888-61.44 72.192-71.68V272.384c-34.304-10.24-60.928-37.376-71.68-71.168H272.384c-10.752 33.792-37.376 60.928-71.68 71.168v479.744c34.304 10.24 60.928 37.376 71.68 71.168h479.744z m103.424-698.88c-24.576 0-44.544 19.968-44.544 44.544 0 24.576 19.968 44.544 44.544 44.544s44.544-19.968 44.544-44.544c0-24.576-19.968-44.544-44.544-44.544zM168.96 124.416c-24.576 0-44.544 19.968-44.544 44.544 0 24.576 19.968 44.544 44.544 44.544s44.544-19.968 44.544-44.544c0.512-24.576-19.456-44.544-44.544-44.544zM494.592 660.992V373.76h79.36c3.584 0 7.168-0.512 10.752-0.512 14.848 0 29.696 1.536 44.032 4.608h1.024c15.36 5.12 28.16 15.872 36.864 29.696 9.728 17.408 14.848 36.864 13.824 56.832 0.512 18.944-3.584 37.376-11.776 53.248-7.168 13.824-18.432 24.576-31.232 31.232h-1.024c-16.384 6.144-34.304 8.704-52.736 8.704H554.496V660.48H494.592z m58.88-163.84h18.432c2.048 0 4.608 0.512 6.656 0.512 8.192 0 16.384-1.024 24.576-3.072h1.024c4.608-2.048 8.192-5.632 10.752-9.216 3.584-5.632 5.12-11.776 4.608-17.92v-1.024c0.512-6.144-1.536-13.312-5.12-18.432-3.072-4.608-6.144-7.68-10.24-9.216h-1.024c-9.728-2.048-18.432-3.072-27.136-3.072h-22.528v61.44zM378.368 660.48V373.76h59.904v286.72H378.368z"></path></svg>