<svg xmlns="http://www.w3.org/2000/svg" viewBox="0 0 1024 1024" version="1.1"><path d="M786.432 259.072H198.656c-13.312 0-23.552-10.24-23.552-23.552 0-13.312 10.24-23.552 23.552-23.552h587.776c13.312 0 23.552 10.24 23.552 23.552 0 13.312-11.264 23.552-23.552 23.552zM380.928 667.648H198.656c-13.312 0-23.552-10.24-23.552-23.552 0-13.312 10.24-23.552 23.552-23.552h182.272c13.312 0 23.552 10.24 23.552 23.552 0 12.288-10.24 23.552-23.552 23.552zM198.656 211.968c13.312 0 23.552 10.24 23.552 23.552v408.576c0 13.312-10.24 23.552-23.552 23.552-13.312 0-23.552-10.24-23.552-23.552V235.52c0-13.312 10.24-23.552 23.552-23.552zM786.432 211.968c13.312 0 23.552 10.24 23.552 23.552v259.072c0 13.312-10.24 23.552-23.552 23.552-13.312 0-23.552-10.24-23.552-23.552V235.52c-1.024-13.312 10.24-23.552 23.552-23.552zM492.544 627.712c13.312 0 23.552 10.24 23.552 23.552v133.12c0 13.312-10.24 23.552-23.552 23.552-13.312 0-23.552-10.24-23.552-23.552v-133.12c0-13.312 10.24-23.552 23.552-23.552zM487.424 627.712h159.744v46.08H487.424zM616.448 821.248H362.496c-12.288 0-21.504-10.24-21.504-21.504 0-12.288 10.24-21.504 21.504-21.504h253.952c12.288 0 21.504 10.24 21.504 21.504s-9.216 21.504-21.504 21.504zM770.048 495.616c-81.92 0-148.48 66.56-148.48 148.48s66.56 148.48 148.48 148.48 148.48-66.56 148.48-148.48-66.56-148.48-148.48-148.48z m0 276.48c-70.656 0-126.976-57.344-126.976-126.976 0-70.656 57.344-126.976 126.976-126.976 70.656 0 126.976 57.344 126.976 126.976S839.68 772.096 770.048 772.096zM854.016 595.968c-4.096 0-8.192 2.048-11.264 5.12l-86.016 86.016-53.248-53.248c-3.072-3.072-7.168-5.12-11.264-5.12-9.216 0-16.384 7.168-16.384 16.384 0 4.096 2.048 8.192 5.12 11.264l64.512 64.512c3.072 3.072 7.168 5.12 11.264 5.12s8.192-2.048 11.264-5.12l97.28-97.28c3.072-3.072 5.12-7.168 5.12-11.264 0-9.216-8.192-16.384-16.384-16.384zM437.248 296.96h-55.296c-19.456 0-34.816 15.36-34.816 34.816v55.296c0 5.12 4.096 9.216 9.216 9.216s9.216-4.096 9.216-9.216v-55.296c0-9.216 7.168-16.384 16.384-16.384h55.296c5.12 0 9.216-4.096 9.216-9.216s-4.096-9.216-9.216-9.216z m0 267.264h-55.296c-9.216 0-16.384-7.168-16.384-16.384V491.52c0-5.12-4.096-9.216-9.216-9.216s-9.216 4.096-9.216 9.216v55.296c0 19.456 15.36 34.816 34.816 34.816h55.296c5.12 0 9.216-4.096 9.216-9.216s-4.096-8.192-9.216-8.192zM596.992 296.96h-55.296c-5.12 0-9.216 4.096-9.216 9.216s4.096 9.216 9.216 9.216h55.296c9.216 0 16.384 7.168 16.384 16.384v55.296c0 5.12 4.096 9.216 9.216 9.216s9.216-4.096 9.216-9.216v-55.296c0-18.432-15.36-34.816-34.816-34.816z m25.6 186.368c-5.12 0-9.216 4.096-9.216 9.216v55.296c0 9.216-7.168 16.384-16.384 16.384h-55.296c-5.12 0-9.216 4.096-9.216 9.216s4.096 9.216 9.216 9.216h55.296c19.456 0 34.816-15.36 34.816-34.816V491.52c0-4.096-4.096-8.192-9.216-8.192zM471.04 446.464c0 15.36 13.312 28.672 28.672 28.672 15.36 0 28.672-13.312 28.672-28.672 0-15.36-13.312-28.672-28.672-28.672-16.384 0-28.672 13.312-28.672 28.672zM565.248 391.168H542.72c-3.072 0-6.144-2.048-8.192-4.096l-5.12-7.168c-2.048-3.072-5.12-4.096-8.192-4.096h-46.08c-3.072 0-6.144 2.048-8.192 4.096l-5.12 7.168c-2.048 3.072-5.12 4.096-8.192 4.096h-20.48c-8.192 0-15.36 6.144-15.36 14.336v83.968c0 8.192 7.168 14.336 15.36 14.336h132.096c8.192 0 14.336-6.144 14.336-14.336v-83.968c1.024-7.168-6.144-14.336-14.336-14.336z m-65.536 96.256c-22.528 0-40.96-18.432-40.96-40.96s18.432-40.96 40.96-40.96 40.96 18.432 40.96 40.96-18.432 40.96-40.96 40.96z"></path></svg>