<svg viewBox="0 0 1024 1024" version="1.1" xmlns="http://www.w3.org/2000/svg" xmlns:xlink="http://www.w3.org/1999/xlink" width="200" height="200"><path d="M221.696 405.504c-14.848 36.352-23.552 76.8-23.552 117.248 0 34.304 6.144 68.096 16.896 98.304 19.456-31.744 45.056-68.096 76.8-106.496-4.096-8.704-8.704-19.456-8.704-29.696 0-8.704 2.048-14.848 4.096-21.504-29.184-22.016-50.688-40.96-65.536-57.856zM332.8 778.752c10.752-8.704 19.456-16.896 29.696-23.552 87.552-66.048 166.4-104.448 228.352-125.952 0-4.096-2.048-8.704-2.048-12.8v-6.656c-21.504-6.656-45.056-12.8-66.048-21.504-55.296-19.456-102.4-42.496-142.848-64-10.752 10.752-25.6 16.896-40.448 16.896-8.704 0-14.848-2.048-21.504-4.096-40.448 47.104-68.096 91.648-87.552 125.952 25.6 47.616 59.904 85.504 102.4 115.712z m202.752-221.696c23.552 8.704 47.104 14.848 70.656 21.504 6.144-6.144 12.8-10.752 19.456-12.8-6.656-23.552-14.848-47.104-25.6-70.656-14.848-34.304-31.744-66.048-49.152-93.696-6.144 2.048-10.752 2.048-16.896 2.048-12.8 0-25.6-4.096-36.352-12.8-23.552 14.848-47.104 29.696-72.704 49.152l-31.744 25.6c2.048 6.144 4.096 14.848 4.096 21.504v8.704c37.888 18.432 84.992 41.984 138.24 61.44z m298.496-34.304c0-89.6-38.4-172.544-102.4-228.352-31.744 6.144-80.896 19.456-140.8 44.544v6.144c0 12.8-4.096 23.552-10.752 34.304 19.456 29.696 36.352 64 53.248 102.4 10.752 27.648 21.504 55.296 29.696 80.896 16.896 4.096 31.744 16.896 40.448 34.304 12.8 2.048 25.6 2.048 38.4 2.048 31.744 2.048 61.952 0 85.504 0 2.56-27.136 6.656-50.688 6.656-76.288zM516.096 290.304c6.144-2.048 10.752-2.048 16.896-2.048 16.896 0 31.744 6.144 42.496 19.456 47.104-21.504 87.552-34.304 119.296-42.496-51.2-34.304-113.152-55.296-179.2-55.296-23.552 0-49.152 2.048-70.656 8.704 19.968 17.92 45.568 41.472 71.168 71.68z m145.408 509.44c2.048-31.744 0-74.752-10.752-128h-4.096c-14.848 0-27.648-4.096-36.352-12.8-59.904 21.504-138.752 57.344-224.256 123.904-6.144 4.096-12.8 10.752-21.504 14.848 45.056 23.552 96.256 36.352 149.504 36.352 53.248 2.048 104.448-10.752 147.456-34.304zM239.104 371.2c14.848 16.896 38.4 40.448 72.704 66.048 8.704-4.096 19.456-8.704 29.696-8.704 10.752 0 21.504 2.048 29.696 8.704l31.744-25.6c25.6-19.456 51.2-36.352 74.752-51.2-2.048-4.096-2.048-8.704-2.048-14.848 0-12.8 4.096-23.552 10.752-34.304-31.744-35.84-59.904-64-82.944-80.896-70.656 25.6-128 76.8-164.352 140.8z m494.592 262.144c-6.144 0-16.896 0-31.744 4.096-4.096 8.704-8.704 14.848-14.848 21.504 8.704 47.104 12.8 87.552 12.8 119.296 51.2-36.352 91.648-85.504 115.2-144.896h-81.408z"></path><path d="M661.504 87.552c-8.704-25.6-31.744-45.056-61.952-45.056-34.304 0-64 27.648-64 61.952s27.648 61.952 64 61.952c16.896 0 34.304-6.144 45.056-19.456C804.352 202.24 917.504 349.696 917.504 522.24c0 42.496-6.144 83.456-19.456 121.856l55.296 31.744c16.896-47.104 27.648-100.352 27.648-153.6 0.512-202.24-134.144-374.784-319.488-434.688z m181.248 652.8c-34.304 0-64 27.648-64 61.952 0 6.656 2.048 10.752 2.048 16.896-70.656 61.952-164.352 100.352-266.752 100.352-117.248 0-224.256-51.2-298.496-130.048l-57.344 31.744c85.504 98.304 213.504 159.744 354.304 159.744 119.296 0 230.4-45.056 311.296-119.296 4.096 2.048 8.704 2.048 14.848 2.048 34.304 0 64-27.648 64-61.952s-25.6-61.44-59.904-61.44z m-720.896-140.8c-4.096-25.6-8.704-49.152-8.704-76.8 0-189.952 136.704-347.648 317.952-386.048v-64c-217.6 38.4-381.952 225.792-381.952 450.048 0 31.744 4.096 64 10.752 93.696-10.752 10.752-16.896 25.6-16.896 42.496 0 34.304 27.648 61.952 64 61.952 34.304 0 64-27.648 64-61.952-0.512-29.696-21.504-53.248-49.152-59.392z"></path></svg>