<svg viewBox="0 0 1024 1024" version="1.1" xmlns="http://www.w3.org/2000/svg" width="200" height="200"><path d="M927.232 753.92H621.568c-16.896 0-30.72-13.824-30.72-30.72s13.824-30.72 30.72-30.72h305.92c16.896 0 30.72 13.824 30.72 30.72s-13.824 30.72-30.976 30.72zM925.952 881.408H620.032c-16.896 0-30.72-13.824-30.72-30.72s13.824-30.72 30.72-30.72h305.92c16.896 0 30.72 13.824 30.72 30.72s-13.824 30.72-30.72 30.72z"></path><path d="M772.608 740.352c-8.96 0-17.408-3.84-23.296-10.752l-142.848-166.144c-11.008-12.8-9.728-32.256 3.328-43.264 12.8-11.008 32.256-9.728 43.264 3.328l119.04 138.24 112.896-138.752c10.752-13.056 29.952-15.104 43.264-4.352 13.056 10.752 15.104 29.952 4.352 43.264l-136.192 167.424c-5.632 7.168-14.336 11.264-23.296 11.264-0.256-0.256-0.256-0.256-0.512-0.256z"></path><path d="M772.608 978.432c-16.896 0-30.72-13.824-30.72-30.72v-247.808c0-16.896 13.824-30.72 30.72-30.72s30.72 13.824 30.72 30.72v247.808c0 16.896-13.824 30.72-30.72 30.72zM657.408 276.48H257.28c-16.896 0-30.72-13.824-30.72-30.72s13.824-30.72 30.72-30.72h400.128c16.896 0 30.72 13.824 30.72 30.72s-13.824 30.72-30.72 30.72zM503.808 460.032h-246.528c-16.896 0-30.72-13.824-30.72-30.72s13.824-30.72 30.72-30.72h246.528c16.896 0 30.72 13.824 30.72 30.72s-13.824 30.72-30.72 30.72zM415.488 643.84H258.56c-16.896 0-30.72-13.824-30.72-30.72s13.824-30.72 30.72-30.72h156.928c16.896 0 30.72 13.824 30.72 30.72s-13.824 30.72-30.72 30.72z"></path><path d="M503.04 979.712H192.512c-70.656 0-128.256-57.6-128.256-128.256V176.128c0-70.656 57.6-128.256 128.256-128.256H821.76c70.656 0 128.256 57.6 128.256 128.256v213.248c0 16.896-13.824 30.72-30.72 30.72s-30.72-13.824-30.72-30.72V176.128c0-36.864-29.952-66.816-66.816-66.816H192.512c-36.864 0-66.816 29.952-66.816 66.816v675.328c0 36.864 29.952 66.816 66.816 66.816h310.528c16.896 0 30.72 13.824 30.72 30.72s-13.824 30.72-30.72 30.72z"></path></svg>