<svg viewBox="0 0 1024 1024" version="1.1" xmlns="http://www.w3.org/2000/svg" width="200" height="200"><path d="M605.056 889.173333H200.192A30.933333 30.933333 0 0 1 170.666667 857.301333V209.834667a30.933333 30.933333 0 0 1 29.525333-31.872h568.746667c16.896 0.768 30.037333 14.933333 29.482666 31.872v324.437333h-47.616V229.333333H219.733333v612.266667h337.706667l47.616 50.432v-2.858667z"></path><path d="M337.877333 128h14.293334c9.984 0 18.090667 8.106667 18.090666 18.090667v115.114666a18.56 18.56 0 0 1-18.090666 18.56h-14.293334a18.56 18.56 0 0 1-18.602666-18.56V147.968A18.048 18.048 0 0 1 337.365333 128h0.512z m305.28 0h14.293334a18.090667 18.090667 0 0 1 18.56 18.090667v115.114666c0 10.24-8.277333 18.56-18.56 18.56h-14.293334a18.56 18.56 0 0 1-18.090666-18.56V147.968A18.048 18.048 0 0 1 643.157333 128zM295.466667 382.549333h407.722666a25.216 25.216 0 1 1 0 50.389334H295.466667a25.216 25.216 0 1 1 0-50.389334z m0 151.722667h203.861333a25.216 25.216 0 1 1 0 50.432H295.466667a25.216 25.216 0 1 1 0-50.432z m0 151.765333h152.874666a24.746667 24.746667 0 0 1 25.258667 25.216 25.216 25.216 0 0 1-25.258667 25.216H295.466667a25.216 25.216 0 1 1 0-50.432zM697.173333 784.512V616.106667a24.277333 24.277333 0 0 1 48.597334 0v120.362666h72.405333a23.808 23.808 0 0 1 23.808 24.277334 23.765333 23.765333 0 0 1-23.808 23.765333H697.173333z"></path><path d="M725.333333 512a213.333333 213.333333 0 1 1 0 426.666667 213.333333 213.333333 0 0 1 0-426.666667z m0 51.2a162.133333 162.133333 0 1 0 0 324.266667 162.133333 162.133333 0 0 0 0-324.266667z"></path></svg>