<svg t="1782201707901" class="icon" viewBox="0 0 1024 1024" version="1.1" xmlns="http://www.w3.org/2000/svg" p-id="6672" width="32" height="32"><path d="M511.530667 153.856a13.226667 13.226667 0 0 0-6.229334 1.706667A483.114667 483.114667 0 0 1 259.413333 264.96l-2.261333 0.213333h-2.261333a31.658667 31.658667 0 0 0-31.616 31.573334l0.341333 337.536a327.893333 327.893333 0 0 0 83.968 114.261333 475.818667 475.818667 0 0 0 214.698667 120.064 497.28 497.28 0 0 0 203.392-125.226667 297.984 297.984 0 0 0 75.093333-108.544l-0.384-338.048a31.658667 31.658667 0 0 0-31.616-31.616h-2.773333l-2.730667-0.341333a470.656 470.656 0 0 1-245.845333-109.525333 14.634667 14.634667 0 0 0-5.888-1.450667m0-47.445333a64.64 64.64 0 0 1 34.858666 10.752 419.328 419.328 0 0 0 222.506667 100.565333 79.061333 79.061333 0 0 1 78.933333 79.061333l0.341334 339.328c0 43.648-112.170667 220.288-324.266667 281.6-220.373333-46.933333-347.776-237.781333-347.776-281.6l-0.298667-339.328a79.061333 79.061333 0 0 1 79.061334-79.061333 435.626667 435.626667 0 0 0 222.336-100.565333 62.506667 62.506667 0 0 1 34.304-10.752z" p-id="6673"></path><path d="M511.829333 330.624a71.168 71.168 0 1 0 71.168 71.168 71.253333 71.253333 0 0 0-71.168-71.168m0-47.445333a118.613333 118.613333 0 1 1-118.570666 118.613333 118.570667 118.570667 0 0 1 118.570666-118.613333z" p-id="6674"></path><path d="M511.829333 728.917333a23.722667 23.722667 0 0 1-23.722666-23.722666v-206.336a23.722667 23.722667 0 1 1 47.445333 0v206.336a23.722667 23.722667 0 0 1-23.722667 23.722666z" p-id="6675"></path><path d="M587.648 682.453333h-70.144a23.722667 23.722667 0 0 1 0-47.445333h69.930667a23.722667 23.722667 0 0 1 0 47.445333z" p-id="6676"></path></svg>
