<svg viewBox="0 0 1024 1024" version="1.1" xmlns="http://www.w3.org/2000/svg" xmlns:xlink="http://www.w3.org/1999/xlink" width="200" height="200"><path d="M832 264.96a234.24 234.24 0 0 0-227.2-192A231.68 231.68 0 0 0 394.24 211.2a176.64 176.64 0 0 0-64-11.52 173.44 173.44 0 0 0-166.4 158.72 177.92 177.92 0 0 0 0 352.64v-40.32a138.24 138.24 0 0 1 16.64-275.2h19.2v-21.76A136.32 136.32 0 0 1 333.44 236.8a120.32 120.32 0 0 1 64 16.64l20.48 11.52 7.68-21.76a192 192 0 0 1 177.92-131.84 195.84 195.84 0 0 1 192 172.8v15.36h15.36a181.76 181.76 0 0 1 165.12 184.32 181.76 181.76 0 0 1-177.28 185.6h-10.24v39.04h10.24a221.44 221.44 0 0 0 216.32-224.64A219.52 219.52 0 0 0 832 264.96z"></path><path d="M384 525.44l-64 154.24h-26.88l-58.24-154.24h30.08l37.76 110.08a96 96 0 0 1 5.76 22.4 100.48 100.48 0 0 1 4.48-21.76l39.68-110.72zM435.2 657.92v92.8h-27.52V525.44h27.52v26.24a58.24 58.24 0 0 1 53.12-30.08 56.96 56.96 0 0 1 46.08 20.48 85.12 85.12 0 0 1 17.28 55.68 94.72 94.72 0 0 1-19.2 64 64 64 0 0 1-51.2 23.68 52.48 52.48 0 0 1-46.08-25.6z m0-42.24a43.52 43.52 0 0 0 12.16 32 42.24 42.24 0 0 0 64-3.84 75.52 75.52 0 0 0 12.8-46.08A64 64 0 0 0 512 558.08a39.04 39.04 0 0 0-31.36-14.08 42.88 42.88 0 0 0-32.64 14.72 51.2 51.2 0 0 0-12.8 36.48zM696.96 672.64a81.92 81.92 0 0 1-42.88 10.88 72.32 72.32 0 0 1-53.76-21.76 77.44 77.44 0 0 1-20.48-55.68 85.12 85.12 0 0 1 22.4-64 77.44 77.44 0 0 1 58.88-23.04 76.16 76.16 0 0 1 35.84 7.68v26.88a57.6 57.6 0 0 0-35.84-12.16 48.64 48.64 0 0 0-38.4 16.64 64 64 0 0 0-14.72 42.88 58.88 58.88 0 0 0 14.08 42.24 49.28 49.28 0 0 0 37.12 14.72 64 64 0 0 0 37.76-12.8z"></path></svg>