<svg viewBox="0 0 1024 1024" version="1.1" xmlns="http://www.w3.org/2000/svg" width="200" height="200"><path d="M896 63.744H128a64 64 0 0 0-64 64v768.512a64 64 0 0 0 64 64h768a64 64 0 0 0 64-64V127.744a64 64 0 0 0-64-64z m0 800.512a32 32 0 0 1-32 32h-704a32 32 0 0 1-32-32v-218.944h768v218.944z m0-283.328H128V384.576h768v196.352z m0-260.736H128V159.744a32 32 0 0 1 32-32h704a32 32 0 0 1 32 32v160.448z"></path><path d="M571.136 192.256h191.744v64H571.136zM571.136 448.64h191.744v64H571.136zM571.136 704.704h191.744v64H571.136z"></path></svg>