<svg viewBox="0 0 1024 1024" version="1.1" xmlns="http://www.w3.org/2000/svg" xmlns:xlink="http://www.w3.org/1999/xlink" width="24" height="24"><path d="M640 35.84l220.16 128c79.36 46.08 128 130.56 128 221.44V640c0 90.88-48.64 175.36-128 221.44L640 988.16c-79.36 46.08-176.64 46.08-256 0l-220.16-128C84.48 814.08 35.84 729.6 35.84 638.72V384c0-90.88 48.64-175.36 128-221.44L384 35.84c79.36-46.08 176.64-46.08 256 0z" fill="#0080FF"></path><path d="M371.2 441.6a140.8 44.8 0 1 0 281.6 0 140.8 44.8 0 1 0-281.6 0Z" fill="#0080FF"></path><path d="M506.88 729.6c-3.84 0-7.68-3.84-7.68-7.68l1.28-290.56c0-3.84-3.84-7.68-7.68-7.68-2.56 0-5.12 1.28-6.4 2.56L340.48 599.04c-2.56 3.84-2.56 7.68 1.28 10.24 1.28 1.28 2.56 1.28 5.12 1.28h52.48c3.84 0 7.68 3.84 7.68 7.68v102.4c0 5.12-3.84 7.68-7.68 7.68h-106.24C208.64 727.04 140.8 660.48 140.8 577.28c0-76.8 57.6-140.8 133.12-151.04 12.8-117.76 112.64-208.64 234.24-208.64S730.88 308.48 742.4 426.24c72.96 12.8 129.28 75.52 129.28 151.04 0 83.2-67.84 151.04-152.32 152.32H614.4c-5.12 0-7.68-3.84-7.68-7.68v-102.4c0-3.84 3.84-7.68 7.68-7.68h52.48c1.28 0 3.84 0 5.12-1.28 3.84-2.56 3.84-7.68 1.28-10.24L527.36 426.24c-1.28-1.28-3.84-2.56-6.4-2.56-3.84 0-7.68 3.84-7.68 7.68l1.28 290.56c1.28 3.84-2.56 7.68-7.68 7.68z" fill="#FFFFFF"></path></svg>