<svg viewBox="0 0 1040 1024" version="1.1" xmlns="http://www.w3.org/2000/svg" width="200" height="200"><path d="M110.575843 809.908556c43.711202 58.35082 167.680738 80.258335 262.474864 94.897953 160.51667 21.803687 335.569131 7.267896 459.538667-43.815028a344.082951 344.082951 0 0 0 109.329918-80.258335q32.809358-32.705531 65.722544-131.237433c-7.371723 0-21.907514 29.17541-65.722544 51.082925-21.803687 7.267896-36.443306 21.907514-58.35082 29.17541-160.412842 50.979097-386.444401 50.979097-576.136481 29.17541-36.443306-7.371723-116.701641-21.907514-153.144946-29.17541-29.17541 0-43.711202 7.267896-51.082925 29.17541 0 14.535792 7.371723 36.443306 7.371723 50.979098m882.530201-459.43484c-14.535792-21.907514-36.443306-51.082925-65.618716-65.618716-218.763663-123.969536-510.517765-72.678958-510.517765-72.678958a79.220064 79.220064 0 0 0-58.35082 58.35082c-14.639619 58.35082 29.17541 94.897953 72.678958 94.897954H584.546474c160.51667 7.267896 357.372818 14.535792 437.631153 94.794126a269.327452 269.327452 0 0 0-29.17541-109.433745m-51.082925-117.013122A427.144617 427.144617 0 0 0 730.423525 51.451718a355.296276 355.296276 0 0 1-50.979097-21.388379 55.443662 55.443662 0 0 0-29.17541-7.267895C584.546474 7.63669 526.299481 7.63669 453.309042 15.008412c-29.17541 0-58.35082 14.535792-80.258335 21.803688s-43.711202 7.371723-51.186751 29.17541a43.607375 43.607375 0 0 0-7.371723 29.17541c0 14.639619 29.17541 21.907514 43.815029 21.907515 29.17541 0 51.082925-7.267896 80.258334-7.267896 174.948634-14.639619 364.640714 21.907514 466.702736 94.794126 7.267896 0 21.907514 21.907514 36.443306 29.17541" fill="#52C41B"></path><path d="M949.291015 496.350767C708.619838 430.732051 519.135412 459.907461 475.216557 525.526177c-14.639619 21.907514-14.639619 72.678958 0 102.062022 14.535792 36.547133 51.082925 51.082925 109.329917 58.35082a852.939483 852.939483 0 0 0 364.744541-43.295893 382.498972 382.498972 0 0 0 80.154508-58.35082c7.371723-21.907514 14.639619-36.443306 0-51.082925-29.17541-29.17541-80.154508-36.443306-80.154508-36.443306M489.752348 955.785607c-29.17541 0-72.678958 7.371723-72.678958 29.17541 0 29.17541 36.443306 36.547133 65.618716 36.547133H519.135412c138.609155 0 262.578692-58.35082 357.372818-153.248774-94.794126 65.722543-226.031559 87.526231-386.548228 87.526231" fill="#52C41B"></path><path d="M701.248115 919.342301c-29.17541 7.267896-80.154508 21.907514-102.062022 21.907514-175.052461 14.535792-313.661616-21.907514-422.680053-94.794126-7.371723-7.371723-51.082925-36.547133-58.35082-51.082925a292.273237 292.273237 0 0 0 36.131825 65.307235 198.413555 198.413555 0 0 0 58.35082 51.913541c65.618716 51.082925 167.784565 87.526231 204.227871 94.794127 65.618716 14.639619 116.701641 14.639619 197.271457 7.267896 29.17541 0 51.082925-14.535792 80.258335-21.803688 21.907514-7.371723 36.443306-14.639619 43.815028-36.547133a43.815029 43.815029 0 0 0 7.267896-29.17541 44.957127 44.957127 0 0 0-43.815029-7.267896m-612.579786-393.816124C329.339506 590.729585 519.135412 561.969483 562.742787 496.350767c14.535792-21.907514 14.535792-72.678958 0-102.062022s-51.082925-51.082925-109.433745-58.350821a851.382076 851.382076 0 0 0-364.640714 43.711202 243.889817 243.889817 0 0 0-80.258334 65.722543c-7.267896 14.639619-14.535792 29.17541 0 51.082925 29.17541 21.596033 80.258335 29.071583 80.258334 29.071583" fill="#1791FF"></path><path d="M730.423525 270.215381c43.815029 7.371723 124.592499 21.907514 153.144947 29.17541 29.17541 0 43.815029-7.267896 51.082925-29.17541a32.082568 32.082568 0 0 0-7.267896-36.443306A159.478399 159.478399 0 0 0 898.208091 197.328769c-51.082925-36.443306-160.412842-58.35082-233.714763-65.618716-160.412842-21.907514-335.465304-14.639619-467.221871 43.711202a340.033695 340.033695 0 0 0-115.871024 72.678958q-32.809358 33.017012-65.722544 131.548913c7.371723 0 21.907514-29.17541 65.722544-51.082924 21.803687-7.267896 36.443306-21.803687 58.246993-29.175411 175.052461-51.290579 408.455742-51.290579 590.776099-29.17541M168.822836 153.51374C270.988685 87.895024 402.226118 65.98751 562.742787 65.98751c29.17541 0 72.678958-7.267896 72.678958-29.17541C635.629399 7.63669 599.186093 0.368794 570.010683 0.368794c-189.588253-7.267896-335.465304 94.794126-386.548228 138.609155-21.907514 14.535792-29.17541 29.17541-14.639619 14.535791m561.600689 495.981973H540.835273c-189.588253 0-372.012437-7.267896-517.785661-65.618716-7.371723 0-7.371723 7.267896-7.371723 14.535792 0 29.17541 21.907514 94.897953 72.678958 131.341259l14.535792 14.535792c277.21831 182.320357 641.859024 94.794126 641.859024 94.794126 36.443306-14.535792 65.618716-36.443306 72.678957-65.618716 21.907514-80.154508-29.17541-123.969536-87.52623-123.969537" fill="#1791FF"></path></svg>