<svg viewBox="0 0 1024 1024" version="1.1" xmlns="http://www.w3.org/2000/svg" xmlns:xlink="http://www.w3.org/1999/xlink" width="200" height="200"><path d="M640.853333 7.765333l-31.232-7.808-11.690666 29.866667a91.989333 91.989333 0 0 1-171.904 0l-11.690667-29.866667-31.189333 7.808a518.741333 518.741333 0 0 0-136.533334 56.490667l-27.989333 16.512 13.141333 29.866667a91.52 91.52 0 0 1-121.216 121.130666L81.066667 218.709333l-16.597334 27.605334A500.394667 500.394667 0 0 0 7.765333 383.232l-7.808 31.232 29.866667 11.690667a91.989333 91.989333 0 0 1 0 171.904l-29.866667 11.690666 7.808 31.189334a518.058667 518.058667 0 0 0 56.490667 136.533333l16.512 27.989333 29.866667-13.141333a91.52 91.52 0 0 1 121.130666 121.130667l-13.141333 29.866666 27.989333 16.554667a522.282667 522.282667 0 0 0 136.533334 56.448l31.232 7.808 11.690666-29.866667a91.946667 91.946667 0 0 1 171.861334 0l11.690666 29.866667 31.189334-7.808a518.101333 518.101333 0 0 0 136.533333-56.490667l27.989333-16.512-13.141333-29.866666a91.52 91.52 0 0 1 121.088-121.130667l29.482667 13.056 16.597333-27.605333a500.309333 500.309333 0 0 0 56.704-136.96l7.808-31.232-29.866667-11.690667a91.946667 91.946667 0 0 1 0-171.861333l29.866667-11.690667-7.808-31.189333a517.461333 517.461333 0 0 0-56.490667-136.533334l-16.512-27.989333-29.866666 13.141333a91.52 91.52 0 0 1-121.130667-121.088l13.141333-29.866666-27.989333-16.554667a517.461333 517.461333 0 0 0-136.533333-56.405333z m9.642667 78.848l7.082667 2.261334a437.077333 437.077333 0 0 1 50.389333 20.949333l7.125333 3.584-1.152 5.76a164.778667 164.778667 0 0 0 45.482667 145.408l7.466667 6.997333a164.906667 164.906667 0 0 0 137.984 38.4l5.717333-1.237333 3.712 7.168a454.656 454.656 0 0 1 20.906667 50.389333l2.176 6.997334-3.498667 2.304a165.12 165.12 0 0 0-72.106667 136.277333l0.298667 9.728a165.162667 165.162667 0 0 0 71.765333 126.506667l3.541334 2.304-2.432 7.68a416.128 416.128 0 0 1-20.736 50.261333l-3.456 6.613333-5.845334-1.237333a164.736 164.736 0 0 0-145.450666 45.482667l-6.997334 7.466666a164.906667 164.906667 0 0 0-38.4 137.984l1.152 5.717334-7.125333 3.712a445.482667 445.482667 0 0 1-50.389333 20.906666l-7.082667 2.176-2.261333-3.498666a165.077333 165.077333 0 0 0-136.234667-72.106667l-9.770667 0.298667a164.437333 164.437333 0 0 0-126.464 71.68l-2.304 3.584-6.997333-2.176a445.397333 445.397333 0 0 1-50.389333-20.949334l-7.168-3.669333 1.28-5.717333a164.736 164.736 0 0 0-45.525334-145.408l-7.466666-6.997334a164.906667 164.906667 0 0 0-137.984-38.4l-5.76 1.152-3.669334-7.125333a445.397333 445.397333 0 0 1-20.906666-50.389333l-2.261334-7.082667 3.541334-2.261333a165.077333 165.077333 0 0 0 72.106666-136.234667l-0.298666-9.770667a164.437333 164.437333 0 0 0-71.68-126.464l-3.712-2.346666 2.432-7.637334a416.384 416.384 0 0 1 20.778666-50.261333l3.413334-6.656 5.930666 1.322667A164.778667 164.778667 0 0 0 264.618667 264.533333l6.997333-7.466666a164.906667 164.906667 0 0 0 38.4-137.984l-1.237333-5.76 7.168-3.669334a445.44 445.44 0 0 1 50.389333-20.906666l6.997333-2.261334 2.304 3.541334a164.864 164.864 0 0 0 272.554667 0l2.261333-3.669334z"></path><path d="M512 346.88a165.12 165.12 0 1 0 165.12 165.077333A165.504 165.504 0 0 0 512 346.88z m0 73.045333a92.032 92.032 0 1 1-92.032 92.032A92.416 92.416 0 0 1 512 419.925333z"></path></svg>