<svg viewBox="0 0 1026 1024" version="1.1" xmlns="http://www.w3.org/2000/svg" width="200" height="200"><path d="M308.48 373.12a48 48 0 0 0 67.84 0 48 48 0 0 0 0-67.84L308.48 373.12zM163.2 94.08a48 48 0 0 0-67.84 0 48 48 0 0 0 0 67.84l67.84-67.84z m213.12 211.2l-213.12-211.2-67.84 67.84 213.12 211.2 67.84-67.84zM720 650.88a48 48 0 1 0-67.84 67.84l67.84-67.84z m143.36 279.04a48 48 0 0 0 67.84-67.84l-67.84 67.84z m-211.2-211.2l211.2 211.2 67.84-67.84-211.2-211.2-67.84 67.84zM652.16 305.28a48 48 0 1 0 67.84 67.84l-67.84-67.84z m279.04-143.36a48 48 0 0 0-67.84-67.84l67.84 67.84z m-211.2 211.2l211.2-211.2-67.84-67.84-211.2 211.2 67.84 67.84z"></path><path d="M875.52 387.2a48 48 0 0 0 0-96v96z m-192-48h-48a48.64 48.64 0 0 0 48 48V339.2z m48-192a48 48 0 1 0-96 0z m144 144h-192v96h192v-96z m-144 48v-192h-96v192zM640 874.88a48 48 0 0 0 96 0z m48-192v-48a47.36 47.36 0 0 0-48 48z m192 48a48 48 0 0 0 0-96v96z m-144 144v-192H640v192z m-48-144h192v-96h-192v96zM376.32 718.72a48 48 0 0 0 0-67.84 48 48 0 0 0-67.84 0l67.84 67.84z m-280.96 143.36a48 48 0 0 0 0 67.84 48 48 0 0 0 67.84 0l-67.84-67.84z m213.12-211.2l-213.12 211.2 67.84 67.84 213.12-211.2-67.84-67.84zM150.4 634.88a48 48 0 1 0 0 96v-96z"></path><path d="M342.4 682.88h48a47.36 47.36 0 0 0-48-48v48zM294.4 874.88a48 48 0 0 0 96 0zM150.4 730.88h192v-96h-192v96z"></path><path d="M294.4 682.88v192h96v-192H294.4zM390.4 147.2a48 48 0 0 0-96 0z m-48 192v48a48 48 0 0 0 48-48z m-192-48a48 48 0 0 0 0 96v-96zM294.4 147.2v192h96v-192z m48 144h-192v96h192v-96z"></path></svg>