<svg xmlns="http://www.w3.org/2000/svg" viewBox="0 0 1024 1024" version="1.1"><path d="M512 0c282.781538 0 511.881846 229.100308 512 511.881846 0 282.860308-229.218462 512-512 512C229.139692 1023.881846 0 794.781538 0 512S229.257846 0 512 0z m0 50.766769a459.500308 459.500308 0 0 0-326.025846 134.971077 459.933538 459.933538 0 0 0-135.010462 326.025846c0 62.306462 12.209231 122.722462 36.233846 179.515077a457.767385 457.767385 0 0 0 98.776616 146.628923A459.933538 459.933538 0 0 0 512 972.918154c62.267077 0 122.722462-12.209231 179.515077-36.233846a457.767385 457.767385 0 0 0 146.628923-98.776616 461.430154 461.430154 0 0 0 98.776615-146.589538 460.8 460.8 0 0 0 36.233847-179.554462c0-62.188308-12.209231-122.604308-36.233847-179.396923a457.767385 457.767385 0 0 0-98.776615-146.628923A460.484923 460.484923 0 0 0 512 50.727385v0.039384zM264.349538 354.461538c30.72 0 54.744615 7.443692 71.955693 22.449231 18.510769 16.147692 28.987077 40.96 31.665231 74.200616l-3.544616 3.859692H323.465846l-3.426461-2.875077c-3.387077-17.526154-9.491692-29.932308-18.353231-37.454769-8.192-7.364923-21.346462-11.145846-39.424-11.145846-15.438769 0-26.978462 2.481231-34.697846 7.404307-9.255385 5.435077-13.784615 14.454154-13.784616 27.648 0 11.697231 5.198769 20.676923 15.990154 27.254154 5.395692 3.426462 19.692308 9.452308 42.535385 17.959385 33.476923 11.972923 55.729231 21.740308 66.953846 29.459692 22.921846 15.872 34.422154 38.281846 34.422154 66.835692 0 27.569231-9.255385 49.624615-27.805539 65.811693-18.628923 15.832615-44.386462 23.670154-77.23323 23.670154-31.901538 0-56.950154-7.286154-75.067077-21.937231-22.331077-18.116923-34.264615-46.631385-35.997539-85.228308l3.465846-3.702154H202.043077l3.465846 3.111385c2.717538 21.897846 9.216 37.139692 19.259077 45.843692 9.452308 7.995077 24.024615 12.051692 43.795692 12.051692 17.723077 0 31.704615-3.426462 41.865846-10.16123 9.964308-7.089231 14.808615-15.832615 14.808616-26.545231 0-14.414769-7.207385-25.718154-21.976616-34.264615-5.395692-3.150769-21.700923-9.649231-48.64-19.259077-31.704615-11.736615-51.121231-20.086154-58.80123-25.324308-20.361846-14.217846-30.523077-35.249231-30.523077-62.700308 0-27.608615 9.846154-49.309538 29.617231-64.590769C212.992 361.944615 236.189538 354.461538 264.270769 354.461538h0.078769z m246.429539 0c30.72 0 54.744615 7.443692 71.955692 22.449231 18.471385 16.147692 28.987077 40.96 31.625846 74.200616l-3.426461 3.859692h-41.078154l-3.426462-2.875077c-3.387077-17.526154-9.531077-29.932308-18.35323-37.454769-8.231385-7.364923-21.346462-11.145846-39.463385-11.145846-15.438769 0-26.978462 2.481231-34.658461 7.404307-9.294769 5.435077-13.824 14.454154-13.824 27.648 0 11.697231 5.198769 20.676923 15.990153 27.254154 5.435077 3.426462 19.692308 9.452308 42.535385 17.959385 33.476923 11.972923 55.768615 21.740308 66.953846 29.459692 22.921846 15.872 34.422154 38.281846 34.422154 66.835692 0 27.569231-9.255385 49.624615-27.805538 65.811693-18.589538 15.832615-44.347077 23.670154-77.193847 23.670154-31.901538 0-56.950154-7.286154-75.106461-21.937231-22.291692-18.116923-34.264615-46.631385-35.958154-85.228308l3.505231-3.702154h40.999384l3.465847 3.111385c2.756923 21.897846 9.216 37.139692 19.298461 45.843692 9.412923 7.995077 24.024615 12.051692 43.756308 12.051692 17.762462 0 31.744-3.426462 41.865846-10.16123 9.964308-7.089231 14.808615-15.832615 14.808615-26.545231 0-14.414769-7.168-25.718154-21.976615-34.264615-5.356308-3.150769-21.661538-9.649231-48.600615-19.259077-31.704615-11.736615-51.160615-20.086154-58.801231-25.324308-20.361846-14.217846-30.523077-35.249231-30.523077-62.700308 0-27.608615 9.846154-49.309538 29.577846-64.590769 18.116923-14.926769 41.314462-22.370462 69.395692-22.370462h0.039385z m187.628308 311.217231l-3.505231 3.859693h-41.038769l-3.505231-3.859693V358.321231l3.544615-3.859693h40.999385l3.505231 3.859693v124.455384h120.004923v-124.455384L821.956923 354.461538h40.999385l3.50523 3.859693v307.357538l-3.50523 3.859693H821.956923l-3.505231-3.859693v-132.174769h-120.004923v132.174769z"></path></svg>