<svg viewBox="0 0 1068 1024" version="1.1" xmlns="http://www.w3.org/2000/svg" width="200" height="200"><path d="M288.74122 1014.88832a78.150526 78.150526 0 0 1-113.411446-82.374879l46.940014-273.340471-198.668825-193.62445a78.150526 78.150526 0 0 1 43.312041-133.290753l274.533229-39.758614L464.250652 43.734475a78.150526 78.150526 0 0 1 140.124265 0l122.804419 248.71498 274.483531 39.932558a78.150526 78.150526 0 0 1 43.31204 133.290753l-198.619126 193.62445 46.890315 273.340471a78.150526 78.150526 0 0 1-113.411446 82.374878l-245.509441-129.041551-245.583989 128.917306z m261.139547-196.556648l261.139546 137.266615a11.157261 11.157261 0 0 0 16.176786-11.753641l-49.872211-290.734864a33.496632 33.496632 0 0 1 9.641464-29.645017l211.217636-205.899922a11.157261 11.157261 0 0 0-6.212283-19.059285L700.068931 356.088086a33.496632 33.496632 0 0 1-25.221871-18.313811L544.264862 73.230397a11.157261 11.157261 0 0 0-20.003552 0l-130.557349 264.543878a33.496632 33.496632 0 0 1-25.221871 18.313811L76.529618 398.505558a11.157261 11.157261 0 0 0-6.212283 19.059285l211.217637 205.899922a33.496632 33.496632 0 0 1 9.641463 29.645017l-49.872211 290.734864a11.157261 11.157261 0 0 0 16.201635 11.753641l261.139547-137.266615a33.496632 33.496632 0 0 1 31.160813 0z"></path></svg>