<svg viewBox="0 0 1025 1024" version="1.1" xmlns="http://www.w3.org/2000/svg" width="200" height="200"><path d="M512 0c-27.733333 0-53.333333 14.933333-66.133333 42.666667l-96 206.933333c-12.8 25.6-36.266667 44.8-64 49.066667L64 330.666667c-59.733333 10.666667-85.333333 83.2-42.666667 125.866666l166.4 170.666667c19.2 19.2 27.733333 46.933333 23.466667 72.533333L170.666667 936.533333c-6.4 49.066667 29.866667 87.466667 72.533333 87.466667 12.8 0 23.466667-2.133333 36.266667-8.533333l196.266666-108.8c10.666667-6.4 23.466667-8.533333 36.266667-8.533334 12.8 0 25.6 2.133333 36.266667 8.533334l196.266666 108.8c10.666667 6.4 23.466667 8.533333 36.266667 8.533333 42.666667 0 81.066667-38.4 72.533333-87.466667l-38.4-236.8c-4.266667-25.6 4.266667-53.333333 23.466667-72.533333l166.4-170.666667c42.666667-42.666667 17.066667-115.2-42.666667-125.866666L740.266667 298.666667c-27.733333-4.266667-53.333333-23.466667-64-49.066667L578.133333 42.666667C565.333333 14.933333 539.733333 0 512 0z"></path></svg>