<svg viewBox="0 0 1024 1024" version="1.1" xmlns="http://www.w3.org/2000/svg" width="200" height="200"><path d="M511.7 959.7c-60.5 0-119.2-11.9-174.5-35.3-53.4-22.6-101.3-54.9-142.5-96.1-41.2-41.2-73.5-89.1-96.1-142.5-23.4-55.3-35.3-114-35.3-174.5s11.9-119.2 35.3-174.5c22.6-53.4 54.9-101.3 96.1-142.5 16.1-16.1 42.2-16.1 58.3 0 16.1 16.1 16.1 42.2 0 58.3-69.1 69.1-107.2 161-107.2 258.7 0 201.7 164.1 365.9 365.9 365.9 201.7 0 365.9-164.1 365.9-365.9 0-97.7-38.1-189.6-107.2-258.7-16.1-16.1-16.1-42.2 0-58.3s42.2-16.1 58.3 0c41.2 41.2 73.5 89.1 96.1 142.5 23.4 55.3 35.3 114 35.3 174.5s-11.9 119.2-35.3 174.5c-22.6 53.4-54.9 101.3-96.1 142.5-41.2 41.2-89.1 73.5-142.5 96.1-55.3 23.5-114 35.3-174.5 35.3z"></path><path d="M511.7 959.7c-60.5 0-119.2-11.9-174.5-35.3-53.4-22.6-101.3-54.9-142.5-96.1-41.2-41.2-73.5-89.1-96.1-142.5-23.4-55.3-35.3-114-35.3-174.5s11.9-119.2 35.3-174.5c22.6-53.4 54.9-101.3 96.1-142.5 16.1-16.1 42.2-16.1 58.3 0 16.1 16.1 16.1 42.2 0 58.3-69.1 69.1-107.2 161-107.2 258.7 0 201.7 164.1 365.9 365.9 365.9 201.7 0 365.9-164.1 365.9-365.9 0-97.7-38.1-189.6-107.2-258.7-16.1-16.1-16.1-42.2 0-58.3s42.2-16.1 58.3 0c41.2 41.2 73.5 89.1 96.1 142.5 23.4 55.3 35.3 114 35.3 174.5s-11.9 119.2-35.3 174.5c-22.6 53.4-54.9 101.3-96.1 142.5-41.2 41.2-89.1 73.5-142.5 96.1-55.3 23.5-114 35.3-174.5 35.3z"></path><path d="M511.3 576c-22.5 0-40.9-18.4-40.9-40.9v-430c0-22.5 18.4-40.9 40.9-40.9s40.9 18.4 40.9 40.9v430c0 22.6-18.4 40.9-40.9 40.9z"></path></svg>