<svg viewBox="0 0 1024 1024" version="1.1" xmlns="http://www.w3.org/2000/svg" width="200" height="200"><path d="M185.405 294.66c-12.372-12.372-12.496-32.354-0.371-44.878l0.37-0.377 176-176c19.958-19.958 53.94-6.164 54.618 21.776l0.01 0.851v832c0 17.673-14.327 32-32 32-17.496 0-31.713-14.042-31.996-31.47l-0.004-0.53V173.287L230.66 294.66c-12.371 12.372-32.353 12.496-44.877 0.372l-0.377-0.372z m653.254 434.68c12.372 12.372 12.496 32.354 0.372 44.878l-0.372 0.377-176 176c-19.957 19.958-53.939 6.164-54.617-21.776l-0.01-0.851v-832c0-17.673 14.327-32 32-32 17.496 0 31.713 14.042 31.996 31.47l0.004 0.53v754.745L793.405 729.34c12.371-12.372 32.353-12.496 44.877-0.372l0.377 0.372z"></path></svg>