<svg t="1756191854550" class="icon" viewBox="0 0 1024 1024" version="1.1" xmlns="http://www.w3.org/2000/svg" p-id="13659" width="200" height="200"><path d="M921.6 51.2l-0.1024 463.7696-0.4096 15.0528-1.024 16.128-1.7408 17.2544-1.7408 12.032-2.304 12.4928a323.4304 323.4304 0 0 1-2.9184 12.8512l-3.584 13.312-2.048 6.7584-4.7616 13.824A360.6528 360.6528 0 0 1 857.6512 716.8l-11.6224 15.872C788.8896 807.2192 688.4352 889.856 512 972.8c-207.9232-97.792-310.272-195.072-360.704-279.296l-8.6016-15.2064a340.992 340.992 0 0 1-19.6608-43.5712l-4.7616-13.824a321.3312 321.3312 0 0 1-2.048-6.8096l-3.584-13.312-2.9184-12.8512-2.304-12.4928-1.7408-12.032-1.28-11.6224-1.2288-16.4864-0.6656-20.3264L102.4 51.2h819.2z m-76.8 76.8H179.1488l0.1024 384.4608 0.512 17.152 0.9728 13.6704 0.9216 9.0112 1.3312 9.216 1.6896 9.5232 2.0992 9.728 4.1984 15.2576 4.096 12.1856c32.7168 88.8832 121.088 178.0736 293.376 267.3664l23.5008 11.8784 5.632-2.7648c123.7504-62.1568 207.872-125.4912 259.072-188.0576l7.424-9.3696 10.5472-14.3872a295.936 295.936 0 0 0 28.8768-50.9952l4.8128-12.032 5.3248-15.7696 3.1744-11.6736 1.9456-8.3968 1.792-9.6768 1.3824-8.8576 1.536-13.9264 0.8704-13.6704 0.3584-12.9024L844.8 128zM396.8 307.2v76.8H358.4V614.4H281.6V384h-38.4V307.2h153.6z m384 0v76.8h-76.8v38.4h76.8V614.4h-153.6v-76.8h76.8v-38.4h-76.8V307.2h153.6z m-256 0v230.4h76.8V614.4h-153.6V307.2h76.8z" fill="#2aa515" p-id="13660"></path></svg>
