<svg viewBox="0 0 1024 1024" version="1.1" xmlns="http://www.w3.org/2000/svg" xmlns:xlink="http://www.w3.org/1999/xlink" width="200" height="200"><path d="M646.9 84.3L590.1 277l219.7 110.3 21 18.8L690.3 77s-22.2-27.9-43.4 7.3zM418.5 941.1L465 745.7l-225.1-98.6-22-17.6 157.6 321.3s23.7 26.7 43-9.7z" fill="#FF9D68"></path><path d="M513.3 500.2m-328 0a328 328 0 1 0 656 0 328 328 0 1 0-656 0Z" fill="#FF8746"></path><path d="M640.3 345.4L559.9 483h57v41.4h-70.4v31.4h70.4v41.8h-70.4V655h-63.6v-57.4h-72.8v-41.8h72.8v-31.4h-72.8V483h58.6l-78.2-137.6h68c30.8 63.7 50.3 105.7 58.4 126h1.4c1.1-2.9 2.3-6.6 3.8-11 2.4-7.1 12-27.9 28.8-62.4l25-52.6h64.4z" fill="#FFFFFF"></path></svg>