<svg viewBox="0 0 1024 1024" version="1.1" xmlns="http://www.w3.org/2000/svg" xmlns:xlink="http://www.w3.org/1999/xlink" width="24" height="24"><path d="M868.86956533 121.5458501l0.09248994 572.22924873c0.01778643 94.45375459-49.03754942 143.94664073-80.53754941 174.35810302-60.18616583 58.10158125-146.21620518 92.00276719-248.76284589 92.02055274-102.10553349 0.01422949-196.45612646-46.75375459-236.5968375-83.32292461-35.89328057-32.69169932-90.64387354-87.76956533-90.66521778-190.70751006l-0.05691709-342.86798408 72.81818173-0.01422949-0.16719345-73.90316162 73.44071103 0.29881406-0.01067168-72.07826045 73.51897237-0.60474375 0.08181826 488.52924961c0.00711474 50.45691709 69.2573124 75.6853752 108.60118594 75.67826044 38.01343887-0.00711474 108.95335927-27.70434756 109.36245058-73.14901172l-0.50158125-566.4343869 219.3830042-0.03557373z" fill="#0533FF"></path><path d="M215.23834004 272.24426885H262.95256953v47.10237188H215.23834004zM287.88577051 199.71778643h47.71422949v47.09881406H287.88932832zM361.31225292 124.51264824h47.72134425v47.09881407H361.31580987zM292.41778643 133.40237188h41.42845898v40.88774706H292.41778643zM219.15138359 206.54782578h41.42845811V247.4426876H219.15138359zM155.11264825 211.10118594H188.28458457v32.74150166H155.11264825zM228.22608711 136.30513818h33.17193633v32.74150255h-33.17193633zM300.93043467 63.99209463h33.1719372v32.74150254h-33.1719372z" fill="#0533FF"></path><path d="M300.93043467 63.99209463h33.1719372v32.74150254h-33.1719372zM158.39960469 141.27826045h25.86165996v25.52727304H158.40316162zM232.34545479 67.72727305h25.8687747v25.52727216h-25.8687747zM162.5225293 71.04624541H179.39130401v16.6482211H162.5225293z" fill="#0533FF"></path></svg>