<svg viewBox="0 0 1024 1024" version="1.1" xmlns="http://www.w3.org/2000/svg" width="200" height="200"><path d="M534.336 44.8l3.072 5.056 133.632 270.72 298.752 43.456a32 32 0 0 1 21.376 50.368l-3.584 4.16-107.328 104.576-44.672-45.824 60.864-59.328-251.264-36.48a32 32 0 0 1-20.8-12.16l-3.328-5.376L508.672 136.32 396.352 363.968a32 32 0 0 1-18.048 16l-6.08 1.536-251.264 36.48 181.824 177.28a32 32 0 0 1 9.664 22.08l-0.448 6.208-42.944 250.24 84.096-44.16 29.76 56.64-141.44 74.368a32 32 0 0 1-46.912-28.608l0.448-5.12 51.072-297.664L29.888 418.56a32 32 0 0 1 12.352-53.312l5.376-1.28 298.752-43.392L480 49.856a32 32 0 0 1 54.336-5.12z m250.816 522.304l45.248 45.248-113.152 113.088 113.152 113.216-45.248 45.248-113.152-113.28-113.152 113.28-45.248-45.248 113.152-113.28-113.152-113.024 45.248-45.248 113.152 113.024 113.152-113.024z"></path></svg>