<svg viewBox="0 0 1024 1024" version="1.1" xmlns="http://www.w3.org/2000/svg" xmlns:xlink="http://www.w3.org/1999/xlink" width="200" height="200"><path d="M1024 512.256a512 512 0 1 0-1024 0 506.282667 506.282667 0 0 0 149.333333 359.253333l-0.426666 0.384c0.810667 0.810667 1.706667 1.493333 2.517333 2.346667a11.648 11.648 0 0 0 1.92 1.792 514.730667 514.730667 0 0 0 726.272-4.266667l-1.109333-0.981333A502.826667 502.826667 0 0 0 1024 512.256z m-981.333333 0a469.333333 469.333333 0 1 1 817.749333 316.586667 1231.317333 1231.317333 0 0 0-184.874667-74.709334c-17.792-7.125333-35.584-14.250667-56.874666-21.333333V654.506667a150.442667 150.442667 0 0 0 64-124.501334 66.858667 66.858667 0 0 0 28.458666-60.501333 62.464 62.464 0 0 0-21.333333-53.333333A264.234667 264.234667 0 0 0 704 273.92c-14.208-60.501333-92.416-81.834667-160-81.834667-56.874667 0-124.458667 17.792-149.333333 64A55.466667 55.466667 0 0 0 341.333333 273.877333c-32 32-14.208 103.125333-3.541333 138.709334a69.930667 69.930667 0 0 0-21.333333 56.874666 66.901333 66.901333 0 0 0 28.458666 60.501334A149.845333 149.845333 0 0 0 405.333333 654.464v78.293333c-14.208 7.125333-32 10.666667-49.792 17.792a1370.922667 1370.922667 0 0 0-188.458666 78.250667A472.277333 472.277333 0 0 1 42.666667 512.256z m158.08 349.184a1508.693333 1508.693333 0 0 1 169.002666-71.722667c24.874667-7.125333 46.250667-14.250667 67.584-21.333333a21.333333 21.333333 0 0 0 10.666667-21.333333v-106.666667a22.144 22.144 0 0 0-14.250667-21.333333S384 601.258667 384 512.384a19.925333 19.925333 0 0 0-17.792-21.333333c-3.584 0-7.125333-7.125333-7.125333-21.333334a77.824 77.824 0 0 1 3.541333-21.333333 20.522667 20.522667 0 0 0 21.333333-21.333333 62.378667 62.378667 0 0 0-3.584-21.333334c-7.125333-21.333333-24.874667-85.333333-7.125333-103.168a26.794667 26.794667 0 0 1 28.416-3.541333 20.224 20.224 0 0 0 24.874667-14.250667c7.125333-28.458667 56.874667-49.792 117.333333-49.792 64 0 113.749333 21.333333 120.874667 49.792a291.370667 291.370667 0 0 1-17.792 117.418667 146.346667 146.346667 0 0 0-7.125334 24.874667 22.954667 22.954667 0 0 0 21.333334 21.333333c3.541333 0 7.125333 10.666667 7.125333 21.333333 0 14.250667-3.584 21.333333-7.125333 21.333334a22.954667 22.954667 0 0 0-21.333334 21.333333c0 88.917333-46.208 106.666667-46.208 106.666667a26.24 26.24 0 0 0-17.749333 21.333333v106.666667a23.978667 23.978667 0 0 0 14.208 21.333333c24.874667 7.125333 46.208 17.792 71.125333 24.874667a1254.4 1254.4 0 0 1 166.656 68.266666 469.333333 469.333333 0 0 1-627.2 0z"></path></svg>