<svg viewBox="0 0 1047 1024" version="1.1" xmlns="http://www.w3.org/2000/svg" xmlns:xlink="http://www.w3.org/1999/xlink" width="204.4921875" height="200"><path d="M1003.741964 788.947279a196.298947 196.298947 0 1 1-196.037215-192.285724 193.50714 193.50714 0 0 1 196.037215 191.282418z m43.621988 0a239.920935 239.920935 0 1 0-239.920935 235.035272 237.041884 237.041884 0 0 0 239.920935-236.038578z m-567.085847 21.810994h-436.219882a734.027196 734.027196 0 0 1 21.810994-145.697441c10.818253-28.441536 94.35436-56.708585 170.867328-81.529496 32.716491-10.818253 69.184473-21.374774 98.149473-31.974917a19.368163 19.368163 0 0 0 14.613366-21.374774V421.737382a19.629895 19.629895 0 0 0-10.818253-17.885015c-3.795113 0-54.614729-25.169887-54.614729-109.971032a22.639812 22.639812 0 0 0-18.103125-21.374775c-3.795113 0-7.284872-7.066762-7.284872-21.374774a28.659646 28.659646 0 0 1 7.284872-21.156664c10.818253 0 18.103125-7.066762 18.103125-21.374774a58.235354 58.235354 0 0 0-3.751491-21.156665c-3.533381-17.885015-21.810994-67.701326-7.066762-81.791228a33.458065 33.458065 0 0 1 28.921378-3.533381 20.6332 20.6332 0 0 0 25.169887-14.351634C334.624286 62.597553 385.705635 41.702621 447.387126 41.702621s116.514331 21.374774 120.047711 46.064819a133.875882 133.875882 0 0 1-14.613366 95.968374 93.263811 93.263811 0 0 0-7.066762 25.169888 28.179804 28.179804 0 0 0 7.02314 14.351634c3.795113 3.533381 7.284872 3.533381 14.613366 7.066762a48.333163 48.333163 0 0 1 3.751491 21.156664 48.900249 48.900249 0 0 1-3.751491 21.374774c-10.818253 3.533381-21.810994 10.556521-21.810994 21.374774a116.383465 116.383465 0 0 1-50.339774 109.971033 25.169887 25.169887 0 0 0-14.613366 17.885015v106.437651a25.169887 25.169887 0 0 0 14.613366 21.374774c36.467982 14.089902 75.509662 25.169887 109.054971 35.464677l14.613366-38.998058c-29.18311-10.818253-61.899601-21.374774-94.616093-31.974917v-77.516273a148.31476 148.31476 0 0 0 65.432982-124.322666c7.284872-7.066762 14.613366-10.556521 18.103126-21.156665a122.665031 122.665031 0 0 0 7.284872-39.259789 89.0761 89.0761 0 0 0-18.103126-56.708585 195.077531 195.077531 0 0 0 14.613367-117.255904C597.010545 21.462018 513.212706 0.174488 447.779724 0.174488c-58.14811 0-127.332584 17.448795-156.253962 60.416454a50.339774 50.339774 0 0 0-50.339774 17.448795c-28.921378 31.974917-10.818253 88.814368-3.533381 120.789285-3.533381 3.533381-7.284872 10.556521-10.818253 14.089902a70.711243 70.711243 0 0 0-11.079985 38.998058 73.72116 73.72116 0 0 0 25.169887 60.416454 158.565927 158.565927 0 0 0 65.694714 124.322666v78.257847c-25.169887 10.556521-54.614729 17.448795-80.002726 28.441536-105.434345 31.974917-185.480694 60.154722-201.315476 106.437651a785.195788 785.195788 0 0 0-25.169887 180.944007 18.408479 18.408479 0 0 0 7.066762 14.351635 14.875098 14.875098 0 0 0 14.613366 7.066762h458.248986z"></path><path d="M896.431873 740.526872l-62.379444 60.765429 62.379444 62.161334a16.794465 16.794465 0 0 1 0 28.877756c-3.707869 7.415738-7.415738 7.415738-14.831476 7.415738a14.831476 14.831476 0 0 1-14.831476-7.415738l-63.949835-60.503698-62.990151 60.023856a14.831476 14.831476 0 0 1-14.831476 7.415738 20.764066 20.764066 0 0 1-18.757455-7.415738 21.50564 21.50564 0 0 1 0-28.877756l63.949835-61.986846-63.949835-60.765429a26.173193 26.173193 0 0 1 0-32.367515 28.877756 28.877756 0 0 1 33.588931 0l62.466687 61.986845 63.949835-61.986845a23.206898 23.206898 0 0 1 29.61933 0 19.760761 19.760761 0 0 1 0 32.847357z"></path></svg>