<svg viewBox="0 0 1024 1024" version="1.1" xmlns="http://www.w3.org/2000/svg" width="200" height="200"><path d="M798.293333 85.333333H453.802667c-77.909333 0-137.813333 59.733333-137.813334 137.216v95.573334H223.146667C145.237333 318.208 85.333333 378.026667 85.333333 455.594667v343.381333c0 77.482667 59.733333 137.301333 137.813334 137.301333h341.504c77.909333 0 137.813333-59.733333 137.813333-137.386666V700.330667h95.829333c77.909333 0 137.813333-59.733333 137.813334-137.301334V219.648C939.178667 147.968 876.202667 85.333333 798.293333 85.333333z m36.010667 480.597334a36.352 36.352 0 0 1-35.925333 35.669333H603.648v197.12a36.352 36.352 0 0 1-35.925333 35.754667H223.232a36.437333 36.437333 0 0 1-36.010667-35.84V455.424a36.352 36.352 0 0 1 36.010667-35.84h194.645333V222.549333c0-20.821333 18.005333-35.669333 36.010667-35.669333h344.490667c19.626667 0.256 35.498667 16.042667 35.84 35.669333v343.381334z" fill="#5DB013"></path><path d="M513.706667 279.296v223.829333H283.136V733.013333h230.656V509.184h230.570667V279.296z" fill="#F2B624"></path></svg>