<svg viewBox="0 0 1024 1024" version="1.1" xmlns="http://www.w3.org/2000/svg" width="200" height="200"><path d="M836.394667 475.861333L709.973333 970.154667a8.661333 8.661333 0 0 0 0 4.138666 9.216 9.216 0 0 0 9.173334 7.04h252.714666a9.216 9.216 0 0 0 9.216-11.178666l-127.018666-494.293334a9.301333 9.301333 0 0 0-14.378667-4.736 8.96 8.96 0 0 0-3.328 4.693334M140.8 587.861333l-97.92 382.293334a9.173333 9.173333 0 0 0 9.258667 11.136h195.029333a9.344 9.344 0 0 0 7.381333-3.328 8.917333 8.917333 0 0 0 1.792-3.669334 8.661333 8.661333 0 0 0 0.042667-4.138666l-98.005333-382.293334a8.96 8.96 0 0 0-3.328-4.650666 9.386667 9.386667 0 0 0-5.418667-1.792 9.386667 9.386667 0 0 0-5.546667 1.792 8.96 8.96 0 0 0-3.285333 4.650666" fill="#00E5E5"></path><path d="M313.429333 271.36l-178.346666 698.794667a8.96 8.96 0 0 0 1.706666 7.594666 9.088 9.088 0 0 0 7.04 3.541334h356.821334a9.216 9.216 0 0 0 9.258666-11.093334L331.050667 271.274667a8.96 8.96 0 0 0-3.328-4.650667 9.386667 9.386667 0 0 0-5.461334-1.792 9.386667 9.386667 0 0 0-5.504 1.792 8.96 8.96 0 0 0-3.328 4.693333" fill="#006EFF"></path><path d="M621.141333 49.109333a8.96 8.96 0 0 0-3.328-4.650666 9.386667 9.386667 0 0 0-5.504-1.792 9.386667 9.386667 0 0 0-5.461333 1.792 8.96 8.96 0 0 0-3.328 4.650666L359.722667 970.154667a9.173333 9.173333 0 0 0 9.216 11.093333h487.253333a9.344 9.344 0 0 0 7.338667-3.328 9.472 9.472 0 0 0 1.877333-3.669333 9.173333 9.173333 0 0 0 0-4.096L621.141333 49.109333z" fill="#006EFF"></path><path d="M442.026667 372.949333L287.36 970.112a8.832 8.832 0 0 0 1.834667 7.850667 9.216 9.216 0 0 0 7.381333 3.370666h308.608a9.386667 9.386667 0 0 0 7.424-3.413333 9.301333 9.301333 0 0 0 1.834667-7.808L459.648 372.906667a8.96 8.96 0 0 0-3.328-4.608 9.386667 9.386667 0 0 0-5.504-1.834667 9.386667 9.386667 0 0 0-5.461333 1.834667 8.96 8.96 0 0 0-3.328 4.608" fill="#00E5E5"></path></svg>