<svg viewBox="0 0 1024 1024" version="1.1" xmlns="http://www.w3.org/2000/svg" xmlns:xlink="http://www.w3.org/1999/xlink" width="200" height="200"><path d="M512 956.8c-73.5 0-133.4-59.8-133.4-133.4 0-15.9 12.9-28.8 28.8-28.8s28.8 12.9 28.8 28.8c0 41.8 34 75.8 75.8 75.8s75.8-34 75.8-75.8c0-15.9 12.9-28.8 28.8-28.8s28.8 12.9 28.8 28.8c0 73.6-59.9 133.4-133.4 133.4z"></path><path d="M849.6 846.8H174.4c-59.1 0-107.2-48.1-107.2-107.2s48.1-107.2 107.2-107.2H190V448c0-86 33.5-166.9 94.3-227.7C345.1 159.5 426 126 512 126s166.9 33.5 227.7 94.3C800.5 281.1 834 362 834 448v184.3h15.6c59.1 0 107.2 48.1 107.2 107.2s-48.1 107.3-107.2 107.3zM512 183.6c-70.6 0-137 27.5-187 77.4-49.9 49.9-77.4 116.3-77.4 187v241.9h-73.1c-27.4 0-49.6 22.2-49.6 49.6s22.3 49.6 49.6 49.6h675.2c27.3 0 49.6-22.3 49.6-49.6S876.9 690 849.6 690h-73.2V448.1c0-70.6-27.5-137-77.4-187-50-50-116.4-77.5-187-77.5z"></path><path d="M512 183.6c-15.9 0-28.8-12.9-28.8-28.8V93.7c0-15.9 12.9-28.8 28.8-28.8s28.8 12.9 28.8 28.8v61.1c0 15.9-12.9 28.8-28.8 28.8z"></path></svg>