<svg viewBox="0 0 1223 1024" version="1.1" xmlns="http://www.w3.org/2000/svg" xmlns:xlink="http://www.w3.org/1999/xlink" width="238.8671875" height="200"><path d="M813.080237 833.523882a16.808142 16.808142 0 0 0 3.532497 3.259834 216.112473 216.112473 0 0 1 64.221159 115.481751 70.013728 70.013728 0 0 0 2.350959 14.239054 70.013728 70.013728 0 0 0 18.092686 31.168378c27.460166 27.448047 71.976899 27.448047 99.431006 0 27.460166-27.460166 27.460166-71.982959 0-99.437065a69.983432 69.983432 0 0 0-42.341491-20.195219 216.112473 216.112473 0 0 1-120.31697-66.978082h-0.012119a16.814201 16.814201 0 0 0-24.963786 22.461349"></path><path d="M1035.391243 887.547456a16.808142 16.808142 0 0 0 3.259834-3.532497 216.112473 216.112473 0 0 1 115.481751-64.22116 70.013728 70.013728 0 0 0 14.239054-2.357018 70.013728 70.013728 0 0 0 31.162319-18.092686c27.454107-27.460166 27.454107-71.976899 0-99.431006-27.460166-27.460166-71.976899-27.460166-99.431006 0a69.983432 69.983432 0 0 0-20.201278 42.341491 216.112473 216.112473 0 0 1-66.978083 120.31697l0.006059 0.012119a16.814201 16.814201 0 0 0 22.45529 24.963787"></path><path d="M1089.408757 665.23645a16.808142 16.808142 0 0 0-3.532497-3.259835 216.112473 216.112473 0 0 1-64.221159-115.481751 70.013728 70.013728 0 0 0-2.350959-14.245113 70.013728 70.013728 0 0 0-18.092686-31.162319c-27.460166-27.454107-71.982959-27.454107-99.437065 0-27.454107 27.460166-27.454107 71.976899 0 99.431006a69.983432 69.983432 0 0 0 42.34755 20.201278 216.112473 216.112473 0 0 1 120.31697 66.978083l0.012119-0.006059a16.814201 16.814201 0 0 0 24.957727-22.45529"></path><path d="M867.097751 611.212876a16.808142 16.808142 0 0 0-3.259834 3.532497 216.112473 216.112473 0 0 1-115.481751 64.22116 70.013728 70.013728 0 0 0-14.239054 2.350958 70.013728 70.013728 0 0 0-31.168378 18.092687c-27.448047 27.460166-27.448047 71.982959 0 99.437065 27.460166 27.454107 71.982959 27.454107 99.437065 0a69.983432 69.983432 0 0 0 20.195219-42.347551 216.112473 216.112473 0 0 1 66.978083-120.31697v-0.012118a16.814201 16.814201 0 0 0-22.46135-24.957728"></path><path d="M971.648757 267.663905c-19.559006-40.184426-45.837633-77.484686-78.102721-110.870722C812.013822 72.467692 697.871148 18.159337 572.143337 3.859692A591.932592 591.932592 0 0 0 505.63787 0c-20.540592 0-41.953704 1.193657-63.657657 3.556734-126.291314 13.730083-241.070201 67.759716-323.202272 152.145799-32.416568 33.301207-58.834556 70.516639-78.526864 110.592C13.548308 320.681657 0 378.413444 0 437.896331c0 76.563692 23.297515 152.06097 67.377988 218.33619 24.933491 37.482036 67.559763 85.925112 104.048095 115.608994l-20.213397 83.586272-5.816804 23.539882c-1.030059 2.314604-1.817751 4.738272-2.375196 7.271006-0.345373 1.53297-0.454438 3.150769-0.605917 4.756449-0.115124 1.217893-0.36355 2.393373-0.36355 3.647622a38.912 38.912 0 0 0 38.912 38.912c7.028639 0 13.53013-1.999527 19.219692-5.259361l0.539267-0.2969c0.830107-0.484734 1.678391-0.927053 2.472142-1.472378l144.329467-72.443456c31.071432 8.913041 61.894438 14.614722 94.389775 18.189633 21.122272 2.326722 42.56568 3.502201 63.730367 3.502201 21.588828 0 43.95929-1.302722 66.499408-3.865751a565.732734 565.732734 0 0 0 127.424379-29.780829 70.06826 70.06826 0 0 1-12.833325-5.725917c-24.751716-14.160284-37.572923-41.099361-35.028071-67.759716a475.420781 475.420781 0 0 1-90.342249 19.316639 494.725302 494.725302 0 0 1-55.720142 3.247716c-17.704899 0-35.652166-0.987645-53.332828-2.932639-3.696095-0.405964-7.367953-0.969467-11.04587-1.454201-24.28516-3.241657-48.297657-8.192-71.498225-14.990391a48.818746 48.818746 0 0 0-14.863148-2.272189c-7.998107 0-15.753846 2.12071-23.630769 6.198533-1.017941 0.527148-2.023763 0.969467-3.053823 1.563266l-92.602319 54.574958-0.103006 0.060592c-1.914698 1.114888-2.99929 1.53297-3.999053 1.532971-3.253775 0-5.895574-2.750864-5.895574-6.131882l3.429491-13.833089 3.938461-15.026745 13.693728-52.157349c0.884639-3.199243 1.793515-7.040757 1.793515-11.354888a37.324497 37.324497 0 0 0-15.202462-30.101965 392.85245 392.85245 0 0 1-37.106367-31.162319c-20.098272-19.068213-37.748639-39.881467-52.575431-62.179219-34.912947-52.484544-53.369183-112.034083-53.369184-172.238012 0-46.716213 10.688379-92.147882 31.750059-135.02258 15.735669-32.028781 36.930651-61.852024 63.003267-88.64568C252.48568 146.268402 347.414722 101.794083 452.286864 90.384663a495.367574 495.367574 0 0 1 53.351006-2.993231c18.007858 0 36.754935 1.090651 55.720142 3.247716 104.381349 11.875976 198.771124 56.568426 265.785562 125.873231 25.945373 26.848189 47.03129 56.738083 62.651834 88.845633 20.722367 42.602036 31.23503 87.664095 31.23503 133.937988 0 4.810982-0.302959 9.603787-0.539266 14.402651 27.084497-16.571834 62.863905-13.318059 86.300781 10.118816 1.187598 1.181538 2.181302 2.48426 3.259834 3.726391 0.775574-9.858272 1.211834-19.74684 1.211834-29.659645 0-58.919385-13.330178-116.190675-39.626982-170.220308"></path></svg>