<?xml version="1.0" standalone="no"?><!DOCTYPE svg PUBLIC "-//W3C//DTD SVG 1.1//EN" "http://www.w3.org/Graphics/SVG/1.1/DTD/svg11.dtd"><svg t="1595402023136" class="icon" viewBox="0 0 1024 1024" version="1.1" xmlns="http://www.w3.org/2000/svg" p-id="15998" xmlns:xlink="http://www.w3.org/1999/xlink" width="200" height="200"><defs><style type="text/css"></style></defs><path d="M856.576 790.528c-9.728-155.136-157.184-281.088-311.296-296.448v-27.136c94.72-13.312 168.448-94.72 168.96-193.024 1.024-108.544-87.04-197.632-195.584-198.656-108.544-1.024-197.632 87.04-198.656 195.584-0.512 98.816 71.68 180.736 165.888 195.584v27.136c-153.6 12.8-302.08 135.168-315.392 289.28-33.28 10.752-57.856 41.984-57.856 78.848-0.512 46.08 36.864 83.968 82.944 84.48s83.968-36.864 84.48-82.944c0.512-34.816-20.48-64.512-50.688-77.312 11.776-122.368 134.656-220.16 256.512-232.96l-1.024 160.256c-31.232 11.776-53.76 41.984-53.76 77.312-0.512 46.08 36.864 83.968 82.944 84.48 46.08 0.512 83.968-36.864 84.48-82.944 0.512-36.352-22.528-67.072-54.784-78.848l1.024-159.232c120.832 14.848 241.664 112.128 252.928 233.984-33.792 10.752-58.368 41.984-58.368 78.848-0.512 46.08 36.864 83.968 82.944 84.48 46.08 0.512 83.968-36.864 84.48-82.944 0-34.816-20.48-64.512-50.176-77.824zM196.608 887.296c-13.824 0-24.576-11.264-24.576-25.088s11.264-24.576 25.088-24.576 24.576 11.264 24.576 25.088-11.264 25.088-25.088 24.576zM379.392 271.36c0.512-76.288 62.976-137.728 139.264-137.216 76.288 0.512 137.728 62.976 137.216 139.264s-62.976 137.728-139.264 137.216C440.32 410.112 378.88 347.648 379.392 271.36z m135.68 544.768c-13.824 0-24.576-11.264-24.576-25.088s11.264-24.576 25.088-24.576 24.576 11.264 24.576 25.088c-0.512 13.312-11.776 24.576-25.088 24.576z m307.712 75.776c-13.824 0-24.576-11.264-24.576-25.088s11.264-24.576 25.088-24.576 24.576 11.264 24.576 25.088c-0.512 13.824-11.776 24.576-25.088 24.576z" p-id="15999"></path></svg>