<?xml version="1.0" standalone="no"?><!DOCTYPE svg PUBLIC "-//W3C//DTD SVG 1.1//EN" "http://www.w3.org/Graphics/SVG/1.1/DTD/svg11.dtd"><svg t="1589181026943" class="icon" viewBox="0 0 1097 1024" version="1.1" xmlns="http://www.w3.org/2000/svg" p-id="13636" xmlns:xlink="http://www.w3.org/1999/xlink" width="214.2578125" height="200"><defs><style type="text/css"></style></defs><path d="M1002.788571 457.508571h-109.275428v-47.616c0-23.844571-15.579429-39.789714-38.985143-39.789714-23.405714 0-39.058286 15.945143-39.058286 39.789714v47.616H56.758857c-23.405714 0-38.985143 15.945143-38.985143 39.789715 0 23.844571 15.579429 39.716571 38.985143 39.716571h758.710857v47.689143c0 23.844571 15.652571 39.716571 39.058286 39.716571 23.405714 0 38.985143-15.872 38.985143-39.716571v-47.689143h109.202286c23.405714 0 39.058286-15.872 39.058285-39.716571 0-23.844571-15.652571-39.789714-39.058285-39.789715z m0 342.893715H259.657143v-47.689143c0-23.844571-15.652571-39.716571-39.058286-39.716572-23.405714 0-38.985143 15.872-38.985143 39.716572v47.689143H56.758857c-23.405714 0-38.985143 15.872-38.985143 39.716571 0 23.844571 15.579429 39.789714 38.985143 39.789714h124.854857v47.616c0 23.844571 15.579429 39.789714 38.985143 39.789715 23.405714 0 38.985143-15.945143 38.985143-39.789715v-47.616h743.131429c23.405714 0 39.058286-15.945143 39.058285-39.789714 0-23.844571-15.652571-39.716571-39.058285-39.716571z m0-685.714286H259.657143V66.998857c0-23.844571-15.652571-39.716571-39.058286-39.716571-23.405714 0-38.985143 15.872-38.985143 39.716571v47.689143H56.758857c-23.405714 0-38.985143 15.872-38.985143 39.716571 0 23.844571 15.579429 39.789714 38.985143 39.789715h124.854857v47.616c0 23.844571 15.579429 39.789714 38.985143 39.789714 23.405714 0 38.985143-15.945143 38.985143-39.789714v-47.616h743.131429c23.405714 0 39.058286-15.945143 39.058285-39.789715 0-23.844571-15.652571-39.716571-39.058285-39.716571z" fill="#606BE1" p-id="13637"></path></svg>