<?xml version="1.0" standalone="no"?><!DOCTYPE svg PUBLIC "-//W3C//DTD SVG 1.1//EN" "http://www.w3.org/Graphics/SVG/1.1/DTD/svg11.dtd"><svg class="icon" width="200px" height="200.00px" viewBox="0 0 1024 1024" version="1.1" xmlns="http://www.w3.org/2000/svg"><path d="M444.928 144.896v246.784l-163.84-163.84 82.944-82.944h80.896zM217.088 290.304l162.816 163.328H136.192V371.2l80.896-80.896z" fill="#9BD219" /><path d="M444.928 412.16v41.472h-44.544L217.088 269.824 136.192 350.72V144.896h207.36L260.608 227.84l184.32 184.32z" fill="#9BD219" /><path d="M217.088 741.376L136.192 660.48v-83.456h245.248l-164.352 164.352z" fill="#262670" /><path d="M444.928 618.496l-184.32 183.808 82.944 82.944H136.192V680.96l80.896 80.896 184.32-184.832h43.52v41.472z" fill="#262670" /><path d="M281.088 802.304l163.84-163.328v246.272H364.032l-82.944-82.944z" fill="#262670" /><path d="M876.544 577.024v89.088l-74.752 75.264-164.352-164.352h239.104zM731.648 802.304l-82.944 82.944H568.32v-246.272l163.328 163.328z" fill="#EFA822" /><path d="M876.544 686.592v198.656h-207.36l82.944-82.944-183.808-183.808v-41.472h48.64l184.832 184.832 74.752-75.264z" fill="#EFA822" /><path d="M731.648 227.84l-163.328 163.84V144.896h80.384l82.944 82.944z" fill="#98267D" /><path d="M876.544 144.896v200.192l-74.752-75.264-183.296 183.808h-50.176v-41.472l183.808-184.32-82.944-82.944h207.36z" fill="#98267D" /><path d="M801.792 290.304l74.752 75.264v88.064h-237.568l162.816-163.328z" fill="#98267D" /><path d="M604.672 486.4l-25.088 26.112 26.112-26.112z m-4.096 53.76l4.096 4.096z" fill="#9BD219" /><path d="M603.648 118.272h-68.096v299.008l-29.184 27.136-28.672-27.136V118.272H409.088L506.368 25.6l97.28 92.672z" fill="#EFA822" /><path d="M109.568 417.792l-92.672 97.28 92.672 97.28v-68.096h299.008l27.136-29.184-27.136-28.672H109.568V417.792z" fill="#98267D" /><path d="M409.088 912.384l97.28 92.16 97.28-92.16h-68.096v-299.008l-29.184-27.648-28.672 27.648v299.008H409.088z" fill="#9BD219" /><path d="M903.68 612.352v-68.096h-299.008l-4.096-4.096-23.552-25.088 2.56-2.56 25.088-26.112h299.008V417.792l92.16 97.28-92.16 97.28z" fill="#262670" /></svg>