<?xml version="1.0" standalone="no"?><!DOCTYPE svg PUBLIC "-//W3C//DTD SVG 1.1//EN" "http://www.w3.org/Graphics/SVG/1.1/DTD/svg11.dtd"><svg t="1577259506360" class="icon" viewBox="0 0 1024 1024" version="1.1" xmlns="http://www.w3.org/2000/svg" p-id="32113" xmlns:xlink="http://www.w3.org/1999/xlink" width="200" height="200"><defs><style type="text/css"></style></defs><path d="M814.603961 438.729491a174.494684 174.494684 0 0 1-14.637099 65.771073L785.329762 511.787155c-14.6371 21.923691 0 14.6371-7.286591 36.496873a597.308725 597.308725 0 0 0-65.771074 58.420565c-7.286591 0 7.286591-7.286591 7.286592-14.6371-21.923691 14.6371-21.923691 29.210282-58.420565 36.496873-94.981355 43.847382-219.172993-43.847382-219.172993-160.688511-7.286591 0-7.286591-7.286591-7.286591 0a147.521513 147.521513 0 0 1 80.344256-146.115328 142.280281 142.280281 0 0 1 160.688511 14.6371 127.834933 127.834933 0 0 0-116.905047-51.133974 117.544221 117.544221 0 0 0-109.554537 65.771073c-21.923691 14.6371-29.210282 58.420564-36.496874 65.771074a202.362699 202.362699 0 0 0 94.981355 219.172992c14.6371 7.286591 0 7.286591 7.286592 14.6371a401.40169 401.40169 0 0 1-65.771073-51.133973 88.014351 88.014351 0 0 0 36.496873 36.496873c-21.923691-7.286591-51.133973-51.133973-65.771073-58.420564 36.496873 73.057664 160.688511 124.191638 219.172993 94.981355a215.72145 215.72145 0 0 1-94.981356-14.6371 51.133973 51.133973 0 0 1-29.210282-14.637099 253.04925 253.04925 0 0 0 248.383275-36.496874 240.265757 240.265757 0 0 0 43.847382-43.847382c-7.286591 14.6371 0 7.286591-7.286591 21.923691 21.923691-29.210282-7.286591-14.6371 21.923691-51.133973l7.286591 14.6371c-7.286591-21.923691 29.210282-58.420564 29.210283-94.981356 7.286591-14.6371 7.286591 14.6371 0 43.847382 14.6371-29.210282 0-36.496873 7.286591-65.771073 0 7.286591 7.286591 14.6371 7.286591 21.923691a88.781361 88.781361 0 0 1 14.6371-65.771073c-7.286591 0-14.6371 14.6371-14.6371-21.923691 0-14.6371 7.286591-7.286591 7.286591-14.6371a306.80384 306.80384 0 0 1-14.6371-36.496873c0-7.286591 7.286591 14.6371 14.6371 14.6371 0-14.6371-7.286591-29.210282-7.286591-43.847382-14.6371-29.210282-7.286591 7.286591-14.6371-14.6371-14.6371-43.847382 14.6371-7.286591 14.6371-29.210282a390.280051 390.280051 0 0 1 43.847382 102.267946c-7.286591-29.210282-14.6371-51.133973-21.923691-73.057664 7.286591 0-7.286591-51.133973 7.286591-14.6371a333.77701 333.77701 0 0 0-153.40192-189.898793l14.6371 14.6371c-36.496873-14.6371-29.210282-14.6371-36.496873-21.923691-29.210282-7.286591-29.210282 0-43.847382 0a1071.576327 1071.576327 0 0 0-102.267947-43.847382v7.286591c-29.210282-7.286591-36.496873 7.286591-73.057664 0A73.569004 73.569004 0 0 1 529.595978 15.020605c-29.210282 7.286591-29.210282-7.286591-58.420564 0 7.286591-7.286591 14.6371-7.286591 21.923691-14.6371-21.923691 0-58.420564 14.6371-51.133974 0-36.496873 29.210282-109.554538 58.420564-153.401919 94.981355v-7.286591c-21.923691 21.923691-80.344255 65.771073-87.630847 94.981355h-7.286591c-7.286591 21.923691-14.6371 36.496873-21.923691 58.420565-14.6371 21.923691-14.6371 7.286591-14.6371 7.286591a790.914731 790.914731 0 0 0-51.133973 131.478229 602.805627 602.805627 0 0 1 0 116.905046 521.50261 521.50261 0 0 0 350.651221 511.339733A266.280166 266.280166 0 0 0 566.156769 1023.126887c-43.847382-14.6371-43.847382-7.286591-87.630847-21.923691a196.929715 196.929715 0 0 1-58.420564-51.133973l7.286591 14.6371c-36.496873-14.6371-21.923691-14.6371-51.133973-29.210282l7.286591-14.6371c-14.6371 0-36.496873-21.923691-43.847382-36.496874H325.060085c-14.6371-21.923691-29.210282-36.496873-29.210282-51.133973l-7.286591 7.286591c-7.286591-7.286591-65.771073-80.344255-36.496874-65.771073-7.286591-7.286591-14.6371-7.286591-21.923691-21.923691l7.286591-7.286591a200.125588 200.125588 0 0 1-29.210282-51.133973c7.286591 7.286591 14.6371 14.6371 21.923691 14.6371C193.645774 614.055101 193.645774 701.749865 164.371574 614.055101h7.286591c7.286591 7.286591 0 0 0-7.286591v-29.210282c-29.210282-29.210282-7.286591-131.478229 0-182.612202 0-21.923691 21.923691-43.847382 36.496874-80.344256h-7.286592c14.6371-36.496873 94.981355-131.478229 131.478229-124.191637 14.6371-21.923691-7.286591 0-7.286591-7.286591 36.496873-43.847382 51.133973-29.210282 80.344255-36.496874 29.210282-21.923691-29.210282 7.286591-14.637099-7.286591 51.133973-14.6371 36.496873-29.210282 102.267946-36.496873 7.286591 7.286591-14.6371 7.286591-21.923691 14.6371a250.748221 250.748221 0 0 1 189.898793 14.637099 281.236853 281.236853 0 0 1 146.115329 219.172993 316.199707 316.199707 0 0 1-7.286591 116.905047 104.057636 104.057636 0 0 0 14.764934-29.465952z" fill="#EC004E" p-id="32114"></path></svg>