<?xml version="1.0" standalone="no"?><!DOCTYPE svg PUBLIC "-//W3C//DTD SVG 1.1//EN" "http://www.w3.org/Graphics/SVG/1.1/DTD/svg11.dtd"><svg t="1577259535365" class="icon" viewBox="0 0 1024 1024" version="1.1" xmlns="http://www.w3.org/2000/svg" p-id="32225" xmlns:xlink="http://www.w3.org/1999/xlink" width="200" height="200"><defs><style type="text/css"></style></defs><path d="M1012.256 25.088c54.304 54.272-96.16 292.768-121.6 318.208-25.472 25.44-90.08 2.048-144.352-52.224S668.64 172.16 694.08 146.72c25.44-25.44 263.936-175.904 318.176-121.6zM251.104 82.528C168.256 35.52 50.368-16.8 12.8 20.704-25.184 58.688 29.024 179.296 76.544 262.336a509.216 509.216 0 0 1 174.56-179.808z m678.4 242.08c7.648 25.856 6.272 47.232-6.112 59.616-28.928 28.928-107.008-1.888-177.376-68.864a360.832 360.832 0 0 1-14.592-13.792c-25.472-25.472-45.216-52.576-57.952-77.536-24.672-44.192-30.816-83.296-12.16-101.888 10.144-10.144 26.368-12.928 46.208-9.376 12.928-8.16 28.16-17.28 44.896-26.592C686.656 51.2 608.64 30.656 525.792 30.656h-0.832 0.032C252.864 30.656 32.288 251.232 32.288 523.36c0 272.096 220.576 492.704 492.704 492.704s492.768-220.576 492.768-492.704c0-87.904-23.04-170.272-63.36-241.76a842.816 842.816 0 0 1-27.264 46.976l2.336-4z" fill="#AB2B28" p-id="32226"></path></svg>