<?xml version="1.0" standalone="no"?><!DOCTYPE svg PUBLIC "-//W3C//DTD SVG 1.1//EN" "http://www.w3.org/Graphics/SVG/1.1/DTD/svg11.dtd"><svg class="icon" width="200px" height="193.57px" viewBox="0 0 1058 1024" version="1.1" xmlns="http://www.w3.org/2000/svg"><path d="M546.747733 34.5088C264.4992 34.5088 35.498667 259.003733 35.498667 535.790933c0 56.0128 9.454933 110.011733 26.624 160.221867h35.566933c31.4368 0 60.8256-7.441067 85.367467-19.968 6.178133-3.208533 13.243733-5.051733 20.7872-5.051733 15.633067 0 29.218133 5.9392 37.649066 19.797333 7.3728 12.526933 14.2336 19.797333 22.664534 25.019733 7.202133 4.573867 17.169067 8.430933 31.4368 7.7824 6.690133-0.341333 16.827733-1.877333 19.387733-8.8064 2.935467-7.918933-0.682667-13.858133-10.478933-17.749333-13.755733-5.768533-17.544533-13.858133-24.917334-26.7264s-23.176533-19.626667-25.770666-43.656533c-2.389333-23.6544 16.4864-53.4528 53.9648-43.997867 26.965333 6.792533 44.475733 39.594667 51.029333 50.756267 3.447467 5.905067 15.4624 12.868267 25.258667 3.8912 9.796267-8.8064 18.7392-8.8064 26.112 2.3552 6.3488 9.6256 52.224 69.700267 102.024533 71.236266 50.688 1.672533 77.653333-11.1616 99.6352-10.513066 15.4624 0.512 23.005867 8.2944 31.812267 9.6256 15.598933 2.389333 26.589867-11.332267 43.793066-10.6496 13.892267 0.7168 29.013333 9.8304 44.475734 9.8304s48.264533-18.261333 47.752533-10.820267c-0.7168 13.380267-11.332267 37.0688-13.892267 48.059733-1.911467 7.611733-0.2048 26.043733-4.983466 40.584534-4.130133 15.0528-18.397867 33.9968-22.016 39.389866-12.526933 18.466133-21.640533 23.8592-31.778134 43.144534-11.332267 21.674667-30.242133 41.6768-35.0208 48.059733-6.212267 8.2944 35.396267-0.170667 50.141867-14.0288 12.561067-11.707733 34.542933-46.865067 69.393067-54.510933 23.552-5.051733 28.194133-13.858133 25.463466-22.016a7.816533 7.816533 0 0 1 3.754667-10.308267c24.234667-9.8304 57.207467-16.0768 93.2864-16.0768 21.0944 0 42.052267 2.8672 61.815467 7.2704a492.100267 492.100267 0 0 0 82.1248-272.349867c0.238933-276.5824-228.7616-501.077333-511.214934-501.077333z" fill="#070002" /><path d="M962.6624 525.824c-24.405333 131.959467-244.6336 176.298667-458.8544 112.8448-204.0832-60.5184-383.2832-181.179733-362.461867-251.904 12.014933-41.130667 78.677333-58.709333 167.3216-49.425067-13.4144 26.897067-12.526933 58.538667 46.216534 93.730134 71.816533 39.936 193.058133 74.103467 225.8944 70.724266 12.1856-1.194667 23.210667-7.099733 12.1856-14.370133-10.990933-7.2704-20.753067-21.674667-26.965334-46.865067-3.447467-14.062933-7.406933-33.4848-84.343466-47.889066-165.444267-30.958933-159.095467-76.8-154.282667-103.2192 0 0 14.779733-64.785067 20.7872-87.620267 6.178133-22.8352 21.8112-75.127467 128.512-51.6096 61.508267 13.5168 94.788267-3.3792 111.8208-7.611733 46.045867-11.6736 97.0752-3.549867 125.2352 24.712533 29.184 29.457067 69.2224 120.149333 88.4736 187.972267 9.796267 34.5088 7.202133 50.926933 2.218667 62.600533-3.584 7.953067-5.666133 13.038933-17.7152 33.1776-2.082133 3.549867-0.341333 7.441067 4.3008 5.085867 31.982933-16.0768 39.150933-37.410133 44.168533-53.998934 87.108267 19.456 138.6496 63.761067 127.488 123.665067z" fill="#E5242D" /><path d="M658.397867 761.856a1.570133 1.570133 0 0 0-1.194667 0.477867 88.2688 88.2688 0 0 1-14.267733 13.7216c-11.4688 9.147733-24.746667-1.194667-33.143467-6.109867-18.7392-10.820267-33.860267-3.8912-37.614933 4.4032-3.618133 8.465067 0.341333 18.432 10.6496 17.271467 14.2336-1.877333 14.9504 0.341333 25.224533 6.7584 19.2512 12.014933 33.348267 5.393067 40.5504-0.170667 6.007467-4.778667 9.4208-8.8064 12.526933-14.370133 5.495467-10.8544 1.024-19.1488-1.706666-21.674667a2.116267 2.116267 0 0 0-1.024-0.3072zM494.011733 240.913067c-24.917333 0-42.769067 3.208533-58.402133 3.549866-15.4624 0.341333-27.477333-10.820267-32.9728-17.6128-4.642133-5.563733-19.217067-10.990933-27.306667 7.099734-8.055467 18.261333 6.894933 37.717333 19.2512 40.277333 0 0 20.445867 37.376 36.078934 21.162667 10.990933-11.502933 17.169067-17.783467 76.288-22.016 28.16-2.048 31.095467-8.465067 30.242133-15.223467-0.9216-8.0896-17.92-17.237333-43.178667-17.237333z m142.267734-79.6672h-2.935467c-5.495467 0-11.332267 0.341333-17.2032 1.024-19.5584 2.013867-36.5568 6.7584-48.059733 12.6976-0.546133 0.170667-0.853333 0.682667-0.853334 1.365333 0 0.853333 0.682667 1.536 1.7408 1.536h0.136534c3.2768-0.512 6.724267-1.024 10.1376-1.365333 31.812267-3.037867 58.436267 2.013867 59.8016 11.502933 1.024 7.2704-12.868267 14.711467-33.348267 19.456-0.989867 0.170667-1.706667 1.194667-1.706667 2.184533s0.7168 1.877333 1.706667 2.048c8.6016 2.3552 18.568533 3.8912 29.0816 4.232534 32.802133 0.682667 59.5968-10.820267 60.1088-25.873067 0.3072-15.4624-25.8048-28.16-58.606933-28.808533z"  /></svg>