<?xml version="1.0" standalone="no"?><!DOCTYPE svg PUBLIC "-//W3C//DTD SVG 1.1//EN" "http://www.w3.org/Graphics/SVG/1.1/DTD/svg11.dtd"><svg t="1577259586215" class="icon" viewBox="0 0 1024 1024" version="1.1" xmlns="http://www.w3.org/2000/svg" p-id="32578" xmlns:xlink="http://www.w3.org/1999/xlink" width="200" height="200"><defs><style type="text/css"></style></defs><path d="M512 0c282.592 0 512 229.408 512 512s-229.408 512-512 512S0 794.592 0 512 229.408 0 512 0z m139.904 754.336a68.352 68.352 0 1 0 68.352 118.4 68.352 68.352 0 0 0-68.352-118.4zM512 711.68c-30.08 0-58.592-6.688-84.096-18.56l-47.488 85.12a296.704 296.704 0 0 0 131.584 30.752c27.552 0 54.112-3.872 79.36-10.912a95.68 95.68 0 0 1 46.72-67.712 95.712 95.712 0 0 1 81.92-6.656 295.872 295.872 0 0 0 88.32-192.64l-97.504-1.408A199.616 199.616 0 0 1 512 711.68zM312.32 512a199.648 199.648 0 0 1 84.896-163.424l-49.92-83.68a297.312 297.312 0 0 0-122.912 172.16 94.752 94.752 0 0 1 35.424 74.24c0 30.048-13.824 56.288-35.424 74.208a297.344 297.344 0 0 0 122.912 172.128l49.92-83.84A195.616 195.616 0 0 1 312.32 512z m-148.48-68.352a68.352 68.352 0 1 0 0 136.672 68.352 68.352 0 0 0 0-136.672zM512 312.32c104.32 0 189.856 80 198.816 181.984l97.504-1.44a296.48 296.48 0 0 0-88.32-192.672 95.872 95.872 0 0 1-128.64-74.432A304.448 304.448 0 0 0 512 215.104c-47.36 0-91.936 11.104-131.584 30.72l47.488 85.12c25.6-11.904 54.112-18.56 84.096-18.56z m139.904-42.72a68.448 68.448 0 0 0 93.408-24.96 68.448 68.448 0 0 0-25.088-93.44 68.48 68.48 0 0 0-93.408 25.12 68.288 68.288 0 0 0 25.088 93.28z" fill="#E95420" p-id="32579"></path></svg>