<?xml version="1.0" standalone="no"?><!DOCTYPE svg PUBLIC "-//W3C//DTD SVG 1.1//EN" "http://www.w3.org/Graphics/SVG/1.1/DTD/svg11.dtd"><svg t="1566479133968" class="icon" viewBox="0 0 1024 1024" version="1.1" xmlns="http://www.w3.org/2000/svg" p-id="11767" xmlns:xlink="http://www.w3.org/1999/xlink" width="24" height="24"><defs><style type="text/css"></style></defs><path d="M174.933333 644.266667V379.733333a21.333333 21.333333 0 0 1 17.066667-21.333333l230.4-55.466667 14.933333-74.666666H172.8a128 128 0 0 0-128 128v311.466666a128 128 0 0 0 128 128h264.533333l-14.933333-74.666666L192 665.6a21.333333 21.333333 0 0 1-17.066667-21.333333zM849.066667 644.266667V379.733333a21.333333 21.333333 0 0 0-17.066667-21.333333l-230.4-55.466667-14.933333-74.666666h264.533333a128 128 0 0 1 128 128v311.466666a128 128 0 0 1-128 128H586.666667l14.933333-74.666666L832 665.6a21.333333 21.333333 0 0 0 17.066667-21.333333z" p-id="11768" fill="#FE6A00"></path><path d="M388.266667 486.4h253.866666v32H388.266667z" p-id="11769" fill="#FE6A00"></path></svg>