<?xml version="1.0" standalone="no"?><!DOCTYPE svg PUBLIC "-//W3C//DTD SVG 1.1//EN" "http://www.w3.org/Graphics/SVG/1.1/DTD/svg11.dtd"><svg t="1566479030184" class="icon" viewBox="0 0 1024 1024" version="1.1" xmlns="http://www.w3.org/2000/svg" p-id="8197" xmlns:xlink="http://www.w3.org/1999/xlink" width="24" height="24"><defs><style type="text/css"></style></defs><path d="M449.529085 0.000154a145.25257 145.25257 0 0 0-112.786159 53.546498c-43.852736 56.777753-10.924717 143.25227 10.001502 188.028221S477.22555 461.607898 481.22615 465.30076s8.770547 2.308039 9.078286-1.230954 12.463409-254.653606 2.615777-316.509043A702.720856 702.720856 0 0 0 449.529085 0.000154zM211.801097 116.786913C204.261504 117.710129 147.483751 173.872404 142.713805 228.957595s18.46431 91.552203 84.166478 135.404938c66.163777 46.930121 223.418148 133.250769 226.341664 125.865045S391.981986 369.286349 339.666442 286.812432 219.648429 116.017567 211.801097 116.786913z m21.080087 507.768519C281.196128 646.250996 354.591759 597.782183 375.210238 584.703297l54.315845-41.390828-269.732792 7.231855a171.87195 171.87195 0 0 0 73.087893 73.703369z m6.770247-217.878855C191.336487 382.519105 92.090822 326.972306 88.244091 328.049391s-18.925918 70.164377 12.15567 122.172183S191.951964 517.924043 219.648429 522.078513c30.77385 4.462208 215.416947 2.461908 213.570516-1.230954S287.966375 430.834049 239.651431 406.368838zM687.103204 53.546652A144.790962 144.790962 0 0 0 574.470915 0.000154a702.720856 702.720856 0 0 0-43.544997 147.560609c-9.847632 61.547699 2.461908 313.12392 2.615777 316.509043s5.077685 5.077685 9.232155 1.230954 113.709374-179.103805 134.481722-223.725887 53.854237-131.250469 9.847632-188.028221zM935.755909 327.741652c-3.846731-1.077085-103.092396 54.469714-151.40734 78.627186s-192.490429 111.247466-193.567514 114.478721 182.796667 5.693162 213.570516 1.230954c27.696465-4.15447 88.167079-20.156872 119.248668-72.164678s15.386925-121.095098 12.15567-122.172183zM648.789762 584.703297c20.618479 13.848232 94.783457 61.547699 142.329054 40.313743a171.87195 171.87195 0 0 0 73.087893-74.472716l-269.732792-7.231855L648.789762 584.703297zM881.286195 228.957595c-5.077685-55.085191-61.547699-111.247466-69.241161-112.170682s-75.857539 87.551602-128.019215 170.025519-116.171282 196.029422-113.247766 203.415146 160.177887-78.934924 226.341664-125.865045c66.009907-43.852736 89.705772-80.319748 84.166478-135.404938z" fill="#EA020A" p-id="8198"></path></svg>