<?xml version="1.0" standalone="no"?><!DOCTYPE svg PUBLIC "-//W3C//DTD SVG 1.1//EN" "http://www.w3.org/Graphics/SVG/1.1/DTD/svg11.dtd"><svg t="1589180901221" class="icon" viewBox="0 0 1024 1024" version="1.1" xmlns="http://www.w3.org/2000/svg" p-id="5000" xmlns:xlink="http://www.w3.org/1999/xlink" width="200" height="200"><defs><style type="text/css"></style></defs><path d="M890.332593 51.202527h-0.050546zM91.310331 0.353818c-1.415272 0.151636-2.527272 0.758182-4.144726 0.758182h4.144726V0.353818zM469.188015 437.015845H348.18224a39.122168 39.122168 0 1 1 0-78.244336h119.792685a8.238906 8.238906 0 0 0-1.010909-0.859272L364.255689 269.912631a39.122168 39.122168 0 0 1 50.899254-59.340342l90.678514 77.688336L599.797423 212.290834a38.919986 38.919986 0 0 1 54.993435 5.86327 39.021077 39.021077 0 0 1-5.812725 54.94289l-101.596327 82.136334 0.050545 2.274545v1.213091h118.579594a39.071622 39.071622 0 0 1 0 78.244335h-118.579594v78.193791h76.9807a39.071622 39.071622 0 1 1 0 78.19379h-76.9807v117.315959a39.122168 39.122168 0 1 1-78.19379 0v-117.315959H389.730589a39.122168 39.122168 0 0 1 0-78.19379h79.457426V437.015845z" fill="#399BD7" p-id="5001"></path><path d="M906.860951 4.751271H107.282689a36.392714 36.392714 0 0 0-36.342169 36.342169v944.845846c0 31.641443 37.65635 48.220347 60.957797 26.738536l175.291574-107.813416 175.241029 107.813416a36.392714 36.392714 0 0 0 49.231255 0l175.291574-107.813416 175.241029 107.813416a36.392714 36.392714 0 0 0 61.008342-26.738536V41.09344a36.392714 36.392714 0 0 0-36.342169-36.342169zM870.468236 903.145861l-138.898859-74.352337a36.44326 36.44326 0 0 0-49.281801 0L507.046547 936.60694l-175.291574-107.813416a36.392714 36.392714 0 0 0-49.231255 0L143.624858 903.145861V77.486154H870.468236v825.659707z" fill="#399BD7" p-id="5002"></path></svg>