<?xml version="1.0" standalone="no"?><!DOCTYPE svg PUBLIC "-//W3C//DTD SVG 1.1//EN" "http://www.w3.org/Graphics/SVG/1.1/DTD/svg11.dtd"><svg t="1548920858256" class="icon" style="" viewBox="0 0 1024 1024" version="1.1" xmlns="http://www.w3.org/2000/svg" p-id="7325" xmlns:xlink="http://www.w3.org/1999/xlink" width="200" height="200"><defs><style type="text/css"></style></defs><path d="M866.461538 512a354.461538 354.461538 0 0 0-708.923076-0.236308v274.313846a80.580923 80.580923 0 0 0 80.580923 80.344616h274.038153A354.461538 354.461538 0 0 0 866.461538 512" fill="#56606F" p-id="7326"></path><path d="M616.054154 241.467077a166.478769 166.478769 0 0 0-166.281846 166.281846v88.221539H361.944615a166.478769 166.478769 0 0 0-166.281846 166.32123 166.478769 166.478769 0 0 0 166.281846 166.281846 166.478769 166.478769 0 0 0 166.281847-166.281846v-88.260923h87.867076a166.478769 166.478769 0 0 0 166.281847-166.281846 166.478769 166.478769 0 0 0-166.281847-166.281846z m-165.651692 420.824615a88.615385 88.615385 0 0 1-88.497231 88.497231 88.615385 88.615385 0 0 1-88.497231-88.497231 88.615385 88.615385 0 0 1 88.497231-88.49723h87.867077v0.236307h0.630154v88.221539z m165.651692-166.045538h-87.867077v-0.236308h-0.630154v-88.260923a88.615385 88.615385 0 0 1 88.497231-88.497231 88.615385 88.615385 0 0 1 88.536615 88.497231 88.615385 88.615385 0 0 1-88.536615 88.497231z" fill="#939EAB" p-id="7327"></path><path d="M652.8 246.508308a132.332308 132.332308 0 0 0-36.745846-4.962462 166.360615 166.360615 0 0 0-166.360616 166.360616v88.221538H380.061538a38.793846 38.793846 0 0 0-39.266461 38.715077c0 21.582769 17.368615 38.715077 38.872615 38.715077h57.698462c6.813538 0 12.366769 5.513846 12.366769 12.366769v76.327385a87.827692 87.827692 0 0 1-87.827692 87.670154c-16.384 0-20.440615-2.166154-31.625846-2.166154-23.552 0-39.266462 15.753846-39.266462 37.454769 0 17.959385 15.36 33.398154 34.185846 38.321231 12.878769 3.347692 22.803692 4.923077 36.745846 4.923077a166.360615 166.360615 0 0 0 166.360616-166.360616v-88.182154h69.671384a38.793846 38.793846 0 0 0 39.266462-38.754461 38.636308 38.636308 0 0 0-38.872615-38.675692h-57.659077a12.406154 12.406154 0 0 1-12.406154-12.406154v-76.288a87.827692 87.827692 0 0 1 87.827692-87.670154c16.384 0 20.48 2.126769 31.665231 2.126769 23.512615 0 39.266462-15.753846 39.266461-37.415385 0-17.959385-15.36-33.398154-34.22523-38.32123" fill="#FFFFFF" p-id="7328"></path></svg>