<?xml version="1.0" standalone="no"?><!DOCTYPE svg PUBLIC "-//W3C//DTD SVG 1.1//EN" "http://www.w3.org/Graphics/SVG/1.1/DTD/svg11.dtd"><svg t="1548920993583" class="icon" style="" viewBox="0 0 1024 1024" version="1.1" xmlns="http://www.w3.org/2000/svg" p-id="7657" xmlns:xlink="http://www.w3.org/1999/xlink" width="200" height="200"><defs><style type="text/css"></style></defs><path d="M633.383385 250.88c16.935385-16.896 175.931077-117.248 212.007384-81.014154 36.115692 36.076308-64.118154 195.111385-81.014154 212.007385-16.935385 16.935385-60.022154 1.378462-96.098461-34.894769-36.233846-36.076308-51.987692-79.163077-34.894769-96.098462zM338.195692 208.108308C282.939077 176.718769 204.327385 141.784615 179.357538 166.951385c-25.284923 25.284923 10.791385 105.708308 42.496 161.004307a338.707692 338.707692 0 0 1 116.342154-119.847384z m452.056616 161.28c5.041231 17.211077 4.135385 31.507692-4.096 39.778461-30.916923 30.877538-133.277538-41.156923-166.47877-106.811077-27.411692-49.191385-16.935385-81.329231 22.685539-74.16123 8.664615-5.513846 18.747077-11.579077 29.853538-17.683693a328.310154 328.310154 0 0 0-479.940923 291.367385 328.428308 328.428308 0 1 0 614.596923-161.122462c-5.947077 10.633846-11.579077 20.243692-16.620307 28.632616z" fill="#56606F" p-id="7658"></path></svg>