<?xml version="1.0" standalone="no"?><!DOCTYPE svg PUBLIC "-//W3C//DTD SVG 1.1//EN" "http://www.w3.org/Graphics/SVG/1.1/DTD/svg11.dtd"><svg t="1551267459912" class="icon" style="" viewBox="0 0 1024 1024" version="1.1" xmlns="http://www.w3.org/2000/svg" p-id="6830" xmlns:xlink="http://www.w3.org/1999/xlink" width="200" height="200"><defs><style type="text/css"></style></defs><path d="M497.033846 577.772308c-0.236308 2.678154-0.393846 5.356308-0.551384 7.995077-0.196923 3.387077-0.393846 6.734769-0.748308 10.082461-2.402462 25.048615-17.329231 39.030154-42.023385 39.384616-16.620308 0.275692-33.516308 0.393846-51.712 0.393846-17.368615 0-35.485538-0.118154-55.335384-0.354462-25.678769-0.315077-42.889846-16.699077-42.771693-40.763077 0.157538-24.221538 16.856615-39.384615 43.59877-39.542154l20.48-0.078769 48.56123 0.039385 3.426462-12.918154c31.113846-117.444923 102.478769-186.801231 218.230154-212.046769l23.000615-5.001846-11.618461-20.598154c-21.661538-38.518154-81.841231-67.584-139.972924-67.584-10.200615 0-20.086154 0.945231-29.341538 2.717538-83.101538 16.029538-135.640615 74.043077-152.536615 168.132923l-1.260308 0.196923a306.530462 306.530462 0 0 0-31.232 6.340923c-90.505846 24.930462-145.880615 109.764923-134.695385 206.296616 10.24 87.827692 88.615385 158.168615 178.412308 160.137846a2785.595077 2785.595077 0 0 0 122.486154 0c97.358769-2.402462 176.206769-81.801846 179.554461-180.775385 0.945231-28.081231 15.872-44.898462 39.936-44.898461h0.866462c11.027692 0.196923 20.361846 3.977846 27.096615 10.988307 7.876923 8.270769 11.933538 20.48 11.657846 35.367385a262.734769 262.734769 0 0 1-35.84 127.763692c-2.796308 4.923077-5.750154 9.767385-9.176615 15.399385l-5.750154 9.531077-16.462769 27.451077 31.744-0.984616c51.987692-1.614769 95.271385-20.716308 128.708923-56.792615 52.932923-57.107692 66.56-124.967385 39.384615-196.332308-27.451077-72.073846-83.298462-113.506462-161.476923-119.768615a167.227077 167.227077 0 0 0-13.272615-0.551385c-92.553846 0-173.922462 76.642462-181.366154 170.811077m-150.331077 283.608616c-128.393846-0.590769-236.032-86.646154-261.750154-209.250462-26.820923-127.803077 35.367385-250.249846 154.742154-304.679384 13.627077-6.222769 24.024615-19.810462 29.144616-30.483693C320.275692 211.180308 401.998769 157.538462 511.881846 157.538462h1.654154c110.158769 0.512 191.645538 54.390154 242.215385 160.137846 6.144 12.760615 17.723077 24.536615 29.656615 30.011077 106.535385 48.836923 167.502769 151.906462 159.113846 268.996923-9.531077 132.017231-118.272 239.064615-247.650461 243.672615-20.440615 0.748308-42.259692 1.102769-68.647385 1.102769-19.140923 0-38.321231-0.196923-57.462154-0.393846-19.298462-0.157538-38.518154-0.354462-57.777231-0.354461h-17.250461v0.787692H460.8l-52.105846 0.039385c-20.676923 0-41.353846 0-62.030769-0.118154" fill="#56606F" p-id="6831"></path></svg>