<?xml version="1.0" standalone="no"?><!DOCTYPE svg PUBLIC "-//W3C//DTD SVG 1.1//EN" "http://www.w3.org/Graphics/SVG/1.1/DTD/svg11.dtd"><svg t="1548765281472" class="icon" style="" viewBox="0 0 1024 1024" version="1.1" xmlns="http://www.w3.org/2000/svg" p-id="6998" xmlns:xlink="http://www.w3.org/1999/xlink" width="200" height="200"><defs><style type="text/css"></style></defs><path d="M691.121231 903.719385c-11.736615 11.145846-52.342154 13.666462-73.452308 2.835692a40.96 40.96 0 0 1-15.478154-13.154462c-1.299692-1.811692-1.181538-1.654154-4.214154-6.57723-6.301538-10.24-11.618462-13.508923-29.144615-14.060308A2052.332308 2052.332308 0 0 0 512 872.251077a2261.464615 2261.464615 0 0 0-21.897846 0.787692c-13.863385 0.512-20.519385 0.787692-28.632616 0.945231-22.921846 0.512-37.336615 6.025846-54.665846 17.998769-1.299692 0.905846-8.782769 6.222769-10.948923 7.68-12.563692 8.546462-22.331077 12.209231-35.643077 11.736616-8.388923-0.315077-17.447385-2.441846-30.326154-6.813539-3.859692-1.339077-29.302154-10.555077-37.848615-13.390769a383.724308 383.724308 0 0 0-61.321846-15.399385l-15.478154-2.756923c-35.328-6.262154-49.506462-11.264-55.256615-23.709538-3.623385-7.955692-2.993231-16.265846 0.866461-26.899693 0.905846-2.56 1.811692-4.765538 3.623385-8.979692 4.371692-10.358154 5.750154-14.414769 6.144-19.140923a72.073846 72.073846 0 0 0-2.481231-20.086154 368.324923 368.324923 0 0 0-1.575385-6.459077c-6.065231-24.694154-6.577231-33.043692 1.890462-40.408615 5.907692-5.238154 12.130462-6.459077 27.569231-7.246769l4.726154-0.236308c9.216-0.590769 14.966154-1.732923 19.692307-4.332308 17.092923-9.924923 21.740308-16.738462 21.740308-34.382769l7.68-1.142154c6.380308 21.819077 0.078769 41.235692-15.753846 50.963693-9.058462 5.710769-25.206154 8.625231-38.912 7.246769-8.900923-0.827077-13.666462 0.236308-15.478154 2.953846-2.56 3.111385-1.811692 10.24 2.756923 21.031385l1.693539 3.780923c0.196923 0.393846 2.953846 6.183385 3.702153 7.876923 3.623385 8.152615 5.12 14.572308 4.568616 22.921846-0.157538 5.041231-1.811692 10.161231-5.12 17.092923-1.063385 2.363077-1.063385 2.363077-2.205539 4.647385-5.710769 11.500308-7.246769 15.872-6.301538 20.007384 0.590769 3.032615 4.450462 5.907692 13.390769 8.428308 8.900923 2.402462 62.109538 12.8 75.264 15.832615l5.474462 1.299693 9.058461 2.441846c5.710769 1.575385 11.303385 3.268923 19.456 5.789538 39.108923 12.209231 50.530462 14.926769 63.133539 13.193846 27.451077-3.820308 37.376-18.353231 34.579692-41.668923-1.969231-16.423385-10.082462-35.170462-19.377231-50.254769-39.187692-61.479385-54.705231-84.283077-71.601231-103.384615-20.164923-22.764308-34.500923-28.750769-46.395077-19.692308-3.347692 2.756923-7.207385 2.756923-9.846153-0.315077a16.935385 16.935385 0 0 1-3.268923-8.231385 86.685538 86.685538 0 0 1-0.787693-17.998769c0.708923-15.753846 4.411077-25.796923 13.312-41.038769l2.756923-4.726154c4.135385-7.089231 6.577231-11.815385 8.78277-17.447385 2.875077-7.364923 5.435077-14.336 9.767384-26.466461l1.575385-4.253539c17.801846-49.703385 27.569231-70.498462 44.110769-86.685538 30.168615-39.108923 49.388308-67.741538 53.799385-82.865231-4.135385-38.833231-5.868308-77.390769-7.049847-136.546461-1.102769-57.580308 12.996923-91.017846 59.155693-116.027077 12.209231-6.616615 28.475077-9.728 47.458461-9.728 31.940923-0.551385 66.284308 8.940308 88.064 24.930461 33.949538 25.245538 57.540923 79.714462 54.744616 121.540923-1.654154 28.199385 2.756923 58.368 12.996923 92.711385 10.633846 35.564308 26.978462 61.755077 57.540923 94.208 31.980308 33.988923 61.597538 103.581538 70.892308 157.617231 6.498462 40.172308-0.866462 73.728-15.202462 75.776a7.049846 7.049846 0 0 0-3.347692 1.890461c-2.678154 2.363077-14.572308 18.353231-15.123693 19.101539-13.312 16.265846-27.884308 24.654769-49.033846 23.827692-21.228308-0.984615-29.223385-8.192-38.242461-27.175385l-1.024-2.126769a110.670769 110.670769 0 0 0-2.63877-5.198769c-10.082462-17.723077-18.510769-14.690462-23.000615 7.286154-2.363077 10.594462-1.063385 27.332923 2.993231 40.605538 7.089231 24.891077 6.695385 46.592 0.551384 87.433846-7.916308 51.830154 34.579692 69.750154 70.892308 39.384616 34.934154-29.065846 42.929231-33.595077 85.976616-48.561231 28.750769-9.846154 40.644923-19.259077 39.266461-26.584615-1.181538-6.459077-12.524308-13.784615-30.916923-20.007385-30.168615-10.082462-40.054154-65.339077-22.921846-80.580923l6.577231 2.756923c1.339077 29.223385 9.609846 46.788923 23.47323 58.131692 5.001846 4.096 22.134154 13.824 19.456 12.130462 20.48 12.721231 25.796923 26.663385 16.817231 40.566154-6.577231 10.082462-19.731692 19.180308-40.448 29.656615-6.025846 3.072-25.757538 12.484923-28.947692 14.099692-20.48 10.476308-51.751385 34.737231-69.789539 52.105847z m-7.364923-264.27077l-2.166154-4.726153a215.670154 215.670154 0 0 0 2.756923-10.161231 29.499077 29.499077 0 0 1-9.452308 15.793231c4.647385 0 9.373538 0.512 13.902769 1.378461a278.724923 278.724923 0 0 0-5.04123-2.284308z m-45.64677-4.332307c-2.402462-6.065231-2.953846-12.366769-3.347692-29.420308-0.551385-25.206154-1.536-37.691077-5.474461-54.665846l-1.417847-5.907692c-6.065231-24.103385-12.445538-40.093538-19.101538-50.215385a84.795077 84.795077 0 0 0-11.618462-13.075692 19.849846 19.849846 0 0 1-0.787692-1.61477 382.818462 382.818462 0 0 0-5.592615-22.055384 177.033846 177.033846 0 0 0-15.556923-38.793846 122.958769 122.958769 0 0 0-6.971077-10.83077l-6.301539-8.704a52.578462 52.578462 0 0 1-9.176615-21.661538c-1.457231-8.231385-0.512-15.202462 2.56-26.505846 2.993231-11.106462 3.465846-13.942154 2.441846-17.329231-1.260308-4.096-6.065231-7.168-16.738461-9.255385a57.344 57.344 0 0 1-13.469539-4.804923 183.926154 183.926154 0 0 1-5.907692-2.914461c-14.060308-7.207385-13.508923-6.931692-15.517539-7.207385-6.695385-0.866462-9.452308-14.139077-7.876923-27.057231 1.851077-15.123692 9.373538-25.796923 22.528-26.505846 23.867077-1.772308 35.328 25.442462 27.805539 44.701539-2.402462 3.938462-2.520615 5.947077-1.772308 6.57723 1.181538 0.984615 4.765538 1.063385 9.570462-0.551384 1.811692-0.590769 2.953846-4.726154 2.875076-12.288 0-1.732923-0.039385-3.072-0.196923-6.104616-0.472615-8.900923-0.472615-9.885538 0.354462-9.255384-4.962462-29.577846-13.784615-38.045538-33.161846-42.023385-22.567385 1.811692-33.28 12.327385-36.115693 29.538462-1.142154 6.971077-0.945231 14.099692 0.196924 22.843077-0.196923-1.339077 0.866462 6.459077 0.94523 7.719384 0.118154 1.732923 0.039385 2.717538-0.748307 3.938462-2.087385 3.229538-4.962462 2.284308-6.971077 0.275692-2.126769-2.244923-6.380308-3.347692-12.87877-3.465846-1.969231 0-3.741538 0-6.971076 0.157538-5.12 0.157538-6.695385 0.196923-8.664616-0.039384-3.977846-0.433231-6.813538-2.087385-6.813538-6.065231 0.393846-31.192615-9.334154-50.097231-22.961231-50.491077-11.106462-0.275692-19.298462 14.257231-21.188923 31.507692 2.638769-9.846154 9.924923-16.029538 21.819077-15.675076 17.368615 0.472615 25.403077 37.297231 17.526154 43.204923-4.253538 2.953846-11.421538 9.964308-12.524308 11.579077a31.310769 31.310769 0 0 1-11.027692 10.436923c-1.969231 1.181538-7.758769 4.253538-8.428308 4.647384a16.896 16.896 0 0 0-2.087385 1.417846c-6.065231 6.340923-7.089231 12.169846-4.411077 13.587693 2.56 1.457231 4.844308 3.032615 6.892308 4.686769 3.859692 3.072 3.544615 2.717538 10.397539 10.988308 5.513846 6.695385 10.003692 8.940308 22.646153 9.373538 15.241846 0.748308 26.663385-1.260308 43.441231-6.419692-0.039385 0 16.777846-4.647385 22.843077-6.695385 11.972923-4.056615 19.928615-8.388923 22.449231-12.760615 3.741538-5.947077 9.452308-7.601231 13.784615-4.923077 9.216 4.529231 6.301538 17.447385-6.340923 20.48l-1.536 0.472615c-6.656 2.048-12.918154 4.568615-23.512615 9.255385a298.732308 298.732308 0 0 1-19.298462 8.231384c-18.432 7.640615-12.839385 5.356308-16.580923 6.616616a92.317538 92.317538 0 0 1-14.966154 3.662769c-9.649231 1.732923-18.510769 1.496615-29.10523-0.039385-2.244923-0.315077-4.371692-0.590769-5.750154-0.905846 2.835692-0.433231 4.214154 1.102769 5.671384 2.520616 7.286154 6.813538 12.918154 8.979692 26.584616 8.664615a52.775385 52.775385 0 0 0 10.082461-1.417846c9.452308-2.205538 19.140923-6.537846 31.862154-13.587692l14.020923-8.034462c5.198769-2.875077 8.822154-4.726154 12.012308-6.065231 9.294769-3.741538 15.990154-2.363077 17.723077 6.301539 1.024 5.474462-3.229538 8.704-13.981539 14.178461l-4.253538 2.12677-5.001846 2.48123a168.566154 168.566154 0 0 0-25.245539 15.753846c-39.778462 28.750769-43.52 30.72-58.683077 22.843077-6.774154-3.623385-13.390769-10.712615-21.267692-21.661538-0.866462-1.181538-8.428308-12.209231-12.091077-17.250462-0.275692 9.334154-3.465846 18.510769-9.688615 30.523077-1.417846 2.717538-2.363077 4.411077-5.356308 9.846154-15.320615 27.766154-18.432 40.763077-9.097846 58.289231l-2.520616 5.671385c-11.303385 2.835692-41.117538 65.851077-45.371076 98.185846a122.407385 122.407385 0 0 0-0.866462 17.250461l0.118154 8.467693c0.393846 17.683692 0 24.418462-2.520616 31.271384-2.284308 6.734769-7.640615 9.452308-13.587692 6.892308-4.608-1.969231-9.176615-7.010462-13.036308-13.981539a69.592615 69.592615 0 0 1-3.859692-8.192c1.575385 5.080615 3.544615 10.121846 5.789539 15.123693 1.575385 3.741538 4.214154 6.419692 9.964307 10.830769l3.190154 2.441846c3.268923 2.481231 5.513846 4.450462 7.758769 6.813539 5.750154 6.577231 18.313846 17.447385 38.636308 33.910153l3.150769 2.520616 27.293539 21.937231c9.137231 7.443692 14.572308 12.091077 17.132307 14.729846 16.738462 15.635692 9.531077 44.898462-15.005538 51.396923 1.575385 2.638769 3.190154 5.238154 5.080615 7.995077 1.220923 1.851077 6.144 8.782769 7.325539 10.515692l0.393846 0.590769c-0.945231-2.166154-1.378462-4.056615-0.708923-5.198769a20.716308 20.716308 0 0 1 7.443692-5.592615c4.962462-2.244923 9.885538-1.969231 13.272616 2.126769 12.642462 14.178462 37.297231 18.747077 69.513846 14.493538 35.131077-4.096 62.306462-16.147692 74.830769-36.391384 8.073846-13.154462 14.414769-18.628923 20.007385-14.651077 5.513846 2.717538 7.168 11.382154 6.57723 26.466461a67.584 67.584 0 0 1-0.512 6.459077 130.363077 130.363077 0 0 1-6.57723 25.718154l-3.15077 9.294769c-2.205538 7.601231-2.953846 11.933538-2.363077 14.690462 0.315077 1.575385 1.181538 2.599385 3.15077 3.150769 1.063385-6.852923 2.363077-13.587692 4.844307-25.993846l1.811693-9.058462c2.796308-14.257231 4.332308-24.260923 5.080615-34.304 0.590769-7.640615-0.078769-14.178462-3.072-34.894769-0.984615-6.852923-1.575385-11.106462-2.087385-15.596308-3.032615-26.939077-0.866462-44.780308 10.003693-57.619692 5.395692-6.656 11.303385-8.900923 21.819077-9.255384a29.459692 29.459692 0 0 1 17.092923-23.04 16.029538 16.029538 0 0 1-11.539693-10.397539z m-220.396307 188.100923a49.388308 49.388308 0 0 1-5.080616-8.546462c1.929846 2.875077 3.623385 5.710769 5.12 8.546462z m8.034461 35.446154c4.962462-6.931692 2.914462-17.723077-4.253538-30.129231a42.338462 42.338462 0 0 0-1.969231-3.229539c0.945231 1.417846-0.157538 0.236308-1.811692-2.087384 5.080615 9.885538 7.522462 20.243692 8.034461 35.446154z m-12.918154-547.446154a8.664615 8.664615 0 0 0 3.111385-2.166154c-2.796308-0.905846-5.474462-3.544615-7.68-7.246769 2.126769 5.592615 4.411077 9.058462 4.568615 9.452307z m275.219693 275.731692c-0.433231-5.671385-0.275692-6.222769-1.575385-12.839385 1.969231 12.918154 2.244923 25.363692 0.630154 37.100308a103.581538 103.581538 0 0 0 0.945231-24.260923z m-5.513846-32.019692c1.693538 6.498462 3.032615 12.878769 3.938461 19.180307a1397.76 1397.76 0 0 0-3.938461-19.180307z m-2.323693-11.027693c-2.56-11.776-8.861538-25.6-16.777846-38.4 8.349538 16.541538 14.887385 33.201231 19.101539 49.427693l-2.323693-11.027693z m-260.450461-270.375384c0.275692-4.332308 3.859692-7.483077 8.743384-6.262154l0.275693 0.078769c5.986462 2.008615 10.633846 13.233231 8.861538 23.591385 0 2.56-1.496615 4.568615-3.820308 5.12-0.984615 0.157538-0.984615 0.157538-1.417846 0.157538-7.089231 0-8.782769-5.395692-7.364923-13.705846 0.236308-1.063385 0.118154-1.575385 1.142154-1.811692-4.214154 0.945231-6.656-3.190154-6.419692-7.168z m123.746461 10.24c0 2.835692-1.811692 4.332308-4.489846 5.553231-1.181538 0.512-1.181538 0.512-2.56 0.787692-1.969231 0.551385-5.198769-0.354462-5.159384-3.544615-0.708923-5.198769-3.465846-9.924923-5.277539-10.436924-2.717538-0.905846-4.962462-2.756923-5.159385-5.55323-0.315077-3.938462 2.756923-5.632 7.207385-6.025846 6.577231-0.945231 15.832615 8.664615 15.438769 19.259076z m15.43877-111.576616c9.294769 6.104615 8.940308 5.828923 7.916307 10.83077-1.654154 3.780923-5.238154 5.356308-10.318769 5.986461-1.260308 0.157538-2.363077 0.236308-4.332308 0.354462a17.565538 17.565538 0 0 0-2.048 0.196923 17.171692 17.171692 0 0 0-5.12 3.032615c-0.787692 0.630154-3.150769 2.835692-3.544615 3.150769a9.570462 9.570462 0 0 1-4.804923 2.520616 6.774154 6.774154 0 0 1-5.277539-1.457231 7.089231 7.089231 0 0 1-2.520615-8.192 16.777846 16.777846 0 0 1 3.268923-5.356308 15.478154 15.478154 0 0 0 1.851077-2.914461 12.918154 12.918154 0 0 0 0-3.544616l-0.078769-1.260307c-0.393846-7.286154 1.772308-11.815385 9.570461-12.603077 4.411077 0 7.995077 2.481231 13.154462 7.640615 0.551385 0.433231 1.102769 0.787692 2.284308 1.575385z m45.922461 192.196924a18.983385 18.983385 0 0 0 6.616615 2.441846c5.907692 1.496615 8.822154 3.741538 10.082462 9.767384 1.890462 8.743385-4.056615 18.471385-12.563692 17.014154-14.060308-2.914462-32.886154-27.923692-22.134154-39.660308a5.513846 5.513846 0 0 1 4.765538-1.732923c2.953846 0.433231 10.043077 9.728 9.176616 8.78277a20.519385 20.519385 0 0 0 4.056615 3.387077z" fill="#56606F" p-id="6999"></path></svg>