<?xml version="1.0" standalone="no"?><!DOCTYPE svg PUBLIC "-//W3C//DTD SVG 1.1//EN" "http://www.w3.org/Graphics/SVG/1.1/DTD/svg11.dtd"><svg t="1548764996863" class="icon" style="" viewBox="0 0 1024 1024" version="1.1" xmlns="http://www.w3.org/2000/svg" p-id="6780" xmlns:xlink="http://www.w3.org/1999/xlink" width="200" height="200"><defs><style type="text/css"></style></defs><path d="M737.043692 399.478154H905.846154v225.043692h-168.802462v-225.043692zM118.153846 399.478154h168.802462v225.043692H118.153846v-225.043692z m618.889846 281.324308v56.24123H286.956308v-56.24123H118.153846V846.769231A59.076923 59.076923 0 0 0 177.230769 905.846154h669.538462a59.076923 59.076923 0 0 0 59.076923-59.076923v-165.966769h-168.802462zM286.956308 343.197538V286.956308h450.087384v56.24123H905.846154V177.230769A59.076923 59.076923 0 0 0 846.769231 118.153846h-669.538462A59.076923 59.076923 0 0 0 118.153846 177.230769v165.966769h168.802462z" fill="#56606F" p-id="6781"></path></svg>