<?xml version="1.0" standalone="no"?><!DOCTYPE svg PUBLIC "-//W3C//DTD SVG 1.1//EN" "http://www.w3.org/Graphics/SVG/1.1/DTD/svg11.dtd"><svg t="1548920768673" class="icon" style="" viewBox="0 0 1024 1024" version="1.1" xmlns="http://www.w3.org/2000/svg" p-id="7215" xmlns:xlink="http://www.w3.org/1999/xlink" width="200" height="200"><defs><style type="text/css"></style></defs><path d="M503.335385 157.538462a386.244923 386.244923 0 0 0-385.063385 385.102769 332.130462 332.130462 0 0 0 19.259077 120.359384h28.868923a120.359385 120.359385 0 0 0 62.582154-14.454153 17.683692 17.683692 0 0 1 14.454154-4.804924c11.421538-0.315077 22.252308 5.12 28.868923 14.41477 3.780923 8.625231 10.633846 15.478154 19.259077 19.298461 7.207385 4.332308 15.753846 6.025846 24.064 4.765539 4.804923 0 14.454154 0 14.454154-4.804923s0-9.609846-9.649231-14.41477a37.612308 37.612308 0 0 1-19.259077-19.298461c-4.804923-9.609846-14.414769-14.414769-19.259077-33.673846a32.059077 32.059077 0 0 1 38.518154-33.713231c19.298462 5.986462 35.131077 20.046769 43.323077 38.518154 4.804923 4.844308 9.649231 9.649231 19.298461 4.844307 9.609846-4.844308 14.414769-4.844308 19.219693 0a109.686154 109.686154 0 0 0 77.036307 52.932924c38.478769 0 57.737846-9.609846 76.996923-9.609847a36.785231 36.785231 0 0 1 24.064 9.609847c9.649231 0 19.298462-9.609846 33.713231-9.609847 9.609846 0 24.064 9.609846 33.673846 9.609847 9.649231 0 38.518154-14.454154 33.713231-9.609847 0 9.609846-9.609846 28.868923-9.609846 38.47877 0.393846 9.846154-1.260308 19.692308-4.844308 28.908307-5.789538 9.097846-10.633846 18.786462-14.414769 28.868923-9.649231 14.454154-14.454154 19.259077-24.064 33.713231-10.909538 11.815385-20.598154 24.733538-28.908308 38.478769-4.804923 4.844308 28.908308 0 38.518154-9.609846a126.936615 126.936615 0 0 1 52.932923-43.323077c19.298462-4.804923 19.298462-9.649231 19.298462-14.454154v-4.804923c0-4.804923 0-4.804923 4.804923-4.804923a160.728615 160.728615 0 0 1 72.192-14.454154c16.187077-0.787692 32.413538 0.827077 48.128 4.804924a449.063385 449.063385 0 0 0 52.972307-202.161231A386.244923 386.244923 0 0 0 503.335385 157.538462z m312.910769 375.453538c-19.259077 101.100308-182.902154 134.813538-346.584616 86.646154-154.033231-48.128-288.807385-139.579077-274.392615-192.512 9.649231-33.713231 57.777231-43.323077 125.164308-38.518154-4.804923 19.259077-4.804923 43.323077 38.518154 72.192a435.987692 435.987692 0 0 0 168.487384 52.972308c9.609846 0 19.259077-4.844308 9.609846-9.649231a67.387077 67.387077 0 0 1-19.259077-33.673846c-4.804923-14.454154-4.804923-28.908308-62.582153-38.518154C330.082462 407.867077 334.887385 374.153846 339.692308 354.855385c0 0 9.649231-48.128 14.454154-67.387077 4.804923-19.259077 14.414769-57.777231 96.256-38.518154a203.264 203.264 0 0 0 86.646153-4.804923 98.461538 98.461538 0 0 1 96.295385 19.259077 403.968 403.968 0 0 1 67.347692 144.423384c7.601231 15.123692 7.601231 32.964923 0 48.128-4.765538 4.804923-4.765538 9.609846-14.414769 24.064 0 4.804923 0 4.804923 4.804923 4.804923 16.896-8.979692 29.144615-24.733538 33.713231-43.323077 62.582154 14.454154 101.100308 48.128 91.451077 91.451077z m-231.030154 182.941538l-9.649231 9.609847a21.188923 21.188923 0 0 1-24.064-4.804923c-14.454154-9.609846-24.064-4.804923-28.868923 4.804923-4.844308 4.844308 0 14.454154 9.609846 14.454153a28.868923 28.868923 0 0 1 19.259077 4.804924 21.070769 21.070769 0 0 0 28.868923 0l9.649231-9.609847c4.804923-14.454154 0-19.259077-4.804923-19.259077zM464.856615 316.376615c-19.259077 0-33.713231 4.844308-43.323077 4.844308a78.375385 78.375385 0 0 1-28.868923-14.454154c0-4.804923-14.454154-9.649231-19.298461 4.804923-4.804923 14.454154 4.844308 28.908308 14.454154 28.908308 0 0 14.454154 28.868923 28.908307 14.414769a122.210462 122.210462 0 0 1 57.737847-14.414769c19.298462 0 24.064-4.844308 24.064-9.649231-4.804923-9.609846-14.414769-14.454154-33.673847-14.454154z m105.905231-62.582153h-14.454154c-13.390769 0.354462-26.545231 3.623385-38.518154 9.64923h9.649231c24.064 0 43.323077 0 43.323077 9.609846 0 4.844308-9.649231 9.649231-24.064 14.454154 7.876923 2.087385 15.950769 3.702154 24.024616 4.804923 24.103385 0 43.323077-9.609846 43.323076-19.259077 0-9.609846-19.219692-19.259077-43.323076-19.259076z" fill="#56606F" p-id="7216"></path></svg>