<?xml version="1.0" standalone="no"?><!DOCTYPE svg PUBLIC "-//W3C//DTD SVG 1.1//EN" "http://www.w3.org/Graphics/SVG/1.1/DTD/svg11.dtd"><svg t="1555588966803" class="icon" style="" viewBox="0 0 1024 1024" version="1.1" xmlns="http://www.w3.org/2000/svg" p-id="7708" xmlns:xlink="http://www.w3.org/1999/xlink" width="200" height="200"><defs><style type="text/css"></style></defs><path d="M522.24 935.253333c239.4112 0 433.493333-194.082133 433.493333-433.493333C955.733333 262.3488 761.6512 68.266667 522.24 68.266667 282.8288 68.266667 88.746667 262.3488 88.746667 501.76c0 239.4112 194.082133 433.493333 433.493333 433.493333z m0-47.786666C309.248 887.466667 136.533333 714.752 136.533333 501.76 136.533333 288.768 309.248 116.053333 522.24 116.053333c212.992 0 385.706667 172.714667 385.706667 385.706667 0 212.992-172.714667 385.706667-385.706667 385.706667z" fill="#969EA9" p-id="7709"></path><path d="M510.225067 341.333333c31.061333 0 56.388267 8.123733 75.502933 25.326934 19.114667 16.725333 28.672 39.662933 28.672 68.8128 0 23.893333-6.212267 43.485867-17.681067 58.7776-4.3008 4.778667-18.158933 17.681067-41.096533 37.751466a74.069333 74.069333 0 0 0-19.114667 23.893334c-4.778667 9.557333-7.168 19.592533-7.168 31.061333v6.690133h-54.954666v-6.690133c0-18.158933 2.8672-33.928533 9.557333-46.830933 6.212267-12.9024 24.849067-32.9728 55.9104-60.689067l5.7344-6.690133c8.6016-10.513067 12.9024-21.981867 12.9024-33.928534 0-15.7696-4.778667-28.194133-13.380267-37.2736-9.079467-9.079467-21.981867-13.380267-38.229333-13.380266-21.026133 0-35.84 6.212267-44.919467 19.592533-8.123733 10.990933-11.946667 26.760533-11.946666 46.830933h-54.4768c0-35.362133 10.0352-63.0784 31.061333-83.1488 20.548267-20.0704 48.264533-30.1056 83.626667-30.1056z m-8.6016 275.729067c10.513067 0 19.592533 3.345067 26.760533 10.0352 6.690133 6.690133 10.513067 15.291733 10.513067 25.8048s-3.822933 19.592533-10.990934 26.282667c-7.168 6.690133-15.7696 10.0352-26.282666 10.0352a37.205333 37.205333 0 0 1-26.282667-10.513067c-7.168-6.690133-10.513067-15.291733-10.513067-25.8048s3.345067-19.114667 10.513067-25.8048c7.168-6.690133 15.7696-10.0352 26.282667-10.0352z" fill="#969EA9" p-id="7710"></path></svg>