<?xml version="1.0" standalone="no"?><!DOCTYPE svg PUBLIC "-//W3C//DTD SVG 1.1//EN" "http://www.w3.org/Graphics/SVG/1.1/DTD/svg11.dtd"><svg t="1572595255935" class="icon" viewBox="0 0 1029 1024" version="1.1" xmlns="http://www.w3.org/2000/svg" p-id="8514" xmlns:xlink="http://www.w3.org/1999/xlink" width="200.9765625" height="200"><defs><style type="text/css"></style></defs><path d="M54.854848 590.147084l31.554902-172.80408H27.329763L21.896707 454.788429l25.72606 18.046793-31.102576 22.528935-15.358535 94.782927h53.693192z m204.795888-162.559916c-12.480095-11.714224-22.528935-10.244163-22.528935-10.244164H104.96541l-25.659239 172.80408h55.487077l23.675171-137.538046h48.512s1.536882-0.061681 3.58263 1.346699c1.984068 1.40838 2.431254 4.28682 2.431254 4.28682l-18.046793 131.904527h55.934263l19.840678-137.538046c-0.061681 0 1.41352-13.374467-11.071715-25.02187z m132.295173 126.142506s9.786697-3.387307 11.066575-15.03985c1.218197-11.585722-5.309694-17.090739-5.309695-17.09074H329.668797s-49.406372-10.814711-40.894413-56.828635c8.450278-46.013924 42.621477-47.489125 42.621477-47.489125h142.400554l-5.443336 32.577776H357.76443s-13.179145 6.718074-14.525843 18.946305c-1.346699 12.16141 9.791837 18.946305 9.791837 18.946305h79.486073s31.42126 22.657437 23.998996 55.805762c-7.360583 33.220285-46.651293 46.589612-46.651293 46.589612H273.863035l6.466211-36.350589h111.616663v-0.066821z m269.9463-125.181313c-8.249816-9.344651-20.925233-11.261898-20.925233-11.261897H496.458992l-1.732204 37.697288 25.345695 19.583674-36.479091 19.969179-26.049885 176.833897 59.588855-22.84762 7.422264-60.930413h94.844608c6.142386-4.548964 18.946305-14.207159 22.595756-17.275782 4.800827-4.168598 17.537926-26.754075 17.537926-26.754075l11.842726-91.457301c-0.071961-0.00514-1.223337-14.150618-9.483433-23.55695z m-48.763863 75.132432c-6.276028 28.157314-17.085599 51.328759-17.085599 51.328759h-66.178427l16.576732-102.8477h66.692434c-0.00514-0.061681 6.265748 23.423308-0.00514 51.518941z m256.31997 86.013965h59.583714l14.464163-118.586601s-0.70419-11.071715 4.929329-16.258047 10.814711-4.482143 10.814711-4.482143h49.216189l20.735051-33.343647h-97.023999s-15.74404 2.945261-27.967132 17.15242c-12.15627 14.207159-13.950155 25.72606-13.950155 25.72606l-20.801871 129.791958z m-52.737139-172.413434l-24.31768 136.319849-44.99105 0.894372-0.832692 0.894373c-2.11257-0.123362-5.762021-0.70419-8.126454-3.772813-3.392448-4.477003-1.989208-7.226941-1.989208-7.226941l20.226183-127.10884h-54.140378l-20.925233 143.814074s2.816759 10.043701 10.557708 18.303796c7.812909 8.193275 18.499119 12.099729 18.499119 12.099729h134.654466l28.671321-174.212459h-57.286102z" fill="#1296db" p-id="8515"></path></svg>