<?xml version="1.0" standalone="no"?><!DOCTYPE svg PUBLIC "-//W3C//DTD SVG 1.1//EN" "http://www.w3.org/Graphics/SVG/1.1/DTD/svg11.dtd"><svg t="1572595265339" class="icon" viewBox="0 0 1024 1024" version="1.1" xmlns="http://www.w3.org/2000/svg" p-id="8640" xmlns:xlink="http://www.w3.org/1999/xlink" width="200" height="200"><defs><style type="text/css"></style></defs><path d="M759.686385 391.816194h76.794764v145.933323h67.486308v68.184442h-144.816308V393.35209a1.675522 1.675522 0 0 1 0.442151-1.559167z m-294.915165-12.845669c16.289798 10.844352 32.905393 21.246551 48.124719 32.998477-34.418017 21.711974-68.417153 44.215167-102.858442 66.206395 5.30582 3.979365 11.263232 7.307138 16.289799 11.286503 34.906711-22.130855 69.534168-44.052269 103.975456-66.206395a534.119219 534.119219 0 0 1 45.029657 30.252483c-34.674 21.921414-67.998273 44.936573-102.393019 67.090698a175.278231 175.278231 0 0 0 17.011204 10.844352c35.535032-21.688703 69.97632-44.215167 104.85976-66.648547v-73.071381h76.794764v145.491171c21.61889 1.093744 45.681249 0 68.207713 0.442152v68.184441H594.810354v-69.301456c-42.400018 26.133491-86.10322 55.362043-128.922119 82.821989-44.587505-29.019112-87.639116-59.806831-132.017181-88.802672a101.857782 101.857782 0 0 1-94.248119 75.282139c-31.578938 2.327114-67.486308-1.535895-103.952185 0v-214.094493c45.518351 3.095062 95.551303-5.980683 131.551758 5.30582a100.903666 100.903666 0 0 1 65.159193 67.113969c44.378065-27.925369 88.290707-56.688499 132.436061-85.265459zM208.9283 460.675499v77.074018a69.231643 69.231643 0 0 0 43.05161-6.981342 45.076199 45.076199 0 0 0 5.073109-59.57412 55.338772 55.338772 0 0 0-47.682567-11.938095c-0.651592 0.20944-0.442152 0.884303-0.442152 1.535895zM496.117447 0.069813h31.788378A513.151921 513.151921 0 0 1 1023.930187 496.559598v30.997159A512.197805 512.197805 0 0 1 527.254233 1024h-31.136786A512.872668 512.872668 0 0 1 0 527.556757v-30.997159c0.395609 0 0.581779-0.232711 0.511965-0.884303a511.057519 511.057519 0 0 1 495.675295-495.675295zM395.60939 73.490262A453.787242 453.787242 0 0 0 58.806172 529.092653 450.599096 450.599096 0 0 0 337.431539 930.543099a437.497443 437.497443 0 0 0 190.823353 34.557644 451.134332 451.134332 0 0 0 401.985683-277.903961A455.439493 455.439493 0 0 0 687.429493 93.526714a449.482081 449.482081 0 0 0-191.847283-34.418017 475.499216 475.499216 0 0 0-100.065904 14.381565z m0 0" fill="#0082CA" p-id="8641"></path></svg>