<?xml version="1.0" standalone="no"?><!DOCTYPE svg PUBLIC "-//W3C//DTD SVG 1.1//EN" "http://www.w3.org/Graphics/SVG/1.1/DTD/svg11.dtd"><svg t="1572595290466" class="icon" viewBox="0 0 1024 1024" version="1.1" xmlns="http://www.w3.org/2000/svg" p-id="8898" xmlns:xlink="http://www.w3.org/1999/xlink" width="200" height="200"><defs><style type="text/css"></style></defs><path d="M511.998819 1021.990726c-5.069225 0-10.117201-0.089721-15.158092-0.236107l104.227235-286.440732h143.435223c25.176128 0 52.812495-19.353721 61.423331-42.999873l113.071817-310.589794c18.501373-50.850443-10.624831-92.452561-64.733556-92.45256h-198.991287L488.317251 748.066046h-0.063749l-94.655443 260.079344C169.038706 954.761515 2.006913 752.894441 2.006913 511.998819c0-233.946982 157.530833-431.084826 372.301175-491.164705l-97.665811 268.437546h-0.028333L114.252354 735.313887l108.082868 0.009444 138.075586-379.023152h81.232739l-138.075587 379.023152 108.04273 0.018889 128.673792-353.618c18.510817-50.850443-10.617748-92.452561-64.676891-92.45256h-90.854113L489.072794 2.542876c7.602657-0.337634 15.238369-0.535964 22.921303-0.535963 281.661919 0 509.991907 228.329988 509.991907 509.991906 0 281.659558-228.329988 509.991907-509.991907 509.991907z m308.573437-665.964431h-81.209128L625.637294 668.061065h81.211489l113.723473-312.03477z" fill="" p-id="8899"></path></svg>