<?xml version="1.0" standalone="no"?><!DOCTYPE svg PUBLIC "-//W3C//DTD SVG 1.1//EN" "http://www.w3.org/Graphics/SVG/1.1/DTD/svg11.dtd"><svg t="1572595208580" class="icon" viewBox="0 0 2451 1024" version="1.1" xmlns="http://www.w3.org/2000/svg" p-id="8261" xmlns:xlink="http://www.w3.org/1999/xlink" width="478.7109375" height="200"><defs><style type="text/css"></style></defs><path d="M786.636015 188.518008H52.475096V52.475096H786.636015zM839.013027 0H0v240.993103h839.013027z" fill="#00B188" p-id="8262"></path><path d="M52.475096 639.215326H0V398.222222h52.475096v95.239847H146.145594V398.222222h52.475096v240.993104H146.145594V539.365517H52.475096z m225.59387-105.636782h62.479693c-1.177011-17.753257-8.435249-30.111877-28.934866-30.111877-15.497318 0-28.934866 6.571648-33.544827 30.111877z m39.626053 109.462069c-53.25977 0-89.452874-33.544828-89.452873-88.668199 0-53.652107 35.506513-90.629885 82.488888-90.629885 51.298084 0 76.701916 34.329502 76.701916 85.627586v19.322605H278.068966c6.17931 26.580843 26.97318 33.544828 47.865134 33.544828 18.145594 0 31.190805-3.825287 47.374712-13.927969h1.961686v39.724137c-13.927969 10.004598-33.642912 15.006897-57.575479 15.006897m206.761686-104.852107l-26.97318 101.02682h-45.903448l-52.475096-169.685824v-1.961686H449.226054l28.542528 101.419157 26.97318-101.419157h40.90115l27.365517 101.419157 28.934866-101.419157h48.159387v1.961686l-52.475096 169.685824h-45.903448z m210.881226 104.852107c-41.685824 0-58.654406-16.576245-58.654406-55.515709V398.222222h50.905747v185.771648c0 11.966284 4.609962 16.183908 14.614559 16.183908 3.43295 0 8.533333-1.177011 11.573947-2.354023h0.784674v41.980076c-4.217625 1.667433-11.475862 3.236782-19.224521 3.236782M818.611494 533.578544h62.479694c-1.177011-17.753257-8.435249-30.111877-28.934866-30.111877-15.399234 0-28.934866 6.571648-33.544828 30.111877z m39.724138 109.462069c-53.25977 0-89.452874-33.544828-89.452873-88.668199 0-53.652107 35.506513-90.629885 82.488889-90.629885 51.298084 0 76.701916 34.329502 76.701915 85.627586v19.322605H818.611494c6.17931 26.580843 26.97318 33.544828 47.76705 33.544828 18.145594 0 31.190805-3.825287 47.472797-13.927969h1.961686v39.724137c-13.829885 10.004598-33.544828 15.006897-57.477395 15.006897m278.755556-175.374713h37.762452v40.90115h-37.762452v69.737931c0 15.006897 5.786973 21.970881 21.186207 21.970881 4.217625 0 9.612261-0.392337 15.399233-2.354023h1.177012v40.116475c-6.571648 2.354023-16.576245 5.002299-31.190805 5.002299-41.293487 0-57.477395-18.930268-57.477394-62.479693v-72.091954H1021.057471v69.737931c0 15.006897 5.786973 21.970881 21.186207 21.970881 4.217625 0 9.612261-0.392337 15.399234-2.354023h1.177011v40.116475c-6.571648 2.354023-16.576245 5.002299-31.190804 5.002299-41.293487 0-57.477395-18.930268-57.477395-62.479694v-72.091954h-26.188506v-40.901149h26.188506v-46.982376h50.905747v46.982376h65.12797v-46.982376h50.905747z m209.311877 48.944062c26.580843 0 39.331801-15.006897 39.331801-36.585441 0-22.363218-12.652874-37.370115-39.331801-37.370115h-33.15249v74.05364z m92.591571-36.585441c0 52.475096-35.114176 80.91954-88.275862 80.91954H1313.348659v78.271265h-52.377011V398.222222h89.84521c53.063602 0 88.177778 28.542529 88.177778 81.802299m111.816092 105.244445v-14.61456c-7.748659-4.217625-17.753257-5.786973-28.150192-5.786973-16.576245 0-26.580843 6.17931-26.580843 20.009195 0 14.320307 10.004598 20.401533 25.011495 20.401533 14.320307 0 25.109579-7.356322 29.71954-20.009195z m1.569349 36.977777c-11.181609 13.535632-27.757854 20.009195-45.511111 20.009196-33.544828 0-60.910345-20.401533-60.910345-56.692721 0-33.544828 27.365517-55.908046 66.697318-55.908046 12.358621 0 25.109579 1.961686 38.154789 5.786974v-3.040613c0-18.537931-10.396935-26.580843-37.762452-26.580843-17.36092 0-33.937165 5.002299-48.257471 13.143295h-1.863602v-40.90115c13.143295-7.650575 36.291188-14.222222 58.948659-14.222222 51.690421 0 79.840613 24.717241 79.840613 67.87433v107.598467h-49.336398z m75.132567-68.659004c0-55.123372 38.939464-89.845211 89.84521-89.84521 18.145594 0 35.114176 3.825287 47.76705 13.143295v43.549425h-1.961686c-11.181609-8.435249-24.324904-13.535632-39.3318-13.535632-25.403831 0-44.726437 17.36092-44.726437 46.688122s19.322605 46.295785 44.726437 46.295786c15.006897 0 28.150192-5.002299 39.3318-13.535632h1.961686v43.549425c-12.750958 9.219923-29.71954 13.143295-47.76705 13.143295-50.905747 0-89.845211-34.231418-89.84521-89.452874m220.591571 7.748659v77.878928h-50.905748V398.222222h50.905748v137.219924l51.298084-67.87433h57.869732v1.961686l-61.69502 77.878927 61.69502 89.845211v1.961686h-58.262069z m223.239846 23.932568v-14.61456c-7.650575-4.217625-17.753257-5.786973-28.150191-5.786973-16.576245 0-26.580843 6.17931-26.580843 20.009195 0 14.320307 10.004598 20.401533 25.011494 20.401533 14.320307 0 25.109579-7.356322 29.71954-20.009195z m1.569349 36.977777c-11.181609 13.535632-27.757854 20.009195-45.511111 20.009196-33.544828 0-60.910345-20.401533-60.910345-56.692721 0-33.544828 27.365517-55.908046 66.697318-55.908046 12.358621 0 25.011494 1.961686 38.154789 5.786974v-3.040613c0-18.537931-10.396935-26.580843-37.762452-26.580843-17.36092 0-33.937165 5.002299-48.257471 13.143295h-1.961686v-40.90115c13.143295-7.650575 36.291188-14.222222 58.948659-14.222222 51.690421 0 79.840613 24.717241 79.840613 67.87433v107.598467h-49.336398zM2207.877395 495.423755c9.219923-18.930268 22.755556-29.71954 41.685823-29.71954 6.963985 0 13.829885 1.569349 16.576246 3.138697v48.551724h-1.863602c-5.786973-2.354023-12.750958-3.825287-22.363218-3.825287-15.791571 0-28.150192 9.219923-32.367816 26.97318v98.672797h-50.905748V467.6659h49.336399z m193.127969 85.529502v-55.123372c-8.435249-12.358621-19.616858-17.753257-32.367816-17.753257-22.363218 0-37.370115 16.183908-37.370115 45.511111s15.006897 45.118774 37.370115 45.118774c12.750958 0 23.932567-5.394636 32.367816-17.753256z m1.569349 40.508812c-10.789272 13.927969-27.757854 21.578544-50.905747 21.578544-43.941762 0-72.091954-40.116475-72.091955-89.452874s28.150192-89.845211 72.091955-89.84521c22.363218 0 38.547126 6.963985 49.336398 19.616858V398.222222h50.905747v240.895019h-49.336398zM0 717.878927h148.891954v29.327203H33.544828v73.661303h104.45977V849.409962H33.544828v80.23295h115.249042v29.327203H0z m271.889655 67.87433c38.154789 0 59.340996 25.109579 59.340996 66.304981v106.813793h-31.975479V852.842912c0-21.970881-11.181609-37.762452-35.506513-37.762452-20.009195 0-36.977778 12.750958-42.764751 30.798467v112.993104h-31.975479v-169.685824h31.975479v24.717241c10.004598-15.791571 26.97318-28.150192 50.905747-28.150191m145.36092 3.43295h43.549425v27.365517h-43.549425v91.316475c0 19.224521 10.004598 25.796169 28.150191 25.796169 5.002299 0 10.396935-0.784674 14.222223-2.354023h1.177011v27.365517c-4.609962 1.961686-11.181609 3.43295-20.009195 3.43295-39.724138 0-55.515709-18.145594-55.515709-51.298084v-94.455172h-29.327203v-27.365518h29.327203v-45.118774h31.975479z m97.103448 68.266667h84.450575c-1.177011-25.011494-13.535632-44.3341-39.724138-44.3341-24.22682 0-40.018391 18.145594-44.726437 44.3341z m50.51341 104.852107c-49.728736 0-83.6659-33.15249-83.6659-86.314176 0-53.25977 31.583142-90.237548 77.48659-90.237548 46.688123 0 70.914943 33.544828 70.914942 83.273563v14.614559H513.275096c3.43295 34.329502 25.501916 50.905747 55.908046 50.905747 18.930268 0 32.367816-4.217625 47.472797-15.399233h1.177011v28.150191c-13.927969 10.789272-32.073563 15.006897-52.965517 15.006897m134.571647-146.832184c7.356322-18.145594 23.54023-28.934866 41.980077-28.934866 7.356322 0 13.927969 1.177011 16.576245 2.648276v31.583142h-1.177011c-4.609962-2.255939-12.358621-3.43295-20.10728-3.432951-17.36092 0-31.975479 11.573946-37.370115 30.798468v110.63908h-31.975479V789.186207H699.340996z m161.937165 117.897318c31.583142 0 50.121073-25.011494 50.121073-59.340996 0-33.937165-18.537931-59.340996-50.121073-59.340996-17.36092 0-33.544828 10.396935-41.980076 26.97318v65.226053c8.435249 16.478161 24.717241 26.482759 41.980076 26.482759z m5.492721-147.616858c50.51341 0 77.48659 41.293487 77.48659 88.275862 0 47.08046-26.97318 88.275862-77.48659 88.275862-20.79387 0-38.547126-10.789272-47.472797-22.363219v84.058238h-31.975479V789.186207h31.975479v19.224521c8.827586-11.868199 26.580843-22.657471 47.472797-22.657471m147.224521 29.71954c7.356322-18.145594 23.54023-28.934866 41.980076-28.934866 7.356322 0 13.927969 1.177011 16.576245 2.648276v31.583142h-1.177011c-4.609962-2.255939-12.358621-3.43295-20.009195-3.432951-17.36092 0-31.975479 11.573946-37.370115 30.798468v110.63908h-31.975479V789.186207h31.975479z m104.950191-94.84751c11.181609 0 20.401533 8.827586 20.401533 20.009196s-9.219923 20.009195-20.401533 20.009195c-10.789272 0-20.401533-8.827586-20.401532-20.009195-0.098084-11.181609 9.612261-20.009195 20.401532-20.009196m-15.889655 238.246744h31.975479v-169.685824h-31.975479z m146.145594-99.065134c24.324904 7.650575 51.298084 17.753257 51.298084 50.121072 0 34.721839-28.542529 52.475096-65.127969 52.475096-22.363218 0-44.726437-5.394636-57.477395-15.399234v-30.40613h1.569349c14.320307 13.143295 35.506513 18.930268 55.515709 18.930268 18.145594 0 34.329502-6.963985 34.329502-21.578544 0-15.006897-13.437548-18.537931-40.116476-27.365517-23.932567-7.748659-50.51341-16.576245-50.51341-48.551724 0-32.760153 26.97318-52.082759 61.302682-52.082759 20.009195 0 37.762452 4.217625 52.082759 13.92797V830.773946h-1.177011c-13.829885-11.181609-30.111877-17.753257-50.121073-17.753256s-31.190805 8.827586-31.190805 20.793869c-0.098084 13.241379 12.260536 17.066667 39.626054 25.992338m112.208429-2.354023h84.450575c-1.177011-25.011494-13.437548-44.3341-39.724138-44.3341-24.22682 0-40.018391 18.145594-44.726437 44.3341z m50.51341 104.852107c-49.728736 0-83.6659-33.15249-83.6659-86.314176 0-53.25977 31.583142-90.237548 77.48659-90.237548 46.688123 0 70.914943 33.544828 70.914942 83.273563v14.614559H1360.429119c3.43295 34.329502 25.403831 50.905747 55.908046 50.905747 18.930268 0 32.367816-4.217625 47.472797-15.399233h1.177011v28.150191c-13.927969 10.789272-32.073563 15.006897-52.965517 15.006897" fill="#231F20" p-id="8263"></path></svg>