<?xml version="1.0" standalone="no"?><!DOCTYPE svg PUBLIC "-//W3C//DTD SVG 1.1//EN" "http://www.w3.org/Graphics/SVG/1.1/DTD/svg11.dtd"><svg t="1600227669464" class="icon" viewBox="0 0 1024 1024" version="1.1" xmlns="http://www.w3.org/2000/svg" p-id="3698" xmlns:xlink="http://www.w3.org/1999/xlink" width="200" height="200"><defs><style type="text/css"></style></defs><path d="M446.08 69.76c-44.8 0-85.76 20.48-114.56 53.12-44.8 61.44-12.16 147.2 12.16 195.84 24.32 49.28 134.4 224.64 138.88 228.48 3.84 3.84 8.32 3.84 8.32 0s12.16-261.12 3.84-322.56c-11.52-56.96-28.16-105.6-48.64-154.88zM205.44 188.16c-8.32 0-65.28 61.44-73.6 114.56C123.52 355.84 152.32 396.8 217.6 441.6c69.12 49.28 228.48 134.4 232.32 130.56 3.84-8.32-61.44-122.24-118.4-208-56.96-86.4-117.76-176-126.08-176z m20.48 522.24c49.28 20.48 126.72-28.8 147.2-40.96l56.96-40.96-277.76 8.32c16.64 28.8 40.96 53.12 73.6 73.6z m8.32-224.64C184.96 461.44 83.2 404.48 78.72 404.48s-19.84 73.6 12.8 126.72S185.6 600.32 213.76 604.8c32.64 3.84 220.16 3.84 220.16 0-3.84-4.48-151.04-94.08-199.68-119.04zM691.2 122.88c-28.8-32.64-69.12-53.12-114.56-53.12-20.48 49.28-36.48 97.92-44.8 151.04-8.32 61.44 3.84 322.56 3.84 322.56 0 3.84 3.84 3.84 8.32 0 3.84-3.84 118.4-183.68 138.88-228.48 20.48-45.44 53.12-130.56 8.32-192z m256.64 281.6c-3.84 0-106.24 56.96-154.88 81.92-49.28 24.32-195.84 114.56-199.68 118.4 0 3.84 187.52 3.84 220.16 0 28.8-3.84 89.6-20.48 122.24-73.6 28.8-53.12 12.16-126.72 12.16-126.72z m-297.6 264.96c20.48 12.16 97.92 61.44 147.2 40.96 32.64-16.64 56.96-44.8 73.6-77.44l-277.76-8.32 56.96 44.8z m240.64-366.72c-3.84-53.12-65.28-114.56-73.6-114.56-8.32 0-77.44 89.6-130.56 175.36C633.6 449.28 568.32 563.84 572.8 571.52c3.84 8.32 163.2-81.92 232.32-130.56 65.28-44.8 89.6-81.28 85.76-138.24z m0 0" fill="#EA020A" p-id="3699"></path><path d="M74.88 951.68v-150.4h32v59.52h65.28v-59.52h32v150.4h-32v-65.28H106.88v65.28h-32zM242.56 896v-95.36h32v96.64c0 10.88 2.56 19.2 7.68 24.32 5.12 5.12 13.44 7.68 24.96 7.68 12.16 0 20.48-2.56 25.6-7.04 5.12-5.12 7.68-12.8 7.68-24.32v-96.64h31.36v99.84c0 17.28-5.76 30.08-16.64 39.68-11.52 8.96-27.52 14.08-48 14.08-21.76 0-37.76-4.48-48.64-14.08-10.88-10.24-16-24.96-16-44.8zM392.32 951.68l51.84-150.4h40.32l51.2 150.4h-32l-10.88-33.28h-58.88l-10.88 33.28h-30.72z m49.28-56.96h43.52l-21.76-67.2-21.76 67.2zM579.84 951.68l-44.16-150.4h31.36l24.32 86.4c0.64 3.2 1.92 7.68 3.2 13.44 1.28 5.76 2.56 12.8 3.84 19.84 0.64-7.68 2.56-17.28 5.76-28.8 0.64-1.92 0.64-3.2 1.28-4.48l24.96-87.68h27.52l23.68 86.4c0.64 3.2 1.92 7.68 3.2 13.44 1.28 5.76 2.56 12.8 3.84 19.84 0.64-5.12 1.28-10.24 2.56-15.36 1.28-5.12 2.56-11.52 4.48-17.28l24.96-87.68h31.36l-44.16 150.4H672l-21.12-75.52c-1.92-7.04-3.2-13.44-4.48-18.56-1.28-5.12-1.92-10.24-2.56-14.72-1.28 7.04-1.92 13.44-3.2 19.2-1.28 5.76-2.56 10.24-3.2 14.08l-21.76 76.16h-35.84zM774.4 951.68v-150.4h111.36v24.32H806.4v35.84h57.6v24.32h-57.6v40.96h82.56v25.6H774.4zM918.4 951.68v-150.4h32.64v150.4h-32.64z" p-id="3700"></path></svg>