<?xml version="1.0" encoding="utf-8"?>
<!-- Generator: Adobe Illustrator 14.0.0, SVG Export Plug-In  -->
<!DOCTYPE svg PUBLIC "-//W3C//DTD SVG 1.1//EN" "http://www.w3.org/Graphics/SVG/1.1/DTD/svg11.dtd" [
	<!ENTITY ns_flows "http://ns.adobe.com/Flows/1.0/">
]>
<svg version="1.1"
	 xmlns="http://www.w3.org/2000/svg" xmlns:xlink="http://www.w3.org/1999/xlink" xmlns:a="http://ns.adobe.com/AdobeSVGViewerExtensions/3.0/"
	 x="0px" y="0px" width="300px" height="80px" viewBox="-1.034 -7.507 300 80" enable-background="new -1.034 -7.507 300 80"
	 xml:space="preserve">
<defs>
</defs>
<rect x="0.684" fill="#1E5CAB" width="12.576" height="40.881"/>
<path fill="#1E5CAB" d="M62.072,40.881H30.42c-2.48,0-4.609-0.889-6.389-2.67c-1.782-1.779-2.671-3.91-2.671-6.389V9.061
	c0-2.478,0.889-4.609,2.671-6.389C25.811,0.891,27.94,0,30.42,0h33.264l-1.611,7.325H35.964c-0.542,0-1.015,0.204-1.421,0.607
	c-0.405,0.406-0.607,0.88-0.607,1.421v7.424h27.303l-1.611,7.325H33.936v7.426c0,0.54,0.203,1.014,0.607,1.419
	c0.406,0.406,0.879,0.608,1.421,0.608h27.72L62.072,40.881z"/>
<rect x="71.144" fill="#1E5CAB" width="12.576" height="40.881"/>
<polygon fill="#1E5CAB" points="119.077,42.493 106.435,42.493 106.435,7.325 89.599,7.325 91.211,0 135.912,0 134.301,7.325 
	119.077,7.325 "/>
<path fill="#1E5CAB" d="M90.818,64.368H78.67c-0.952,0-1.77-0.342-2.453-1.025c-0.684-0.684-1.024-1.502-1.024-2.453v-8.736
	c0-0.951,0.34-1.768,1.024-2.451c0.683-0.684,1.501-1.025,2.453-1.025h12.767l-0.619,2.811H80.798c-0.208,0-0.39,0.078-0.545,0.232
	c-0.156,0.156-0.233,0.338-0.233,0.547v2.85h10.479l-0.619,2.811h-9.86v2.852c0,0.207,0.077,0.389,0.233,0.543
	c0.155,0.156,0.337,0.234,0.545,0.234h10.64L90.818,64.368z"/>
<polygon fill="#1E5CAB" points="67.412,64.985 62.56,64.985 62.56,51.487 56.098,51.487 56.716,48.676 73.873,48.676 73.254,51.487 
	67.412,51.487 "/>
<path fill="#1E5CAB" d="M131.75,64.368h-13.727l0.618-2.813h10.981c0.224,0,0.41-0.078,0.558-0.234
	c0.146-0.154,0.221-0.336,0.221-0.543v-2.072c0-0.207-0.074-0.389-0.221-0.545c-0.147-0.156-0.334-0.234-0.558-0.234h-8.304
	c-0.952,0-1.769-0.336-2.452-1.012c-0.684-0.674-1.025-1.496-1.025-2.465v-2.297c0-0.951,0.342-1.768,1.025-2.451
	s1.5-1.025,2.452-1.025h13.519l-0.617,2.811h-10.773c-0.209,0-0.39,0.078-0.546,0.232c-0.156,0.156-0.232,0.338-0.232,0.547v1.453
	c0,0.207,0.076,0.389,0.232,0.545s0.337,0.232,0.546,0.232h8.303c0.97,0,1.791,0.338,2.466,1.014
	c0.675,0.674,1.012,1.496,1.012,2.465v2.914c0,0.951-0.337,1.77-1.012,2.453S132.72,64.368,131.75,64.368"/>
<path fill="#1E5CAB" d="M51.066,64.368H37.339l0.618-2.813h10.98c0.225,0,0.411-0.078,0.558-0.234
	c0.147-0.154,0.221-0.336,0.221-0.543v-2.072c0-0.207-0.074-0.389-0.221-0.545c-0.147-0.156-0.333-0.234-0.558-0.234h-8.303
	c-0.952,0-1.769-0.336-2.452-1.012c-0.684-0.674-1.025-1.496-1.025-2.465v-2.297c0-0.951,0.341-1.768,1.025-2.451
	c0.683-0.684,1.5-1.025,2.452-1.025h13.519l-0.618,2.811H42.763c-0.208,0-0.389,0.078-0.545,0.232
	c-0.155,0.156-0.233,0.338-0.233,0.547v1.453c0,0.207,0.078,0.389,0.233,0.545c0.156,0.156,0.338,0.232,0.545,0.232h8.303
	c0.969,0,1.791,0.338,2.465,1.014c0.675,0.674,1.012,1.496,1.012,2.465v2.914c0,0.951-0.337,1.77-1.012,2.453
	S52.035,64.368,51.066,64.368"/>
<path fill="#1E5CAB" d="M13.908,64.368H0.182L0.8,61.555h10.981c0.224,0,0.41-0.078,0.558-0.234c0.147-0.154,0.22-0.336,0.22-0.543
	v-2.072c0-0.207-0.073-0.389-0.22-0.545c-0.147-0.156-0.333-0.234-0.558-0.234H3.477c-0.952,0-1.77-0.336-2.452-1.012
	C0.341,56.241,0,55.418,0,54.45v-2.297c0-0.951,0.341-1.768,1.025-2.451c0.683-0.684,1.5-1.025,2.452-1.025h11.046l1.855,2.811
	H5.604c-0.208,0-0.389,0.078-0.544,0.232c-0.156,0.156-0.233,0.338-0.233,0.547v1.453c0,0.207,0.077,0.389,0.233,0.545
	c0.156,0.156,0.337,0.232,0.544,0.232h8.304c0.968,0,1.791,0.338,2.466,1.014c0.675,0.674,1.011,1.496,1.011,2.465v2.914
	c0,0.951-0.336,1.77-1.011,2.453C15.699,64.026,14.876,64.368,13.908,64.368"/>
<polygon fill="#1E5CAB" points="29.205,64.985 24.378,64.985 24.378,59.038 17.139,48.676 22.354,48.676 26.791,55.167 
	31.255,48.676 36.471,48.676 29.205,59.038 "/>
<polygon fill="#1E5CAB" points="114.931,64.368 110.105,64.368 110.105,54.471 106.057,60.387 103.817,60.387 99.743,54.471 
	99.743,64.368 94.917,64.368 94.917,48.676 99.95,48.676 104.937,56.206 109.923,48.676 114.931,48.676 "/>
</svg>
