<?xml version="1.0" standalone="no"?><!DOCTYPE svg PUBLIC "-//W3C//DTD SVG 1.1//EN" "http://www.w3.org/Graphics/SVG/1.1/DTD/svg11.dtd"><svg t="1572595240880" class="icon" viewBox="0 0 4949 1024" version="1.1" xmlns="http://www.w3.org/2000/svg" p-id="8388" xmlns:xlink="http://www.w3.org/1999/xlink" width="966.6015625" height="200"><defs><style type="text/css"></style></defs><path d="M702.225067 998.894933H0V0h222.429867v805.2736h479.7952v193.621333z m780.629333-89.9584c-154.606933 110.609067-323.1744 141.192533-502.272 75.912534-182.186667-66.338133-281.173333-253.44-248.32-453.0176 30.446933-185.1392 191.351467-325.12 387.618133-337.237334 187.306667-7.424 356.130133 112.298667 411.255467 291.652267 12.731733 42.9056 2.56 59.460267-37.034667 75.810133-140.987733 58.197333-280.456533 120.183467-420.386133 180.9408-18.090667 7.765333-35.584 16.6912-60.091733 28.3136 107.383467 74.154667 227.037867 64.955733 385.604266-25.9584l141.824 122.88c-22.340267 15.616-40.448 27.9552-58.197333 40.704z m-407.381333-513.8944c-95.095467 35.9424-140.731733 113.169067-124.347734 219.392l355.3792-146.193066a187.2384 187.2384 0 0 0-231.031466-73.198934z m1330.056533 587.52h-215.927467V751.547733c0-60.381867 0.341333-120.797867 0-181.179733-0.836267-108.629333-61.0304-182.9888-149.162666-184.866133-113.544533-2.5088-201.045333 75.025067-203.502934 185.1392-2.56 114.688-0.733867 229.461333-0.8192 344.200533v68.0448H1620.701867V229.597867h194.440533l8.721067 61.422933a685.602133 685.602133 0 0 1 232.823466-82.5344c177.783467-23.2448 331.776 86.306133 346.2144 269.5168 12.9024 165.597867 2.628267 333.056 2.628267 504.558933z m500.753067 21.282134c-227.106133 3.003733-413.661867-178.858667-416.682667-406.2208v-4.437334c-0.8192-227.157333 182.135467-412.194133 409.053867-413.661866 226.9184-1.467733 412.245333 181.1456 414.378666 408.32 2.0992 227.1744-179.797333 413.2352-406.698666 416h-0.0512z m-3.925334-619.008c-114.346667 0.256-207.018667 92.8768-207.4624 207.325866a205.141333 205.141333 0 0 0 59.511467 145.186134 204.6976 204.6976 0 0 0 144.64 60.5184h3.413333c111.957333-0.955733 203.042133-90.606933 205.892267-202.683734-0.580267-114.346667-91.818667-207.5136-205.994667-210.346666z m715.4688 614.775466L3276.8 229.102933h244.462933l199.2192 486.468267 196.1984-486.468267h229.376L3844.232533 999.594667h-226.389333zM4949.333333 589.141333c2.4576 227.293867-179.370667 413.696-406.4256 416.597334-227.054933 2.901333-413.576533-178.7904-416.904533-406.084267v-7.253333c-0.904533-227.618133 182.6816-412.859733 410.043733-413.764267 227.362133-0.904533 412.398933 182.8864 413.303467 410.487467h-0.017067zM4536.149333 384.938667c-114.090667 3.1744-205.124267 96.341333-205.755733 210.602666 3.345067 112.0256 94.464 201.403733 206.404267 202.461867 113.117867 1.365333 205.892267-89.344 207.2576-202.581333v-3.498667c-0.9216-114.3808-93.6448-206.6944-207.906134-206.984533z" fill="#D2382F" p-id="8389"></path></svg>