<svg t="1731292498289" class="icon" viewBox="0 0 1354 1024" version="1.1" xmlns="http://www.w3.org/2000/svg" p-id="4469" width="200" height="200"><path d="M296.200258 352.850581c-172.395355 6.44129-261.41729 58.533161-267.032774 156.275613-8.456258 146.663226 263.597419 317.572129 464.862968 400.350967 201.232516 82.778839 675.773935 161.957161 815.170064-41.488516 92.88671-135.630452 34.353548-259.303226-175.599484-371.051355l-837.367742-144.086709z" fill="#ED0000" p-id="4470"></path><path d="M284.539871 405.900387l118.354581-335.640774S424.926968 16.648258 471.502452 16.648258s86.940903 38.317419 117.03329 38.317419c30.059355 0 85.025032-49.416258 101.904516-49.416258 16.912516 0 257.981935 69.830194 330.652903 121.856 48.42529 34.683871 92.16 189.935484 131.138065 465.853936l-87.337291 50.47329-490.529032-59.788387-285.696-178.043871h-4.129032z" fill="#ED0000" p-id="4471"></path><path d="M319.157677 302.509419c103.424 141.642323 253.027097 229.045677 448.776258 262.177033 195.782194 33.131355 314.863484-1.651613 357.309936-104.282839l26.954323 132.855742c-51.761548 104.844387-168.66271 146.993548-350.670452 126.414451-273.011613-30.852129-465.62271-178.572387-502.48671-259.303225-24.576-53.776516-17.870452-106.396903 20.116645-157.861162z" fill="#000000" p-id="4472"></path></svg>
