<?xml version="1.0" standalone="no"?><!DOCTYPE svg PUBLIC "-//W3C//DTD SVG 1.1//EN" "http://www.w3.org/Graphics/SVG/1.1/DTD/svg11.dtd"><svg t="1599104200266" class="icon" viewBox="0 0 1024 1024" version="1.1" xmlns="http://www.w3.org/2000/svg" p-id="5790" xmlns:xlink="http://www.w3.org/1999/xlink" width="200" height="200"><defs><style type="text/css"></style></defs><path d="M887.9 476.8c-4.3-105.2-162.3-181.7-378.7-162.7-220.7 19.4-414.1 135.6-403.6 258.5C116 694.7 320.9 757.7 534.4 724.3c209.9-32.8 357.8-142.9 353.5-247.5zM568.3 694.7C372 723 173.7 659.7 164.2 556.4c-9.7-104 163.2-212.3 366-228.7 198.9-16.1 349.2 58.6 353.1 147.6 3.9 88.5-122.1 191.6-315 219.4z" fill="#00954C" p-id="5791"></path><path d="M284.5 525.3c-3.6-3.2-8.6-6.4-15-9.7-5.2-2.7-9.2-5.1-11.9-7.2-2.7-2.1-4.7-4.2-5.9-6.4-1.2-2.2-1.7-4.8-1.7-7.8 0-2.9 0.7-5.4 2-7.4s3.2-3.6 5.5-4.6c2.3-1 5-1.5 7.9-1.5 3.5 0 6.3 0.6 8.6 1.7s4.2 2.9 5.7 5.3 2.8 5.6 3.8 9.7h10.6v-22.5c-5.4-1.2-10.2-2.1-14.3-2.6-4.2-0.5-8.6-0.7-13.2-0.7-7.9 0-14.8 1.2-20.7 3.4-6 2.3-10.5 5.7-13.7 10.1-3.2 4.4-4.7 9.8-4.7 16.2 0 3.9 0.6 7.4 1.9 10.5 1.3 3.1 3 6 5.3 8.6 2.3 2.6 5.1 5 8.3 7.2 3.3 2.2 6.9 4.3 10.9 6.3 4.7 2.4 8.4 4.6 11 6.7 2.6 2.1 4.5 4.4 5.7 6.7 1.2 2.4 1.8 5.1 1.8 8.3 0 3.5-0.7 6.3-2.2 8.6-1.5 2.3-3.4 4-5.9 5-2.4 1-5.2 1.6-8.2 1.6-5.8 0-10.3-1.5-13.3-4.5s-5.2-7.6-6.5-13.8h-10.6v23.9c5 1.1 10.4 2 16.1 2.6 5.7 0.6 11.2 0.9 16.5 0.9 7.4 0 13.9-1.3 19.5-3.8s9.9-6.1 12.9-10.8c2.9-4.7 4.4-10.2 4.4-16.5 0-5-0.9-9.3-2.6-13.1-1.7-3.7-4.4-7.2-8-10.4z m66.6-25c2.2 0.6 3.7 1.3 4.5 2 0.8 0.7 1.3 1.7 1.5 2.9 0.3 1.2 0.4 3.3 0.4 6.3V550c0 5.9-0.4 10.3-1.2 13.2-0.8 3-2.2 5.3-4.2 6.9-2 1.6-5.1 2.5-9.2 2.5-3 0-5.4-0.5-7.3-1.5-1.9-1-3.4-2.4-4.4-4.3-1.1-1.9-1.8-4.1-2.2-6.7-0.4-2.6-0.6-5.5-0.6-8.7v-39.8c0-2.3 0.1-4 0.2-5.1 0.2-1.2 0.4-2.1 0.8-2.8 0.4-0.7 1-1.3 1.8-1.8s2-1 3.6-1.4v-4h-31.6v4c1.5 0.4 2.7 0.9 3.6 1.4 0.9 0.5 1.5 1.2 1.9 2 0.4 0.8 0.7 1.8 0.8 3.1 0.1 1.3 0.2 2.9 0.2 4.8v39c0 5.4 0.6 9.8 1.8 13.2 1.2 3.4 3 6.3 5.5 8.7 2.5 2.4 5.7 4.2 9.6 5.4 3.9 1.2 8.8 1.8 14.5 1.8 3.9 0 7.4-0.3 10.5-0.9 3.1-0.6 6-1.6 8.5-3s4.6-3.3 6.3-5.5c1.7-2.3 2.9-5.1 3.7-8.5 0.8-3.4 1.2-7.5 1.2-12.5v-37.7c0-1.9 0.1-3.5 0.2-4.8 0.1-1.3 0.4-2.3 0.8-3.1 0.4-0.8 1.1-1.5 1.9-1.9 0.8-0.5 2-0.9 3.4-1.3v-4h-26.5v3.6z m99.4 1.5c-5.1-3.6-12.7-5.5-22.8-5.5h-35v4c1.5 0.4 2.7 0.9 3.6 1.4 0.9 0.5 1.5 1.2 1.9 2 0.4 0.8 0.7 1.8 0.8 3.1 0.1 1.3 0.2 2.9 0.2 4.8v52c0 1.9-0.1 3.5-0.2 4.8s-0.4 2.3-0.8 3.1c-0.4 0.8-1.1 1.5-1.9 1.9-0.9 0.5-2 0.9-3.5 1.3v4H425v-4c-1.8-0.3-3.1-0.7-4-1.1-0.9-0.4-1.5-1-2-1.7s-0.8-1.5-1-2.7c-0.2-1.1-0.3-3-0.3-5.6v-19.3c2.5 0.2 5.7 0.2 9.6 0.2 6.8 0 12.4-1 16.9-3 4.5-2 7.9-5 10.3-9 2.4-3.9 3.6-8.6 3.6-13.9 0-7.6-2.6-13.2-7.6-16.8z m-12.7 28.4c-1.1 2.5-2.9 4.3-5.3 5.5-2.4 1.1-5.6 1.7-9.6 1.7h-5.2v-33.9c1.5-0.1 3.7-0.1 6.5-0.1 3.5 0 6.3 0.5 8.5 1.6 2.2 1 3.9 2.8 5 5.3s1.7 5.8 1.7 10c0.1 4.1-0.5 7.5-1.6 9.9z m104.3 41.1c-1.7-1.8-3.3-4.6-5-8.2l-3.8-8.2c-1.6-3.3-3.3-6-5.3-8.2-1.9-2.1-4.4-3.9-7.4-5.2v-0.6c3.9-1.6 7.1-3.4 9.4-5.3 2.4-1.9 4.2-4.2 5.6-7 1.4-2.8 2.1-6.2 2.1-10.1 0-3-0.4-5.7-1.2-7.9-0.8-2.3-1.9-4.3-3.3-6-1.4-1.7-3.2-3.1-5.3-4.2-2.5-1.4-5.4-2.4-8.7-3-3.3-0.7-7.3-1-12.1-1H472v4c1.5 0.4 2.7 0.9 3.6 1.4 0.9 0.5 1.5 1.2 1.9 2 0.4 0.8 0.7 1.8 0.8 3.1 0.1 1.3 0.2 2.9 0.2 4.8v52c0 1.9-0.1 3.5-0.2 4.8s-0.4 2.3-0.8 3.1c-0.4 0.8-1.1 1.5-1.9 1.9-0.9 0.5-2 0.9-3.5 1.3v4h31.6v-4c-2.2-0.6-3.7-1.2-4.5-1.9-0.8-0.7-1.3-1.7-1.6-2.9-0.3-1.2-0.4-3.3-0.4-6.3v-19.4h3.5c2.2 0 3.8 0.2 4.9 0.7 1.1 0.5 2.1 1.4 3.1 2.7 1 1.3 2.2 3.5 3.6 6.5l4.7 10.3c2.9 6.3 5.6 11.1 7.9 14.3h23.2v-4c-2.3-0.6-4.3-1.7-6-3.5z m-23.5-44.7c-0.5 2.1-1.3 3.9-2.5 5.5-1.2 1.5-2.9 2.8-5 3.6-2.1 0.9-4.7 1.3-8 1.3h-6v-33.5c1.1-0.1 3.4-0.1 6.8-0.1 5.1 0 8.9 1.4 11.5 4.1 2.6 2.7 3.9 6.8 3.9 12.3-0.1 2.5-0.3 4.7-0.7 6.8z m79.3 19.2l-16.7-49.5h-30v4c2.3 0.6 3.8 1.3 4.5 2 0.8 0.7 1.3 1.6 1.5 2.8 0.3 1.1 0.4 3.2 0.4 6.3v52.1c0 1.9-0.1 3.5-0.2 4.8-0.1 1.2-0.4 2.3-0.8 3.1-0.4 0.8-1.1 1.4-2 1.9-0.9 0.5-2 0.9-3.5 1.3v4H574v-4c-2.1-0.5-3.6-1.2-4.4-1.9-0.8-0.8-1.4-1.7-1.7-2.9-0.3-1.2-0.4-3.2-0.4-6.2v-27.7c0-9-0.2-16.9-0.6-23.5h1.1c0.8 2.7 1.6 5.5 2.7 8.3l17 48.9h10.6l16.2-43.5c1.5-4 2.5-6.7 3-8.3 0.5-1.5 1.1-3.1 1.5-4.7h1.3c-0.1 1.8-0.2 5-0.4 9.4-0.1 4.4-0.2 8.3-0.2 11.5v29.5c0 2.7-0.1 4.7-0.3 5.9-0.2 1.2-0.5 2.1-0.8 2.7-0.4 0.6-0.9 1.1-1.6 1.4-0.7 0.4-1.9 0.8-3.7 1.3v4h30.9v-4c-2.3-0.6-3.8-1.3-4.6-2-0.7-0.7-1.2-1.8-1.5-3.3-0.2-1.4-0.4-3.4-0.4-5.8v-52.1c0-3 0.2-5.1 0.5-6.3 0.3-1.2 0.8-2.1 1.6-2.8 0.8-0.7 2.2-1.4 4.3-2v-4h-28.3l-17.9 49.3z m59.3-45.5c1.5 0.4 2.7 0.8 3.6 1.3 0.9 0.5 1.5 1.1 1.9 2 0.4 0.8 0.7 1.9 0.8 3.1 0.1 1.2 0.2 2.8 0.2 4.8v52c0 1.9-0.1 3.5-0.2 4.8s-0.4 2.3-0.8 3.1c-0.4 0.8-1.1 1.5-1.9 1.9-0.9 0.5-2 0.9-3.5 1.3v4h31.6v-4c-1.2-0.3-2.2-0.6-3-1-0.8-0.4-1.4-0.8-1.9-1.4-0.5-0.5-0.8-1.2-1.1-1.9-0.2-0.8-0.4-1.7-0.5-3-0.1-1.2-0.1-2.5-0.1-3.9v-52c0-2.3 0.1-4 0.2-5.1 0.2-1.2 0.4-2.1 0.8-2.8 0.4-0.7 1-1.3 1.8-1.8s2-1 3.6-1.4v-4h-31.6v4z m82.5-5c-8 0-14.9 1.7-20.6 5.2-5.7 3.5-10.1 8.5-13.1 14.9s-4.4 14-4.4 22.8c0 9.3 1.3 17 3.8 23.1 2.5 6.1 6.4 10.6 11.7 13.7 5.3 3 12.1 4.5 20.5 4.5 3.9 0 7.7-0.2 11.4-0.7 3.7-0.5 7.7-1.2 12.1-2.3v-18.3h-8.3c-0.8 3.6-1.8 6.3-2.9 8.3-1.1 2-2.6 3.4-4.4 4.4-1.8 1-4.2 1.5-7.2 1.5-5.7 0-10.1-2.9-13.1-8.6-3-5.7-4.5-14.2-4.5-25.3 0-12 1.6-21 4.9-27.1 3.3-6.1 8.1-9.1 14.4-9.1 3.4 0 6.1 1.1 8.2 3.2 2.1 2.2 3.6 5.5 4.6 10h8.2V498c-3.6-1-7-1.7-10.3-2.2-3.2-0.2-6.9-0.5-11-0.5z m102.2 76c-1.7-1.8-3.3-4.6-5-8.2l-3.8-8.2c-1.6-3.3-3.3-6-5.3-8.2-1.9-2.1-4.4-3.9-7.4-5.2v-0.6c3.9-1.6 7.1-3.4 9.4-5.3 2.4-1.9 4.2-4.2 5.6-7 1.4-2.8 2.1-6.2 2.1-10.1 0-3-0.4-5.7-1.2-7.9-0.8-2.3-1.9-4.3-3.3-6-1.4-1.7-3.2-3.1-5.3-4.2-2.5-1.4-5.4-2.4-8.7-3-3.3-0.7-7.3-1-12.1-1h-35.1v4c1.5 0.4 2.7 0.9 3.6 1.4 0.9 0.5 1.5 1.2 1.9 2 0.4 0.8 0.7 1.8 0.8 3.1 0.1 1.3 0.2 2.9 0.2 4.8v52c0 1.9-0.1 3.5-0.2 4.8s-0.4 2.3-0.8 3.1c-0.4 0.8-1.1 1.5-1.9 1.9-0.9 0.5-2 0.9-3.5 1.3v4h31.6v-4c-2.2-0.6-3.7-1.2-4.5-1.9-0.8-0.7-1.3-1.7-1.6-2.9-0.3-1.2-0.4-3.3-0.4-6.3v-19.4h3.5c2.2 0 3.8 0.2 4.9 0.7 1.1 0.5 2.1 1.4 3.1 2.7 1 1.3 2.2 3.5 3.6 6.5l4.7 10.3c2.9 6.3 5.6 11.1 7.9 14.3h23.2v-4c-2.4-0.6-4.3-1.7-6-3.5z m-23.6-44.7c-0.5 2.1-1.3 3.9-2.5 5.5-1.2 1.5-2.9 2.8-5 3.6-2.1 0.9-4.7 1.3-8 1.3h-6v-33.5c1.1-0.1 3.4-0.1 6.8-0.1 5.1 0 8.9 1.4 11.5 4.1 2.6 2.7 3.9 6.8 3.9 12.3 0 2.5-0.2 4.7-0.7 6.8z" fill="#242759" p-id="5792"></path><path d="M885.1 541.9m-38.5 0a38.5 38.5 0 1 0 77 0 38.5 38.5 0 1 0-77 0Z" fill="#E83F3F" p-id="5793"></path><path d="M885.4 401m-12.5 0a12.5 12.5 0 1 0 25 0 12.5 12.5 0 1 0-25 0Z" fill="#33306D" p-id="5794"></path></svg>