<svg t="1626318258610" class="icon" viewBox="0 0 1170 1024" version="1.1" xmlns="http://www.w3.org/2000/svg" p-id="29051" width="200" height="200"><path d="M1131.300571 477.842286L682.642286 53.613714a47.104 47.104 0 0 0-68.242286 0 47.104 47.104 0 0 0 0 68.315429l360.813714 341.284571H73.142857C43.885714 463.213714 24.356571 482.742857 24.356571 512s19.529143 48.786286 48.786286 48.786286h902.070857L614.4 902.070857a47.104 47.104 0 0 0 0 68.315429 52.662857 52.662857 0 0 0 34.157714 14.628571 52.662857 52.662857 0 0 0 34.084572-14.628571l448.658285-424.228572a52.662857 52.662857 0 0 0 14.628572-34.157714 52.662857 52.662857 0 0 0-14.628572-34.157714z" p-id="29052"></path></svg>
