<svg viewBox="0 0 1024 1024" version="1.1" xmlns="http://www.w3.org/2000/svg" xmlns:xlink="http://www.w3.org/1999/xlink" width="128" height="128"><path d="M923.8 337.9C901.3 284.6 869 236.8 828 195.7s-88.9-73.3-142.2-95.8c-55.1-23.3-113.7-35.2-174.1-35.2-60.4 0-118.9 11.8-174.1 35.2-53.3 22.5-101.1 54.8-142.2 95.8s-73.3 88.9-95.8 142.2C76.3 393.1 64.5 451.6 64.5 512s11.8 119 35.2 174.1c22.5 53.3 54.8 101.1 95.8 142.2 41.1 41.1 88.9 73.3 142.2 95.8 55.1 23.3 113.7 35.2 174.1 35.2 60.4 0 118.9-11.8 174.1-35.2 53.3-22.5 101.1-54.8 142.2-95.8 41.1-41.1 73.3-88.9 95.8-142.2C947.1 631 959 572.4 959 512s-11.9-118.9-35.2-174.1z m-27.6 336.5c-21 49.7-51.1 94.3-89.4 132.6-38.3 38.3-82.9 68.4-132.6 89.4-51.4 21.8-106.1 32.8-162.4 32.8s-111-11-162.4-32.8c-49.7-21-94.3-51.1-132.6-89.4-38.3-38.3-68.4-82.9-89.4-132.6C105.5 623 94.5 568.3 94.5 512c0-56.3 11-111 32.8-162.4 21-49.7 51.1-94.3 89.4-132.6 38.3-38.3 82.9-68.4 132.6-89.4 51.4-21.8 106.1-32.8 162.4-32.8s111 11 162.4 32.8c49.7 21 94.3 51.1 132.6 89.4 38.3 38.3 68.4 82.9 89.4 132.6C917.9 401 929 455.7 929 512c0 56.3-11.1 111-32.8 162.4z"></path><path d="M595.6 704.9h106V728h-106zM752.8 531.4h-95.9V395.7c21.4-2.9 37.9-21.2 37.9-43.4 0-24.2-19.7-43.8-43.8-43.8-20.1 0-37 13.6-42.1 32H496.7v-26.1l-0.1-0.7c-1.6-9.4-8.4-15.6-17.4-15.6H272c-10.1 0-16.3 8.5-16.3 16.3v127.9c0 9.6 6.7 16.3 16.3 16.3h208.4c9.6 0 16.3-6.7 16.3-16.3v-75.8h113c3.8 10.3 11.4 19.1 21.1 24.3v140.6h-86.4c-8.4 0-16.3 7.9-16.3 16.3v71.1H412.7c-4.1-9.1-11.1-16.5-19.9-21.1V496.2h37.9v-26.1H321.8v26.1h45v97c-21.4 2.9-37.9 21.2-37.9 43.4 0 23.3 20.5 43.8 43.8 43.8 20.5 0 38.8-15.8 42.9-35.5h112.5v30.8c0 10.1 8.5 16.3 16.3 16.3h208.4c7.8 0 16.3-6.2 16.3-16.3v-128c0-10-8.5-16.3-16.3-16.3zM464.2 417.5c0 5.8-3.9 9.8-9.8 9.8H296.9c-5.8 0-9.8-3.9-9.8-9.8v-78.2c0-5.8 3.9-9.8 9.8-9.8h157.5c5.8 0 9.8 3.9 9.8 9.8v78.2z m263.7 243H569.3c-5.8 0-9.8-3.9-9.8-9.8v-78.2c0-5.8 3.9-9.8 9.8-9.8h157.5c5.8 0 9.8 3.9 9.8 9.8v82.6h0.3c-1.6 3.4-4.8 5.4-9 5.4z"></path></svg>
