<?xml version="1.0" standalone="no"?><!DOCTYPE svg PUBLIC "-//W3C//DTD SVG 1.1//EN" "http://www.w3.org/Graphics/SVG/1.1/DTD/svg11.dtd"><svg t="1592468364469" class="icon" viewBox="0 0 1024 1024" version="1.1" xmlns="http://www.w3.org/2000/svg" p-id="6507" xmlns:xlink="http://www.w3.org/1999/xlink" width="200" height="200"><defs><style type="text/css"></style></defs><path d="M0 896h1024v64H0zM166.4 652.8H57.6v51.2h281.6v-51.2H230.4V211.2l-172.8 51.2v51.2l108.8-32zM646.4 652.8H428.8l108.8-108.8c44.8-44.8 76.8-83.2 89.6-108.8 19.2-32 25.6-57.6 25.6-89.6 0-38.4-12.8-70.4-38.4-96s-57.6-38.4-102.4-38.4c-51.2 0-96 12.8-134.4 44.8v64c38.4-38.4 83.2-57.6 121.6-57.6 32 0 51.2 6.4 64 19.2 12.8 12.8 25.6 38.4 25.6 64s-6.4 44.8-19.2 70.4c-12.8 25.6-38.4 57.6-76.8 96l-140.8 140.8v51.2h294.4v-51.2zM921.6 672c32-25.6 44.8-64 44.8-102.4 0-32-12.8-57.6-32-76.8-19.2-19.2-51.2-32-83.2-38.4 64-19.2 96-57.6 96-121.6 0-32-12.8-64-38.4-83.2-25.6-19.2-57.6-32-102.4-32-44.8 0-76.8 6.4-108.8 25.6v57.6c32-25.6 64-32 96-32 57.6 0 89.6 25.6 89.6 76.8 0 57.6-38.4 83.2-115.2 83.2h-38.4v51.2h38.4c89.6 0 134.4 32 134.4 89.6 0 25.6-12.8 51.2-32 64-19.2 19.2-44.8 25.6-76.8 25.6-44.8 0-76.8-12.8-115.2-38.4v64c25.6 19.2 64 25.6 108.8 25.6 57.6 0 102.4-12.8 134.4-38.4z" p-id="6508"></path></svg>