<svg t="1635322974221" class="icon" viewBox="0 0 1024 1024" version="1.1" xmlns="http://www.w3.org/2000/svg" p-id="21197" width="200" height="200"><path d="M794.509518 1024h-565.316588A159.65505 159.65505 0 0 1 72.02956 862.362323V161.79843A159.65505 159.65505 0 0 1 229.19293 0.026792h460.290947a30.194872 30.194872 0 0 1 21.433804 9.136159l230.842072 233.842805a36.142752 36.142752 0 0 1 10.073888 25.265097v593.957509a159.65505 159.65505 0 0 1-157.324123 161.771638zM229.19293 68.936473a93.772894 93.772894 0 0 0-94.308739 92.888749v700.537101a93.772894 93.772894 0 0 0 94.308739 92.88875h565.316588a93.772894 93.772894 0 0 0 94.308739-92.88875V283.435269l-211.658818-214.498796z" p-id="21198"></path><path d="M739.103134 846.635269H658.51203l-147.759289-190.734065-147.759288 190.734065H282.509518l188.05484-241.773312-163.861433-209.542229h80.591104l123.565881 158.502983 123.565882-158.502983h80.591104l-163.861433 209.542229z" p-id="21199"></path><path d="M887.612605 337.716379h-241.853689a42.626478 42.626478 0 0 1-42.680063-42.680063V53.182627a42.680063 42.680063 0 0 1 85.360126 0v199.173626h199.173626a42.680063 42.680063 0 1 1 0 85.360126z" p-id="21200"></path></svg>
