<svg xmlns="http://www.w3.org/2000/svg" xmlns:xlink="http://www.w3.org/1999/xlink" width="108" height="72"><path d="M4.39 59.70L4.39 9.28L10.16 9.28L10.16 30.73L25.84 30.73L25.84 9.28L31.61 9.28L31.61 59.70L25.84 59.70L25.84 36.21L10.16 36.21L10.16 59.70L4.39 59.70ZM62.47 42.89L68.52 42.89Q66.94 61.10 54.28 61.10L54.28 61.10Q46.86 61.10 42.82 53.40L42.82 53.40Q39.30 46.65 39.30 34.56L39.30 34.56Q39.30 22.22 43.21 14.98L43.21 14.98Q47.07 7.84 54.28 7.84L54.28 7.84Q65.85 7.84 68.10 23.70L68.10 23.70L62.19 23.70Q60.68 13.25 54.28 13.25L54.28 13.25Q45.49 13.25 45.49 34.56L45.49 34.56Q45.49 55.69 54.35 55.69L54.35 55.69Q61.84 55.69 62.47 42.89L62.47 42.89ZM75.30 45.21L81.35 45.21Q81.77 55.86 90.56 55.86L90.56 55.86Q93.73 55.86 95.84 54.28L95.84 54.28Q98.79 52.00 98.79 47.88L98.79 47.88Q98.79 43.45 95.10 40.08L95.10 40.08Q92.57 37.83 86.41 34.28L86.41 34.28Q76.68 28.55 76.68 20.60L76.68 20.60Q76.68 15.57 79.84 12.09L79.84 12.09Q83.67 7.84 90.07 7.84L90.07 7.84Q101.99 7.84 103.61 22.18L103.61 22.18L97.70 22.18Q97.45 18.88 96.33 16.91L96.33 16.91Q94.08 12.94 90.07 12.94L90.07 12.94Q85.92 12.94 83.88 15.75L83.88 15.75Q82.44 17.75 82.44 20.14L82.44 20.14Q82.44 25.84 91.72 31.25L91.72 31.25Q97.45 34.59 100.51 37.65L100.51 37.65Q104.63 41.66 104.63 47.81L104.63 47.81Q104.63 53.61 100.93 57.16L100.93 57.16Q97.00 61.14 90.74 61.14L90.74 61.14Q82.90 61.14 78.54 55.37L78.54 55.37Q75.52 51.36 75.30 45.21L75.30 45.21Z"/></svg>
