<?xml version="1.0" standalone="no"?><!DOCTYPE svg PUBLIC "-//W3C//DTD SVG 1.1//EN" "http://www.w3.org/Graphics/SVG/1.1/DTD/svg11.dtd"><svg t="1621837436091" class="icon" viewBox="0 0 1024 1024" version="1.1" xmlns="http://www.w3.org/2000/svg" p-id="1945" width="16" height="16" xmlns:xlink="http://www.w3.org/1999/xlink"><defs><style type="text/css"></style></defs><path d="M900.266667 330.666667c-27.733333-57.6-57.6-115.2-98.133334-166.4 0 0-19.2-29.866667-57.6-21.333334-36.266667 10.666667-32 40.533333-32 49.066667 19.2 138.666667 12.8 245.333333-14.933333 332.8-6.4 19.2-21.333333 46.933333-32 66.133333l-21.333333-14.933333c-40.533333-25.6-78.933333-55.466667-113.066667-89.6l-8.533333-8.533333c-46.933333-40.533333-91.733333-85.333333-136.533334-130.133334l-4.266666-4.266666c-44.8-46.933333-93.866667-89.6-149.333334-123.733334-51.2-27.733333-87.466667-17.066667-108.8-2.133333s-68.266667 72.533333-36.266666 268.8c23.466667 134.4 85.333333 330.666667 93.866666 349.866667 6.4 12.8 23.466667 36.266667 53.333334 34.133333 36.266667-4.266667 42.666667-36.266667 44.8-46.933333 0-10.666667 2.133333-98.133333 25.6-128s29.866667-25.6 123.733333 40.533333c21.333333 14.933333 42.666667 29.866667 66.133333 40.533333 44.8 23.466667 98.133333 23.466667 145.066667 4.266667 25.6-12.8 51.2-29.866667 70.4-51.2 19.2 4.266667 38.4 6.4 57.6 4.266667 38.4-2.133333 74.666667-14.933333 104.533333-38.4 42.666667-32 68.266667-78.933333 74.666667-130.133334 6.4-83.2-8.533333-153.6-46.933333-234.666666zM599.466667 669.866667c-21.333333 8.533333-44.8 8.533333-64-2.133334-17.066667-8.533333-34.133333-19.2-51.2-32-34.133333-25.6-72.533333-46.933333-113.066667-61.866666-51.2-19.2-108.8-2.133333-142.933333 42.666666l-8.533334 12.8c-14.933333-55.466667-25.6-106.666667-34.133333-155.733333-14.933333-91.733333-12.8-140.8-6.4-162.133333 0-2.133333 4.266667-4.266667 6.4-2.133334h2.133333c46.933333 29.866667 91.733333 66.133333 130.133334 106.666667l4.266666 4.266667c44.8 44.8 91.733333 89.6 138.666667 132.266666l8.533333 8.533334c40.533333 36.266667 83.2 70.4 128 100.266666l10.666667 6.4-8.533333 2.133334z m249.6-138.666667c-2.133333 25.6-14.933333 49.066667-36.266667 64-12.8 10.666667-27.733333 17.066667-42.666667 19.2 6.4-14.933333 12.8-29.866667 19.2-46.933333 19.2-57.6 29.866667-115.2 32-174.933334 21.333333 42.666667 29.866667 91.733333 27.733334 138.666667z" fill="#d81e06" p-id="1946"></path></svg>