<svg xmlns="http://www.w3.org/2000/svg" viewBox="0 0 1024 1024" version="1.1"><path d="M620.916512 453.303009c121.789585 41.087185 253.754967-24.319518 294.842152-146.109102s-24.319518-253.754967-146.109102-294.906151c-121.789585-41.087185-253.818966 24.319518-294.842152 146.109102-41.087185 121.789585 24.319518 253.754967 146.109102 294.906151zM723.698473 161.020806c12.543751-37.119264 52.798953-57.150867 89.982215-44.607115 37.119264 12.543751 57.150867 52.798953 44.543117 90.046214-12.543751 37.119264-52.798953 57.150867-89.982215 44.607115-37.055265-12.543751-57.022869-52.862952-44.543117-90.046214zM499.702916 422.647617c-6.783865-7.167858-9.407813-9.535811-18.495633-5.0559l-335.225351 165.308721c-11.391774 5.695887-19.711609 3.327934-22.847547-3.071939-3.199937-6.335874-15.359695-26.815468-4.159917-32.383358l319.481664-160.700813c17.535652-8.639829 19.519613-37.31126 10.815785-54.846912 0 0-2.047959-13.951723-20.927585-27.327458-8.319835-5.951882-57.662856-8.255836-66.430682-4.671907-8.831825 3.583929-43.839131 51.710974-50.494999 51.518978-6.719867-0.255995-65.150708-30.079403-77.886455-11.199778-12.799746 18.943624-43.007147 104.445928-55.550898 110.653805-12.60775 6.207877-108.349851-41.727172-120.637607-41.85517-15.167699-0.127997-54.526919 67.58266-57.342863 85.950295l63.102748 128.893444c8.639829 17.535652 30.079403 24.767509 47.615056 16.12768l386.360337-190.460223c20.479594-10.175798 8.383834-18.751628 2.623948-26.879467zM682.163297 663.602839c-8.959822-4.095919-12.287756-5.247896-19.007623 2.303954l-247.675088 279.866449c-8.383834 9.59981-16.959664 10.559791-22.335557 5.823884-5.375893-4.671907-24.383516-19.007623-16.12768-28.351438l234.875342-269.690651c12.927744-14.591711 3.903923-41.919169-10.815785-54.846912 0 0-7.167858-12.09576-29.695411-17.343656-9.919803-2.431952-56.510879 14.143719-63.230746 20.799587-6.847864 6.655868-20.991584 64.446722-27.199461 66.814675-6.335874 2.303954-71.678578-3.199937-76.350486 19.13562-4.671907 22.399556-0.255995 112.95776-9.471812 123.453551-9.343815 10.495792-116.093697 2.431952-127.485472 6.911863-14.079721 5.631888-34.559315 84.094332-23.67953 93.694142l110.333812 102.973958c14.655709 12.927744 37.247261 11.519772 50.175005-3.071939l285.498338-322.553603c15.039702-17.215659 0.575989-20.607591-7.807845-25.919486zM980.909372 280.186443c-22.719549 137.021282-140.925205 241.851203-284.410359 241.851203-43.967128 0-85.246309-10.559791-122.557569-28.159442 34.623313 94.014135 126.845484 158.780851 231.995399 152.188982 128.253456-8.06384 225.659524-118.589648 217.595684-246.843104-2.815944-44.607115-18.623631-85.054313-42.623155-119.037639z" p-id="2790"></path></svg>