<svg xmlns="http://www.w3.org/2000/svg" viewBox="0 0 1024 1024" version="1.1"><path d="M749.883077 600.142769a261.041231 261.041231 0 0 1-84.007385 14.178462h-571.076923c1.299692 27.372308 7.364923 54.075077 17.723077 77.902769l7.286154 15.202462 12.8 20.795076c46.237538 80.029538 129.851077 124.573538 227.879385 124.573539 173.725538 0 311.926154-90.781538 392.270769-253.636923a217.954462 217.954462 0 0 1-2.835692 0.984615z m-16.265846-53.366154l30.483692-13.587692-10.043077-16.896a123.864615 123.864615 0 0 1-12.209231-45.686154c-3.938462-33.043692 4.371692-66.402462 23.315693-93.144615l10.003692-11.736616 11.815385 9.728a152.024615 152.024615 0 0 1 47.222153 58.210462l12.406154 39.660308 25.796923-4.489846c20.440615-1.220923 44.859077 1.851077 73.255385 9.255384l24.339692 13.272616-6.852923 13.627076c-26.899692 53.484308-83.180308 70.104615-138.161231 67.111385-82.313846 208.738462-247.217231 335.832615-464.502153 335.832615-112.206769 0-217.009231-50.688-275.613539-152.103384l-13.508923-21.976616-8.546461-17.723076a284.947692 284.947692 0 0 1-21.937231-142.336l1.299692-14.651077h623.694769a205.193846 205.193846 0 0 0 45.843693-5.356308c11.145846-2.56 13.272615-3.544615 21.897846-7.010462zM126.030769 464.738462h63.015385v-63.015385H126.030769v63.015385zM100.233846 354.461538h114.609231c11.815385 0 21.464615 9.609846 21.464615 21.464616v114.609231a21.464615 21.464615 0 0 1-21.464615 21.464615h-114.609231A21.464615 21.464615 0 0 1 78.769231 490.535385v-114.609231c0-11.815385 9.609846-21.464615 21.464615-21.464616zM244.184615 464.738462h63.015385v-63.015385H244.184615v63.015385zM218.387692 354.461538h114.609231c11.815385 0 21.464615 9.609846 21.464615 21.464616v114.609231a21.464615 21.464615 0 0 1-21.464615 21.464615h-114.609231A21.464615 21.464615 0 0 1 196.923077 490.535385v-114.609231c0-11.815385 9.609846-21.464615 21.464615-21.464616zM244.184615 346.584615h63.015385V283.569231H244.184615v63.015384zM218.387692 236.307692h114.609231c11.815385 0 21.464615 9.609846 21.464615 21.464616v114.60923a21.464615 21.464615 0 0 1-21.464615 21.464616h-114.609231A21.464615 21.464615 0 0 1 196.923077 372.381538v-114.60923c0-11.815385 9.609846-21.464615 21.464615-21.464616zM362.338462 464.738462h63.015384v-63.015385H362.338462v63.015385zM336.541538 354.461538h114.609231c11.815385 0 21.464615 9.609846 21.464616 21.464616v114.609231a21.464615 21.464615 0 0 1-21.464616 21.464615h-114.609231A21.464615 21.464615 0 0 1 315.076923 490.535385v-114.609231c0-11.815385 9.609846-21.464615 21.464615-21.464616zM362.338462 283.569231v63.015384h63.015384V283.569231H362.338462zM336.541538 236.307692h114.609231c11.815385 0 21.464615 9.609846 21.464616 21.464616v114.60923a21.464615 21.464615 0 0 1-21.464616 21.464616h-114.609231A21.464615 21.464615 0 0 1 315.076923 372.381538v-114.60923c0-11.815385 9.609846-21.464615 21.464615-21.464616zM480.492308 401.723077v63.015385h63.015384v-63.015385h-63.015384zM454.695385 354.461538h114.60923c11.815385 0 21.464615 9.609846 21.464616 21.464616v114.609231a21.464615 21.464615 0 0 1-21.464616 21.464615h-114.60923a21.464615 21.464615 0 0 1-21.464616-21.464615v-114.609231c0-11.815385 9.609846-21.464615 21.464616-21.464616zM480.492308 346.584615h63.015384V283.569231h-63.015384v63.015384zM454.695385 236.307692h114.60923c11.815385 0 21.464615 9.609846 21.464616 21.464616v114.60923a21.464615 21.464615 0 0 1-21.464616 21.464616h-114.60923A21.464615 21.464615 0 0 1 433.230769 372.381538v-114.60923c0-11.815385 9.609846-21.464615 21.464616-21.464616zM480.492308 228.430769h63.015384V165.415385h-63.015384v63.015384zM454.695385 118.153846h114.60923c11.815385 0 21.464615 9.609846 21.464616 21.464616v114.60923a21.464615 21.464615 0 0 1-21.464616 21.464616h-114.60923A21.464615 21.464615 0 0 1 433.230769 254.227692v-114.60923c0-11.815385 9.609846-21.464615 21.464616-21.464616zM598.646154 464.738462h63.015384v-63.015385h-63.015384v63.015385zM572.849231 354.461538h114.609231c11.815385 0 21.464615 9.609846 21.464615 21.464616v114.609231a21.464615 21.464615 0 0 1-21.464615 21.464615h-114.609231a21.464615 21.464615 0 0 1-21.464616-21.464615v-114.609231c0-11.815385 9.609846-21.464615 21.464616-21.464616zM236.307692 687.931077m-39.384615 0a39.384615 39.384615 0 1 0 78.769231 0 39.384615 39.384615 0 1 0-78.769231 0Z" p-id="1920"></path></svg>