<svg xmlns="http://www.w3.org/2000/svg" viewBox="0 0 1024 1024" version="1.1"><path d="M393.846154 645.907692a23.630769 23.630769 0 0 0-23.630769 23.63077v157.538461a23.630769 23.630769 0 0 0 23.630769 23.630769h472.615384a23.630769 23.630769 0 0 0 23.63077-23.630769v-157.538461a23.630769 23.630769 0 0 0-23.63077-23.63077H393.846154z m0-55.138461h472.615384a78.769231 78.769231 0 0 1 78.769231 78.769231v157.538461a78.769231 78.769231 0 0 1-78.769231 78.769231H393.846154a78.769231 78.769231 0 0 1-78.769231-78.769231v-157.538461a78.769231 78.769231 0 0 1 78.769231-78.769231zM748.307692 748.307692h39.384616-39.384616z m0-39.384615h39.384616a39.384615 39.384615 0 0 1 0 78.769231h-39.384616a39.384615 39.384615 0 0 1 0-78.769231zM308.105846 287.822769a27.569231 27.569231 0 1 1-2.835692 55.059693 192.590769 192.590769 0 0 0-17.762462-0.07877 189.046154 189.046154 0 0 0-48.443077 369.427693 27.569231 27.569231 0 1 1-16.384 52.617846A244.184615 244.184615 0 0 1 51.2 531.692308a244.184615 244.184615 0 0 1 256.905846-243.869539zM957.755077 483.643077a27.569231 27.569231 0 0 1-52.972308 15.320615 169.865846 169.865846 0 0 0-123.470769-117.68123 27.569231 27.569231 0 0 1 12.760615-53.641847 225.004308 225.004308 0 0 1 163.682462 155.963077zM839.876923 358.4l-54.744615 6.340923a248.674462 248.674462 0 0 0-144.187077-197.041231 250.210462 250.210462 0 0 0-140.8-18.983384 248.477538 248.477538 0 0 0-198.144 170.456615l-52.617846-16.580923a303.616 303.616 0 0 1 414.286769-185.107692 303.812923 303.812923 0 0 1 176.206769 240.876307z" p-id="2940"></path></svg>