<svg xmlns="http://www.w3.org/2000/svg" viewBox="0 0 1024 1024" version="1.1"><path d="M862.838154 212.046769a27.569231 27.569231 0 1 1-41.117539 36.785231 402.510769 402.510769 0 0 0-54.508307-50.648615 411.293538 411.293538 0 0 0-371.869539-67.032616A411.175385 411.175385 0 0 0 133.513846 370.136615a400.935385 400.935385 0 0 0-11.972923 268.918154 400.147692 400.147692 0 0 0 85.543385 151.394462 407.985231 407.985231 0 0 0 155.411692 106.929231c85.464615 33.201231 179.987692 37.139692 269.981538 9.64923a411.805538 411.805538 0 0 0 230.99077-178.136615 409.993846 409.993846 0 0 0 35.24923-72.270769 403.574154 403.574154 0 0 0 23.63077-175.222154 27.569231 27.569231 0 0 1 54.941538-4.883692 458.712615 458.712615 0 0 1-26.860308 199.246769 465.132308 465.132308 0 0 1-96.728615 156.356923 466.944 466.944 0 0 1-205.075692 127.606154c-101.966769 31.192615-209.132308 26.702769-306.097231-10.948923a463.123692 463.123692 0 0 1-176.403692-121.42277 455.286154 455.286154 0 0 1-97.319385-172.189538 456.073846 456.073846 0 0 1 13.587692-305.703385A466.313846 466.313846 0 0 1 379.195077 78.375385a466.432 466.432 0 0 1 456.231385 105.550769c9.531077 8.940308 18.668308 18.353231 27.411692 28.081231zM512 972.8c-109.646769 0-185.107692-202.830769-185.107692-451.072 0-248.280615 75.460923-451.072 185.107692-451.072 109.646769 0 185.107692 202.830769 185.107692 451.072 0 248.280615-75.460923 451.072-185.107692 451.072z m0-55.138462c64.354462 0 129.969231-176.443077 129.969231-395.933538 0-219.529846-65.614769-395.933538-129.969231-395.933538s-129.969231 176.443077-129.969231 395.933538C382.030769 741.257846 447.645538 917.661538 512 917.661538zM162.028308 265.334154a27.569231 27.569231 0 1 1 27.175384-48.009846c33.595077 19.062154 75.736615 35.131077 123.785846 47.02523 60.849231 15.123692 129.417846 23.158154 200.664616 23.158154 39.817846 0 78.926769-2.520615 116.420923-7.404307 81.92-10.712615 154.033231-32.571077 206.493538-61.912616a27.569231 27.569231 0 1 1 26.939077 48.128c-59.076923 33.004308-137.846154 56.871385-226.304 68.450462-39.857231 5.198769-81.329231 7.876923-123.549538 7.876923-75.657846 0-148.676923-8.585846-213.937231-24.772923-52.696615-13.075692-99.485538-30.916923-137.688615-52.539077zM865.634462 757.129846l-26.19077 48.521846c-28.120615-15.202462-61.833846-28.356923-99.643077-38.951384-65.102769-18.116923-140.327385-27.963077-218.860307-27.963077-111.537231 0-215.827692 19.849846-292.548923 54.153846-12.8 5.710769-24.654769 11.815385-35.564308 18.116923l-27.805539-47.576615c12.642462-7.404308 26.308923-14.375385 40.881231-20.873847 84.243692-37.651692 196.135385-58.919385 315.037539-58.919384 83.416615 0 163.643077 10.436923 233.668923 29.932308 41.629538 11.657846 79.123692 26.308923 111.025231 43.559384zM78.769231 539.569231a27.569231 27.569231 0 0 1 0-55.138462h847.005538a27.569231 27.569231 0 0 1 0 55.138462H78.769231zM539.569231 945.230769a27.569231 27.569231 0 0 1-55.138462 0V98.225231a27.569231 27.569231 0 0 1 55.138462 0V945.230769zM891.273846 418.658462a39.384615 39.384615 0 1 1 0-78.769231 39.384615 39.384615 0 0 1 0 78.769231z" p-id="2400"></path></svg>