<?xml version="1.0" standalone="no"?><!DOCTYPE svg PUBLIC "-//W3C//DTD SVG 1.1//EN" "http://www.w3.org/Graphics/SVG/1.1/DTD/svg11.dtd"><svg t="1597043172663" class="icon" viewBox="0 0 1024 1024" version="1.1" xmlns="http://www.w3.org/2000/svg" p-id="10275" xmlns:xlink="http://www.w3.org/1999/xlink" width="200" height="200"><defs><style type="text/css"></style></defs><path d="M828.049112 711.543102c7.562267-0.20261 15.124535 1.34708 22.369198 6.286374a99.12539 99.12539 0 0 1-43.550117-82.922096v-194.669519c0-142.637176-99.278717-261.705925-231.927787-291.002182v-6.888727c0-36.382118-28.305112-65.68385-63.252534-65.68385-34.876235 0-63.181348 29.416727-63.181348 65.645518v6.965391c-132.681925 29.257925-231.927786 148.211679-231.927786 290.96385v194.669519c0 34.909091-17.397048 65.404578-43.550118 82.922096a35.949519 35.949519 0 0 1 22.374674-6.29185c-23.250824 0.120471-42.038759 19.505283-42.038759 43.791058 0 24.203636 18.787936 43.752727 42.115422 43.752728h632.328214c23.327487 0 42.120898-19.510759 42.120899-43.791059 0.114995-24.006503-18.711273-43.632257-41.918289-43.752727h0.038331z m-316.202438 240.919272c58.236578 0 105.450096-49.042481 105.450096-109.518716H406.391102c0 60.509091 47.13138 109.518717 105.493903 109.518716h-0.038331z" p-id="10276"></path></svg>