<svg fill="#000000" xmlns="http://www.w3.org/2000/svg"  viewBox="0 0 32 32" width="32px" height="32px"><path d="M 3 6 A 1.0001 1.0001 0 0 0 2.3300781 7.7441406 L 11.503906 16 L 2.3300781 24.255859 A 1.0001 1.0001 0 0 0 3 26 L 9 26 A 1.0001 1.0001 0 0 0 9.6699219 25.744141 L 19.669922 16.744141 A 1.0001 1.0001 0 0 0 19.669922 15.255859 L 9.6699219 6.2558594 A 1.0001 1.0001 0 0 0 9 6 L 3 6 z M 23 6 A 1.0001 1.0001 0 0 0 22.330078 6.2558594 L 18.320312 9.8652344 A 1.0001 1.0001 0 0 0 18.320312 11.351562 L 21.320312 14.052734 A 1.0001 1.0001 0 0 0 22.658203 14.052734 L 29.669922 7.7441406 A 1.0001 1.0001 0 0 0 29 6 L 23 6 z M 5.6074219 8 L 8.6171875 8 L 17.503906 16 L 8.6171875 24 L 5.6074219 24 L 13.669922 16.744141 A 1.0001 1.0001 0 0 0 13.669922 15.255859 L 5.6074219 8 z M 23.384766 8 L 26.392578 8 L 21.990234 11.962891 L 20.484375 10.609375 L 23.384766 8 z M 22.023438 17.691406 A 1.0001 1.0001 0 0 0 21.320312 17.947266 L 18.320312 20.648438 A 1.0001 1.0001 0 0 0 18.320312 22.134766 L 22.330078 25.744141 A 1.0001 1.0001 0 0 0 23 26 L 29 26 A 1.0001 1.0001 0 0 0 29.669922 24.255859 L 22.658203 17.947266 A 1.0001 1.0001 0 0 0 22.023438 17.691406 z M 21.990234 20.035156 L 26.392578 24 L 23.382812 24 L 20.484375 21.390625 L 21.990234 20.035156 z"/></svg>
