<svg xmlns="http://www.w3.org/2000/svg" viewBox="0 0 1024 1024" version="1.1"><path d="M498.372923 573.085538c-0.196923 2.363077-0.354462 4.765538-0.472615 7.128616-0.196923 3.032615-0.393846 6.065231-0.669539 9.058461-2.205538 22.409846-15.753846 34.934154-38.203077 35.249231a4428.8 4428.8 0 0 1-97.28 0c-23.394462-0.236308-39.030154-14.926769-38.912-36.470154 0.118154-21.661538 15.281231-35.249231 39.620923-35.406769l18.628923-0.039385 44.11077 0.039385 3.150769-11.579077c28.238769-105.117538 93.144615-167.187692 198.380308-189.794461l20.873846-4.489847-10.555077-18.432c-19.692308-34.500923-74.397538-60.494769-127.212308-60.494769-9.294769 0-18.235077 0.827077-26.663384 2.441846-75.539692 14.336-123.313231 66.284308-138.712616 150.449231l-1.142154 0.196923a282.505846 282.505846 0 0 0-28.356923 5.710769c-82.313846 22.291692-132.647385 98.225231-122.486154 184.635077 9.294769 78.611692 80.541538 141.587692 162.225231 143.36a2571.894154 2571.894154 0 0 0 111.340308 0 167.660308 167.660308 0 0 0 163.209846-161.831384c0.866462-25.166769 14.454154-40.172308 36.352-40.172308h0.748308c10.003692 0.157538 18.510769 3.544615 24.615384 9.846154 7.207385 7.364923 10.870154 18.313846 10.633846 31.625846a232.448 232.448 0 0 1-32.571076 114.372923c-2.599385 4.411077-5.238154 8.743385-8.349539 13.784616l-5.238154 8.546461-14.966154 24.536615 28.829539-0.866461c47.261538-1.457231 86.646154-18.550154 117.051077-50.806154 48.088615-51.121231 60.494769-111.891692 35.761231-175.773538-24.930462-64.512-75.697231-101.612308-146.747077-107.204923a154.387692 154.387692 0 0 0-12.091077-0.472616c-84.125538 0-158.089846 68.568615-164.903385 152.851692m-136.664615 253.873231c-116.696615-0.512-214.567385-77.508923-237.922462-187.273846-24.418462-114.412308 32.137846-224.019692 140.642462-272.738461 12.406154-5.553231 21.858462-17.723077 26.54523-27.293539C337.683692 244.972308 411.963077 196.923077 511.881846 196.923077h1.496616c100.115692 0.472615 174.198154 48.679385 220.16 143.36 5.592615 11.421538 16.147692 21.937231 26.978461 26.820923 96.886154 43.716923 152.300308 135.995077 144.620308 240.797538-8.625231 118.153846-107.52 213.976615-225.083077 218.112-18.589538 0.669538-38.439385 0.984615-62.424616 0.984616-17.408 0-34.816-0.157538-52.263384-0.315077-17.486769-0.157538-35.012923-0.354462-52.499692-0.354462h-15.714462v0.669539L465.526154 827.076923 418.146462 827.076923c-18.825846 0-37.612308 0-56.39877-0.118154" p-id="2460"></path></svg>