<?xml version="1.0" standalone="no"?><!DOCTYPE svg PUBLIC "-//W3C//DTD SVG 1.1//EN" "http://www.w3.org/Graphics/SVG/1.1/DTD/svg11.dtd"><svg t="1600162882169" class="icon" viewBox="0 0 1024 1024" version="1.1" xmlns="http://www.w3.org/2000/svg" p-id="10448" xmlns:xlink="http://www.w3.org/1999/xlink" width="200" height="200"><defs><style type="text/css"></style></defs><path d="M296.96 463.872l-163.84 59.392c2.048 26.624 6.144 52.224 13.312 77.824l156.672-57.344c-6.144-25.6-8.192-53.248-6.144-79.872M1024 281.6c-11.264-23.552-24.576-46.08-39.936-68.608L819.2 273.408c19.456 19.456 34.816 41.984 48.128 65.536l156.672-57.344z" p-id="10449"></path><path d="M662.528 235.52c33.792 16.384 63.488 37.888 89.088 63.488l164.864-59.392c-46.08-64.512-108.544-118.784-184.32-153.6-234.496-109.568-515.072-7.168-624.64 227.328C71.68 389.12 58.368 470.016 64.512 547.84l164.864-59.392c3.072-35.84 11.264-71.68 27.648-105.472C327.68 230.4 509.952 163.84 662.528 235.52M156.672 598.016L0 654.336c14.336 57.344 38.912 110.592 73.728 158.72l163.84-59.392c-41.984-43.008-70.656-97.28-80.896-155.648" p-id="10450"></path><path d="M837.632 535.552c-3.072 35.84-11.264 71.68-27.648 105.472C738.304 793.6 557.056 860.16 404.48 788.48c-33.792-16.384-64.512-37.888-89.088-63.488l-163.84 59.392c45.056 63.488 107.52 117.76 183.296 152.576 234.496 109.568 515.072 7.168 624.64-227.328 35.84-75.776 48.128-156.672 41.984-234.496l-163.84 60.416z" p-id="10451"></path><path d="M877.568 334.848l-156.672 57.344c28.672 52.224 43.008 111.616 37.888 172.032l163.84-59.392c-3.072-59.392-18.432-116.736-45.056-169.984" p-id="10452"></path><path d="M296.96 496.64c0-11.264 0-21.504 1.024-32.768L133.12 523.264c1.024 10.24 2.048 21.504 4.096 31.744L296.96 496.64zM1000.448 238.592c-5.12-8.192-10.24-16.384-16.384-24.576L819.2 273.408c7.168 7.168 14.336 15.36 20.48 23.552l160.768-58.368z" p-id="10453"></path><path d="M150.528 785.408c12.288 17.408 26.624 34.816 41.984 51.2l178.176-65.536c-20.48-13.312-39.936-28.672-56.32-45.056l-163.84 59.392z m850.944-309.248l-163.84 59.392c-2.048 23.552-6.144 47.104-14.336 70.656l178.176-65.536c2.048-21.504 2.048-43.008 0-64.512" p-id="10454"></path></svg>