<svg t="1634545056120" class="icon" viewBox="0 0 1024 1024" version="1.1" xmlns="http://www.w3.org/2000/svg" p-id="6190" width="200" height="200"><path d="M55.808 989.866667c-22.050133 0-37.9904-8.8064-47.5136-26.282667-8.772267-15.906133-10.6496-37.376-5.256533-60.381867 6.109867-26.385067 21.1968-50.3808 47.4112-75.3664 32.768-30.993067 80.827733-62.225067 135.3728-87.927466 27.2384-12.868267 59.733333-26.180267 94.9248-38.912 40.618667-61.44 98.440533-158.0032 140.049066-264.362667 4.7104-12.0832 9.181867-24.234667 13.4144-36.386133a562.312533 562.312533 0 0 1-27.170133-75.298134c-11.264-39.0144-18.466133-73.966933-21.4016-103.901866a366.2848 366.2848 0 0 1 1.604267-86.801067c3.8912-28.023467 10.376533-47.889067 20.411733-62.464 12.8-18.1248 29.7984-26.965333 41.847467-31.300267 9.386667-3.310933 16.247467-4.130133 20.7872-4.676266 8.704-1.467733 19.080533-3.310933 32.768 0.7168 8.328533 2.4576 16.5888 6.826667 25.429333 12.014933l0.238933-0.512c40.618667 18.602667 36.795733 51.4048 31.505067 96.802133l-2.1504 18.944c-5.802667 53.691733-22.7328 141.1072-52.394667 232.3456 2.286933 4.5056 4.676267 9.079467 7.2704 13.789867 22.289067 40.789333 54.545067 87.586133 93.184 135.236267a1507.566933 1507.566933 0 0 0 60.484267 69.768533 741.137067 741.137067 0 0 1 101.9904 0.512c34.850133 2.833067 69.700267 8.328533 101.000533 15.803733 35.7376 8.465067 61.5424 18.261333 83.6608 31.8464 27.921067 16.9984 49.5616 39.901867 60.757334 64.341334 12.834133 27.579733 13.346133 59.016533 1.194666 83.8656-7.338667 15.2576-23.688533 36.0448-59.6992 47.445333-26.282667 8.0896-52.360533 8.123733-79.940266 0.273067-25.4976-7.441067-55.364267-22.903467-88.917334-46.011734-33.348267-22.971733-64.853333-49.288533-102.126933-85.504a1518.728533 1518.728533 0 0 1-44.885333-45.1584c-24.302933 2.6624-51.3024 6.724267-85.435734 12.8a1442.884267 1442.884267 0 0 0-229.819733 59.255467l-9.864533 14.370133c-52.3264 75.332267-103.3216 134.485333-147.524267 171.076267-33.792 27.8528-64.955733 43.758933-95.368533 48.571733-5.597867 1.024-10.888533 1.467733-15.837867 1.467734z m152.4736-188.586667c-61.1328 29.627733-95.8464 58.197333-111.342933 72.874667-21.538133 20.514133-26.794667 33.928533-28.9792 43.349333-0.512 2.184533-0.853333 4.096-1.058134 5.768533 16.5888-4.232533 35.703467-15.223467 56.968534-32.768 19.387733-16.008533 47.8208-43.4176 84.411733-89.224533z m519.850667-122.88l3.3792 3.310933c34.577067 33.5872 63.419733 57.7536 93.627733 78.5408 27.272533 18.7392 51.3024 31.4368 69.393067 36.795734 14.5408 4.096 27.511467 4.164267 40.6528 0.136533 7.0656-2.2528 16.452267-6.4512 19.729066-13.346133 3.072-6.2464 3.754667-18.1248-1.672533-29.764267-5.8368-12.8-18.773333-25.838933-35.498667-36.010667-15.837867-9.762133-35.498667-17.066667-63.965866-23.7568a614.365867 614.365867 0 0 0-90.589867-14.199466c-11.502933-0.9216-23.210667-1.467733-35.054933-1.706667z m-252.245334-200.977067c-29.2864 71.304533-64.8192 137.557333-97.109333 191.6928l7.9872-2.321066a1506.474667 1506.474667 0 0 1 155.511467-35.293867c16.0768-2.833067 30.6176-5.290667 44.168533-7.3728a1478.4512 1478.4512 0 0 1-32.6656-38.843733 1109.128533 1109.128533 0 0 1-77.892267-107.861334z m7.645867-378.88c-0.4096 0.068267-4.778667 1.570133-5.188267 1.6384a20.718933 20.718933 0 0 0-5.973333 1.2288 20.1728 20.1728 0 0 0-9.6256 6.792534c-2.048 2.9696-6.3488 11.946667-9.489067 34.816a305.8688 305.8688 0 0 0-1.297066 71.8848c2.1504 22.050133 7.099733 47.684267 14.711466 76.322133 13.312-53.316267 21.504-100.7616 25.122134-134.2464l2.218666-19.387733c1.399467-12.049067 2.833067-24.439467 3.072-31.675734a101.614933 101.614933 0 0 0-13.550933-7.3728z" p-id="6191"></path></svg>
