<svg viewBox="0 0 1024 1024" version="1.1" xmlns="http://www.w3.org/2000/svg" xmlns:xlink="http://www.w3.org/1999/xlink" width="200" height="200"><path d="M512.352 960.221c-60.476 0-119.155-11.841-174.398-35.208-53.353-22.561-101.262-54.862-142.393-95.998-41.14-41.136-73.437-89.045-95.998-142.393C76.2 631.378 64.355 572.703 64.355 512.223S76.2 393.068 99.563 337.825c22.561-53.348 54.858-101.262 95.998-142.398s89.045-73.432 142.393-95.998c55.239-23.363 113.918-35.204 174.398-35.204 60.48 0 119.16 11.841 174.398 35.204 53.353 22.566 101.262 54.867 142.398 95.998 41.14 41.14 73.437 89.049 95.993 142.398 23.363 55.243 35.213 113.922 35.213 174.398 0 60.48-11.85 119.155-35.213 174.398-22.557 53.348-54.853 101.262-95.993 142.398-41.136 41.136-89.045 73.432-142.398 95.993-55.242 23.368-113.922 35.209-174.398 35.209z m0-806.677c-197.802 0-358.733 160.904-358.733 358.68s160.931 358.68 358.733 358.68c197.806 0 358.733-160.904 358.733-358.68s-160.926-358.68-358.733-358.68z m0 0"></path><path d="M659.571 453.114l-126.713-131.65c-17.495-18.18-17.495-47.65 0-65.825 17.495-18.18 45.862-18.18 63.356 0l126.713 131.65c17.499 18.175 17.499 47.65 0 65.825-17.494 18.175-45.862 18.175-63.356 0z"></path><path d="M332.135 374.346h358.402c24.743 0 44.8 20.057 44.8 44.8v2.8c0 24.743-20.057 44.8-44.8 44.8H332.135c-24.743 0-44.8-20.057-44.8-44.8v-2.8c-0.001-24.743 20.057-44.8 44.8-44.8zM364.261 569.98L490.58 701.63c17.441 18.18 17.441 47.65 0 65.825-17.441 18.18-45.719 18.18-63.159 0l-126.319-131.65c-17.445-18.175-17.445-47.65 0-65.825 17.44-18.176 45.718-18.176 63.159 0z"></path><path d="M333.537 556.347h357c24.743 0 44.8 20.057 44.8 44.8v2.8c0 24.743-20.057 44.8-44.8 44.8h-357c-24.743 0-44.8-20.057-44.8-44.8v-2.8c0-24.743 20.057-44.8 44.8-44.8z"></path></svg>
