<svg viewBox="0 0 1024 1024" version="1.1" xmlns="http://www.w3.org/2000/svg" xmlns:xlink="http://www.w3.org/1999/xlink" width="200" height="200"><path d="M317.201765 380.439223a63.664077 63.664077 0 0 1 0-87.884106 60.896074 60.896074 0 0 1 76.120092-7.612009A1060.83728 1060.83728 0 0 1 484.665967 185.294988a980.565184 980.565184 0 0 1-37.368045-179.920218A511.388617 511.388617 0 0 0 0.265382 512.611383a498.240601 498.240601 0 0 0 5.536007 69.200083 968.801169 968.801169 0 0 0 190.30023 96.880117 977.105179 977.105179 0 0 1 126.636153-294.792356z"></path><path d="M346.2658 395.663242A952.88515 952.88515 0 0 0 223.089651 692.5316a957.729156 957.729156 0 0 0 312.784378 53.284064h16.60802a54.668066 54.668066 0 0 1 15.224018-28.372034 59.512072 59.512072 0 0 1 62.280075-14.532018 940.429135 940.429135 0 0 0 83.732101-138.400167 1005.477214 1005.477214 0 0 1-216.596261-350.844423A1047.689265 1047.689265 0 0 0 415.465883 305.011132a60.204073 60.204073 0 0 1-69.200083 90.65211z"></path><path d="M727.55826 537.523413a968.801169 968.801169 0 0 0 62.972076-183.380222 56.744068 56.744068 0 0 1-17.300021-7.612009 61.588074 61.588074 0 0 1 37.368045-105.184127 850.469027 850.469027 0 0 0 6.228008-103.108124V104.33089a449.108542 449.108542 0 0 0-85.808104-53.976065 975.029177 975.029177 0 0 0-211.060254 142.552172 961.881161 961.881161 0 0 0 207.60025 344.616416zM696.418223 35.130806A508.620614 508.620614 0 0 0 512.346 0.530765a316.936383 316.936383 0 0 0-36.676044 0 975.029177 975.029177 0 0 0 33.908041 161.928195A1022.085234 1022.085234 0 0 1 696.418223 35.130806zM668.046188 735.435652a1004.785213 1004.785213 0 0 0 188.916228-42.904052 1020.009231 1020.009231 0 0 1-121.792147-101.724123 1018.62523 1018.62523 0 0 1-80.272097 128.020155 48.440058 48.440058 0 0 1 13.148016 16.60802zM558.018056 788.719716a75.428091 75.428091 0 0 1-4.152005-15.916019h-17.992022a977.79718 977.79718 0 0 1-319.704386-53.976065 980.565184 980.565184 0 0 0-19.376023 192.376232 484.400585 484.400585 0 0 0 113.488137 69.200083 968.801169 968.801169 0 0 0 247.736299-191.684231zM672.198193 761.731683a63.664077 63.664077 0 0 1-17.300021 40.82805 60.896074 60.896074 0 0 1-76.812092 6.228007A997.173204 997.173204 0 0 1 346.2658 995.627966a519.692627 519.692627 0 0 0 168.156203 28.372034 512.080618 512.080618 0 0 0 450.492544-268.496324c-26.988033-14.532018-52.592063-30.448037-77.504094-47.056057a992.329198 992.329198 0 0 1-215.21226 53.284064zM169.113586 891.82784a983.333187 983.333187 0 0 1 20.068024-181.996219A996.481203 996.481203 0 0 1 12.721397 623.331516a509.312615 509.312615 0 0 0 156.392189 268.496324zM974.602558 729.899645a527.996637 527.996637 0 0 0 28.372035-74.044089c-26.988033 14.532018-55.360067 28.372034-83.732101 40.136048 17.992022 11.764014 36.676044 23.528028 55.360066 33.908041zM844.506401 123.706913v11.072014a908.597097 908.597097 0 0 1-6.228007 106.568128 54.668066 54.668066 0 0 1 21.452026 13.840017 62.280075 62.280075 0 0 1 0 87.884106 58.820071 58.820071 0 0 1-42.212051 17.300021 994.4052 994.4052 0 0 1-69.200084 199.988241 1038.001253 1038.001253 0 0 0 138.400167 116.948142 975.029177 975.029177 0 0 0 123.86815-60.204073 474.020572 474.020572 0 0 0 11.072013-104.492126 510.004616 510.004616 0 0 0-177.152214-388.90447z"></path></svg>