<svg t="1581415418670" class="icon" viewBox="0 0 1134 1024" version="1.1" xmlns="http://www.w3.org/2000/svg" p-id="3762" width="200" height="200"><path d="M847.47024 897.723431l0.02654 1.048324c0.398098 13.681289 10.469968 24.416655 22.943693 24.416655s22.572136-10.735366 22.956964-24.403385l0.252128-8.51929h0.358288c0.318478-6.197053 0.477717-11.6908 0.477717-16.919149 0.02654-146.911296-82.897197-276.996333-211.230603-331.403009l-14.397865-6.104164 12.699315-9.036816c61.466274-43.75093 98.144336-116.748766 98.144336-195.293429 0-129.43481-98.847642-234.731634-220.34704-234.731634s-220.33377 105.296824-220.333769 234.731634c0 78.544663 36.691332 151.542499 98.144336 195.293429l12.686045 9.036816-14.384595 6.104164c-128.320137 54.406676-211.257144 184.478443-211.257143 331.389739 0 5.215079 0.172509 10.642477 0.530796 16.945689h0.557337l0.05308 8.744878c0 13.880337 10.350538 25.15977 23.063123 25.159771s23.049853-11.292703 23.049853-25.159771a8.280431 8.280431 0 0 0-0.10616-0.902354c-0.05308-0.464447-0.119429-0.915625-0.159239-1.393342a280.8048 280.8048 0 0 1-1.167753-23.394871c0-81.782524 30.003292-158.694986 84.502858-216.578382 54.672075-58.069175 127.404512-90.036415 204.807961-90.036414 77.41672 0 150.149157 31.96724 204.834502 90.036414 54.486296 57.883396 84.502857 134.795858 84.502858 216.578382 0 8.612179-0.597146 16.958959-1.194293 24.018557l-0.01327 0.371558m-461.660555-566.200993c0-101.262768 77.854627-183.655708 173.557298-183.655707 95.689401 0 173.544028 82.39294 173.544028 183.655707 0 101.276038-77.854627 183.668978-173.544028 183.668978-95.702671 0-173.557298-82.39294-173.557298-183.668978m428.047845 225.509039z" p-id="3763"></path></svg>
