<svg xmlns="http://www.w3.org/2000/svg" viewBox="0 0 1024 1024" version="1.1"><path d="M672.256 298.496H351.744c-29.184 0-52.224 23.552-52.224 52.224v320c0 29.184 23.552 52.224 52.224 52.224h320c29.184 0 52.224-23.552 52.224-52.224V351.232c0.512-29.184-23.04-52.736-51.712-52.736z m-11.776 360.96H363.52v-296.96h296.96v296.96zM1008.64 357.376v-64h-82.432V189.44c0-50.688-40.96-91.648-91.648-91.648H733.184v-81.92h-64v81.92H547.328v-81.92h-64v81.92H361.472v-81.92h-64v81.92H185.856c-50.688 0-91.648 40.96-91.648 91.648v103.936h-81.92v64h81.92v121.856h-81.92v64h81.92V665.6h-81.92v64h81.92v109.056c0 50.688 40.96 91.648 91.648 91.648h111.616v81.92h64v-81.92h121.856v81.92h64v-81.92h121.856v81.92h64v-81.92H834.56c50.688 0 91.648-40.96 91.648-91.648V729.6h82.432v-64h-82.432V543.744h82.432v-64.512h-82.432V357.376h82.432zM862.208 838.144a27.533 27.533 0 0 1-27.648 27.648H185.856a27.533 27.533 0 0 1-27.648-27.648V189.44a27.533 27.533 0 0 1 27.648-27.648H834.56a27.533 27.533 0 0 1 27.648 27.648v648.704zM413.184 411.136h65.024v65.024h-65.024z" p-id="1260"></path></svg>