<svg xmlns="http://www.w3.org/2000/svg" viewBox="0 0 1024 1024" version="1.1"><path d="M386.504483 1024c-29.457635 0-56.883708-11.681476-77.707209-32.504976L41.139111 724.34475c-54.344257-54.344257-54.852147-142.717161-1.523671-197.569308l497.732448-510.937595c11.681476-12.189366 28.949744-17.776159 45.710123-15.236708l338.762799 55.360038c21.839281 3.555232 39.10755 20.8235 42.662782 43.170671l50.789025 311.844616c2.539451 16.252488-2.539451 33.520757-14.728817 45.202232L464.719582 992.002914c-20.8235 20.8235-48.757464 31.997086-78.215099 31.997086z m187.919394-999.020129c-7.110464 0-14.220927 3.047342-19.29983 8.126244l-497.732448 510.937595c-43.678562 45.202233-43.170672 117.830539 1.01578 162.016991L326.573433 974.226755c16.252488 16.252488 37.583879 24.886622 59.93105 24.886623 22.855061 0 44.186452-8.634134 59.93105-24.886623L982.767641 437.894647c6.094683-6.094683 8.634134-14.728817 7.618354-23.362951l-50.789026-311.844616c-2.031561-11.173586-10.665695-20.31561-21.839281-21.839281L578.994889 25.487761c-1.523671 0-3.047342-0.50789-4.571012-0.50789zM722.219941 370.345244c-56.883708 0-103.101721-46.218013-103.101722-103.101722 0-7.110464 5.586793-12.697256 12.697257-12.697256s12.697256 5.586793 12.697256 12.697256c0 42.662781 35.044428 77.707209 77.707209 77.707209s77.707209-35.044428 77.707208-77.707209-35.044428-77.707209-77.707208-77.707209c-7.110464 0-12.697256-5.586793-12.697257-12.697256s5.586793-12.697256 12.697257-12.697256c56.883708 0 103.101721 46.218013 103.101721 103.101721s-46.218013 103.101721-103.101721 103.101722z" p-id="2160"></path></svg>