<svg viewBox="0 0 1024 1024" version="1.1" xmlns="http://www.w3.org/2000/svg" xmlns:xlink="http://www.w3.org/1999/xlink" width="200" height="200"><path d="M751.420194 666.550189c-55.572349 0-100.786819 45.22947-100.786819 100.801819 0 55.582349 45.21347 100.812819 100.786819 100.812818 55.589349 0 100.802819-45.22947 100.802819-100.812818 0-55.571349-45.21447-100.801819-100.802819-100.801819z m0 149.672246c-26.942684 0-48.858427-21.925743-48.858427-48.869427 0-26.932684 21.913743-48.856427 48.859427-48.856428 26.948684 0 48.872427 21.922743 48.872428 48.857428 0 26.942684-21.923743 48.868427-48.873428 48.868427z m266.513877-101.53481c-3.782956-19.960766-16.591806-32.863615-33.039613-32.863615h-2.279973c-31.462631 0-57.073331-25.5967-57.073331-57.054332 0-8.261903 3.612958-18.409784 4.983941-21.589747 7.789909-17.546794 1.793979-39.076542-15.516818-51.065401l-66.731218-36.949567c-5.228939-2.256974-10.879873-3.40996-16.799803-3.40996-12.087858 0-24.031718 4.923942-31.944626 13.126846-8.314903 8.5669-30.392644 26.249692-45.603465 26.249692-15.34782 0-37.56356-18.026789-45.893462-26.721686-7.953907-8.404902-20.007766-13.426843-32.228623-13.426843-5.853931 0-11.421866 1.119987-16.421807 3.279961l-1.246986 0.512994-67.909204 37.295563-1.614981 1.045988c-15.784815 10.983871-21.815744 32.505619-14.076835 49.897415 0.517994 1.239985 5.054941 12.284856 5.054941 21.752746 0 31.458631-25.6077 57.054331-57.084331 57.054331h-2.657969c-16.044812 0-28.865662 12.903849-32.644617 32.884615-0.575993 3.070964-5.630934 30.669641-5.630934 52.983379 0 22.321738 5.054941 49.916415 5.630934 53.019378 3.779956 19.954766 16.587806 32.857615 33.042612 32.857615h2.255974c31.477631 0 57.089331 25.6017 57.089331 57.054332 0 8.259903-3.611958 18.409784-4.985942 21.593747-7.776909 17.521795-1.804979 39.032543 15.448819 51.061401l65.472233 36.482573c5.218939 2.264973 10.869873 3.43796 16.804803 3.437959 12.307856 0 24.379714-5.14894 32.269622-13.752838 8.059906-8.751897 30.958637-27.922673 46.599454-27.922673 15.806815 0 38.447549 19.209775 46.91045 28.494666 7.942907 8.751897 20.095765 13.969836 32.501619 13.969836 5.835932 0 11.390867-1.115987 18.145788-4.108952l66.199224-36.575571 1.584981-1.047988c15.766815-10.959872 21.779745-32.46162 14.051836-49.872415-0.515994-1.245985-5.052941-12.286856-5.052941-21.757745 0-31.453631 25.6117-57.054331 57.073331-57.054332h2.629969c16.079812 0 28.903661-12.903849 32.670617-32.809615 0.047999-0.277997 5.644934-29.594653 5.644934-53.067378-0.004-22.313739-5.052941-49.912415-5.627934-53.004379z m-49.609419 87.86997c-53.75337 7.032918-94.70889 52.93538-94.70889 108.065734 0 12.726851 3.070964 24.815709 5.774933 32.996613l-47.768441 26.40769c-4.29395-4.209951-11.147869-10.518877-19.643769-16.814802-21.113753-15.666816-41.565513-23.639723-60.771288-23.639723-19.045777 0-39.335539 7.819908-60.319293 23.195728a192.095749 192.095749 0 0 0-19.519772 16.488807l-45.662464-25.547701c2.708968-8.196904 5.806932-20.359761 5.806931-33.086612 0-55.131354-40.94652-101.033816-94.70589-108.065734-1.376984-8.896896-3.304961-23.399726-3.304961-34.865591 0-11.514865 1.917978-25.982696 3.304961-34.851592 53.74937-7.039918 94.70589-52.949379 94.70589-108.069734 0-12.693851-3.072964-24.77771-5.772932-32.961613l49.306422-27.059683c4.27895 4.026953 11.142869 10.084882 19.577771 16.089811 20.701757 14.758827 40.662523 22.246739 59.305305 22.24674 18.459784 0 38.251552-7.345914 58.813311-21.829745 8.364902-5.873931 15.139823-11.750862 19.453772-15.754815l47.213446 26.231693c-2.703968 8.191904-5.789932 20.309762-5.789932 33.039612 0 55.129354 40.93952 101.029816 94.692891 108.068734 1.406984 9.056894 3.319961 23.488725 3.319961 34.861591 0 11.444866-1.906978 25.832697-3.308962 34.854592zM67.819205 950.150865v-57.083331c0-194.089726 149.676246-354.049851 340.368012-372.076639l-0.081999-0.04s0.190998 0 0.496994 0.01c11.689863-1.097987 23.516724-1.71398 35.489584-1.71398 1.801979 0 3.577958 0.099999 5.373937 0.119999 42.172506-3.269962 105.985758-13.178846 139.336367-42.948497l16.321809-12.719851c63.760253-49.790417 100.329824-124.176545 100.329824-204.070609C705.454733 116.464635 588.190107 0 444.040796 0 299.889486 0 182.62586 116.464635 182.62586 259.626957c0 79.894064 36.573571 154.278192 100.332824 204.067609l16.317809 12.722851-19.226775 7.633911C110.193709 551.488537 0.440995 712.032656 0.440995 893.067534v90.47794c0 18.421784 15.100823 33.406609 33.683605 33.406609h492.217232c-16.021812-20.522759-29.679652-42.909497-40.722523-66.801218H67.820205zM250.00607 259.626957c0-106.330754 87.03998-192.83074 194.034726-192.83074 106.991746 0 194.047726 86.499986 194.047726 192.83074s-87.05598 192.82774-194.047726 192.827741c-106.994746-0.002-194.034726-86.496986-194.034726-192.827741z"></path></svg>
