<?xml version="1.0" standalone="no"?><!DOCTYPE svg PUBLIC "-//W3C//DTD SVG 1.1//EN" "http://www.w3.org/Graphics/SVG/1.1/DTD/svg11.dtd"><svg t="1622446490260" class="icon" viewBox="0 0 1024 1024" version="1.1" xmlns="http://www.w3.org/2000/svg" p-id="11338" xmlns:xlink="http://www.w3.org/1999/xlink" width="32" height="32"><defs><style type="text/css"></style></defs><path d="M650.43 488.11h-9.36c28-45.4 45-98.32 45-155.47 0-164.18-133.57-297.75-297.75-297.75S90.57 168.46 90.57 332.64c0 57.15 17 110.07 45 155.47h-9.36C56.64 488.11 0 544.75 0 614.36v248.53a126.36 126.36 0 0 0 126.21 126.22h524.22a126.34 126.34 0 0 0 126.21-126.22V614.36c0-69.61-56.64-126.25-126.21-126.25zM388.32 108c123.86 0 224.61 100.75 224.61 224.6S512.18 557.25 388.32 557.25 163.71 456.5 163.71 332.64 264.46 108 388.32 108zM703.5 862.89A53.15 53.15 0 0 1 650.43 916H126.21a53.15 53.15 0 0 1-53.07-53.07V614.36a53.16 53.16 0 0 1 53.07-53.11h73.68c51.5 42.54 116.57 69.14 188.43 69.14s136.93-26.6 188.43-69.14h73.68a53.16 53.16 0 0 1 53.07 53.11zM764.29 163.61h223.14a36.58 36.58 0 0 0 0-73.15H764.29a36.58 36.58 0 1 0 0 73.15zM987.43 347.43H802a36.57 36.57 0 0 0 0 73.14h185.43a36.57 36.57 0 1 0 0-73.14zM987.43 603.39H869.21a36.58 36.58 0 0 0 0 73.15h118.22a36.58 36.58 0 0 0 0-73.15zM987.43 846H869.21a36.57 36.57 0 0 0 0 73.14h118.22a36.57 36.57 0 1 0 0-73.14z" p-id="11339"></path></svg>
