<svg xmlns="http://www.w3.org/2000/svg" viewBox="0 0 1024 1024" version="1.1"><path d="M566.016 273.28a126.08 126.08 0 0 0 0 178.048 125.312 125.312 0 0 0 117.44 33.6 125.504 125.504 0 0 0 94.528-95.68 125.312 125.312 0 0 0-33.92-115.904 125.952 125.952 0 0 0-178.048 0z m144.512 101.184a57.088 57.088 0 0 1-42.624 43.136 56.832 56.832 0 1 1-12.864-112 56.576 56.576 0 0 1 55.488 68.864z m242.304 47.232l-17.472-234.688a115.2 115.2 0 0 0-106.048-105.792l-233.92-16.832a147.648 147.648 0 0 0-114.688 42.752L107.072 480.768a147.456 147.456 0 0 0 0 208.32l221.184 221.184a146.24 146.24 0 0 0 104.192 43.136c39.296 0 76.288-15.296 104.128-43.136l373.504-373.504a147.2 147.2 0 0 0 42.752-115.072z m-91.584 66.24L487.68 861.44a78.272 78.272 0 0 1-110.528 0l-221.248-221.184a78.272 78.272 0 0 1 0-110.592l373.76-373.696a77.952 77.952 0 0 1 60.8-22.656l233.856 16.832c22.4 1.6 40.512 19.648 42.176 41.984l17.472 234.688a78.08 78.08 0 0 1-22.72 61.12z" p-id="2220"></path></svg>