<svg xmlns="http://www.w3.org/2000/svg" viewBox="0 0 1024 1024" version="1.1"><path d="M512 0C262.4 0 64 57.6 64 128v768c0 70.4 198.4 128 448 128s448-57.6 448-128V128c0-70.4-198.4-128-448-128z m0 64c198.4 0 332.8 38.4 371.2 64-38.4 25.6-172.8 64-371.2 64s-332.8-38.4-371.2-64c38.4-25.6 172.8-64 371.2-64z m384 128v640c-76.8-38.4-217.6-64-384-64s-307.2 25.6-384 64V192c76.8 38.4 217.6 64 384 64s307.2-25.6 384-64zM512 960c-198.4 0-332.8-38.4-371.2-64 44.8-25.6 172.8-64 371.2-64s332.8 38.4 371.2 64c-38.4 25.6-172.8 64-371.2 64zM320 512h384V448L576 320v128H320zM320 640l128 128v-128h256V576H320z" p-id="1230"></path></svg>