<svg viewBox="0 0 1024 1024" version="1.1" xmlns="http://www.w3.org/2000/svg" xmlns:xlink="http://www.w3.org/1999/xlink" width="200" height="200"><path d="M857.0112 552.704H167.90528c-33.09568 0-59.92448 27.1104-59.92448 60.55424v227.05664c0 33.44384 26.8288 60.55424 59.92448 60.55424h689.10592c33.09568 0 59.92448-27.1104 59.92448-60.55424v-227.05664c0.00512-33.44384-26.8288-60.55424-59.92448-60.55424zM339.36896 825.97888c-54.784 0-99.2-44.416-99.2-99.2s44.41088-99.19488 99.2-99.19488c54.784 0 99.2 44.416 99.2 99.19488 0 54.78912-44.41088 99.2-99.2 99.2zM857.0112 127.77984H167.90528c-33.09568 0-59.92448 27.1104-59.92448 60.55424V415.3856c0 33.44384 26.8288 60.55424 59.92448 60.55424h689.10592c33.09568 0 59.92448-27.1104 59.92448-60.55424V188.32896c0.00512-33.44384-26.8288-60.54912-59.92448-60.54912zM339.36896 401.05472c-54.784 0-99.2-44.416-99.2-99.2s44.41088-99.19488 99.2-99.19488c54.784 0 99.2 44.416 99.2 99.19488 0 54.784-44.41088 99.2-99.2 99.2z"></path></svg>