<svg xmlns="http://www.w3.org/2000/svg" viewBox="0 0 1024 1024" version="1.1"><path d="M860.8 152.32c-3.84-28.8-28.16-49.92-56.96-49.92H220.16c-28.8 0-53.12 21.76-56.96 49.92l-60.8 453.76V832c0 49.28 40.32 89.6 89.6 89.6h640c49.28 0 89.6-40.32 89.6-89.6V606.08l-60.8-453.76z m-647.04 7.04c0.64-3.2 3.2-5.76 6.4-5.76h583.68c3.2 0 5.76 2.56 6.4 5.76l56.32 423.04H157.44l56.32-423.04zM832 870.4H192c-21.12 0-38.4-17.28-38.4-38.4V633.6h716.8V832c0 21.12-17.28 38.4-38.4 38.4zM257.28 726.4h352v51.2h-352z m414.72 0h96v51.2h-96z" p-id="1410"></path></svg>