<?xml version="1.0" standalone="no"?><!DOCTYPE svg PUBLIC "-//W3C//DTD SVG 1.1//EN" "http://www.w3.org/Graphics/SVG/1.1/DTD/svg11.dtd"><svg t="1576489919556" class="icon" viewBox="0 0 1024 1024" version="1.1" xmlns="http://www.w3.org/2000/svg" p-id="11150" xmlns:xlink="http://www.w3.org/1999/xlink" width="200" height="200"><defs><style type="text/css"></style></defs><path d="M15.515152 15.515152h992.969696v992.969696H15.515152z" fill="#F0F6FF" p-id="11151"></path><path d="M512 822.30303c-171.380364 0-310.30303-138.922667-310.30303-310.30303s138.922667-310.30303 310.30303-310.30303 310.30303 138.922667 310.30303 310.30303-138.922667 310.30303-310.30303 310.30303z m0-496.484848a186.181818 186.181818 0 1 0 0 372.363636 186.181818 186.181818 0 0 0 0-372.363636z" fill="#E0EDFF" p-id="11152"></path><path d="M822.30303 512c0 171.380364-138.922667 310.30303-310.30303 310.30303a308.751515 308.751515 0 0 1-208.492606-80.95806l0.899879-0.96194a61.657212 61.657212 0 0 1-23.210667-48.034909 62.060606 62.060606 0 0 1 62.060606-62.060606c18.152727 0 34.319515 7.912727 45.645576 20.324849 32.861091 29.230545 75.651879 47.569455 123.097212 47.569454a186.181818 186.181818 0 1 0 0-372.363636v-8.595394c-18.46303-10.767515-31.030303-30.564848-31.030303-53.465212 0-22.900364 12.567273-42.697697 31.030303-53.465212V201.69697c6.981818 0 13.808485 0.589576 20.666182 1.05503A60.198788 60.198788 0 0 1 543.030303 201.69697c8.874667 0 17.283879 1.923879 24.948364 5.306182 144.601212 26.375758 254.324364 152.762182 254.324363 304.996848z" fill="#92B2DF" p-id="11153"></path></svg>