<?xml version="1.0" standalone="no"?><!DOCTYPE svg PUBLIC "-//W3C//DTD SVG 1.1//EN" "http://www.w3.org/Graphics/SVG/1.1/DTD/svg11.dtd"><svg t="1548765375989" class="icon" style="" viewBox="0 0 1024 1024" version="1.1" xmlns="http://www.w3.org/2000/svg" p-id="7216" xmlns:xlink="http://www.w3.org/1999/xlink" width="200" height="200"><defs><style type="text/css"></style></defs><path d="M812.465231 157.538462H409.442462c-51.121231 0-92.553846 40.566154-92.553847 90.663384v398.848c0 50.097231 41.432615 90.663385 92.553847 90.663385h403.022769c24.536615 0 48.049231-9.531077 65.417846-26.545231 17.368615-17.014154 27.136-40.054154 27.136-64.118154V248.201846c0-24.024615-9.767385-47.104-27.096615-64.118154A93.538462 93.538462 0 0 0 812.465231 157.538462z m-10.200616 423.975384c0 13.902769-5.592615 27.214769-15.635692 37.021539-10.043077 9.846154-23.630769 15.36-37.809231 15.36h-275.692307c-29.538462 0-53.484308-23.433846-53.484308-52.381539V313.737846c0-13.902769 5.632-27.214769 15.635692-37.021538 10.043077-9.846154 23.630769-15.36 37.809231-15.36h275.692308c29.538462 0 53.484308 23.473231 53.484307 52.381538v267.776z" fill="#56606F" p-id="7217"></path><path d="M616.605538 326.774154H211.495385c-24.536615 0-48.049231 9.531077-65.417847 26.545231a89.718154 89.718154 0 0 0-27.096615 64.078769v396.878769c0 50.057846 41.432615 90.663385 92.553846 90.663385h405.070769c24.536615 0 48.088615-9.570462 65.457231-26.545231 17.329231-17.014154 27.096615-40.093538 27.096616-64.118154V417.398154c0-24.024615-9.767385-47.104-27.096616-64.078769a93.499077 93.499077 0 0 0-65.457231-26.545231z m-11.18523 422.951384c0 13.863385-5.632 27.175385-15.675077 37.021539s-23.630769 15.36-37.809231 15.36h-275.692308c-14.178462 0-27.805538-5.513846-37.80923-15.36a51.830154 51.830154 0 0 1-15.675077-37.021539v-267.815384c0-28.908308 23.945846-52.342154 53.444923-52.342154h275.692307c14.178462 0 27.805538 5.513846 37.848616 15.36 10.043077 9.806769 15.675077 23.118769 15.675077 37.021538v267.776z" fill="#56606F" p-id="7218"></path></svg>