<?xml version="1.0" standalone="no"?><!DOCTYPE svg PUBLIC "-//W3C//DTD SVG 1.1//EN" "http://www.w3.org/Graphics/SVG/1.1/DTD/svg11.dtd"><svg t="1548921019895" class="icon" style="" viewBox="0 0 1024 1024" version="1.1" xmlns="http://www.w3.org/2000/svg" p-id="7767" xmlns:xlink="http://www.w3.org/1999/xlink" width="200" height="200"><defs><style type="text/css"></style></defs><path d="M491.992615 120.123077c-33.28 81.604923-53.366154 135.049846-90.427077 214.212923a584.625231 584.625231 0 0 0 95.940924 83.810462c-48.718769-20.007385-81.92-40.172308-106.771693-61.046154C343.315692 456.073846 268.957538 597.070769 118.153846 868.076308c118.547692-68.450462 210.432-110.592 296.054154-126.739693a216.930462 216.930462 0 0 1-5.592615-50.806153l0.078769-3.780924c1.929846-75.933538 41.393231-134.380308 88.221538-130.363076 46.749538 3.938462 83.140923 68.765538 81.329231 144.699076a213.976615 213.976615 0 0 1-4.804923 40.802462c84.676923 16.541538 175.655385 58.683077 292.548923 126.148923-23.04-42.417231-43.638154-80.699077-63.291077-117.169231-30.956308-23.945846-63.251692-55.177846-129.102769-89.00923 45.292308 11.776 77.705846 25.324308 102.951385 40.487384-199.876923-371.987692-215.985231-421.415385-284.553847-582.222769z m377.698462 681.156923v-20.440615h-7.68v-2.756923h18.432v2.756923h-7.719385v20.48h-3.032615z m13.942154 0v-23.197538h4.647384l5.513847 16.423384 1.102769 3.544616c0.236308-0.905846 0.630154-2.126769 1.220923-3.780924l5.553231-16.147692H905.846154v23.158154h-2.993231v-19.456l-6.774154 19.456h-2.756923l-6.695384-19.731692v19.731692h-2.993231z" fill="#56606F" p-id="7768"></path></svg>