<?xml version="1.0" standalone="no"?><!DOCTYPE svg PUBLIC "-//W3C//DTD SVG 1.1//EN" "http://www.w3.org/Graphics/SVG/1.1/DTD/svg11.dtd"><svg t="1548765306348" class="icon" style="" viewBox="0 0 1024 1024" version="1.1" xmlns="http://www.w3.org/2000/svg" p-id="7107" xmlns:xlink="http://www.w3.org/1999/xlink" width="200" height="200"><defs><style type="text/css"></style></defs><path d="M182.153846 408.969846v69.828923c2.363077 0.039385 4.332308 0.157538 6.301539 0.157539 78.690462 0 157.380923 0 236.032-0.118154 4.804923 0 8.192 1.378462 11.500307 4.844308 7.758769 8.152615 15.872 15.990154 23.867077 23.945846 1.220923 1.181538 2.796308 2.008615 4.608 3.268923-1.851077 2.048-2.796308 3.190154-3.859692 4.253538-7.640615 7.68-15.36 15.241846-22.882462 22.961231a8.743385 8.743385 0 0 1-6.971077 2.914462c-26.781538-0.118154-53.563077-0.078769-80.384-0.07877H182.232615v72.940308c-2.441846 0.078769-3.308308-1.654154-4.411077-2.756923l-55.532307-55.414154-40.251077-40.172308-2.323692-2.363077c-1.181538-1.181538-1.299692-2.363077-0.07877-3.662769l2.323693-2.323692 95.428923-95.310769 3.584-3.505231 1.181538 0.590769zM511.803077 945.230769a210116.529231 210116.529231 0 0 1-102.912-102.990769c-0.393846-0.393846-0.315077-1.142154-0.590769-2.323692 6.380308-0.315077 12.406154-0.118154 18.471384-0.157539H481.358769v-6.380307c0-78.926769 0.039385-157.853538-0.118154-236.780308 0-4.647385 1.339077-7.876923 4.68677-11.027692 7.483077-7.049846 14.690462-14.532923 22.016-21.819077 1.063385-1.063385 2.244923-2.048 3.544615-3.268923 1.417846 1.260308 2.56 2.244923 3.662769 3.347692 8.428308 8.388923 16.777846 16.896 25.324308 25.206154 2.205538 2.126769 3.032615 4.332308 3.032615 7.364923-0.078769 64.512-0.078769 129.024-0.078769 193.536V839.758769h70.734769l0.472616 0.984616c-0.984615 1.260308-1.929846 2.599385-3.072 3.741538l-23.591385 23.630769-72.467692 72.388923c-1.181538 1.220923-2.126769 2.756923-3.662769 4.726154z m331.027692-331.382154V541.144615c-2.284308-0.078769-4.096-0.157538-5.907692-0.157538H669.538462c-25.245538 0-50.491077-0.078769-75.736616 0.039385a9.728 9.728 0 0 1-7.798154-3.15077c-7.483077-7.758769-15.241846-15.281231-22.882461-22.921846-3.623385-3.623385-3.584-3.662769 0.118154-7.364923 8.270769-8.310154 16.699077-16.541538 24.851692-24.969846a11.579077 11.579077 0 0 1 9.137231-3.741539c79.596308 0.118154 159.232 0.078769 238.828307 0.07877h6.616616v-70.301539c1.969231 1.654154 3.072 2.402462 3.977846 3.347693l96.098461 95.980307c3.308308 3.268923 3.308308 3.426462 0 6.695385l-96.098461 95.980308c-0.905846 0.905846-1.969231 1.654154-3.820308 3.190153zM612.430769 180.145231h-69.041231v6.380307c0 79.990154 0 159.980308 0.118154 240.009847 0 4.253538-1.181538 7.246769-4.253538 10.200615-8.192 7.758769-16.029538 15.872-24.024616 23.827692-3.268923 3.268923-3.308308 3.268923-6.695384-0.118154-7.758769-7.719385-15.399385-15.556923-23.315692-23.158153a11.815385 11.815385 0 0 1-3.977847-9.412923c0.118154-79.990154 0.078769-159.980308 0.07877-239.970462V181.169231c-6.104615-0.196923-12.012308-0.078769-17.880616-0.118154h-53.287384c0.157538-2.520615 1.772308-3.426462 2.914461-4.568615 8.349538-8.467692 16.817231-16.856615 25.206154-25.284924l68.844308-68.726153 2.678154-2.63877c1.575385-1.575385 2.993231-1.417846 4.411076 0.157539 0.630154 0.708923 1.299692 1.339077 1.969231 1.969231l93.459693 93.341538c1.181538 1.181538 2.284308 2.441846 3.426461 3.662769l-0.630154 1.181539z m35.564308 13.390769h181.051077v182.862769c-5.041231-4.726154-9.097846-8.979692-13.272616-13.115077l-12.603076-12.603077c-4.253538-4.174769-8.428308-8.428308-12.642462-12.603077l-12.327385-12.288-12.603077-12.603076-13.390769-13.39077c-1.378462 1.811692-2.363077 3.465846-3.662769 4.765539-52.539077 52.499692-105.078154 104.96-157.538462 157.538461-2.678154 2.599385-5.198769 3.938462-8.979692 3.780923-6.734769-0.315077-13.508923-0.078769-20.243692-0.078769h-4.844308c-0.157538-1.654154-0.354462-2.875077-0.354461-4.056615 0-6.419692 0.236308-12.839385-0.07877-19.219693a10.673231 10.673231 0 0 1 3.66277-9.058461c7.68-7.404308 15.123692-15.005538 22.646153-22.528l136.034462-135.876923c1.339077-1.299692 2.914462-2.363077 4.647385-3.859692l-10.082462-10.121847-9.294769-9.334153c-3.229538-3.150769-6.419692-6.380308-9.649231-9.609847l-9.649231-9.609846-9.334154-9.334154a2860.032 2860.032 0 0 0-9.609846-9.609846c-3.150769-3.150769-6.301538-6.183385-9.294769-9.334154-3.150769-3.190154-6.616615-6.025846-9.216-9.64923l0.630154-1.024z m181.090461 632.792615h-180.302769c2.441846-4.332308 6.025846-6.813538 8.940308-9.885538 2.875077-3.150769 5.947077-6.025846 8.940308-9.019077l9.334153-9.294769 8.979693-8.979693 9.294769-9.294769 8.979692-8.979692 9.29477-9.294769 9.13723-9.216-4.174769-4.253539c-52.224-52.145231-104.408615-104.329846-156.711385-156.396307a12.603077 12.603077 0 0 1-4.332307-10.24c0.393846-7.207385 0.118154-14.414769 0.118154-21.661539v-5.12c1.811692-0.236308 3.268923-0.512 4.726153-0.551385 6.301538-0.039385 12.603077 0.078769 18.825847-0.078769a9.452308 9.452308 0 0 1 7.483077 3.150769c7.483077 7.640615 15.044923 15.084308 22.606769 22.646154l138.988307 138.870154c1.063385 1.102769 1.811692 2.520615 2.914462 4.174769l38.715077-38.675692 37.336615-37.257846 0.905846 0.551385v178.806153zM195.347692 194.56h180.932923c-1.693538 2.048-2.756923 3.505231-3.938461 4.726154L322.481231 249.107692l-18.313846 18.274462-3.66277 3.938461c1.575385 1.260308 2.993231 2.244923 4.214154 3.426462 53.129846 53.011692 106.180923 106.062769 159.350154 158.995692a12.445538 12.445538 0 0 1 4.214154 10.24c-0.354462 7.010462-0.078769 14.060308-0.078769 21.425231-1.496615 0.157538-2.678154 0.393846-3.859693 0.393846-7.876923 0-15.675077-0.157538-23.512615 0.078769a10.200615 10.200615 0 0 1-8.270769-3.347692c-21.937231-22.134154-43.992615-44.110769-66.048-66.166154L275.062154 305.073231l-4.332308-4.214154-74.436923 74.24c-0.433231-1.536-0.787692-2.363077-0.905846-3.150769-0.078769-0.905846 0-1.851077 0-2.796308V194.56z m76.209231 528.344615c1.536-1.969231 2.441846-3.465846 3.662769-4.686769 53.287385-53.248 106.653538-106.496 159.901539-159.822769 3.111385-3.150769 6.262154-4.568615 10.712615-4.371692 7.168 0.354462 14.375385 0.078769 21.897846 0.078769 0.196923 1.417846 0.393846 2.638769 0.393846 3.780923 0.078769 8.034462-0.039385 15.990154 0.118154 23.985231a7.443692 7.443692 0 0 1-2.638769 6.183384l-1.969231 1.969231-158.64123 158.444308-4.17477 4.332307L374.153846 825.501538c-3.820308 1.260308-170.732308 1.654154-178.412308 0.630154V648.664615l0.59077-0.315077c0.157538 0 0.393846 0 0.472615 0.07877 0.393846 0.196923 0.827077 0.393846 1.181539 0.748307 24.221538 24.260923 48.443077 48.561231 73.570461 73.649231z m148.558769-168.054153c-1.536 1.851077-2.481231 3.190154-3.623384 4.332307l-29.538462 29.577846-111.419077 111.261539c-4.411077 4.411077-4.017231 4.765538-8.664615 0.118154-22.606769-22.606769-45.174154-45.213538-67.899077-67.741539a11.500308 11.500308 0 0 1-3.662769-9.058461c0.157538-21.110154 0.039385-42.220308 0.039384-63.409231v-4.844308c3.938462-1.181538 218.112-1.417846 224.768-0.236307z m409.127385-0.118154c0.078769 1.575385 0.157538 2.953846 0.157538 4.332307 0 21.622154 0 43.204923 0.07877 64.827077a8.428308 8.428308 0 0 1-2.678154 6.577231c-23.552 23.394462-47.025231 46.867692-70.498462 70.340923-1.024 0.984615-2.087385 1.851077-2.875077 2.599385h-0.866461c-0.157538 0-0.393846 0-0.433231-0.118154a435785.255385 435785.255385 0 0 1-145.801846-145.211077c-0.433231-0.433231-0.905846-0.905846-1.260308-1.378462-0.196923-0.236308-0.275692-0.551385-0.354461-0.866461a1.220923 1.220923 0 0 1 0-0.472615c0-0.157538 0.039385-0.275692 0.118153-0.393847 3.308308-1.063385 218.033231-1.339077 224.413539-0.236307zM467.889231 194.56v224.728615c-2.008615-1.811692-3.387077-2.914462-4.647385-4.174769l-51.869538-51.790769-87.433846-87.315692-1.969231-1.969231c-3.229538-3.308308-3.268923-3.347692 0.118154-6.695385l50.845538-50.806154c6.419692-6.419692 12.878769-12.8 19.298462-19.298461a9.373538 9.373538 0 0 1 7.010461-3.032616h65.378462c0.905846 0 1.811692 0.196923 3.268923 0.354462z m88.733538-1.299692h6.025846c19.889231 0 39.778462 0.078769 59.707077-0.07877a11.815385 11.815385 0 0 1 9.137231 3.741539c23.315692 23.433846 46.749538 46.788923 70.104615 70.104615 0.669538 0.669538 1.614769 1.260308 1.890462 2.087385 0.315077 0.984615 0.393846 2.323692 0 3.308308-0.393846 0.905846-1.457231 1.575385-2.244923 2.363077l-139.618462 139.460923c-1.181538 1.181538-2.481231 2.323692-4.214153 3.938461-0.393846-1.614769-0.669538-2.599385-0.787693-3.544615-0.078769-0.945231 0-1.890462 0-2.835693V193.339077z m-88.654769 412.238769v220.711385c-1.260308 0.118154-2.481231 0.315077-3.662769 0.315076-22.567385 0-45.134769 0-67.741539 0.07877-2.796308 0-4.608-1.102769-6.459077-2.953846-20.558769-20.637538-41.196308-41.196308-61.833846-61.833847l-8.388923-8.388923 148.086154-147.928615z m361.472-139.736615h-222.641231l-0.393846-1.181539c1.024-1.063385 2.008615-2.166154 3.072-3.190154l139.579077-139.421538c0.669538-0.708923 1.260308-1.654154 2.048-1.969231a5.356308 5.356308 0 0 1 3.308308 0c0.945231 0.354462 1.614769 1.417846 2.402461 2.205538 23.158154 23.118769 46.276923 46.237538 69.513846 69.316924a9.412923 9.412923 0 0 1 3.15077 7.325538c-0.118154 20.676923-0.039385 41.353846-0.039385 61.991385v4.923077zM195.662769 465.526154c-0.118154-1.457231-0.275692-2.678154-0.275692-3.899077l-0.039385-63.803077c0-2.756923 0.787692-4.726154 2.717539-6.656 23.433846-23.276308 46.788923-46.670769 70.183384-70.025846 0.630154-0.630154 1.378462-1.181538 1.890462-1.614769 0.433231-0.078769 0.630154-0.118154 0.787692-0.07877a0.787692 0.787692 0 0 1 0.393846 0.157539l143.044923 142.572308 1.299693 1.417846a4.056615 4.056615 0 0 1 0.472615 0.787692 0.905846 0.905846 0 0 1 0.039385 0.433231c0 0.157538-0.118154 0.275692-0.275693 0.708923H195.662769z m361.275077 360.763077v-219.529846c1.378462 0.866462 2.323692 1.260308 3.072 1.890461 1.063385 0.945231 2.008615 1.969231 3.032616 2.993231l136.940307 136.782769c1.102769 1.102769 2.166154 2.244923 3.465846 3.662769-0.787692 1.024-1.378462 2.048-2.244923 2.875077l-69.435077 69.435077c-1.378462 1.339077-2.717538 2.244923-4.844307 2.244923-22.567385-0.078769-45.134769-0.039385-67.702154-0.078769-0.630154 0-1.220923-0.118154-2.284308-0.236308z" fill="#56606F" p-id="7108"></path></svg>