<?xml version="1.0" standalone="no"?><!DOCTYPE svg PUBLIC "-//W3C//DTD SVG 1.1//EN" "http://www.w3.org/Graphics/SVG/1.1/DTD/svg11.dtd"><svg t="1548921168883" class="icon" style="" viewBox="0 0 1024 1024" version="1.1" xmlns="http://www.w3.org/2000/svg" p-id="6583" xmlns:xlink="http://www.w3.org/1999/xlink" width="200" height="200"><defs><style type="text/css"></style></defs><path d="M512 157.538462c-194.953846 0-354.461538 159.507692-354.461538 354.461538s159.507692 354.461538 354.461538 354.461538 354.461538-159.507692 354.461538-354.461538-159.507692-354.461538-354.461538-354.461538z m132.923077 446.030769h-8.861539c-26.584615 2.953846-56.123077 5.907692-85.661538 5.907692h-76.8c-29.538462 0-59.076923-2.953846-85.661538-5.907692-2.953846-20.676923-2.953846-41.353846-5.907693-62.030769V512v-29.538462c0-20.676923 2.953846-41.353846 5.907693-62.030769 0-2.953846 0-8.861538 2.953846-11.815384 17.723077-127.015385 64.984615-218.584615 124.061538-218.584616 174.276923 0 319.015385 144.738462 319.015385 321.969231 0 41.353846-76.8 73.846154-189.046154 91.569231z m0-183.138462c-2.953846-5.907692-5.907692-8.861538-11.815385-14.769231-29.538462-35.446154-73.846154-56.123077-124.061538-56.123076-14.769231 0-29.538462 23.630769-38.4 62.030769-2.953846 14.769231-5.907692 32.492308-8.861539 50.215384 0 14.769231-2.953846 29.538462-2.953846 47.261539 0 17.723077 0 32.492308 2.953846 47.261538 14.769231 0 29.538462 2.953846 47.261539 2.953846 17.723077 0 32.492308 0 47.261538-2.953846 32.492308-2.953846 62.030769-8.861538 82.707693-17.723077 20.676923-8.861538 32.492308-17.723077 32.492307-29.538461 0-29.538462-8.861538-62.030769-26.584615-88.615385z" fill="#56606F" p-id="6584"></path></svg>