<?xml version="1.0" standalone="no"?><!DOCTYPE svg PUBLIC "-//W3C//DTD SVG 1.1//EN" "http://www.w3.org/Graphics/SVG/1.1/DTD/svg11.dtd"><svg t="1548920960363" class="icon" style="" viewBox="0 0 1024 1024" version="1.1" xmlns="http://www.w3.org/2000/svg" p-id="7547" xmlns:xlink="http://www.w3.org/1999/xlink" width="200" height="200"><defs><style type="text/css"></style></defs><path d="M871.030154 390.813538a487.187692 487.187692 0 0 0-19.771077-101.494153l11.854769 3.899077c-31.665231-72.073846-79.832615-144.856615-135.443692-176.443077-7.758769-4.450462-31.153231 4.411077-23.630769-10.752 6.695385-13.587692-33.201231-7.168-50.333539-4.135385-23.630769 4.214154-26.939077-25.363692-67.190154-31.232-22.646154-3.268923-28.553846 16.265846-39.502769 11.736615-20.401231-8.507077-18.156308-24.418462-51.357538-7.798153-16.265846 8.113231 10.24-23.000615-43.480616-3.938462l-3.938461-11.697231c-96.098462 36.785231-123.076923 67.505231-150.173539 70.262154-6.144 0.630154-29.853538 28.908308-47.419077 46.867692-14.887385 15.202462-23.236923 32.374154-43.44123 35.131077L191.369846 273.723077c-15.202462 9.452308-38.754462 40.684308-43.441231 85.897846-7.168-15.753846-1.614769-33.555692 3.938462-46.867692-14.651077 6.144-40.566154 14.572308-26.230154 85.819077 11.264 55.926154-4.726154 119.571692 8.940308 180.65723 4.135385 18.550154 0.669538 35.485538 5.435077 45.883077 95.980308 208.738462 185.619692 347.096615 418.855384 339.692308l3.938462-7.798154c-24.930462-6.183385-48.718769-15.517538-98.776616-27.332923-16.462769-3.899077-20.322462-30.168615-35.564307-39.069538-8.310154-4.844308-25.166769-3.544615-32.925539-8.78277-6.144-4.096 3.702154-19.062154-17.723077-12.603076-7.601231 2.284308-12.248615-9.688615-17.723077-14.651077-7.955692-7.168 0.393846-20.952615-20.716307-21.937231-20.361846-0.945231-16.423385-26.308923-17.604923-39.620923-10.673231 1.417846-0.945231-1.339077-11.815385 3.938461-8.782769-7.916308-18.747077-16.305231-21.110154-27.726769-9.058462-43.362462-9.294769-18.983385-13.233231-28.632615-5.513846-13.351385-10.633846-26.427077-17.053538-37.376l23.709538 7.798154h3.938462l3.938462-11.697231-23.670154-7.798154v0.118154h27.687384c-6.852923 12.327385 1.851077 4.608-11.854769 7.798154v11.736615l19.731692-7.837538v-11.697231c-18.235077-9.176615-25.363692-11.815385-43.44123-19.534769l7.876923 7.798153v3.938462H222.995692c-19.495385-13.075692-12.327385-28.041846-15.79323-46.867692 15.596308 0.157538 8.113231 5.907692 15.753846-11.697231l-15.753846 7.798154 11.815384-31.232-11.815384 11.69723c-25.875692-34.264615-14.375385-86.606769-10.555077-134.616615 3.623385-45.410462 21.267692-76.248615 33.398153-90.072615 7.798154-8.900923 4.529231-22.449231 4.804924-33.004308l27.648-23.394462h15.832615c6.852923 14.848 4.253538 4.883692 0 19.495385l7.876923 3.938462c6.301538-7.719385 5.356308-5.356308 7.876923-19.53477-8.979692-9.373538-6.222769-8.704-23.670154-11.736615 21.188923-29.144615 46.08-51.908923 98.776616-50.727385l3.938461-11.736615-15.753846 7.798154-3.977846-11.697231c33.910154-24.812308 45.292308-21.267692 67.150769-23.433846 5.632-0.551385 6.222769-15.399385 11.342769-17.329231 142.966154-53.523692 273.880615 8.310154 328.467693 130.56 3.859692 8.546462 4.056615 19.298462 7.246769 30.247385 14.651077 50.412308-6.380308 107.52 8.585846 137.649231-6.852923 31.901538-32.413538 12.209231-35.564308 27.332923-7.561846 36.548923-13.193846 52.854154-36.155077 69.750153-7.325538 5.395692-14.178462 13.469538-27.05723 20.04677 9.412923-12.760615 15.36-15.753846 19.771077-35.131077-94.089846 98.816-232.290462 56.595692-256.866462-93.735385-5.828923-35.721846 8.900923-62.385231 31.271385-83.377231 82.392615-77.508923 133.001846-46.355692 182.114461-18.116923l-7.876923-27.332923c-29.105231-21.622154-14.966154-17.565538-7.916308-50.766769v-3.899077l-15.832615-11.697231c2.166154 8.979692 0.905846 4.647385 7.916308 15.596308-3.820308 14.178462 0.275692 7.955692-7.876923 15.635692-13.272615 8.664615-20.992 6.616615-39.542154 3.938462l3.938461-11.736616-11.815384-11.736615c0.590769 10.436923-3.544615 2.363077 0 15.635692-111.537231 8.782769-192.984615 70.892308-158.089846 230.360616 2.756923 12.524308 2.284308 26.151385 7.876923 39.030154l-7.876923 7.798153-3.938462-23.394461h-11.854769l-3.938462 11.697231c-11.185231-22.764308-0.787692 9.531077 35.564308 46.867692 2.205538 2.284308 8.704 9.216 11.421538 11.185231 42.259692 30.680615 100.233846 72.073846 178.215385 43.441231h7.916308v-3.899077l-90.899693-11.697231-3.938461-7.798154c94.562462 21.937231 156.632615-7.561846 209.447384-42.929231 11.736615-14.257231 10.121846-21.228308 19.731693-7.876923 17.014154-14.887385 3.426462-23.827692 11.854769-38.990769 5.789538-10.436923 28.908308-15.044923 39.542154-31.271385l35.564308-121.028923h-15.832616c2.638769-12.603077 19.968-29.538462-3.938461-42.929231-2.244923-1.260308 8.034462-1.181538 7.837538-3.741538a128 128 0 0 0-19.692308-58.722462c29.380923 19.219692 32.295385 60.022154 47.419077 93.696v7.798154h3.938462V390.813538zM444.258462 586.043077l-7.876924-23.433846 55.296 50.766769-47.419076-27.332923zM171.638154 246.350769l-19.771077-3.899077v35.131077c14.808615-9.294769 16.738462-9.097846 19.771077-31.232zM681.353846 402.550154c-9.924923 13.902769-14.336 14.099692-15.793231 39.030154l11.85477 7.798154c13.587692-11.933538 15.753846-30.877538 3.938461-46.867693z m130.402462 148.361846c23.236923-10.200615 48.324923-51.2 31.625846-85.897846l-31.625846 85.858461z m-154.112-70.301538c-13.784615 10.476308-17.447385 11.815385-19.731693 35.170461l11.815385 7.798154 15.832615-7.798154c4.844308-13.666462 11.027692-26.624 3.938462-42.929231-7.483077 11.933538-2.363077 18.274462-11.815385 7.75877z m-59.273846 70.301538c13.981538-9.649231 10.555077-12.996923 15.832615-19.534769v-3.899077c-18.471385 0-31.350154 3.938462-55.335385 0-11.539692-12.406154-11.697231-26.072615-27.648-35.131077 15.832615 31.113846 2.953846 33.870769 27.648 54.665846 18.983385 5.198769 23.709538 2.599385 35.564308 3.899077 1.299692 0-6.065231-0.787692 3.938462 0z m-371.396924-31.232H215.04l-7.876923 7.798154c8.546462 8.979692 4.883692 6.340923 11.815385-3.938462l11.894153 19.574154 3.938462-15.635692-7.876923-7.798154z m15.753847 50.727385l3.938461-7.798154c-8.900923-7.68-0.393846-3.190154-11.815384 0l-11.85477-15.596308 3.938462 15.596308v7.798154h15.832615z" fill="#56606F" p-id="7548"></path></svg>