<?xml version="1.0" standalone="no"?><!DOCTYPE svg PUBLIC "-//W3C//DTD SVG 1.1//EN" "http://www.w3.org/Graphics/SVG/1.1/DTD/svg11.dtd"><svg t="1549873136561" class="icon" style="" viewBox="0 0 1024 1024" version="1.1" xmlns="http://www.w3.org/2000/svg" p-id="6748" xmlns:xlink="http://www.w3.org/1999/xlink" width="200" height="200"><defs><style type="text/css"></style></defs><path d="M262.774154 880.758154a139.106462 139.106462 0 0 1-102.951385-114.609231c-8.270769-53.169231 8.940308-91.293538 69.592616-154.348308a1351.207385 1351.207385 0 0 1 70.380307-67.662769l32.886154-28.632615-37.336615-19.731693c-72.585846-38.439385-98.382769-59.667692-114.176-94.12923-7.246769-15.872-8.113231-21.464615-6.813539-45.056 1.260308-22.173538 3.662769-31.547077 13.587693-52.932923 37.297231-80.187077 117.602462-145.171692 209.211077-169.353847 30.523077-8.073846 90.466462-8.073846 120.398769 0 94.444308 25.324308 261.986462 150.843077 331.421538 248.241231 22.055385 30.877538 29.223385 48.324923 31.350154 76.012308 4.056615 52.460308-9.806769 78.769231-76.642461 145.604923-88.024615 88.024615-203.776 171.559385-313.93477 226.619077-99.643077 49.742769-169.156923 65.063385-226.934154 49.979077z m312.674461-456.467692c44.150154-19.692308 65.890462-67.505231 47.734154-104.999385-8.310154-17.171692-42.377846-49.624615-66.402461-63.330462-41.117538-23.394462-76.012308-25.481846-114.609231-6.852923-79.281231 38.203077-50.491077 147.810462 47.261538 180.224 20.243692 6.695385 65.693538 4.056615 86.016-5.04123z m-41.353846-49.545847c-11.815385-6.852923-19.416615-8.664615-37.257846-8.861538-27.884308-0.315077-33.988923-5.12-33.476923-26.624 0.472615-22.961231 9.294769-32.531692 31.113846-33.792 14.296615-0.827077 21.464615 0.905846 38.754462 9.452308 33.28 16.344615 43.126154 39.660308 24.812307 58.88l-9.058461 9.570461-14.887385-8.625231z m-69.513846-26.584615s3.505231 28.278154 39.148308 39.069538c35.997538 6.222769 45.056-5.080615 45.056-5.080615l-84.204308-33.988923z" fill="#56606F" p-id="6749"></path></svg>