<?xml version="1.0" standalone="no"?><!DOCTYPE svg PUBLIC "-//W3C//DTD SVG 1.1//EN" "http://www.w3.org/Graphics/SVG/1.1/DTD/svg11.dtd"><svg t="1548921077871" class="icon" style="" viewBox="0 0 1024 1024" version="1.1" xmlns="http://www.w3.org/2000/svg" p-id="7987" xmlns:xlink="http://www.w3.org/1999/xlink" width="200" height="200"><defs><style type="text/css"></style></defs><path d="M415.940923 241.506462v67.308307c4.450462-0.354462 8.861538-0.669538 13.312-0.827077 171.244308-5.789538 282.820923 140.445538 282.820923 140.445539s-128.157538 155.884308-261.671384 155.884307c-12.248615 0-23.709538-1.102769-34.461539-3.032615v41.590154c9.216 1.181538 18.747077 1.851077 28.672 1.851077 124.297846 0 214.173538-63.409231 301.174154-138.515692 14.414769 11.539692 73.491692 39.620923 85.622154 51.908923-82.707692 69.316923-275.534769 125.085538-384.827077 125.085538a320.196923 320.196923 0 0 1-30.641231-1.575385v58.44677h472.339692V241.506462H415.940923z m24.812308 147.298461c78.926769 0 125.755077 61.44 125.755077 61.44l-64.157539 53.996308c-28.829538-48.049231-38.439385-69.198769-86.409846-74.988308v136.546462a114.215385 114.215385 0 0 0 36.391385 5.828923c93.617231 0 180.893538-121.225846 180.893538-121.225846s-80.817231-109.725538-204.012308-105.826462c-4.489846 0.118154-8.900923 0.393846-13.272615 0.708923v44.977231a234.338462 234.338462 0 0 1 24.812308-1.457231z m-228.942769 67.347692S279.906462 355.643077 415.901538 345.284923v-36.470154c-150.685538 12.091077-281.088 139.618462-281.088 139.618462s73.885538 213.661538 281.088 233.156923v-38.715077c-152.024615-19.140923-204.130462-186.683077-204.130461-186.683077z m118.311384 12.209231s37.533538-44.898462 85.661539-39.148308h0.157538V390.301538c-91.648 9.924923-146.825846 71.049846-146.825846 71.049847s31.901538 119.492923 146.825846 139.972923v-35.485539c-64.787692-21.740308-85.819077-97.398154-85.819077-97.398154z" fill="#56606F" p-id="7988"></path></svg>