<?xml version="1.0" standalone="no"?><!DOCTYPE svg PUBLIC "-//W3C//DTD SVG 1.1//EN" "http://www.w3.org/Graphics/SVG/1.1/DTD/svg11.dtd"><svg t="1548920624190" class="icon" style="" viewBox="0 0 1024 1024" version="1.1" xmlns="http://www.w3.org/2000/svg" p-id="6986" xmlns:xlink="http://www.w3.org/1999/xlink" width="200" height="200"><defs><style type="text/css"></style></defs><path d="M449.929846 900.529231c14.099692 26.033231-35.446154 15.753846-44.740923 22.764307-22.724923 17.053538-34.067692 11.382154-42.535385 5.71077-8.546462-5.710769-5.710769-22.724923-36.903384-19.889231-42.535385 2.835692-25.521231-11.342769-25.521231-11.342769s1.811692-1.811692 4.726154-4.568616a9.964308 9.964308 0 0 1 0.945231-1.102769s11.342769-11.342769 22.685538-19.849846c11.342769-5.671385 42.535385-19.849846 42.535385-19.849846h31.192615l28.356923 19.849846c14.848 13.981538 19.849846 22.724923 19.259077 28.278154z m0 0c-3.072-5.632-9.137231-12.996923-19.219692-22.606769l-28.356923-22.685539H368.246154s-34.028308 14.178462-45.371077 22.685539a227.249231 227.249231 0 0 0-17.92 15.28123c-2.363077 3.268923-6.498462 12.603077 26.387692 10.24 28.396308-2.835692 25.6 11.342769 34.067693 17.014154 8.507077 5.710769 17.014154 11.382154 39.739076-5.671384 8.034462-6.025846 43.283692-0.630154 44.740924-14.257231zM651.027692 889.304615c17.447385 32.019692-39.030154 9.491692-41.629538 19.810462-2.835692 34.067692-31.192615 39.739077-39.699692 22.724923-5.671385-14.178462-19.849846-17.053538-19.849847-17.053538-31.232 5.671385-34.067692-5.671385-34.067692-22.685539 0-8.428308 5.592615-16.856615 11.224615-23.236923-4.529231 5.435077-8.388923 11.736615-8.388923 17.565538 0 14.178462 0 25.521231 31.232 19.849847 0 0 14.178462 2.835692 19.849847 14.178461 5.671385 17.053538 34.028308 8.546462 39.699692-19.849846 0-7.089231 47.655385 9.609846 41.629538-11.342769zM572.534154 296.408615l11.342769 17.014154 14.178462-17.014154z" fill="#56606F" p-id="6987"></path><path d="M396.996923 747.598769L393.846154 736.098462s22.331077 8.388923 58.722461 0.196923a367.616 367.616 0 0 1-2.008615-39.896616c0-66.638769-3.741538-114.648615-5.12-130.520615h-20.401231l-17.014154-12.130462-3.150769-1.811692-16.738461 13.942154-14.375385-0.512c-0.945231 11.342769-4.804923 62.227692 0.196923 99.800615 3.150769 23.315692 13.902769 56.871385 23.000615 82.432z m13.863385 50.884923v2.835693s2.363077 1.181538 6.852923 2.520615c-5.907692-2.441846-6.852923-5.356308-6.852923-5.356308z m24.103384 8.428308c1.339077 0.078769 2.756923 0.078769 4.253539 0.078769h14.414769c-7.049846 0.512-13.272615 0.393846-18.668308-0.078769zM448.984615 255.645538a55.965538 55.965538 0 0 0-8.388923-0.787692c-9.176615-0.078769-21.149538 33.004308-28.908307 35.879385-19.140923 7.128615-29.262769-11.342769-29.26277-11.342769s-3.268923 47.812923-8.62523 73.019076c24.260923 12.209231 58.407385 13.784615 127.763692 3.544616a182.744615 182.744615 0 0 0 35.052308-11.815385c-15.596308-15.241846-36.864-38.951385-35.052308-53.405538 0.512-3.899077-3.741538-9.688615-10.712615-15.478154a33.161846 33.161846 0 0 1-9.137231 1.299692c-13.587692 0-25.6-8.270769-32.689231-20.873846zM373.838769 352.413538c-1.654154 7.876923-3.544615 13.587692-5.513846 14.92677-8.546462 5.671385 107.756308 17.014154 107.756308 17.014154s68.096-22.685538 70.892307-22.685539c2.875077 0 5.710769-2.835692 5.71077-2.835692s-7.089231-5.986462-15.990154-14.690462a190.148923 190.148923 0 0 0 50.176-33.28c2.284308 2.402462 5.041231 4.332308 8.349538 5.395693 25.521231 8.507077 110.631385 19.889231 110.631385 19.88923s17.801846 0 36.273231 18.077539l0.590769 1.772307-28.356923 48.20677-59.825231 125.046154a77.075692 77.075692 0 0 0-8.270769-17.250462c-11.342769-17.014154-178.688 45.371077-178.688 45.371077l-0.275692 8.507077h-21.897847l-0.512-5.671385h-25.52123l-11.34277-6.459077-2.835692-2.048-0.315077 0.236308-5.395692-3.072-14.178462 14.178462h-11.342769l-0.196923 2.323692-25.993846-0.984616a3.347692 3.347692 0 0 1 0.669538-1.339076c5.671385-5.671385-73.767385 0-73.767384 0v0.157538c-13.390769-0.590769-25.915077-2.126769-28.356923-5.828923-5.671385-8.507077-11.342769-34.028308-11.34277-34.028308v-28.356923s-5.671385-79.438769-5.671384-107.795692c0-1.496615 0-2.914462 0.078769-4.292923 14.729846-15.478154 33.870769-28.041846 56.674462-26.899693 25.206154 1.260308 40.290462-3.072 49.309538-8.270769l1.732923-0.236307 1.417846-1.772308c8.507077-6.025846 9.924923-12.406154 9.924923-12.406154 7.955692 7.955692 15.950769 14.336 25.403077 19.101538z m-75.500307 312.241231l-6.104616-20.361846-6.183384-1.811692-0.984616-6.616616-7.561846-7.561846s-22.685538-11.342769-28.356923-11.342769c-5.671385 0-42.535385-14.178462-56.713846-19.849846-2.835692 0-5.671385-2.835692-8.507077-5.671385-5.671385-2.835692-14.178462-11.342769-19.889231-11.342769-5.671385 0-19.849846-8.507077-19.849846-8.507077s-11.342769-2.875077-11.342769-28.356923l14.178461-17.053538s5.671385-68.056615 48.246154-90.781539c0 0 12.209231-29.420308 34.107077-52.499692 1.102769-24.064 11.579077-24.064 16.935385-24.064 5.198769 0 76.996923-9.531077 89.048615-11.145846 1.181538-0.630154 2.205538-1.299692 3.150769-1.969231l9.924923-12.406154s8.507077-22.724923 8.507077-42.535385c0-19.889231-2.835692-25.6-5.671384-36.903384-2.835692-11.342769-5.671385-82.274462 5.671384-104.96 11.342769-25.521231 34.028308-62.424615 85.070769-65.260308 70.931692-2.835692 82.313846 8.507077 107.835077 39.739077 25.521231 31.192615 22.685538 48.206769 28.356923 65.220923 5.671385 17.014154 0 65.260308 0 65.260308s-6.419692 40.763077 8.664616 56.989538c7.404308-6.852923 11.185231-11.618462 11.185231-11.618461l11.342769 19.849846c11.342769-5.671385 102.124308 8.507077 102.124308 8.507077l5.671384 8.546461 19.849846 2.835693 5.12 15.241846c8.073846 7.916308 16.344615 19.337846 23.236923 35.800615 0 0 59.588923 2.835692 87.945847 99.249231l19.849846 11.382154s14.178462 34.028308-31.192616 59.549538c-45.371077 25.560615-144.659692 68.096-144.659692 68.096l-51.633231 13.587693 0.590769 0.590769-3.150769 6.695384c-1.063385 17.171692-6.459077 63.606154-33.752615 95.428923-5.671385 2.835692-8.507077 8.507077-11.342769 11.34277 5.671385 5.671385 22.685538 28.356923 17.014153 76.603077-8.507077 53.878154-45.371077 48.206769-68.056615 39.699692-22.685538-8.507077-31.232-45.371077-31.232-45.371077l5.671385-2.835692c-14.178462 5.671385-31.192615 8.507077-53.878154 14.178461 0 0-14.178462 0-31.192616-2.835692-2.835692 8.507077-8.507077 17.014154-19.849846 28.356923-28.356923 22.685538-53.917538 17.014154-70.931692-14.178462-17.014154-28.356923 0-59.588923 5.671385-65.260307-17.014154-17.014154-25.521231-34.028308-25.521231-34.028308l-9.767385-29.302154a627.987692 627.987692 0 0 0-1.575384-1.890461c-14.178462-17.014154-22.685538-56.713846-22.685539-56.713846l6.616616 2.284307z m356.194461-135.404307l-2.56 5.435076s-14.178462 11.342769-28.356923 19.849847c-14.178462 8.507077-22.724923 8.507077-22.724923 8.507077l-39.699692 2.835692h-93.892923l-2.56 82.313846s0 8.467692 11.342769 8.467692h51.081846l53.878154-8.507077 53.878154-22.685538 25.560615-19.849846V554.535385s-1.378462-12.130462-5.907692-25.284923z m-8.822154 112.64l-2.244923-2.244924s-51.081846 22.685538-65.260308 25.521231c-14.178462 2.835692-45.371077 11.342769-73.767384 8.507077-28.356923-2.835692-36.864 0-36.864 0s-8.507077 14.178462 2.835692 48.246154c11.342769 34.028308 11.342769 68.056615 22.685539 73.728 11.342769 5.671385 62.424615-19.849846 87.945846-42.535385 21.267692-18.904615 52.302769-82.944 62.148923-103.936 0.275692-4.214154 0.275692-6.695385 0.275692-6.695384l2.244923-0.590769z m-353.476923 2.402461c15.044923 4.332308 52.854154 14.651077 61.873231 12.366769 0 0-10.279385-79.793231-6.380308-92.278154l-36.155077-1.339076s-19.219692 0.945231-36.864 0.157538l10.358154 72.664615 6.656 6.616616 0.512 1.811692z m6.104616 20.361846l10.397538 34.579693 7.246769 21.740307c14.808615 17.92 44.307692 55.256615 57.974154 66.166154 14.178462 11.342769 25.521231 14.178462 25.521231 14.178462l-22.685539-62.385231-11.342769-36.864-2.835692-11.342769s0-11.382154-11.342769-11.382154c-8.743385 0-39.305846-10.043077-52.932923-14.690462z m58.604307 128.157539c0 5.671385 2.835692 14.178462 5.671385 14.178461 19.849846 39.739077 51.081846 22.724923 53.917538 22.724923 2.835692 2.835692-8.507077-2.835692-19.88923-5.671384-11.342769-2.835692-39.699692-31.232-39.699693-31.232z m178.727385 31.232c11.342769 0 28.356923-5.671385 42.535384-11.34277 8.507077-8.546462 14.178462-34.067692 14.178462-34.067692s-8.507077 11.342769-22.685538 25.521231c-14.178462 11.382154-34.028308 19.889231-34.028308 19.889231zM393.806769 177.230769c8.507077 0 17.053538 5.671385 25.560616 17.014154-5.671385-14.178462-14.178462-22.685538-25.560616-22.685538-8.507077 0-17.014154 5.671385-22.685538 17.014153 8.507077-5.671385 14.178462-11.342769 22.685538-11.342769z m90.781539-2.835692c14.178462 2.835692 28.356923 11.342769 36.864 25.521231-5.671385-19.849846-19.849846-31.192615-36.864-34.028308-8.507077 0-17.014154 0-22.685539 11.342769 8.507077-2.835692 11.342769-5.671385 22.685539-2.835692z m0 45.410461s5.671385 0 8.507077 11.34277c2.835692 11.342769 5.671385-5.671385 0-11.34277-8.507077-5.671385-14.178462 0-8.507077 0zM393.846154 225.516308s5.671385 0 8.507077 11.342769c2.875077 8.507077 5.710769-2.835692 0-11.342769-5.671385-5.671385-11.342769 0-8.507077 0z m55.217231 30.12923c15.556923 2.56 31.665231 11.106462 41.865846 19.613539 17.526154-5.001846 30.562462-24.103385 30.562461-46.907077 0-26.663385-17.762462-48.246154-39.699692-48.246154-21.937231 0-39.699692 21.582769-39.699692 48.246154 0 10.121846 2.56 19.534769 6.971077 27.293538z m12.878769-18.786461c0-14.099692 8.900923-25.560615 19.849846-25.560615 10.988308 0 19.849846 11.421538 19.849846 25.560615 0 14.099692-8.861538 25.521231-19.849846 25.521231-10.948923 0-19.849846-11.421538-19.849846-25.521231zM365.449846 231.187692c0 25.048615 12.721231 45.371077 28.356923 45.371077 15.675077 0 28.356923-20.322462 28.356923-45.371077 0-25.088-12.681846-45.410462-28.356923-45.410461-15.635692 0-28.356923 20.322462-28.356923 45.410461z m17.014154 11.34277c0-14.099692 6.380308-25.521231 14.178462-25.521231 7.876923 0 14.178462 11.421538 14.178461 25.521231 0 14.099692-6.301538 25.521231-14.178461 25.52123-7.798154 0-14.178462-11.421538-14.178462-25.52123z m14.493538 505.068307l13.90277 50.884923v-14.178461s-6.380308-15.635692-13.90277-36.706462z m20.755693 56.241231c3.623385 1.457231 9.058462 2.756923 17.250461 3.072a89.915077 89.915077 0 0 1-17.250461-3.072z m35.918769 3.150769h25.284923s-19.849846-42.535385-25.521231-70.892307a160.137846 160.137846 0 0 1-0.787692 0.196923c5.513846 50.884923 20.637538 67.859692 20.637538 67.859692a142.572308 142.572308 0 0 1-19.613538 2.835692z" fill="#56606F" p-id="6988"></path><path d="M368.285538 285.065846c11.342769-14.178462 31.192615-28.356923 31.192616-28.356923l-1.024 1.457231c4.135385-3.387077 8.270769-6.695385 12.406154-9.964308 9.294769-3.741538 17.368615-5.001846 23.433846-5.435077 3.150769-0.236308 5.789538-0.236308 7.758769-0.236307 22.685538 2.835692 31.192615 25.521231 56.713846 22.685538 22.685538 0 14.178462 31.192615 8.507077 36.864-5.671385 5.671385-17.014154 2.835692-17.014154 2.835692s-2.835692 14.178462-39.699692 31.232c-24.103385 11.106462-53.011692-9.255385-70.183385-24.694154a53.090462 53.090462 0 0 1-14.926769-12.20923s2.796308 2.363077 7.483077 5.12c-4.726154-4.726154-7.483077-7.955692-7.483077-7.955693s-2.835692-8.507077 2.835692-11.342769z m12.091077 26.387692c11.264 6.301538 21.937231 7.640615 21.937231 7.640616s36.903385 2.835692 53.917539-2.835692c17.014154-5.671385 42.535385-31.192615 42.535384-31.192616s2.835692 2.835692 8.507077 0c5.671385-2.835692 2.835692-8.507077-5.671384-5.671384-5.671385 5.671385-2.835692 0-8.507077 2.835692-5.671385 2.835692-11.342769 8.507077-11.34277 8.507077-31.192615 25.521231-39.699692 22.685538-42.535384 22.685538-2.835692 0-22.685538 2.835692-36.903385 0-11.815385 0-22.567385-5.001846-29.420308-9.058461 2.126769 2.126769 4.647385 4.529231 7.483077 7.08923z m44.662154-9.373538s28.356923-2.835692 36.864-17.014154c8.507077-14.178462-2.835692-19.849846-2.835692-19.849846s-17.014154-11.342769-19.849846 5.671385c-2.835692 17.014154-14.178462 31.192615-14.178462 31.192615z m-56.713846-17.014154c-11.382154 11.342769 8.467692 17.014154 8.467692 17.014154l5.671385-17.014154c2.363077-7.089231 12.681846-22.173538 15.990154-26.899692-10.043077 8.231385-20.086154 16.856615-30.168616 26.899692z m73.728-34.028308c0 1.575385 2.520615 2.835692 5.671385 2.835693 3.150769 0 5.671385-1.260308 5.671384-2.835693 0-1.575385-2.56-2.835692-5.671384-2.835692-3.150769 0-5.671385 1.260308-5.671385 2.835692z m-34.028308 2.835693a2.835692 2.835692 0 1 0 5.671385 0 2.835692 2.835692 0 0 0-5.671385 0z" fill="#56606F" p-id="6989"></path><path d="M365.489231 299.244308s16.974769 17.014154 33.988923 17.014154h42.535384s11.382154 5.671385 48.246154-28.356924l5.671385-2.835692s2.835692-2.835692 5.671385 0c2.835692 0 14.178462-14.178462 11.342769-2.835692 0 14.178462-5.671385 22.685538-11.342769 25.521231-2.835692 0-5.671385 0-8.507077 2.835692-2.835692 0-5.671385-2.835692-5.671385 0-8.507077 11.342769-17.014154 19.849846-28.356923 25.560615-22.685538 11.342769-22.685538 8.507077-25.521231 8.507077-17.014154 0-39.739077-11.342769-51.081846-22.724923-5.671385-11.342769-17.014154-22.685538-17.014154-22.685538zM288.886154 662.331077s48.206769 17.014154 59.549538 17.014154c11.342769 0 11.342769 11.382154 11.34277 11.382154l2.835692 11.342769 11.342769 36.864 20.716308 56.910769a141.784615 141.784615 0 0 0 50.215384 11.145846s28.356923 0 65.220923-8.507077c36.903385-8.507077 73.767385-34.028308 93.617231-62.38523 11.342769-17.014154 45.410462-85.070769 45.410462-85.07077l8.507077-25.560615s14.178462-42.535385 8.507077-79.438769c-5.671385-36.864-25.560615-48.206769-25.560616-48.20677l-368.758154 53.878154 0.787693 11.106462-3.623385 0.236308 5.671385 34.067692v8.507077l8.507077 36.864 6.813538 1.969231 1.732923 0.866461h1.299692l1.536 0.393846v16.620308h-5.671384s17.014154 45.410462 31.192615 62.424615c14.178462 17.014154 39.699692 53.878154 68.056616 68.056616 2.205538 1.102769 4.332308 2.087385 6.537846 3.032615l1.969231 5.513846s-11.342769-2.875077-25.521231-14.178461c-14.178462-11.382154-45.371077-51.081846-59.549539-68.135385-14.178462-16.974769-22.685538-56.713846-22.685538-56.713846 0 0.196923 8.507077 39.778462 22.685538 56.713846 14.178462 17.053538 45.371077 56.753231 59.549539 68.135385 14.178462 11.303385 25.521231 14.178462 25.521231 14.178461l-1.969231-5.513846a122.564923 122.564923 0 0 1-6.537846-3.032615c-28.356923-14.178462-53.878154-51.042462-68.056616-68.056616-14.178462-17.014154-31.192615-62.424615-31.192615-62.424615h5.671384v-16.580923a809.550769 809.550769 0 0 1-1.536-0.393846h-1.299692l-1.732923-0.905846-6.813538-1.969231-8.507077-36.864v-8.507077l-5.671385-34.067692 3.584-0.236308-0.748308-11.106462 368.758154-53.878154s19.889231 11.342769 25.560616 48.20677c5.671385 36.903385-8.507077 79.438769-8.507077 79.438769l-8.507077 25.521231s-34.067692 68.096-45.410462 85.070769c-19.849846 28.396308-56.713846 53.956923-93.617231 62.424615-36.864 8.507077-65.220923 8.507077-65.220923 8.507077s-24.182154 0-50.215384-11.145846l-20.716308-56.910769-11.342769-36.864-2.835692-11.342769s0-11.382154-11.34277-11.382154-59.549538-17.014154-59.549538-17.014154z" fill="#56606F" p-id="6990"></path><path d="M720.029538 514.835692s-8.507077 2.835692-11.342769 19.849846c-2.835692 17.014154 0 14.178462 0 14.178462l-17.014154 11.342769s-2.835692-8.507077-14.178461-5.671384c-11.342769 2.835692-14.178462 5.671385-14.178462 5.671384h-17.014154s-8.546462 2.835692-5.710769 11.382154c2.875077 8.507077-2.835692 2.835692-5.671384 14.178462-2.835692 5.671385-5.671385 2.835692-2.835693 14.178461s0 19.849846 0 19.849846 8.507077 14.178462 8.507077 22.685539c0 8.507077 28.356923 8.507077 45.410462 2.835692 17.014154-5.671385 19.849846-11.342769 28.356923-17.014154 8.507077-5.671385 25.521231-14.178462 36.864-19.849846a264.034462 264.034462 0 0 1 68.096-22.685538c31.192615-5.671385 28.356923-19.889231 28.356923-19.889231s-53.878154 11.382154-90.781539-14.178462c-36.864-25.521231-34.028308-28.356923-36.864-36.864zM169.747692 588.603077s14.178462-11.342769 31.192616-39.739077c17.014154-28.356923 39.699692-28.356923 39.699692-28.356923s8.507077 34.028308 14.178462 36.864c5.671385 2.835692 14.178462 2.835692 14.178461 2.835692s2.835692 34.067692 5.671385 48.246154l8.507077 25.521231s-19.849846-14.178462-28.356923-14.178462c-25.521231 0-85.070769-31.192615-85.07077-31.192615z" fill="#56606F" p-id="6991"></path><path d="M410.860308 500.657231h-15.202462c-2.166154 5.592615-8.034462 17.723077-18.865231 19.849846-17.014154 2.835692-68.056615 0-68.056615 0l-36.903385-2.835692s-8.507077 2.835692-11.342769-11.34277c-2.835692-14.178462-22.685538-68.096-22.685538-68.096l17.014154 85.110154s0 8.507077 8.507076 8.507077h68.096l36.864 2.835692s14.178462 0 22.685539-14.178461c8.507077-14.178462 2.835692-5.671385 5.671385-14.178462h8.546461s5.671385 11.342769 8.507077 14.178462c2.835692 2.835692 5.671385 8.507077 14.178462 8.507077h53.878153l62.424616-2.835692h31.192615s5.671385 2.835692 22.685539-5.671385c17.014154-8.507077 25.521231-17.014154 25.52123-17.014154s2.835692 0 8.507077-8.507077c5.671385-8.507077 25.560615-48.246154 25.560616-48.246154l45.371077-79.399384 16.81723-30.838154-2.638769-0.393846-5.671384-8.507077 8.507076 8.546461-0.196923 0.393846 17.211077 2.441847-11.342769 8.507077-25.521231 39.699692-59.588923 119.138461s-11.342769 17.014154-25.521231 25.521231c-14.178462 8.507077-25.521231 8.507077-25.52123 8.507077l-28.356923 2.835692-147.495385 2.835693-17.053538-14.178462-19.849847 14.178462-65.220923-2.835693s-62.424615 5.671385-68.096-2.835692c-5.671385-8.507077-8.507077-28.356923-8.507077-28.356923v-17.014154s-5.671385-79.438769-5.671384-107.795692c0-28.356923 11.342769-28.356923 17.014154-28.356923 5.671385 0 90.781538-11.342769 90.781538-11.342769l11.342769-14.178462c28.356923 28.356923 56.713846 36.864 153.206154 22.685538 62.385231-14.178462 96.413538-56.713846 96.413539-56.713846l11.342769 19.810462c9.924923-4.923077 80.226462 5.238154 98.067692 7.876923l1.220923-2.205539 2.835693 2.835693-4.096-0.590769-58.289231 102.715076-36.903385 65.260308s-5.671385 5.671385-8.507077 5.671385c-2.835692 0-8.507077 11.342769-39.699692 11.342769s-130.481231 2.835692-130.481231 2.835692-19.849846-5.671385-22.685538-14.178461z m0 0h141.784615s17.053538 0 25.560615-14.178462c8.507077-14.178462 28.356923-68.096 28.356924-68.096s5.671385-17.014154-14.178462-17.014154-175.852308 2.835692-175.852308 2.835693H274.668308c-2.835692-2.835692-19.849846-8.507077-19.849846 14.178461l17.014153 76.603077s2.835692 5.671385 28.356923 5.671385h95.468308c0.669538-1.732923 0.984615-2.835692 0.984616-2.835693s11.382154-2.835692 14.178461 2.835693z" fill="#56606F" p-id="6992"></path><path d="M337.092923 341.819077s-2.835692 14.178462 8.507077 19.849846c11.342769 5.671385 17.014154 11.342769 34.028308 14.178462l5.671384 2.835692s2.835692 0 2.835693 5.671385v22.685538h-5.671385V384.393846s-2.835692-5.671385-8.507077-5.671384c-5.671385 0-25.521231-8.507077-31.192615-19.849847-5.671385-11.342769-5.671385-17.014154-5.671385-17.014153z m275.140923-22.724923s-73.728 59.588923-116.302769 62.424615c-42.535385 2.835692-39.699692 5.671385-39.699692 5.671385s0 11.342769-2.835693 17.014154c0 5.671385 2.835692 2.835692 2.835693 2.835692l2.835692-14.178462s0-2.835692 14.178461-2.835692 48.206769-8.507077 56.713847-11.342769l51.081846-34.028308 31.192615-25.560615z" fill="#C1C1C1" p-id="6993"></path><path d="M257.654154 412.750769l17.014154 65.220923s5.671385 5.671385 28.356923 5.671385h243.987692s17.014154 0 22.685539-11.342769c5.671385-14.178462 25.521231-59.588923 25.52123-59.588923s5.671385-14.178462-14.178461-14.178462-170.180923 2.835692-170.180923 2.835692H274.668308c0-2.835692-17.014154-5.671385-17.014154 11.34277zM373.956923 577.260308s31.232 8.507077 70.892308 2.835692v11.342769s-51.042462 8.507077-70.892308 0v-14.178461zM373.956923 608.452923s34.067692 8.507077 73.767385 2.835692v11.34277s-51.081846 8.507077-73.767385 0v-14.178462zM373.956923 636.849231s34.067692 8.467692 73.767385 2.796307v11.34277s-51.081846 8.507077-73.767385 0v-14.178462zM376.792615 668.002462s31.232 8.507077 70.892308 2.835692v11.342769s-48.206769 8.546462-70.892308 0v-14.178461zM385.299692 704.905846s22.724923 8.507077 65.260308 2.835692v11.34277s-36.864 2.835692-59.588923 0l-5.671385-14.178462z" fill="#56606F" p-id="6994"></path><path d="M311.532308 432.561231c14.178462 0 25.560615 11.342769 25.560615 19.889231 0 11.342769-11.342769 19.849846-25.521231 19.849846-14.178462 0-25.521231-11.342769-25.52123-19.849846 0-11.382154 11.342769-19.889231 25.52123-19.889231z m0 36.903384c14.178462 0 22.724923-5.671385 22.724923-17.014153 0-11.382154-11.342769-17.053538-22.685539-17.053539s-22.685538 8.507077-22.685538 17.053539c0 11.342769 11.342769 17.014154 22.685538 17.014153z m192.905846-2.835692s2.835692 0 0 0c2.835692 2.835692 0 5.671385 0 5.671385h-28.356923c-2.835692 0-2.835692-2.835692-2.835693-2.835693v-31.232c0-2.835692 0-5.671385 2.835693-5.671384s2.835692 5.671385 2.835692 5.671384v28.356923h25.521231z m-36.864 2.835692v2.835693h-19.849846a18.313846 18.313846 0 0 1-17.014154-17.014154v-2.835692c0-11.382154 8.507077-17.053538 17.014154-17.053539h19.849846v2.835692h-19.849846c-8.507077 0-14.178462 5.671385-14.178462 11.34277v2.875077c0 8.507077 5.671385 17.014154 14.178462 17.014153h19.849846z m62.424615-31.232c-8.546462 0-11.382154 5.671385-14.178461 11.34277h28.356923c2.835692 0 2.835692 0 2.835692 2.875077 0 2.835692-2.835692 2.835692-2.835692 2.835692h-28.356923c0 8.507077 5.632 14.178462 14.178461 14.178461h19.849846v2.835693h-19.849846a18.313846 18.313846 0 0 1-17.053538-17.014154v-2.835692c0-8.546462 8.507077-17.053538 17.053538-17.053539h19.849846v2.835692h-19.849846z m-156.041846-5.671384c5.671385 0 11.342769 2.835692 11.342769 11.342769v2.835692c0 5.710769-5.671385 8.546462-11.342769 8.546462H365.489231l11.342769 11.342769v5.671385h-2.835692l-14.178462-17.014154v-5.710769h11.342769c5.671385 0 8.507077-2.835692 8.507077-5.671385V441.107692c0-2.835692-2.835692-5.671385-8.507077-5.671384H351.310769v34.067692c0 2.835692 0 2.835692-2.835692 2.835692s-2.835692-2.835692-2.835692-2.835692v-36.903385h28.356923z m36.903385 2.835692l17.014154 36.903385h-5.671385l-2.835692-11.34277h-11.34277c-2.835692 0-2.835692-2.835692-2.835692-2.835692h14.178462l-8.507077-17.053538-17.053539 31.232h-2.835692v-2.835693l17.053538-34.067692h2.835693c-2.835692 0-2.835692 0 0 0-2.835692 0 0 0 0 0z" fill="#FFFFFF" p-id="6995"></path><path d="M555.52 435.396923a2.835692 2.835692 0 1 0 5.671385 0 2.835692 2.835692 0 0 0-5.671385 0z" fill="#FFFFFF" p-id="6996"></path></svg>