<?xml version="1.0" standalone="no"?><!DOCTYPE svg PUBLIC "-//W3C//DTD SVG 1.1//EN" "http://www.w3.org/Graphics/SVG/1.1/DTD/svg11.dtd"><svg t="1534505652932" class="icon" style="" viewBox="0 0 1024 1024" version="1.1" xmlns="http://www.w3.org/2000/svg" p-id="3425" xmlns:xlink="http://www.w3.org/1999/xlink" width="200" height="200"><defs><style type="text/css"></style></defs><path d="M929.478791 783.276218C910.022711 778.752 889.345423 775.931345 868.446097 775.931345 832.725735 775.931345 800.224924 782.159127 776.217065 792.157092 773.60812 793.4976 771.720796 796.2624 771.720796 799.418182 771.720796 800.5632 772.0261 801.736145 772.470176 802.7136 775.301159 810.980073 770.610606 819.944727 747.407636 825.055418 713.019503 832.651637 691.259779 868.286837 678.853407 880.128 664.254409 894.063708 623.038605 902.609455 629.227915 894.315055 634.084997 887.808 652.652923 867.588655 663.921351 845.693673 674.024079 826.172508 683.016618 820.614982 695.395238 801.959563 699.003355 796.457892 713.075012 777.271855 717.182716 762.079418 721.817758 747.222108 720.235737 728.594618 722.039796 720.914618 724.537723 709.883345 734.945755 685.865892 735.695133 672.321163 736.166963 664.697018 703.860435 683.268655 688.539814 683.268655 673.219193 683.268655 658.259382 674.052655 644.576291 673.3824 627.645895 672.572508 616.738277 686.536145 601.389902 684.078545 592.647156 682.682182 585.264392 674.946327 569.971526 674.359855 548.184048 673.522037 521.53949 686.536145 471.525431 684.888437 422.316261 683.296582 376.909492 622.498908 370.692428 612.780218 363.420684 601.441745 354.539164 601.441745 344.880511 610.322618 335.194104 619.259345 323.259562 612.277527 319.873483 606.301092 313.406626 594.962618 296.143172 561.785018 269.415348 554.886982 232.473778 545.252073 213.794832 575.3856 216.18174 599.403055 218.679667 623.755637 234.333346 630.569892 241.605091 643.556073 248.84908 656.514327 252.59597 664.864582 266.251307 670.6176 275.937714 674.639127 279.545831 680.671418 276.659339 688.686545 274.105901 695.612508 264.058681 697.176437 257.397543 697.539492 243.325884 698.209745 233.472948 694.355782 226.284468 689.719855 217.902535 684.385745 211.102622 676.929163 203.803122 664.306037 195.337924 650.3424 182.015644 644.282182 166.556249 644.282182 159.145731 644.282182 152.207044 646.237092 146.073244 649.448727 121.732329 662.099782 92.811881 669.640145 61.671052 669.640145L26.561295 669.640145C9.464369 618.756655 0.194283 564.214692 0.194283 507.466473 0.194283 227.272145 226.339979 0.139636 505.386226 0.139636 784.376963 0.139636 1010.550413 227.272145 1010.550413 507.466473 1010.550413 609.149673 980.769567 703.823127 929.478791 783.276218L929.478791 783.276218ZM790.455253 372.493963C785.459399 389.362037 778.381937 410.866037 746.797031 427.175563 742.189744 429.549382 740.441194 425.667492 742.5228 422.009018 754.485098 401.650037 756.566704 396.539345 760.091558 388.496292 764.920883 376.738908 767.474319 360.0384 757.815667 325.129308 738.831419 256.456145 699.169882 164.687127 670.360453 134.888727 642.550194 106.179491 592.20308 98.080582 546.657536 109.810036 529.865914 114.110836 497.087556 131.258182 436.249145 117.517964 330.919873 93.696 315.349459 146.646109 309.298924 169.686109 303.276143 192.754036 288.732654 258.3552 288.732654 258.3552 283.931083 285.025745 277.575246 331.440873 441.078471 362.747345 517.237504 377.297455 521.123168 397.097892 524.481493 411.284945 530.504274 436.782545 540.162927 451.360582 551.070542 458.6496 561.950405 465.938618 551.070542 471.970908 538.969471 473.199708 506.551925 476.578908 386.679163 442.0608 315.76578 401.594182 257.702844 365.958982 256.731429 333.898473 270.053708 306.669382 182.376456 297.202037 116.597701 314.963782 104.663159 356.631273 84.180154 428.125092 261.227698 550.334837 462.838194 611.607273 674.384892 675.979637 891.982125 631.072582 916.15651 497.468508 927.175145 436.8384 876.272937 391.931345 790.455253 372.493963L790.455253 372.493963ZM592.286345 183.370473C581.822804 183.0912 571.969868 181.583127 563.532425 179.125527 562.505499 178.874182 561.756121 178.036364 561.756121 177.030982 561.756121 175.997673 562.505499 175.104 563.532425 174.852654 583.737883 170.1888 597.365463 162.5088 596.394047 155.219782 595.117328 145.640727 568.694809 140.418327 537.38745 143.574109 533.945862 143.937164 530.587537 144.384 527.367987 144.886691L527.118195 144.886691C526.202286 144.886691 525.480663 144.216436 525.480663 143.350691 525.480663 142.764218 525.841476 142.205673 526.39657 141.982254 537.692754 135.977891 554.595396 131.1744 573.884946 129.191564 579.685689 128.605091 585.347658 128.297891 590.815343 128.242036 591.786758 128.242036 592.730421 128.242036 593.701837 128.269964 626.063874 129.024 652.014563 141.954327 651.625998 157.146764 651.237431 172.3392 624.703891 184.096582 592.286345 183.370473L592.286345 183.370473ZM466.057746 241.710545C407.717263 245.955492 401.638973 252.267055 390.731356 263.996508 375.299717 280.4736 355.010994 242.604218 355.010994 242.604218 342.798905 240.006982 328.061133 220.290327 335.998992 201.886254 343.881341 183.649746 358.369319 189.123491 362.921099 194.736873 368.444293 201.634909 380.240062 212.973382 395.560684 212.554473 410.85355 212.191418 428.533326 208.951855 453.179542 208.951855 478.158817 208.951855 494.950439 218.307492 495.921857 226.322618 496.726743 233.192727 493.868003 239.699782 466.057746 241.710545L466.057746 241.710545ZM567.529107 744.6528C575.883289 749.595927 588.872509 760.0128 600.279712 750.768873 605.025774 746.970763 607.829004 744.457308 614.379125 736.861092 614.712181 736.525963 615.128502 736.330473 615.572578 736.330473 615.9889 736.330473 616.349712 736.498037 616.627259 736.749382 619.236207 739.262837 623.732476 747.808582 618.237034 758.700218 615.184013 764.425308 611.881198 768.502692 605.94168 773.250327 598.86422 778.975418 584.959091 785.566255 565.891578 773.445818 555.650077 766.910837 555.039472 764.732508 540.912304 766.547782 530.809575 767.860363 526.812891 757.638982 530.393254 749.121163 534.05688 740.6592 548.961182 733.761163 567.529107 744.6528L567.529107 744.6528Z" p-id="3426"></path></svg>