<?xml version="1.0" standalone="no"?><!DOCTYPE svg PUBLIC "-//W3C//DTD SVG 1.1//EN" "http://www.w3.org/Graphics/SVG/1.1/DTD/svg11.dtd"><svg t="1548920901051" class="icon" style="" viewBox="0 0 1024 1024" version="1.1" xmlns="http://www.w3.org/2000/svg" p-id="7437" xmlns:xlink="http://www.w3.org/1999/xlink" width="200" height="200"><defs><style type="text/css"></style></defs><path d="M723.022769 300.110769s-0.472615 26.781538-0.472615 29.696c-13.312-4.371692-108.859077-35.249231-198.577231-38.478769-75.972923-2.638769-179.751385-6.301538-326.380308 83.889231-28.356923 18.116923-108.150154 67.426462-145.762461 160.531692-8.073846 19.456-18.432 63.369846-8.073846 104.487385 4.568615 17.998769 12.878769 35.997538 24.182154 52.263384 25.442462 36.588308 68.174769 60.888615 114.294153 64.984616 64.984615 5.710769 114.294154-23.433846 131.702154-78.020923 12.012308-37.769846 0-93.065846-46.08-121.304616-37.494154-23.000615-77.981538-17.723077-101.297231-2.363077-20.322462 13.469538-31.901538 34.382769-31.586461 57.383385 0.393846 40.684308 35.564308 62.345846 60.731077 62.345846 7.325538 0 14.769231-1.181538 23.118769-3.938461 9.491692-2.678154 19.456-9.531077 19.456-21.819077 0-17.723077-16.974769-21.661538-24.576-20.361847-4.253538 0.748308-6.577231 2.914462-17.289846 3.544616-2.914462-0.315077-17.565538-4.568615-17.565539-20.48v-0.196923c0.315077-17.998769 19.298462-26.348308 37.336616-24.733539 47.261538 4.096 69.789538 59.588923 41.708308 96.177231-26.781538 34.658462-112.088615 33.949538-145.92-29.853538-38.045538-72.034462 18.589538-162.776615 127.330461-144.029539 48.600615 8.349538 122.368 51.987692 149.858462 152.654769h67.190153c-8.349538-25.757538-12.996923-99.958154 62.503385-99.958153 82.983385 0 93.499077 58.407385 116.775385 99.958153h71.128615c-18.747077-26.781538-31.744-56.635077-27.648-81.683692 8.192-49.467077 58.092308-26.899692 120.595692-25.442461 97.28 0.590769 149.425231-39.542154 150.843077-40.96 5.435077-4.568615 9.531077-23.158154 10.279385-25.915077 1.890462-7.483077-4.686769-3.544615-4.686769-3.544616-12.721231 7.640615-44.622769 22.252308-74.476308 22.843077-37.021538 0.748308-111.537231-37.179077-119.453538-41.275077-0.393846-0.590769 0.157538 1.772308-16.068924-37.297231 129.378462 85.307077 173.134769 59.273846 212.48 31.744 1.181538-0.866462 6.301538-4.253538 5.277539-8.349538-20.204308-70.380308-32.768-91.766154-50.491077-101.848615-54.153846-31.625846-182.941538-50.806154-189.085538-51.672616 0.157538-0.157538-1.299692-0.433231-1.299693 1.024z m88.379077 106.535385c0.866462-29.538462 25.6-54.153846 56.950154-53.129846 48.836923 1.772308 71.404308 61.912615 35.682462 95.428923-35.406769 33.240615-94.247385 6.734769-92.632616-42.299077z m56.477539-37.021539a38.439385 38.439385 0 1 0 37.179077 39.778462 38.636308 38.636308 0 0 0-37.179077-39.778462z m6.301538 42.141539c-22.528 0-22.528-22.843077 0-22.843077s22.528 22.843077 0 22.843077z" fill="#56606F" p-id="7438"></path></svg>