<?xml version="1.0" standalone="no"?><!DOCTYPE svg PUBLIC "-//W3C//DTD SVG 1.1//EN" "http://www.w3.org/Graphics/SVG/1.1/DTD/svg11.dtd"><svg t="1548765721656" class="icon" style="" viewBox="0 0 1024 1024" version="1.1" xmlns="http://www.w3.org/2000/svg" p-id="7435" xmlns:xlink="http://www.w3.org/1999/xlink" width="200" height="200"><defs><style type="text/css"></style></defs><path d="M944.836923 483.446154h-140.760615c-1.693538 0-3.426462 0-5.159385-0.118154-3.347692-0.236308-3.938462-0.787692-4.608-3.859692-1.299692-5.710769-2.678154-11.421538-3.780923-17.132308a120.398769 120.398769 0 0 0-9.885538-29.302154c-3.229538-6.695385-6.065231-13.587692-9.767385-20.046769a238.276923 238.276923 0 0 0-13.351385-19.928615c-4.292923-5.947077-8.940308-11.618462-13.587692-17.329231a87.670154 87.670154 0 0 0-7.443692-8.073846 232.448 232.448 0 0 0-45.528616-34.38277 218.230154 218.230154 0 0 0-51.948307-21.307077 211.140923 211.140923 0 0 0-63.724308-7.325538 229.888 229.888 0 0 0-30.916923 3.229538c-12.996923 2.441846-25.954462 5.12-38.203077 10.24-3.702154 1.575385-4.450462 1.181538-6.537846-2.205538-6.774154-11.145846-13.666462-22.252308-20.401231-33.437538-3.780923-6.262154-7.325538-12.603077-11.027692-18.904616a2285.686154 2285.686154 0 0 0-8.546462-14.493538l-15.753846-26.427077-13.036308-21.661539a48.049231 48.049231 0 0 1-1.45723-2.56c-2.481231-4.568615-2.048-5.828923 2.953846-7.916307 4.765538-1.969231 9.570462-3.938462 14.336-5.828923 13.154462-5.316923 26.781538-9.570462 40.566154-13.115077 9.688615-2.481231 19.652923-4.056615 29.538461-5.986462a332.642462 332.642462 0 0 1 71.798154-6.065231c11.815385 0.275692 23.630769 1.496615 35.367385 2.481231 5.592615 0.433231 11.185231 1.063385 16.738461 1.969231 7.404308 1.181538 14.729846 2.599385 22.055385 4.096 3.465846 0.669538 3.662769 0.984615 4.096 4.411077 1.024 8.861538 2.481231 17.723077 5.001846 26.269538 2.441846 8.192 6.419692 15.832615 10.633846 23.236923 8.428308 14.808615 19.692308 27.175385 33.673846 37.179077 11.736615 8.388923 24.615385 14.651077 38.596923 19.062154 15.911385 5.001846 32.059077 5.238154 48.324923 4.883692 2.56-0.039385 5.12-0.945231 7.640616-1.378461 10.594462-1.693538 20.873846-4.332308 30.404923-9.097846 0.393846-0.196923 0.787692-0.393846 1.181538-0.512 4.686769-1.969231 5.513846-1.811692 9.058462 1.890461 2.993231 3.150769 6.144 6.301538 8.861538 9.649231 8.546462 10.515692 17.486769 20.795077 25.166769 31.901538 8.743385 12.721231 17.132308 25.796923 23.985231 39.660308a366.276923 366.276923 0 0 1 19.534769 46.395077c2.363077 7.089231 3.780923 14.572308 6.340924 21.661539 3.150769 8.664615 4.135385 17.644308 6.104615 26.505846 2.205538 10.043077 4.411077 20.204308 3.741538 30.64123l-0.315077 3.032616z m0.236308 57.619692c0 3.702154 0.315077 6.892308-0.039385 10.043077-0.551385 5.12-1.496615 10.200615-2.363077 15.281231-0.630154 3.977846-1.181538 7.995077-2.126769 11.933538-2.166154 9.452308-4.568615 18.904615-6.852923 28.356923-3.387077 14.178462-8.782769 27.687385-14.375385 41.078154-6.774154 16.305231-14.966154 31.980308-24.457846 46.946462a354.382769 354.382769 0 0 1-45.056 57.501538c-1.614769 1.614769-3.544615 1.929846-5.513846 0.827077a100.824615 100.824615 0 0 0-20.48-7.561846 94.286769 94.286769 0 0 0-22.843077-3.938462c-6.183385-0.196923-12.406154-0.118154-18.628923-0.118153a97.28 97.28 0 0 0-20.401231 2.914461c-13.036308 2.835692-25.048615 7.876923-36.430769 14.572308a120.674462 120.674462 0 0 0-53.248 66.126769c-1.890462 5.789538-2.796308 11.894154-3.977846 17.880615-0.708923 3.544615-1.181538 7.168-1.654154 10.752-0.196923 1.693538-1.417846 2.363077-2.914462 2.63877-3.072 0.669538-6.144 1.339077-9.294769 1.851077-4.804923 0.787692-9.609846 1.575385-14.414769 2.284307-5.12 0.708923-10.24 1.339077-15.36 1.969231-2.993231 0.433231-5.986462 0.905846-9.019077 1.142154-8.152615 0.590769-16.344615 1.378462-24.576 1.417846-10.633846 0.039385-21.267692-0.590769-31.940923-0.945231-2.048-0.078769-4.056615-0.078769-6.065231-0.275692a1936.344615 1936.344615 0 0 1-26.151384-2.993231 173.843692 173.843692 0 0 1-12.327385-1.969231 572.100923 572.100923 0 0 1-21.858462-4.647384 277.385846 277.385846 0 0 1-19.022769-5.198769 734.72 734.72 0 0 1-27.254154-9.216c-5.080615-1.851077-10.043077-4.056615-15.005538-6.22277-1.536-0.669538-2.953846-1.575385-4.726154-2.599384l7.561846-12.957539 50.609231-84.992c4.962462-8.270769 9.846154-16.620308 14.769231-24.969846 1.654154-2.756923 2.835692-3.229538 6.025846-1.890461 9.452308 3.859692 19.298462 6.577231 29.223385 8.743384 8.546462 1.890462 17.289846 3.032615 25.993846 3.899077 8.861538 0.827077 17.841231 1.417846 26.781538 1.181539 9.294769-0.236308 18.707692-0.669538 27.923692-2.63877 8.822154-1.851077 17.880615-3.032615 26.505847-5.55323 9.728-2.835692 19.298462-6.459077 28.632615-10.358154 14.572308-6.065231 28.16-13.981538 40.763077-23.276308 12.169846-8.979692 23.355077-19.062154 33.319385-30.286769 11.421538-12.839385 21.070769-26.781538 29.10523-41.787077 4.962462-9.294769 9.137231-18.904615 12.484923-28.750769 2.363077-7.128615 3.977846-14.493538 5.828923-21.779693 0.787692-3.387077 1.260308-6.813538 1.969231-10.24 0.905846-3.938462 1.299692-4.174769 5.513846-4.174769H945.112615zM374.153846 222.877538c1.102769 1.063385 2.599385 1.851077 3.229539 3.072 2.126769 4.253538 5.986462 7.483077 7.08923 12.406154 0.354462 1.614769 2.087385 2.953846 2.993231 4.529231 6.380308 10.555077 12.681846 21.188923 18.983385 31.822769l22.055384 37.336616c1.890462 3.150769 3.938462 6.144 5.828923 9.294769 4.529231 7.758769 9.137231 15.478154 13.469539 23.355077 1.969231 3.544615 1.811692 4.056615-1.299692 6.852923-4.292923 3.938462-8.979692 7.483077-13.115077 11.539692-5.12 5.041231-10.161231 10.24-14.769231 15.753846-5.828923 6.892308-11.382154 14.020923-16.738462 21.267693-2.875077 3.938462-5.238154 8.349538-7.60123 12.603077a225.043692 225.043692 0 0 0-7.995077 15.36c-2.363077 5.041231-4.174769 10.318769-6.22277 15.517538l-2.284307 6.301539c-4.923077 14.217846-7.955692 28.790154-9.058462 43.716923-0.472615 6.852923-0.945231 13.666462-0.945231 20.48 0 18.865231 2.953846 37.257846 8.310154 55.335384 4.135385 13.863385 9.964308 26.978462 16.738462 39.778462 4.608 8.782769 10.161231 16.896 15.911384 24.851692 7.089231 9.846154 15.202462 18.904615 24.221539 27.175385 4.292923 3.899077 8.664615 7.68 13.154461 11.421538 3.623385 3.072 4.056615 5.001846 1.496616 8.861539-1.969231 2.953846-4.017231 5.789538-5.789539 8.822153-4.411077 7.483077-8.664615 15.123692-13.115077 22.60677-4.923077 8.349538-10.082462 16.541538-15.005538 24.891077-7.876923 13.154462-15.556923 26.387692-23.355077 39.542153l-0.866461 1.457231-11.815385 18.944c-2.205538 3.544615-4.332308 4.135385-7.640615 1.575385-9.176615-7.049846-18.353231-14.020923-27.254154-21.267692a239.655385 239.655385 0 0 1-17.99877-16.265847c-7.483077-7.483077-14.572308-15.438769-21.740307-23.236923-2.284308-2.441846-4.686769-4.923077-6.774154-7.561846a401.368615 401.368615 0 0 1-9.649231-12.839384c-4.214154-5.828923-8.507077-11.579077-12.484923-17.565539a225.752615 225.752615 0 0 1-10.24-16.856615 1096.546462 1096.546462 0 0 1-14.966154-28.75077c-1.575385-3.150769-2.638769-6.498462-3.938461-9.767384-1.339077-3.190154-2.756923-6.380308-4.017231-9.649231a879.458462 879.458462 0 0 1-5.710769-15.36c-2.205538-6.065231-1.417846-8.467692 4.371692-11.618461 6.301538-3.465846 10.870154-8.664615 16.068923-13.272616 6.262154-5.513846 10.752-12.406154 15.36-19.101538 4.883692-7.010462 8.467692-14.848 11.697231-22.764308 6.852923-16.777846 8.428308-34.185846 6.971077-51.830154a108.701538 108.701538 0 0 0-12.130462-41.984 136.428308 136.428308 0 0 0-22.094769-30.680615c-4.253538-4.450462-9.491692-8.073846-14.296615-12.051693-0.984615-0.787692-2.166154-1.457231-3.190154-2.166153-4.174769-2.953846-4.726154-4.332308-3.190154-9.29477 1.142154-3.584 2.441846-7.128615 3.780923-10.633846 2.323692-6.183385 4.332308-12.484923 7.089231-18.432 4.686769-10.003692 9.767385-19.849846 14.848-29.656615 2.166154-4.253538 4.529231-8.428308 7.128615-12.406154 5.789538-8.822154 11.697231-17.565538 17.683692-26.269538 7.955692-11.500308 17.329231-21.937231 26.663385-32.33477 9.373538-10.476308 19.613538-20.086154 30.562462-28.947692 8.388923-6.813538 17.053538-13.272615 25.6-19.889231 0.984615-0.787692 1.929846-1.732923 2.953846-2.481231 0.787692-0.512 1.732923-0.866462 3.032615-1.536z m-295.069538 289.35877c0-1.378462 0.157538-2.756923 0-4.17477-1.220923-9.767385 1.851077-18.904615 5.435077-27.648 4.411077-10.791385 11.185231-20.361846 19.810461-28.632615 7.955692-7.640615 17.329231-13.351385 27.372308-17.998769 2.953846-1.339077 6.301538-1.969231 9.452308-2.993231 9.688615-3.150769 19.692308-3.938462 29.814153-3.426461 14.572308 0.787692 28.041846 4.804923 40.487385 12.130461 9.964308 5.828923 18.628923 13.115077 25.481846 22.252308 5.435077 7.246769 9.570462 15.123692 12.406154 23.709538a78.493538 78.493538 0 0 1 3.859692 37.021539c-0.866462 5.710769-1.260308 11.421538-3.465846 16.81723-5.080615 12.721231-11.854769 24.418462-22.212923 33.949539a94.523077 94.523077 0 0 1-25.324308 16.462769c-13.548308 6.144-27.766154 8.270769-42.496 7.325539a87.827692 87.827692 0 0 1-47.300923-17.408c-14.020923-10.279385-23.079385-23.867077-29.341538-39.50277a60.691692 60.691692 0 0 1-3.938462-27.884307zM790.449231 79.163077c6.301538 0.157538 12.603077-0.551385 18.904615 1.024 15.044923 3.741538 28.553846 10.003692 40.172308 20.204308 9.294769 8.152615 16.462769 17.801846 21.582769 28.829538 5.592615 12.051692 7.876923 24.733538 7.049846 37.888-1.772308 29.932308-15.714462 52.972308-42.062769 68.923077a79.950769 79.950769 0 0 1-27.884308 10.633846c-9.137231 1.575385-18.353231 2.717538-27.884307 1.024-7.483077-1.299692-14.887385-2.599385-22.016-5.277538a86.921846 86.921846 0 0 1-31.507693-20.55877 83.456 83.456 0 0 1-20.243692-33.595076 83.928615 83.928615 0 0 1 29.144615-91.254154c8.467692-6.813538 18.116923-11.382154 28.356923-14.729846 8.546462-2.796308 17.329231-4.135385 26.387693-3.15077z m-0.196923 866.067692h-4.726154c-18.195692 0.078769-33.949538-6.262154-48.206769-16.777846a103.778462 103.778462 0 0 1-19.298462-19.022769c-3.032615-3.820308-4.844308-8.507077-7.128615-12.839385-0.393846-0.748308-0.512-1.575385-0.866462-2.363077-6.892308-14.217846-8.231385-29.341538-6.301538-44.583384 1.969231-15.005538 7.601231-28.829538 17.565538-40.802462a110.276923 110.276923 0 0 1 12.681846-12.445538c5.435077-4.726154 11.500308-8.428308 17.99877-11.421539a83.377231 83.377231 0 0 1 40.88123-8.743384c9.255385 0.275692 18.235077 2.048 27.096616 4.844307 13.233231 4.174769 23.945846 12.012308 34.028307 20.795077 3.072 2.678154 5.513846 6.065231 7.916308 9.373539 7.010462 9.531077 11.972923 19.849846 14.454154 31.468307 2.520615 12.091077 2.56 24.064 0.472615 36.115693-0.708923 4.096-2.481231 7.995077-4.056615 11.894154-2.756923 6.852923-5.710769 13.705846-10.161231 19.692307a94.247385 94.247385 0 0 1-25.993846 23.04 80.738462 80.738462 0 0 1-32.098462 11.500308c-4.647385 0.669538-9.452308 0.078769-14.25723 0.078769V945.230769z" fill="#56606F" p-id="7436"></path></svg>