<?xml version="1.0" encoding="UTF-8" standalone="no"?>
<svg
   xmlns:dc="http://purl.org/dc/elements/1.1/"
   xmlns:cc="http://creativecommons.org/ns#"
   xmlns:rdf="http://www.w3.org/1999/02/22-rdf-syntax-ns#"
   xmlns:svg="http://www.w3.org/2000/svg"
   xmlns="http://www.w3.org/2000/svg"
   version="1.1"
   id="svg2"
   viewBox="0 0 433.78322 444.34766"
   height="125.40479mm"
   width="122.42326mm">
  <defs
     id="defs4" />
  <metadata
     id="metadata7">
    <rdf:RDF>
      <cc:Work
         rdf:about="">
        <dc:format>image/svg+xml</dc:format>
        <dc:type
           rdf:resource="http://purl.org/dc/dcmitype/StillImage" />
        <dc:title></dc:title>
      </cc:Work>
    </rdf:RDF>
  </metadata>
  <g
     transform="translate(-147.1358,-235.7852)"
     id="layer1">
    <g
       id="g4295">
      <path
         style="opacity:1;fill:#9bcb53;fill-opacity:1;stroke:none;stroke-width:19.51211357;stroke-linecap:round;stroke-linejoin:round;stroke-miterlimit:4;stroke-dasharray:none;stroke-opacity:1"
         d="m 314.91705,235.7852 c -30.84053,0 -55.66992,24.82939 -55.66992,55.66992 l 0,61.95704 -56.4414,0 c -30.84053,0 -55.66993,24.82939 -55.66993,55.66992 l 0,215.38281 c 0,30.84053 24.8294,55.66797 55.66993,55.66797 l 210.33203,0 c 30.84053,0 55.66992,-24.82744 55.66992,-55.66797 l 0,-61.95898 56.44141,0 c 30.84053,0 55.66992,-24.82744 55.66992,-55.66797 l 0,-215.38282 c 0,-30.84053 -24.82941,-55.66992 -55.66992,-55.66992 l -210.33204,0 z m 19.95508,55.55078 170.42188,0 c 13.07916,0 23.60937,10.53022 23.60937,23.60938 l 0,168.40234 c 0,13.07916 -10.53021,23.60938 -23.60937,23.60938 l -36.48633,0 0,-0.32031 -52.01563,0.17382 0,0.14649 -0.24414,0 0,55.54883 0.24414,0 0,38.46875 c 0,13.07916 -10.53021,23.60937 -23.60937,23.60937 l -170.42188,0 c -13.07916,0 -23.60937,-10.53021 -23.60937,-23.60937 l 0,-168.40235 c 0,-13.07916 10.53021,-23.60937 23.60937,-23.60937 l 20.38282,0 0,-0.10547 67.85937,-0.22656 0,-66.55079 0.25977,0 0,-27.13476 c 0,-13.07916 10.53021,-23.60938 23.60937,-23.60938 z"
         id="rect4149" />
      <path
         style="opacity:1;fill:#f5d34b;fill-opacity:1;stroke:none;stroke-width:50;stroke-linecap:round;stroke-linejoin:round;stroke-miterlimit:4;stroke-dasharray:none;stroke-opacity:1"
         d="m 370.73441,334.8936 c -9.73791,0 -17.57812,7.83826 -17.57812,17.57617 l 0,95.60742 c 0,0.74245 0.0599,1.46781 0.14844,2.18555 l -93.85547,0 c -9.73792,0 -17.57617,7.84021 -17.57617,17.57813 l 0,95.60546 c 0,9.73792 7.83825,17.57813 17.57617,17.57813 l 96.86133,0 c 9.73791,0 17.57812,-7.84021 17.57812,-17.57813 l 0,-95.60546 c 0,-0.74259 -0.0599,-1.46963 -0.14844,-2.1875 l 94.86524,0 c 9.73791,0 17.57622,-7.83826 17.57622,-17.57618 l 0,-95.60742 c -1e-4,-9.73791 -7.83831,-17.57617 -17.57622,-17.57617 l -97.8711,0 z"
         id="rect4258" />
    </g>
  </g>
</svg>
