<?xml version="1.0" standalone="no"?><!DOCTYPE svg PUBLIC "-//W3C//DTD SVG 1.1//EN" "http://www.w3.org/Graphics/SVG/1.1/DTD/svg11.dtd"><svg t="1548920727293" class="icon" style="" viewBox="0 0 1024 1024" version="1.1" xmlns="http://www.w3.org/2000/svg" p-id="7105" xmlns:xlink="http://www.w3.org/1999/xlink" width="200" height="200"><defs><style type="text/css"></style></defs><path d="M244.578462 285.538462a241.309538 241.309538 0 0 0-133.592616 53.484307 328.270769 328.270769 0 0 0-34.973538 35.170462c-11.500308 14.690462-21.543385 30.326154-28.75077 44.780307a249.383385 249.383385 0 0 0-23.630769 83.968 280.733538 280.733538 0 0 0 2.638769 64.354462c3.465846 19.692308 11.106462 43.874462 19.456 61.124923l2.402462 5.041231 19.652923-15.084308c31.704615-24.260923 29.971692-22.843077 29.380923-24.064a291.249231 291.249231 0 0 1-9.688615-31.271384 193.220923 193.220923 0 0 1-0.039385-74.83077c3.780923-18.510769 14.139077-43.716923 24.536616-59.667692 2.56-3.938462 3.820308-6.340923 3.426461-6.852923a1868.642462 1868.642462 0 0 1-27.648-36.706462c0-0.196923 14.414769-0.393846 32.019692-0.393846h31.980308l4.450462-3.387077c12.169846-9.176615 33.004308-20.283077 47.576615-25.324307a223.310769 223.310769 0 0 1 34.264615-8.388923c11.145846-1.654154 39.384615-1.654154 50.412308 0 29.223385 4.332308 56.398769 15.320615 80.029539 32.334769l6.695384 4.765538 41.629539-0.118154 41.668923-0.196923-7.010462-8.822154a301.292308 301.292308 0 0 0-37.651692-37.730461A239.734154 239.734154 0 0 0 331.145846 294.596923a219.766154 219.766154 0 0 0-68.883692-9.452308c-8.270769 0.078769-16.226462 0.196923-17.683692 0.354462zM107.52 400.777846c4.056615 5.356308 8.900923 11.579077 10.712615 13.942154 1.851077 2.363077 19.534769 25.481846 39.305847 51.436308l40.054153 52.420923 4.135385 5.316923-22.134154 16.935384-44.307692 34.028308-37.336616 28.475077c-8.270769 6.301538-22.134154 16.817231-30.798769 23.512615-8.664615 6.695385-27.175385 20.952615-41.235692 31.704616-14.020923 10.791385-25.6 19.810462-25.757539 20.164923-0.118154 0.315077 33.870769 0.590769 80.344616 0.590769H161.083077l6.104615-4.804923a5658.387692 5658.387692 0 0 1 93.853539-71.443692c0.433231 0 12.484923 15.281231 26.781538 33.988923l29.184 38.203077 3.229539 4.056615h64.512c35.446154 0 64.472615-0.196923 64.472615-0.472615 0-0.512-10.003692-13.784615-46.828308-61.755077-32.807385-42.771692-58.131692-76.366769-58.210461-77.154462-0.039385-0.827077 43.086769-34.422154 82.786461-64.43323 8.507077-6.459077 32.610462-24.891077 81.447385-62.385231 12.721231-9.767385 24.260923-18.589538 25.678769-19.771077l2.56-2.126769-80.738461-0.039385h-80.738462l-45.568 34.816c-25.048615 19.180308-45.725538 34.934154-46.001231 34.855385-0.433231 0-3.977846-4.608-33.476923-43.323077l-19.928615-26.308923-65.063385-0.039385h-64.984615l7.325538 9.609846z m354.185846 56.241231c-13.863385 10.633846-25.127385 19.534769-25.127384 19.810461l1.890461 8.034462 1.772308 7.601231 5.553231-5.513846a144.226462 144.226462 0 0 1 47.931076-30.72 152.024615 152.024615 0 0 0-6.419692-18.589539c-0.196923 0-11.697231 8.704-25.6 19.377231z m91.687385-6.852923a222.089846 222.089846 0 0 0-52.696616 10.633846 148.755692 148.755692 0 0 0-42.338461 24.182154c-19.101538 16.305231-33.319385 40.290462-37.572923 63.291077-3.150769 17.211077 1.299692 32.059077 13.784615 45.095384 18.944 20.046769 55.296 30.247385 107.362462 30.247385 27.884308 0 56.635077-2.914462 75.18523-7.561846 31.744-7.995077 51.790769-22.212923 56.438154-39.896616a35.682462 35.682462 0 0 0 0.984616-5.356307v-1.536h-101.809231l-1.969231 3.741538a38.084923 38.084923 0 0 1-15.281231 15.123693c-4.962462 2.441846-5.041231 2.441846-13.154461 2.441846-9.609846 0-15.36-1.457231-20.361846-5.12a24.260923 24.260923 0 0 1-7.916308-14.060308c-0.787692-4.135385-0.551385-17.565538 0.433231-20.007385 0.393846-1.024 5.710769-1.102769 82.471384-1.102769h82.038154l1.299693-5.12c2.638769-9.846154 3.032615-12.957538 3.032615-23.04a58.998154 58.998154 0 0 0-3.032615-22.252308c-8.428308-26.387692-33.476923-42.929231-73.176616-48.403692a297.235692 297.235692 0 0 0-53.720615-1.299692z m22.921846 37.651692c5.12 1.693538 10.633846 7.246769 12.051692 12.051692a36.115692 36.115692 0 0 1 0.315077 15.714462l-0.708923 3.268923H527.163077v-1.851077c0-2.914462 1.772308-8.940308 3.859692-13.154461a32.098462 32.098462 0 0 1 20.361846-16.423385c6.340923-1.693538 19.259077-1.496615 24.891077 0.393846z m301.252923-36.430769a152.615385 152.615385 0 0 0-65.969231 29.499077c-1.772308 1.220923-2.796308 1.772308-2.796307 1.181538 0-0.472615 0.905846-5.710769 1.96923-11.539692 1.102769-5.907692 1.969231-11.185231 1.969231-11.815385 0-1.024-3.741538-1.102769-48.600615-0.905846l-48.679385 0.157539-4.450461 20.795077c-2.481231 11.421538-6.459077 30.089846-8.979693 41.39323l-9.452307 43.874462-11.145847 51.554461-0.354461 1.496616h51.081846c28.120615 0 51.081846-0.078769 51.081846-0.196923 0-0.984615 17.053538-90.978462 17.447385-92.317539 0.590769-1.929846 11.972923-13.430154 16.305231-16.541538 9.412923-6.695385 18.786462-9.531077 27.490461-8.270769 11.579077 1.575385 16.029538 6.971077 16.029539 19.37723 0 7.876923-0.827077 13.351385-7.483077 49.821539a6776.477538 6776.477538 0 0 0-7.955693 44.347077c-0.315077 1.102769 2.363077 1.181538 49.427693 1.181538h49.860923l0.315077-1.536 4.923077-25.639384c2.520615-13.390769 5.907692-30.877538 7.483076-38.99077 4.017231-20.598154 5.198769-31.310769 4.726154-43.874461-0.551385-14.926769-2.796308-23.512615-8.428307-32.216616-7.719385-11.972923-21.070769-19.062154-40.487385-21.42523a167.266462 167.266462 0 0 0-35.328 0.590769z m-452.135385 151.630769a179.357538 179.357538 0 0 1-6.931692 13.075692l-3.820308 6.419693 6.577231 8.585846 19.101539 25.088c6.892308 9.058462 12.721231 16.502154 12.996923 16.541538 0.787692 0 10.043077-13.193846 15.438769-22.134153 4.450462-7.246769 13.863385-24.851692 13.863385-25.836308a27.963077 27.963077 0 0 0-4.726154-1.457231 110.631385 110.631385 0 0 1-44.898462-23.000615l-4.450461-4.056616-3.15077 6.774154z m-258.087384 79.36l-3.150769 2.481231-40.329847 0.315077-40.329846 0.354461 7.207385 7.483077a243.672615 243.672615 0 0 0 78.887384 54.075077 241.388308 241.388308 0 0 0 174.08 5.238154 245.563077 245.563077 0 0 0 73.097847-41.511385c6.695385-5.513846 25.915077-24.182154 25.915077-25.088 0-0.354462-21.740308-0.551385-48.403693-0.551384H345.954462l-6.144 2.914461a182.035692 182.035692 0 0 1-126.306462 10.121847 206.532923 206.532923 0 0 1-36.627692-15.163077 52.105846 52.105846 0 0 0-5.947077-3.111385 22.606769 22.606769 0 0 0-3.623385 2.441846z" fill="#56606F" p-id="7106"></path></svg>