<?xml version="1.0" standalone="no"?><!DOCTYPE svg PUBLIC "-//W3C//DTD SVG 1.1//EN" "http://www.w3.org/Graphics/SVG/1.1/DTD/svg11.dtd"><svg t="1583314167455" class="icon" viewBox="0 0 1024 1024" version="1.1" xmlns="http://www.w3.org/2000/svg" p-id="3635" xmlns:xlink="http://www.w3.org/1999/xlink" width="200" height="200"><defs><style type="text/css"></style></defs><path d="M960 320h-224L588.8 147.2c12.8-12.8 19.2-32 19.2-51.2 0-25.6-12.8-51.2-25.6-70.4C563.2 12.8 537.6 0 512 0s-51.2 12.8-70.4 25.6c-12.8 19.2-25.6 44.8-25.6 70.4 0 19.2 6.4 38.4 19.2 57.6L294.4 320H64c-38.4 0-64 25.6-64 64v576c0 38.4 25.6 64 64 64h896c38.4 0 64-25.6 64-64V384c0-38.4-25.6-64-64-64zM460.8 172.8c12.8 12.8 32 19.2 51.2 19.2 19.2 0 38.4-6.4 57.6-19.2l128 147.2H339.2l121.6-147.2zM128 640h512v64H128v-64z m640 256H128v-64h640v64z m128-384H128V448h768v64z" fill="#0081CE" p-id="3636"></path></svg>