<?xml version="1.0" standalone="no"?><!DOCTYPE svg PUBLIC "-//W3C//DTD SVG 1.1//EN" "http://www.w3.org/Graphics/SVG/1.1/DTD/svg11.dtd"><svg t="1583314180406" class="icon" viewBox="0 0 1024 1024" version="1.1" xmlns="http://www.w3.org/2000/svg" p-id="3769" xmlns:xlink="http://www.w3.org/1999/xlink" width="200" height="200"><defs><style type="text/css"></style></defs><path d="M617.6 475.776a144 144 0 1 0 0 288 144 144 0 0 0 0-288z m0 228.672a86.4 86.4 0 1 1 0.064-172.864 86.4 86.4 0 0 1-0.064 172.864z m209.952 163.008l-83.968-75.392 40.704-40.736 84.032 75.392-40.768 40.736z" fill="#42A1E3" p-id="3770"></path><path d="M737.408 773.952a28.8 28.8 0 1 0 57.6 0 28.8 28.8 0 0 0-57.6 0zM877.76 848.16a28.8 28.8 0 1 1-57.6 0c0-61.984-48.544-28.8 28.8-28.8 16 0 28.8 12.832 28.8 28.8zM386.496 705.888h-115.2a28.864 28.864 0 0 1-28.8-28.8c0-15.84 12.96-28.8 28.8-28.8h115.2a28.8 28.8 0 1 1 0 57.6z m0-173.12h-115.2a28.864 28.864 0 0 1-28.8-28.8c0-15.808 12.96-28.8 28.8-28.8h115.2a28.8 28.8 0 1 1 0 57.6z m345.6-172.96h-460.8a28.864 28.864 0 0 1-28.8-28.8c0-15.84 12.96-28.8 28.8-28.8h460.8a28.8 28.8 0 1 1 0 57.6z" fill="#42A1E3" p-id="3771"></path><path d="M848.064 474.496a28.512 28.512 0 0 1-28.8-28.8v-230.4a28.8 28.8 0 0 0-28.8-28.8h-576a28.8 28.8 0 0 0-28.8 28.8v633.6a28.8 28.8 0 0 0 28.8 28.8h230.4c15.552 0 28.8 13.248 28.8 28.8 0 16.128-13.248 28.8-28.8 28.8h-288a25.792 25.792 0 0 1-11.52-2.304c-1.728-0.576-2.88-1.728-4.608-2.88-12.096-15.552-12.672-19.584-12.672-23.616v-748.8c0-7.488 2.88-14.976 8.64-20.16 5.12-5.76 12.48-8.896 20.16-8.64h691.2c15.84 0 28.8 12.96 28.8 28.8v288c0 16.128-13.248 28.8-28.8 28.8z" fill="#42A1E3" p-id="3772"></path></svg>