<?xml version="1.0" standalone="no"?><!DOCTYPE svg PUBLIC "-//W3C//DTD SVG 1.1//EN" "http://www.w3.org/Graphics/SVG/1.1/DTD/svg11.dtd"><svg t="1583314187449" class="icon" viewBox="0 0 1024 1024" version="1.1" xmlns="http://www.w3.org/2000/svg" p-id="3905" xmlns:xlink="http://www.w3.org/1999/xlink" width="200" height="200"><defs><style type="text/css"></style></defs><path d="M155.428571 0h713.142858v91.428571H155.428571zM868.571429 822.857143L512 1024 155.428571 822.857143V109.714286h713.142858z" fill="#F17F04" p-id="3906"></path><path d="M266.971429 277.942857v-49.371428H411.428571v49.371428h-45.714285v138.971429H312.685714v-138.971429H266.971429zM508.342857 224.914286c53.028571 1.828571 80.457143 34.742857 84.114286 98.742857-1.828571 62.171429-29.257143 95.085714-84.114286 98.742857-53.028571-1.828571-80.457143-34.742857-82.285714-98.742857 3.657143-64 31.085714-96.914286 82.285714-98.742857z m0 45.714285c-20.114286 0-29.257143 18.285714-31.085714 51.2 1.828571 34.742857 10.971429 53.028571 31.085714 54.857143 20.114286 0 31.085714-18.285714 31.085714-54.857143 0-34.742857-10.971429-51.2-31.085714-51.2zM665.6 416.914286h-51.2V228.571429h74.971429c43.885714 0 67.657143 21.942857 67.657142 64 0 43.885714-21.942857 65.828571-65.828571 65.828571h-25.6v58.514286z m0-102.4h21.942857c14.628571 0 20.114286-7.314286 20.114286-21.942857 0-12.8-9.142857-20.114286-27.428572-20.114286h-14.628571v42.057143zM405.942857 789.942857v-45.714286c25.6 29.257143 54.857143 45.714286 87.771429 45.714286 38.4 0 58.514286-18.285714 58.514285-54.857143 0-32.914286-18.285714-49.371429-58.514285-49.371428h-78.628572v-146.285715h193.828572v40.228572h-133.485715v64h36.571429c67.657143 0 102.4 31.085714 104.228571 87.771428-1.828571 60.342857-38.4 91.428571-106.057142 93.257143-43.885714 3.657143-80.457143-9.142857-104.228572-34.742857z" fill="#FFFFFF" p-id="3907"></path></svg>