<?xml version="1.0" standalone="no"?><!DOCTYPE svg PUBLIC "-//W3C//DTD SVG 1.1//EN" "http://www.w3.org/Graphics/SVG/1.1/DTD/svg11.dtd"><svg t="1576489909306" class="icon" viewBox="0 0 1024 1024" version="1.1" xmlns="http://www.w3.org/2000/svg" p-id="11022" xmlns:xlink="http://www.w3.org/1999/xlink" width="200" height="200"><defs><style type="text/css"></style></defs><path d="M0 0h1024v1024H0z" fill="#FFFFFF" p-id="11023"></path><path d="M125.44 823.881143H65.901714V563.273143l-65.828571 57.636571v-64.073143l65.828571-57.124571h59.538286z m146.285714 25.088l-65.389714 50.176V759.222857h65.389714z m255.195429-25.088h-197.485714v-53.394286l121.709714-140.434286a86.016 86.016 0 0 0 12.873143-19.236571 49.152 49.152 0 0 0 3.730285-20.260571 42.861714 42.861714 0 0 0-4.827428-20.845715 34.889143 34.889143 0 0 0-13.385143-14.628571 43.885714 43.885714 0 0 0-21.430857-5.339429 41.179429 41.179429 0 0 0-28.379429 10.166857 39.570286 39.570286 0 0 0-11.264 31.524572h-58.953143a97.792 97.792 0 0 1 12.873143-50.688 84.406857 84.406857 0 0 1 35.401143-33.133714 112.64 112.64 0 0 1 50.395429-11.190858 117.028571 117.028571 0 0 1 39.643428 6.436572 93.696 93.696 0 0 1 31.597715 18.651428 80.457143 80.457143 0 0 1 20.406857 29.257143 101.814857 101.814857 0 0 1 7.314285 39.497143 77.824 77.824 0 0 1-8.045714 36.571429 243.126857 243.126857 0 0 1-26.770286 37.376l-91.136 105.179428h126.025143z m243.931428-93.988572a94.427429 94.427429 0 0 1-13.385142 51.785143 85.869714 85.869714 0 0 1-35.913143 33.133715 109.714286 109.714286 0 0 1-49.298286 11.190857 113.883429 113.883429 0 0 1-38.034286-6.436572 93.842286 93.842286 0 0 1-32.182857-19.236571 87.771429 87.771429 0 0 1-21.430857-30.427429 99.547429 99.547429 0 0 1-7.314286-40.594285V593.115429a109.275429 109.275429 0 0 1 7.314286-40.594286 89.819429 89.819429 0 0 1 53.613714-49.664 111.616 111.616 0 0 1 38.034286-6.436572 109.714286 109.714286 0 0 1 49.298286 11.190858 85.796571 85.796571 0 0 1 35.913143 33.133714 99.181714 99.181714 0 0 1 13.385142 51.785143z m-59.538285-0.512V594.285714a47.250286 47.250286 0 0 0-10.752-32.036571 35.766857 35.766857 0 0 0-28.452572-11.776 36.937143 36.937143 0 0 0-28.379428 12.288 44.909714 44.909714 0 0 0-11.264 32.036571v135.094857a44.982857 44.982857 0 0 0 11.264 32.036572 37.302857 37.302857 0 0 0 28.379428 11.776 38.107429 38.107429 0 0 0 20.918857-5.339429 35.766857 35.766857 0 0 0 13.970286-15.506285 65.828571 65.828571 0 0 0 4.315429-23.478858z m312.027428-176.201142l-105.618285 270.628571h-64.365715l105.618286-270.628571h-85.796571v50.761142h-56.832V499.785143H1024v53.394286z m0 0" fill="#5182E4" p-id="11024"></path><path d="M0 146.285714h752.932571v90.331429H0z m0 150.601143h301.202286v90.331429H0z" fill="#5182E4" fill-opacity="0.5" p-id="11025"></path></svg>
