<svg t="1755070410253" class="icon" viewBox="0 0 1024 1024" version="1.1" xmlns="http://www.w3.org/2000/svg" p-id="11631" width="200" height="200"><path d="M488.448 138.88a336.256 336.256 0 0 1 306.048 232.576l3.2 10.752 7.296 3.072c57.536 25.6 103.168 70.976 129.664 126.72h-73.6a197.248 197.248 0 0 0-82.048-68.224v-0.064l-6.08-2.56-28.032-11.712-8.576-29.12-2.752-9.28-7.424-20.288a272 272 0 0 0-523.456 103.936h-0.064l0.256 11.52 0.32 4.096 1.728 30.848-23.04 20.48-3.968 3.584a160 160 0 0 0 99.52 275.84l9.6 0.256H512v64H286.784l-13.44-0.448a224.064 224.064 0 0 1-209.088-212.48L64 661.376c0-62.848 26.112-121.408 70.4-163.136l4.864-4.288-0.32-5.632-0.256-13.632c0-185.6 150.4-336 336-336l13.76 0.256z" p-id="11632"></path><path d="M873.344 617.344l45.312 45.312-41.472 41.344H960v64h-128v64h128v64h-128v96h-64V896h-128v-64h128v-64h-128v-64h82.752l-41.408-41.344 45.312-45.312 73.344 73.408 73.344-73.408z" p-id="11633"></path></svg>
