<?xml version="1.0" standalone="no"?><!DOCTYPE svg PUBLIC "-//W3C//DTD SVG 1.1//EN" "http://www.w3.org/Graphics/SVG/1.1/DTD/svg11.dtd"><svg t="1624262501667" class="icon" viewBox="0 0 1102 1024" version="1.1" xmlns="http://www.w3.org/2000/svg" p-id="11186" xmlns:xlink="http://www.w3.org/1999/xlink" width="17.21875" height="16"><defs><style type="text/css"></style></defs><path d="M770.638769 605.558154c0-25.6 21.622154-46.434462 48.364308-46.434462a49.506462 49.506462 0 0 1 34.225231 13.587693c9.058462 8.566154 14.178462 20.381538 14.178461 32.748307v0.098462a45.331692 45.331692 0 0 1-14.178461 32.748308c-9.176615 8.743385-21.464615 13.607385-34.225231 13.587692-12.760615 0-25.009231-4.864-34.185846-13.587692a45.331692 45.331692 0 0 1-14.178462-32.748308z m13.587693 102.045538h302.611692v222.365539c0 43.776-37.513846 79.714462-83.298462 79.714461H91.864615c-45.824 0-83.298462-35.938462-83.298461-79.714461v-597.661539c0-43.835077 37.533538-79.734154 83.298461-79.734154h911.675077c45.824 0 83.298462 35.899077 83.298462 79.734154v164.844308H784.226462c-45.824 0-83.298462 35.899077-83.298462 79.675077v51.003077c0 43.835077 37.533538 79.714462 83.298462 79.714461v0.059077z" fill="#0345BF" p-id="11187"></path><path d="M933.356308 202.023385H384.945231L732.258462 18.294154c40.113231-21.208615 90.998154-7.089231 113.152 31.271384l87.945846 152.457847z" fill="#FF9323" p-id="11188"></path></svg>