<svg t="1736824567561" class="icon" viewBox="0 0 1024 1024" version="1.1" xmlns="http://www.w3.org/2000/svg" p-id="15200" width="200" height="200"><path d="M596.1 904.6H427.9c-15.5 0-28-12.6-28-28v-42.1h28v42.1h168.2v-42.1h28v42.1c0.1 15.4-12.5 28-28 28z" fill="#3DB2EF" p-id="15201"></path><path d="M540 960.6h-56c-15.5 0-28-12.6-28-28v-42.1h28v42.1h56v-42.1h28v42.1c0.1 15.5-12.5 28-28 28zM371.8 820.4h280.4v28H371.8zM371.8 764.4h280.4v28H371.8zM582.1 315.7h28v28h-28zM638.2 371.8h28v28h-28zM526 315.7h28v28h-28zM638.2 315.7h28v28h-28zM638.2 427.9h28v28h-28zM413.9 371.8h28v28h-28zM357.8 371.8h28v28h-28zM469.9 371.8h28v28h-28zM413.9 427.9h28v28h-28zM357.8 427.9h28v28h-28zM357.8 315.7h28v28h-28zM582.1 259.6h28v28h-28zM526 259.6h28v28h-28zM638.2 259.6h28v28h-28zM357.8 259.6h28v28h-28zM582.1 203.6h28v28h-28zM526 203.6h28v28h-28zM413.9 203.6h28v28h-28zM469.9 203.6h28v28h-28zM582.1 484h28v28h-28zM526 484h28v28h-28zM413.9 484h28v28h-28zM469.9 484h28v28h-28zM469.9 427.9h28v28h-28zM498 343.8h-84.1v-84.1H498v84.1z m-56.1-28.1h28v-28h-28v28zM610.1 455.9H526v-84.1h84.1v84.1z m-56-28h28v-28h-28v28z" fill="#3DB2EF" p-id="15202"></path><path d="M638.2 736.3H385.8c-6.2 0-11.7-4.1-13.4-10l-40.8-135.8c-72.5-56.2-114-140.8-114-232.7 0-5.1 2.7-9.7 7.1-12.2 4.4-2.5 9.8-2.4 14.1 0.2l70.1 42.1-14.4 24-47.7-28.6c7 74.6 44.5 141.9 105.3 187.6 2.4 1.8 4.1 4.3 5 7.2l39.1 130.2h231.5l39.1-130.2 26.9 8.1-42.1 140.2c-1.8 5.9-7.2 9.9-13.4 9.9z" fill="#3DB2EF" p-id="15203"></path><path d="M512 652.2c-5.7 0-10.8-3.4-13-8.7-2.2-5.2-1-11.3 3-15.3l70.1-70.1L592 578l-43.7 43.7c129.8-17.8 230.1-129.4 230.1-263.9 0-27.3-4.1-54.2-12.2-79.9-9.1-28.8-22.9-55.7-41.1-80l22.4-16.8c20.1 26.8 35.4 56.5 45.4 88.4 8.9 28.5 13.5 58.2 13.5 88.3 0 162.3-132.1 294.4-294.4 294.4zM259 277.9l-26.7-8.5C271.5 146.2 384 63.4 512 63.4c64.3 0 125.4 20.3 176.6 58.8 2.3 1.7 4 4.1 4.9 6.8 2.5 7.4-1.5 15.3-8.9 17.8l-84.1 28-8.9-26.6 57.1-19.1c-41.2-24.8-88-37.7-136.8-37.7-115.7 0-217.4 75-252.9 186.5z" fill="#3DB2EF" p-id="15204"></path></svg>
