<?xml version="1.0" standalone="no"?><!DOCTYPE svg PUBLIC "-//W3C//DTD SVG 1.1//EN" "http://www.w3.org/Graphics/SVG/1.1/DTD/svg11.dtd"><svg t="1624429935100" class="icon" viewBox="0 0 1024 1024" version="1.1" xmlns="http://www.w3.org/2000/svg" p-id="8356" xmlns:xlink="http://www.w3.org/1999/xlink" width="16" height="16"><defs><style type="text/css"></style></defs><path d="M0 0h1024v1024H0z" fill="#FFFFFF" fill-opacity="0" p-id="8357"></path><path d="M716.8 842.368H633.6l-9.6-17.088h-224l-9.6 17.088H307.2c-16.128 0-29.12 12.032-29.12 26.88 0 14.72 12.992 26.752 29.12 26.752h409.6c16.128 0 29.184-12.032 29.184-26.816 0-14.72-13.056-26.816-29.184-26.816zM885.376 128H138.688C90.432 128 64 154.368 64 198.72v520.512c0 44.416 26.432 70.656 74.688 70.656h746.624c48.256 0 74.688-26.24 74.688-70.72V198.72c0-44.288-26.432-70.656-74.624-70.72zM743.68 415.808l-156.8 167.68a36.928 36.928 0 0 1-49.024 2.816L424 493.312l-87.872 85.76a39.552 39.552 0 0 1-52.608 0.96 30.72 30.72 0 0 1-10.688-22.656 30.528 30.528 0 0 1 9.984-22.912l118.72-112.96a35.072 35.072 0 0 1 45.952-0.768l112.448 97.6 129.28-139.2a38.848 38.848 0 0 1 50.56-3.84 26.624 26.624 0 0 1 3.84 40.448z" fill="#0071FF" p-id="8358"></path></svg>