<?xml version="1.0" standalone="no"?><!DOCTYPE svg PUBLIC "-//W3C//DTD SVG 1.1//EN" "http://www.w3.org/Graphics/SVG/1.1/DTD/svg11.dtd"><svg t="1624262418002" class="icon" viewBox="0 0 1024 1024" version="1.1" xmlns="http://www.w3.org/2000/svg" p-id="4233" width="16" height="16" xmlns:xlink="http://www.w3.org/1999/xlink"><defs><style type="text/css"></style></defs><path d="M490.666667 725.333333H213.333333a42.666667 42.666667 0 0 1-42.666666-42.666666V213.333333a42.666667 42.666667 0 0 1 42.666666-42.666666h597.333334a42.666667 42.666667 0 0 1 42.666666 42.666666v469.333334a42.666667 42.666667 0 0 1-42.666666 42.666666h-277.333334v85.333334h213.333334a21.333333 21.333333 0 1 1 0 42.666666h-469.333334a21.333333 21.333333 0 1 1 0-42.666666h213.333334v-85.333334z" fill="#005DFC" p-id="4234"></path><path d="M687.146667 328.234667a21.333333 21.333333 0 0 1 35.754666 22.954666l-2.048 3.242667-133.290666 171.392a42.666667 42.666667 0 0 1-62.378667 5.418667l-3.712-3.84-94.592-110.336-90.453333 108.586666a21.333333 21.333333 0 0 1-34.986667-24.149333l2.133333-3.157333 90.538667-108.629334a42.666667 42.666667 0 0 1 60.117333-5.461333l2.645334 2.432 2.432 2.56 94.549333 110.378667 133.290667-171.392z" fill="#FFFFFF" p-id="4235"></path></svg>