<svg t="1779768020143" class="icon" viewBox="0 0 1024 1024" version="1.1" xmlns="http://www.w3.org/2000/svg" p-id="12318" width="32" height="32"><path d="M0 0m204.8 0l614.4 0q204.8 0 204.8 204.8l0 614.4q0 204.8-204.8 204.8l-614.4 0q-204.8 0-204.8-204.8l0-614.4q0-204.8 204.8-204.8Z" fill="#101010" p-id="12319"></path><path d="M585.216 833.3312v-375.808a119.4496 119.4496 0 0 1 119.3984 119.3472v256.4096z m-423.8336-8.8576v-605.4912h121.1392v605.4912z m121.8048-247.6032v-119.3472h302.08v35.1232a84.3264 84.3264 0 0 1-84.3776 84.224z m149.248-119.3472l103.6288-242.3296h133.4272l-79.9232 186.88a91.2896 91.2896 0 0 1-83.968 55.4496z" fill="#FFFFFF" p-id="12320"></path><path d="M862.5664 260.9152a70.2464 70.2464 0 0 1-70.2464 70.2464c-10.24 0-64.9728 7.0144-64.9728 7.0144s10.5472-12.288 19.3024-23.8592a70.2464 70.2464 0 1 1 115.8656-53.3504z" fill="#017AFD" p-id="12321"></path></svg>
