<svg fill="none" height="1em" style="flex:none;line-height:1" viewBox="0 0 465 470" width="1em" xmlns="http://www.w3.org/2000/svg">
  <title>Moonshot</title>
  <rect width="465" height="470" fill="#000000"/>
  <path fill="#FFFFFF" fill-rule="evenodd" clip-rule="evenodd" d="M418.766 93.7799C388.626 53.1699 345.086 22.0699 292.446 7.96988C239.806 -6.13012 186.536 -0.970116 140.136 19.1299L418.766 93.7799ZM40.7758 100.85C61.3758 70.8399 88.5858 46.4299 119.776 29.1499L325.036 84.1499C311.566 91.9199 297.136 105.31 285.966 120.03L454.736 165.25C459.526 181.08 462.646 197.49 463.956 214.24L40.7758 100.85ZM456.686 292.45C454.306 301.35 451.436 309.99 448.116 318.34L2.44584 198.93C3.74584 190.03 5.58584 181.12 7.96584 172.22C13.5658 151.31 21.8458 131.84 32.3458 114.08L250.436 172.52C241.706 185 233.756 198.56 226.756 213.07L460.516 275.71C459.446 281.3 458.166 286.88 456.676 292.47L456.686 292.45ZM13.4858 310.23C2.67584 279.96 -1.93416 247.22 0.745843 213.95L206.426 269.06C204.946 273.74 203.556 278.48 202.266 283.29C199.646 293.08 197.506 302.85 195.846 312.55L417.946 372.06C407.606 385.79 395.826 398.23 382.896 409.21L13.4858 310.23ZM172.206 456.69C102.096 437.9 48.1158 388.98 20.4758 327.59L187.846 372.44C187.576 388.05 188.546 403.26 190.676 417.85L312.286 450.43C268.876 466.39 220.286 469.57 172.206 456.69Z"/>
</svg>
